/* XPM */
static char *d1230ea205614d5ee15b3b8207d5c053Licsx7WuMnVRJCb0[] = {
/* columns rows colors chars-per-pixel */
"75 60 102 2 ",
"   c black",
".  c #2A2A2A",
"X  c #323232",
"o  c #3D3D3D",
"O  c #434343",
"+  c #4B4B4B",
"@  c #565656",
"#  c #5C5C5C",
"$  c #646464",
"%  c #6A6564",
"&  c #6B6867",
"*  c #6C6B6B",
"=  c #716D6C",
"-  c #7D716F",
";  c #727272",
":  c #797574",
">  c #7B7B7B",
",  c #817B7A",
"<  c #917C77",
"1  c #967E79",
"2  c #9C807B",
"3  c #A6847F",
"4  c #A8847F",
"5  c #838282",
"6  c #8B8B8B",
"7  c #9F8883",
"8  c #918D8C",
"9  c #979797",
"0  c #9B9A9A",
"q  c #A78681",
"w  c #AC8681",
"e  c #B78984",
"r  c #BF938D",
"t  c #A09F9F",
"y  c #A3A2A2",
"u  c #AEA9A7",
"i  c #ADADAD",
"p  c #B4B3B3",
"a  c #B8B7B7",
"s  c #BCBCBC",
"d  c #C48E89",
"f  c #CD918C",
"g  c #D2938E",
"h  c #C19A92",
"j  c #D79590",
"k  c #DC9792",
"l  c #DE9893",
"z  c #E49A95",
"x  c #E89C97",
"c  c #EA9D98",
"v  c #C4A49E",
"b  c #D0A79E",
"n  c #ECA39C",
"m  c #DAADAA",
"M  c #D7B0AE",
"N  c #D4B5B3",
"B  c #E7ABA4",
"V  c #EEAAA3",
"C  c #F1AEA6",
"Z  c #ECB4AD",
"A  c #F3B3AB",
"S  c #F5B8AF",
"D  c #ECBEB5",
"F  c #F6BCB2",
"G  c #F8BFB5",
"H  c #DAC1BC",
"J  c #EBC0B8",
"K  c #F9C2B7",
"L  c #F6C6BC",
"P  c #F9C9BF",
"I  c #C3C3C3",
"U  c #CEC8C6",
"Y  c #C8C8C8",
"T  c #CACACA",
"R  c gray81",
"E  c #D0D0D0",
"W  c LightGray",
"Q  c gray83",
"!  c #D5D5D5",
"~  c gray86",
"^  c #F3CBC3",
"/  c #F9CBC2",
"(  c #EFD4CF",
")  c #EDD7D2",
"_  c #EDD7D3",
"`  c #ECD9D6",
"'  c gray88",
"]  c gray89",
"[  c #E6E6E6",
"{  c #E7E7E7",
"}  c gray91",
"|  c #E9E9E9",
" . c #EBEBEB",
".. c #ECECEC",
"X. c #EFEFEF",
"o. c gray94",
"O. c #F2F0F0",
"+. c #F4F4F4",
"@. c #F8F8F8",
"#. c #FBFBFB",
"$. c gray99",
"%. c white",
/* pixels */
"%.[ %.%.[ %.[ %.%.[ %.[ %.[ [ %.[ %.[ [ %.[ %.[ %.%.[ %.[ %.%.[ %.[ %.[ [ %.[ %.[ [ %.[ %.[ #.%.[ %.[ %.%.[ %.[ %.| [ %.[ %.[ [ %.[ %.[ #.%.[ %.[ %.%.",
"[ %.[ [ %.[ %.[ [ %.[ %.[ %.%.[ %.[ %.%.[ %.[ %.[ [ %.[ %.[ [ %.[ %.[ %.%.[ %.[ %.%.[ %.[ %.| [ %.[ %.[ [ %.[ %.[ #.%.[ %.[ %.%.[ %.[ %.| [ %.[ %.[ [ ",
"#.| #.#.| #.| #.#.| #.| #.| | #.| #.| | #.| #.| #.#.| #.| #.#.| #.| #.| | #.| #.| | #.# $ | #.#.| #.| #.#.| #.[ #.X.[ #.| #.| | #.| #.| +.#.| #.| #.#.",
"%.[ %.%.[ %.[ %.%.[ %.[ %.[ [ %.[ %.[ [ %.[ %.[ %.%.[ %.[ %.%.[ %.[ %.[ [ %.[ %.[ [ $ $ ` 9 #.%.[ %.[ %.%.[ %.[ %.| [ %.[ %.[ [ %.[ %.[ #.%.[ %.[ %.%.",
"[ %.[ [ %.[ %.[ [ %.[ %.[ %.%.[ %.[ %.%.[ %.[ %.[ [ %.[ %.[ [ %.[ %.[ %.%.[ %.[ %.%.9 $ ( / > p %.[ %.[ [ %.[ %.[ #.%.[ %.[ %.%.[ %.[ %.X.[ %.[ %.[ [ ",
"%.[ %.%.[ %.[ %.%.[ %.[ %.[ [ %.[ %.[ [ %.[ %.[ %.%.[ %.[ %.%.[ %.[ %.[ [ %.[ %.[ W 9 $ K K K $ $ %.[ %.%.[ %.[ %.| [ %.[ %.[ [ %.[ %.[ +.%.[ %.[ %.%.",
"[ %.[ [ %.[ %.[ [ %.[ %.[ %.%.[ %.[ %.%.[ %.[ %.[ [ %.[ %.[ [ %.[ %.[ %.%.[ %.[ %.* 9 9 n V C C 7 $ %.] [ %.[ %.[ #.%.[ %.[ %.%.[ %.[ %.X.[ %.[ %.[ [ ",
"%.[ %.%.[ %.[ %.%.[ %.[ %.[ [ %.[ %.[ [ %.[ %.[ %.%.[ %.[ %.%.[ %.[ %.[ [ %.[ %.] 9 9 9 z n A A V 7 $ %.%.[ %.[ %.| [ %.[ %.[ [ %.[ %.[ +.%.[ %.[ %.%.",
"%.[ %.%.[ %.[ %.%.@ O [ %.[ [ %.[ %.[ [ %.[ %.[ %.%.[ %.[ %.%.[ %.[ %.[ [ %.[ %.X.9 9 9 k c c n V g @ Q %.[ %.[ %.| [ %.[ %.[ [ %.[ %.[ #.%.[ %.[ %.%.",
"[ %.[ [ %.[ %.[ [ X X %.[ %.%.[ %.[ %.%.[ %.[ %.[ [ %.[ %.[ [ %.[ %.[ %.%.[ %.[ $ 0 9 9 f c c c c S K 6 [ %.[ %.[ #.%.[ %.[ %.%.[ %.[ %.| [ %.[ %.[ [ ",
"%.[ %.%.[ %.[ %.6 X X [ %.[ [ %.[ %.[ [ %.[ %.[ %.%.[ %.[ %.%.[ %.[ %.[ [ %.[ %.0 9 9 9 5 c j c n G K G # [ %.[ %.| [ %.[ %.[ [ %.[ %.[ #.%.[ %.[ %.%.",
"[ %.[ [ %.[ %.[ $ X X %.[ %.%.[ %.[ %.%.[ %.[ %.[ [ %.[ %.[ [ %.[ %.[ %.%.[ %.[ 0 9 9 9 0 * $ $ $ $ b / 0 %.[ %.[ #.%.[ %.[ %.%.[ %.[ %.| [ %.[ %.[ [ ",
"%.[ %.%.[ %.[ %.$ X X $ %.[ [ %.[ %.[ [ %.[ %.[ %.%.[ %.[ %.%.[ %.[ %.[ [ %.[ %.9 $ X X X X X X 9 9 # %.%.5 %.| %.| [ %.[ %.[ [ %.[ %.[ #.%.[ %.[ %.%.",
"%.[ %.%.[ %.[ %.$ X X + %.[ [ %.[ %.[ [ %.[ %.[ %.%.[ %.[ %.%.[ %.[ %.[ [ %.[ $ o ] %.%.%.%.] @ 0 & %.%.%.%.%.@ %.| [ %.[ %.[ [ %.[ %.[ +.%.[ %.[ %.%.",
"[ %.[ [ %.[ %.[ $ X X X [ %.%.[ %.[ %.%.[ %.[ %.[ [ %.[ %.[ [ %.[ %.[ %.%.[ 9 9 %.%.%.%.%.%.%.%.%.%.%.        %.W #.%.[ %.[ %.%.[ %.[ %.X.[ %.[ %.[ [ ",
"%.[ %.%.[ %.[ %.$ X X X %.[ [ %.[ %.[ [ %.[ %.[ %.%.$ $ $ ; 9 y y 0 6 $ $ 0 . 0 %.%.%.%.%.%.%.%.%.%.          %.%.$ [ %.[ %.[ [ %.[ %.[ +.%.[ %.[ %.%.",
"[ %.[ [ %.[ %.[ $ 0 9 0 @ %.%.[ %.[ %.%.[ %.[ 6 $ $ 9 9 9 9 9 9 9 9 9 0 9 X X @ %.%.%.%.%.%.%.%.%.%.            %.%.9 | %.[ %.%.[ %.[ %.X.[ %.[ %.[ [ ",
"%.[ %.%.[ %.[ %.W 9 9 $ 0 [ [ %.[ %.[ [ %.[ %.$ K K K F A c % 5 9 9 9 9 9 X X X 0 %.%.%.%.%.%.%.%.%.            %.%.0 X [ %.[ [ %.[ %.[ +.%.[ %.[ %.%.",
"X.+.o.o.+.o.+.o.X.9 9 X X +.+.o.+.o.+.+.o.o.o.9 K K K C c c j c z c 0 9 0 X 9 9 $ %.%.%.%.%.%.%.%.#.>         ] %.%.9 X 0 o.+.+.o.+.o.o.o.X.+.o.+.o.o.",
"[ %.[ [ %.[ %.[ [ 9 X X X # %.[ %.[ %.%.| %.| @ K K F g c c x c x & 9 9 9 9 9 0 9 %.%.%.%.%.%.%.%.+.%.      O %.%.$ O X O $ %.%.[ %.[ %.X.[ %.[ %.[ [ ",
"%.[ %.%.[ %.[ %.%.X X X X X [ %.[ %.[ [ %.[ %.[ $ K S F n c c z c 9 9 9 0 o.%.%.%.%.a %.%.%.%.%.%.%.@ %.%.%.%.%.: @ $ $ 8 %.[ [ %.[ %.[ +.%.[ %.[ %.%.",
"[ %.[ [ %.[ %.[ [ $ X X X X | [ %.[ %.%.[ %.[ %.9 K K F c c x c k X 9 $ %.%.s   I %.%.@ %.%.%.%.%.%.%.$ @ @ $ %.%.%.%.%.%.%.Y %.[ $ [ %.X.[ %.[ %.[ [ ",
"%.[ %.%.[ %.[ %.%.y X + X 9 9 %.[ %.[ [ %.[ %.[ @ r K n f c x c # X ; %.%.          %.%.# %.%.%.%.+.%.%.%.%.%.%.%.%.%.%.%.%.$ o.%.[ %.[ +.%.[ %.[ %.%.",
"[ %.[ [ %.[ %.[ [ %.X 0 9 9 9 u %.[ %.%.[ %.[ %.[ 0 K K K C n V 0 9 %.%.              %.%.# %.%.o + %.%.%.%.+.= %.%.%.%.6 %.@ %.Y # [ %.X.[ %.[ %.[ [ ",
"[ %.[ [ %.[ %.[ [ %.; 9 9 9 + X %.[ %.%.[ %.[ %.[ $ v L K C S A 9 9 %.%.              %.%.%.%.%.%.%.$ - 0 1 w 3 %.%.~ %.%.; $ %.[ %.[ %.X.[ %.[ %.[ [ ",
"%.[ %.%.[ %.[ %.%.[ %.9 X X X X @ %.[ [ %.[ %.[ %.%.9 _ K K S z 9 $ %.[               %.%.%.%.%.%.& 2 1 1 < d d | %.%.= %.%.$ [ ~ $ @ > +.%.[ %.[ %.%.",
"[ %.[ [ %.[ %.[ [ %.[ 5 X X X X X $ %.%.[ %.[ %.[ [ p $ K ^ K K 9 6 %.%.              %.%.%.%.%.%.< 1 < 4 d d d 5 %.%.%.> W %.%.[ %.[ %.X.[ %.[ %.[ [ ",
"%.[ %.%.[ %.[ %.%.[ %.[ X X X X 9 9 $ [ %.[ %.[ %.%.[ $ D K x z 9 > %.%.              %.%.# %.%.$ < 1 d d z d f $ %.%.%.%.%.[ [ %.[ %.[ #.%.[ %.[ %.%.",
"[ %.[ [ %.[ %.[ [ %.[ %.$ X 0 9 0 9 0 + [ %.[ %.[ [ %.[ 5 _ P L 9 X $ %.%.          %.%.9 %.%.$ w e d d g f 3 q # %.%.%.%.%.%.%.[ %.[ %.| [ %.[ %.[ [ ",
"[ %.[ [ %.[ %.[ [ %.[ %.[ X 9 9 9 + X X 9 $ X X . @ 6 X X $ z g > X ; $ %.%.%.%.%.%.%.# %.%.= w e d l h K K K K 9 %.%.%.%.$ %.%.[ %.[ %.X.[ #.[ %.[ [ ",
"%.[ %.%.[ %.[ %.%.[ %.[ %.[ 9 9 : X X + X X X X + 0 X X 9 9 $ # X X 9 9 9 $ %.%.%.# %.%.%.$ q d g j K K K K K K Q %.%.%.%.+.[ [ %.[ %.[ +.5 R ` [ %.%.",
"[ %.[ [ %.[ %.[ [ %.[ %.[ %.%.9 X $ X 0 X X X X 0 X X X 9 9 X 9 $ X 9 ; ; & & & X 9 %.%.%.%.d k d F K K K K K K %.%.%.%.$ %.a $ a %.[ %.5 X.%.5 $ [ [ ",
"%.[ %.%.[ %.[ %.%.[ %.[ %.[ [ %.$ X 9 X X X X 8 9 X X X 9 9 X , 9 0 9 9 0 0 0 X & # %.%.%.%.%.z B G K K K K K K $.%.%.%.%.%.%.%.%.%.%.%.%.%.%.X [ %.%.",
"[ %.[ [ %.[ %.[ [ %.[ %.[ %.%.% X 9 9 X X X X 9 9 X X X 9 + X 0 9 9 9 9 9 9 X X 0 %.%.%.6 %.%.%.A S G K K K K K %.%.%.%.%.%.%.%.%.%.%.%.%.%.y %.5 [ [ ",
"..@.....+.X.+.X.| #.| #.| #.#.9 X 9 9 X X X X 9 9 X X 9 9 + X 9 9 $ 9 9 0 X 9 t %.%.$ %.5 %.%.%.%.B J S K K K H %.%.5 %.%.%.%.%.%.%.%.%.%.%.%.X +.X.| ",
"%.[ %.%.[ %.[ %.%.[ %.[ %.[ , X 9 0 0 0 X X X 9 X X 9 9 9 X X 9 9 X 8 9 9 6 i %.#.%.%.%.%.o.%.%.%.%.% Z Z D N C %.y %.%.%.%.%.%.%.%.%.%.%.%.5 $ [ %.%.",
"[ %.[ [ %.[ %.[ [ %.[ %.[ %.9 X 9 @ 9 9 X X X 9 9 X 9 9 0 X X X 9 X 9 0 %.%.%.# %.y %.%.X.%.%.%.%.%.%.y M m N # %.%.%.%.%.%.%.%.%.%.%.%.%.@ ; [ %.[ [ ",
"%.[ %.%.[ %.[ %.%.[ %.[ %.& # X 9 X 9 9 9 X X 9 9 X 9 9 > X X X 9 X 9 y $ %.R %.$ %.%.Y %.%.%.%.%.%.%.%.%.$ $ %.%.%.%.%.%.%.%.%.%.%.%.%.a %.[ %.[ %.%.",
"[ %.[ [ %.[ %.[ [ %.[ %.| o X X 9 X . 9 9 X X 9 9 X 9 9 5 X X X 9 X X X X 9 %.; %.%.@ %.%.%.%.%.%.%.%.%.# %.%.%.%.%.%.%.%.%.%.%.%.$ Q %.X.[ %.[ %.[ [ ",
"%.[ %.%.[ %.[ %.%.[ %.[ $ X 6 X 9 # X 9 9 X X 9 9 X 9 9 5 X X X 9 X X 6 X 0 X $ %.0 %.%.%.%.%.%.%.] & %.%.%.%.%.%.%.+.@ # ' [ [ %.[ %.[ +.%.[ %.[ %.%.",
"%.[ %.%.[ %.[ %.%.[ %.s 0 X 0 X # 9 X 9 9 X X 9 0 X X 9 @ X 0 X y X X 9 X 9 X * 9 @ # > $ $ 6 %.%.%.%.$ %.[ %.[ %.| [ %.[ %.[ [ %.[ %.[ +.%.[ %.[ %.%.",
"[ %.[ [ %.[ %.[ [ %.[ %.0 X 0 X X 9 X 9 9 X X 0 X X X 9 X @ # #.O X X 9 X 9 X X 0 X 9 %.%.%.%.%.%.%.# [ [ %.[ %.[ #.%.[ %.[ %.%.[ %.[ %.X.[ %.[ %.[ [ ",
"%.[ %.%.[ %.[ %.%.[ $ %.9 X 9 X X 9 X 9 9 X $ %.%.%.%.%.%.%.%.%.%.5 X 9 X 9 9 X 0 o 0 %.%.%.%.%.%.%.[ %.%.[ %.[ %.| [ %.[ %.[ [ %.[ %.[ +.%.[ %.[ %.%.",
"[ %.[ [ %.[ %.[ [ %.%.%.9 X 9 9 X 0 X 9 9 9 %.%.%.%.%.%.%.%.%.%.%.%.%.* 9 9 9 X X 9 $ %.%.%.%.%.%.[ %.[ [ %.[ %.[ #.%.[ %.[ %.%.[ %.[ %.X.[ %.[ %.[ [ ",
"%.[ %.%.[ %.[ %.%.%.%.%.0 X 9 9 0 X & 9 %.%.%.%.%.%.%.%.%.%.%.%.%.%.%.%.%.& 9 X o & %.%.%.%.%.%.%.%.[ %.%.[ %.[ %.| [ %.[ %.[ [ %.[ %.[ +.%.[ %.[ %.%.",
"%.[ %.%.[ %.[ %.$ %.%.%.0 0 X 9 9 X 5 %.%.%.%.%.%.%.%.%.%.%.%.%.%.%.%.%.%.%.%.%.%.%.%.%.%.%.%.%.$ %.[ %.%.[ %.[ %.| [ %.[ %.[ [ %.[ %.[ #.%.[ %.[ %.%.",
"[ %.[ [ %.[ %.5 %.%.%.%.%.0 9 0 > %.%.%.%.%.%.%.@ | %.[ # %.%.%.%.%.& %.%.%.%.%.%.%.%.%.%.%.%.%.%.[ %.[ [ %.[ %.[ #.%.[ %.[ %.%.[ %.[ %.| [ %.[ %.[ [ ",
"%.[ %.%.[ %.[ %.%.%.%.%.%.%.%.%.%.%.%.%.%.U | [ %.%.[ %.[ %.%.%.%.%.%.%.%.%.%.%.%.%.%.%.%.%.%.%.[ %.[ %.%.[ %.[ %.| [ %.[ %.[ [ %.[ %.[ #.%.[ %.[ %.%.",
"[ %.[ [ %.[ $ %.%.%.%.%.%.%.%.%.%.%.p i | %.[ %.[ [ %.[ %.R %.%.%.%.%.%.%.%.%.%.%.%.%.%.%.%.%.+.%.[ %.[ [ %.[ %.[ #.%.[ %.[ %.%.[ %.[ %.X.[ %.[ %.[ [ ",
"%.[ %.%.[ %.%.%.%.%.%.%.%.%.%.%.y %.[ [ %.[ %.[ %.%.[ %.[ %.%.%.%.%.%.%.# } %.%.%.%.%.%.%.%.%.$ [ %.[ %.%.[ %.[ %.| [ %.[ %.[ [ %.[ %.[ +.%.[ %.[ %.%.",
"%.[ %.%.[ | %.%.%.%.%.%.%.%.| %.[ %.[ [ %.[ %.[ %.%.[ %.[ %.' %.%.%.%.%.> %.$ %.%.%.%.%.%.%.%.$ [ %.[ %.%.[ %.[ %.| [ %.[ %.[ [ %.[ %.[ #.%.[ %.[ %.%.",
"[ %.[ [ %.@ %.%.%.%.%.%.# %.%.[ %.[ %.%.[ %.[ %.[ [ %.[ %.[ [ %.%.%.%.%.p [ %.%.%.%.%.%.%.%.%.# %.[ %.[ [ %.[ %.[ #.%.[ %.[ %.%.[ %.[ %.| [ %.[ %.[ [ ",
"%.[ %.%.[ p %.%.%.%.%.[ %.[ [ %.[ %.[ [ %.[ %.[ %.%.[ %.[ %.%.@ %.%.%.%.%.#.[ @ %.%.%.%.%.%.%.; [ %.[ %.%.[ %.[ %.| [ %.[ %.[ [ %.[ %.[ #.%.[ %.[ %.%.",
"[ %.[ [ %.$ @ %.%.%.[ %.[ %.%.[ %.[ %.%.[ %.[ %.[ [ %.[ %.[ [ %.%.%.%.%.%.%.+.[ %.%.%.%.%.%.%.; %.[ %.[ [ %.[ %.[ #.%.[ %.[ %.%.[ %.[ %.| [ %.[ %.[ [ ",
"%.[ %.%.[ %.%.%.%.$ %.[ %.[ [ %.[ %.[ [ %.[ %.[ %.%.[ %.[ %.%.[ %.%.%.%.> %.[ %.# %.%.%.%.%.%.$ [ %.[ %.%.[ %.[ %.| | %.[ %.[ [ %.[ %.[ #.%.[ %.[ %.%.",
"X.+.X.| #.| #.6 o.' | #.| #.+.X.+.X.+.#.X.+.X.+.X.| #.| #.| X.+.| #.# > @ [ #.X.#.%.%.%.%.%.%.%.#.| #.| X.+.X.+.X.+.+.X.+.X.+.#.| #.| #.X.| +.X.#.| X.",
"[ %.[ [ %.[ %.[ [ %.[ %.[ %.%.[ %.[ %.%.[ %.[ %.[ [ %.[ %.[ [ %.[ %.[ %.%.[ %.[ %.%.%.%.%.%.# %.$ [ %.[ [ %.[ %.[ #.%.[ %.[ %.%.[ %.[ %.X.[ %.[ %.[ [ ",
"%.[ %.%.[ %.[ %.%.[ %.[ %.[ [ %.[ %.[ [ %.[ %.[ %.%.[ %.[ %.%.[ %.[ %.[ [ %.[ %.[ [ %.%.%.%.[ %.5 %.[ %.%.[ %.[ %.| [ %.[ %.[ [ %.[ %.[ +.%.[ %.[ %.%.",
"[ %.[ [ %.[ %.[ [ %.[ %.[ %.%.[ %.[ %.%.[ %.[ %.[ [ %.[ %.[ [ %.[ %.[ %.%.[ %.[ %.%.[ %.& $ $ [ %.[ %.[ [ %.[ %.[ #.%.[ %.[ %.%.[ %.[ %.X.[ %.[ %.[ [ ",
"%.[ %.%.[ %.[ %.%.[ %.[ %.[ [ %.[ %.[ [ %.[ %.[ %.%.[ %.[ %.%.[ %.[ %.[ [ %.[ %.[ [ %.[ %.[ #.%.[ %.[ %.%.[ %.[ %.| [ %.[ %.[ [ %.[ %.[ +.%.[ %.[ %.%."
};
