/* XPM */
static char *result[] = {
/* columns rows colors chars-per-pixel */
"75 75 152 2 ",
"   c black",
".  c gray5",
"X  c gray8",
"o  c #262626",
"O  c gray18",
"+  c #253637",
"@  c #2B393A",
"#  c #343434",
"$  c #363C3C",
"%  c #3C3C3C",
"&  c #394242",
"*  c #434343",
"=  c #4C4C4C",
"-  c #4B5A5B",
";  c #535353",
":  c #5C5C5C",
">  c #5F6363",
",  c #636363",
"<  c #646C6E",
"1  c #6C6C6C",
"2  c #666F71",
"3  c #667072",
"4  c #6A7375",
"5  c #6F7879",
"6  c #737474",
"7  c #7B7676",
"8  c #727779",
"9  c #7C7C7C",
"0  c #837F7F",
"q  c #9B7F7E",
"w  c #A17E7E",
"e  c #B57977",
"r  c #B37B7A",
"t  c #BC7C7A",
"y  c #C97C7A",
"u  c #E37E7C",
"i  c #767F82",
"p  c #758383",
"a  c #7D8384",
"s  c #7D8788",
"d  c #7C8C8C",
"f  c #7C9292",
"g  c #838383",
"h  c #8A8483",
"j  c #808688",
"k  c #838A8C",
"l  c #8B8B8B",
"z  c #958382",
"x  c #968F8D",
"c  c #998B89",
"v  c #96928F",
"b  c #858F90",
"n  c #849293",
"m  c #8D9393",
"M  c #8D9798",
"N  c #8C9C9D",
"B  c #949494",
"V  c #9A9594",
"C  c #939B9C",
"Z  c gray61",
"A  c #B88985",
"S  c #A49492",
"D  c #A79A96",
"F  c #A09F9F",
"G  c #AD9F9B",
"H  c #A5A19F",
"J  c #ABA09C",
"K  c #B4A19D",
"L  c #BCA39E",
"P  c #94A1A1",
"I  c #9BA1A1",
"U  c #A4A4A4",
"Y  c #ACACAC",
"T  c #B9A9A3",
"R  c #B3B3B3",
"E  c #BCBCBC",
"W  c #C88884",
"Q  c #D08381",
"!  c #DC8E8B",
"~  c #CD928E",
"^  c #C29894",
"/  c #DA9A95",
"(  c #E28987",
")  c #E48C8A",
"_  c #EB8E8C",
"`  c #F48987",
"'  c #F08F8C",
"]  c #FD8D8A",
"[  c #E4908E",
"{  c #EF918F",
"}  c #F8918F",
"|  c #E49591",
" . c #EB9492",
".. c #E79A96",
"X. c #E99A96",
"o. c #E69E99",
"O. c #EB9D98",
"+. c #FE9491",
"@. c #FF9D99",
"#. c #E7A29C",
"$. c #EBA39E",
"%. c #F2A29E",
"&. c #FCA29C",
"*. c #C3ACA6",
"=. c #CAADA7",
"-. c #DDADA6",
";. c #CDB0A7",
":. c #C6B4AD",
">. c #CBB2AB",
",. c #DBB5AD",
"<. c #D2B8AF",
"1. c #DDBEB5",
"2. c #E8A7A1",
"3. c #EFAEA7",
"4. c #FCA5A0",
"5. c #F2ABA4",
"6. c #FFAEA6",
"7. c #FFAEA8",
"8. c #E0B6AD",
"9. c #F5B3AB",
"0. c #FBB4AC",
"q. c #F4B8AF",
"w. c #F8B8AF",
"e. c #E4BEB4",
"r. c #F5BAB1",
"t. c #FDBDB4",
"y. c #E7C0B6",
"u. c #E5C7BC",
"i. c #EFC6BA",
"p. c #FDC2B7",
"a. c #F6C2B8",
"s. c #FEC5BA",
"d. c #F0CCBF",
"f. c #FDCABE",
"g. c #C4C4C4",
"h. c #CCCCCC",
"j. c #D4D4D4",
"k. c #DBDBDB",
"l. c #E0CCC0",
"z. c #F6CFC3",
"x. c #FFCCC0",
"c. c #FFD2C6",
"v. c #FFDACD",
"b. c #FCDFD0",
"n. c #FFE1D2",
"m. c #FFEBDC",
"M. c #E4E4E4",
"N. c #EBEBEB",
"B. c #FFFEEB",
"V. c #F3F3F3",
"C. c #FFFFFF",
"Z. c None",
/* pixels */
"Z.Z.Z.Z.Z.Z.Z.Z.Z.Z.Z.Z.Z.Z.Z.Z.Z.Z.Z.Z.Z.Z.Z.Z.Z.Z.Z.Z.Z.Z.Z.Z.Z.Z.Z.Z.Z.Z.Z.Z.Z.Z.Z.Z.Z.Z.Z.Z.Z.Z.Z.Z.Z.Z.Z.Z.Z.Z.Z.Z.Z.Z.Z.Z.Z.Z.Z.Z.Z.Z.Z.Z.Z.Z.Z.",
"Z.Z.Z.Z.Z.Z.Z.Z.Z.Z.Z.Z.Z.Z.Z.Z.Z.Z.Z.Z.Z.Z.Z.Z.Z.Z.Z.Z.Z.Z.Z.Z.Z.Z.Z.Z.Z.Z.Z.Z.Z.Z.Z.Z.Z.Z.Z.Z.Z.Z.Z.Z.Z.Z.Z.Z.Z.Z.Z.Z.Z.Z.Z.Z.Z.Z.Z.Z.Z.Z.Z.Z.Z.Z.Z.",
"Z.Z.Z.Z.Z.Z.Z.Z.Z.Z.Z.Z.Z.Z.Z.Z.Z.Z.Z.Z.Z.Z.Z.Z.Z.Z.Z.Z.Z.Z.Z.Z.Z.Z.Z.Z.Z.Z.Z.Z.Z.Z.Z.Z.Z.Z.Z.Z.Z.Z.Z.Z.Z.Z.Z.Z.Z.Z.Z.Z.Z.Z.Z.Z.Z.Z.Z.Z.Z.Z.Z.Z.Z.Z.Z.",
"Z.Z.Z.Z.Z.Z.Z.Z.Z.Z.Z.Z.Z.Z.Z.Z.Z.Z.Z.Z.Z.Z.Z.Z.Z.Z.Z.Z.Z.Z.Z.Z.Z.Z.Z.Z.Z.Z.Z.Z.Z.Z.Z.Z.Z.Z.Z.Z.Z.Z.Z.Z.Z.Z.Z.Z.Z.Z.Z.Z.Z.Z.Z.Z.Z.Z.Z.Z.Z.Z.Z.Z.Z.Z.Z.",
"Z.Z.Z.Z.Z.Z.Z.Z.Z.Z.Z.Z.Z.Z.Z.Z.Z.Z.Z.Z.Z.Z.Z.Z.Z.Z.Z.Z.Z.Z.Z.Z.Z.Z.Z.Z.Z.Z.Z.Z.Z.Z.Z.Z.Z.Z.Z.Z.Z.Z.Z.Z.Z.Z.Z.Z.Z.Z.Z.Z.Z.Z.Z.Z.Z.Z.Z.Z.Z.Z.Z.Z.Z.Z.Z.",
"Z.Z.Z.Z.Z.Z.Z.Z.Z.Z.Z.Z.Z.Z.Z.Z.Z.Z.Z.Z.Z.Z.Z.Z.Z.Z.Z.Z.Z.Z.Z.Z.Z.Z.Z.Z.Z.Z.Z.Z.Z.Z.Z.Z.Z.Z.Z.Z.Z.Z.Z.Z.Z.Z.Z.Z.Z.Z.Z.Z.Z.Z.Z.Z.Z.Z.Z.Z.Z.Z.Z.Z.Z.Z.Z.",
"Z.Z.Z.Z.Z.Z.Z.Z.Z.Z.Z.Z.Z.Z.Z.Z.Z.Z.Z.Z.Z.Z.Z.Z.Z.Z.Z.Z.Z.Z.Z.Z.Z.Z.Z.Z.Z.Z.Z.Z.Z.Z.Z.Z.Z.Z.Z.Z.Z.Z.Z.Z.Z.Z.Z.Z.Z.Z.Z.Z.Z.Z.Z.Z.Z.Z.Z.Z.Z.Z.Z.Z.Z.Z.Z.",
"Z.Z.Z.Z.Z.Z.Z.Z.Z.Z.Z.Z.Z.Z.Z.Z.Z.Z.Z.Z.Z.Z.Z.Z.Z.Z.Z.Z.Z.Z.Z.Z.Z.Z.Z.Z.Z.Z.Z.Z.Z.Z.Z.Z.Z.Z.Z.Z.Z.Z.Z.Z.Z.a S g Z.Z.Z.Z.Z.Z.Z.Z.Z.Z.Z.Z.Z.Z.Z.Z.Z.Z.Z.",
"Z.Z.Z.Z.Z.Z.Z.Z.Z.Z.Z.Z.Z.Z.Z.Z.Z.Z.Z.Z.Z.Z.Z.Z.Z.Z.Z.Z.Z.Z.Z.Z.Z.Z.Z.Z.Z.Z.Z.Z.Z.Z.Z.Z.Z.Z.Z.Z.Z.Z.Z.h d H n.J Z.Z.Z.Z.Z.Z.Z.Z.Z.Z.Z.Z.Z.Z.Z.Z.Z.Z.Z.",
"Z.Z.Z.Z.Z.Z.Z.Z.Z.Z.Z.Z.Z.Z.Z.Z.Z.Z.Z.Z.9 7 Z.Z.Z.Z.Z.Z.Z.Z.Z.Z.Z.Z.Z.Z.Z.Z.Z.Z.Z.Z.Z.Z.Z.Z.Z.Z.Z.9 V C x r.m.:.< Z.Z.Z.Z.Z.Z.Z.Z.Z.Z.Z.Z.Z.Z.Z.Z.Z.Z.",
"Z.Z.Z.Z.Z.Z.Z.Z.Z.Z.Z.Z.Z.Z.Z.Z.Z.Z.Z.Z.G l.x 4 Z.Z.Z.Z.Z.Z.Z.Z.Z.Z.Z.Z.Z.Z.Z.Z.Z.Z.Z.Z.Z.Z.Z.Z.g Z P a / t.v.1.8 Z.Z.Z.Z.Z.Z.Z.Z.Z.Z.Z.Z.Z.Z.Z.Z.Z.Z.",
"Z.Z.Z.Z.Z.Z.Z.Z.Z.Z.Z.Z.Z.Z.Z.Z.Z.Z.Z.2 T B.z.S p 8 Z.Z.Z.Z.Z.Z.Z.Z.Z.Z.Z.Z.Z.Z.Z.Z.Z.Z.Z.Z.Z.x I Z d A 7.q.s.i.g Z.Z.Z.Z.Z.Z.Z.Z.Z.Z.Z.Z.Z.Z.Z.Z.Z.Z.",
"Z.Z.Z.Z.Z.Z.Z.Z.Z.Z.Z.Z.Z.Z.Z.Z.Z.Z.Z.1 <.m.v.0.^ b s Z.Z.Z.Z.Z.Z.Z.Z.Z.Z.Z.Z.Z.Z.Z.Z.Z.Z.6 V I Z n q &.0.o.t.f.x Z.Z.Z.Z.Z.Z.Z.Z.Z.Z.Z.Z.Z.Z.Z.Z.Z.Z.",
"Z.Z.Z.Z.Z.Z.Z.Z.Z.Z.Z.Z.Z.Z.Z.Z.Z.Z.Z.1 u.c.a.x.7.~ n M 0 Z.Z.Z.Z.Z.Z.Z.Z.Z.Z.Z.Z.Z.Z.Z.9 Z Z C N 0 ) &.| 9.w.p.D Z.Z.Z.Z.Z.Z.Z.Z.Z.Z.Z.Z.Z.Z.Z.Z.Z.Z.",
"Z.Z.Z.Z.Z.Z.Z.Z.Z.Z.Z.Z.Z.Z.Z.Z.Z.Z.Z.6 u.c.2.9.t.&.W k I l g Z.Z.Z.Z.Z.Z.Z.Z.Z.Z.Z.Z.g Z Z V C s y +.[ $.5.#.s.K 4 Z.Z.Z.Z.Z.Z.Z.Z.Z.Z.Z.Z.Z.Z.Z.Z.Z.",
"Z.Z.Z.Z.Z.Z.Z.Z.Z.Z.Z.Z.Z.Z.Z.Z.Z.Z.Z.6 e.f.9.#...2.+.y k I B g Z.Z.Z.Z.Z.Z.Z.Z.Z.Z.k Z V Z I d e ] (  .%.| 9.x.L 4 Z.Z.Z.Z.Z.Z.Z.Z.Z.Z.Z.Z.Z.Z.Z.Z.Z.",
"Z.Z.Z.Z.Z.Z.Z.Z.Z.Z.Z.Z.Z.Z.Z.Z.Z.Z.Z.6 e.p.#.$.X.[ { ] e d I F B 0 Z.: l 1 = Z B % ; l B l a e } _ ( { | 5.#.t.=.3 Z.Z.Z.Z.Z.Z.Z.Z.Z.Z.Z.Z.Z.Z.Z.Z.Z.",
"Z.Z.Z.Z.Z.Z.Z.Z.Z.Z.Z.Z.Z.Z.Z.Z.Z.Z.Z.4 ,.x.9.O.| ) ( ' ' r n x B 1 % * U l = l Y 1 # = 9 U g w Q ` +.) X.X.2.x.=.4 Z.Z.Z.Z.Z.Z.Z.Z.Z.Z.Z.Z.Z.Z.Z.Z.Z.",
"Z.Z.Z.Z.Z.Z.Z.Z.Z.Z.Z.Z.Z.Z.Z.Z.Z.Z.Z.4 ;.t.#.5. .( ( ( +.u 7 C 6 % $ 1 Z B k.g.l v ; % O 6 R M d w _ @.| 2.w.p.=.5 Z.Z.Z.Z.Z.Z.Z.Z.Z.Z.Z.Z.Z.Z.Z.Z.Z.",
"Z.Z.Z.Z.Z.Z.Z.Z.Z.Z.Z.Z.Z.Z.Z.Z.Z.Z.Z.3 L s.3. . ._ ) +.Q h I B * # & 6 V M.C.C.j.C : % = $ i Y Z f , ! 7.5.#.s.*.4 Z.Z.Z.Z.Z.Z.Z.Z.Z.Z.Z.Z.Z.Z.Z.Z.Z.",
"Z.Z.Z.Z.Z.Z.Z.Z.Z.Z.Z.Z.Z.Z.Z.Z.Z.Z.Z.< G 0.2.%.X.) +.t p P Y : % : # 9 N.C.C.C.C.N., # Z 6 % V Z U - $ / 6.q.x.*.2 Z.Z.Z.Z.Z.Z.Z.Z.Z.Z.Z.Z.Z.Z.Z.Z.Z.",
"Z.Z.Z.Z.Z.Z.Z.Z.Z.Z.Z.Z.Z.Z.Z.Z.Z.Z.Z.Z.x w.5.$.O.@.e + 5 Y x $ 6 U : j.C.C.C.C.C.C.h.: Z Y , ; Y Z * @ 6 3.t.p.T < Z.Z.Z.Z.Z.Z.Z.Z.Z.Z.Z.Z.Z.Z.Z.Z.Z.",
"Z.Z.Z.Z.Z.Z.Z.Z.Z.Z.Z.Z.Z.Z.Z.Z.Z.Z.Z.Z.a -.0.$.&.~ p & % U 6 ; U l h.C.C.C.C.C.C.C.C.h.9 F V : 9 1 = B N z s.n.G Z.Z.Z.Z.Z.Z.Z.Z.Z.Z.Z.Z.Z.Z.Z.Z.Z.Z.",
"Z.Z.Z.Z.Z.Z.Z.Z.Z.Z.Z.Z.Z.Z.Z.Z.Z.Z.Z.Z.2 >.f.0./ a I V : g , 9 F l C.C.C.C.C.C.C.C.C.C.Y 4 Z j.k.h.E h l d ;.m.h Z.Z.Z.Z.Z.Z.Z.Z.Z.Z.Z.Z.Z.Z.Z.Z.Z.Z.",
"Z.Z.Z.Z.Z.Z.Z.Z.Z.Z.Z.Z.Z.Z.Z.Z.Z.Z.Z.Z.Z.V s.0.c b Z V l g l B 1 R C.C.C.C.C.C.C.C.C.C.g.E C.C.C.C.C.k.l s H z.Z.Z.Z.Z.Z.Z.Z.Z.Z.Z.Z.Z.Z.Z.Z.Z.Z.Z.Z.",
"Z.Z.Z.Z.Z.Z.Z.Z.Z.Z.Z.Z.Z.Z.Z.Z.Z.Z.Z.Z.Z.> c.8.p U g l E C.C.C.M.g.k.C.C.C.C.C.C.C.C.M.M.C.: . X , C.C.V.0 4 J Z.Z.Z.Z.Z.Z.Z.Z.Z.Z.Z.Z.Z.Z.Z.Z.Z.Z.Z.",
"Z.Z.Z.Z.Z.Z.Z.Z.Z.Z.Z.Z.Z.Z.Z.Z.Z.Z.Z.Z.Z.Z.K J C g B N.C.C.R R C.C.E j.C.C.C.C.C.C.C.j.V.o         % C.C.g.o ; Z.Z.Z.Z.Z.Z.Z.Z.Z.Z.Z.Z.Z.Z.Z.Z.Z.Z.Z.",
"Z.Z.Z.Z.Z.Z.Z.Z.Z.Z.Z.Z.Z.Z.Z.Z.Z.Z.Z.Z.Z.Z.9 l Z l V.C.R .     X g.C.g.V.C.C.C.C.C.M.C.U             E C.C.g , Z.Z.Z.Z.Z.Z.Z.Z.Z.Z.Z.Z.Z.Z.Z.Z.Z.Z.Z.",
"Z.Z.Z.Z.Z.Z.Z.Z.Z.Z.Z.Z.Z.Z.Z.Z.Z.Z.Z.Z.Z.Z.6 Y 9 g.C.M.            V.V.h.C.C.C.C.C.j.C.9             Z C.C.Y V Z.Z.Z.Z.Z.Z.Z.Z.Z.Z.Z.Z.Z.Z.Z.Z.Z.Z.Z.",
"Z.Z.Z.Z.Z.Z.Z.Z.Z.Z.Z.Z.Z.Z.Z.Z.Z.Z.Z.Z.Z.Z.B g = M.C.l             U C.h.C.C.C.C.C.j.C.E             j.C.C.Z B 9 Z.Z.Z.Z.Z.Z.Z.Z.Z.Z.Z.Z.Z.Z.Z.Z.Z.Z.",
"Z.Z.Z.Z.Z.Z.Z.Z.Z.Z.Z.Z.Z.Z.Z.Z.Z.Z.Z.Z.Z.Z.6 O , C.C.g             V C.j.M.C.C.C.C.j.N.C.=         9 C.C.V.l Z g Z.Z.Z.Z.Z.Z.Z.Z.Z.Z.Z.Z.Z.Z.Z.Z.Z.Z.",
"Z.Z.Z.Z.Z.Z.Z.Z.Z.Z.Z.Z.Z.Z.Z.Z.Z.Z.Z.Z.Z.Z.# 1 Z V.C.k.            M.C.j.M.C.C.C.C.j.k.C.C.l * = U C.C.C.E 9 R l Z.Z.Z.Z.Z.Z.Z.Z.Z.Z.Z.Z.Z.Z.Z.Z.Z.Z.",
"Z.Z.Z.Z.Z.Z.Z.Z.Z.Z.Z.Z.Z.Z.Z.Z.Z.Z.Z.Z.Z.Z., U g k.C.C.V         Y C.C.j.M.C.C.C.C.N.E C.C.C.C.C.C.C.C.N.h Z 0 4 Z.Z.Z.Z.Z.Z.Z.Z.Z.Z.Z.Z.Z.Z.Z.Z.Z.Z.",
"Z.Z.Z.Z.Z.Z.Z.Z.Z.Z.Z.Z.Z.Z.Z.Z.Z.Z.Z.Z.Z.Z.Z Z g U C.C.C.j.l l k.C.C.V.g.C.V.Z V V.C.k.E k.C.C.C.C.C.N.Z B 6 * : Z.Z.Z.Z.Z.Z.Z.Z.Z.Z.Z.Z.Z.Z.Z.Z.Z.Z.",
"Z.Z.Z.Z.Z.Z.Z.Z.Z.Z.Z.Z.Z.Z.Z.Z.Z.Z.Z.Z.Z.Z.l U U 9 E C.C.C.C.C.C.C.N.E k.C.V., 9 C.C.C.N.g.g.h.k.E g 1 , = * k 0 Z.Z.Z.Z.Z.Z.Z.Z.Z.Z.Z.Z.Z.Z.Z.Z.Z.Z.",
"Z.Z.Z.Z.Z.Z.Z.Z.Z.Z.Z.Z.Z.Z.Z.Z.Z.Z.Z.Z.Z.Z.g 9 9 Z g E V.C.C.C.N.h.E M.C.C.C.C.C.C.C.C.C.C.V.M.k.E * # % $ : 6 1 Z.Z.Z.Z.Z.Z.Z.Z.Z.Z.Z.Z.Z.Z.Z.Z.Z.Z.",
"Z.Z.Z.Z.Z.Z.Z.Z.Z.Z.Z.Z.Z.Z.Z.Z.Z.Z.Z.Z.Z.Z.9 l : * ; * 1 g.h.h.g.j.C.C.C.C.C.M.V.C.C.C.C.C.C.C.C.C.C.U 9 9 l V Z.Z.Z.Z.Z.Z.Z.Z.Z.Z.Z.Z.Z.Z.Z.Z.Z.Z.Z.",
"Z.Z.Z.Z.Z.Z.Z.Z.Z.Z.Z.Z.Z.Z.Z.Z.Z.Z.Z.Z.Z.Z.Z.9 6 : ; : U C.V.V.C.C.C.C.C.C.C.1 Y C.C.C.C.C.C.C.C.C.C.C.V.j.h.l Z.Z.Z.Z.Z.Z.Z.Z.Z.Z.Z.Z.Z.Z.Z.Z.Z.Z.Z.",
"Z.Z.Z.Z.Z.Z.Z.Z.Z.Z.Z.Z.Z.Z.Z.Z.Z.Z.Z.Z.Z.Z.Z.Z.Z R g.N.C.C.C.C.C.C.C.C.C.C.g.j.g.k.C.C.C.C.M.k.k.k.j.k.N.C.V.Z.Z.Z.Z.Z.Z.Z.Z.Z.Z.Z.Z.Z.Z.Z.Z.Z.Z.Z.Z.",
"Z.Z.Z.Z.Z.Z.Z.Z.Z.Z.Z.Z.Z.Z.Z.Z.Z.Z.Z.Z.Z.Z.Z.Z.U N.N.N.M.k.M.M.M.k.V.C.C.j.R C.V.g.V.C.C.C.j.g.j.k.M.N.M.M.9 Z.Z.Z.Z.Z.Z.Z.Z.Z.Z.Z.Z.Z.Z.Z.Z.Z.Z.Z.Z.",
"Z.Z.Z.Z.Z.Z.Z.Z.Z.Z.Z.Z.Z.Z.Z.Z.Z.Z.Z.Z.Z.Z.Z.Z.Z.E V.j.h.g.E E E h.C.C.C.k.V.C.C.C.C.C.C.C.h.h.M.N.M.N.V.Y Z.Z.Z.Z.Z.Z.Z.Z.Z.Z.Z.Z.Z.Z.Z.Z.Z.Z.Z.Z.Z.",
"Z.Z.Z.Z.Z.Z.Z.Z.Z.Z.Z.Z.Z.Z.Z.Z.Z.Z.Z.Z.Z.Z.Z.Z.Z., E V.N.N.N.j.h.g.V.C.C.C.C.C.C.C.C.C.C.C.M.h.h.h.M.k.g Z.Z.Z.Z.Z.Z.Z.Z.Z.Z.Z.Z.Z.Z.Z.Z.Z.Z.Z.Z.Z.Z.",
"Z.Z.Z.Z.Z.Z.Z.Z.Z.Z.Z.Z.Z.Z.Z.Z.Z.Z.Z.Z.Z.Z.Z.Z.Z.Z.Z.Z M.C.k.j.j.k.N.C.C.C.C.C.C.C.C.C.C.C.C.C.C.M.Y 9 Z.Z.Z.Z.Z.Z.Z.Z.Z.Z.Z.Z.Z.Z.Z.Z.Z.Z.Z.Z.Z.Z.Z.",
"Z.Z.Z.Z.Z.Z.Z.Z.Z.Z.Z.Z.Z.Z.Z.Z.Z.Z.Z.Z.Z.Z.Z.Z.Z.Z.Z.Z.9 Z V.C.C.C.C.C.C.C.C.C.C.C.C.C.C.C.C.C.N.R , Z.Z.Z.Z.Z.Z.Z.Z.Z.Z.Z.Z.Z.Z.Z.Z.Z.Z.Z.Z.Z.Z.Z.Z.",
"Z.Z.Z.Z.Z.Z.Z.Z.Z.Z.Z.Z.Z.Z.Z.Z.Z.Z.Z.Z.Z.Z.Z.Z.Z.Z.Z.Z.h k Y h.M.C.C.C.C.C.C.C.C.C.C.C.C.V.h.j.j.U ; Z.Z.Z.Z.Z.Z.Z.Z.Z.Z.Z.Z.Z.Z.Z.Z.Z.Z.Z.Z.Z.Z.Z.Z.",
"Z.Z.Z.Z.Z.Z.Z.Z.Z.Z.Z.Z.Z.Z.Z.Z.Z.Z.Z.Z.Z.Z.Z.Z.Z.Z.Z.Z.= = C.C.M.h.g.h.k.M.N.C.C.C.M.k.j.k.V.C.C.Y , Z.Z.Z.Z.Z.Z.Z.Z.Z.Z.Z.Z.Z.Z.Z.Z.Z.Z.Z.Z.Z.Z.Z.Z.",
"Z.Z.Z.Z.Z.Z.Z.Z.Z.Z.Z.Z.Z.Z.Z.Z.Z.Z.Z.Z.Z.Z.Z.Z.Z.Z.Z.Z.1 ; k.C.C.C.C.C.N.M.k.k.h.j.M.N.C.C.C.C.C.Y # Z.Z.Z.Z.Z.Z.Z.Z.Z.Z.Z.Z.Z.Z.Z.Z.Z.Z.Z.Z.Z.Z.Z.Z.",
"Z.Z.Z.Z.Z.Z.Z.Z.Z.Z.Z.Z.Z.Z.Z.Z.Z.Z.Z.Z.Z.Z.Z.Z.Z.Z.Z.Z.g Y j.C.C.C.C.C.C.C.C.C.C.C.C.C.C.C.C.C.C.g.* Z.Z.Z.Z.Z.Z.Z.Z.Z.Z.Z.Z.Z.Z.Z.Z.Z.Z.Z.Z.Z.Z.Z.Z.",
"Z.Z.Z.Z.Z.Z.Z.Z.Z.Z.Z.Z.Z.Z.Z.Z.Z.Z.Z.Z.Z.Z.Z.Z.Z.Z.Z.Z.1 : 6 C.C.C.C.C.C.C.C.C.C.C.C.C.C.C.C.C.C.V.l Z.Z.Z.Z.Z.Z.Z.Z.Z.Z.Z.Z.Z.Z.Z.Z.Z.Z.Z.Z.Z.Z.Z.Z.",
"Z.Z.Z.Z.Z.Z.Z.Z.Z.Z.Z.Z.Z.Z.Z.Z.Z.Z.Z.Z.Z.Z.Z.Z.Z.Z.Z.Z.Z.* , N.C.C.C.C.C.C.C.C.C.C.C.C.C.C.C.C.C.C.Z Z.Z.Z.Z.Z.Z.Z.Z.Z.Z.Z.Z.Z.Z.Z.Z.Z.Z.Z.Z.Z.Z.Z.Z.",
"Z.Z.Z.Z.Z.Z.Z.Z.Z.Z.Z.Z.Z.Z.Z.Z.Z.Z.Z.Z.Z.Z.Z.Z.Z.Z.Z.Z.9 l Y C.C.C.C.C.C.C.C.C.C.C.C.C.C.C.C.C.C.C.j.6 Z.Z.Z.Z.Z.Z.Z.Z.Z.Z.Z.Z.Z.Z.Z.Z.Z.Z.Z.Z.Z.Z.Z.",
"Z.Z.Z.Z.Z.Z.Z.Z.Z.Z.Z.Z.Z.Z.Z.Z.Z.Z.Z.Z.Z.Z.Z.Z.Z.Z.Z.Z., : h.C.C.C.C.C.C.C.C.C.C.C.C.C.C.C.C.C.C.C.N.9 Z.Z.Z.Z.Z.Z.Z.Z.Z.Z.Z.Z.Z.Z.Z.Z.Z.Z.Z.Z.Z.Z.Z.",
"Z.Z.Z.Z.Z.Z.Z.Z.Z.Z.Z.Z.Z.Z.Z.Z.Z.Z.Z.Z.Z.Z.Z.Z.Z.Z.Z.Z., 1 C.C.C.C.C.C.C.C.C.C.C.C.C.C.C.C.C.C.C.C.V.= 1 Z.Z.Z.Z.Z.Z.Z.Z.Z.Z.Z.Z.Z.Z.Z.Z.Z.Z.Z.Z.Z.Z.",
"Z.Z.Z.Z.Z.Z.Z.Z.Z.Z.Z.Z.Z.Z.Z.Z.Z.Z.Z.Z.Z.Z.Z.Z.Z.Z.Z.Z.6 g.C.C.C.C.C.C.C.C.C.C.C.C.C.C.C.C.C.C.C.C.M.: 1 Z.Z.Z.Z.Z.Z.Z.Z.Z.Z.Z.Z.Z.Z.Z.Z.Z.Z.Z.Z.Z.Z.",
"Z.Z.Z.Z.Z.Z.Z.Z.Z.Z.Z.Z.Z.Z.Z.Z.Z.Z.Z.Z.Z.Z.Z.Z.Z.Z.Z.Z.6 N.C.C.C.C.C.C.C.C.C.C.C.C.C.C.C.C.C.C.C.C.N.B % * Z.Z.Z.Z.Z.Z.Z.Z.Z.Z.Z.Z.Z.Z.Z.Z.Z.Z.Z.Z.Z.",
"Z.Z.Z.Z.Z.Z.Z.Z.Z.Z.Z.Z.Z.Z.Z.Z.Z.Z.Z.Z.Z.Z.Z.Z.Z.Z.Z.: # N.C.C.C.C.C.C.C.C.C.C.C.C.C.C.C.C.C.C.C.C.M.E , 1 Z.Z.Z.Z.Z.Z.Z.Z.Z.Z.Z.Z.Z.Z.Z.Z.Z.Z.Z.Z.Z.",
"Z.Z.Z.Z.Z.Z.Z.Z.Z.Z.Z.Z.Z.Z.Z.Z.Z.Z.Z.Z.Z.Z.Z.Z.Z.Z.Z.l : h.C.C.C.C.C.C.C.C.C.C.C.C.C.C.C.C.C.C.C.C.j.V.E 1 6 Z.Z.Z.Z.Z.Z.Z.Z.Z.Z.Z.Z.Z.Z.Z.Z.Z.Z.Z.Z.",
"Z.Z.Z.Z.Z.Z.Z.Z.Z.Z.Z.Z.Z.Z.Z.Z.Z.Z.Z.Z.Z.Z.Z.Z.Z.Z.1 9 ; h.C.C.C.C.C.C.C.C.V.C.C.j.N.C.C.C.C.C.C.C.j.C.g.* 1 Z.Z.Z.Z.Z.Z.Z.Z.Z.Z.Z.Z.Z.Z.Z.Z.Z.Z.Z.Z.",
"Z.Z.Z.Z.Z.Z.Z.Z.Z.Z.Z.Z.Z.Z.Z.Z.Z.Z.Z.Z.Z.Z.Z.Z.Z.Z.= % U k.C.C.C.C.C.C.C.C.h.C.C.j.j.C.C.C.C.C.C.C.h.C.j.g , Z.Z.Z.Z.Z.Z.Z.Z.Z.Z.Z.Z.Z.Z.Z.Z.Z.Z.Z.Z.",
"Z.Z.Z.Z.Z.Z.Z.Z.Z.Z.Z.Z.Z.Z.Z.Z.Z.Z.Z.Z.Z.Z.Z.Z.Z.6 6 l C.h.C.C.C.C.C.C.C.M.h.C.C.M.j.C.C.C.C.C.C.V.g.C.V = , Z.Z.Z.Z.Z.Z.Z.Z.Z.Z.Z.Z.Z.Z.Z.Z.Z.Z.Z.Z.",
"Z.Z.Z.Z.Z.Z.Z.Z.Z.Z.Z.Z.Z.Z.Z.Z.Z.Z.Z.Z.Z.Z.Z.Z.Z.= O l C.h.N.C.C.C.C.C.C.j.j.C.C.M.j.C.C.C.C.C.C.N.j.C.; = 1 Z.Z.Z.Z.Z.Z.Z.Z.Z.Z.Z.Z.Z.Z.Z.Z.Z.Z.Z.Z.",
"Z.Z.Z.Z.Z.Z.Z.Z.Z.Z.Z.Z.Z.Z.Z.Z.Z.Z.Z.Z.Z.Z.Z.: 1 B 9 ; M.k.M.C.C.C.C.C.C.j.k.C.C.M.j.C.C.C.C.C.C.M.k.C.l 1 : Z.Z.Z.Z.Z.Z.Z.Z.Z.Z.Z.Z.Z.Z.Z.Z.Z.Z.Z.Z.",
"Z.Z.Z.Z.Z.Z.Z.Z.Z.Z.Z.Z.Z.Z.Z.Z.Z.Z.Z., ; ; U : * : 6 l E k.j.C.C.C.C.C.C.j.M.C.C.M.j.C.C.C.C.C.C.j.N.k.* * 1 Z.Z.Z.Z.Z.Z.Z.Z.Z.Z.Z.Z.Z.Z.Z.Z.Z.Z.Z.Z.",
"Z.Z.Z.Z.Z.Z.Z.Z.Z.Z.Z.Z.Z.Z.Z.Z.Z.l : O * * g B * ; ; $ 1 N.h.C.C.C.C.C.C.j.M.C.C.M.j.C.C.C.C.C.C.j.V.M.= : Z.Z.Z.Z.Z.Z.Z.Z.Z.Z.Z.Z.Z.Z.Z.Z.Z.Z.Z.Z.Z.",
"Z.Z.Z.Z.Z.Z.Z.Z.Z.Z.Z.Z.Z.Z.Z., ; Y Z , * $ 6 R = 6 Z : 9 V.j.C.C.C.C.C.C.j.N.C.C.M.j.C.C.C.C.C.C.j.C.C., = Z.Z.Z.Z.Z.Z.Z.Z.Z.Z.Z.Z.Z.Z.Z.Z.Z.Z.Z.Z.Z.",
"Z.Z.Z.Z.Z.Z.Z.Z.Z.Z.Z.Z.Z.Z.; % % 1 Y U * * h B 6 9 6 , g C.j.N.C.C.C.C.C.j.M.C.C.k.k.C.C.C.C.C.C.R h.M.: Z.Z.Z.Z.Z.Z.Z.Z.Z.Z.Z.Z.Z.Z.Z.Z.Z.Z.Z.Z.Z.Z.",
"Z.Z.Z.Z.Z.Z.Z.Z.Z.Z.Z.Z.Z.= $ * * ; U g , Z.Z.Z.Z.Z.g O , N.R M.C.C.C.C.C.j.M.C.C.k.k.C.C.C.C.C.N.E N.M.E Z.Z.Z.Z.Z.Z.Z.Z.Z.Z.Z.Z.Z.Z.Z.Z.Z.Z.Z.Z.Z.Z.",
"Z.Z.Z.Z.Z.Z.Z.Z.Z.Z.Z.Z.l l h ; # ; l Z.Z.Z.Z.Z.Z.Z.Z.1 M.C.j.j.C.C.C.C.C.j.M.C.C.k.j.C.C.C.C.C.k.j.C.C.C.B Z.Z.Z.Z.Z.Z.Z.Z.Z.Z.Z.Z.Z.Z.Z.Z.Z.Z.Z.Z.Z.",
"Z.Z.Z.Z.Z.Z.Z.Z.Z.Z.Z.1 g Y R 6 = Z.Z.Z.Z.Z.Z.Z.Z.Z.Z.C.C.C.M.h.C.C.C.C.C.j.M.C.C.k.k.C.C.C.C.C.h.N.N.V.C.U Z.Z.Z.Z.Z.Z.Z.Z.Z.Z.Z.Z.Z.Z.Z.Z.Z.Z.Z.Z.Z.",
"Z.Z.Z.Z.Z.Z.Z.Z.Z.Z.Z.* % 9 Z B Z.Z.Z.Z.Z.Z.Z.Z.Z.Z.Z.N.C.M.k.j.C.C.C.C.C.j.M.C.C.k.k.C.C.C.C.C.g.V.k.M.V.9 Z.Z.Z.Z.Z.Z.Z.Z.Z.Z.Z.Z.Z.Z.Z.Z.Z.Z.Z.Z.Z.",
"Z.Z.Z.Z.Z.Z.Z.Z.Z.Z., * * * 1 Z.Z.Z.Z.Z.Z.Z.Z.Z.Z.Z.Z.Y C.k.M.h.C.C.C.C.C.M.Z Z.Z.Z M.C.C.C.C.C.N.j.g.h.Z.Z.Z.Z.Z.Z.Z.Z.Z.Z.Z.Z.Z.Z.Z.Z.Z.Z.Z.Z.Z.Z.Z.",
"Z.Z.Z.Z.Z.Z.Z.Z.Z.Z.; * % , Z.Z.Z.Z.Z.Z.Z.Z.Z.Z.Z.Z.Z.Z.Y Y E N.C.C.C.C.C.k.Z.Z.Z.Z.k.C.C.C.V.C.C.k.Z.Z.Z.Z.Z.Z.Z.Z.Z.Z.Z.Z.Z.Z.Z.Z.Z.Z.Z.Z.Z.Z.Z.Z.Z.",
"Z.Z.Z.Z.Z.Z.Z.Z.Z.Z.* * : Z.Z.Z.Z.Z.Z.Z.Z.Z.Z.Z.Z.Z.Z.Z.Z.Z.R C.C.C.C.C.C.j.Z.Z.Z.Z.Y M.C.V.h.C.V.Y Z.Z.Z.Z.Z.Z.Z.Z.Z.Z.Z.Z.Z.Z.Z.Z.Z.Z.Z.Z.Z.Z.Z.Z.Z.",
"Z.Z.Z.Z.Z.Z.Z.Z.Z.: % ; Z.Z.Z.Z.Z.Z.Z.Z.Z.Z.Z.Z.Z.Z.Z.Z.Z.Z.B N.C.k.C.V.j.l Z.Z.Z.Z.Z.Z N.C.h.N.E Z.Z.Z.Z.Z.Z.Z.Z.Z.Z.Z.Z.Z.Z.Z.Z.Z.Z.Z.Z.Z.Z.Z.Z.Z.Z.",
"Z.Z.Z.Z.Z.Z.Z.Z.Z.Z., Z.Z.Z.Z.Z.Z.Z.Z.Z.Z.Z.Z.Z.Z.Z.Z.Z.Z.Z.Z.B g.Y j.E Z.Z.Z.Z.Z.Z.Z.Z.Z.Z.Z.Z.Z.Z.Z.Z.Z.Z.Z.Z.Z.Z.Z.Z.Z.Z.Z.Z.Z.Z.Z.Z.Z.Z.Z.Z.Z.Z.Z."
};
