/* XPM */
static char *result[] = {
/* columns rows colors chars-per-pixel */
"75 75 162 2 ",
"   c #000000",
".  c #0B0B0B",
"X  c gray8",
"o  c #181818",
"O  c #182A2A",
"+  c #232323",
"@  c #282828",
"#  c #333333",
"$  c #333A3B",
"%  c #3C3C3C",
"&  c #3F4342",
"*  c #444444",
"=  c #4C4C4C",
"-  c #535353",
";  c #535F5F",
":  c #5C5C5C",
">  c #685D5D",
",  c #576164",
"<  c #5A6364",
"1  c #636363",
"2  c #646A6C",
"3  c #6C6C6C",
"4  c #656F71",
"5  c #686F71",
"6  c #687275",
"7  c #6B7678",
"8  c #6D7B7C",
"9  c #737374",
"0  c #747C7D",
"q  c #7C7C7C",
"w  c #A47675",
"e  c #AF7675",
"r  c #BE7473",
"t  c #BD7D7B",
"y  c #C07E7C",
"u  c #BF807F",
"i  c #D0807E",
"p  c #DB827F",
"a  c #777F81",
"s  c #748183",
"d  c #7C8484",
"f  c #7E8A8B",
"g  c #838484",
"h  c #8C8683",
"j  c #8A8887",
"k  c #818789",
"l  c #858B8B",
"z  c #8C8C8C",
"x  c #948585",
"c  c #928C8B",
"v  c #9A8C8A",
"b  c #9A8483",
"n  c #9E918D",
"m  c #808F90",
"M  c #8A8F91",
"N  c #849394",
"B  c #8B9393",
"V  c #8B9A9B",
"C  c #939494",
"Z  c #999595",
"A  c #919798",
"S  c #929B9B",
"D  c #9B9C9C",
"F  c #A08382",
"G  c #AD8382",
"H  c #A38886",
"J  c #AC8C8A",
"K  c #A09996",
"L  c #A99894",
"P  c #AD9F9A",
"I  c #B09F9B",
"U  c #B99D98",
"Y  c #AFA29E",
"T  c #B1A09B",
"R  c #BEA59F",
"E  c #9DA5A5",
"W  c #A4A4A4",
"Q  c #ABABAB",
"!  c #B2A6A0",
"~  c #BDA7A2",
"^  c #B7ACA6",
"/  c #BEACA5",
"(  c #B4B4B4",
")  c #BCBCBC",
"_  c #C18281",
"`  c #D88583",
"'  c #C2928E",
"]  c #D9928F",
"[  c #D49B96",
"{  c #DD9B95",
"}  c #ED8684",
"|  c #E38987",
" . c #E68B89",
".. c #E98C8A",
"X. c #F28886",
"o. c #F58D8B",
"O. c #FB8D8B",
"+. c #E6948F",
"@. c #EA918F",
"#. c #FD918E",
"$. c #E79592",
"%. c #E99692",
"&. c #E29893",
"*. c #EA9A96",
"=. c #E79E99",
"-. c #EB9D99",
";. c #F29490",
":. c #F89794",
">. c #F29B97",
",. c #FF9996",
"<. c #F09D99",
"1. c #FC9E99",
"2. c #D7A49D",
"3. c #E4A099",
"4. c #ECA49E",
"5. c #C3A8A1",
"6. c #C8ACA5",
"7. c #C7B5AE",
"8. c #D0B5AC",
"9. c #CCBBB1",
"0. c #DDBBB1",
"q. c #D1BBB3",
"w. c #ECA7A0",
"e. c #EEAAA3",
"r. c #F4A6A1",
"t. c #F3ACA5",
"y. c #FFACA6",
"u. c #EFB0A8",
"i. c #E5B3AA",
"p. c #F4B4AC",
"a. c #FAB4AC",
"s. c #F1B8AF",
"d. c #FFB8AF",
"f. c #F4B9B0",
"g. c #FABCB3",
"h. c #E7C3B8",
"j. c #ECC4B9",
"k. c #E7C8BD",
"l. c #F7C0B6",
"z. c #FEC1B7",
"x. c #FEC3BA",
"c. c #F2CABE",
"v. c #FFC9BE",
"b. c #C4C4C4",
"n. c #CCCCCC",
"m. c #D3D3D3",
"M. c #DCDCDC",
"N. c #F3CFC2",
"B. c #FFCEC2",
"V. c #FDD3C6",
"C. c #FED6C9",
"Z. c #FDDBCD",
"A. c #FFDFD1",
"S. c #FFE3D5",
"D. c #FFE8D9",
"F. c #E4E4E4",
"G. c #ECECEC",
"H. c #FFF3E3",
"J. c #FFFBEA",
"K. c #F3F3F3",
"L. c #FFFFFF",
"P. c None",
/* pixels */
"P.P.P.P.P.P.P.P.P.P.P.P.P.P.P.P.P.P.P.P.P.P.P.P.P.P.P.P.P.P.P.P.P.P.P.P.P.P.P.P.P.P.P.P.P.P.P.P.P.P.P.P.P.P.P.P.P.P.P.P.P.P.P.P.P.P.P.P.P.P.P.P.P.P.P.",
"P.P.P.P.P.P.P.P.P.P.P.P.P.P.P.P.P.P.P.P.P.P.P.P.P.P.P.P.P.P.P.P.P.P.P.P.P.P.P.P.P.P.P.P.P.P.P.P.P.P.P.P.P.P.P.P.P.P.P.P.P.P.P.P.P.P.P.P.P.P.P.P.P.P.P.",
"P.P.P.P.P.P.P.P.P.P.P.P.P.P.P.P.P.P.P.P.P.P.P.P.P.P.P.P.P.P.P.P.P.P.P.P.P.P.P.P.P.P.P.P.P.P.P.P.P.P.P.P.P.P.P.P.P.P.P.P.P.P.P.P.P.P.P.P.P.P.P.P.P.P.P.",
"P.P.P.P.P.P.P.P.P.P.P.P.P.P.P.P.P.P.P.P.P.P.P.P.P.P.P.P.P.P.P.P.P.P.P.P.P.P.P.P.P.P.P.P.P.P.P.P.P.P.P.P.P.P.P.P.P.P.P.P.P.P.P.P.P.P.P.P.P.P.P.P.P.P.P.",
"P.P.P.P.P.P.P.P.P.P.P.P.P.P.P.P.P.P.P.P.P.P.P.P.P.P.P.P.P.P.P.P.P.P.P.P.P.c q P.P.P.P.P.P.P.P.P.P.P.P.P.P.P.P.P.P.P.P.P.P.P.P.P.P.P.P.P.P.P.P.P.P.P.P.",
"P.P.P.P.P.P.P.P.P.P.P.P.P.P.P.P.P.P.P.P.P.P.P.P.P.P.P.P.P.P.P.P.P.P.P.P.0 q.C.k 2 P.P.P.P.P.P.P.P.P.P.P.P.P.P.P.P.P.P.P.P.P.P.P.P.P.P.P.P.P.P.P.P.P.P.",
"P.P.P.P.P.P.P.P.P.P.P.P.P.P.P.P.P.P.P.P.P.P.P.P.P.P.P.P.P.P.P.P.P.P.P.q f 8.H.k.g 2 P.P.P.P.P.P.P.P.P.P.P.P.P.P.P.P.P.P.P.P.P.P.P.P.P.P.P.P.P.P.P.P.P.",
"P.P.P.P.P.P.P.P.P.P.P.P.P.P.P.P.P.P.P.P.P.P.P.P.P.P.P.P.P.P.P.P.P.P.P.z B 2.z.S.h.k P.P.P.P.P.P.P.P.P.P.P.P.P.P.P.P.P.P.P.P.P.P.P.P.P.P.P.P.P.P.P.P.P.",
"P.P.P.P.P.P.P.P.P.P.P.P.P.P.P.P.P.P.P.P.P.P.P.P.P.P.P.P.P.P.P.P.P.P.P.D B { g.f.C.0.0 P.P.P.P.P.P.P.P.P.P.P.P.P.P.P.P.P.P.P.P.P.P.P.P.P.P.P.P.P.P.P.P.",
"P.P.P.P.P.P.P.P.P.P.P.P.P.P.P.P.P.P.P.P.P.P.P.P.P.P.P.P.P.P.P.P.P.P.g E z { a.4.g.B.6.7 P.P.P.P.P.P.P.P.P.P.P.P.P.P.P.P.P.P.P.P.P.P.P.P.P.P.P.P.P.P.P.",
"P.P.P.P.P.P.P.P.P.P.P.P.P.P.P.P.P.P.P.P.P.P.P.P.P.P.P.P.P.P.P.P.P.P.C D j $.r.w.t.e.C.T 7 P.P.P.P.P.P.P.P.P.P.P.P.P.P.P.P.P.P.P.P.P.P.P.P.P.P.P.P.P.P.",
"P.P.P.P.P.P.P.P.P.P.P.P.P.P.P.P.P.P.P.P.P.P.P.P.P.P.P.P.P.P.P.P.P.g D V x $.>.4.4.e.z.l.c 5 P.P.P.P.P.P.P.P.P.P.P.P.P.P.P.P.P.P.P.P.P.P.P.P.P.P.P.P.P.",
"P.P.P.P.P.P.P.P.P.P.P.P.P.P.P.P.P.P.P.P.P.P.P.P.P.P.P.P.P.P.P.P.P.z D S x ..%.-.-.e.4.z.0.0 P.P.P.P.P.P.P.P.P.P.P.P.P.P.P.P.P.P.P.P.P.P.P.P.P.P.P.P.P.",
"P.P.P.P.P.P.P.P.P.P.P.P.P.P.P.P.P.P.P.P.P.P.P.P.P.P.P.P.P.P.P.P.P.C Z V b } ..%.$.-.4.g.v.Y 6 P.P.P.P.P.P.P.P.P.P.P.P.P.P.P.P.P.P.P.P.P.P.P.P.P.P.P.P.",
"P.P.P.P.P.P.P.P.P.P.P.P.P.P.P.P.P.P.P.P.P.P.P.P.P.P.P.P.P.P.P.P.g E Z V F X. ...$.$.4.t.p.c.h P.P.P.P.P.P.P.P.P.P.P.P.P.P.P.P.P.P.P.P.P.P.P.P.P.P.P.P.",
"P.P.P.P.P.P.P.P.P.P.P.P.P.P.P.P.P.P.P.P.P.P.P.P.P.P.P.P.P.P.P.P.l K Z V G #.O.O.:.>.t.4.s.V./ 4 P.P.P.P.P.P.P.P.P.P.P.P.P.P.P.P.P.P.P.P.P.P.P.P.P.P.P.",
"P.P.P.P.P.P.P.P.P.P.P.P.P.P.P.P.P.P.P.P.P.P.P.P.P.P.P.P.P.P.P.P.Z D D d e ` _ y y ] r.a.g.a.N.g P.P.P.P.P.P.P.P.P.P.P.P.P.P.P.P.P.P.P.P.P.P.P.P.P.P.P.",
"P.P.P.P.P.P.P.P.P.P.P.P.P.P.P.P.P.P.P.P.P.P.P.P.P.P.P.P.P.P.P.z D C C c c l N V < * > J [ l.J.! P.P.P.P.P.P.P.P.P.P.P.P.P.P.P.P.P.P.P.P.P.P.P.P.P.P.P.",
"P.P.P.P.P.P.P.P.P.P.P.P.P.P.P.P.P.P.P.P.P.P.P.P.P.P.P.P.P.P.P.3 q q 0 C W Q E D D * $ N l c 0.Z.P.P.P.P.P.P.P.P.P.P.P.P.P.P.P.P.P.P.P.P.P.P.P.P.P.P.P.",
"P.P.P.P.P.P.P.P.P.P.P.P.P.P.P.P.P.P.P.P.P.P.P.P.P.P.P.P.P.P.q % $ * * & = 3 Z W W : 1 z g s d 7.n P.P.P.P.P.P.P.P.P.P.P.P.P.P.P.P.P.P.P.P.P.P.P.P.P.P.",
"P.P.P.P.P.P.P.P.P.P.P.P.P.P.P.P.P.P.P.P.P.P.P.P.P.P.P.P.- C Q z 1 % % : 3 - = 9 z u E ( ) Q d $ - 3 P.P.P.P.P.P.P.P.P.P.P.P.P.P.P.P.P.P.P.P.P.P.P.P.P.",
"P.P.P.P.P.P.P.P.P.P.P.P.P.P.P.P.P.P.P.P.P.P.P.P.P.P.P.g = : C C Z 3 @ > ( W z 1 C L.L.K.L.L.G.3 : C P.P.P.P.P.P.P.P.P.P.P.P.P.P.P.P.P.P.P.P.P.P.P.P.P.",
"P.P.P.P.P.P.P.P.P.P.P.P.P.P.P.P.P.P.P.P.P.P.P.P.P.P.3 W z l F.M.n.n.z = q C C D L.L.E N M.L.L.L.W C C P.P.P.P.P.P.P.P.P.P.P.P.P.P.P.P.P.P.P.P.P.P.P.P.",
"P.P.P.P.P.P.P.P.P.P.P.P.P.P.P.P.P.P.P.P.P.P.P.P.P.1 % g Z n.L.L.L.L.L.G.b.D 9 K.M.        N L.L.F.g W z P.P.P.P.P.P.P.P.P.P.P.P.P.P.P.P.P.P.P.P.P.P.P.",
"P.P.P.P.P.P.P.P.P.P.z c l j l z f m B A C C C D l = # 3 Z M.L.L.L.L.L.L.L.L.b.G.+           b.L.L.W g Q z P.P.P.P.P.P.P.P.P.P.P.P.P.P.P.P.P.P.P.P.P.P.",
"P.P.P.P.P.P.P.P.P.P.^ D.B.i.2.[ ' J v z N V E Z q = & - D K.L.L.L.L.L.L.L.L.G.(             w L.L.b.g Z - P.P.P.P.P.P.P.P.P.P.P.P.P.P.P.P.P.P.P.P.P.P.",
"P.P.P.P.P.P.P.P.P.P.j S.S.V.v.d.y.1...y t F c z g * * @ l L.L.L.L.L.L.L.L.L.G.)             g L.L.b.C 1 : l P.P.P.P.P.P.P.P.P.P.P.P.P.P.P.P.P.P.P.P.P.",
"P.P.P.P.P.P.P.P.P.P.2 9.D.s.e.e.4.>.;.O.O.O.r M z % 3 1 C L.L.L.L.L.L.L.L.L.m.G.+           n.L.L.b.z - 3 9 P.P.P.P.P.P.P.P.P.P.P.P.P.P.P.P.P.P.P.P.P.",
"P.P.P.P.P.P.P.P.P.P.P.h Z.x.p.w.-.$. . . .O.G V Z % w E ) L.L.L.L.L.L.L.L.L.n.K.M..       C L.L.L.Q 1 # = l q P.P.P.P.P.P.P.P.P.P.P.P.P.P.P.P.P.P.P.P.",
"P.P.P.P.P.P.P.P.P.P.P.< / A.u.w.-.%. .|  .` Z E D - 9 S E L.L.L.L.L.L.L.L.L.G.) L.K.C g M.L.L.L.b.* # = g D q P.P.P.P.P.P.P.P.P.P.P.P.P.P.P.P.P.P.P.P.",
"P.P.P.P.P.P.P.P.P.P.P.P.9 j.v.p.t.-.@. .O.y ; Z ( 1 9 Z s M.G.L.L.L.L.L.L.L.L.b.n.L.L.L.L.L.L.m.1 * 9 D ( K.) P.P.P.P.P.P.P.P.P.P.P.P.P.P.P.P.P.P.P.P.",
"P.P.P.P.P.P.P.P.P.P.P.P.P.h V.a.=.-.$.$.,.w O # a h 1 Z ) M.m.b.m.L.L.L.L.L.L.L.b.n.G.G.F.M.) m.L.L.K.L.L.L.W P.P.P.P.P.P.P.P.P.P.P.P.P.P.P.P.P.P.P.P.",
"P.P.P.P.P.P.P.P.P.P.P.P.P.4 L v.p.4.-.%.;.F 8 1 9 g ) L.L.L.L.L.M.) G.L.L.L.L.L.L.m.n.m.m.m.K.L.L.L.L.G.b.F.W P.P.P.P.P.P.P.P.P.P.P.P.P.P.P.P.P.P.P.P.",
"P.P.P.P.P.P.P.P.P.P.P.P.P.P.7 R g.t.e.4.%.v E Q g ( L.G.- X + W L.K.) G.L.L.L.L.L.L.L.L.L.L.L.L.L.L.n.n.L.L.z P.P.P.P.P.P.P.P.P.P.P.P.P.P.P.P.P.P.P.P.",
"P.P.P.P.P.P.P.P.P.P.P.P.P.P.P.a 5.v.t.t.e.c S c D L.K.o         l L.G.9.L.L.L.7 b.L.L.L.L.L.L.L.M.n.F.G.G.n.P.P.P.P.P.P.P.P.P.P.P.P.P.P.P.P.P.P.P.P.P.",
"P.P.P.P.P.P.P.P.P.P.P.P.P.P.P.P.s U v.z.3.v S d b.L.q           X K.L.b.M.L.) * G.L.L.L.L.L.L.M.b.M.G.m.G.) P.P.P.P.P.P.P.P.P.P.P.P.P.P.P.P.P.P.P.P.P.",
"P.P.P.P.P.P.P.P.P.P.P.P.P.P.P.P.P.8 P v.z.v A g M.L.:             m.L.M.b.L.L.L.L.L.L.F.L.L.L.K.M.) b.F.M.P.P.P.P.P.P.P.P.P.P.P.P.P.P.P.P.P.P.P.P.P.P.",
"P.P.P.P.P.P.P.P.P.P.P.P.P.P.P.P.P.P., h V.T B g F.L.q           . K.L.M.b.L.L.L.b.W ) ( L.L.L.L.M.m.M.L.M.P.P.P.P.P.P.P.P.P.P.P.P.P.P.P.P.P.P.P.P.P.P.",
"P.P.P.P.P.P.P.P.P.P.P.P.P.P.P.P.P.P.P.P.g D C g m.L.F..         g L.L.n.M.L.L.L.Q q n.G.L.L.L.L.L.L.L.L.9 P.P.P.P.P.P.P.P.P.P.P.P.P.P.P.P.P.P.P.P.P.P.",
"P.P.P.P.P.P.P.P.P.P.P.P.P.P.P.P.P.P.P.P.P.9 W 1 g L.L.M.* . o C L.L.K.) L.L.L.n.Q F.L.L.L.L.L.L.L.L.L.b.P.P.P.P.P.P.P.P.P.P.P.P.P.P.P.P.P.P.P.P.P.P.P.",
"P.P.P.P.P.P.P.P.P.P.P.P.P.P.P.P.P.P.P.P.P.P.D - * F.L.L.L.L.L.L.L.L.) M.L.L.L.M.F.L.L.L.L.L.L.L.L.L.m.P.P.P.P.P.P.P.P.P.P.P.P.P.P.P.P.P.P.P.P.P.P.P.P.",
"P.P.P.P.P.P.P.P.P.P.P.P.P.P.P.P.P.P.P.P.P.P.9 = d z F.L.L.L.L.L.L.) m.L.L.L.L.L.L.L.L.L.L.L.L.L.L.K.C P.P.P.P.P.P.P.P.P.P.P.P.P.P.P.P.P.P.P.P.P.P.P.P.",
"P.P.P.P.P.P.P.P.P.P.P.P.P.P.P.P.P.P.P.P.P.P.P.* z C d Q M.L.L.m.b.M.L.L.L.K.L.L.L.L.L.L.L.L.L.L.L.Q % P.P.P.P.P.P.P.P.P.P.P.P.P.P.P.P.P.P.P.P.P.P.P.P.",
"P.P.P.P.P.P.P.P.P.P.P.P.P.P.P.P.P.P.P.P.P.P.P.1 B E D f c B = 3 L.L.L.K.n.n.L.L.L.L.L.L.L.L.L.L.) ) - P.P.P.P.P.P.P.P.P.P.P.P.P.P.P.P.P.P.P.P.P.P.P.P.",
"P.P.P.P.P.P.P.P.P.P.P.P.P.P.P.P.P.P.P.P.P.P.P.P.c W l w 9 % * Q L.L.F.n.b.M.F.L.L.L.L.L.L.L.G.) L.D - P.P.P.P.P.P.P.P.P.P.P.P.P.P.P.P.P.P.P.P.P.P.P.P.",
"P.P.P.P.P.P.P.P.P.P.P.P.P.P.P.P.P.P.P.P.P.P.P.P.P.l g 3 # 1 C G.L.n.n.n.F.m.b.L.L.L.L.L.L.n.m.L.L.Q 1 P.P.P.P.P.P.P.P.P.P.P.P.P.P.P.P.P.P.P.P.P.P.P.P.",
"P.P.P.P.P.P.P.P.P.P.P.P.P.P.P.P.P.P.P.P.P.P.P.P.P.P.z q q D M.L.n.m.m.F.M.b.L.L.L.L.K.b.m.L.L.L.L.Q # P.P.P.P.P.P.P.P.P.P.P.P.P.P.P.P.P.P.P.P.P.P.P.P.",
"P.P.P.P.P.P.P.P.P.P.P.P.P.P.P.P.P.P.P.P.P.P.P.P.P.P.P.P.g n.L.F.L.M.K.G.M.L.L.L.M.b.M.L.L.L.L.L.L.b.* P.P.P.P.P.P.P.P.P.P.P.P.P.P.P.P.P.P.P.P.P.P.P.P.",
"P.P.P.P.P.P.P.P.P.P.P.P.P.P.P.P.P.P.P.P.P.P.P.P.P.P.P.P.3 9 g n.( M.m.Q F.n.b.m.G.L.L.L.L.L.L.L.L.K.l P.P.P.P.P.P.P.P.P.P.P.P.P.P.P.P.P.P.P.P.P.P.P.P.",
"P.P.P.P.P.P.P.P.P.P.P.P.P.P.P.P.P.P.P.P.P.P.P.P.P.P.P.P.3 * : ( L.Q m.G.K.L.L.L.L.L.L.L.L.L.L.L.L.L.K P.P.P.P.P.P.P.P.P.P.P.P.P.P.P.P.P.P.P.P.P.P.P.P.",
"P.P.P.P.P.P.P.P.P.P.P.P.P.P.P.P.P.P.P.P.P.P.P.P.P.P.P.P.q z S L.m.m.L.L.L.L.L.L.L.L.L.L.L.L.L.L.L.L.M.5 P.P.P.P.P.P.P.P.P.P.P.P.P.P.P.P.P.P.P.P.P.P.P.",
"P.P.P.P.P.P.P.P.P.P.P.P.P.P.P.P.P.P.P.P.P.P.P.P.P.P.P.P.2 : n.9.b.L.L.L.L.L.L.L.L.L.L.L.L.L.L.L.L.L.G.w P.P.P.P.P.P.P.P.P.P.P.P.P.P.P.P.P.P.P.P.P.P.P.",
"P.P.P.P.P.P.P.P.P.P.P.P.P.P.P.P.P.P.P.P.P.P.P.P.P.P.P.P.3 1 n.) L.L.L.L.L.L.L.L.L.L.L.L.L.L.L.L.L.L.K.= 3 P.P.P.P.P.P.P.P.P.P.P.P.P.P.P.P.P.P.P.P.P.P.",
"P.P.P.P.P.P.P.P.P.P.P.P.P.P.P.P.P.P.P.P.P.P.P.P.P.P.P.P.9 Q ) L.L.L.L.L.L.L.L.L.L.L.L.L.L.L.L.L.L.L.F.< 9 P.P.P.P.P.P.P.P.P.P.P.P.P.P.P.P.P.P.P.P.P.P.",
"P.P.P.P.P.P.P.P.P.P.P.P.P.P.P.P.P.P.P.P.P.P.P.P.P.P.P.P.9 m.K.L.L.L.L.L.L.L.L.L.L.L.L.L.L.L.L.L.L.L.F.N % % P.P.P.P.P.P.P.P.P.P.P.P.P.P.P.P.P.P.P.P.P.",
"P.P.P.P.P.P.P.P.P.P.P.P.P.P.P.P.P.3 P.P.P.P.P.P.P.P.P.- # G.L.L.L.L.L.L.L.L.L.L.L.L.L.L.L.L.L.L.L.L.F.) 1 3 P.P.P.P.P.P.P.P.P.P.P.P.P.P.P.P.P.P.P.P.P.",
"P.P.P.P.P.P.P.P.P.P.P.P.P.3 C 3 * = - - 9 P.P.P.P.P.z z : n.L.L.L.L.L.L.L.L.L.L.L.L.L.L.L.L.L.L.L.L.n.L.) 2 9 P.P.P.P.P.P.P.P.P.P.P.P.P.P.P.P.P.P.P.P.",
"P.P.P.P.P.P.P.P.P.P.9 - % - W W 1 % & = W g * 1 P.P.3 q - n.L.L.L.L.L.L.L.L.K.L.L.m.G.L.L.L.L.L.L.L.b.L.b.* 9 P.P.P.P.P.P.P.P.P.P.P.P.P.P.P.P.P.P.P.P.",
"P.P.P.P.P.P.P.P.P.- * * * = C ( q % % - Q g % % - q = % Q M.L.L.L.L.L.L.L.L.n.L.L.m.m.L.L.L.L.L.L.L.b.L.m.g 1 P.P.P.P.P.P.P.P.P.P.P.P.P.P.P.P.P.P.P.P.",
"P.P.P.P.P.P.P.P.- % * * * = g C : % = C ( C = & = 9 9 g L.b.L.L.L.L.L.L.L.F.n.L.L.F.m.L.L.L.L.L.L.L.n.L.Z * 1 P.P.P.P.P.P.P.P.P.P.P.P.P.P.P.P.P.P.P.P.",
"P.P.P.P.P.P.P.P.P.: 1 P.P.P.P.P.P.P.P.C g - % % 3 : # l L.n.G.L.L.L.L.L.L.M.m.L.L.F.m.L.L.L.L.L.L.G.m.L.= - 3 P.P.P.P.P.P.P.P.P.P.P.P.P.P.P.P.P.P.P.P.",
"P.P.P.P.P.P.P.P.P.P.P.P.P.P.P.P.P.P.P.P.P.P.: g Q g q - F.F.M.L.L.L.L.L.L.n.M.L.L.F.n.L.L.L.L.L.L.F.M.L.z 3 : P.P.P.P.P.P.P.P.P.P.P.P.P.P.P.P.P.P.P.P.",
"P.P.P.P.P.P.P.P.P.P.P.P.P.P.P.P.P.P.P.P.P.P.P.g C = 9 c ) F.m.L.L.L.L.L.L.n.M.L.L.F.m.L.L.L.L.L.L.M.G.M.* * 3 P.P.P.P.P.P.P.P.P.P.P.P.P.P.P.P.P.P.P.P.",
"P.P.P.P.P.P.P.P.P.P.P.P.P.P.P.P.P.P.P.P.P.P.P.P.P.1 - % 1 G.m.L.L.L.L.L.L.n.F.L.L.F.m.L.L.L.L.L.L.n.K.F.= : P.P.P.P.P.P.P.P.P.P.P.P.P.P.P.P.P.P.P.P.P.",
"P.P.P.P.P.P.P.P.P.P.P.P.P.P.P.P.P.P.P.P.P.P.P.P.P.q C : q K.b.L.L.L.L.L.L.n.G.L.L.F.m.L.L.L.L.L.L.n.K.L.1 - P.P.P.P.P.P.P.P.P.P.P.P.P.P.P.P.P.P.P.P.P.",
"P.P.P.P.P.P.P.P.P.P.P.P.P.P.P.P.P.P.P.P.P.P.P.P.P.P.9 1 g L.n.K.L.L.L.L.L.n.F.L.L.M.M.L.L.L.L.L.L.( n.G.: P.P.P.P.P.P.P.P.P.P.P.P.P.P.P.P.P.P.P.P.P.P.",
"P.P.P.P.P.P.P.P.P.P.P.P.P.P.P.P.P.P.P.P.P.P.P.P.P.P.9 # 1 G.( F.L.L.L.L.L.n.G.L.L.M.M.L.L.L.L.L.G.) G.F.) P.P.P.P.P.P.P.P.P.P.P.P.P.P.P.P.P.P.P.P.P.P.",
"P.P.P.P.P.P.P.P.P.P.P.P.P.P.P.P.P.P.P.P.P.P.P.P.P.P.P.3 F.L.m.m.L.L.L.L.L.n.F.L.L.M.M.L.L.L.L.L.M.m.L.L.L.z P.P.P.P.P.P.P.P.P.P.P.P.P.P.P.P.P.P.P.P.P.",
"P.P.P.P.P.P.P.P.P.P.P.P.P.P.P.P.P.P.P.P.P.P.P.P.P.P.P.L.L.L.F.n.L.L.L.L.L.n.F.L.L.m.M.L.L.L.L.L.n.G.G.K.L.W P.P.P.P.P.P.P.P.P.P.P.P.P.P.P.P.P.P.P.P.P.",
"P.P.P.P.P.P.P.P.P.P.P.P.P.P.P.P.P.P.P.P.P.P.P.P.P.P.P.F.L.F.F.b.L.L.L.L.L.m.M.L.L.M.M.L.L.L.L.L.b.K.M.F.K.q P.P.P.P.P.P.P.P.P.P.P.P.P.P.P.P.P.P.P.P.P.",
"P.P.P.P.P.P.P.P.P.P.P.P.P.P.P.P.P.P.P.P.P.P.P.P.P.P.P.Q L.n.F.b.L.L.L.L.L.M.D P.P.D G.L.L.L.L.L.G.m.b.n.P.P.P.P.P.P.P.P.P.P.P.P.P.P.P.P.P.P.P.P.P.P.P.",
"P.P.P.P.P.P.P.P.P.P.P.P.P.P.P.P.P.P.P.P.P.P.P.P.P.P.P.P.( Q ) G.L.L.L.L.L.M.P.P.P.P.M.L.L.L.K.L.L.M.P.P.P.P.P.P.P.P.P.P.P.P.P.P.P.P.P.P.P.P.P.P.P.P.P.",
"P.P.P.P.P.P.P.P.P.P.P.P.P.P.P.P.P.P.P.P.P.P.P.P.P.P.P.P.P.P.) L.L.L.L.L.L.m.P.P.P.P.Q G.L.L.n.L.K.Q P.P.P.P.P.P.P.P.P.P.P.P.P.P.P.P.P.P.P.P.P.P.P.P.P.",
"P.P.P.P.P.P.P.P.P.P.P.P.P.P.P.P.P.P.P.P.P.P.P.P.P.P.P.P.P.P.C G.L.M.L.K.m.z P.P.P.P.P.C G.L.n.G.) P.P.P.P.P.P.P.P.P.P.P.P.P.P.P.P.P.P.P.P.P.P.P.P.P.P.",
"P.P.P.P.P.P.P.P.P.P.P.P.P.P.P.P.P.P.P.P.P.P.P.P.P.P.P.P.P.P.P.C b.Q m.) P.P.P.P.P.P.P.P.P.P.P.P.P.P.P.P.P.P.P.P.P.P.P.P.P.P.P.P.P.P.P.P.P.P.P.P.P.P.P."
};
