/* XPM */
static char *result[] = {
/* columns rows colors chars-per-pixel */
"75 75 161 2 ",
"   c #000000",
".  c #090909",
"X  c gray9",
"o  c #142728",
"O  c #272727",
"+  c #2C2C2C",
"@  c #223132",
"#  c #333333",
"$  c #3C3C3C",
"%  c #454545",
"&  c #4C4C4C",
"*  c #495454",
"=  c #535454",
"-  c #515A5B",
";  c #5C5C5C",
":  c #6F5F5E",
">  c #5D6467",
",  c #636363",
"<  c #636C6E",
"1  c #6D6D6D",
"2  c #796B6B",
"3  c #666F71",
"4  c #686E70",
"5  c #667072",
"6  c #6A7274",
"7  c #737373",
"8  c #747A7B",
"9  c #7B7B7B",
"0  c #867D7E",
"q  c #897E7D",
"w  c #9C7A79",
"e  c #AB7E7D",
"r  c #BF7C7A",
"t  c #C17674",
"y  c #CB7D7B",
"u  c #B7807E",
"i  c #BB807E",
"p  c #CE807E",
"a  c #D7807E",
"s  c #D9807E",
"d  c #758082",
"f  c #7E8384",
"g  c #7C878A",
"h  c #7C8C8D",
"j  c #758C8C",
"k  c #7C9394",
"l  c #848484",
"z  c #8A8282",
"x  c #8D8886",
"c  c #848C8D",
"v  c #8C8C8C",
"b  c #908685",
"n  c #9E8483",
"m  c #928987",
"M  c #938C8A",
"N  c #95908F",
"B  c #839495",
"V  c #8D9292",
"C  c #899798",
"Z  c #8B9C9D",
"A  c #949494",
"S  c #9B9593",
"D  c #959C9D",
"F  c #9C9C9C",
"G  c #B48D89",
"H  c #A7908C",
"J  c #A19692",
"K  c #A39894",
"L  c #A09F9F",
"P  c #AF9E9A",
"I  c #ABA19D",
"U  c #B8A29D",
"Y  c #93A0A0",
"T  c #98A1A1",
"R  c #A3A3A3",
"E  c #A5A8A8",
"W  c #ABABAB",
"Q  c #B5A5A0",
"!  c #BDA6A1",
"~  c #B7A9A3",
"^  c #B0ABA8",
"/  c #B3B3B3",
"(  c #BCBCBC",
")  c #C68F8B",
"_  c #D28684",
"`  c #DE8885",
"'  c #D58E8A",
"]  c #C89E98",
"[  c #DF9F99",
"{  c #E78482",
"}  c #E28987",
"|  c #EF8987",
" . c #E48C89",
".. c #EB8D8B",
"X. c #EA8482",
"o. c #F68F8D",
"O. c #FC8D8B",
"+. c #E4918E",
"@. c #EC918F",
"#. c #F4908E",
"$. c #FE908E",
"%. c #E59792",
"&. c #EE9794",
"*. c #E59994",
"=. c #EA9A96",
"-. c #E79F9A",
";. c #EB9E99",
":. c #F49390",
">. c #FE9491",
",. c #FD9895",
"<. c #F69E99",
"1. c #DFA69E",
"2. c #E6A19B",
"3. c #EBA39D",
"4. c #F4A39D",
"5. c #FFA19D",
"6. c #C2A6A1",
"7. c #C2ADA6",
"8. c #CAAEA6",
"9. c #DFA7A0",
"0. c #C5B1AA",
"q. c #CAB4AD",
"w. c #D4B0A9",
"e. c #DDB0A9",
"r. c #DEBDB4",
"t. c #EEA7A0",
"y. c #ECABA4",
"u. c #F4A7A1",
"i. c #F2ADA6",
"p. c #FFA9A3",
"a. c #E0B7AF",
"s. c #EEB1A9",
"d. c #F3B1A9",
"f. c #FBB4AC",
"g. c #F2B8AF",
"h. c #FAB9AF",
"j. c #E9BFB5",
"k. c #FCBCB3",
"l. c #E1C3BA",
"z. c #EEC5BA",
"x. c #EFC9BD",
"c. c #FEC1B6",
"v. c #FCC5BA",
"b. c #FEC9BE",
"n. c #C5C5C5",
"m. c #CCCCCC",
"M. c #D3D3D3",
"N. c #DCDCDC",
"B. c #EECEC3",
"V. c #FFCEC2",
"C. c #F5D0C3",
"Z. c #FFD1C5",
"A. c #FFDBCD",
"S. c #FFE4D6",
"D. c #FFEDDC",
"F. c #E4E4E4",
"G. c #ECECEC",
"H. c #FFF5E5",
"J. c #F3F3F3",
"K. c #FFFFFF",
"L. c None",
/* pixels */
"L.L.L.L.L.L.L.L.L.L.L.L.L.L.L.L.L.L.L.L.L.L.L.L.L.L.L.L.L.L.L.L.L.L.L.L.L.L.L.L.L.L.L.L.L.L.L.L.L.L.L.L.L.L.L.L.L.L.L.L.L.L.L.L.L.L.L.L.L.L.L.L.L.L.L.",
"L.L.L.L.L.L.L.L.L.L.L.L.L.L.L.L.L.L.L.L.L.L.L.L.L.L.L.L.L.L.L.L.L.L.L.L.L.L.L.L.L.L.L.L.L.L.L.L.L.L.L.L.L.L.L.L.L.L.L.L.L.L.L.L.L.L.L.L.L.L.L.L.L.L.L.",
"L.L.L.L.L.L.L.L.L.L.L.L.L.L.L.L.L.L.L.L.L.L.L.L.L.L.L.L.L.L.L.L.L.L.L.L.L.L.L.L.L.L.L.L.L.L.L.L.L.L.L.L.L.L.L.L.L.L.L.L.L.L.L.L.L.L.L.L.L.L.L.L.L.L.L.",
"L.L.L.L.L.L.L.L.L.L.L.L.L.L.L.L.L.L.L.L.L.L.L.L.L.L.L.L.L.L.L.L.L.L.L.L.L.L.L.L.L.L.L.L.L.L.L.L.L.L.L.L.L.L.L.L.L.L.L.L.L.L.L.L.L.L.L.L.L.L.L.L.L.L.L.",
"L.L.L.L.L.L.L.L.L.L.L.L.L.L.L.L.L.L.L.L.L.L.L.L.L.L.L.L.L.L.L.L.L.L.L.L.L.L.L.L.L.L.L.L.L.L.L.L.L.L.L.L.L.L.L.L.L.L.L.L.L.L.L.L.L.L.L.L.L.L.L.L.L.L.L.",
"L.L.L.L.L.L.L.L.L.L.L.L.L.L.L.L.L.L.L.L.L.L.L.L.L.L.L.L.L.L.L.L.L.L.L.L.L.L.L.L.L.L.L.L.L.L.L.L.L.L.L.L.L.L.6 L.L.L.L.L.L.L.L.L.L.L.L.L.L.L.L.L.L.L.L.",
"L.L.L.L.L.L.L.L.L.L.L.L.L.L.L.L.L.L.L.L.L.L.L.L.L.L.L.L.L.L.L.L.L.L.L.L.L.L.L.L.L.L.L.L.L.L.L.L.L.L.L.L.l v 7.z L.L.L.L.L.L.L.L.L.L.L.L.L.L.L.L.L.L.L.",
"L.L.L.L.L.L.L.L.L.L.L.L.L.L.L.L.L.L.L.L.L.L.L.L.L.L.L.L.L.L.L.L.L.L.L.L.L.L.L.L.L.L.L.L.L.L.L.L.L.L.9 A h 0.D.I L.L.L.L.L.L.L.L.L.L.L.L.L.L.L.L.L.L.L.",
"L.L.L.L.L.L.L.L.L.L.L.L.L.L.L.L.L.L.L.L.N J 3 L.L.L.L.L.L.L.L.L.L.L.L.L.L.L.L.L.L.L.L.L.L.L.L.L.L.x R B H c.S.0.3 L.L.L.L.L.L.L.L.L.L.L.L.L.L.L.L.L.L.",
"L.L.L.L.L.L.L.L.L.L.L.L.L.L.L.L.L.L.L.> 0.D.~ d 6 L.L.L.L.L.L.L.L.L.L.L.L.L.L.L.L.L.L.L.L.L.L.7 A L C x u.k.A.r.8 L.L.L.L.L.L.L.L.L.L.L.L.L.L.L.L.L.L.",
"L.L.L.L.L.L.L.L.L.L.L.L.L.L.L.L.L.L.L.1 q.H.A.] v d L.L.L.L.L.L.L.L.L.L.L.L.L.L.L.L.L.L.L.L.9 F F D f ' k.d.v.z.l L.L.L.L.L.L.L.L.L.L.L.L.L.L.L.L.L.L.",
"L.L.L.L.L.L.L.L.L.L.L.L.L.L.L.L.L.L.L.6 l.S.Z.k.[ A c f L.L.L.L.L.L.L.L.L.L.L.L.L.L.L.L.L.l R F D h u p.t.-.v.v.M L.L.L.L.L.L.L.L.L.L.L.L.L.L.L.L.L.L.",
"L.L.L.L.L.L.L.L.L.L.L.L.L.L.L.L.L.L.L.7 B.V.s.v.f.%.m Z v L.L.L.L.L.L.L.L.L.L.L.L.L.L.L.v R A F B w >.;.%.f.s.c.K L.L.L.L.L.L.L.L.L.L.L.L.L.L.L.L.L.L.",
"L.L.L.L.L.L.L.L.L.L.L.L.L.L.L.L.L.L.L.8 x.V.y.-.i.p. .z Y A l L.L.L.L.L.L.L.L.L.L.L.L.A E A F Z q X.:. .u.3.t.v.P 5 L.L.L.L.L.L.L.L.L.L.L.L.L.L.L.L.L.",
"L.L.L.L.L.L.L.L.L.L.L.L.L.L.L.L.L.L.L.9 z.h.s.t.%.<.,.y 0 Y F M l L.L.L.L.L., l 7 = l L v A D z a O.` &.=.-.h.v.U 6 L.L.L.L.L.L.L.L.L.L.L.L.L.L.L.L.L.",
"L.L.L.L.L.L.L.L.L.L.L.L.L.L.L.L.L.L.L.8 j.v.3.-.=. ...O.y g T L S 9 ; = R 1 $ E F $ % 9 A V 8 t $... .&.%.u.-.c.6.5 L.L.L.L.L.L.L.L.L.L.L.L.L.L.L.L.L.",
"L.L.L.L.L.L.L.L.L.L.L.L.L.L.L.L.L.L.L.8 e.c.i.4.%. .}  .O.y f V l = + ; E l 9 A T 9 # $ , R S m e { >. .=.*.d.Z.U 6 L.L.L.L.L.L.L.L.L.L.L.L.L.L.L.L.L.",
"L.L.L.L.L.L.L.L.L.L.L.L.L.L.L.L.L.L.L.6 w.v.-.=.&. .} o.o.y l T ; $ $ 9 M / K.N.A v = % + , E T k 0 _ p.=.i.d.k.! 6 L.L.L.L.L.L.L.L.L.L.L.L.L.L.L.L.L.",
"L.L.L.L.L.L.L.L.L.L.L.L.L.L.L.L.L.L.L.5 6.k.y.;. . .o.o.w h W 9 # $ % 7 / K.K.K.J.E = $ 1 $ 7 E F C * i f.3.y.V.! 5 L.L.L.L.L.L.L.L.L.L.L.L.L.L.L.L.L.",
"L.L.L.L.L.L.L.L.L.L.L.L.L.L.L.L.L.L.L.5 P k.3.3.=.:.| : j E T % = 7 # R K.K.K.K.K.K.1 $ / x $ l R R * @ ) k.h.v.~ 5 L.L.L.L.L.L.L.L.L.L.L.L.L.L.L.L.L.",
"L.L.L.L.L.L.L.L.L.L.L.L.L.L.L.L.L.L.L.L.S g.u.3.4.<.2 o 7 / 9 $ F F l K.K.K.K.K.K.K.F.7 A E 8 = E l $ - f y.h.v.I L.L.L.L.L.L.L.L.L.L.L.L.L.L.L.L.L.L.",
"L.L.L.L.L.L.L.L.L.L.L.L.L.L.L.L.L.L.L.L.f e.k.i.4.n B ; $ F ; 1 E l J.K.K.K.K.K.K.K.K.N.l A z 9 v 9 , S D 0 V.S.M L.L.L.L.L.L.L.L.L.L.L.L.L.L.L.L.L.L.",
"L.L.L.L.L.L.L.L.L.L.L.L.L.L.L.L.L.L.L.L.< 0.b.f.G j L R 8 7 ; l l W K.K.K.K.K.K.K.K.K.K.W 7 M.K.K.J.M.V l g 8.D.9 L.L.L.L.L.L.L.L.L.L.L.L.L.L.L.L.L.L.",
"L.L.L.L.L.L.L.L.L.L.L.L.L.L.L.L.L.L.L.L.L.x Z.1.l D S f F ^ n.( l ( K.K.K.K.K.K.K.K.K.K.n.K.G.W / K.K.J.D l W a.L.L.L.L.L.L.L.L.L.L.L.L.L.L.L.L.L.L.L.",
"L.L.L.L.L.L.L.L.L.L.L.L.L.L.L.L.L.L.L.L.L.L.C.7.c A 9 / K.K.K.K.K.m.n.K.K.K.K.K.K.K.K.M.K.E       + N.K.K.9 ; x L.L.L.L.L.L.L.L.L.L.L.L.L.L.L.L.L.L.L.",
"L.L.L.L.L.L.L.L.L.L.L.L.L.L.L.L.L.L.L.L.L.L.S A F 9 n.K.K.A & ; n.K.m.m.K.K.K.K.K.K.J.G.m.          O K.K.n.O = L.L.L.L.L.L.L.L.L.L.L.L.L.L.L.L.L.L.L.",
"L.L.L.L.L.L.L.L.L.L.L.L.L.L.L.L.L.L.L.L.L.L.8 A v W K.K.%         A K.n.G.K.K.K.K.K.M.K.7             m.K.J.A 9 L.L.L.L.L.L.L.L.L.L.L.L.L.L.L.L.L.L.L.",
"L.L.L.L.L.L.L.L.L.L.L.L.L.L.L.L.L.L.L.L.L.L.x E 1 F.K.R             G.K.m.K.K.K.K.K.M.K.,             n.K.K.F A L.L.L.L.L.L.L.L.L.L.L.L.L.L.L.L.L.L.L.",
"L.L.L.L.L.L.L.L.L.L.L.L.L.L.L.L.L.L.L.L.L.L.A % = K.K.;             / K.m.K.K.K.K.K.M.K.(           X K.K.J.v F 9 L.L.L.L.L.L.L.L.L.L.L.L.L.L.L.L.L.L.",
"L.L.L.L.L.L.L.L.L.L.L.L.L.L.L.L.L.L.L.L.L.L.& $ A K.K.9             m.K.M.G.K.K.K.K.m.J.K.7       X m.K.K.N.9 E 9 L.L.L.L.L.L.L.L.L.L.L.L.L.L.L.L.L.L.",
"L.L.L.L.L.L.L.L.L.L.L.L.L.L.L.L.L.L.L.L.L.L.$ A R K.K.F.          % K.K.M.F.K.K.K.K.M.N.K.K.n.v F G.K.K.K.F v / v L.L.L.L.L.L.L.L.L.L.L.L.L.L.L.L.L.L.",
"L.L.L.L.L.L.L.L.L.L.L.L.L.L.L.L.L.L.L.L.L.L.l R 9 M.K.K.m.$   . ; K.K.K.m.K.K.K.K.K.G.( F.K.K.K.K.K.K.K.( v A = , L.L.L.L.L.L.L.L.L.L.L.L.L.L.L.L.L.L.",
"L.L.L.L.L.L.L.L.L.L.L.L.L.L.L.L.L.L.L.L.L.L.R F v A K.K.K.K.F.G.K.K.K.M.m.K.F.= 9 K.K.G.( n.F.K.K.K.K.n.l l ; ; , L.L.L.L.L.L.L.L.L.L.L.L.L.L.L.L.L.L.",
"L.L.L.L.L.L.L.L.L.L.L.L.L.L.L.L.L.L.L.L.L.L.v A E v E K.K.K.K.K.K.K.m.( J.K.J.A m.K.K.K.K.M.n.n.m.A % & = + % A 9 L.L.L.L.L.L.L.L.L.L.L.L.L.L.L.L.L.L.",
"L.L.L.L.L.L.L.L.L.L.L.L.L.L.L.L.L.L.L.L.L.L.l 9 7 l 7 v n.N.F.F.m.( m.K.K.K.K.K.K.K.K.K.K.K.K.J.J.M.1 $ % ; 1 7 L.L.L.L.L.L.L.L.L.L.L.L.L.L.L.L.L.L.L.",
"L.L.L.L.L.L.L.L.L.L.L.L.L.L.L.L.L.L.L.L.L.L.9 v % $ & $ 7 M.m.m.M.J.K.K.K.K.K.F G.K.K.K.K.K.K.K.K.K.K.m.F A F A L.L.L.L.L.L.L.L.L.L.L.L.L.L.L.L.L.L.L.",
"L.L.L.L.L.L.L.L.L.L.L.L.L.L.L.L.L.L.L.L.L.L.L.1 8 8 9 F G.K.K.K.K.K.K.K.F.n.( 7 / n.F.K.K.K.K.K.K.K.K.K.K.G.N.L.L.L.L.L.L.L.L.L.L.L.L.L.L.L.L.L.L.L.L.",
"L.L.L.L.L.L.L.L.L.L.L.L.L.L.L.L.L.L.L.L.L.L.L.L.q.M.F.K.K.K.K.K.K.K.K.K.J.( / K.F.m.K.K.K.K.F.N.N.N.M.M.N.J.m.L.L.L.L.L.L.L.L.L.L.L.L.L.L.L.L.L.L.L.L.",
"L.L.L.L.L.L.L.L.L.L.L.L.L.L.L.L.L.L.L.L.L.L.L.L.R J.G.F.N.F.N.M.m.m.K.K.K.K.K.K.K.K.K.K.K.K.M.M.M.M.F.G.K.n.L.L.L.L.L.L.L.L.L.L.L.L.L.L.L.L.L.L.L.L.L.",
"L.L.L.L.L.L.L.L.L.L.L.L.L.L.L.L.L.L.L.L.L.L.L.L.L.T F.M.n.m.m.M.M.F.K.K.K.K.K.K.K.K.K.K.K.J.( / n.M.F.G.m.L.L.L.L.L.L.L.L.L.L.L.L.L.L.L.L.L.L.L.L.L.L.",
"L.L.L.L.L.L.L.L.L.L.L.L.L.L.L.L.L.L.L.L.L.L.L.L.L.L.v N.G.N.m.n.n.m.J.K.K.K.K.K.K.K.K.K.K.K.F.N.M.F.G.( L.L.L.L.L.L.L.L.L.L.L.L.L.L.L.L.L.L.L.L.L.L.L.",
"L.L.L.L.L.L.L.L.L.L.L.L.L.L.L.L.L.L.L.L.L.L.L.L.L.L.L.R m.G.F.N.N.F.K.K.K.K.K.K.K.K.K.K.K.K.K.K.K.N.9 L.L.L.L.L.L.L.L.L.L.L.L.L.L.L.L.L.L.L.L.L.L.L.L.",
"L.L.L.L.L.L.L.L.L.L.L.L.L.L.L.L.L.L.L.L.L.L.L.L.L.L.L.L.L.9 G.K.K.K.K.K.K.K.K.K.K.K.K.K.K.K.K.F./ F $ L.L.L.L.L.L.L.L.L.L.L.L.L.L.L.L.L.L.L.L.L.L.L.L.",
"L.L.L.L.L.L.L.L.L.L.L.L.L.L.L.L.L.L.L.L.L.L.L.L.L.L.L.L.1 $ 1 m.m.F.J.K.K.K.K.K.K.K.K.K.K.M.m.F.K./ = L.L.L.L.L.L.L.L.L.L.L.L.L.L.L.L.L.L.L.L.L.L.L.L.",
"L.L.L.L.L.L.L.L.L.L.L.L.L.L.L.L.L.L.L.L.L.L.L.L.L.L.L.L.l v M.K.K.N.M.m.n.M.M.N.F.F.M.m.M.J.K.K.K.R = L.L.L.L.L.L.L.L.L.L.L.L.L.L.L.L.L.L.L.L.L.L.L.L.",
"L.L.L.L.L.L.L.L.L.L.L.L.L.L.L.L.L.L.L.L.L.L.L.L.L.L.L.L.& = K.K.K.K.K.K.K.K.J.G.F.G.J.K.K.K.K.K.K.W ; L.L.L.L.L.L.L.L.L.L.L.L.L.L.L.L.L.L.L.L.L.L.L.L.",
"L.L.L.L.L.L.L.L.L.L.L.L.L.L.L.L.L.L.L.L.L.L.L.L.L.L.L.L.7 = N.K.K.K.K.K.K.K.K.K.K.K.K.K.K.K.K.K.K.W # L.L.L.L.L.L.L.L.L.L.L.L.L.L.L.L.L.L.L.L.L.L.L.L.",
"L.L.L.L.L.L.L.L.L.L.L.L.L.L.L.L.L.L.L.L.L.L.L.L.L.L.L.L.v E N.K.K.K.K.K.K.K.K.K.K.K.K.K.K.K.K.K.K.n.% L.L.L.L.L.L.L.L.L.L.L.L.L.L.L.L.L.L.L.L.L.L.L.L.",
"L.L.L.L.L.L.L.L.L.L.L.L.L.L.L.L.L.L.L.L.L.L.L.L.L.L.L.L.1 ; 7 K.K.K.K.K.K.K.K.K.K.K.K.K.K.K.K.K.K.J.v L.L.L.L.L.L.L.L.L.L.L.L.L.L.L.L.L.L.L.L.L.L.L.L.",
"L.L.L.L.L.L.L.L.L.L.L.L.L.L.L.L.L.L.L.L.L.L.L.L.L.L.L.L.L.% ; J.K.K.K.K.K.K.K.K.K.K.K.K.K.K.K.K.K.K.F L.L.L.L.L.L.L.L.L.L.L.L.L.L.L.L.L.L.L.L.L.L.L.L.",
"L.L.L.L.L.L.L.L.L.L.L.L.L.L.L.L.L.L.L.L.L.L.L.L.L.L.L.L.9 A W K.K.K.K.K.K.K.K.K.K.K.K.K.K.K.K.K.K.K.M.7 L.L.L.L.L.L.L.L.L.L.L.L.L.L.L.L.L.L.L.L.L.L.L.",
"L.L.L.L.L.L.L.L.L.L.L.L.L.L.L.L.L.L.L.L.L.L.L.L.L.L.L.L.; ; m.K.K.K.K.K.K.K.K.K.K.K.K.K.K.K.K.K.K.K.G.9 L.L.L.L.L.L.L.L.L.L.L.L.L.L.L.L.L.L.L.L.L.L.L.",
"L.L.L.L.L.L.L.L.L.L.L.L.L.L.L.L.L.L.L.L.L.L.L.L.L.L.L.L., 1 K.K.K.K.K.K.K.K.K.K.K.K.K.K.K.K.K.K.K.K.J.& 1 L.L.L.L.L.L.L.L.L.L.L.L.L.L.L.L.L.L.L.L.L.L.",
"L.L.L.L.L.L.L.L.L.L.L.L.L.L.L.L.L.L.L.L.L.L.L.L.L.L.L.L.9 n.K.K.K.K.K.K.K.K.K.K.K.K.K.K.K.K.K.K.K.K.F.; 7 L.L.L.L.L.L.L.L.L.L.L.L.L.L.L.L.L.L.L.L.L.L.",
"L.L.L.L.L.L.L.L.L.L.L.L.L.L.L.L.L.L.L.L.L.L.L.L.L.L.L.L.1 G.K.K.K.K.K.K.K.K.K.K.K.K.K.K.K.K.K.K.K.K.G.v $ $ L.L.L.L.L.L.L.L.L.L.L.L.L.L.L.L.L.L.L.L.L.",
"L.L.L.L.L.L.L.L.L.L.L.L.L.L.L.L.L.L.L.L.L.L.L.L.L.L.L.= $ G.K.K.K.K.K.K.K.K.K.K.K.K.K.K.K.K.K.K.K.K.F.n., 1 L.L.L.L.L.L.L.L.L.L.L.L.L.L.L.L.L.L.L.L.L.",
"L.L.L.L.L.L.L.L.L.L.L.L.L.L.L.L.L.L.L.L.L.L.L.L.L.L.v M ; m.K.K.K.K.K.K.K.K.K.K.K.K.K.K.K.K.K.K.K.K.m.K.( , 7 L.L.L.L.L.L.L.L.L.L.L.L.L.L.L.L.L.L.L.L.",
"L.L.L.L.L.L.L.L.L.L.L.L.L.L.L.L.L.L.L.L.L.L.L.L.L.L.1 9 = m.K.K.K.K.K.K.K.K.J.K.K.m.J.K.K.K.K.K.K.K.n.K.n.% 7 L.L.L.L.L.L.L.L.L.L.L.L.L.L.L.L.L.L.L.L.",
"L.L.L.L.L.L.L.L.L.L.L.L.L.L.L.L.L.L.L.L.L.L.L.L.L.L.& $ E N.K.K.K.K.K.K.K.K.m.K.K.M.M.K.K.K.K.K.K.K.n.K.M.l , L.L.L.L.L.L.L.L.L.L.L.L.L.L.L.L.L.L.L.L.",
"L.L.L.L.L.L.L.L.L.L.L.L.L.L.L.L.L.L.L.L.L.L.L.L.L.4 7 l K.n.K.K.K.K.K.K.K.F.m.K.K.F.M.K.K.K.K.K.K.K.m.K.A & , L.L.L.L.L.L.L.L.L.L.L.L.L.L.L.L.L.L.L.L.",
"L.L.L.L.L.L.L.L.L.L.L.L.L.L.L.L.L.L.L.L.L.L.L.L.L.: + c K.m.G.K.K.K.K.K.K.M.M.K.K.F.M.K.K.K.K.K.K.G.M.K.& = 1 L.L.L.L.L.L.L.L.L.L.L.L.L.L.L.L.L.L.L.L.",
"L.L.L.L.L.L.L.L.L.L.L.L.L.L.L.L.L.L.L.L.L.L.L.L.L.9 9 = F.F.F.K.K.K.K.K.K.m.N.K.K.F.m.K.K.K.K.K.K.F.N.K.v 1 ; L.L.L.L.L.L.L.L.L.L.L.L.L.L.L.L.L.L.L.L.",
"L.L.L.L.L.L.L.L.L.L.L.L.L.L.L.L.L.L.L.L.L.L.L.L.L.= 7 v / F.M.K.K.K.K.K.K.m.N.K.K.F.M.K.K.K.K.K.K.N.G.N.% % 1 L.L.L.L.L.L.L.L.L.L.L.L.L.L.L.L.L.L.L.L.",
"L.L.L.L.L.L.L.L.L.L.L.L.L.L.L.L.L.L.L.L.L.L.L.L.L.> = $ , G.M.K.K.K.K.K.K.m.F.K.K.F.M.K.K.K.K.K.K.m.J.F.& ; L.L.L.L.L.L.L.L.L.L.L.L.L.L.L.L.L.L.L.L.L.",
"L.L.L.L.L.L.L.L.L.L.L.L.L.L.L.L.L.L.L.L.L.L.L.L.L., v ; 9 J.m.K.K.K.K.K.K.m.G.K.K.F.M.K.K.K.K.K.K.m.J.K., = L.L.L.L.L.L.L.L.L.L.L.L.L.L.L.L.L.L.L.L.L.",
"L.L.L.L.L.L.L.L.L.L.L.L.L.L.L.L.L.L.L.L.L.L.L.L.L.L.7 , l K.m.J.K.K.K.K.K.m.F.K.K.N.N.K.K.K.K.K.K./ m.G.; L.L.L.L.L.L.L.L.L.L.L.L.L.L.L.L.L.L.L.L.L.L.",
"L.L.L.L.L.L.L.L.L.L.L.L.L.L.L.L.L.L.L.L.L.L.L.L.L.L.9 + , G./ F.K.K.K.K.K.m.G.K.K.N.N.K.K.K.K.K.G.( G.F.( L.L.L.L.L.L.L.L.L.L.L.L.L.L.L.L.L.L.L.L.L.L.",
"L.L.L.L.L.L.L.L.L.L.L.L.L.L.L.L.L.L.L.L.L.L.L.L.L.L.L.1 F.K.M.M.K.K.K.K.K.m.F.K.K.N.N.K.K.K.K.K.N.M.K.K.K.v L.L.L.L.L.L.L.L.L.L.L.L.L.L.L.L.L.L.L.L.L.",
"L.L.L.L.L.L.L.L.L.L.L.L.L.L.L.L.L.L.L.L.L.L.L.L.L.L.L.K.K.K.F.m.K.K.K.K.K.m.F.K.K.M.N.K.K.K.K.K.m.G.G.J.K.E L.L.L.L.L.L.L.L.L.L.L.L.L.L.L.L.L.L.L.L.L.",
"L.L.L.L.L.L.L.L.L.L.L.L.L.L.L.L.L.L.L.L.L.L.L.L.L.L.L.G.K.N.F.m.K.K.K.K.K.M.N.K.K.N.N.K.K.K.K.K.( J.N.F.J.9 L.L.L.L.L.L.L.L.L.L.L.L.L.L.L.L.L.L.L.L.L.",
"L.L.L.L.L.L.L.L.L.L.L.L.L.L.L.L.L.L.L.L.L.L.L.L.L.L.L.E K.M.F.n.K.K.K.K.K.N.F L.L.F G.K.K.K.K.K.J.M.n.m.L.L.L.L.L.L.L.L.L.L.L.L.L.L.L.L.L.L.L.L.L.L.L.",
"L.L.L.L.L.L.L.L.L.L.L.L.L.L.L.L.L.L.L.L.L.L.L.L.L.L.L.L.W W / G.K.K.K.K.K.N.L.L.L.L.N.K.K.K.J.K.K.N.L.L.L.L.L.L.L.L.L.L.L.L.L.L.L.L.L.L.L.L.L.L.L.L.L.",
"L.L.L.L.L.L.L.L.L.L.L.L.L.L.L.L.L.L.L.L.L.L.L.L.L.L.L.L.L.L.( K.K.K.K.K.K.M.L.L.L.L.E G.K.K.m.K.J.E L.L.L.L.L.L.L.L.L.L.L.L.L.L.L.L.L.L.L.L.L.L.L.L.L.",
"L.L.L.L.L.L.L.L.L.L.L.L.L.L.L.L.L.L.L.L.L.L.L.L.L.L.L.L.L.L.A G.K.N.K.J.M.v L.L.L.L.L.A G.K.m.G.( L.L.L.L.L.L.L.L.L.L.L.L.L.L.L.L.L.L.L.L.L.L.L.L.L.L.",
"L.L.L.L.L.L.L.L.L.L.L.L.L.L.L.L.L.L.L.L.L.L.L.L.L.L.L.L.L.L.L.A n.W M.( L.L.L.L.L.L.L.L.L.L.L.L.L.L.L.L.L.L.L.L.L.L.L.L.L.L.L.L.L.L.L.L.L.L.L.L.L.L.L."
};
