/* XPM */
static char *result[] = {
/* columns rows colors chars-per-pixel */
"75 60 81 1 ",
"  c black",
". c #2C2C2C",
"X c #323232",
"o c #3C3C3C",
"O c #444444",
"+ c #4C4C4C",
"@ c #555555",
"# c #5C5C5C",
"$ c #646464",
"% c #686666",
"& c #6A6969",
"* c #736E6C",
"= c #7E726F",
"- c #747373",
"; c #7C7C7C",
": c #82726E",
"> c #857F7E",
", c #917C77",
"< c #957E79",
"1 c #9D807B",
"2 c #A6847F",
"3 c #A8847F",
"4 c #848484",
"5 c #888787",
"6 c #8B8B8B",
"7 c #9E8782",
"8 c #968F8D",
"9 c #979797",
"0 c #9B9B9B",
"q c #AB8681",
"w c #B88A85",
"e c #A09F9F",
"r c #A2A2A2",
"t c #ABABAB",
"y c gray70",
"u c #B8B7B7",
"i c #BBBBBB",
"p c #C48E89",
"a c #CD928D",
"s c #D2948F",
"d c #C39691",
"f c #C89E96",
"g c #D69590",
"h c #DA9792",
"j c #DE9994",
"k c #E59B96",
"l c #E89C97",
"z c #EA9D98",
"x c #C4A59E",
"c c #CCA49C",
"v c #ECA19C",
"b c #D7B1AE",
"n c #D6B4B2",
"m c #EBADA5",
"M c #F1ADA5",
"N c #EDB1AA",
"B c #F3B3AA",
"V c #F4B8AF",
"C c #E6BEB7",
"Z c #EBBBB3",
"A c #F6BCB2",
"S c #F8BFB5",
"D c #DDC1BC",
"F c #ECC1B9",
"G c #F9C2B7",
"H c #F5C4BB",
"J c #F9C4BA",
"K c #F6C8BE",
"L c #449620",
"P c #C8C1C0",
"I c #CACACA",
"U c #D4D4D4",
"Y c #DADADA",
"T c #F3CEC7",
"R c #FACBC2",
"E c #F0D3CD",
"W c #EDD8D4",
"Q c #E3E3E3",
"! c #EBEBEB",
"~ c #F3F3F3",
"^ c #FFFFFF",
/* pixels */
"LLLLLLLLLLLLLLLLLLLLLLLLLLLLLLLLLLLLLLLLLLLLLLLLLLLLLLLLLLLLLLLLLLLLLLLLLLL",
"LLLLLLLLLLLLLLLLLLLLLLLLLLLLLLLLLLLLLLLLLLLLLLLLLLLLLLLLLLLLLLLLLLLLLLLLLLL",
"LLLLLLLLLLLLLLLLLLLLLLLLLLLLLLLLLLLLLLLLLLL#&LLLLLLLLLLLLLLLLLLLLLLLLLLLLLL",
"LLLLLLLLLLLLLLLLLLLLLLLLLLLLLLLLLLLLLLLLLL%$W0LLLLLLLLLLLLLLLLLLLLLLLLLLLLL",
"LLLLLLLLLLLLLLLLLLLLLLLLLLLLLLLLLLLLLLLLLL9$ER;tLLLLLLLLLLLLLLLLLLLLLLLLLLL",
"LLLLLLLLLLLLLLLLLLLLLLLLLLLLLLLLLLLLLLLLLL9$GGG$;LLLLLLLLLLLLLLLLLLLLLLLLLL",
"LLLLLLLLLLLLLLLLLLLLLLLLLLLLLLLLLLLLLLLLL&99MMMB74LLLLLLLLLLLLLLLLLLLLLLLLL",
"LLLLLLLLLLLLLLLLLLLLLLLLLLLLLLLLLLLLLLLLL999kzVBB7$LLLLLLLLLLLLLLLLLLLLLLLL",
"LLLLLLLLL@OLLLLLLLLLLLLLLLLLLLLLLLLLLLLLL999jzzvms#LLLLLLLLLLLLLLLLLLLLLLLL",
"LLLLLLLLLXXLLLLLLLLLLLLLLLLLLLLLLLLLLLLL$999szzzzVG5LLLLLLLLLLLLLLLLLLLLLLL",
"LLLLLLLLLXXLLLLLLLLLLLLLLLLLLLLLLLLLLLLL0999;zazvSGH#LLLLLLLLLLLLLLLLLLLLLL",
"LLLLLLLL;XXLLLLLLLLLLLLLLLLLLLLLLLLLLLLL99990&$$$$cR0LLLLLLLLLLLLLLLLLLLLLL",
"LLLLLLLL$XX$LLLLLLLLLLLLLLLLLLLLLLLLLLLL9%XXXXXX99#^^5LLLLLLLLLLLLLLLLLLLLL",
"LLLLLLLL$XX+LLLLLLLLLLLLLLLLLLLLLLLLLLL$oQ^^^^Q#e%^^^^^#LLLLLLLLLLLLLLLLLLL",
"LLLLLLLL$XXXLLLLLLLLLLLLLLLLLLLLLLLLLL99^^^^^^^^^^^    ^ULLLLLLLLLLLLLLLLLL",
"LLLLLLLL$XXXLLLLLLLLLLLLLLi$&-9rrr6&$0X9^^^^^^^^^^     ^^$LLLLLLLLLLLLLLLLL",
"LLLLLLLL$999#LLLLLLLLLL6$%99999990909XX#^^^^^^^^^^      ^^9LLLLLLLLLLLLLLLL",
"LLLLLLLLL99$0LLLLLLLLLL$GGGVBz$499999XXXr^^^^^^^^^      ^^9XLLLLLLLLLLLLLLL",
"LLLLLLLLL99XXLLLLLLLLLL9GGGBzzhzkl090X99$^^^^^^^^^;    Q^^9X0LLLLLLLLLLLLLL",
"LLLLLLLLL9XXXLLLLLLLLLL-GGSszzlll&9069909^^^^^^^^~^   O^^$OXO;LLLLLLLLLLLLL",
"LLLLLLLLLXXXXXLLLLLLLLLL$JBSvzlkl9990~^^^^u^^^^^^^#^^^^^-@%#8^LLLLLLLLLLLLL",
"LLLLLLLLL$XXXXLLLLLLLLLL9GGSvzzlhX9$^^i P^^@^^^^^^^$@@$^^^^^^^PLI%LLLLLLLLL",
"LLLLLLLLLeX+X99LLLLLLLLL@dGvslzz#X-^^     ^^#^^^^~^^^^^^^^^^^^$LLLLLLLLLLLL",
"LLLLLLLLLLX0999yLLLLLLLLL0GGSBvM99^^       ^^#^^O+^^^^~*^^^^5^@LL#QLLLLLLLL",
"LLLLLLLLLL-990+XLLLLLLLLL%xKGBVB99^^       ^^^^^^^$=0<q2^^U^^-$LLLLLLLLLLLL",
"LLLLLLLLLLL9XXXX@LLLLLLLLL9WGGVl0$^Q       ^^^^^^&11<,pp!^^-^^&LY$#;LLLLLLL",
"LLLLLLLLLLL4XXXXX$LLLLLLLL0%GTGG95^^       ^^^^^^,<,qppp4^^^-YIPLLLLLLLLLLL",
"LLLLLLLLLLLLXXXX99$LLLLLLLL%ZGkk9-^^       ^^#^^$,<ppjpa$^^^^^LLLLLLLLLLLLL",
"LLLLLLLLLLLL$X00990+LLLLLLLL4WTJ0X$^^     ^^9^^%qwppga2q#^^^^^LLLLLLLLLLLLL",
"LLLLLLLLLLLLLX999+XX9$XXX@5XX$jg-X-$^^^^^^^#^^*qwphfGGGG9^^^^$LLLLLLLLLLLLL",
"LLLLLLLLLLLLLL99-XXOXXXX@9XX99$#XX990#^^^#^^^$3psgGGGGGGU^^^^~LLPLLLL5IQLLL",
"LLLLLLLLLLLLLLL9X%XeXXXX9XXX99X9$X9--&&&X9^^^^pjpAGJGGGG^^^^$^u$u~Q~5!^4$LL",
"LLLLLLLLLLLLLLLL$X9XXXX99XXX99X:9099000X-#^^^^^kmSGGGGGG^^^^^^^^^^^^^^^X!LL",
"LLLLLLLLLLLLLLL;X99XXXX99XXX9+Xe909909XX0^^^9^^^BVSGGGGG^^^^^^^^^^^^^^t^;LL",
"LLLLLLLLLLLLLLL9X99XXXX99XX99+X99$990X00^^$^4^^^^mFAGGGD^^5^^^^^^^^^^^^XILL",
"LLLLLLLLLLLLLL>X9990XXX9XX999XX90X6996y^~^^^^~^^^^$NZCnM^t^^^^^^^^^^^^>-LLL",
"LLLLLLLLLLLLLL9X9@99XXX99X999XXX9X90^^^#^r^^~^^^^^^enbb#^^^^^^^^^^^^^#&LLLL",
"LLLLLLLLLLLLL&#X9X999XX90X994XXX9X9r$^U^$^^I^^^^^^^^^$$^^^^^^^^^^^^^iLLLLLL",
"LLLLLLLLLLLLLoXX9X.99XX99X99;XXX9XXXX0^&^^#^^^^^^^^^#^^^^^^^^^^^^$ULLLLLLLL",
"LLLLLLLLLLLL$X6X9#X99XX99X99;XXX9XX5X0X$^9^^^^^^^Q*^^^^^^^~@#QLLLLLLLLLLLLL",
"LLLLLLLLLLLu0X0X#9X99XX90XX9@X9XrXX9X9X*9@#;$$5^^^^-LLLLLLLLLLLLLLLLLLLLLLL",
"LLLLLLLLLLL^0X0XX0X99XX0XXX9X##^OXX9X9XX0X9^^^^^^^#LLLLLLLLLLLLLLLLLLLLLLLL",
"LLLLLLLLLL#^9X9XX9X99X$^^^^^^^^^^;X9X99X0o0^^^^^^^LLLLLLLLLLLLLLLLLLLLLLLLL",
"LLLLLLLLLL^^9X99X9X990^^^^^^^^^^^^^-999XX0#^^^^^^ILLLLLLLLLLLLLLLLLLLLLLLLL",
"LLLLLLLLL^^^0X999X&9^^^^^^^^^^^^^^^^^&9XO$^^^^^^^LLLLLLLLLLLLLLLLLLLLLLLLLL",
"LLLLLLLL&^^^00X99X5^^^^^^^^^^^^^^^^^^^^^^^^^^^^^LLLLLLLLLLLLLLLLLLLLLLLLLLL",
"LLLLLLLL^^^^^0994^^^^^^^-LLL#^^^^^&^^^^^^^^^^^^^LLLLLLLLLLLLLLLLLLLLLLLLLLL",
"LLLLLLL^^^^^^^^^^^^^^PULLLLLL^^^^^^^^^^^^^^^^^^^LLLLLLLLLLLLLLLLLLLLLLLLLLL",
"LLLLLL#^^^^^^^^^^^yyLLLLLLLLLU^^^^^^^^^^^^^^^^^~LLLLLLLLLLLLLLLLLLLLLLLLLLL",
"LLLLLL^^^^^^^^^^rLLLLLLLLLLLLL^^^^^^#L^^^^^^^^^$LLLLLLLLLLLLLLLLLLLLLLLLLLL",
"LLLLLL^^^^^^^^PLLLLLLLLLLLLLLLY^^^^^LL#^^^^^^^^$LLLLLLLLLLLLLLLLLLLLLLLLLLL",
"LLLLL@^^^^^^#LLLLLLLLLLLLLLLLLL^^^^^tLL^^^^^^^^&LLLLLLLLLLLLLLLLLLLLLLLLLLL",
"LLLLLi^^^^^LLLLLLLLLLLLLLLLLLLL#^^^^^IL-^^^^^^^;LLLLLLLLLLLLLLLLLLLLLLLLLLL",
"LLLLL$#^^^LLLLLLLLLLLLLLLLLLLLLL^^^^^^LL^^^^^^^-LLLLLLLLLLLLLLLLLLLLLLLLLLL",
"LLLLLL^^^$LLLLLLLLLLLLLLLLLLLLLLL^^^;^UL#^^^^^^$LLLLLLLLLLLLLLLLLLLLLLLLLLL",
"LLLLLLL9~LLLLLLLLLLLLLLLLLLLLLLLLL#ttYLLL^^^^^^^LLLLLLLLLLLLLLLLLLLLLLLLLLL",
"LLLLLLLLLLLLLLLLLLLLLLLLLLLLLLLLLLLLLLLLLL^^^^#^$LLLLLLLLLLLLLLLLLLLLLLLLLL",
"LLLLLLLLLLLLLLLLLLLLLLLLLLLLLLLLLLLLLLLLLLL^^^Q^5LLLLLLLLLLLLLLLLLLLLLLLLLL",
"LLLLLLLLLLLLLLLLLLLLLLLLLLLLLLLLLLLLLLLLLLLL%$$LLLLLLLLLLLLLLLLLLLLLLLLLLLL",
"LLLLLLLLLLLLLLLLLLLLLLLLLLLLLLLLLLLLLLLLLLLLLLLLLLLLLLLLLLLLLLLLLLLLLLLLLLL"
};
