/* XPM */
static char *result[] = {
/* columns rows colors chars-per-pixel */
"75 75 168 2 ",
"   c #000000",
".  c gray3",
"X  c #101010",
"o  c #191919",
"O  c #1E2A2B",
"+  c #2C2C2C",
"@  c #2D3939",
"#  c #353535",
"$  c #3C3C3C",
"%  c #3C3E40",
"&  c #3C4646",
"*  c #444444",
"=  c #4B4B4B",
"-  c #535353",
";  c #5C5C5C",
":  c #555F62",
">  c #5E6669",
",  c #5C6869",
"<  c #5C6265",
"1  c #646464",
"2  c #616668",
"3  c #656A6C",
"4  c #6C6C6C",
"5  c #656E71",
"6  c #6A6E70",
"7  c #667073",
"8  c #6B7375",
"9  c #6B7678",
"0  c #6E7A7D",
"q  c #737373",
"w  c #757C7E",
"e  c #7C7C7C",
"r  c #807E7E",
"t  c #947B7B",
"y  c #B47E7D",
"u  c #BD7C7B",
"i  c #82817E",
"p  c #88817E",
"a  c #A5807F",
"s  c #BB807E",
"d  c #CC807E",
"f  c #747F80",
"g  c #7F7F80",
"h  c #7A8586",
"j  c #7C8F90",
"k  c #838383",
"l  c #868887",
"z  c #838B8C",
"x  c #8C8C8C",
"c  c #888483",
"v  c #9B8383",
"b  c #918C8B",
"n  c #988989",
"m  c #938484",
"M  c #849292",
"N  c #8F9595",
"B  c #849798",
"V  c #8B9798",
"C  c #8C9A9A",
"Z  c #939393",
"A  c #989797",
"S  c #929D9D",
"D  c #9B9C9C",
"F  c #A98685",
"G  c #A48C8B",
"H  c #B38684",
"J  c #B48F8B",
"K  c #BC8382",
"L  c #B4928F",
"P  c #A99C98",
"I  c #A39794",
"U  c #BC9591",
"Y  c #BA9B97",
"T  c #B3A09C",
"R  c #BCA39E",
"E  c #999FA0",
"W  c #94A0A0",
"Q  c #9FA4A4",
"!  c #9DAAAA",
"~  c #A4A4A4",
"^  c #ABABAB",
"/  c #A3A9A9",
"(  c #B1A6A1",
")  c #B4ABA4",
"_  c #BEAAA3",
"`  c #B4B4B4",
"'  c #BBBBBB",
"]  c #C38784",
"[  c #D78582",
"{  c #D18887",
"}  c #D98A87",
"|  c #DC8E8A",
" . c #D0918C",
".. c #C69590",
"X. c #DD9D96",
"o. c #EA8684",
"O. c #E38987",
"+. c #E78D8B",
"@. c #E98C8A",
"#. c #F78381",
"$. c #F48886",
"%. c #F38E8B",
"&. c #FB8C8A",
"*. c #E6928F",
"=. c #EB918F",
"-. c #F6908E",
";. c #FF918E",
":. c #E79591",
">. c #EC9693",
",. c #E79B96",
"<. c #E99B96",
"1. c #ED9D99",
"2. c #FF9492",
"3. c #F09A95",
"4. c #FC9894",
"5. c #EBA29C",
"6. c #F6A09B",
"7. c #FEA39E",
"8. c #C2AEA7",
"9. c #C9AEA6",
"0. c #CDB4AB",
"q. c #C6B4AD",
"w. c #DBB4AC",
"e. c #D0B4AB",
"r. c #EDA7A1",
"t. c #EDAAA3",
"y. c #EFAFA8",
"u. c #F1A5A0",
"i. c #F2ABA5",
"p. c #FEAEA7",
"a. c #F6AFA8",
"s. c #F4B4AB",
"d. c #FEB3AB",
"f. c #F6BAAF",
"g. c #FFB8AF",
"h. c #ECBDB3",
"j. c #F7BEB4",
"k. c #FEBDB3",
"l. c #D5C7BD",
"z. c #DCC5BB",
"x. c #E0C0B6",
"c. c #E6C4B9",
"v. c #ECC8BD",
"b. c #FCC0B7",
"n. c #F4C5BA",
"m. c #FEC4B9",
"M. c #FDC8BD",
"N. c #C5C5C5",
"B. c #CCCCCC",
"V. c #D3D3D3",
"C. c #DBDBDB",
"Z. c #E8CBC0",
"A. c #F7CDC0",
"S. c #FDCDC1",
"D. c #ECD5C8",
"F. c #FFD2C6",
"G. c #FFD7C9",
"H. c #F5DDCF",
"J. c #FFDDCE",
"K. c #FFDFD0",
"L. c #FFE3D5",
"P. c #E3E3E3",
"I. c #EBEBEB",
"U. c #FFF0E0",
"Y. c #FFFBEA",
"T. c #F3F3F3",
"R. c #FFFFFF",
"E. c None",
/* pixels */
"E.E.E.E.E.E.E.E.E.E.E.E.E.E.E.E.E.E.E.E.E.E.E.E.E.E.E.E.E.E.E.E.E.E.E.E.E.E.E.E.E.E.E.E.E.E.E.E.E.E.E.E.E.E.E.E.E.E.E.E.E.E.E.E.E.E.E.E.E.E.E.E.E.E.E.",
"E.E.E.E.E.E.E.E.E.E.E.E.E.E.E.E.E.E.E.E.E.E.E.E.E.E.E.E.E.E.E.E.E.E.E.E.E.E.E.E.E.E.E.E.E.E.E.E.E.E.E.E.E.E.E.E.E.E.E.E.E.E.E.E.E.E.E.E.E.E.E.E.E.E.E.",
"E.E.E.E.E.E.E.E.E.E.E.E.E.E.E.E.E.E.E.E.E.E.E.E.E.E.E.E.E.E.E.E.E.E.E.E.E.E.E.E.E.E.E.E.E.E.E.E.E.E.E.E.E.E.E.E.E.E.E.E.E.E.E.E.E.E.E.E.E.E.E.E.E.E.E.",
"E.E.E.E.E.E.E.E.E.E.E.E.E.E.E.E.E.E.E.E.E.E.E.E.E.E.E.E.E.E.E.E.E.E.E.E.E.E.E.E.E.E.E.E.E.E.E.E.E.E.E.E.E.E.E.E.E.E.E.E.E.E.E.E.E.E.E.E.E.E.E.E.E.E.E.",
"E.E.E.E.E.E.E.E.E.E.E.E.E.E.E.E.E.E.E.E.E.E.E.E.E.E.E.E.E.E.E.E.E.E.E.E.E.E.E.< 6 E.E.E.E.E.E.E.E.E.E.E.E.E.E.E.E.E.E.E.E.E.E.E.E.E.E.E.E.E.E.E.E.E.E.",
"E.E.E.E.E.E.E.E.E.E.E.E.E.E.E.E.E.E.E.E.E.E.E.E.E.E.E.E.E.E.E.E.E.E.E.E.E.E.3 8.( E.E.E.E.E.E.E.E.E.E.E.E.E.E.E.E.E.E.E.E.E.E.E.E.E.E.E.E.E.E.E.E.E.E.",
"E.E.E.E.E.E.E.E.E.E.E.E.E.E.E.E.E.E.E.E.E.E.E.E.E.E.E.E.E.E.E.E.E.E.E.E.E., _ Y.l.6 E.E.E.E.E.E.E.E.E.E.E.E.E.E.E.E.E.E.E.E.E.E.E.E.E.E.E.E.E.E.E.E.E.",
"E.E.E.E.E.E.E.E.E.E.E.E.E.E.E.E.E.E.E.E.E.E.E.E.E.E.E.E.E.E.E.E.E.E.E.E., _ U.L.v.k E.E.E.E.E.E.E.E.E.E.E.E.E.E.E.E.E.E.E.E.E.E.E.E.E.E.E.E.E.E.E.E.E.",
"E.E.E.E.E.E.E.E.E.E.E.E.E.E.E.E.E.E.E.E.E.E.E.E.E.E.E.E.E.E.E.E.E.E.E.< I L.S.F.j.I 6 E.E.E.E.E.E.E.E.E.E.E.E.E.E.E.E.E.E.E.E.E.E.E.E.E.E.E.E.E.E.E.E.",
"E.E.E.E.E.E.E.E.E.E.E.E.E.E.E.E.E.E.E.E.E.E.E.E.E.E.E.E.E.E.E.E.E.E.E.k G.S.t.n.k.Y f E.E.E.E.E.E.E.E.E.E.E.E.E.E.E.E.E.E.E.E.E.E.E.E.E.E.E.E.E.E.E.E.",
"E.E.E.E.E.E.E.E.E.E.E.E.E.E.E.E.E.E.E.E.E.E.E.E.E.E.E.E.E.E.E.E.E.E.8 c.m.s.y.y.k...z E.E.E.E.E.E.E.E.E.E.E.E.E.E.E.E.E.E.E.E.E.E.E.E.E.E.E.E.E.E.E.E.",
"E.E.E.E.E.E.E.E.E.E.E.E.E.E.E.E.E.E.E.E.E.E.E.E.E.E.E.E.E.E.E.E.E.5 Y F.f.5.r.1.p. .N k E.E.E.E.E.E.E.E.E.E.E.E.E.E.E.E.E.E.E.E.E.E.E.E.E.E.E.E.E.E.E.",
"E.E.E.E.E.E.E.E.E.E.E.E.E.E.E.E.E.E.E.E.E.E.E.E.E.E.E.E.E.E.E.E.E.l n.a.i.5.,.:.3.| Z z E.E.E.E.E.E.E.E.E.E.E.E.E.E.E.E.E.E.E.E.E.E.E.E.E.E.E.E.E.E.E.",
"E.E.E.E.E.E.E.E.E.E.E.E.E.E.E.E.E.E.E.E.E.E.E.E.E.E.E.E.E.E.E.E.8 _ m.t.1.1.*.:.@.+.n V l E.E.E.E.E.E.E.E.E.E.E.E.E.E.E.E.E.E.E.E.E.E.E.E.E.E.E.E.E.E.",
"E.E.E.E.E.E.E.E.E.E.E.E.E.E.E.E.E.E.E.E.E.E.E.E.E.E.E.E.E.E.E.E.l h.i.t.,.:.+.O.@.o.v W l E.E.E.E.E.E.E.E.E.E.E.E.E.E.E.E.E.E.E.E.E.E.E.E.E.E.E.E.E.E.",
"E.E.E.E.E.E.E.E.E.E.E.E.E.E.E.E.E.E.E.E.E.E.E.E.E.E.E.E.E.E.E.8 Y k.y.1.1.+.+.O.@.$.v E Z E.E.E.E.E.E.E.E.E.E.E.E.E.E.E.E.E.E.E.E.E.E.E.E.E.E.E.E.E.E.",
"E.E.E.E.E.E.E.E.E.E.E.E.E.E.E.E.E.E.E.E.E.E.E.E.E.E.E.E.E.E.E.9 x.k.5.5.>.%.2.%.&.&.F C D k E.E.E.E.E.E.E.E.E.E.E.E.E.E.E.E.E.E.E.E.E.E.E.E.E.E.E.E.E.",
"E.E.E.E.E.E.E.E.E.E.E.E.E.E.E.E.E.E.E.E.E.E.E.E.E.E.E.E.E.E.E.p b.b.p.3.} { u y K ] t z D Z E.E.E.E.E.E.E.E.E.E.E.E.E.E.E.E.E.E.E.E.E.E.E.E.E.E.E.E.E.",
"E.E.E.E.E.E.E.E.E.E.E.E.E.E.E.E.E.E.E.E.E.E.E.E.E.E.E.E.E.E.E.) J.X.U v Z ; @ h N M D Z k q q E.E.E.E.E.E.E.E.E.E.E.E.E.E.E.E.E.E.E.E.E.E.E.E.E.E.E.E.",
"E.E.E.E.E.E.E.E.E.E.E.E.E.E.E.E.E.E.E.E.E.E.E.E.E.E.E.E.E.E.q e._ k j C / - % D ^ / r 1 - * $ - e E.E.E.E.E.E.E.E.E.E.E.E.E.E.E.E.E.E.E.E.E.E.E.E.E.E.",
"E.E.E.E.E.E.E.E.E.E.E.E.E.E.E.E.E.E.E.E.E.E.E.E.E.E.E.E.E.E.k l z D Z Z ~ q ; ^ l = # $ * $ * k ^ 1 E.E.E.E.E.E.E.E.E.E.E.E.E.E.E.E.E.E.E.E.E.E.E.E.E.",
"E.E.E.E.E.E.E.E.E.E.E.E.E.E.E.E.E.E.E.E.E.E.E.E.E.E.E.E.E.b / ~ k k N Z x k x q * ; b 4 + - Z A k $ k k E.E.E.E.E.E.E.E.E.E.E.E.E.E.E.E.E.E.E.E.E.E.E.",
"E.E.E.E.E.E.E.E.E.E.E.E.E.E.E.E.E.E.E.E.E.E.E.E.E.E.E.E.: q 1 1 ` P.R.R.R.C.b ; Z ^ / 1 - / ` ' N.Z D Z ; q x k k l k l l l l k g k k E.E.E.E.E.E.E.E.",
"E.E.E.E.E.E.E.E.E.E.E.E.E.E.E.E.E.E.E.E.E.E.E.E.E.E.E.= = - # N.R.R.R.V.I.R.R.^ g k ^ V.T.R.R.R.R.V.Z x # 4 D ~ E P E D E P ~ E V M l b b E.E.E.E.E.E.",
"E.E.E.E.E.E.E.E.E.E.E.E.E.E.E.E.E.E.E.E.E.E.E.E.E.E.q l A x N.R.R.N.o     = R.R.D B.R.R.R.R.R.R.R.I.D g # 1 x x D A A E S M z b G U w.J.( 2 E.E.E.E.E.",
"E.E.E.E.E.E.E.E.E.E.E.E.E.E.E.E.E.E.E.E.E.E.E.E.E.E.Z ^ A b T.R.P.          = R.V.P.R.R.R.R.R.R.R.R.` 1 $ * x x V B M x m a ] ,.p.k.G.H.x E.E.E.E.E.E.",
"E.E.E.E.E.E.E.E.E.E.E.E.E.E.E.E.E.E.E.E.E.E.E.E.E.q Z ~ k ^ R.R.k             P.T.V.R.R.R.R.R.R.R.R.` $ # $ k D t H y d o.4.u.i.y.j.L.q.5 E.E.E.E.E.E.",
"E.E.E.E.E.E.E.E.E.E.E.E.E.E.E.E.E.E.E.E.E.E.E.E.E.Z w b l ` R.R.4             B.R.V.R.R.R.R.R.R.R.R.Z # q * q ! v #.&.%.@.:.<.6.t.k.A.x E.E.E.E.E.E.E.",
"E.E.E.E.E.E.E.E.E.E.E.E.E.E.E.E.E.E.E.E.E.E.E.E.E.q ; ; Z ' R.R.^           X R.P.V.R.R.R.R.R.R.R.R.~ e ` - 4 ^ j y &.+.=.1.u.i.s.G.8.8 E.E.E.E.E.E.E.",
"E.E.E.E.E.E.E.E.E.E.E.E.E.E.E.E.E.E.E.E.E.E.E.E.E.q 1 # - / R.R.R.*         Z R.B.P.R.R.R.R.R.R.R.R.' Z ~ ; 4 ~ C G $.@.:.:.5.5.k.n.l E.E.E.E.E.E.E.E.",
"E.E.E.E.E.E.E.E.E.E.E.E.E.E.E.E.E.E.E.E.E.E.E.E.E.N.D q * $ B.R.R.R.A * - N.R.T.N.R.R.R.R.R.R.R.R.R.D q ~ 1 q ~ ~ g [ 3.,.<.r.s.F.T 7 E.E.E.E.E.E.E.E.",
"E.E.E.E.E.E.E.E.E.E.E.E.E.E.E.E.E.E.E.E.E.E.E.E.e C.T.B.^ Z ^ C.R.R.R.R.R.R.R.N.V.R.R.R.R.R.R.T.V.P.V.` Z 1 l / x & K 7.1.r.5.k.w.w E.E.E.E.E.E.E.E.E.",
"E.E.E.E.E.E.E.E.E.E.E.E.E.E.E.E.E.E.E.E.E.E.E.E.E.C.C.R.R.R.R.N.N.I.R.R.R.R.B.N.R.R.R.R.R.R.V.V.R.C.C.R.R.N.x q # O H d.6.s.M.n.x 8 E.E.E.E.E.E.E.E.E.",
"E.E.E.E.E.E.E.E.E.E.E.E.E.E.E.E.E.E.E.E.E.E.E.E.E.V.T.B.P.R.R.R.C.B.B.V.V.N.V.R.R.R.R.R.R.B.N.R.e     . ' R.V.q 3 < L g.y.y.M.P 8 E.E.E.E.E.E.E.E.E.E.",
"E.E.E.E.E.E.E.E.E.E.E.E.E.E.E.E.E.E.E.E.E.E.E.E.E.^ T.V.B.V.T.R.R.R.T.I.P.T.R.R.R.R.R.R.C.N.R.4           N.R.` Z S L d.j.F.R 0 E.E.E.E.E.E.E.E.E.E.E.",
"E.E.E.E.E.E.E.E.E.E.E.E.E.E.E.E.E.E.E.E.E.E.E.E.E.' R.P.V.N.B.I.R.R.R.R.R.R.R.^ = P.R.R.' R.T..           1 R.C.k z Y m.S.0.h E.E.E.E.E.E.E.E.E.E.E.E.",
"E.E.E.E.E.E.E.E.E.E.E.E.E.E.E.E.E.E.E.E.E.E.E.E.E.E.' I.V.I.B.^ P.R.R.R.R.R.R.P.; ' R.C.B.R.C.            = R.T.A h 9.Y.z.w E.E.E.E.E.E.E.E.E.E.E.E.E.",
"E.E.E.E.E.E.E.E.E.E.E.E.E.E.E.E.E.E.E.E.E.E.E.E.E.E.` R.B.V.B.P.T.R.R.N.N.R.P.R.R.R.R.C.N.R.R.+           x R.R.Z k D.Z.3 E.E.E.E.E.E.E.E.E.E.E.E.E.E.",
"E.E.E.E.E.E.E.E.E.E.E.E.E.E.E.E.E.E.E.E.E.E.E.E.E.E.E.T.R.C.B.T.R.R.R.T./ A e R.R.R.R.R.N.R.R.`         # R.R.P.& r e.E.E.E.E.E.E.E.E.E.E.E.E.E.E.E.E.",
"E.E.E.E.E.E.E.E.E.E.E.E.E.E.E.E.E.E.E.E.E.E.E.E.E.E.E.D R.R.R.R.R.R.R.R.T.I.` P.R.R.R.R.N.V.R.R.C.; $ x R.R.R.N.$ ; 6 E.E.E.E.E.E.E.E.E.E.E.E.E.E.E.E.",
"E.E.E.E.E.E.E.E.E.E.E.E.E.E.E.E.E.E.E.E.E.E.E.E.E.E.E.E.q.R.R.R.R.R.R.R.R.R.P.' T.R.R.R.T.' T.R.R.R.R.R.R.R.P.x Z 4 E.E.E.E.E.E.E.E.E.E.E.E.E.E.E.E.E.",
"E.E.E.E.E.E.E.E.E.E.E.E.E.E.E.E.E.E.E.E.E.E.E.E.E.E.E.E.E.C.R.R.R.R.R.R.R.R.R.R.R.R.R.R.R.P.` T.R.R.R.R.R.C.k Z b E.E.E.E.E.E.E.E.E.E.E.E.E.E.E.E.E.E.",
"E.E.E.E.E.E.E.E.E.E.E.E.E.E.E.E.E.E.E.E.E.E.E.E.E.E.E.E.E.w P.R.R.R.R.R.R.R.R.R.R.R.R.R.R.R.T.l ^ T.P.B.^ e x ~ E.E.E.E.E.E.E.E.E.E.E.E.E.E.E.E.E.E.E.",
"E.E.E.E.E.E.E.E.E.E.E.E.E.E.E.E.E.E.E.E.E.E.E.E.E.E.E.E.4 $ k I.R.R.R.R.R.R.R.R.R.R.P.P.R.R.R.~ . 1 l x x ~ ^ l E.E.E.E.E.E.E.E.E.E.E.E.E.E.E.E.E.E.E.",
"E.E.E.E.E.E.E.E.E.E.E.E.E.E.E.E.E.E.E.E.E.E.E.E.E.E.E.E.l x V.B.P.R.R.R.R.R.R.R.R.I.B.N.C.R.R.T.1 + = 4 ; ; x E.E.E.E.E.E.E.E.E.E.E.; = E.E.E.E.E.E.E.",
"E.E.E.E.E.E.E.E.E.E.E.E.E.E.E.E.E.E.E.E.E.E.E.E.E.E.E.E.= - R.R.B.P.R.R.R.R.R.R.R.N.B.I.V.B.R.R.' 4 $ # k ; - E.E.E.E.E.E.E.E.E.E.E.= * ; E.E.E.E.E.E.",
"E.E.E.E.E.E.E.E.E.E.E.E.E.E.E.E.E.E.E.E.E.E.E.E.E.E.E.E.q - P.R.R.C.` R.R.R.R.R.R.C.N.V.I.C.' R.I.Z Z q r k E.E.E.E.E.E.E.E.E.E.E.- * * E.E.E.E.E.E.E.",
"E.E.E.E.E.E.E.E.E.E.E.E.E.E.E.E.E.E.E.E.E.E.E.E.E.E.E.E.l ^ V.R.R.R.R.C.B.I.R.R.R.R.V.C.V.I.I.N.R.T./ x E.E.E.E.E.E.E.E.E.E.E.E.; * = = E.E.E.E.E.E.E.",
"E.E.E.E.E.E.E.E.E.E.E.E.E.E.E.E.E.E.E.E.E.E.E.E.E.E.E.E.4 ; q R.R.R.R.R.R.P.C.B.C.T.R.V.T.C.T.I.' V.l E.E.E.E.E.E.E.E.E.E.E.E.E.- $ $ ; E.E.E.E.E.E.E.",
"E.E.E.E.E.E.E.E.E.E.E.E.E.E.E.E.E.E.E.E.E.E.E.E.E.E.E.E.E.* ; T.R.R.R.R.R.R.R.R.T.C.V.N.^ N.^ B.I.B.A E.E.E.E.E.E.E.E.E.E.E.E.x / q * E.E.E.E.E.E.E.E.",
"E.E.E.E.E.E.E.E.E.E.E.E.E.E.E.E.E.E.E.E.E.E.E.E.E.E.E.E.e Z ^ R.R.R.R.R.R.R.R.R.R.R.R.R.T.P.R.I.R.T./ 4 E.E.E.E.E.E.E.E.E.E.- Z ^ ` x E.E.E.E.E.E.E.E.",
"E.E.E.E.E.E.E.E.E.E.E.E.E.E.E.E.E.E.E.E.E.E.E.E.E.E.E.E.; ; B.R.R.R.R.R.R.R.R.R.R.R.R.R.R.V.I.R.B.T.I.k E.E.E.E.E.E.E.E.E.- # ; k e E.E.E.E.E.E.E.E.E.",
"E.E.E.E.E.E.E.E.E.E.E.E.E.E.E.E.E.E.E.E.E.E.E.E.E.E.E.E.1 4 R.R.R.R.R.R.R.R.R.R.R.R.R.R.R.T.B.R.I.P.T.= 4 E.E.E.E.E.E.q A = * * # = E.E.E.E.E.E.E.E.E.",
"E.E.E.E.E.E.E.E.E.E.E.E.E.E.E.E.E.E.E.E.E.E.E.E.E.E.E.E.q B.R.R.R.R.R.R.R.R.R.R.R.R.R.R.R.R.P.T.R.R.P.; q E.E.E.E.1 - D ^ 1 $ % ; E.E.E.E.E.E.E.E.E.E.",
"E.E.E.E.E.E.E.E.E.E.E.E.E.E.E.E.E.E.E.E.E.E.E.E.E.E.E.E.4 T.R.R.R.R.R.R.R.R.R.R.R.R.R.R.R.R.R.R.R.R.P.b # * e b b * $ k / ^ ; - E.E.E.E.E.E.E.E.E.E.E.",
"E.E.E.E.E.E.E.E.E.E.E.E.E.E.E.E.E.E.E.E.E.E.E.E.E.E.E.- # T.R.R.R.R.R.R.R.R.R.R.R.R.R.R.R.R.R.R.R.R.P.N.1 q - / l # = $ ; D q E.E.E.E.E.E.E.E.E.E.E.E.",
"E.E.E.E.E.E.E.E.E.E.E.E.E.E.E.E.E.E.E.E.E.E.E.E.E.E.x Z ; B.R.R.R.R.R.R.R.R.R.R.R.R.R.R.R.R.R.R.R.R.B.R.' 4 ; 4 ^ = $ * - E.E.E.E.E.E.E.E.E.E.E.E.E.E.",
"E.E.E.E.E.E.E.E.E.E.E.E.E.E.E.E.E.E.E.E.E.E.E.E.E.E.4 e - B.R.R.R.R.R.R.R.R.T.R.R.B.T.R.R.R.R.R.R.R.N.R.N.* 4 # A k - E.E.E.E.E.E.E.E.E.E.E.E.E.E.E.E.",
"E.E.E.E.E.E.E.E.E.E.E.E.E.E.E.E.E.E.E.E.E.E.E.E.E.E.= # ^ C.R.R.R.R.R.R.R.R.B.R.R.V.V.R.R.R.R.R.R.R.N.R.V.l 4 ; E.E.E.E.E.E.E.E.E.E.E.E.E.E.E.E.E.E.E.",
"E.E.E.E.E.E.E.E.E.E.E.E.E.E.E.E.E.E.E.E.E.E.E.E.E.q q l R.N.R.R.R.R.R.R.R.P.B.R.R.P.V.R.R.R.R.R.R.R.B.R.Z * 1 E.E.E.E.E.E.E.E.E.E.E.E.E.E.E.E.E.E.E.E.",
"E.E.E.E.E.E.E.E.E.E.E.E.E.E.E.E.E.E.E.E.E.E.E.E.E.- # l R.B.I.R.R.R.R.R.R.C.V.R.R.P.V.R.R.R.R.R.R.I.V.R.- = 4 E.E.E.E.E.E.E.E.E.E.E.E.E.E.E.E.E.E.E.E.",
"E.E.E.E.E.E.E.E.E.E.E.E.E.E.E.E.E.E.E.E.E.E.E.E.E.e e - P.P.P.R.R.R.R.R.R.B.V.R.R.P.B.R.R.R.R.R.R.P.C.R.x 4 ; E.E.E.E.E.E.E.E.E.E.E.E.E.E.E.E.E.E.E.E.",
"E.E.E.E.E.E.E.E.E.E.E.E.E.E.E.E.E.E.E.E.E.E.E.E.E.; q x ` P.V.R.R.R.R.R.R.B.P.R.R.P.V.R.R.R.R.R.R.C.I.C.* * 4 E.E.E.E.E.E.E.E.E.E.E.E.E.E.E.E.E.E.E.E.",
"E.E.E.E.E.E.E.E.E.E.E.E.E.E.E.E.E.E.E.E.E.E.E.E.E.1 - $ 1 I.V.R.R.R.R.R.R.B.P.R.R.P.V.R.R.R.R.R.R.B.T.P.= ; E.E.E.E.E.E.E.E.E.E.E.E.E.E.E.E.E.E.E.E.E.",
"E.E.E.E.E.E.E.E.E.E.E.E.E.E.E.E.E.E.E.E.E.E.E.E.E.E.x ; e T.B.R.R.R.R.R.R.B.I.R.R.P.V.R.R.R.R.R.R.B.T.R.1 - E.E.E.E.E.E.E.E.E.E.E.E.E.E.E.E.E.E.E.E.E.",
"E.E.E.E.E.E.E.E.E.E.E.E.E.E.E.E.E.E.E.E.E.E.E.E.E.E.4 4 l R.B.T.R.R.R.R.R.B.P.R.R.C.C.R.R.R.R.R.R.` B.I.; E.E.E.E.E.E.E.E.E.E.E.E.E.E.E.E.E.E.E.E.E.E.",
"E.E.E.E.E.E.E.E.E.E.E.E.E.E.E.E.E.E.E.E.E.E.E.E.E.E.e + 1 I.` P.R.R.R.R.R.B.I.R.R.C.C.R.R.R.R.R.I.' I.P.' E.E.E.E.E.E.E.E.E.E.E.E.E.E.E.E.E.E.E.E.E.E.",
"E.E.E.E.E.E.E.E.E.E.E.E.E.E.E.E.E.E.E.E.E.E.E.E.E.E.E.4 P.R.V.V.R.R.R.R.R.B.P.R.R.C.C.R.R.R.R.R.C.V.R.R.R.x E.E.E.E.E.E.E.E.E.E.E.E.E.E.E.E.E.E.E.E.E.",
"E.E.E.E.E.E.E.E.E.E.E.E.E.E.E.E.E.E.E.E.E.E.E.E.E.E.E.R.R.R.P.B.R.R.R.R.R.B.P.R.R.C.C.R.R.R.R.R.B.I.I.T.R./ E.E.E.E.E.E.E.E.E.E.E.E.E.E.E.E.E.E.E.E.E.",
"E.E.E.E.E.E.E.E.E.E.E.E.E.E.E.E.E.E.E.E.E.E.E.E.E.E.E.P.R.C.P.B.R.R.R.R.R.B.P.R.R.V.C.R.R.R.R.R.N.T.C.P.T.e E.E.E.E.E.E.E.E.E.E.E.E.E.E.E.E.E.E.E.E.E.",
"E.E.E.E.E.E.E.E.E.E.E.E.E.E.E.E.E.E.E.E.E.E.E.E.E.E.E.^ R.V.P.N.R.R.R.R.R.C.A E.E.A I.R.R.R.R.R.I.V.N.B.E.E.E.E.E.E.E.E.E.E.E.E.E.E.E.E.E.E.E.E.E.E.E.",
"E.E.E.E.E.E.E.E.E.E.E.E.E.E.E.E.E.E.E.E.E.E.E.E.E.E.E.E.^ ^ ` I.R.R.R.R.R.C.E.E.E.E.C.R.R.R.T.R.R.C.E.E.E.E.E.E.E.E.E.E.E.E.E.E.E.E.E.E.E.E.E.E.E.E.E.",
"E.E.E.E.E.E.E.E.E.E.E.E.E.E.E.E.E.E.E.E.E.E.E.E.E.E.E.E.E.E.' R.R.R.R.R.R.V.E.E.E.E.^ I.R.R.B.R.T.^ E.E.E.E.E.E.E.E.E.E.E.E.E.E.E.E.E.E.E.E.E.E.E.E.E.",
"E.E.E.E.E.E.E.E.E.E.E.E.E.E.E.E.E.E.E.E.E.E.E.E.E.E.E.E.E.E.Z I.R.C.R.T.V.x E.E.E.E.E.Z I.R.B.I.' E.E.E.E.E.E.E.E.E.E.E.E.E.E.E.E.E.E.E.E.E.E.E.E.E.E.",
"E.E.E.E.E.E.E.E.E.E.E.E.E.E.E.E.E.E.E.E.E.E.E.E.E.E.E.E.E.E.E.Z N.^ V.' E.E.E.E.E.E.E.E.E.E.E.E.E.E.E.E.E.E.E.E.E.E.E.E.E.E.E.E.E.E.E.E.E.E.E.E.E.E.E."
};
