/* XPM */
static char *result[] = {
/* columns rows colors chars-per-pixel */
"75 75 155 2 ",
"   c #000000",
".  c gray4",
"X  c #191919",
"o  c #0D1F21",
"O  c gray14",
"+  c #2C2C2C",
"@  c #353535",
"#  c #3C3C3C",
"$  c #3A4F50",
"%  c #434343",
"&  c #4B4B4B",
"*  c #544E4E",
"=  c #535353",
"-  c #5C5C5C",
";  c #536061",
":  c #646464",
">  c #62676A",
",  c #656B6E",
"<  c #6C6C6C",
"1  c #656E70",
"2  c #686F70",
"3  c #637576",
"4  c #6A7274",
"5  c #6C7879",
"6  c #747474",
"7  c #757C7E",
"8  c #7C7C7C",
"9  c #8A716F",
"0  c #857D7D",
"q  c #8F7A79",
"w  c #957675",
"e  c #937C7C",
"r  c #9F7F7F",
"t  c #AD7D7C",
"y  c #B77B7A",
"u  c #BB7C7A",
"i  c #C47E7C",
"p  c #DC7D7B",
"a  c #80807F",
"s  c #768485",
"d  c #7E8081",
"f  c #7D8D8D",
"g  c #7E9394",
"h  c #838483",
"j  c #808689",
"k  c #838C8D",
"l  c #8C8C8C",
"z  c #938583",
"x  c #9F8382",
"c  c #948D8A",
"v  c #839595",
"b  c #8C9494",
"n  c #889698",
"m  c #8C9B9C",
"M  c #949393",
"N  c #9B9693",
"B  c #979C9C",
"V  c #9B9B9B",
"C  c #BC8D89",
"Z  c #A39A95",
"A  c #A09F9F",
"S  c #ACA09C",
"D  c #B1A39E",
"F  c #97A3A4",
"G  c #9AA1A2",
"H  c #A3A3A3",
"J  c #ADA5A1",
"K  c #A5A8A8",
"L  c #ABABAB",
"P  c #B1A4A0",
"I  c #BDA6A1",
"U  c #B5A9A3",
"Y  c #BBAEA9",
"T  c #B4B4B4",
"R  c #BBBBBB",
"E  c #C08A87",
"W  c #DD8785",
"Q  c #DC8A87",
"!  c #D48C8A",
"~  c #DE8C8A",
"^  c #C4958F",
"/  c #CF9F9A",
"(  c #D59C96",
")  c #E28684",
"_  c #EF8583",
"`  c #E38987",
"'  c #EE8986",
"]  c #E58C8A",
"[  c #EA8E8C",
"{  c #F38785",
"}  c #F18886",
"|  c #F28C8A",
" . c #FB8D8B",
".. c #E2918D",
"X. c #EA918F",
"o. c #F3918E",
"O. c #FA918E",
"+. c #E49793",
"@. c #EC9693",
"#. c #E59994",
"$. c #EB9B97",
"%. c #E79E99",
"&. c #EC9E99",
"*. c #FF9492",
"=. c #F49B96",
"-. c #FD9F9A",
";. c #DAA89F",
":. c #E7A39D",
">. c #EBA39E",
",. c #FDA09C",
"<. c #C4A9A3",
"1. c #CCACA5",
"2. c #DFADA4",
"3. c #D2AEA8",
"4. c #C6B1AB",
"5. c #CEB2AB",
"6. c #D3B5AC",
"7. c #C9B9B2",
"8. c #DDBFB4",
"9. c #EBA7A0",
"0. c #ECAAA3",
"q. c #FAA5A0",
"w. c #F3ABA4",
"e. c #FFABA4",
"r. c #FCAFA8",
"t. c #F3B2AA",
"y. c #FFB3AC",
"u. c #E1BEB4",
"i. c #EEBDB3",
"p. c #F3BCB2",
"a. c #FDBBB2",
"s. c #D9C2B8",
"d. c #E1C5BB",
"f. c #E7C8BD",
"g. c #FCC1B7",
"h. c #FFC4BA",
"j. c #FFCABF",
"k. c #C4C4C4",
"l. c #CCCCCC",
"z. c #D4D4D4",
"x. c #DBDBDB",
"c. c #FFCEC2",
"v. c #EBD0C4",
"b. c #FED3C6",
"n. c #F7D4C8",
"m. c #FFDACD",
"M. c #FFE3D5",
"N. c #FFECDD",
"B. c #E4E4E4",
"V. c #ECECEC",
"C. c #FFF1E1",
"Z. c #FFFDEB",
"A. c #F3F3F3",
"S. c #FFFFFF",
"D. c None",
/* pixels */
"D.D.D.D.D.D.D.D.D.D.D.D.D.D.D.D.D.D.D.D.D.D.D.D.D.D.D.D.D.D.D.D.D.D.D.D.D.D.D.D.D.D.D.D.D.D.D.D.D.D.D.D.D.D.D.D.D.D.D.D.D.D.D.D.D.D.D.D.D.D.D.D.D.D.D.",
"D.D.D.D.D.D.D.D.D.D.D.D.D.D.D.D.D.D.D.D.D.D.D.D.D.D.D.D.D.D.D.D.D.D.D.D.D.D.D.D.D.D.D.D.D.D.D.D.D.D.D.D.D.D.D.D.D.D.D.D.D.D.D.D.D.D.D.D.D.D.D.D.D.D.D.",
"D.D.D.D.D.D.D.D.D.D.D.D.D.D.D.D.D.D.D.D.D.D.D.D.D.D.D.D.D.D.D.D.D.D.D.D.D.D.D.D.D.D.D.D.D.D.D.D.D.D.D.D.D.D.D.D.D.D.D.D.D.D.D.D.D.D.D.D.D.D.D.D.D.D.D.",
"D.D.D.D.D.D.D.D.D.D.D.D.D.D.D.D.D.D.D.D.D.D.D.D.D.D.D.D.D.D.D.D.D.D.D.D.D.D.D.D.D.D.D.D.D.D.D.D.D.D.D.D.D.D.D.D.D.D.D.D.D.D.D.D.D.D.D.D.D.D.D.D.D.D.D.",
"D.D.D.D.D.D.D.D.D.D.D.D.D.D.D.D.D.D.D.D.D.D.D.D.D.D.D.D.D.D.D.D.D.D.D.D.D.D.D.D.D.D.D.D.D.D.D.D.D.D.D.D.D.D.D.D.D.D.D.D.D.D.D.D.D.D.D.D.D.D.D.D.D.D.D.",
"D.D.D.D.D.D.D.D.D.D.D.D.D.D.D.D.D.D.D.D.D.D.D.D.D.D.D.D.D.D.D.D.D.D.D.D.D.D.D.D.D.D.D.D.D.D.D.D.D.D.D.D.D.D.D.D.D.D.D.D.D.D.D.D.D.D.D.D.D.D.D.D.D.D.D.",
"D.D.D.D.D.D.D.D.D.D.D.D.D.D.D.D.D.D.D.D.D.D.D.D.D.5 D.D.D.D.D.D.D.D.D.D.D.D.D.D.D.D.D.D.D.D.D.D.D.D.D.D.D.D.D.D.D.D.D.D.D.D.D.D.D.D.D.D.D.D.D.D.D.D.D.",
"D.D.D.D.D.D.D.D.D.D.D.D.D.D.D.D.D.D.D.D.D.D.D.D.c d.h 2 D.D.D.D.D.D.D.D.D.D.D.D.D.D.D.D.D.D.D.D.D.D.D.D.D.D.D.D.D.D.D.D.D.D.D.D.D.D.D.D.D.D.D.D.D.D.D.",
"D.D.D.D.D.D.D.D.D.D.D.D.D.D.D.D.D.D.D.D.D.D.D., U Z.f.d 4 D.D.D.D.D.D.D.D.D.D.D.D.D.D.D.D.D.D.D.D.D.D.D.D.D.D.D.D.D.D.D.D.D.D.D.D.D.D.D.D.D.D.D.D.D.D.",
"D.D.D.D.D.D.D.D.D.D.D.D.D.D.D.D.D.D.D.D.D.D.D.< s.N.m.2.l 7 D.D.D.D.D.D.D.D.D.D.D.D.D.D.D.D.D.D.D.D.D.D.D.D.D.D.d 8 h h D.D.D.D.D.D.D.D.D.D.D.D.D.D.D.",
"D.D.D.D.D.D.D.D.D.D.D.D.D.D.D.D.D.D.D.D.D.D.D.8 n.c.c.a.( v h D.D.D.D.D.D.D.D.D.D.D.D.D.D.D.D.D.D.D.D.D.D.D.8 M k N b.J D.D.D.D.D.D.D.D.D.D.D.D.D.D.D.",
"D.D.D.D.D.D.D.D.D.D.D.D.D.D.D.D.D.D.D.D.D.D.D.N M.t.0.g.e.C v l D.D.D.D.D.D.D.D.D.D.D.D.D.D.D.D.D.D.D.D.8 l H n c p.C.Y > D.D.D.D.D.D.D.D.D.D.D.D.D.D.",
"D.D.D.D.D.D.D.D.D.D.D.D.D.D.D.D.D.D.D.D.D.D.D.D b.p.9.>.r.=.x m M D.D.D.D.D.D.D.D.D.D.D.D.D.D.D.D.D.8 M V H v z w.g.m.4., D.D.D.D.D.D.D.D.D.D.D.D.D.D.",
"D.D.D.D.D.D.D.D.D.D.D.D.D.D.D.D.D.D.D.D.D.D.4 <.c.:.w.%.$.-.W h G M d D.D.D.D.D.D.D.D.D.D.D.D.D.D.l V V V v e &.a.p.b.5.4 D.D.D.D.D.D.D.D.D.D.D.D.D.D.",
"D.D.D.D.D.D.D.D.D.D.D.D.D.D.D.D.D.D.D.D.D.D.2 1.b.t.#.$...[ O.u f H M h D.D.D.D.D.D.D.D.D.D.D.8 V H V V v q o.r.>.9.b.5.4 D.D.D.D.D.D.D.D.D.D.D.D.D.D.",
"D.D.D.D.D.D.D.D.D.D.D.D.D.D.D.D.D.D.D.D.D.D.4 6.a.>.w...] ` | { r m V V h D.D.6 < - 6 D.D.h M K V M V v e ' ,.+.>.p.j.5.4 D.D.D.D.D.D.D.D.D.D.D.D.D.D.",
"D.D.D.D.D.D.D.D.D.D.D.D.D.D.D.D.D.D.D.D.D.D.4 3.h.>.#.@.] ` ] *.p 7 M l - % % K h # H M # : H l M G g e { O.~ &.w.:.g.5.4 D.D.D.D.D.D.D.D.D.D.D.D.D.D.",
"D.D.D.D.D.D.D.D.D.D.D.D.D.D.D.D.D.D.D.D.D.D.5 1.y.w.&.] ] o. .i x c B - # @ < H h 8 l K - # < l l d y  .o.W @.$.+.t.c.<.4 D.D.D.D.D.D.D.D.D.D.D.D.D.D.",
"D.D.D.D.D.D.D.D.D.D.D.D.D.D.D.D.D.D.D.D.D.D.5 1.a.>.$.@.O.) w f m K : + % & h l z.S.R l l # @ < K j t { | [ [ +.w.9.a.I 4 D.D.D.D.D.D.D.D.D.D.D.D.D.D.",
"D.D.D.D.D.D.D.D.D.D.D.D.D.D.D.D.D.D.D.D.D.D.4 D a.9.>.-.! & $ H L 8 + < % & H B.S.S.S.T 8 = # + a L v 0 ) *...&.$.9.j.D 1 D.D.D.D.D.D.D.D.D.D.D.D.D.D.",
"D.D.D.D.D.D.D.D.D.D.D.D.D.D.D.D.D.D.D.D.D.D., P j.w.e.C b ; + l H % : T < l S.S.S.S.S.S.V # - : % V A m 6 ~ -.( t.a.g.N D.D.D.D.D.D.D.D.D.D.D.D.D.D.D.",
"D.D.D.D.D.D.D.D.D.D.D.D.D.D.D.D.D.D.D.D.D.D.D.c g.a.^ s G V - h 6 - L l L S.S.S.S.S.S.S.V.% h T % < K K 3 * ,.y.>.w.i.l D.D.D.D.D.D.D.D.D.D.D.D.D.D.D.",
"D.D.D.D.D.D.D.D.D.D.D.D.D.D.D.D.D.D.D.D.D.D.D.< b.2.7 B V l h h : 6 c M V.S.S.S.S.S.S.S.S.T 0 K l & V K < o 9 y.t.c.u.8 D.D.D.D.D.D.D.D.D.D.D.D.D.D.D.",
"D.D.D.D.D.D.D.D.D.D.D.D.D.D.D.D.D.D.D.D.D.D.D., 6.V B M 8 V l.V.A.l.8 T S.S.S.S.S.S.S.S.S.A.M l l : 6 0 % - 5 ;.a.h.4.4 D.D.D.D.D.D.D.D.D.D.D.D.D.D.D.",
"D.D.D.D.D.D.D.D.D.D.D.D.D.D.D.D.D.D.D.D.D.D.D.8 h M M h l.S.S.S.S.S.A.l.B.S.S.S.S.S.S.S.S.S.K 8 l.V.l.K 6 M F z a.m.J D.D.D.D.D.D.D.D.D.D.D.D.D.D.D.D.",
"D.D.D.D.D.D.D.D.D.D.D.D.D.D.D.D.D.D.D.D.D.D.D.D.b L h l.S.S.< .   = A.S.R A.S.S.S.S.S.S.S.B.z.S.S.A.S.S.V.l l k s.M.a D.D.D.D.D.D.D.D.D.D.D.D.D.D.D.D.",
"D.D.D.D.D.D.D.D.D.D.D.D.D.D.D.D.D.D.D.D.D.D.D.D.K - M S.S.=         + S.x.z.S.S.S.S.S.S.V.l.S.:     @ x.S.A.k h 7.v.D.D.D.D.D.D.D.D.D.D.D.D.D.D.D.D.D.",
"D.D.D.D.D.D.D.D.D.D.D.D.D.D.D.D.D.D.D.D.D.D.D.0 & O z.S.l.            K S.k.S.S.S.S.S.S.k.A.&         X A.S.l.: S Z D.D.D.D.D.D.D.D.D.D.D.D.D.D.D.D.D.",
"D.D.D.D.D.D.D.D.D.D.D.D.D.D.D.D.D.D.D.D.D.D.D.@ = l A.S.T             h S.l.A.S.S.S.S.B.x.z.            V S.S.- # < D.D.D.D.D.D.D.D.D.D.D.D.D.D.D.D.D.",
"D.D.D.D.D.D.D.D.D.D.D.D.D.D.D.D.D.D.D.D.D.D.D.: H V V.S.z.            K S.l.B.S.S.S.S.l.S.R             h S.S.H - D.D.D.D.D.D.D.D.D.D.D.D.D.D.D.D.D.D.",
"D.D.D.D.D.D.D.D.D.D.D.D.D.D.D.D.D.D.D.D.D.D.6 H V 8 z.S.S.:         % S.S.l.V.S.S.S.S.l.S.B.            R S.S.K M D.D.D.D.D.D.D.D.D.D.D.D.D.D.D.D.D.D.",
"D.D.D.D.D.D.D.D.D.D.D.D.D.D.D.D.D.D.D.D.D.D.6 H H 0 L S.S.S.l O O 6 A.S.A.k.S.S.S.S.S.l.V.S.8         = S.S.A.M V 6 D.D.D.D.D.D.D.D.D.D.D.D.D.D.D.D.D.",
"D.D.D.D.D.D.D.D.D.D.D.D.D.D.D.D.D.D.D.D.D.D.D.h h K l x.S.S.S.S.S.S.S.S.l.l.S.S.S.S.S.l.x.S.S.K % # M S.S.S.k.8 H 6 D.D.D.D.D.D.D.D.D.D.D.D.D.D.D.D.D.",
"D.D.D.D.D.D.D.D.D.D.D.D.D.D.D.D.D.D.D.D.D.D.D.M < < 6 8 x.S.S.S.S.S.A.l.k.A.S.H % l.S.A.T V.S.S.S.S.S.S.S.A.h V L 6 D.D.D.D.D.D.D.D.D.D.D.D.D.D.D.D.D.",
"D.D.D.D.D.D.D.D.D.D.D.D.D.D.D.D.D.D.D.D.D.D.D.8 < # & % = k.x.x.z.l.l.z.S.S.S.l.h V.S.S.V.R x.S.S.S.S.S.A.M V l a D.D.D.D.D.D.D.D.D.D.D.D.D.D.D.D.D.D.",
"D.D.D.D.D.D.D.D.D.D.D.D.D.D.D.D.D.D.D.D.D.D.D.< h 0 8 8 T A.B.x.x.V.S.S.S.S.S.S.S.S.S.S.S.A.l.l.z.l.l.k.h h 8 & & D.D.D.D.D.D.D.D.D.D.D.D.D.D.D.D.D.D.",
"D.D.D.D.D.D.D.D.D.D.D.D.D.D.D.D.D.D.D.D.D.D.D.D.R B.B.S.S.S.S.S.S.S.S.S.A.A.S.V x.S.S.S.S.S.S.A.V.k.@ + & % @ h h D.D.D.D.D.D.D.D.D.D.D.D.D.D.D.D.D.D.",
"D.D.D.D.D.D.D.D.D.D.D.D.D.D.D.D.D.D.D.D.D.D.D.D.V S.A.B.B.x.B.V.A.S.S.S.V.L T 6 L B.V.S.S.S.S.S.S.S.z.- & = - 6 6 D.D.D.D.D.D.D.D.D.D.D.D.D.D.D.D.D.D.",
"D.D.D.D.D.D.D.D.D.D.D.D.D.D.D.D.D.D.D.D.D.D.D.D.D.R A.k.k.k.k.l.k.x.S.S.S.x.k.S.l.k.A.S.S.S.S.S.S.S.S.A.K l V M D.D.D.D.D.D.D.D.D.D.D.D.D.D.D.D.D.D.D.",
"D.D.D.D.D.D.D.D.D.D.D.D.D.D.D.D.D.D.D.D.D.D.D.D.D.D.k.S.V.V.V.B.z.V.S.S.S.S.S.S.S.S.S.S.S.A.z.x.z.x.V.S.S.A.k.6 D.D.D.D.D.D.D.D.D.D.D.D.D.D.D.D.D.D.D.",
"D.D.D.D.D.D.D.D.D.D.D.D.D.D.D.D.D.D.D.D.D.D.D.D.D.D.6 B.S.x.z.z.k.B.S.S.S.S.S.S.S.S.S.S.S.V.l.l.z.B.x.l.x.S.T D.D.D.D.D.D.D.D.D.D.D.D.D.D.D.D.D.D.D.D.",
"D.D.D.D.D.D.D.D.D.D.D.D.D.D.D.D.D.D.D.D.D.D.D.D.D.D.D.D.M S.A.B.B.A.S.S.S.S.S.S.S.S.S.S.S.x.L z.V.V.B.S.A.l D.D.D.D.D.D.D.D.D.D.D.D.D.D.D.D.D.D.D.D.D.",
"D.D.D.D.D.D.D.D.D.D.D.D.D.D.D.D.D.D.D.D.D.D.D.D.D.D.D.D.D.M A.S.S.S.S.S.S.S.S.S.S.S.S.S.S.A.x.z.l.B.A.l.M D.D.D.D.D.D.D.D.D.D.D.D.D.D.D.D.D.D.D.D.D.D.",
"D.D.D.D.D.D.D.D.D.D.D.D.D.D.D.D.D.D.D.D.D.D.D.D.D.D.D.D.< # 6 k.B.S.S.S.S.S.S.S.S.S.S.S.S.S.S.S.A.k.T D.D.D.D.D.D.D.D.D.D.D.D.D.D.D.D.D.D.D.D.D.D.D.D.",
"D.D.D.D.D.D.D.D.D.D.D.D.D.D.D.D.D.D.D.D.D.D.D.D.D.D.D.D.h M z.S.V.k.l.V.S.S.S.S.S.S.S.S.S.S.V.x.l.V = D.D.D.D.D.D.D.D.D.D.D.D.D.D.D.D.D.D.D.D.D.D.D.D.",
"D.D.D.D.D.D.D.D.D.D.D.D.D.D.D.D.D.D.D.D.D.D.D.D.D.D.D.D.& = A.S.S.S.S.B.l.l.x.V.V.B.V.x.z.z.V.A.S.L - D.D.D.D.D.D.D.D.D.D.D.D.D.D.D.D.D.D.D.D.D.D.D.D.",
"D.D.D.D.D.D.D.D.D.D.D.D.D.D.D.D.D.D.D.D.D.D.D.D.D.D.D.D.6 = B.S.S.S.S.S.S.S.A.x.B.V.B.A.S.S.S.S.S.L @ D.D.D.D.D.D.D.D.D.D.D.D.D.D.D.D.D.D.D.D.D.D.D.D.",
"D.D.D.D.D.D.D.D.D.D.D.D.D.D.D.D.D.D.D.D.D.D.D.D.D.D.D.D.l K x.S.S.S.S.S.S.S.S.S.S.S.S.S.S.S.S.S.S.k.% D.D.D.D.D.D.D.D.D.D.D.D.D.D.D.D.D.D.D.D.D.D.D.D.",
"D.D.D.D.D.D.D.D.D.D.D.D.D.D.D.D.D.D.D.D.D.D.D.D.D.D.D.D.< - 6 S.S.S.S.S.S.S.S.S.S.S.S.S.S.S.S.S.S.A.l D.D.D.D.D.D.D.D.D.D.D.D.D.D.D.D.D.D.D.D.D.D.D.D.",
"D.D.D.D.D.D.D.D.D.D.D.D.D.D.D.D.D.D.D.D.D.D.D.D.D.D.D.D.D.% - A.S.S.S.S.S.S.S.S.S.S.S.S.S.S.S.S.S.S.V D.D.D.D.D.D.D.D.D.D.D.D.D.D.D.D.D.D.D.D.D.D.D.D.",
"D.D.D.D.D.D.D.D.D.D.D.D.D.D.D.D.D.D.D.D.D.D.D.D.D.D.D.D.6 M L S.S.S.S.S.S.S.S.S.S.S.S.S.S.S.S.S.S.S.z.6 D.D.D.D.D.D.D.D.D.D.D.D.D.D.D.D.D.D.D.D.D.D.D.",
"D.D.D.D.D.D.D.D.D.D.D.D.D.D.D.D.D.D.D.D.D.D.D.D.D.D.D.D.- - l.S.S.S.S.S.S.S.S.S.S.S.S.S.S.S.S.S.S.S.V.8 D.D.D.D.D.D.D.D.D.D.D.D.D.D.D.D.D.D.D.D.D.D.D.",
"D.D.D.D.D.D.D.D.D.D.D.D.D.D.D.D.D.D.D.D.D.D.D.D.D.D.D.D.> < S.S.S.S.S.S.S.S.S.S.S.S.S.S.S.S.S.S.S.S.A.& < D.D.D.D.D.D.D.D.D.D.D.D.D.D.D.D.D.D.D.D.D.D.",
"D.D.D.D.D.D.D.D.D.D.D.D.D.D.D.D.D.D.D.D.D.D.D.D.D.D.D.D.6 k.S.S.S.S.S.S.S.S.S.S.S.S.S.S.S.S.S.S.S.S.B.- 6 D.D.D.D.D.D.D.D.D.D.D.D.D.D.D.D.D.D.D.D.D.D.",
"D.D.D.D.D.D.D.D.D.D.D.D.D.D.D.D.D.D.D.D.D.D.D.D.D.D.D.D.6 A.S.S.S.S.S.S.S.S.S.S.S.S.S.S.S.S.S.S.S.S.V.l # # D.D.D.D.D.D.D.D.D.D.D.D.D.D.D.D.D.D.D.D.D.",
"D.D.D.D.D.D.D.D.D.D.D.D.D.D.D.D.D.D.D.D.D.D.D.D.D.D.D.= @ V.S.S.S.S.S.S.S.S.S.S.S.S.S.S.S.S.S.S.S.S.B.k.: < D.D.D.D.D.D.D.D.D.D.D.D.D.D.D.D.D.D.D.D.D.",
"D.D.D.D.D.D.D.D.D.D.D.D.D.D.D.D.D.D.D.D.D.D.D.D.D.D.l M - l.S.S.S.S.S.S.S.S.S.S.S.S.S.S.S.S.S.S.S.S.z.A.R < 6 D.D.D.D.D.D.D.D.D.D.D.D.D.D.D.D.D.D.D.D.",
"D.D.D.D.D.D.D.D.D.D.D.D.D.D.D.D.D.D.D.D.D.D.D.D.D.D.< 6 = l.S.S.S.S.S.S.S.S.A.S.S.z.A.S.S.S.S.S.S.S.l.S.k.% < D.D.D.D.D.D.D.D.D.D.D.D.D.D.D.D.D.D.D.D.",
"D.D.D.D.D.D.D.D.D.D.D.D.D.D.D.D.D.D.D.D.D.D.D.D.D.D.& # K x.S.S.S.S.S.S.S.A.l.S.S.z.z.S.S.S.S.S.S.S.k.S.z.h : D.D.D.D.D.D.D.D.D.D.D.D.D.D.D.D.D.D.D.D.",
"D.D.D.D.D.D.D.D.D.D.D.D.D.D.D.D.D.D.D.D.D.D.D.D.D.6 6 h S.k.S.S.S.S.S.S.S.B.l.S.S.x.z.S.S.S.S.S.S.A.l.S.M & : D.D.D.D.D.D.D.D.D.D.D.D.D.D.D.D.D.D.D.D.",
"D.D.D.D.D.D.D.D.D.D.D.D.D.D.D.D.D.D.D.D.D.D.D.D.D.= + l S.l.V.S.S.S.S.S.S.x.z.S.S.B.l.S.S.S.S.S.S.V.x.S.* = < D.D.D.D.D.D.D.D.D.D.D.D.D.D.D.D.D.D.D.D.",
"D.D.D.D.D.D.D.D.D.D.D.D.D.D.D.D.D.D.D.D.D.D.D.D.D.8 0 = B.B.B.S.S.S.S.S.S.l.x.S.S.B.z.S.S.S.S.S.S.B.x.A.l < 6 = % & - D.D.D.D.D.D.D.D.D.D.D.D.D.D.D.D.",
"D.D.D.D.D.D.D.D.D.D.D.D.D.D.D.D.D.D.D.D.D.D.D.D.D.- 6 l T B.z.S.S.S.S.S.S.l.x.S.S.B.z.S.S.S.S.S.S.x.A.x.% % 6 % % # < T < = D.D.D.D.D.D.D.D.D.D.D.D.D.",
"D.D.D.D.D.D.D.D.D.D.D.D.D.D.D.D.D.D.D.D.D.D.D.D.D.: = # : V.z.S.S.S.S.S.S.l.B.S.S.B.z.S.S.S.S.S.S.l.A.B.& - M % # 6 L M = # & D.D.D.D.D.D.D.D.D.D.D.D.",
"D.D.D.D.D.D.D.D.D.D.D.D.D.D.D.D.D.D.D.D.D.D.D.D.D.D.l - 8 A.k.S.S.S.S.S.S.l.V.S.S.B.z.S.S.S.S.S.S.l.A.S.: - V : @ 6 R 6 # & # % - D.D.D.D.D.D.D.D.D.D.",
"D.D.D.D.D.D.D.D.D.D.D.D.D.D.D.D.D.D.D.D.D.D.D.D.D.D.< < h S.l.A.S.S.S.S.S.l.B.S.S.x.z.S.S.S.S.S.S.T l.V.- D.D.D.D.< l 8 # % < M H l D.D.D.D.D.D.D.D.D.",
"D.D.D.D.D.D.D.D.D.D.D.D.D.D.D.D.D.D.D.D.D.D.D.D.D.D.6 @ : V.T B.S.S.S.S.S.l.V.S.S.x.x.S.S.S.S.S.V.R V.V.R D.D.D.D.D.D.D.: % M T V - - D.D.D.D.D.D.D.D.",
"D.D.D.D.D.D.D.D.D.D.D.D.D.D.D.D.D.D.D.D.D.D.D.D.D.D.D.< B.S.z.z.S.S.S.S.S.l.B.S.S.x.x.S.S.S.S.S.x.l.S.S.S.l D.D.D.D.D.D.D.D.h V - @ & D.D.D.D.D.D.D.D.",
"D.D.D.D.D.D.D.D.D.D.D.D.D.D.D.D.D.D.D.D.D.D.D.D.D.D.D.S.S.S.B.l.S.S.S.S.S.l.B.S.S.x.x.S.S.S.S.S.l.V.V.A.S.K D.D.D.D.D.D.D.D.D.< # % % - D.D.D.D.D.D.D.",
"D.D.D.D.D.D.D.D.D.D.D.D.D.D.D.D.D.D.D.D.D.D.D.D.D.D.D.B.S.x.B.l.S.S.S.S.S.z.x.S.S.x.x.S.S.S.S.S.k.A.x.B.A.6 D.D.D.D.D.D.D.D.D.D.< % % & D.D.D.D.D.D.D.",
"D.D.D.D.D.D.D.D.D.D.D.D.D.D.D.D.D.D.D.D.D.D.D.D.D.D.D.K S.z.B.k.S.S.S.S.S.x.V D.D.V V.S.S.S.S.S.V.z.k.l.D.D.D.D.D.D.D.D.D.D.D.D.D.D.% % - D.D.D.D.D.D.",
"D.D.D.D.D.D.D.D.D.D.D.D.D.D.D.D.D.D.D.D.D.D.D.D.D.D.D.D.L L T V.S.S.S.S.S.x.D.D.D.D.x.S.S.A.A.S.S.x.D.D.D.D.D.D.D.D.D.D.D.D.D.D.D.D.D.& - D.D.D.D.D.D.",
"D.D.D.D.D.D.D.D.D.D.D.D.D.D.D.D.D.D.D.D.D.D.D.D.D.D.D.D.D.D.R S.S.S.S.S.S.l.D.D.D.D.K B.S.S.l.S.A.K D.D.D.D.D.D.D.D.D.D.D.D.D.D.D.D.D.D.D.D.D.D.D.D.D.",
"D.D.D.D.D.D.D.D.D.D.D.D.D.D.D.D.D.D.D.D.D.D.D.D.D.D.D.D.D.D.M V.S.B.S.A.z.c D.D.D.D.D.V V.A.l.V.R D.D.D.D.D.D.D.D.D.D.D.D.D.D.D.D.D.D.D.D.D.D.D.D.D.D.",
"D.D.D.D.D.D.D.D.D.D.D.D.D.D.D.D.D.D.D.D.D.D.D.D.D.D.D.D.D.D.D.M k.L z.R D.D.D.D.D.D.D.D.D.D.D.D.D.D.D.D.D.D.D.D.D.D.D.D.D.D.D.D.D.D.D.D.D.D.D.D.D.D.D."
};
