/* XPM */
static char *_f81d518bcb04b76e926c558e4297e8edwFcBRhTcC73xhFV[] = {
/* columns rows colors chars-per-pixel */
"42 30 11 1 ",
"  c black",
". c #1D211E",
"X c #6C264D",
"o c #4D4B76",
"O c #B92F63",
"+ c #DE436A",
"@ c #3434AD",
"# c #4F44D8",
"$ c #7E6CFF",
"% c #A397FF",
"& c #FCF9FC",
/* pixels */
"oooooooooooooooooooooooooooooooooooooooooo",
"oooooooooooooooooooooooooooooooooooooooooo",
"oooooooooooooooooooooooooooooooooooooooooo",
"oooooooooooooooooooooooooooooooooooooooooo",
"oooooooooooooooooooooooooooooooooooooooooo",
"oooooooooooooooooooooooooooooooooooooooooo",
"oooooooooooooooooooooooooooooooooooooooooo",
"oooooooooooooooooo       ooooooooooooooooo",
"o oooooooooooooo  O+++++O  oooooooooooooo ",
"o  oooooooooooo O+++++++++O oooooooooooo  ",
"o % oooooooooo O+++++++++++O oooooooooo % ",
"o $%  ooooooo O+++++++++++++X ooooooo  %$ ",
"oo $%$  oooo O+++++.  ++++++XX oooo  $%$ o",
"oo #$%%$     +++++.O.  +++++XX     $%%$# o",
"ooo #$$%%%$ O++++.O&X.  ++++X #$%%%%$$# oo",
"oooo #$$$$$ +++++ .X.   ++++X #$$$$$$# ooo",
"ooooo @#$$$ +++++  .  X +++OX ##$$$#@ oooo",
"oooooo @@## +++++    XX +++XX ####@@ ooooo",
"ooooooo  @@ O+++++  XX +++OXX @@@@  oooooo",
"ooooooooo    ++++++   +++OXXXX    oooooooo",
"oooooooooooo O++++++++++OXXXXX ooooooooooo",
"ooooooooooooo O++++++++OXXXXX oooooooooooo",
"oooooooooooooo O+++++OXXXXXX ooooooooooooo",
"oooooooooooooo  XXXXXXXXXXX  ooooooooooooo",
"ooooooooooooo $#  XXXXXXX  #$ oooooooooooo",
"oooooooooooo $%$$#       #$$%$ ooooooooooo",
"oooooooooooo $$$# ooooooo #$$$ ooooooooooo",
"oooooooooooo $$# ooooooooo #$$ ooooooooooo",
"oooooooooooo ### ooooooooo ### ooooooooooo",
"ooooooooooooo   ooooooooooo   oooooooooooo"
};
