/* XPM */
static char *result[] = {
/* columns rows colors chars-per-pixel */
"74 75 177 2 ",
"   c #010101",
".  c #0D0D0D",
"X  c #080707",
"o  c #1E0708",
"O  c #10100F",
"+  c #0E1414",
"@  c #141414",
"#  c #1B1B1B",
"$  c #290000",
"%  c #350707",
"&  c #232323",
"*  c #2C2C2C",
"=  c #282827",
"-  c #2D2E30",
";  c #333434",
":  c #3A3A3A",
">  c #480000",
",  c #500D0D",
"<  c #511A19",
"1  c #690909",
"2  c #691A1D",
"3  c #493838",
"4  c #5A3636",
"5  c #642324",
"6  c #792728",
"7  c #613535",
"8  c #3C3E42",
"9  c #3E4246",
"0  c #434444",
"q  c #4C4B4B",
"w  c #4E4E50",
"e  c #475656",
"r  c #535354",
"t  c #5D5D5E",
"y  c #595757",
"u  c #764645",
"i  c #635C5B",
"p  c #685555",
"a  c #7F5A5A",
"s  c #5C5F61",
"d  c #5D6063",
"f  c #636364",
"g  c #64676A",
"h  c #66696C",
"j  c #6B6C6D",
"k  c #686566",
"l  c #756667",
"z  c #7C6162",
"x  c #7C6B6B",
"c  c #70706F",
"v  c #6C6F72",
"b  c #706F71",
"n  c #6E7174",
"m  c #737474",
"M  c #737679",
"N  c #75797B",
"B  c #7A7B7C",
"V  c #832C2E",
"C  c #852427",
"Z  c #8D2F31",
"A  c #863334",
"S  c #983336",
"D  c #8D3F40",
"F  c #8E4141",
"G  c #855958",
"H  c #A35C5C",
"J  c #846465",
"K  c #846D6E",
"L  c #8B6E6E",
"P  c #8C6261",
"I  c #926F70",
"U  c #877473",
"Y  c #897A7A",
"T  c #9B7676",
"R  c #947979",
"E  c #9C7C7C",
"W  c #957272",
"Q  c #AF6364",
"!  c #B76767",
"~  c #A17A7A",
"^  c #C77A7C",
"/  c #7B7E81",
"(  c #847F80",
")  c #A77F80",
"_  c #7E8184",
"`  c #7A8386",
"'  c #838485",
"]  c #838689",
"[  c #86898C",
"{  c #8B8C8C",
"}  c #898384",
"|  c #998D8E",
" . c #868C91",
".. c #8B8E91",
"X. c #908F90",
"o. c #8F9295",
"O. c #8E949A",
"+. c #939495",
"@. c #939699",
"#. c #95999C",
"$. c #9B9C9D",
"%. c #A38383",
"&. c #AA8484",
"*. c #B48C8C",
"=. c #B18586",
"-. c #A38F90",
";. c #A49898",
":. c #B59293",
">. c #BF9B9B",
",. c #969BA1",
"<. c #9B9EA2",
"1. c #9DA1A4",
"2. c #9EA4A9",
"3. c #A3A4A5",
"4. c #ACA6A6",
"5. c #A2A6AA",
"6. c #A5AAAC",
"7. c #AAABAC",
"8. c #A7ADB1",
"9. c #AAAEB1",
"0. c #ADB1B5",
"q. c #AEB4B9",
"w. c #B3B3B5",
"e. c #B4B6B9",
"r. c #B5B9BC",
"t. c #BABBBC",
"y. c #BBB8B8",
"u. c #DE8F8F",
"i. c #C19596",
"p. c #C49E9E",
"a. c #DE9697",
"s. c #CCA3A3",
"d. c #D2A5A4",
"f. c #D4AAAB",
"g. c #D9ADAC",
"h. c #C2B4B4",
"j. c #EAA9AA",
"k. c #F0ABAC",
"l. c #E2B5B5",
"z. c #EBBCBB",
"x. c #E8B6B7",
"c. c #FFBEBE",
"v. c #B6BBC1",
"b. c #BBBEC1",
"n. c #BDC1C4",
"m. c #BFC4C9",
"M. c #C2C3C5",
"N. c #C4C6CA",
"B. c #C5C9CC",
"V. c #CACBCD",
"C. c #C5CAD0",
"Z. c #CBCED2",
"A. c #CDD1D4",
"S. c #CBD2D9",
"D. c #D2D3D4",
"F. c #D3D6D9",
"G. c #D5D9DC",
"H. c #DADBDD",
"J. c #FFC4C4",
"K. c #FACBCB",
"L. c #FFD3D3",
"P. c #D6DCE1",
"I. c #DBDEE1",
"U. c #DDE1E4",
"Y. c #DEE3EB",
"T. c #E3E4E5",
"R. c #E5E6E9",
"E. c #E5E9EB",
"W. c #EAEBED",
"Q. c #EDEFF1",
"!. c #EFF0F2",
"~. c #EFF4FB",
"^. c #F2F3F5",
"/. c #F5F6F8",
"(. c #F6F9FC",
"). c #FDFDFE",
"_. c None",
/* pixels */
"_._._._._._._._._._._._._._._._._._._._._._._._._._._._._._._._._._._._._._._._._._._._._._._._._._._._._._._._._._._._._._._._._._._._._._._._._._.",
"_._._._._._._._._._._._._._._._._._._._._._._._._._._._._._._._._._._._._._._._._._._._._._._._._._._._._._._._._._._._._._._._._._._._._._._._._._.",
"_._._._._._._._._._._._._._._._._._._._._._._._._._._._._._._._._._._._._._._._._._._._._._._._._._._._._._._._._._._._._._._._._._._._._._._._._._.",
"_._._._._._._._._._._._._._._._._._._._._._._._._._._._._._._._._._._._._._._._._._._._._._._._._._._._._._._._._._._._._._._._._._._._._._._._._._.",
"_._._._._._._._._._._._._._._._._._._._._._._._._._._._._._._._._._._._._._._._._._._._._._._._._._._._._._._._._._._._._._._._._._._._._._._._._._.",
"_._._._._._._._._._._._._._._._._._._._._._._._._._._._._._._._._._._._._._._._._._._._._._._._._._._._._._._._._._._._._._._._._._._._._._._._._._.",
"_._._._._._._._._._._._._._._._._._._._._._._._._._._._._._._._._._._._._._._._._._._._._._._._._._._._._._._._._._._._._._._._._._._._._._._._._._.",
"_._._._._._._._._._._._._._._._._._._._._._._._._._.i _._._._._._._._._._._._._._._._._._._._._._._._._._._._._._._._._._._._._._._._._._._._._._._.",
"_._._._._._._._._._._._._._._._._._._._._._._._._.L ~ _._._._._._._._._._.' D.] _._._._._._._._._._._._._._._._._._._._._._._._._._._._._._._._._._.",
"_._._._._._._._._._._._._._._._._._._._._._._._.l J.p _._._._._._._._._.{ ).).( _._._._._._._._._._._._._._._._._._._._._._._._._._._._._._._._._._.",
"_._._._._._._._._._._._._._._._._._._._._._._._.&.z.y _._._._._._._._._.D.).} _._._._._._._._._._._._._._._._._._._._._._._._._._._._._._._._._._._.",
"_._._._._._._._._._._._._._._._._._._._._._._.f f.*.w.0._._._._._._._.+.t.K x _._._._._._._._._._._._._._._._._._._._._._._._._._._._._._._._._._._.",
"_._._._._._._._._._._._._._._._._._._._._._._.t d.i.4.w._._._._._._._._ E J.-._._._._._._._._._._._._._._._._._._._._._._._._._._._._._._._._._._._.",
"_._._._._._._._._._._._._._._._._._._._._._._.x s.l.U t.+._._._._._.#.y.&.L.U _._._._._._._._._._._._._._._._._._._._._._._._._._._._._._._._._._._.",
"_._._._._._._._._._._._._._._._._._._._._._.Y =.*.l.T w.e._._._._.B ).y.~ K.) _._._._._._._._._._._._._._._._._._._._._._._._._._._._._._._._._._._.",
"_._._._._._._._._._._._._._._._._._._._._._.T l.:.g.i.h.B._._._.B I.).4.) >.s.| _._._._._._._._._._._._._._._._._._._._._._._._._._._._._._._._._._.",
"_._._._._._._._._._._._._._._._._._._._._.k a I L W G 3.H._._._.y.).W.Y g.%.f.x _._._._._._._._._._._._._._._._._._._._._._._._._._._._._._._._._._.",
"_._._._._._._._._._._._._._._._._._._.f f $.w.w.7.4.| 3.7.c _.k ).).o.E K.%.p.x _._._._._._._._._._._._._._._._._._._._._._._._._._._._._._._._._._.",
"_._._._._._._._._._._._._._._._._._.y $.).).).).).).).).(.W.y.w.7.$.R d.g.R s.z _._._._._._._._._._._._._._._._._._._._._._._._._._._._._._._._._._.",
"_._._._._._._._._._._._._._._._._._.1.).).(.(.)./.)./.).).).).).Q.q *.f.*.%.x.p _._._._._._._._._._._._._._._._._._._._._._._._._._._._._._._._._._.",
"_._._._._._._._._._._._._._._._._.} D.).).).).(.(.).).).(.).(.).).E.l d.>.s.i.f _._._._._._._._._._._._._._._._._._._._._._._._._._._._._._._._._._.",
"_._._._._._._._._._._._._._._._._.$.)./.).).R.R.).T.T.).).).).).(.).8.J x.x.R N _._._._._._._._._._._._._._._._._._._._._._._._._._._._._._._._._._.",
"_._._._._._._._._._._.7 u G G G 3 8.).D.W.T.7.V.b.4.T.).).T.3.( D.).).( P J y.7.# m _._._._._._._._._._._._._._._._._._._._._._._._._._._._._._._._.",
"_._._._._._._._._.` % u.c.k.a.^ H u d <.i { y.).c { ).R.} ' w.D.M./.).H.} y.).{ @ +.V._._._._._._._._._._._._._._._._._._._.k _._._._._._._._._._._.",
"_._._._._._._._.A.| ! j.F 6 A F Q ! , X.H.c r H.r k <.# = B.D.).^.^./.(.).).H.f @ c ).T.{ _._._._._._._._._._._._._._._._._.j _._._._._._._._._._._.",
"_._._._._._._.+.).K A V 2 5 A Z C 6 1 U ).).w.} 3.B r @ y.H.D.).).).).).W.3.0.X.q * D.).).y.B _._._._._._._._._._._._._._._.{ _._._._._._._._._._._.",
"_._._._._._._.y.).4.  o 5 5 S 5 5 S > 8.)./.).W.^.).Q.M.y.+.' 3.7.$.y.V.0.o.3.Z.j X +.).).).W.' _._._._._._._._._._._._._.7.7._._._._._._._._._._._.",
"_._._._._._.+.T.).).e   < 6 6     % 4 (.)./.^.).^.^.).).(.t.] } w.M.y.3.' N.W.).r : } j { ).).).+._._._._._._._._._._._._.N.V._._._._._._._._._._._.",
"_._._._._._.+.).^.).).: $ 1 $   + f H.).^./.^.!.!./.^.!./.).).R.D./.).).t.+.).).w 0 m @ } ).).).).$._._._._._._._._._._._.D.M._._._._._._._._._._._.",
"_._._._._._.#.).^.^.)./.3 4 Y b.).).).).4.3.).X.+.).).^.).H.F.).).!.^.^.).3.7.).k X ; !.).).).).).).X._._._._._._._._._.X.).;._._._._._._._._._._._.",
"_._._._._._.X.).Q.!.(.).+.!.).).).!./.).<.r ).+.c w.$.3.7.m y.).W.^.^.Q./.H.3.(.i O ; Q.).(.^.).).).).( _._._._._._._._.7.).' _._._._._._._._._._._.",
"_._._._._._.{ H.).).W.#.k D.).!.W.(.F.W.D.$.w.B B 7.D.T.D.+.' ).^.^.^.W./.W.w.H.w @ ; ^.).D.).).(.(.)./.r _._._._._._.{ (.r._._._._._._._._._._._._.",
"_._._._._._._.M N.7.{ M.W.} y.).^.).7.m D.4.[ { ).)./.^.).).3.1.).!.!.!.^.Z.t.Z.0 @ 0 H.t.^.).)./././.).y.y 3._._._._.4.).,._._._._._._._._._._._._.",
"_._._._._._._.} w.N./.).).Q.{ #.^.).D.m c m Z.).^.Q.^.^.W.Q.^.V.R.Q.W.).H.7.N.M.- # 0 ;.T.)./.^./././.).).w.V.w.: _.( T.~.` _._._._._._._._._._._._.",
"_._._._._._._.$.).^.G.G.Q.(.).7.' y.{ B y./.).W.).^.D.R.Q.W.W./.W.W.).E.3.y.I.+.O # # V.)././.)././././.).D.4.).H.;.F.).7.v _._._._._._._._._._._._.",
"_._._._._._._._.N { 7.U.!.W.Q.).e.B N./.).^././.5.{ V.W.W.W.W.W.W.).I.<.5.N.H.r   O B ).(././././././././.).y.V.).^./.).W.m _._._._._._._._._._._._.",
"_._._._._._._._._._.#.).!.Q.W.R.^.).).W.W.W.V.+.j M.).Q.W.W.W.!.).Z.#.#.9.G.$.X ; # T.).^./././././.^.^./.).T.V.).(./.^.).W.f _._._._._._._._._._._.",
"_._._._._._._._._._._.} H.(.W.!.W.W.W.W.W.R.V.D.).!.I.E.T.E./.W.v.@.<.<.9.F.* - 4.i W.).^.Q.!.^.^.Q.^.^.^.^.).T.W././.^.^.).b._._._._._._._._._._._.",
"_._._._._._._._._._._._.m m B.W.^.W.E./.Q.Q.!.E.T.T.R.W.Q.Q.Z.<.o.<.<.<.I.t   0 q * i /.!.W.W.W.W.W./.^.^.^.Q./.^.!.^.!.^.^.).+._._._._._._._._._._.",
"_._._._._._._._._._._._._._.o.k o.w.B.A.D.H.W.E.W.W.E.T.B.5...<.1.@.,.I.B X ;   @ M.Z.T.Q.Q.W.W.T.Q.T.W.^.^.^.Q.^.!.^.^.Q.^.).t._._._._._._._._._._.",
"_._._._._._._._._._._._._._._._._.f @._ ,.v.9.1.8.8.<.#.1.#.B.e.[ v.F.h   &   ; +.T.).^.Q.Q.Q.Q.).N.w.).!./.^.^.Q.Q.^.W.W.Q.^.E.} _._._._._._._._._.",
"_._._._._._._._._._._._._._._._._._._._.+.'  .#.8.r.0.<.1.n.U.C.n.<.:   #   # A.3.V.).Q.Q.Q.Q.Q.).{ A.)./.I.E.W.!.Q.^.F.W.!.W.).$._._._._._._._._._.",
"_._._._._._._._._._._._._._._._._._._._._._._.5.$.n o.o.#.9.] m 0     X   0 N.H.m G./.W.Q.Q.W.).6.+.).^.H.1.b.D./.R.T.N.I.^.Q.).y._._._._._._._._._.",
"_._._._._._._._._._._._._._._._._._._._._._._._.X     # #       . +.q # { F.M.0.B H.^.W.W.W./.T.( T.^.).y.} +.W.^.Q.;.$.^.Q.W.).t._._._._._._._._._.",
"_._._._._._._._._._._._._._._._._._._._._._._._._._ * & = * - : 0 f [ V.Z.9.7.e.[ G.!.W.W.W.).+.w.).W./.7.y b.).^./.y $.).W.W./.F._._._._._._._._._.",
"_._._._._._._._._._._._._._._._._._._._._._._._._.w.M.+.N.9.w.Z.b.# v Z.7.7.7.e.$.D.!.W.W.!.M.w.).R.Q.Q.} [ ).^.^.t.; w.W.W.W.W.E.B _._._._._._._._.",
"_._._._._._._._._._._._._._._._._._._._._._._._._.$.!...<.v.9.6.b.] / r.7.6.6.e.#.Z.!.R.R.W.Z.W.!.T.Q.E.] D.).R.V.B b G.Q.t.T.E.!.+._._._._._._._._.",
"_._._._._._._._._._._._._._._._._._._._._._._._._.t.G.w.@.3.5.5.3.e.q.1.5.5.5.e.{ V.!.T.T.T.^.D.Z.Q.Q.H.( b.Z.7.9.3.t.w./.9.y./.^.$._._._._._._._._.",
"_._._._._._._._._._._._._._._._._._._._._._._._._.A.V.w.w.w.3.<.2.1.2.8.1.2.1.2.$.U.R.Y.Y.Y./.0.1./.Q.N.' 1.,.0.o.d 0.w.H.N...).^.1._._._._._._._._.",
"_._._._._._._._._._._._._._._._._._._._._._._._...I.M.6.0.N.m.<.<.2.[ ..q.1.1.@.<.!.U.U.U.U.!.e.$.).I.6.o.0.1.e.m _.' +.B.^.o.B.).1._._._._._._._._.",
"_._._._._._._._._._._._._._._._._._._._._._._._. .Q.b.9.w.4.N.9.<.6.@.h m 6.1.` $.~.U.I.U.U.Y.V.b.^.I.[ ] 6.0.M _._._.m <.Q.5.$.).1._._._._._._._._.",
"_._._._._._._._._._._._._._._._._._._._._._._._.<.Q.r.w.1.@.e.w.@.[ 0.8.d m 2.[ 5.~.U.I.I.I.I.U.E.I.7.B 1.q.N ' _._._._.v n.b.5.(.5._._._._._._._._.",
"_._._._._._._._._._._._._._._._._._._._._._._._.9.T.0.w.v $.0.w.0.$.B N 2.@.1...w.^.H.P.P.I.P.U.E.B.}  .1.g _._._._._._._.B 0.B.~.0._._._._._._._._.",
"_._._._._._._._._._._._._._._._._._._._._._._._.v.Z.e.B b r.7.6.w.r.n _._ ....M B.b.e.R.G.G.G.R.C.#.g [ #.' _._._._._._._.B ] C.).r._._._._._._._._.",
"_._._._._._._._._._._._._._._._._._._._._._._.B B.B...M 9.8.5.9.q.h _._._._._.r n.3.b.P.G.F.U.Z.v.r j w.D.+._._._._._._._._.n n.G.N._._._._._._._._.",
"_._._._._._._._._._._._._._._._._._._._._._._...S.e...9.e.3.0.8.d _._._._._._._.8.8.G.F.F.G.G.r.[ _.9.Z.M.k _._._._._._._._.' B.1.1._._._._._._._._.",
"_._._._._._._._._._._._._._._._._._._._._._._.#.P.6.0.{ o.r.1.h _._._._._._._._.8.m.G.F.A.I.n...B _.+.] +.+._._._._._._._._.b n.n.,._._._._._._._._.",
"_._._._._._._._._._._._._._._._._._._._._._._.[ Y.6.<.v 0.@.j _._._._._._._._.X.q.P.A.A.G.B.8.j _._.{ O.M $._._._._._._._._._.' Q.M.N _._._._._._._.",
"_._._._._._._._._._._._._._._._._._._._._._.[ q.F.6.#.e.] m _._._._._._._._._.B C.F.A.A.F.n.n _._._.1.G.N _._._._._._._._._._.[ F.C.[ _._._._._._._.",
"_._._._._._._._._._._._._._._._._._._._._._./ ~.2._ 0.` _._._._._._._._._._._.[ F.Z.Z.S.B. ._ _._.[ R.@.{ _._._._._._._._._._._.q.I.] _._._._._._._.",
"_._._._._._._._._._._._._._._._._._._._._.N m.F.j O.` _._._._._._._._._._._._.#.P.C.C.S.r.h _._.f B.E.g _._._._._._._._._._._._.6.E.` _._._._._._._.",
"_._._._._._._._._._._._._._._._._._._._._.` Y.8.#. ._._._._._._._._._._._._._.o.P.C.Z.B.` _._.[ @.G.v.g _._._._._._._._._._._.+.v.E._ _._._._._._._.",
"_._._._._._._._._._._._._._._._._._._._.m m.m.1.,.B _._._._._._._._._._._._._.@.G.m.Z.b.y _._.g s O.s _._._._._._._._._._._._.] v.q.,.' _._._._._._.",
"_._._._._._._._._._._._._._._._._._._._.5.Y.8.1.N _._._._._._._._._._._._._._.6.C.m.C.2.' _._._._._._._._._._._._._._._._._._.8 j o.v w _._._._._._.",
"_._._._._._._._._._._._._._._._._._.: ` 2.0.2. ./ _._._._._._._._._._._._._.] C.S.n.C.9.d _._._._._._._._._._._._._._._._._._._._.8 _._._._._._._._.",
"_._._._._._._._._._._._._._._._._.9 O.q.h 8.8.` N _._._._._._._._._._._.[ 8 g C.<.v.C.q.r _._._._._._._._._._._._._._._._._._._._._._._._._._._._._.",
"_._._._._._._._._._._._._._._._._.0 v g g N v h _._._._._._._._._._._._. .,.Y.[ / C.v.O.] _._._._._._._._._._._._._._._._._._._._._._._._._._._._._.",
"_._._._._._._._._._._._._._._._._._._._._._._._._._._._._._._._._._._._.s v S.` n O.O.d _._._._._._._._._._._._._._._._._._._._._._._._._._._._._._.",
"_._._._._._._._._._._._._._._._._._._._._._._._._._._._._._._._._._._._._.m w w / [ s _._._._._._._._._._._._._._._._._._._._._._._._._._._._._._._.",
"_._._._._._._._._._._._._._._._._._._._._._._._._._._._._._._._._._._._._._._._._._._._._._._._._._._._._._._._._._._._._._._._._._._._._._._._._._.",
"_._._._._._._._._._._._._._._._._._._._._._._._._._._._._._._._._._._._._._._._._._._._._._._._._._._._._._._._._._._._._._._._._._._._._._._._._._.",
"_._._._._._._._._._._._._._._._._._._._._._._._._._._._._._._._._._._._._._._._._._._._._._._._._._._._._._._._._._._._._._._._._._._._._._._._._._.",
"_._._._._._._._._._._._._._._._._._._._._._._._._._._._._._._._._._._._._._._._._._._._._._._._._._._._._._._._._._._._._._._._._._._._._._._._._._.",
"_._._._._._._._._._._._._._._._._._._._._._._._._._._._._._._._._._._._._._._._._._._._._._._._._._._._._._._._._._._._._._._._._._._._._._._._._._.",
"_._._._._._._._._._._._._._._._._._._._._._._._._._._._._._._._._._._._._._._._._._._._._._._._._._._._._._._._._._._._._._._._._._._._._._._._._._."
};
