/* XPM */
static char *result[] = {
/* columns rows colors chars-per-pixel */
"74 75 186 2 ",
"   c #010101",
".  c #0C0C0C",
"X  c #1A0202",
"o  c #10100F",
"O  c #141313",
"+  c #1C1C1C",
"@  c #360000",
"#  c #281A1C",
"$  c #222222",
"%  c #2B2C2C",
"&  c #2E2F30",
"*  c #333333",
"=  c #3B3A3A",
"-  c #3B3030",
";  c #4A0000",
":  c #4A1B1A",
">  c #541313",
",  c #600202",
"<  c #740E0E",
"1  c #6B191C",
"2  c #522F30",
"3  c #503333",
"4  c #632324",
"5  c #6A2828",
"6  c #7A2929",
"7  c #653B3A",
"8  c #3F3F40",
"9  c #3F4143",
"0  c #434443",
"q  c #4B4C4C",
"w  c #484749",
"e  c #544B4C",
"r  c #584949",
"t  c #4D4F50",
"y  c #4E5154",
"u  c #415151",
"i  c #535354",
"p  c #56585B",
"a  c #5B5C5C",
"s  c #6A4444",
"d  c #7F4D4D",
"f  c #635D5D",
"g  c #7E5454",
"h  c #7B5E5E",
"j  c #755C5C",
"k  c #5C5E61",
"l  c #5F6162",
"z  c #626364",
"x  c #636669",
"c  c #66696A",
"v  c #6B6C6C",
"b  c #6C6768",
"n  c #756465",
"m  c #7A6464",
"M  c #716A6A",
"N  c #6C6F71",
"B  c #6E7174",
"V  c #737475",
"C  c #757779",
"Z  c #75797C",
"A  c #7A7B7C",
"S  c #7A7070",
"D  c #822C2E",
"F  c #842226",
"G  c #8C2D30",
"H  c #972E31",
"J  c #843335",
"K  c #953336",
"L  c #904243",
"P  c #875C5D",
"I  c #826768",
"U  c #906565",
"Y  c #8C7373",
"T  c #8C7979",
"R  c #897778",
"E  c #927474",
"W  c #9A7575",
"Q  c #9A7C7C",
"!  c #AF6A69",
"~  c #B16565",
"^  c #BD6464",
"/  c #A27C7C",
"(  c #7B7E81",
")  c #7E8083",
"_  c #838384",
"`  c #898384",
"'  c #82868A",
"]  c #85898B",
"[  c #8B8B8C",
"{  c #9C8181",
"}  c #8B8E91",
"|  c #878B90",
" . c #8D9194",
".. c #8D9298",
"X. c #939495",
"o. c #93969A",
"O. c #96999C",
"+. c #9B9C9D",
"@. c #A48483",
"#. c #AC8384",
"$. c #AB8C8C",
"%. c #B78889",
"&. c #B1908F",
"*. c #B38F91",
"=. c #A49F9F",
"-. c #AE9C9D",
";. c #BB9393",
":. c #BB9696",
">. c #969CA1",
",. c #9A9EA2",
"<. c #9DA1A4",
"1. c #9FA4AA",
"2. c #A3A4A5",
"3. c #A3A6A9",
"4. c #A5A9AC",
"5. c #AAABAC",
"6. c #B1ABAC",
"7. c #A6ACB0",
"8. c #ABAEB1",
"9. c #A8ADB8",
"0. c #ADB1B4",
"q. c #AEB4B8",
"w. c #A6B3B3",
"e. c #B2B3B4",
"r. c #B3B6B9",
"t. c #B6BABD",
"y. c #BBBCBD",
"u. c #B8B4B4",
"i. c #D48989",
"p. c #C49C9B",
"a. c #E69C9B",
"s. c #CDA2A2",
"d. c #C7A2A1",
"f. c #D3A5A4",
"g. c #D4ACAC",
"h. c #DAACAC",
"j. c #DDAFB1",
"k. c #C3BDBD",
"l. c #C2B4B4",
"z. c #DCB3B3",
"x. c #E9A8AA",
"c. c #F0AAAC",
"v. c #E3B4B4",
"b. c #EABBBB",
"n. c #BDC0BF",
"m. c #BBBEC2",
"M. c #B7BCC1",
"N. c #BDC1C5",
"B. c #BFC4C8",
"V. c #C3C3C5",
"C. c #C3C6C9",
"Z. c #C5C9CC",
"A. c #CACBCC",
"S. c #CBC6C6",
"D. c #D0D0CF",
"F. c #C7CCD2",
"G. c #CBCED2",
"H. c #CDD1D4",
"J. c #CFD4D8",
"K. c #D2D4D5",
"L. c #D3D6DA",
"P. c #D5D9DC",
"I. c #DADCDD",
"U. c #EFC1C0",
"Y. c #FFCACB",
"T. c #FFC1C2",
"R. c #FFD3D3",
"E. c #D7DDE2",
"W. c #DADEE1",
"Q. c #DDE1E4",
"!. c #DEE3EA",
"~. c #DFE8E8",
"^. c #E2E4E5",
"/. c #E4E6E9",
"(. c #E7E9EA",
"). c #EAEBED",
"_. c #EDEFF1",
"`. c #E7ECF0",
"'. c #EEF1F3",
"]. c #EEFCFC",
"[. c #F2F3F5",
"{. c #F5F6F9",
"}. c #F6F9FA",
"|. c #FDFEFE",
" X c #F8F8F7",
".X c None",
/* pixels */
".X.X.X.X.X.X.X.X.X.X.X.X.X.X.X.X.X.X.X.X.X.X.X.X.X.X.X.X.X.X.X.X.X.X.X.X.X.X.X.X.X.X.X.X.X.X.X.X.X.X.X.X.X.X.X.X.X.X.X.X.X.X.X.X.X.X.X.X.X.X.X.X.X.X",
".X.X.X.X.X.X.X.X.X.X.X.X.X.X.X.X.X.X.X.X.X.X.X.X.X.X.X.X.X.X.X.X.X.X.X.X.X.X.X.X.X.X.X.X.X.X.X.X.X.X.X.X.X.X.X.X.X.X.X.X.X.X.X.X.X.X.X.X.X.X.X.X.X.X",
".X.X.X.X.X.X.X.X.X.X.X.X.X.X.X.X.X.X.X.X.X.X.X.X.X.X.X.X.X.X.X.X.X.X.X.X.X.X.X.X.X.X.X.X.X.X.X.X.X.X.X.X.X.X.X.X.X.X.X.X.X.X.X.X.X.X.X.X.X.X.X.X.X.X",
".X.X.X.X.X.X.X.X.X.X.X.X.X.X.X.X.X.X.X.X.X.X.X.X.X.X.X.X.X.X.X.X.X.X.X.X.X.X.X.X.X.X.X.X.X.X.X.X.X.X.X.X.X.X.X.X.X.X.X.X.X.X.X.X.X.X.X.X.X.X.X.X.X.X",
".X.X.X.X.X.X.X.X.X.X.X.X.X.X.X.X.X.X.X.X.X.X.X.X.X.X.X.X.X.X.X.X.X.X.X.X.X.X.X.X.X.X.X.X.X.X.X.X.X.X.X.X.X.X.X.X.X.X.X.X.X.X.X.X.X.X.X.X.X.X.X.X.X.X",
".X.X.X.X.X.X.X.X.X.X.X.X.X.X.X.X.X.X.X.X.X.X.X.X.X.X.X.X.X.X.X.X.X.X.X.X.X.X.X.X.X.X.X.X.X.X.X.X.X.X.X.X.X.X.X.X.X.X.X.X.X.X.X.X.X.X.X.X.X.X.X.X.X.X",
".X.X.X.X.X.X.X.X.X.X.X.X.X.X.X.X.X.X.X.X.X.X.X.X.X.X.X.X.X.X.X.X.X.X.X.X.X.X.X.X.X.X.X.X.X.X.X.X.X.X.X.X.X.X.X.X.X.X.X.X.X.X.X.X.X.X.X.X.X.X.X.X.X.X",
".X.X.X.X.X.X.X.X.X.X.X.X.X.X.X.X.X.X.X.X.X.X.X.X.X.X.X.X.X.X.X.X.X.X.X.X.X.X.X.X.X.X.X.X.X.X.X.X.X.X.X.X.X.X.X.X.X.X.X.X.X.X.X.X.X.X.X.X.X.X.X.X.X.X",
".X.X.X.X.X.X.X.X.X.X.X.X.X.X.X.X.X.X.X.X.X.X.X.X.Xm / .X.X.X.X.X.X.X.X.X.X[ A.[ .X.X.X.X.X.X.X.X.X.X.X.X.X.X.X.X.X.X.X.X.X.X.X.X.X.X.X.X.X.X.X.X.X.X",
".X.X.X.X.X.X.X.X.X.X.X.X.X.X.X.X.X.X.X.X.X.X.X.Xn Y.m .X.X.X.X.X.X.X.X.X_ |.|._ .X.X.X.X.X.X.X.X.X.X.X.X.X.X.X.X.X.X.X.X.X.X.X.X.X.X.X.X.X.X.X.X.X.X",
".X.X.X.X.X.X.X.X.X.X.X.X.X.X.X.X.X.X.X.X.X.X.X.X#.b.M .X.X.X.X.X.X.X.X.X'.~._ .X.X.X.X.X.X.X.X.X.X.X.X.X.X.X.X.X.X.X.X.X.X.X.X.X.X.X.X.X.X.X.X.X.X.X",
".X.X.X.X.X.X.X.X.X.X.X.X.X.X.X.X.X.X.X.X.X.X.Xf f.#.5.n..X.X.X.X.X.X.XX.y.E r .X.X.X.X.X.X.X.X.X.X.X.X.X.X.X.X.X.X.X.X.X.X.X.X.X.X.X.X.X.X.X.X.X.X.X",
".X.X.X.X.X.X.X.X.X.X.X.X.X.X.X.X.X.X.X.X.X.X.Xf s.p.l.C..X.X.X.X.X.X.X] E Y.R .X.X.X.X.X.X.X.X.X.X.X.X.X.X.X.X.X.X.X.X.X.X.X.X.X.X.X.X.X.X.X.X.X.X.X",
".X.X.X.X.X.X.X.X.X.X.X.X.X.X.X.X.X.X.X.X.X.X.XI s.v.T H.X..X.X.X.X.X=.V.@.R.Y .X.X.X.X.X.X.X.X.X.X.X.X.X.X.X.X.X.X.X.X.X.X.X.X.X.X.X.X.X.X.X.X.X.X.X",
".X.X.X.X.X.X.X.X.X.X.X.X.X.X.X.X.X.X.X.X.X.X` #.&.v.W k.n..X.X.X.XN _.S.@.U.;..X.X.X.X.X.X.X.X.X.X.X.X.X.X.X.X.X.X.X.X.X.X.X.X.X.X.X.X.X.X.X.X.X.X.X",
".X.X.X.X.X.X.X.X.X.X.X.X.X.X.X.X.X.X.X.X.X.XE h.&.g.;.l.H..X.X.XV ^.|.6.W d.h.S .X.X.X.X.X.X.X.X.X.X.X.X.X.X.X.X.X.X.X.X.X.X.X.X.X.X.X.X.X.X.X.X.X.X",
".X.X.X.X.X.X.X.X.X.X.X.X.X.X.X.X.X.X.X.X.Xe P { W / g -.~..X.X.XA.|.[.R f.$.h.n .X.X.X.X.X.X.X.X.X.X.X.X.X.X.X.X.X.X.X.X.X.X.X.X.X.X.X.X.X.X.X.X.X.X",
".X.X.X.X.X.X.X.X.X.X.X.X.X.X.X.X.X.X.Xq z =.n.y.y.u.2.2.O.b .Xb |.|.O./ R.Y ;.I .X.X.X.X.X.X.X.X.X.X.X.X.X.X.X.X.X.X.X.X.X.X.X.X.X.X.X.X.X.X.X.X.X.X",
".X.X.X.X.X.X.X.X.X.X.X.X.X.X.X.X.X.X.X2.|.|.|.|.|.|.|.|._.).A.2.=.+.Q f.z.Y p.j .X.X.X.X.X.X.X.X.X.X.X.X.X.X.X.X.X.X.X.X.X.X.X.X.X.X.X.X.X.X.X.X.X.X",
".X.X.X.X.X.X.X.X.X.X.X.X.X.X.X.X.X.X5.|.|. X X|. X X|.|.|.|.|.|.^.w #.g.&.{ b.r .X.X.X.X.X.X.X.X.X.X.X.X.X.X.X.X.X.X.X.X.X.X.X.X.X.X.X.X.X.X.X.X.X.X",
".X.X.X.X.X.X.X.X.X.X.X.X.X.X.X.X.X[ ^.|.|. X|.|.|.|.|. X|. X|.|.|._.n f.p.s.p.b .X.X.X.X.X.X.X.X.X.X.X.X.X.X.X.X.X.X.X.X.X.X.X.X.X.X.X.X.X.X.X.X.X.X",
".X.X.X.X.X.X.X.X.X.X.X.X.X.X.X.X.X6.|. X|.|.[.).|.[.^.|.|.|.|.|.|.|.y.h v.v.{ ' .X.X.X.X.X.X.X.X.X.X.X.X.X.X.X.X.X.X.X.X.X.X.X.X.X.X.X.X.X.X.X.X.X.X",
".X.X.X.X.X.X.X.X.X.X.X2 d P g s # w.|.D.(.^.y.D.V.5.Q.|.|.(.2.[ K.|.|._ U P u.t.$ f . $ .X.X.X.X.X.X.X.X.X.X.X.X.X.X.X.X.X.X.X.X.X.X.X.X.X.X.X.X.X.X",
".X.X.X.X.X.X.X.X.XZ : a.T.c.a.i.! s N <.c  .5.|.N _  X(._ ` 2.D.S.[.|.(.[ e.|._ p 2.a z .X.X.X.X.X.X.X.X.X.X.X.X.X.X.X.X.X.X.X.X.X.X.X.X.X.X.X.X.X.X",
".X.X.X.X.X.X.X.XQ.-.~ x.L J J L ~ ^ > [ y.V e A.w a =.% O u.L.|.[._. X|.|.|.Q.i . O |.^.` .X.X.X.X.X.X.X.X.X.X.X.X.X.X.X.X.X.X.X.X.X.X.X.X.X.X.X.X.X",
".X.X.X.X.X.X.X+.|.h D D 1 4 D G F D , m |.|.e. .0.V i O e.I.I.|.|.|.|.|.(.2.5.X.=   +.|.|.y.V .X.X.X.X.X.X.X.X.X.X.X.X.X.X.X.X.X.X.X.X.X.X.X.X.X.X.X",
".X.X.X.X.X.X.XA.|.6.  X 5 4 K 4 4 H ; 0.|. X|.(.|.|.^.u.0.X.X.r.n.5.5.S.0. .8.I.f   i |.|.|.).A .X.X.X.X.X.X.X.X.X.X.X.X.X.X.X.X.X.X.X.X.X.X.X.X.X.X",
".X.X.X.X.X.XA ).|.|.u   : 6 6     @ 7 ].|. X[.|. X[.|.|. Xu.[ ` u.V.5.+.' C.(.|.z   * [.|.|.|.|.[ .X.X.X.X.X.X.X.X.X.X.X.X.X.X.X.X.X.X.X.X.X.X.X.X.X",
".X.X.X.X.X.X+.|.[.|.|.= X < X   + l ^.|. X|.{. X X{.[.[.[.|.|.^.A.{.|.|.e.X. X|.N . % ).|.|.|.|.|.+..X.X.X.X.X.X.X.X.X.X.X.X.X.X.X.X.X.X.X.X.X.X.X.X",
".X.X.X.X.X.X+.|.[.'.|. X- 3 ) V. X|.|.|.+.2.|.[ o.|.|.{.|.'.^.|.|.'.[.[.|.5.e.|.b   % ).|.|.|.}.|.|.=..X.X.X.X.X.X.X.X.X.X.X.X.X.X.X.X.X.X.X.X.X.X.X",
".X.X.X.X.X.XX.|._._.|.|.,.].|.|.|.'.}.|.+.i ).X.x =.5.6.e.V V.|.[._.[.'.{.^.5.{.a + = A.|.|. X|.|.|.|._ .X.X.X.X.X.X.X.X.X.X.X.X.X.X.X.X.X.Xb .X.X.X",
".X.X.X.X.X.X_ ^.|.|.^.o.b L.|.[.'.[.P.[.A.2.y.V C 2.I.^.K.[ _ |.{.).'._.{.(.+.K.i % y.q * V. X|. X X|. Xw .X.X.X.X.X.X.X.X.X.X.X.X.X.X.X.XD.X..X.X.X",
".X.X.X.X.X.X.XA y.5.[ y.)._ u.|.{.|.2.C A.,.X._ |.|.[.[. X|.2.<. X'.'.'.[.D.e.D.0 $ * 2.e.^.|. X|. X X|.A.z +..X.X.X.X.X.X.X.X.X.X.X.X.X|._ .X.X.X.X",
".X.X.X.X.X.X.X' 6.V.|.|.|.).[ X.).|.I.v v N S.|.{.).[.'.).[.{.A.^._.).|.L.e.K.V.& O q 2.I.|.{. X X X X X|.V.D.=.q v .X.X.X.X.X.X.X.Xe |.V..X.X.X.X.X",
".X.X.X.X.X.X.X2.|.'.H.L._. X|.5._ 2.X._ u. X|.).|.}.K.^._.).'. X).).|./.<.r.^.} . + + Q. X X{. X X X X X|.I.5.|.I.2.^.|..X.X.X.X.XX.|.(..X.X.X.X.X.X",
".X.X.X.X.X.X.X.X'  .8.I.'.)._.|.y.C V.}.|.[.|.[.5.[ V.(._.).).(.).|.Q.,.4.C.I.w $ o A |. X{.{. X{.{.{.{.{.|.k.K.|.|. X|.|.i .Xv ^.|.L..X.X.X.X.X.X.X",
".X.X.X.X.X.X.X.X.X.X5.|._._.)./.[.|.|.(.).^.S.X.b y.|.`.(.).(.[.}.D.>.>.0.W.+.$ $ $ ).|.[.{.{.{.{.{.[.[.{. X).D. X X{.[.|.S.' |.|.Z..X.X.X.X.X.X.X.X",
".X.X.X.X.X.X.X.X.X.X.X[ (.}.)._._.(.).(.).Q.A.L.|.{.^./.^.(.{.).M.o.>.<.8.K.% &   R |.{.{.[.[.{.'.{.[.[.[.[. X(._.{.[.[.[.|.P.|.9..X.X.X.X.X.X.X.X.X",
".X.X.X.X.X.X.X.X.X.X.X.XV A A.`.{.).(.{.'.'.[.(.^.^.^.(.).'.H.,. .,.,.,.P.t % O I.V |.[.[.{.{.[.{.{.[.{.[.[.[.{.[.[.[.[.[.[.|.C = .X.X.X.X.X.X.X.X.X",
".X.X.X.X.X.X.X.X.X.X.X.X.X.X.Xv [ r.G.K.G.I.(./.).).).^.Z.3.| +.<.o.,.W.V % $ e = = b ).{.[.[.{.{.[.'.{.[.[.'.'._.[._.[.[.[.|.2..X.X.X.X.X.X.X.X.X.X",
".X.X.X.X.X.X.X.X.X.X.X.X.X.X.X.X.Xl  .' 4.y.5.1.0.8.1.O.>.>.Z.t.' M.L.z o % % $ V +.) I.[.{.[.[.{.K.Z.{.[.{.[.'._.'.'._.'.'.[.[.X..X.X.X.X.X.X.X.X.X",
".X.X.X.X.X.X.X.X.X.X.X.X.X.X.X.X.X.X.X.X ._ o.O.3.8.7.1.+.N.!.N.C.2.8   + % # H.2.C.|.'.[.'.'.[.|.X.H. X{.^.(.'.'.). XA.Q.'._.|.X..X.X.X.X.X.X.X.X.X",
".X.X.X.X.X.X.X.X.X.X.X.X.X.X.X.X.X.X.X.X.X.X.X<.} N _ +.+.5.] l * + o i   q V.L.V K.{.)._.).).|.5.X.|.[.I.5.k.L. X/.^.8.L.'.).|.2..X.X.X.X.X.X.X.X.X",
".X.X.X.X.X.X.X.X.X.X.X.X.X.X.X.X.X.X.X.X.X.X.X.X+     + +     .     i A.V L.C.0.A P.{.).).).{.W._ /.{.}.k._ } /.[._.e.2.'._.).|.A..X.X.X.X.X.X.X.X.X",
".X.X.X.X.X.X.X.X.X.X.X.X.X.X.X.X.X.X.X.X.X.X.X.X.XV % + z ` = 8 a <.c e l 8.5.t._ L.[.(.(.).}.X.y.|.). X2.w V.|.'.}.c =.|.'.(.[.I..X.X.X.X.X.X.X.X.X",
".X.X.X.X.X.X.X.X.X.X.X.X.X.X.X.X.X.X.X.X.X.X.X.X.X8.m.+.p A 5.H.G.H.y.C.0 [ 5.r.O.K.[.(.(.{.C.e.|./._.{.V ) |.'.}.e.$ 6._.(.).)./.) .X.X.X.X.X.X.X.X",
".X.X.X.X.X.X.X.X.X.X.X.X.X.X.X.X.X.X.X.X.X.X.X.X.XO.[.[ $ o.4.4.8.3.2.r.,.+.4.r.X.A.{.(.(.).D.)._./._./.( H.|.^.D.C N K.(.S.^.)._.A .X.X.X.X.X.X.X.X",
".X.X.X.X.X.X.X.X.X.X.X.X.X.X.X.X.X.X.X.X.X.X.X.X.Xy.E.e.V 2.3.3.3.e.0.2.3.3.1.e.[ V.'.^.^.^.[.K.A._._.I._ k.G.5.8.4.m.e.}.5.8.|.{._ .X.X.X.X.X.X.X.X",
".X.X.X.X.X.X.X.X.X.X.X.X.X.X.X.X.X.X.X.X.X.X.X.X.XH.G.e.8.5.3.,.1.1.3.4.3.<.<.<.O.!././.~.~.{.e.2.}.`.C.X.<.>.q.X.a 0.u.I.C. .}.|.] .X.X.X.X.X.X.X.X",
".X.X.X.X.X.X.X.X.X.X.X.X.X.X.X.X.X.X.X.X.X.X.X.X_ E.C.5.e.C.C.,.<.3.] | q.<.<. .X.`.Q.Q.W.Q.`.N.3.{.Q.3.' 8.<.r.C .XA +.Z.{.O.Z.|.+..X.X.X.X.X.X.X.X",
".X.X.X.X.X.X.X.X.X.X.X.X.X.X.X.X.X.X.X.X.X.X.X.X_ `.m.5.e.5.C.8.<.3.>.x B 4.1.' O.'.Q.Q.Q.Q.~.H.Z.'.W._ ) 7.q.C .X.X.XB 3.`.5.o.|.5..X.X.X.X.X.X.X.X",
".X.X.X.X.X.X.X.X.X.X.X.X.X.X.X.X.X.X.X.X.X.X.X.X+.'.t.u.,.X.r.e.+.' 0.7.l B 1.' 1.}.!.W.W.W.Q.E./.W.4.A <.r.( .X.X.X.X.Xv C.M.3.[.r..X.X.X.X.X.X.X.X",
".X.X.X.X.X.X.X.X.X.X.X.X.X.X.X.X.X.X.X.X.X.X.X.X8./.8.u.c O.e.8.0.+.( ( q.O.>.| q.'.P.Q.E.I.I.Q.^.Z.' } <.k .X.X.X.X.X.X.XA q.Z.].t..X.X.X.X.X.X.X.X",
".X.X.X.X.X.X.X.X.X.X.X.X.X.X.X.X.X.X.X.X.X.X.X.XM.J.t.C N m.5.5.0.B.B .XC _ >.( y.A.M.~.E.P.P./.G.O.x ' +.v .X.X.X.X.X.X.XV ' Z.}.t..X.X.X.X.X.X.X.X",
".X.X.X.X.X.X.X.X.X.X.X.X.X.X.X.X.X.X.X.X.X.X.Xc B.F.} C 8.8.3.8.t.x .X.X.X.X.Xp N.3.m.Q.L.L.Q.H.M.i N u.A.+..X.X.X.X.X.X.X.XB N.^.C..X.X.X.X.X.X.X.X",
".X.X.X.X.X.X.X.X.X.X.X.X.X.X.X.X.X.X.X.X.X.X.X' J.M.} 8.e.3.q.q.k .X.X.X.X.X.X.X8.3.K.L.L.P.P.t.' .X5.G.V.N .X.X.X.X.X.X.X.X.XN.<.} _ .X.X.X.X.X.X.X",
".X.X.X.X.X.X.X.X.X.X.X.X.X.X.X.X.X.X.X.X.X.X.X .W.7.8.} o.r.5.y .X.X.X.X.X.X.X.X8.B.P.L.J.E.N.} A .X+._ } ,..X.X.X.X.X.X.X.XV m.m...( .X.X.X.X.X.X.X",
".X.X.X.X.X.X.X.X.X.X.X.X.X.X.X.X.X.X.X.X.X.X.X} !.8.O.B q.>.i .X.X.X.X.X.X.X.Xv M.E.J.G.P.Z.8.x .X.X[  .A [ .X.X.X.X.X.X.X.X.X) {.C.k .X.X.X.X.X.X.X",
".X.X.X.X.X.X.X.X.X.X.X.X.X.X.X.X.X.X.X.X.X.X' q.J.7.O.r. .c .X.X.X.X.X.X.X.X.Xv F.L.G.H.L.N.B .X.X.X,.E._ .X.X.X.X.X.X.X.X.X.X .L.F.C .X.X.X.X.X.X.X",
".X.X.X.X.X.X.X.X.X.X.X.X.X.X.X.X.X.X.X.X.X.X' `.2.' r.Z .X.X.X.X.X.X.X.X.X.X.X_ P.H.F.J.Z. .( .X.X[ `.X._ .X.X.X.X.X.X.X.X.X.X.Xr.!.Z .X.X.X.X.X.X.X",
".X.X.X.X.X.X.X.X.X.X.X.X.X.X.X.X.X.X.X.X.XV B.J.c ..] .X.X.X.X.X.X.X.X.X.X.X.X .E.F.F.J.M.N .X.Xz G./.B .X.X.X.X.X.X.X.X.X.X.X.X3.'....X.X.X.X.X.X.X",
".X.X.X.X.X.X.X.X.X.X.X.X.X.X.X.X.X.X.X.X.X' ~.4.O....X.X.X.X.X.X.X.X.X.X.X.X.XO.E.F.F.Z.) .X.X..4.L.B.c .X.X.X.X.X.X.X.X.X.X.XX.M.!.] .X.X.X.X.X.X.X",
".X.X.X.X.X.X.X.X.X.X.X.X.X.X.X.X.X.X.X.XV F.B.<.,.C .X.X.X.X.X.X.X.X.X.X.X.X.X<.P.B.F.M.l .X.Xl k ..p .X.X.X.X.X.X.X.X.X.X.X.X( M.m.>.( .X.X.X.X.X.X",
".X.X.X.X.X.X.X.X.X.X.X.X.X.X.X.X.X.X.X.X1.!.9.1.Z .X.X.X.X.X.X.X.X.X.X.X.X.X.X,.F.B.F.4.c .X.X.X.X.X.X.X.X.X.X.X.X.X.X.X.X.X.Xq N ,.| y .X.X.X.X.X.X",
".X.X.X.X.X.X.X.X.X.X.X.X.X.X.X.X.X.X* ( 1.9.1...C .X.X.X.X.X.X.X.X.X.X.X.X.Xl F.J.B.B.M.q .X.X.X.X.X.X.X.X.X.X.X.X.X.X.X.X.X.X.X.X.X.X.X.X.X.X.X.X.X",
".X.X.X.X.X.X.X.X.X.X.X.X.X.X.X.X.Xy 1.8.l 7.q.| a .X.X.X.X.X.X.X.X.X.X.X' 9 l F.<.M.B.7.k .X.X.X.X.X.X.X.X.X.X.X.X.X.X.X.X.X.X.X.X.X.X.X.X.X.X.X.X.X",
".X.X.X.X.X.X.X.X.X.X.X.X.X.X.X.X.Xi ( c x ' c N .X.X.X.X.X.X.X.X.X.X.X.X..3.!.| ( B.M.>.B .X.X.X.X.X.X.X.X.X.X.X.X.X.X.X.X.X.X.X.X.X.X.X.X.X.X.X.X.X",
".X.X.X.X.X.X.X.X.X.X.X.X.X.X.X.X.X.X.X.X.X.X.X.X.X.X.X.X.X.X.X.X.X.X.X.XN | E.) ) M.>.B .X.X.X.X.X.X.X.X.X.X.X.X.X.X.X.X.X.X.X.X.X.X.X.X.X.X.X.X.X.X",
".X.X.X.X.X.X.X.X.X.X.X.X.X.X.X.X.X.X.X.X.X.X.X.X.X.X.X.X.X.X.X.X.X.X.X.X.Xt = 9 y u .X.X.X.X.X.X.X.X.X.X.X.X.X.X.X.X.X.X.X.X.X.X.X.X.X.X.X.X.X.X.X.X",
".X.X.X.X.X.X.X.X.X.X.X.X.X.X.X.X.X.X.X.X.X.X.X.X.X.X.X.X.X.X.X.X.X.X.X.X.X.X.X.X.X.X.X.X.X.X.X.X.X.X.X.X.X.X.X.X.X.X.X.X.X.X.X.X.X.X.X.X.X.X.X.X.X.X",
".X.X.X.X.X.X.X.X.X.X.X.X.X.X.X.X.X.X.X.X.X.X.X.X.X.X.X.X.X.X.X.X.X.X.X.X.X.X.X.X.X.X.X.X.X.X.X.X.X.X.X.X.X.X.X.X.X.X.X.X.X.X.X.X.X.X.X.X.X.X.X.X.X.X",
".X.X.X.X.X.X.X.X.X.X.X.X.X.X.X.X.X.X.X.X.X.X.X.X.X.X.X.X.X.X.X.X.X.X.X.X.X.X.X.X.X.X.X.X.X.X.X.X.X.X.X.X.X.X.X.X.X.X.X.X.X.X.X.X.X.X.X.X.X.X.X.X.X.X",
".X.X.X.X.X.X.X.X.X.X.X.X.X.X.X.X.X.X.X.X.X.X.X.X.X.X.X.X.X.X.X.X.X.X.X.X.X.X.X.X.X.X.X.X.X.X.X.X.X.X.X.X.X.X.X.X.X.X.X.X.X.X.X.X.X.X.X.X.X.X.X.X.X.X",
".X.X.X.X.X.X.X.X.X.X.X.X.X.X.X.X.X.X.X.X.X.X.X.X.X.X.X.X.X.X.X.X.X.X.X.X.X.X.X.X.X.X.X.X.X.X.X.X.X.X.X.X.X.X.X.X.X.X.X.X.X.X.X.X.X.X.X.X.X.X.X.X.X.X",
".X.X.X.X.X.X.X.X.X.X.X.X.X.X.X.X.X.X.X.X.X.X.X.X.X.X.X.X.X.X.X.X.X.X.X.X.X.X.X.X.X.X.X.X.X.X.X.X.X.X.X.X.X.X.X.X.X.X.X.X.X.X.X.X.X.X.X.X.X.X.X.X.X.X"
};
