/* XPM */
static char *result[] = {
/* columns rows colors chars-per-pixel */
"74 75 203 2 ",
"   c #010101",
".  c #080807",
"X  c #0B0B0B",
"o  c #080707",
"O  c #1A0000",
"+  c #141414",
"@  c #1A1A1A",
"#  c #171A1A",
"$  c #3B0000",
"%  c #340000",
"&  c #241C1D",
"*  c #2A1E1E",
"=  c #2B1112",
"-  c #242424",
";  c #2B2B2B",
":  c #272D2D",
">  c #362828",
",  c #3B302F",
"<  c #333333",
"1  c #3D3D3D",
"2  c #3B3636",
"3  c #4D0001",
"4  c #560607",
"5  c #4D1C1B",
"6  c #541111",
"7  c #670101",
"8  c #781211",
"9  c #6A1A1C",
"0  c #4D2B2B",
"q  c #563233",
"w  c #512B2D",
"e  c #652425",
"r  c #68292B",
"t  c #7C292B",
"y  c #70292D",
"u  c #6C2F32",
"i  c #683637",
"p  c #75393D",
"a  c #443F40",
"s  c #3F5050",
"d  c #294847",
"f  c #444444",
"g  c #464749",
"h  c #4C4C4C",
"j  c #4A4647",
"k  c #5A4A4B",
"l  c #504F50",
"z  c #535354",
"x  c #56595B",
"c  c #5C5D5D",
"v  c #545658",
"b  c #694444",
"n  c #794547",
"m  c #7D4E52",
"M  c #685A5A",
"N  c #775556",
"B  c #745F5F",
"V  c #7A5A5B",
"C  c #5C5E61",
"Z  c #6E5C60",
"A  c #755F60",
"S  c #5A6466",
"D  c #646465",
"F  c #646669",
"G  c #6C6C6D",
"H  c #6A6667",
"J  c #776767",
"K  c #696F72",
"L  c #6F7275",
"P  c #6E7679",
"I  c #737374",
"U  c #747678",
"Y  c #75797B",
"T  c #7A7B7C",
"R  c #7C7376",
"E  c #921619",
"W  c #842A2C",
"Q  c #892F31",
"!  c #962F31",
"~  c #8A3A3D",
"^  c #943335",
"/  c #8A4848",
"(  c #9D474A",
")  c #875858",
"_  c #8B5457",
"`  c #866D6E",
"'  c #896466",
"]  c #94696C",
"[  c #8D6F70",
"{  c #936C70",
"}  c #8C7373",
"|  c #827F7F",
" . c #8A7A7B",
".. c #977576",
"X. c #AA6467",
"o. c #B76868",
"O. c #B16E74",
"+. c #A27D7D",
"@. c #7F807F",
"#. c #7C7E81",
"$. c #977F83",
"%. c #7F8183",
"&. c #7F868B",
"*. c #828384",
"=. c #828689",
"-. c #86888A",
";. c #8B8B8C",
":. c #8B8284",
">. c #9F8181",
",. c #908C8C",
"<. c #8B8E91",
"1. c #8C9194",
"2. c #8E959B",
"3. c #929395",
"4. c #939699",
"5. c #95999C",
"6. c #9A9B9C",
"7. c #999696",
"8. c #A38586",
"9. c #AA8C8C",
"0. c #AD8587",
"q. c #B88E8E",
"w. c #AA979A",
"e. c #BD9B9B",
"r. c #A0A09F",
"t. c #979DA1",
"y. c #9B9EA2",
"u. c #AF9BA1",
"i. c #9DA1A4",
"p. c #9FA4A9",
"a. c #98A4A8",
"s. c #9BAAB1",
"d. c #A3A4A5",
"f. c #AFA3A5",
"g. c #A3A6A9",
"h. c #A5A9AC",
"j. c #AAABAC",
"k. c #B1AFAE",
"l. c #B0B0AF",
"z. c #ABAEB1",
"x. c #A6ACB1",
"c. c #B3AEB1",
"v. c #ADB2B5",
"b. c #A9B3B7",
"n. c #B3B3B4",
"m. c #B3B6B9",
"M. c #B5B9BD",
"N. c #BABCBD",
"B. c #BDB3B5",
"V. c #CB9C9C",
"C. c #C29393",
"Z. c #D99091",
"A. c #E99C9B",
"S. c #CFA09F",
"D. c #CAA2A1",
"F. c #D4AAAB",
"G. c #D9ACAD",
"H. c #C7B6BB",
"J. c #DCB2B2",
"K. c #E8A5A7",
"L. c #E5BAB9",
"P. c #EBBDBD",
"I. c #ADBCC1",
"U. c #B6BCC3",
"Y. c #BCBEC1",
"T. c #BDC1C4",
"R. c #BBC2C7",
"E. c #BDCBD3",
"W. c #C2C3C4",
"Q. c #C3C6C9",
"!. c #C6CACD",
"~. c #CACBCD",
"^. c #C6CBD1",
"/. c #CBCFD2",
"(. c #CDD2D4",
"). c #C9D6DA",
"_. c #D2D3D5",
"`. c #D4D6D9",
"'. c #D5D9DC",
"]. c #DCDCDD",
"[. c #D3CCD4",
"{. c #FACACA",
"}. c #F7C4C3",
"|. c #FFD5D4",
" X c #D4DDE2",
".X c #DADEE1",
"XX c #DDE1E4",
"oX c #DBE7F4",
"OX c #E2E3E5",
"+X c #E4E6E9",
"@X c #E7E9EB",
"#X c #EBEBED",
"$X c #EDEFF1",
"%X c #E4ECF1",
"&X c #FFEFF1",
"*X c #EEF0F3",
"=X c #ECFAFB",
"-X c #F2F3F5",
";X c #F5F6F9",
":X c #F6F9FC",
">X c #FDFDFE",
",X c #FAF3F2",
"<X c None",
/* pixels */
"<X<X<X<X<X<X<X<X<X<X<X<X<X<X<X<X<X<X<X<X<X<X<X<X<X<X<X<X<X<X<X<X<X<X<X<X<X<X<X<X<X<X<X<X<X<X<X<X<X<X<X<X<X<X<X<X<X<X<X<X<X<X<X<X<X<X<X<X<X<X<X<X<X<X",
"<X<X<X<X<X<X<X<X<X<X<X<X<X<X<X<X<X<X<X<X<X<X<X<X<X<X<X<X<X<X<X<X<X<X<X<X<X<X<X<X<X<X<X<X<X<X<X<X<X<X<X<X<X<X<X<X<X<X<X<X<X<X<X<X<X<X<X<X<X<X<X<X<X<X",
"<X<X<X<X<X<X<X<X<X<X<X<X<X<X<X<X<X<X<X<X<X<X<X<X<X<X<X<X<X<X<X<X<X<X<X<X<X<X<X<X<X<X<X<X<X<X<X<X<X<X<X<X<X<X<X<X<X<X<X<X<X<X<X<X<X<X<X<X<X<X<X<X<X<X",
"<X<X<X<X<X<X<X<X<X<X<X<X<X<X<X<X<X<X<X<X<X<X<X<X<X<X<X<X<X<X<X<X<X<X<X<X<X<X<X<X<X<X<X<X<X<X<X<X<X<X<X<X<X<X<X<X<X<X<X<X<X<X<X<X<X<X<X<X<X<X<X<X<X<X",
"<X<X<X<X<X<X<X<X<X<X<X<X<X<X<X<X<X<X<X<X<X<X<X<X<X<X<X<X<X<X<X<X<X<X<X<X<X<X<X<X<X<X<X<X<X<X<X<X<X<X<X<X<X<X<X<X<X<X<X<X<X<X<X<X<X<X<X<X<X<X<X<X<X<X",
"<X<X<X<X<X<X<X<X<X<X<X<X<X<X<X<X<X<X<X<X<X<X<X<X<X<X<X<X<X<X<X<X<X<X<X<X<X<X<X<X<X<X<X<X<X<X<X<X<X<X<X<X<X<X<X<X<X<X<X<X<X<X<X<X<X<X<X<X<X<X<X<X<X<X",
"<X<X<X<X<X<X<X<X<X<X<X<X<X<X<X<X<X<X<X<X<X<X<X<X<X<X<X<X<X<X<X<X<X<X<X<X<X<X<X<X<X<X<X<X<X<X<X<X<X<X<X<X<X<X<X<X<X<X<X<X<X<X<X<X<X<X<X<X<X<X<X<X<X<X",
"<X<X<X<X<X<X<X<X<X<X<X<X<X<X<X<X<X<X<X<X<X<X<X<X<X<X<X<X<X<X<X<X<X<X<X<X<X<X<X<X<X<X<X<X<X<X<X<X<X<X<X<X<X<X<X<X<X<X<X<X<X<X<X<X<X<X<X<X<X<X<X<X<X<X",
"<X<X<X<X<X<X<X<X<X<X<X<X<X<X<X<X<X<X<X<X<X, <X<X<X<X<X<X<X<X<X<X<X<X<X<X<X<X<X<X<X<X<X<X<X<X<X<X<X<X<X<X<X<X<X<X<X<X<X<X<X<X<X<X<X<X<X<X<X<X<X<X<X<X",
"<X<X<X<X<X<X<X<X<X<X<X<X<X<X<X<X<X<X<X<X} G.<X<X<X<X<X<X<X<X<X<X<X<X<X<X<X<X<X<X<X<X<X<X<X<X<X<X<X<X<X<X<X<X<X<X<X<X<X<X<X<X<X<X<X<X<X<X<X<X<X<X<X<X",
"<X<X<X<X<X<X<X<X<X<X<X<X<X<X<X<X<X<X<X<XG.e.: <X<X<X<X<X<X<X<X<X<X<X<X<X<X<X<X<X<X<X<X<X<X<X<X<X<X<X<X<X<X<X<X<X<X<X<X<X<X<X<X<X<X<X<X<X<X<X<X<X<X<X",
"<X<X<X<X<X<X<X<X<X<X<X<X<X<X<X<X<X<X<Xj |.9.4.<X<X<X<X<X<X<X<X<X<X<X<X<X<X<X<X<X<X<Xh <X<X<X<X<X<X<X<X<X<X<X<X<X<X<X<X<X<X<X<X<X<X<X<X<X<X<X<X<X<X<X",
"<X<X<X<X<X<X<X<X<X<X<X<X<X<X<X<X<X<X<XM {.+.n.n.<X<X<X<X<X<X<X<X<X<X<X<X<X<X<X<X<Xj.$X| <X<X<X<X<X<X<X<X<X<X<X<X<X<X<X<X<X<X<X<X<X<X<X<X<X<X<X<X<X<X",
"<X<X<X<X<X<X<X<X<X<X<X<X<X<X<X<X<X<X<Xz D.P.B ;X*.<X<X<X<X<X<X<X<X<X<X<X<X<X<X<X~.>X>X6.<X<X<X<X<X<X<X<X<X<X<X<X<X<X<X<X<X<X<X<X<X<X<X<X<X<X<X<X<X<X",
"<X<X<X<X<X<X<X<X<X<X<X<X<X<X<X<X<X<X<X:.+.J.S.J >Xa <X<X<X<X<X<X<X<X<X<X<X<X<Xg.>X`.| <X<X<X<X<X<X<X<X<X<X<X<X<X<X<X<X<X<X<X<X<X<X<X<X<X<X<X<X<X<X<X",
"<X<X<X<X<X<X<X<X<X<X<X<X<X<X<X<X<X<X<XG q.9.L...n.~.<X<X<X<X<X<X<X<X<X<X<X<Xv.B.0.} <X<X<X<X<X<X<X<X<X<X<X<X<X<X<X<X<X<X<X<X<X<X<X<X<X<X<X<X<X<X<X<X",
"<X<X<X<X<X<X<X<X<X<X<X<X<X<X<X<X<X<X<X` G.8.V.V. .>X2 <X<X<X<X<X<X<X<X<X<X,.`.} ,X..<X<X<X<X<X<X<X<X<X<X<X<X<X<X<X<X<X<X<X<X<X<X<X<X<X<X<X<X<X<X<X<X",
"<X<X<X<X<X<X<X<X<X<X<X<X<X<X<X<X<X<Xa 8.M D T G D v 2 < ; +     <X<X<Xf @X>X:.C.{.} <X<X<X<X<X<X<X<X<X<X<X<X<X<X<X<X<X<X<X<X<X<X<X<X<X<X<X<X<X<X<X<X",
"<X<X<X<X<X<X<X<X<X<X<X<X<X<X<X<X<X<Xv 3.>X>X>X>X>X>X>X>X>XXXc .   <Xl.>X>X(.` J.{.} <X<X<X<X<X<X<X<X<X<X<X<X<X<X<X<X<X<X<X<X<X<X<X<X<X<X<X<X<X<X<X<X",
"<X<X<X<X<X<X<X<X<X<X<X<X<X<X<X<X<X<Xj.>X>X:X>X>X>X>X>X>X>X>X>X#X; 2 >X>X:XI V.V.L.} <X<X<X<X<X<X<X<X<X<X<X<X<X<X<X<X<X<X<X<X<X<X<X<X<X<X<X<X<X<X<X<X",
"<X<X<X<X<X<X<X<X<X<X<X<X<X<X<X<X<X;.XX>X:X:X>X>X>X>X>X;X;X>X>X>X>X].r.;XD q.{.9.J.` <X<X<X<X<X<X<X<X<X<X<X<X<X<X<X<X<X<X<X<X<X<X<X<X<X<X<X<X<X<X<X<X",
"<X<X<X<X<X<X<X<X<X<X<X<X<X<X<X<X<Xk.>X-X>X>X$X#X>X-XOX>X>X>X>X>X>X>X6.J V.F.L.J P.k <X<X<X<X<X<X<X<X<X<X<X<X<X<X<X<X<X<X<X<X<X<X<X<X<X<X<X<X<X<X<X<X",
"<X<X<X<X<X<X<X<X<X<X<Xq _ _ ) b * z.>X_.@X@XN.~.W.j.XX>X>X:Xn.:._.>X>XA L.e.>.>.P.& <X<X<X<X<X<X<X<X<X<X<X<X<X<X<X<X<X<X<X<X<X<X<X<X<X<X<X<X<X<X<X<X",
"<X<X<X<X<X<X<X<X<XY 5 A.}.K.Z.Z.o.b G j.D ;.j.>XG =.>XOX<.n ..`.~.-X>Xj.S.D.8.}.} l ~.<X<X<X<X<X<X<X<X<X<X<X<X<X<X<X<X<X<X<X<X<X<X<X<X<X<X<X<X<X<X<X",
"<X<X<X<X<X<X<X<X+Xu.o.K.~ W t / o.o.6 ,.N.R h W.h k  .d * 4 C.>X$X$X;X#X[ G.P.0.c 1 >X@X;.<X<X<X<X<X<X<X<X<X<X<X<X<X<X<X<X<X<X<X<X<X<X<X<X<X<X<X<X<X",
"<X<X<X<X<X<X<X6.>XV W W 9 e Q Q t t 7 V >X>Xn.,.M.[ 7 $ E ( #X>X>X>X>X>XJ V.) k.D   6.>X>XN.G <X<X<X<X<X<X<X<X<X<X<X<X<X<X<X<X<X<X<X<X<X<X<X<X<X<X<X",
"<X<X<X<X<X<X<X~.>Xj.  O e e ^ e e ! 3 v.>X;X>X+X:X>X&XV.) 7.,.d.j.j.N.$Xn.` j.-Xg   z >X>X>X#XI <X<X<X<X<X<X<X<X<X<X<X<X<X<X<X<X<XH <X<X<X<X<X<X<X<X",
"<X<X<X<X<X<XU $X>X>Xh   5 t t     % i =X>X;X-X>X:X-X>X>X>XT.T | j.~.B.3.T.>X>Xd.D . < ,X>X>X>X>X;.<X<X<X<X<X<X<X<X<X<X<X<X<X<X<X;.N.<X<X<X<X<X<X<X<X",
"<X<X<X<X<X<X6.>X-X>X>X2 O 8 O   # F XX>X;X>X-X>X>X-X-X-X-X>X>X+X_.-X>X>X~.;X>X6.G . ; #X>X>X>X>X>X6.<X<X<X<X<X<X<X<X<X<X<X<X<X<X].T <X<X<X<X<X<X<X<X",
"<X<X<X<X<X<X6.>X-X*X>X;X, w | N.-X>X>X>Xr.j.>X;.7.>X>X:X>X-XOX>X>X$X-X-X>X>Xl.-XG . ; $X>X>X>X:X>X>X6.<X<X<X<X<X<X<X<X<X<X<X<Xg.$X<X<X<X<X<X<X<X<X<X",
"<X<X<X<X<X<X<.>X$X-X:X>Xi.=X>X>X>X*X:X>X6.z $X7.D d.j.k.B.U W.>X$X-X-X-X;X-XW.;Xc X > OX>X>X;X>X>X>X>X*.<X<X<X<X<X<X<X<X<X<Xh >Xg.<X<X<X<X<X<X<X<X<X",
"<X<X<X<X<X<X*.+X>X>X+X7.G `.>X*X*X-X`.-X~.r.N.I I g.].OX`.;.*.>X-X$X#X-X-X#Xg.`.l + - #X>X_.-X>X>X:X>X;Xj <X<X<X<X<X<X<X<XG -X-X<X<X<X<X<X<X<X<X<X<X",
"<X<X<X<X<X<X<XT H.d.;.Y.#X*.n.>X-X>Xj.U ~.d.,.:.>X>X-X-X:X>Xi.u.;X$X*X#X-X[.n./.f + 1 ].W.@X>X,X>X>X;X>X~.D r.<X<X<X<X<X<X[.>X@.<X<X<X<X<X<X<X<X<X<X",
"<X<X<X<X<X<X<X-.n.Q.:X>X>X$X;.7.-X>X_.U G K !.>X-X#X-X$X#X*X:X~.OX-X#X>X'.n.`.W.< + h d.XX>X:X:X;X;X,X;X>XY.~.r.j I <X<Xn.>X^.<X<X<X<X<X<X<X<X<X<X<X",
"<X<X<X<X<X<X<Xg.>X=X`.].#X;X>Xj.| j.,.*.n.;X>X#X>X:X_.OX*X#X#X;X#X#X>X+Xd.n.OX,.X & @ ].>X,X;X;X:X,X:X;X>X].j.>XXXd.].j.>X:Xx <X<X<X<X<X<X<X<X<X<X<X",
"<X<X<X<X<X<X<X<X#.;.m.].-X#X$X>Xn.T Q.;X>X-X>X-Xj.;.T.#X$X#X#X#X$X>XXX6.h.Q.'.h   . d.-X-X;X;X;X;X;X;X;X-X>XW._.>X>X:X>X>X<.<X<X<X<X<X<X<X<X<X<X<X<X",
"<X<X<X<X<X<X<X<X<X<Xn.>X$X$X#X+X-X>X>X#X#X@XH.6.G N.>X$X#X@X@X-X;X(.5.4.v..X6.+ X ; :X;X-X;X;X;X;X;X-X-X,X:X#X~.;X>X:X-X>XOXG <X<X<X<X<X<X<X<X<X<X<X",
"<X<X<X<X<X<X<X<X<X<X<X-.OX:X#X$X#X#X@X@X#XOXQ.'.>X-X+X+X+X+X;X#XM.2.y.i.v.(.; ;   -.>X-X-X-X-X-X;X;X-X;X-X;X:X#X$X-X-X-X-X>X_.<X<X<X<X<X<X<X<X<X<X<X",
"<X<X<X<X<X<X<X<X<X<X<X<XI #.W.*X:X@X@X-X*X$X-X@XOXOXOX@X$X$X/.y.1.i.i.i.'.l ; @ < j.>X-X,X;X-X;X,X;X;X-X;X-X-X;X-X-X-X-X-X-X>X6.<X<X<X<X<X<X<X<X<X<X",
"<X<X<X<X<X<X<X<X<X<X<X<X<X<X<XI :.M.`.(.~.].@X@X#X#X@XOXQ.g.<.y.i.4.y.XXI @ ; . X `.:X;X-X;X;X-X,X*X@X;X;X*X*X*X-X$X$X-X-X-X>X~.<X<X<X<X<X<X<X<X<X<X",
"<X<X<X<X<X<X<X<X<X<X<X<X<X<X<X<X<XD 3.=.h.Y.h.p.v.v.a.2.t.t.^.M.*.M.'.F   - + < 7.OX:X-X-X-X-X-X:X~.n.>X-X-X-X-X$X$X$X#X-X$X-X-X7.<X<X<X<X<X<X<X<X<X",
"<X<X<X<X<X<X<X<X<X<X<X<X<X<X<X<X<X<X<X<X1.%.5.y.g.v.z.x.6.Y..XY.Q.i.1   @   @ (.d.Q.>X$X$X$X$X$X>X3._.:X-XOX+X*X$X$X;X~.XX-X$X>X7.<X<X<X<X<X<X<X<X<X",
"<X<X<X<X<X<X<X<X<X<X<X<X<X<X<X<X<X<X<X<X<X<X<X-.*.U T ;.6.z.6.C : & + o   g W.`.U `.;X#X#X$X#X>Xd.7.>X-X'.k.W.`.;X@XOXk.`.-X#X>Xg.<X<X<X<X<X<X<X<X<X",
"<X<X<X<X<X<X<X<X<X<X<X<X<X<X<X<X<X<X<X<X<X<X<X<X<X    @ @   X @     ; ; ,.'.W.z.T `.;X#X#X#X;XXX*.@X-X:XW.*.,.+X;X#Xn.d.$X$X#X>XQ.<X<X<X<X<X<X<X<X<X",
"<X<X<X<X<X<X<X<X<X<X<X<X<X<X<X<X<X<X<X<X<X<X<X<X<X<X; - ; - - - x U 6./.~.z.j.M.:._.-X@X@X#X:X4.N.>X#X;Xd.g W.>X*X:XF w.>X#X#X-X.X<X<X<X<X<X<X<X<X<X",
"<X<X<X<X<X<X<X<X<X<X<X<X<X<X<X<X<X<X<X<X<X<X<X<X<Xm.W.4.Q.v.m././.(.M.Q.j.z.h.m.5._.-X@X@X-XW.n.>X@X-X-XI @.>X-X>Xv.- c.$X@X$X#X#XT <X<X<X<X<X<X<X<X",
"<X<X<X<X<X<X<X<X<X<X<X<X<X<X<X<X<X<X<X<X<X<X<X<X<X5.-X;.y.M.x.h.M.i.g.m.h.h.h.m.7.~.-X+X@X@X_.#X$XOX$X@XY (.>X+X~.I I _.@XQ.OX#X$XT <X<X<X<X<X<X<X<X",
"<X<X<X<X<X<X<X<X<X<X<X<X<X<X<X<X<X<X<X<X<X<X<X<X<XM.].n.2.g.p.h.d.m.v.p.g.g.g.m.-.Q.*X+X+XOX-X_./.$X$X].:.W./.h.z.j.Y.n.;Xj.z.>X;X*.<X<X<X<X<X<X<X<X",
"<X<X<X<X<X<X<X<X<X<X<X<X<X<X<X<X<X<X<X<X<X<X<X<X<X(./.n.n.j.h.i.p.i.p.x.i.g.i.y.6.XX+XXXXX+X=Xm.u.:X%XQ.1.i.y.v.3.C n.m.].Q.3.:X:X<.<X<X<X<X<X<X<X<X",
"<X<X<X<X<X<X<X<X<X<X<X<X<X<X<X<X<X<X<X<X<X<X<X<X*..XQ.h.n.Q.T.y.y.g.=.<.v.i.i.1.4.%XXXXXXXXX#XT.g.=XOXg.-.x.i.m.U <XT 6.Q.;X5.!.>X6.<X<X<X<X<X<X<X<X",
"<X<X<X<X<X<X<X<X<X<X<X<X<X<X<X<X<X<X<X<X<X<X<X<X$.*XY.j.z.h.Q.z.y.h.y.F I h.p.&.5.-XXXXXXXXXXX(.!.*X].*.%.z.v.U <X<X<XG p.$Xg.5.>Xz.<X<X<X<X<X<X<X<X",
"<X<X<X<X<X<X<X<X<X<X<X<X<X<X<X<X<X<X<X<X<X<X<X<X2.$XM.m.u.3.M.z.5.<.b.x.C L p.=.i.:XXX.X.XXXXX.X+X.Xj.T a.m.#.<X<X<X<X<XG Q.N.g.-Xm.<X<X<X<X<X<X<X<X",
"<X<X<X<X<X<X<X<X<X<X<X<X<X<X<X<X<X<X<X<X<X<X<X<Xb.XXz.n.G 5.n.n.z.y.#.#.v.t.t.<.v.*X'..X.X.X'.XXXX!.-.<.y.C <X<X<X<X<X<X<X#.v.!.-XM.<X<X<X<X<X<X<X<X",
"<X<X<X<X<X<X<X<X<X<X<X<X<X<X<X<X<X<X<X<X<X<X<X<XU.).M.U G Y.h.h.z.W.L <XI -.2.U T.~.R.XX'.'.'.+X^.5.D -.y.G <X<X<X<X<X<X<XI =.!.:XU.<X<X<X<X<X<X<X<X",
"<X<X<X<X<X<X<X<X<X<X<X<X<X<X<X<X<X<X<X<X<X<X<XG Q.^.<.Y z.x.h.z.U.D <X<X<X<X<Xz T.j.Y.XX'.`.XX/.M.v L m.~.6.<X<X<X<X<X<X<X<XK T.OXW.<X<X<X<X<X<X<X<X",
"<X<X<X<X<X<X<X<X<X<X<X<X<X<X<X<X<X<X<X<X<X<X<X#.'.M.<.z.m.g.z.M.C <X<X<X<X<X<X<Xz.g.).`.`.'.'.U.=.<Xk.~.W.I <X<X<X<X<X<X<X<X<XT.d.<.=.<X<X<X<X<X<X<X",
"<X<X<X<X<X<X<X<X<X<X<X<X<X<X<X<X<X<X<X<X<X<X<X3..Xx.h.1.4.M.x.z <X<X<X<X<X<X<X<Xx.T. X`._..XR.<.T <X6.*.<.6.<X<X<X<X<X<X<X<XI Y.U.1.#.<X<X<X<X<X<X<X",
"<X<X<X<X<X<X<X<X<X<X<X<X<X<X<X<X<X<X<X<X<X<X<X<.XXz.6.L v.5.v <X<X<X<X<X<X<X<XF Y. X[./.'.^.z.F <X<X-.1.T ;.<X<X<X<X<X<X<X<X<X%.;XQ.D <X<X<X<X<X<X<X",
"<X<X<X<X<X<X<X<X<X<X<X<X<X<X<X<X<X<X<X<X<X<X*.b.).z.5.m.2.F <X<X<X<X<X<X<X<X<XG /.`./.(.'.R.L <X<X<Xi..X*.<X<X<X<X<X<X<X<X<X<X<. X^.U <X<X<X<X<X<X<X",
"<X<X<X<X<X<X<X<X<X<X<X<X<X<X<X<X<X<X<X<X<X<X=.*Xg.=.m.Y <X<X<X<X<X<X<X<X<X<X<X*. X/./.).Q.1.#.<X<X;.%X4.T <X<X<X<X<X<X<X<X<X<X<Xb..X#.<X<X<X<X<X<X<X",
"<X<X<X<X<X<X<X<X<X<X<X<X<X<X<X<X<X<X<X<X<XI Y.`.F 1.<.<X<X<X<X<X<X<X<X<X<X<X<X3. X^.^.(.U.G <X<Xz  X+XI <X<X<X<X<X<X<X<X<X<X<X<Xx.*X1.<X<X<X<X<X<X<X",
"<X<X<X<X<X<X<X<X<X<X<X<X<X<X<X<X<X<X<X<X<X*.oXx.5.<.<X<X<X<X<X<X<X<X<X<X<X<X<X4. X!./.^.=.<X<Xp ] H.E.F <X<X<X<X<X<X<X<X<X<X<Xa.U.%X1.<X<X<X<X<X<X<X",
"<X<X<X<X<X<X<X<X<X<X<X<X<X<X<X<X<X<X<X<XU ^.E.y.y.Y <X<X<X<X<X<X<X<X<X<X<X<X<Xi.`.Q./.U.C <X<Xi r [ S <X<X<X<X<X<X<X<X<X<X<X<Xy m.c.] V <X<X<X<X<X<X",
"<X<X<X<X<X<X<X<X<X<X<X<X<X<X<X<X<X<X<X<Xs.oXx.y.#.<X<X<X<X<X<X<X<X<X<X<X<X<X<Xy.(.R.^.g.F <X<X<X<X<X<X<X<X<X<X<X<X<X<X<X<X<X<X6 n { m q <X<X<X<X<X<X",
"<X<X<X<X<X<X<X<X<X<X<X<X<X<X<X<X<X<X* } u.u.s.1.P <X<X<X<X<X<X<X<X<X<X<X<X<XK ^. XE.Q.b.g <X<X<X<X<X<X<X<X<X<X<X<X<X<X<X<X<X<X<X<X<X<X<X<X<X<X<X<X<X",
"<X<X<X<X<X<X<X<X<X<X<X<X<X<X<X<X<X3 ( w.r w.I.&.S <X<X<X<X<X<X<X<X<X<X<XV $ Z ).$.b.^.x.C <X<X<X<X<X<X<X<X<X<X<X<X<X<X<X<X<X<X<X<X<X<X<X<X<X<X<X<X<X",
"<X<X<X<X<X<X<X<X<X<X<X<X<X<X<X<X<X0 p b e N P L <X<X<X<X<X<X<X<X<X<X<X<X~ O./.$.n E.U.2.T <X<X<X<X<X<X<X<X<X<X<X<X<X<X<X<X<X<X<X<X<X<X<X<X<X<X<X<X<X",
"<X<X<X<X<X<X<X<X<X<X<X<X<X<X<X<X<X<X<X<X<X<X<X<X<X<X<X<X<X<X<X<X<X<X<X<Xu _ B.0.] b.p.K <X<X<X<X<X<X<X<X<X<X<X<X<X<X<X<X<X<X<X<X<X<X<X<X<X<X<X<X<X<X",
"<X<X<X<X<X<X<X<X<X<X<X<X<X<X<X<X<X<X<X<X<X<X<X<X<X<X<X<X<X<X<X<X<X<X<X<X<X0 > g q a <X<X<X<X<X<X<X<X<X<X<X<X<X<X<X<X<X<X<X<X<X<X<X<X<X<X<X<X<X<X<X<X",
"<X<X<X<X<X<X<X<X<X<X<X<X<X<X<X<X<X<X<X<X<X<X<X<X<X<X<X<X<X<X<X<X<X<X<X<X<X<X<X<X<X<X<X<X<X<X<X<X<X<X<X<X<X<X<X<X<X<X<X<X<X<X<X<X<X<X<X<X<X<X<X<X<X<X",
"<X<X<X<X<X<X<X<X<X<X<X<X<X<X<X<X<X<X<X<X<X<X<X<X<X<X<X<X<X<X<X<X<X<X<X<X<X<X<X<X<X<X<X<X<X<X<X<X<X<X<X<X<X<X<X<X<X<X<X<X<X<X<X<X<X<X<X<X<X<X<X<X<X<X",
"<X<X<X<X<X<X<X<X<X<X<X<X<X<X<X<X<X<X<X<X<X<X<X<X<X<X<X<X<X<X<X<X<X<X<X<X<X<X<X<X<X<X<X<X<X<X<X<X<X<X<X<X<X<X<X<X<X<X<X<X<X<X<X<X<X<X<X<X<X<X<X<X<X<X",
"<X<X<X<X<X<X<X<X<X<X<X<X<X<X<X<X<X<X<X<X<X<X<X<X<X<X<X<X<X<X<X<X<X<X<X<X<X<X<X<X<X<X<X<X<X<X<X<X<X<X<X<X<X<X<X<X<X<X<X<X<X<X<X<X<X<X<X<X<X<X<X<X<X<X",
"<X<X<X<X<X<X<X<X<X<X<X<X<X<X<X<X<X<X<X<X<X<X<X<X<X<X<X<X<X<X<X<X<X<X<X<X<X<X<X<X<X<X<X<X<X<X<X<X<X<X<X<X<X<X<X<X<X<X<X<X<X<X<X<X<X<X<X<X<X<X<X<X<X<X",
"<X<X<X<X<X<X<X<X<X<X<X<X<X<X<X<X<X<X<X<X<X<X<X<X<X<X<X<X<X<X<X<X<X<X<X<X<X<X<X<X<X<X<X<X<X<X<X<X<X<X<X<X<X<X<X<X<X<X<X<X<X<X<X<X<X<X<X<X<X<X<X<X<X<X"
};
