/* XPM */
static char *result[] = {
/* columns rows colors chars-per-pixel */
"74 75 193 2 ",
"   c #020101",
".  c #090807",
"X  c #0B0B0B",
"o  c #0A0000",
"O  c #190505",
"+  c #10100F",
"@  c #0A1616",
"#  c #141414",
"$  c #1A1B1B",
"%  c #3C0303",
"&  c #301E1D",
"*  c #143736",
"=  c #242425",
"-  c #2B2B2C",
";  c #323232",
":  c #393A3A",
">  c #373838",
",  c #480808",
"<  c #5C0101",
"1  c #461616",
"2  c #5D1E1F",
"3  c #610F10",
"4  c #631516",
"5  c #761C1E",
"6  c #730908",
"7  c #60211F",
"8  c #791E21",
"9  c #4D3E3E",
"0  c #573839",
"q  c #682526",
"w  c #683737",
"e  c #782B2C",
"r  c #3D3F40",
"t  c #3D4043",
"y  c #434444",
"u  c #4B4B4C",
"i  c #584B4C",
"p  c #4F5152",
"a  c #535353",
"s  c #5B5C5C",
"d  c #585658",
"f  c #684645",
"g  c #794A4B",
"h  c #6E5C5B",
"j  c #775B5B",
"k  c #70605F",
"l  c #5B5E63",
"z  c #5E6165",
"x  c #626364",
"c  c #656669",
"v  c #6B6C6D",
"b  c #6A6566",
"n  c #786869",
"m  c #6B6E72",
"M  c #676B70",
"N  c #6E7174",
"B  c #737474",
"V  c #737679",
"C  c #76797B",
"Z  c #7B7B7C",
"A  c #7A7474",
"S  c #89171B",
"D  c #911E20",
"F  c #85282A",
"G  c #972528",
"H  c #89383A",
"J  c #953739",
"K  c #A53A3D",
"L  c #8D3E40",
"P  c #935354",
"I  c #9D5254",
"U  c #8A4C4D",
"Y  c #AE4D4E",
"T  c #A65657",
"R  c #876A6A",
"E  c #926C6C",
"W  c #8C7375",
"Q  c #847778",
"!  c #847B7C",
"~  c #8B7D7E",
"^  c #937474",
"/  c #9D7374",
"(  c #987A7A",
")  c #B6686A",
"_  c #A47A7B",
"`  c #B9797C",
"'  c #AD6567",
"]  c #C37679",
"[  c #B1807F",
"{  c #7B7E81",
"}  c #CD7F80",
"|  c #7E8284",
" . c #7E8489",
".. c #838485",
"X. c #838689",
"o. c #86898C",
"O. c #8A8C8C",
"+. c #888887",
"@. c #958D8D",
"#. c #978889",
"$. c #8C8E91",
"%. c #8D9194",
"&. c #8F9598",
"*. c #939495",
"=. c #929699",
"-. c #94999C",
";. c #9B9C9D",
":. c #A48383",
">. c #AC8989",
",. c #B58A8B",
"<. c #BC8889",
"1. c #B18F90",
"2. c #A49899",
"3. c #B39293",
"4. c #BF9998",
"5. c #9BA09F",
"6. c #969CA0",
"7. c #9A9EA2",
"8. c #9DA2A5",
"9. c #9EA6A9",
"0. c #A2A4A5",
"q. c #AAA5A5",
"w. c #A4A6A9",
"e. c #A5AAAD",
"r. c #ABABAC",
"t. c #A6ACB1",
"y. c #AAAEB1",
"u. c #B0AFB1",
"i. c #AEB1B4",
"p. c #AFB5B9",
"a. c #B2B3B4",
"s. c #B3B6BA",
"d. c #B5B9BD",
"f. c #BABBBB",
"g. c #B9B6B7",
"h. c #C58F91",
"j. c #C69999",
"k. c #D99597",
"l. c #CF888B",
"z. c #EA9F9E",
"x. c #CFA5A6",
"c. c #D3ABAB",
"v. c #DAACAC",
"b. c #D3A2A2",
"n. c #DDB0AF",
"m. c #C3BFBE",
"M. c #DCB3B4",
"N. c #EABBBA",
"B. c #E5B5B5",
"V. c #F8BDBE",
"C. c #F3ACAD",
"Z. c #B5BBC1",
"A. c #BBBEC2",
"S. c #BDC1C4",
"D. c #BFC5CB",
"F. c #C2C3C4",
"G. c #CBC4C5",
"H. c #C2C6C9",
"J. c #C6CACD",
"K. c #CBCBCD",
"L. c #C6CBD1",
"P. c #CBCED2",
"I. c #CDD1D5",
"U. c #CED4DA",
"Y. c #C5D4D4",
"T. c #D2D3D5",
"R. c #D3D6DA",
"E. c #D5D9DC",
"W. c #DADCDD",
"Q. c #DDD7D7",
"!. c #E3C5C7",
"~. c #F4C4C4",
"^. c #FFC8C9",
"/. c #EAD2D4",
"(. c #DBDFE2",
"). c #E6DFE0",
"_. c #DCE1E4",
"`. c #DEE4EA",
"'. c #D5E2E2",
"]. c #E3E4E5",
"[. c #E5E7E9",
"{. c #E7E8EB",
"}. c #EAEBED",
"|. c #E8E2E5",
" X c #EDEFF1",
".X c #E1E7F1",
"XX c #EEF1F3",
"oX c #E9F7F9",
"OX c #F2F3F5",
"+X c #F5F6F9",
"@X c #F6FAFA",
"#X c #FDFEFE",
"$X c None",
/* pixels */
"$X$X$X$X$X$X$X$X$X$X$X$X$X$X$X$X$X$X$X$X$X$X$X$X$X$X$X$X$X$X$X$X$X$X$X$X$X$X$X$X$X$X$X$X$X$X$X$X$X$X$X$X$X$X$X$X$X$X$X$X$X$X$X$X$X$X$X$X$X$X$X$X$X$X",
"$X$X$X$X$X$X$X$X$X$X$X$X$X$X$X$X$X$X$X$X$X$X$X$X$X$X$X$X$X$X$X$X$X$X$X$X$X$X$X$X$X$X$X$X$X$X$X$X$X$X$X$X$X$X$X$X$X$X$X$X$X$X$X$X$X$X$X$X$X$X$X$X$X$X",
"$X$X$X$X$X$X$X$X$X$X$X$X$X$X$X$X$X$X$X$X$X$X$X$X$X$X$X$X$X$X$X$X$X$X$X$X$X$X$X$X$X$X$X$X$X$X$X$X$X$X$X$X$X$X$X$X$X$X$X$X$X$X$X$X$X$X$X$X$X$X$X$X$X$X",
"$X$X$X$X$X$X$X$X$X$X$X$X$X$X$X$X$X$X$X$X$X$X$X$X$X$X$X$X$X$X$X$X$X$X$X$X$X$X$X$X$X$X$X$X$X$X$X$X$X$X$X$X$X$X$X$X$X$X$X$X$X$X$X$X$X$X$X$X$X$X$X$X$X$X",
"$X$X$X$X$X$X$X$X$X$X$X$X$X$X$X$X$X$X$X$X$X$X$X$X$X$X$X$X$X$X$X$X$X$X$X$X$X$X$X$X$X$X$X$X$X$X$X$X$X$X$X$X$X$X$X$X$X$X$X$X$X$X$X$X$X$X$X$X$X$X$X$X$X$X",
"$X$X$X$X$X$X$X$X$X$X$X$X$X$X$X$X$X$X$X$X$X$X$X$X$X$X$X$X$X$X$X$X$X$X$X$X$X$X$X$X$X$X$X$X$X$X$X$X$X$X$X$X$X$X$X$X$X$X$X$X$X$X$X$X$X$X$X$X$X$X$X$X$X$X",
"$X$X$X$X$X$X$X$X$X$X$X$X$X$X$X$X$X$X$X$X$X$X$X$X$X$X$X$X$X$X$X$X$X$X$X$X$X$X$X$X$X$X$X$X$X$X$X$X$X$X$X$X$X$X$X$X$X$X$X$X$X$X$X$X$X$X$X$X$X$X$X$X$X$X",
"$X$X$X$X$X$X$X$X$X$X$X$X$X$X$X$X$X$X$X$X$X$X$X$X$X$X$X$X$X$X$X$X$X$X$X$X$X$X$X$X$X$X$X$X$X$X$X$X$X$X$X$X$X$X$X$X$X$X$X$X$X$X$X$X$X$X$X$X$X$X$X$X$X$X",
"$X$X$X$X$X$X$X$X$X$X$X$X$X$X$X$X$X$X$X$X$X$X$X$X$X$X$X$X$X$X$X$X$X$X$X$X$X$X$X$X$X$X$X$X$X$X$X$X$X$X$X$X$X$X$X$X$X$X$X$X$X$X$X$X$X$X$X$X$X$X$X$X$X$X",
"$X$X$X$X$X$X$X$X$X$X$X$X$X$X$X$X$X$X$X$X$X$X$X$X$X$X$X$X$X$X$X$X$X$X$X$X$X$X$X$X$X$X$X$X$X$X$X$X$X$X$X$X$X$X$X$X$X$X$X$X$X$X$X$X$X$X$X$X$X$X$X$X$X$X",
"$X$X$X$X$X$X$X$X$X$X$X$X$X$X$X$X$X$X$X$X$X$X$X$X$X$X$X$X$X$X$X$X$X$X$X$X$X$X$X$X$X$X$X$X$X$X$X$X$X$X$X$X$X$X$X$X$X$X$X$X$X$X$X$X$X$X$X$X$X$X$X$X$X$X",
"$X$X$X$X$X$X$X$X$X$X$X$X$X$X$X$X$X$X$X$X$X$X$X$X$X$X$X$X$X$X$X$X$X$X$X$X$X$X$X$X$X$X$X$X$X$X$X$X$X$X$X$X$X$X$X$X$X$X$X$X$X$X$X$X$X$X$X$X$X$X$X$X$X$X",
"$X$X$X$X$X$X$X$X$X$X$X$X$X$X$X$X$X$X$X$X$X$X$X$X$X$X$X$X$X$X$X$X$X$X$X$X$X$X$X$X$X$X$X$X$X$X$X$X$X$X$X$X$X$X$X$X$X$X$X$X$X$X$X$X$X$X$X$X$X$X$X$X$X$X",
"$X$X$X$X$X$X$X$X$X$X$X$X$X$X$X$X$X$X$X$X$X$X$X$X$X$X$X$X$X$X$X$X$X$X$X$X$X$X$X$X$X$X$X$X$X$X$X$X$X$X$X$X$X$X$X$X$X$X$X$X$X$X$X$X$X$X$X$X$X$X$X$X$X$X",
"$X$X$X$X$X$X$X$X$X$X$X$X$X$X$X$X$X$X$X$X$X$X$X$X$Xn $X$X$X$X$X$X$X$X$X$X$X$X$X$X$X$X$X$X$X$X$X$X$X$X$X$X$X$X$X$X$X$X$X$X$X$X$X$X$X$X$X$X$X$X$X$X$X$X",
"$X$X$X$X$X$X$X$X$X$X$X$X$X$X$X$X$X$X$X$X$X$X$X$XW ^ $X$X$X$X$X$X$X$X$X$X*.f.$X$X$X$X$X$X$X$X$X$X$X$X$X$X$X$X$X$X$X$X$X$X$X$X$X$X$X$X$X$X$X$X$X$X$X$X",
"$X$X$X$X$X$X$X$X$X$X$X$X$X$X$X$X$X$X$X$X$X$X$Xh ^.h $X$X$X$X$X$X$X$X$X*.#X).$X$X$X$X$X$X$X$X$X$X$X$X$X$X$X$X$X$X$X$X$X$X$X$X$X$X$X$X$X$X$X$X$X$X$X$X",
"$X$X$X$X$X$X$X$X$X$X$X$X$X$X$X$X$X$X$X$X$X$X$Xh.M.d $X$X$X$X$X$X$X$X+.OXXX..$X$X$X$X$X$X$X$X$X$X$X$X$X$X$X$X$X$X$X$X$X$X$X$X$X$X$X$X$X$X$X$X$X$X$X$X",
"$X$X$X$X$X$X$X$X$X$X$X$X$X$X$X$X$X$X$X$X$X$Xn ~.>.*.u.$X$X$X$X$X$X$XO.G.k A $X$X$X$X$X$X$X$X$X$X$X$X$X$X$X$X$X$X$X$X$X$X$X$X$X$X$X$X$X$X$X$X$X$X$X$X",
"$X$X$X$X$X$X$X$X$X$X$X$X$X$X$X$X$X$X$X$X$X$Xb V.:.m.r.$X$X$X$X$X$X$XO._ N.~ $X$X$X$X$X$X$X$X$X$X$X$X$X$X$X$X$X$X$X$X$X$X$X$X$X$X$X$X$X$X$X$X$X$X$X$X",
"$X$X$X$X$X$X$X$X$X$X$X$X$X$X$X$X$X$X$X$X$X$XR v.b.#.S.$X$X$X$X$X$Xq.m.4.N.~ $X$X$X$X$X$X$X$X$X$X$X$X$X$X$X$X$X$X$X$X$X$X$X$X$X$X$X$X$X$X$X$X$X$X$X$X",
"$X$X$X$X$X$X$X$X$X$X$X$X$X$X$X$X$X$X$X$X$XQ 4.3.N.^ S.5.$X$X$X$XZ #X2.,.~.^ $X$X$X$X$X$X$X$X$X$X$X$X$X$X$X$X$X$X$X$X$X$X$X$X$X$X$X$X$X$X$X$X$X$X$X$X",
"$X$X$X$X$X$X$X$X$X$X$X$X$X$X$X$X$X$X$X$X$X_ x.,.n._ g.H.$X$X$XZ @X#X@.,.b.,.$X$X$X$X$X$X$X$X$X$X$X$X$X$X$X$X$X$X$X$X$X$X$X$X$X$X$X$X$X$X$X$X$X$X$X$X",
"$X$X$X$X$X$X$X$X$X$X$X$X$X$X$X$X$X$X$X$Xb E R E _ j m.W.$X$X;.K.#XI.W v.#.b.! $X$X$X$X$X$X$X$X$X$X$X$X$X$X$X$X$X$X$X$X$X$X$X$X$X$X$X$X$X$X$X$X$X$X$X",
"$X$X$X$X$X$X$X$X$X$X$X$X$X$X$X$X$X$Xu b *.q.q.q.q.@.a.;.$X$X+.#X#X[ ,.~.^ j.k $X$X$X$X$X$X$X$X$X$X$X$X$X$X$X$X$X$X$X$X$X$X$X$X$X$X$X$X$X$X$X$X$X$X$X",
"$X$X$X$X$X$X$X$X$X$X$X$X$X$X$X$X$Xy a.#X#X#X#X#X#X#X+X[.T.u.0.a.8.! n.c.W x.d $X$X$X$X$X$X$X$X$X$X$X$X$X$X$X$X$X$X$X$X$X$X$X$X$X$X$X$X$X$X$X$X$X$X$X",
"$X$X$X$X$X$X$X$X$X$X$X$X$X$X$X$X$Xr.#X#XOX#X@X@X@X@X#X#X#X#X#XF.9 b.4.1.[ n.i $X$X$X$X$X$X$X$X$X$X$X$X$X$X$X$X$X$X$X$X$X$X$X$X$X$X$X$X$X$X$X$X$X$X$X",
"$X$X$X$X$X$X$X$X$X$X$X$X$X$X$X$X..OX#X@X#X#X#X#X#X#X@X@X@X#X#X#Xd.k N.3.c.>.z $X$X$X$X$X$X$X$X$X$X$X$X$X$X$X$X$X$X$X$X$X$X$X$X$X$X$X$X$X$X$X$X$X$X$X",
"$X$X$X$X$X$X$X$X$X$X$X$X$X$X$X$X0.#X#X#X#X[.OX@X|.OX#X#X#X#X#X#X#X+.^ B.v.#.| $X$X$X$X$X$X$X$X$X$X$X$X$X$X$X$X$X$X$X$X$X$X$X$X$X$X$X$X$X$X$X$X$X$X$X",
"$X$X$X$X$X$X$X$X$X$X0 w g f R a P.#XW.@XQ.a.Q.f.q.+X#X#X@Xe.*.}.#X Xk [ j F.O.> $X$X$X$X$X$X$X$X$X$X$X$X$X$X$X$X$X$X$X$X$X$X$X$X$X$X$X$X$X$X$X$X$X$X",
"$X$X$X$X$X$X$X=.s % z.V.C.z.) U f | *.s 8.K.#XZ a.@XoX~ H 2.K.G.#X#XF.Q g.#XB = q.q.$X$X$X$X$X$X$X$X$X$X$X$X$X$X$X$X$X$X$Xd $X$X$X$X$X$X$X$X$X$X$X$X",
"$X$X$X$X$X$X..'.( } k.U H H I ] T 1 e.f.s v ).y 3.W * 9 G j.#X}.OX+X#X#XOXT.d # O.#XF.Z $X$X$X$X$X$X$X$X$X$X$X$X$X$X$X$X$Xs $X$X$X$X$X$X$X$X$X$X$X$X",
"$X$X$X$X$X$X0.#XR Y F 4 q F F 8 H 4 q.#XOXO.%.-.T < 3 G K }.#X#X#X#X#X}.w.y.v : a #X#X@X;.$X$X$X$X$X$X$X$X$X$X$X$X$X$X$Xu.$.$X$X$X$X$X$X$X$X$X$X$X$X",
"$X$X$X$X$X$XR.#Xn   1 q q J q e G , Y.#X#X#X].#X#XQ.' G U 9.a.r.a.K.T.w.-.s.u.p $ f.#X#X#XG.A $X$X$X$X$X$X$X$X$X$X$X$X$Xa.q.$X$X$X$X$X$X$X$X$X$X$X$X",
"$X$X$X$X$X*.#X#X}.@   4 F 2     % h #X#XOXOX#XOX@X#X#X@Xa.A Z g.H.g.*.+.I. X X; p O.Z q.#X#X}.A $X$X$X$X$X$X$X$X$X$X$X$XK.u.$X$X$X$X$X$X$X$X$X$X$X$X",
"$X$X$X$X$Xr.#XXX#XE.O , 6 O   + n {.#XOXOX@XOXXXOX#X#X#X#X#X(.W.#X#X@X;.q.#X#X- v b X q.#X#X#X@XZ $X$X$X$X$X$X$X$X$X$X$X).r.$X$X$X$X$X$X$X$X$X$X$X$X",
"$X$X$X$Xa F.#XOXXX#XK.& f A d.#X#X@X#X*.m.#XZ a.#X!.h./.<.).#X+X}.OX@X#X*.T.#Xy . s #X#X#X#X#X#X@XB $X$X$X$X$X$X$X$X$X*.#X[ $X$X$X$X$X$X$X$X$X$X$X$X",
"$X$X$X$Xs a.#XOXXX#X].! #X#X#X#XXX@X#XA B #XC >.] J G G 5 [.#XXXOXOX X#Xf.0.OXy X s #X#X@X@X+X@X#X].A $X$X$X$X$X$X$X$XK._.$X$X$X$X$X$X$X$X$X$X$X$X$X",
"$X$X$X$X$X%.#X#X#Xh.q S l.#XOX X@XE.OXa.;.@.k _ c.oX@X|.W 2.#XXXOX}. X@XP.q.P.> # s #X|.Q.#X#X+X@X#XK.r $X$X$X$X$X$X+.#Xe.$X$X$X$X$X$X$X$X$X$X$X$X$X",
"$X$X$X$X$X$XT M.] I Y.OXG ` #X#X#XZ *.G.w.n 2.#X#X@XOX#X#X+.F.#X}.OXOXOXf.a.F.- # v +Xa.OX#X@X@X#X@X#X+.s $X$X$X$X$Xf.#XO.$X$X$X$X$X$X$X$X$X$X$X$X$X",
"$X$X$X$X$X$X_ k.M.#X#X#X}.L F !.#Xa.c w n `.#XXX}.OXOX}.@X].F.OXXX}.#XT.a.T.q.$ # c a.}.#X+X@X+X@X+X#X+Xu.T.+.- $X+.#XU.{ $X$X$X$X$X$X$X$X$X$X$X$X$X",
"$X$X$X$X$X$Xe.@XoXT.(. X#X@XW 8 ' I #.i.#X#X}.#XOXQ.{. X}.OX+X{.}.#XW.8.f.[.Z X # ; [.#X+X@X@X+X@X@X+X#Xf.g.#Xf.*.].#XX.$X$X$X$X$X$X$X$X$X$X$X$X$X$X",
"$X$X$X$X$X$XZ O.=.s.]. X}.XX#Xr.g G.#X#XOX#X@Xq.=.T. X X}.}.}.XX#XW.-.s.K.J.; # X ;.#XOX+X+X+X+X+X+X+X@X@Xr.}.#XOX@X#XQ.a $X$X$X$X$X$X$X$X$X$X$X$X$X",
"$X$X$X$X$X$X$X$Xv f.#X XXX}.[.OX#X#X}. X].J.X.v P.#X}.}.}.{.OX+XJ.-.-.i.].Z . = - #X@X+X+X+X+X+X+X+X@XOX#XQ.K.#X#XOXOX#Xq.$X$X$X$X$X$X$X$X$X$X$X$X$X",
"$X$X$X$X$X$X$X$X$XB r.OX X}. X X{.}.}.}.(.F.T.@XOX].[.].{.+X[.s.*.7.7.d.J.+ d O.v #XOXOXOX XOXOX X+XOXOXOXOX{.+XOXOXOX#X#X= $X$X$X$X$X$X$X$X$X$X$X$X",
"$X$X$X$X$X$X$X$X$X$X$XB *.(.OXXX{.XXOX XOX X{.].(._.[. XXXP.6.&.8.7.8.R.u . y a ; +.#X}.}.}.}.{. X+XOXOXOXOXOXOXOXOXOXOX#Xp $X$X$X$X$X$X$X$X$X$X$X$X",
"$X$X$X$X$X$X$X$X$X$X$X$X$X..Z q.J.T.I.T.{.XX}. X}. X].K.0.$.7.7.=.w.(.z . ;   ; F.f.}. X}.}.}.{.}.). XOXOXXXXXOXOXOXOXXX#XZ $X$X$X$X$X$X$X$X$X$X$X$X",
"$X$X$X$X$X$X$X$X$X$X$X$X$X$X$Xx C X.X.i.s.t.y.s.s.e.=.6.8.P.9.o.Z.T.a   -   > w.#X#XOX}.XX}.OX#Xm.m.@XOXOXXXOX XXXOX}.OX#Xr.$X$X$X$X$X$X$X$X$X$X$X$X",
"$X$X$X$X$X$X$X$X$X$X$X$X$X$X$X$X$X$X$X+.X.-.6.e.t.t.8.7.F._.A.J.8.;   $   - K.0. XOX XOXOXOXOX[.O.}.OXOX]. X}. XOX{.R.OX#XE.$X$X$X$X$X$X$X$X$X$X$X$X",
"$X$X$X$X$X$X$X$X$X$X$X$X$X$X$X$X$X$X$X$X$XZ r.-.X.$.$.w.i.=.Z >   .     a I.f...+X X}.}.}.}.#X%.0.#X@XG.r.T.].OX].T.K.OX#X[.# $X$X$X$X$X$X$X$X$X$X$X",
"$X$X$X$X$X$X$X$X$X$X$X$X$X$X$X$X$X$X$X$X$X$X$X      $ -       $ Z - ; @.R.F.0.*.+X X}.}.}.#XK.$.#X}.#Xq.B 8.#X@X(.*.F.#XOX}.= $X$X$X$X$X$X$X$X$X$X$X",
"$X$X$X$X$X$X$X$X$X$X$X$X$X$X$X$X$X$X$X$X$X$X$X$Xs = $ # $ = - u A O.I.T.y.a.w.a.#X}.}.(.}.OX%.T.[.OXOX*.d T.#X#X{.x Q.OXR.OXu $X$X$X$X$X$X$X$X$X$X$X",
"$X$X$X$X$X$X$X$X$X$X$X$X$X$X$X$X$X$X$X$X$X$X$X$Xa.H.w.r.7.w.g.;.C i.a.a.J.s.A.a r.}.R.I.E.T.T.W.T._.K...@.f.> : > = R.K.R.W.C $X$X$X$X$X$X$X$X$X$X$X",
"$X$X$X$X$X$X$X$X$X$X$X$X$X$X$X$X$X$X$X$X$X$X$X$XZ.I.Z.C C f.y.y.a.d.X.$X..$.=.m a.H.H.[.I.E.R.E.R.i.v o.g...$X$X$X$XN D.P.OXB $X$X$X$X$X$X$X$X$X$X$X",
"$X$X$X$X$X$X$X$X$X$X$X$X$X$X$X$X$X$X$X$X$X$X$XZ K.J.$.V y.t.e.y.A.x $X$X$X$X$Xu S.e.S.(.E.E._.P.s.d c u.T.*.$X$X$X$X$Xt.I. X$.$X$X$X$X$X$X$X$X$X$X$X",
"$X$X$X$X$X$X$X$X$X$X$X$X$X$X$X$X$X$X$X$X$X$X$XZ R.s.$.i.y.w.y.d.d $X$X$X$X$X$X$Xe.w.R.R.R.E.E.Z.X.$Xa.P.F.B $X$X$X$X$X$.H.0.w.$X$X$X$X$X$X$X$X$X$X$X",
"$X$X$X$X$X$X$X$X$X$X$X$X$X$X$X$X$X$X$X$X$X$X$XX._.e.t.%.-.s.y.a $X$X$X$X$X$X$X$Xt.A.E.T.R.(.S.%.Z $X0.O.*.;.$X$X$X$X$X.. Xp.$.$X$X$X$X$X$X$X$X$X$X$X",
"$X$X$X$X$X$X$X$X$X$X$X$X$X$X$X$X$X$X$X$X$X$X$X$.`.y.;.v p.-.d $X$X$X$X$X$X$X$Xm A.E.P.T.R.L.y.c $X$X..-.{ O.$X$X$X$X$X$X.XXX%.$X$X$X$X$X$X$X$X$X$X$X",
"$X$X$X$X$X$X$X$X$X$X$X$X$X$X$X$X$X$X$X$X$X$XX.s.U.e.-.s.&.c $X$X$X$X$X$X$X$X$XC L.U.P.P.R.A.V $X$X$X8.(.| $X$X$X$X$X$X$Xy.#X-.$X$X$X$X$X$X$X$X$X$X$X",
"$X$X$X$X$X$X$X$X$X$X$X$X$X$X$X$X$X$X$X$X$X$XX.oX8.X.d.V $X$X$X$X$X$X$X$X$X$X$X+.(.P.P.R.J.&.{ $X$XO.XX*.| $X$X$X$X$X$X$XC #X-.$X$X$X$X$X$X$X$X$X$X$X",
"$X$X$X$X$X$X$X$X$X$X$X$X$X$X$X$X$X$X$X$X$XC D.U.M %.o.$X$X$X$X$X$X$X$X$X$X$X$X%.(.L.L.Y.A.M $X$Xz I.(.{ $X$X$X$X$X$X$X$X{ oXe.$X$X$X$X$X$X$X$X$X$X$X",
"$X$X$X$X$X$X$X$X$X$X$X$X$X$X$X$X$X$X$X$X$XX.`.t.;.%.$X$X$X$X$X$X$X$X$X$X$X$X$XO.'.J.L.J.| $X$X6.8.I.D.z $X$X$X$X$X$X$X$X=.(.S.X.$X$X$X$X$X$X$X$X$X$X",
"$X$X$X$X$X$X$X$X$X$X$X$X$X$X$X$X$X$X$X$XB L.D.7.8.C $X$X$X$X$X$X$X$X$X$X$X$X$X-.E.J.L.S.z $X$Xl c 6.d $X$X$X$X$X$X$X$Xd U.s.8.{ $X$X$X$X$X$X$X$X$X$X",
"$X$X$X$X$X$X$X$X$X$X$X$X$X$X$X$X$X$X$X$Xt.`.t.8.V $X$X$X$X$X$X$X$X$X$X$X$X$X$Xt.J.D.L.t.A $X$X$X$X$X$X$X$X$X$X$X$X$X$Xc e.o.{ V $X$X$X$X$X$X$X$X$X$X",
"$X$X$X$X$X$X$X$X$X$X$X$X$X$X$X$X$X$X- { 8.t.8.&.| $X$X$X$X$X$X$X$X$X$X$X$X$Xm P.U.D.D.d.p $X$X$X$X$X$X$X$X$X$X$X$X$X$X$X$X| c $X$X$X$X$X$X$X$X$X$X$X",
"$X$X$X$X$X$X$X$X$X$X$X$X$X$X$X$XB z 8.Z.M t.p.o.l $X$X$X$X$X$X$X$X$X$X$X| t c L.-.Z.L.t.x $X$X$X$X$X$X$X$X$X$X$X$X$X$X$X$X$X$X$X$X$X$X$X$X$X$X$X$X$X",
"$X$X$X$X$X$X$X$X$X$X$X$X$X$X$X$X$Xd V N m { N N $X$X$X$X$X$X$X$X$X$X$X$X$.7..X{ V L.Z.-.{ $X$X$X$X$X$X$X$X$X$X$X$X$X$X$X$X$X$X$X$X$X$X$X$X$X$X$X$X$X",
"$X$X$X$X$X$X$X$X$X$X$X$X$X$X$X$X$X$X$X$X$X$X$X$X$X$X$X$X$X$X$X$X$X$X$X$Xm  .`. . .p.8.M $X$X$X$X$X$X$X$X$X$X$X$X$X$X$X$X$X$X$X$X$X$X$X$X$X$X$X$X$X$X",
"$X$X$X$X$X$X$X$X$X$X$X$X$X$X$X$X$X$X$X$X$X$X$X$X$X$X$X$X$X$X$X$X$X$X$X$X$Xu r r p u $X$X$X$X$X$X$X$X$X$X$X$X$X$X$X$X$X$X$X$X$X$X$X$X$X$X$X$X$X$X$X$X",
"$X$X$X$X$X$X$X$X$X$X$X$X$X$X$X$X$X$X$X$X$X$X$X$X$X$X$X$X$X$X$X$X$X$X$X$X$X$X$X$X$X$X$X$X$X$X$X$X$X$X$X$X$X$X$X$X$X$X$X$X$X$X$X$X$X$X$X$X$X$X$X$X$X$X",
"$X$X$X$X$X$X$X$X$X$X$X$X$X$X$X$X$X$X$X$X$X$X$X$X$X$X$X$X$X$X$X$X$X$X$X$X$X$X$X$X$X$X$X$X$X$X$X$X$X$X$X$X$X$X$X$X$X$X$X$X$X$X$X$X$X$X$X$X$X$X$X$X$X$X",
"$X$X$X$X$X$X$X$X$X$X$X$X$X$X$X$X$X$X$X$X$X$X$X$X$X$X$X$X$X$X$X$X$X$X$X$X$X$X$X$X$X$X$X$X$X$X$X$X$X$X$X$X$X$X$X$X$X$X$X$X$X$X$X$X$X$X$X$X$X$X$X$X$X$X",
"$X$X$X$X$X$X$X$X$X$X$X$X$X$X$X$X$X$X$X$X$X$X$X$X$X$X$X$X$X$X$X$X$X$X$X$X$X$X$X$X$X$X$X$X$X$X$X$X$X$X$X$X$X$X$X$X$X$X$X$X$X$X$X$X$X$X$X$X$X$X$X$X$X$X",
"$X$X$X$X$X$X$X$X$X$X$X$X$X$X$X$X$X$X$X$X$X$X$X$X$X$X$X$X$X$X$X$X$X$X$X$X$X$X$X$X$X$X$X$X$X$X$X$X$X$X$X$X$X$X$X$X$X$X$X$X$X$X$X$X$X$X$X$X$X$X$X$X$X$X",
"$X$X$X$X$X$X$X$X$X$X$X$X$X$X$X$X$X$X$X$X$X$X$X$X$X$X$X$X$X$X$X$X$X$X$X$X$X$X$X$X$X$X$X$X$X$X$X$X$X$X$X$X$X$X$X$X$X$X$X$X$X$X$X$X$X$X$X$X$X$X$X$X$X$X"
};
