/* XPM */
static char *result[] = {
/* columns rows colors chars-per-pixel */
"74 75 208 2 ",
"   c #010101",
".  c #080202",
"X  c #0C0C0C",
"o  c #0D1010",
"O  c #141414",
"+  c #1B1B1B",
"@  c #280404",
"#  c #380000",
"$  c #1E2121",
"%  c #242525",
"&  c #2A2B2C",
"*  c #2C2323",
"=  c #322F30",
"-  c #2E3131",
";  c #343434",
":  c #3A3B3B",
">  c #342122",
",  c #580000",
"<  c #4F100F",
"1  c #6D0505",
"2  c #760000",
"3  c #78181A",
"4  c #741F22",
"5  c #4A2E2E",
"6  c #5C2222",
"7  c #453D3D",
"8  c #503737",
"9  c #642324",
"0  c #7D2C2D",
"q  c #732524",
"w  c #6F3B3C",
"e  c #3E3F41",
"r  c #464647",
"t  c #4B4C4C",
"y  c #474849",
"u  c #5A4B4B",
"i  c #554444",
"p  c #4D4E50",
"a  c #4D5053",
"s  c #525354",
"d  c #555759",
"f  c #5A5A5B",
"g  c #585757",
"h  c #634F50",
"j  c #685A5A",
"k  c #785A5A",
"l  c #7D4848",
"z  c #5E5F60",
"x  c #5E6164",
"c  c #626364",
"v  c #646668",
"b  c #6A6C6D",
"n  c #666969",
"m  c #776969",
"M  c #6B6E71",
"N  c #6E7173",
"B  c #727374",
"V  c #747679",
"C  c #75797B",
"Z  c #7B7C7C",
"A  c #7D7676",
"S  c #8D0B0D",
"D  c #880607",
"F  c #941619",
"G  c #971E21",
"H  c #86282A",
"J  c #9B282A",
"K  c #8C2E31",
"L  c #8A3537",
"P  c #943336",
"I  c #A63B3E",
"U  c #A12326",
"Y  c #AF3E41",
"T  c #865757",
"R  c #945959",
"E  c #974B4C",
"W  c #A24649",
"Q  c #A65658",
"!  c #B65558",
"~  c #8B6768",
"^  c #8C6F71",
"/  c #8B7C7D",
"(  c #877675",
")  c #917777",
"_  c #947C7C",
"`  c #9F7A7B",
"'  c #9B7475",
"]  c #936C6E",
"[  c #A96668",
"{  c #B76467",
"}  c #B9797A",
"|  c #A77173",
" . c #C16D6F",
".. c #C57879",
"X. c #7B7E81",
"o. c #987F80",
"O. c #7D8184",
"+. c #7B9192",
"@. c #838485",
"#. c #838689",
"$. c #848A8C",
"%. c #898A8B",
"&. c #968485",
"*. c #8B8E91",
"=. c #8D9194",
"-. c #8E9599",
";. c #899595",
":. c #929394",
">. c #93979A",
",. c #959A9D",
"<. c #9B9C9D",
"1. c #989796",
"2. c #A38383",
"3. c #A78A8A",
"4. c #B5898A",
"5. c #B49293",
"6. c #BB9999",
"7. c #B79798",
"8. c #A39A9B",
"9. c #9B9EA1",
"0. c #959EA1",
"q. c #9DA1A4",
"w. c #9EA4A9",
"e. c #97A3A3",
"r. c #A3A4A5",
"t. c #A2A6AA",
"y. c #A5A9AC",
"u. c #AAABAC",
"i. c #BCA9AB",
"p. c #AAAEB1",
"a. c #A4AAB0",
"s. c #AEB2B5",
"d. c #AEB4B9",
"f. c #B2B3B5",
"g. c #B2B6BA",
"h. c #B5B9BC",
"j. c #BABBBC",
"k. c #C5898B",
"l. c #C18688",
"z. c #C29B9C",
"x. c #C59798",
"c. c #D09091",
"v. c #D68B8C",
"b. c #E0999A",
"n. c #CAA3A5",
"m. c #CEABAD",
"M. c #C4ADAE",
"N. c #D3AAAB",
"B. c #D9ADAD",
"V. c #D9AFB0",
"C. c #DBBABB",
"Z. c #D7B5B6",
"A. c #E4B4B4",
"S. c #EABEBE",
"D. c #F4AEAF",
"F. c #B7BCC1",
"G. c #BBBEC2",
"H. c #C7BEC1",
"J. c #BDC2C5",
"K. c #B9C6C9",
"L. c #B3C9CA",
"P. c #C4C4C4",
"I. c #C3C6CA",
"U. c #C5CACE",
"Y. c #CBCCCD",
"T. c #DAC2C4",
"R. c #D7CCCD",
"E. c #D0D0CF",
"W. c #CACED2",
"Q. c #C5CAD0",
"!. c #CDD2D5",
"~. c #C5D0D2",
"^. c #D3D4D5",
"/. c #D3D6DA",
"(. c #D5D9DC",
"). c #DADBDD",
"_. c #DBD7DA",
"`. c #E8C7C9",
"'. c #FCC4C4",
"]. c #FFCDCD",
"[. c #E4D9DB",
"{. c #FFD2D3",
"}. c #FFDADA",
"|. c #DBDEE1",
" X c #D3DCE0",
".X c #E0DFE0",
"XX c #FFDEE0",
"oX c #DDE1E5",
"OX c #DFE4EB",
"+X c #DCE8E9",
"@X c #DEEDF1",
"#X c #E2E3E4",
"$X c #E3E6EA",
"%X c #E6E9EC",
"&X c #EBEBED",
"*X c #EBE2E3",
"=X c #F6E6E7",
"-X c #EDEFF1",
";X c #E7EBF1",
":X c #F0EEF0",
">X c #EEF0F2",
",X c #E7F8FA",
"<X c #F3F4F5",
"1X c #F5F6F9",
"2X c #F6FAFB",
"3X c #FDFEFE",
"4X c #F8F7F7",
"5X c None",
/* pixels */
"5X5X5X5X5X5X5X5X5X5X5X5X5X5X5X5X5X5X5X5X5X5X5X5X5X5X5X5X5X5X5X5X5X5X5X5X5X5X5X5X5X5X5X5X5X5X5X5X5X5X5X5X5X5X5X5X5X5X5X5X5X5X5X5X5X5X5X5X5X5X5X5X5X5X",
"5X5X5X5X5X5X5X5X5X5X5X5X5X5X5X5X5X5X5X5X5X5X5X5X5X5X5X5X5X5X5X5X5X5X5X5X5X5X5X5X5X5X5X5X5X5X5X5X5X5X5X5X5X5X5X5X5X5X5X5X5X5X5X5X5X5X5X5X5X5X5X5X5X5X",
"5X5X5X5X5X5X5X5X5X5X5X5X5X5X5X5X5X5X5X5X5X5X5X5X5X5X5X5X5X5X5X5X5X5X5X5X5X5X5X5X5X5X5X5X5X5X5X5X5X5X5X5X5X5X5X5X5X5X5X5X5X5X5X5X5X5X5X5X5X5X5X5X5X5X",
"5X5X5X5X5X5X5X5X5X5X5X5X5X5X5X5X5X5X5X5X5X5X5X5X5X5X5X5X5X5X5X5X5X5X5X5X5X5X5X5X5X5X5X5X5X5X5X5X5X5X5X5X5X5X5X5X5X5X5X5X5X5X5X5X5X5X5X5X5X5X5X5X5X5X",
"5X5X5X5X5X5X5X5X5X5X5X5X5X5X5X5X5X5X5X5X5X5X5X5X5X5X5X5X5X5X5X5X5X5X5X5X5X5X5X5X5X5X5X5X5X5X5X5X5X5X5X5X5X5X5X5X5X5X5X5X5X5X5X5X5X5X5X5X5X5X5X5X5X5X",
"5X5X5X5X5X5X5X5X5X5X5X5X5X5X5X5X5X5X5X5X5X5X5X5X5X5X5X5X5X5X5X5X5X5X5X5X5X5X5X5X5X5X5X5X5X5X5X5X5X5X5X5X5X5X5X5X5X5X5X5X5X5X5X5X5X5X5X5X5X5X5X5X5X5X",
"5X5X5X5X5X5X5X5X5X5X5X5X5X5X5X5X5X5X5X5X5X5X5X5X5X5X5X5X5X5X5X5X5X5X5X5X5X5X5X5X5X5X5X5X5X5X5X5X5X5X5X5X5X5X5X5X5X5X5X5X5X5X5X5X5X5X5X5X5X5X5X5X5X5X",
"5X5X5X5X5X5X5X5X5X5X5X5X5X5X5X5X5X5X5X5X5X5X5X5X5X5X5X5X5X5X5X5X5X5X5X5X5X5X5X5X5X5X5X5X5X5X5X5X5X5X5X5X5X5X5X5X5X5X5X5X5X5X5X5X5X5X5X5X5X5X5X5X5X5X",
"5X5X5X5X5X5X5X5X5X5X5X5X5X5X5X5X5X5X5X5X5X5X5X5X5X5X5X5X5X5X5X5X5X5X5X5X5X5X5X5X5X5X5X5X5X5X5X5X5X5X5X5X5X5X5X5X5X5X5X5X5X5X5X5X5X5X5X5X5X5X5X5X5X5X",
"5X5X5X5X5X5X5X5X5X5X5X5X5X5X5X5X5X5X5X5X5X5X5X5X5X5X5X5X5X5X5X5X5X5X5X5X5X5X5X5X5X5X5X5X5X5X5X5X5X5X5X5X5X5X5X5X5X5X5X5X5X5X5X5X5X5X5X5X5X5X5X5X5X5X",
"5X5X5X5X5X5X5X5X5X5X5X5X5X5X5X5X5X5X5X5X5X5X5X5X5X5X5X5X5X5X5X5X5X5X5X5X5X5X5X5X5X5X5X5X5X5X5X5X5X5X5X5X5X5X5X5X5X5X5X5X5X5X5X5X5X5X5X5X5X5X5X5X5X5X",
"5X5X5X5X5X5X5X5X5X5X5X5X5X5X5X5X5X5X5X5X5X5X5X5X5X5X5X5X5X5X5X5X5X5X*Xr.5X5X5X5X5X5X5X5X5X5X5X5X5X5X5X5X5X5X5X5X5X5X5X5X5X5X5X5X5X5X5X5X5X5X5X5X5X5X",
"5X5X5X5X5X5X5X5X5X5X5X5X5X5X5X5X5X5X5X5X5X5X5X5X5X5Xm m 5X5X5X5X5XI.3Xu.5X5X5X5X5X5X5X5X5X5X5X5X5X5X5X5X5X5X5X5X5X5X5X5X5X5X5X5X5X5X5X5X5X5X5X5X5X5X",
"5X5X5X5X5X5X5X5X5X5X5X5X5X5X5X5X5X5X5X5X5X5X5X5X5Xu =Xk 5X5X5X5Xc 3X2X- 5X5X5X5X5X5X5X5X5X5X5X5X5X5X5X5X5X5X5X5X5X5X5X5X5X5X5X5X5X5X5X5X5X5X5X5X5X5X",
"5X5X5X5X5X5X5X5X5X5X5X5X5X5X5X5X5X5X5X5X5X5X5X5X5XA.S.= 5X5X5X5X1.&Xo.5X5X5X5X5X5X5X5X5X5X5X5X5X5X5X5X5X5X5X5X5X5X5X5X5X5X5X5X5X5X5X5X5X5X5X5X5X5X5X",
"5X5X5X5X5X5X5X5X5X5X5X5X5X5X5X5X5X5X5X5X5X5X5X5Xm }.3.Z 5X5X5X5X,.) XXk 5X5X5X5X5X5X5X5X5X5X5X5X5X5X5X5X5X5X5X5X5X5X5X5X5X5X5X5X5X5X5X5X5X5X5X5X5X5X",
"5X5X5X5X5X5X5X5X5X5X5X5X5X5X5X5X5X5X5X5X5X5X5X5X) {.^ E.%.5X5X5XW.5.{.6.5X5X5X5X5X5X5X5X5X5X5X5X5X5X5X5X5X5X5X5X5X5X5X5X5X5X5X5X5X5X5X5X5X5X5X5X5X5X",
"5X5X5X5X5X5X5X5X5X5X5X5X5X5X5X5X5X5X5X5X5X5X5X5X( '.' E.(.5X5Xs 3X&.A.}.u 5X5X5X5X5X5X5X5X5X5X5X5X5X5X5X5X5X5X5X5X5X5X5X5X5X5X5X5X5X5X5X5X5X5X5X5X5X",
"5X5X5X5X5X5X5X5X5X5X5X5X5X5X5X5X5X5X5X5X5X5X5Xc z.n.N.&.2X5X5X4X1Xo.z.V.N.5X5X5X5X5X5X5X5X5X5X5X5X5X5X5X5X5X5X5X5X5X5X5X5X5X5X5X5X5X5X5X5X5X5X5X5X5X",
"5X5X5X5X5X5X5X5X5X5X5X5X5X5X5X5X5X5X5X5X5X5X5X5.z.2.S.~ E.<.%.3X&X/ B._ {.7 5X5X5X5X5X5X5X5X5X5X5X5X5X5X5X5X5X5X5X5X5X5X5X5X5X5X5X5X5X5X5X5X5X5X5X5X",
"5X5X5X5X5X5X5X5X5X5X5X5X5X5X5X5X5X5X5Xy 5X5Xi A.` 5.N.] P.P.&X3Xh.^ ].) n.k 5X5X5X5X5X5X5X5X5X5X5X5X5X5X5X5X5X5X5X5X5X5X5X5X5X5X5X5X5X5X5X5X5X5X5X5X",
"5X5X5X5X5X5X5X5X5X5X5X5X5X5X5X5X5X5X5Xf :.u.7.`.M.6.6.T P.f.3X3XA 7.A.2.5.u X 5X5X5X5X5X5X5X5X5X5X5X5X5X5X5X5X5X5X5X5X5X5X5X5X5X5X5X5X5X5X5X5X5X5X5X",
"5X5X5X5X5X5X5X5X5X5X5X5X5X5X5X5X5X5X@.3X3X3X3X3X<X*X_.R.^.P.j.M 6.B.z.2.B.u o 5X5X5X5X5X5X5X5X5X5X5X5X5X5X5X5X5X5X5X5X5X5X5X5X5X5X5X5X5X5X5X5X5X5X5X",
"5X5X5X5X5X5X5X5X5X5X5X5X5X5X5X5X5X<.3X3X3X4X3X3X4X3X2X3X3X3X3X:Xj N.N.7.B.m % 5X5X5X5X5X5X5X5X5X5X5X5X5X5X5X5X5X5X5X5X5X5X5X5X5X5X5X5X5X5X5X5X5X5X5X",
"5X5X5X5X5X5X5X5X5X5X5X5X5X5X5X5X5XP.3X3X3X3X3X3X3X3X4X3X2X3X3X3X3Xj N.V.4./ & 5X5X5X5X5X5X5X5X5X5X5X5X5X5X5X5X5X5X5X5X5X5X5X5X5X5X5X5X5X5X5X5X5X5X5X",
"5X5X5X5X5X5X5X5X5X5X5X5X5X5X5X5X1.3X<X3X3X<X&X3X<X.X3X3X3X3X3X3X3X3X8 4.3.<Xt o 5X5X5X5X5X5X5X5X5X5X5X5X5X5X5X5X5X5X5X5X5X5X5X5X5X5X5X5X5X5X5X5X5X5X",
"5X5X5X5X5X5X5X5X5X5X5 l R T l > O.3X^.).%Xp.Y.&X<.j.3X3X2X~.Z j.4X3Xy.( Y.3X2Xs O 5X5X5X5X5X5X5X5X5X5X5X5X5X5X5X5X5Xp 5X5X5X5X5X5X5X5X5X5X5X5X5X5X5X",
"5X5X5X5X5X5X5X5X$.5 ..'.D.c.v...T u ,.B Z 1.3Xr.M ,X$Xe.l H Y.^..X3X3X3X3X<X3X1.+ ^.B 5X5X5X5X5X5X5X5X5X5X5X5X5X5X5XZ 5X5X5X5X5X5X5X5X5X5X5X5X5X5X5X",
"5X5X5X5X5X5X5XJ.E.R D.E L 0 L R  .4 j U.:.r u.n 7 k.e * 1 I 3X3X:X4X4X4X<X<X<X<XX .X3Xr.5X5X5X5X5X5X5X5X5X5X5X5X5X5Xr.5X5X5X5X5X5X5X5X5X5X5X5X5X5X5X",
"5X5X5X5X5X5X%.3X8.3 L 3 9 0 K H q F w 3X3X).%.f.%.L , D I [.3X3X3X3X3X4X4X4X4X4X; f 3X3X[.Z 5X5X5X5X5X5X5X5X5X5X5X5XY.Z 5X5X5X5X5X5X5X5X5X5X5X5X5X5X",
"5X5X5X5X5X5Xr.3X).. . 6 9 K q 6 K , A 3X<X3X<X&X3X3XT.' :.*.:.u.r.u..X3X<X4X4X<X: $ :X3X3X3Xq.5X5X5X5X5X5X5X5X5X5X5X_.Z 5X5X5X5X5X5X5X5X5X5X5X5X5X5X",
"5X5X5X5X5X5X/.3X3Xe.  @ 0 K .   @ < !.3X2X<X3X3X-X2X3X3X_.1.@.<.P.j.^.f.:X4X<X4Xn O P.3X3X3X3XP.s 5X5X5X5X5X5X5X5X5X:X9.5X5X5X5X5X5X5X5X5X5X5X5X5X5X",
"5X5X5X5X5X@.1X1X4X3XC . 1 #   + g ^.3X<X3X4X4X<X1X2X2X3X3X3X4X^.&X3X3X^.Z &X4X<X/ o j.3X3X3X3X3XE.n 5X5X5X5X5X5X5X5X3Xp.y 5X5X5X5X5X5X5X5X5X5X5X5X5X",
"5X5X5X5X5Xf 3X<X>X3X3XV 8 ( s.1X3X3X3XP.:.3Xp.X.3X,X`.*XC.n.3X3X4X:X>X3XY.<.<X4Xs O P.3X3X3X3X3X3XY.5X5X5X5X5X5X5X5X3Xu.5X5X5X5X5X5X5X5X5X5X5X5X5X5X",
"5X5X5X5X5XN 3X<X>X2X3X3.~.3X3X3X>X1X3X!.r #X^.f |  .[ [ J { 3X>X:X<X-X<X3Xr.-Xj.O + j.3X3X4X3X2X3X3Xu.5X5X5X5X5X5XB 3X:.5X5X5X5X5X5X5X5X5X5X5X5X5X5X",
"5X5X5X5X5X5XK.3X3XT.[ W { 3X3X-X<X#X.X(.s.E.Z b M...n.3XZ./ ).3X-X>X-X<X3Xj._.Z O O j.3XE.:X3X4X3X3X3XB 5X5X5X5X5X:.3XO.5X5X5X5X5X5X5X5X5X5X5X5X5X5X",
"5X5X5X5X5X5X~ l.{ Q z.3Xk.W *X3X3X!.d H.n.-.B 2X3XI F *X3X~.%.&X<X-X&X3X#Xu.oXb X $ P.^.).3X4X3X4X3X3X4Xb :.5X5X5XY.-XN 5X5X5X5X5X5X5X5X5X5X5X5X5X5X",
"5X5X5X5X5X5X] v.C.3X3X2X3XN.W k.3X_.O.T w g.3X3X[.F 2 x.3X3X/.).<X&X3X%Xf.f.).g O ; %.^.3X4X4X4X4X4X4X3XE.j.P.g f 3X;XV 5X5X5X5X5X5X5X5X5X5X5X5X5X5X",
"5X5X5X5X5X5X;.,X,X(.^.&X2X%Xn.[ P L A L.;X3X&X3X3X4.o.=X-X&X1X-X%X1X<Xt.f.).p.% & . <.3X3X4X1X2X4X1X1X3X3Xr.3X3Xu.#X<Xc 5X5X5X5X5X5X5X5X5X5X5X5X5X5X",
"5X5X5X5X5X5X5XV #.t.).>X2XP ! 2X( i.3X[.:X2X<XK.,.K.3X3X&X&X&X&X4X&Xu.,.G.%XZ   X p 3X3X1X<X1X1X1X1X1X4X3X/.P.3X3X4X3X3XZ 5X5X5X5X5X5X5X5X5X5X5X5X5X",
"5X5X5X5X5X5X5X5X5X%.3X3X[.F S T.3X3XT.S Z.oXa.u &.3X<X%X&X%X-X3X).9.>.p.U.G.O ; O h.3X<X4X1X4X<X1X4X<X1X1X4XE.&X3X1X<X3X3X@.5X5X5X5X5X5X5X5X5X5X5X5X",
"5X5X5X5X5X5X5X5X5X5Xb (.:XJ D T.2X3XQ 2 W oX@X!  .,X%X#X#X<X-XI.,.,.w.9.).g O u.c j.3X:X:X:X<X<X&X<X<X<X<X3X:X%X4X<X<X<X3X3XZ 5X5X5X5X5X5X5X5X5X5X5X",
"5X5X5X5X5X5X5X5X5X5X5Xb C 2.x.2X2X>XN.J { 2X2XJ S %X>X&X:X).t.=.9.r.>./.@.. : : : y ).4X&X%X;X%X%X4X1X<X<X>X1X1X<X<X<X<X>X3Xg.5X5X5X5X5X5X5X5X5X5X5X",
"5X5X5X5X5X5X5X5X5X5X5X5X5X5X+.@.q.U.@X~.!.$X%XZ.m.-X$XW.p.=.<.q.>.>.W.9.O % X   r.).^.<X&X%X&X&X1X#X#X<X>X>X>X>X>X:X<X<X>X2X;Xo.5X5X5X5X5X5X5X5X5X5X",
"5X5X5X5X5X5X5X5X5X5X5X5X5X5X5X5Xc %.O.w.K.p.9.L.L.9.-.0.,.G.I.#.p.(.#.X + X O Z Y.3X4X-X-X-X-X4X|.u.:X:X1X1X:X-X-X:X&X&X>X-X3X9.5X5X5X5X5X5X5X5X5X5X",
"5X5X5X5X5X5X5X5X5X5X5X5X5X5X5X5X5X5X5X5XO.:.0.w.d.d.p.q.g.OXU.J.p.a   O     j.r.r.3X&X<X-X-X-X3X<.f.3X4X#X#X<X-X-X3X).).1X-X3Xf.5X5X5X5X5X5X5X5X5X5X",
"5X5X5X5X5X5X5X5X5X5X5X5X5X5X5X5X5X5X5X5X5X5XZ O.b B Z :.u.<.N y X   .   ; s.<Xb u.3X-X-X&X&X3XY.@.4X<X1X9.u.^.4X<X|.j.^.3X&X3X^.5X5X5X5X5X5X5X5X5X5X",
"5X5X5X5X5X5X5X5X5X5X5X5X5X5X5X5X5X5X5X5X5X5X5X5X5X  X X         @.z % Z W.Y.P.M u.3X&X&X&X>X4X@.Y.3X1XY.:.@.W.3X3XG.#.|.>X&X>X$X1.5X5X5X5X5X5X5X5X5X",
"5X5X5X5X5X5X5X5X5X5X5X5X5X5X5X5X5X5X5X5X5X5X5X5X5X: ; y : : y g f B j./.f.u.P.C p.3X&X%X%X3Xu.r.3X%X<XP.g 9.3X-X3XN c 3X<X&X&X3XB 5X5X5X5X5X5X5X5X5X",
"5X5X5X5X5X5X5X5X5X5X5X5X5X5X5X5X5X5X5X5X5X5X5X5X<.I.,.!.J.K.W.).; - Y.u.p.u.j.=.H.3X%X%X:X_.p.<X-X&X:Xt.B 3X1X<X#X; @.3X#X&X&X3Xt 5X5X5X5X5X5X5X5X5X",
"5X5X5X5X5X5X5X5X5X5X5X5X5X5X5X5X5X5X5X5X5X5X5X5X=.-X1.%.h.y.r.g.9.O.d.y.y.p.d.>.j.3X%X%X-X^.|.-X$X&X3X=.p.3X3X%X*.s ,.#X|.).1X^.g 5X5X5X5X5X5X5X5X5X",
"5X5X5X5X5X5X5X5X5X5X5X5X5X5X5X5X5X5X5X5X5X5X5X5Xq.P.f.t.u.q.y.t.p.9.p.d.9.q.d.N >.3X$X.X|.%X$X|..X<X).d y.2X%.f j V Z @.r.9.&XY.e 5X5X5X5X5X5X5X5X5X",
"5X5X5X5X5X5X5X5X5X5X5X5X5X5X5X5X5X5X5X5X5X5X5X5Xq.!.p.f.N 9.f.u.f.9.Z X.t.a.y.X.9.1X(.|. X|.|.|.)./.*.V w.o.5X5X5X5X5X5X5Xv C g.#.5X5X5X5X5X5X5X5X5X",
"5X5X5X5X5X5X5X5X5X5X5X5X5X5X5X5X5X5X5X5X5X5X5X5Xs./.j.Z M j.a.u.s.J.M 5XV X.>.O.j.W.F.$X(.(.(.#XW.>.c =.>.O.5X5X5X5X5X5X5X*.@.j.1X+ 5X5X5X5X5X5X5X5X",
"5X5X5X5X5X5X5X5X5X5X5X5X5X5X5X5X5X5X5X5X5X5X5XV W.Q.=.V p.p.y.p.h.v 5X5X5X5X5Xt J.9.j.|.(./.oXW.h.s M f.!.:.5X5X5X5X5X5X5X5XV U.3XC 5X5X5X5X5X5X5X5X",
"5X5X5X5X5X5X5X5X5X5X5X5X5X5X5X5X5X5X5X5X5X5X5X=./.g.*.p.f.r.p.g.f 5X5X5X5X5X5X5Xt.=./.(.(.(.(.F.@.5Xu.W.J.x 5X5X5X5X5X5X5X5X5XJ.p.<.5X5X5X5X5X5X5X5X",
"5X5X5X5X5X5X5X5X5X5X5X5X5X5X5X5X5X5X5X5X5X5X5X*.|.y.p.*.>.h.a.s 5X5X5X5X5X5X5X5Xw.G.|./.!.|.J.*.A 5Xr.#.>.%.5X5X5X5X5X5X5X5XB G.G.d.& 5X5X5X5X5X5X5X",
"5X5X5X5X5X5X5X5X5X5X5X5X5X5X5X5X5X5X5X5X5X5X5XO.OXp.,.M s.,.f 5X5X5X5X5X5X5X5Xb F.|.W.!.(.W.p.v 5X5X%.>.X.@.5X5X5X5X5X5X5X5X5XX.1XQ.c 5X5X5X5X5X5X5X",
"5X5X5X5X5X5X5X5X5X5X5X5X5X5X5X5X5X5X5X5X5X5X%.F.!.y.>.g.-.b 5X5X5X5X5X5X5X5X5XB Q.(.W.W./.G.N 5X5X5X9.(.X.5X5X5X5X5X5X5X5X5X5X*.(.I.X.5X5X5X5X5X5X5X",
"5X5X5X5X5X5X5X5X5X5X5X5X5X5X5X5X5X5X5X5X5X5X#.;Xy.$.g.V 5X5X5X5X5X5X5X5X5X5X5X#.(.W.W./.I.=.X.5X5X%.%X,.@.5X5X5X5X5X5X5X5X5X5X5Xd.oXC 5X5X5X5X5X5X5X",
"5X5X5X5X5X5X5X5X5X5X5X5X5X5X5X5X5X5X5X5X5XV K./.M =.*.5X5X5X5X5X5X5X5X5X5X5X5X*. XQ.Q.!.F.M 5X5Xb W.$XM 5X5X5X5X5X5X5X5X5X5X5X5Xa.;X-.5X5X5X5X5X5X5X",
"5X5X5X5X5X5X5X5X5X5X5X5X5X5X5X5X5X5X5X5X5X#.OXp.>.*.5X5X5X5X5X5X5X5X5X5X5X5X5X*.oXQ.W.U.O.5X5X-.w.(.K.x 5X5X5X5X5X5X5X5X5X5X5X1.F.OX#.5X5X5X5X5X5X5X",
"5X5X5X5X5X5X5X5X5X5X5X5X5X5X5X5X5X5X5X5XM Q.K.9.9.V 5X5X5X5X5X5X5X5X5X5X5X5X5X>.(.I.W.F.z 5X5Xx z =.d 5X5X5X5X5X5X5X5X5X5X5X5XX.G.G.9.X.5X5X5X5X5X5X",
"5X5X5X5X5X5X5X5X5X5X5X5X5X5X5X5X5X5X5X5Xa.OXp.0.X.5X5X5X5X5X5X5X5X5X5X5X5X5X5Xt.W.K.Q.w.B 5X5X5X5X5X5X5X5X5X5X5X5X5X5X5X5X5X5Xy n 9.*.a 5X5X5X5X5X5X",
"5X5X5X5X5X5X5X5X5X5X5X5X5X5X5X5X5X5X& O.9.p.w.-.V 5X5X5X5X5X5X5X5X5X5X5X5X5XM ~.!.G.K.F.a 5X5X5X5X5X5X5X5X5X5X5X5X5X5X5X5X5X5X5X5X5X5X5X5X5X5X5X5X5X",
"5X5X5X5X5X5X5X5X5X5X5X5X5X5X5X5X5Xa -.h.M a.F.$.5X5X5X5X5X5X5X5X5X5X5X5X#.e v L.w.F.Q.a.z 5X5X5X5X5X5X5X5X5X5X5X5X5X5X5X5X5X5X5X5X5X5X5X5X5X5X5X5X5X",
"5X5X5X5X5X5X5X5X5X5X5X5X5X5X5X5X5Xs N N M O.n M 5X5X5X5X5X5X5X5X5X5X5X5X=.w.@Xo.X.Q.F.0.X.5X5X5X5X5X5X5X5X5X5X5X5X5X5X5X5X5X5X5X5X5X5X5X5X5X5X5X5X5X",
"5X5X5X5X5X5X5X5X5X5X5X5X5X5X5X5X5X5X5X5X5X5X5X5X5X5X5X5X5X5X5X5X5X5X5X5XM O. XX.X.F.0.M 5X5X5X5X5X5X5X5X5X5X5X5X5X5X5X5X5X5X5X5X5X5X5X5X5X5X5X5X5X5X",
"5X5X5X5X5X5X5X5X5X5X5X5X5X5X5X5X5X5X5X5X5X5X5X5X5X5X5X5X5X5X5X5X5X5X5X5X5Xy e e a y 5X5X5X5X5X5X5X5X5X5X5X5X5X5X5X5X5X5X5X5X5X5X5X5X5X5X5X5X5X5X5X5X",
"5X5X5X5X5X5X5X5X5X5X5X5X5X5X5X5X5X5X5X5X5X5X5X5X5X5X5X5X5X5X5X5X5X5X5X5X5X5X5X5X5X5X5X5X5X5X5X5X5X5X5X5X5X5X5X5X5X5X5X5X5X5X5X5X5X5X5X5X5X5X5X5X5X5X",
"5X5X5X5X5X5X5X5X5X5X5X5X5X5X5X5X5X5X5X5X5X5X5X5X5X5X5X5X5X5X5X5X5X5X5X5X5X5X5X5X5X5X5X5X5X5X5X5X5X5X5X5X5X5X5X5X5X5X5X5X5X5X5X5X5X5X5X5X5X5X5X5X5X5X",
"5X5X5X5X5X5X5X5X5X5X5X5X5X5X5X5X5X5X5X5X5X5X5X5X5X5X5X5X5X5X5X5X5X5X5X5X5X5X5X5X5X5X5X5X5X5X5X5X5X5X5X5X5X5X5X5X5X5X5X5X5X5X5X5X5X5X5X5X5X5X5X5X5X5X",
"5X5X5X5X5X5X5X5X5X5X5X5X5X5X5X5X5X5X5X5X5X5X5X5X5X5X5X5X5X5X5X5X5X5X5X5X5X5X5X5X5X5X5X5X5X5X5X5X5X5X5X5X5X5X5X5X5X5X5X5X5X5X5X5X5X5X5X5X5X5X5X5X5X5X",
"5X5X5X5X5X5X5X5X5X5X5X5X5X5X5X5X5X5X5X5X5X5X5X5X5X5X5X5X5X5X5X5X5X5X5X5X5X5X5X5X5X5X5X5X5X5X5X5X5X5X5X5X5X5X5X5X5X5X5X5X5X5X5X5X5X5X5X5X5X5X5X5X5X5X",
"5X5X5X5X5X5X5X5X5X5X5X5X5X5X5X5X5X5X5X5X5X5X5X5X5X5X5X5X5X5X5X5X5X5X5X5X5X5X5X5X5X5X5X5X5X5X5X5X5X5X5X5X5X5X5X5X5X5X5X5X5X5X5X5X5X5X5X5X5X5X5X5X5X5X"
};
