/* XPM */
static char *result[] = {
/* columns rows colors chars-per-pixel */
"74 75 218 2 ",
"   c #000000",
".  c #0B0B0B",
"X  c #080707",
"o  c #1A0202",
"O  c #141414",
"+  c #1A1B1C",
"@  c #320C0D",
"#  c #1D2222",
"$  c #232322",
"%  c #2C2C2C",
"&  c #212B2B",
"*  c #333333",
"=  c #3B3B3C",
"-  c #3A3435",
";  c #491A19",
":  c #4F0A0A",
">  c #6D1A1C",
",  c #771012",
"<  c #6A0808",
"1  c #583B3B",
"2  c #4C2A2B",
"3  c #632324",
"4  c #6A2828",
"5  c #792627",
"6  c #653A3A",
"7  c #3F3F40",
"8  c #3F4140",
"9  c #434444",
"0  c #4C4C4C",
"q  c #474748",
"w  c #574949",
"e  c #485555",
"r  c #535454",
"t  c #555759",
"y  c #56585B",
"u  c #5B5C5C",
"i  c #595151",
"p  c #684343",
"a  c #7B4B4B",
"s  c #635656",
"d  c #795C5C",
"f  c #6B605F",
"g  c #5C5F61",
"h  c #725F60",
"j  c #5E6164",
"k  c #636364",
"l  c #646669",
"z  c #66696B",
"x  c #6A6B6C",
"c  c #6E6465",
"v  c #786566",
"b  c #6F706F",
"n  c #6C6E71",
"m  c #6F7173",
"M  c #69777A",
"N  c #727374",
"B  c #747679",
"V  c #747B7D",
"C  c #7A7B7C",
"Z  c #787373",
"A  c #A81317",
"S  c #B11D21",
"D  c #822C2E",
"F  c #842226",
"G  c #9F2A2D",
"H  c #843335",
"J  c #96373A",
"K  c #922E31",
"L  c #A12A2D",
"P  c #A6272A",
"I  c #B62528",
"U  c #B43A3C",
"Y  c #913E40",
"T  c #AD3E41",
"R  c #884748",
"E  c #904243",
"W  c #8B5556",
"Q  c #9E5456",
"!  c #974F51",
"~  c #AD5154",
"^  c #876667",
"/  c #986265",
"(  c #8B7374",
")  c #827D7E",
"_  c #8A7979",
"`  c #9A7575",
"'  c #977979",
"]  c #956E70",
"[  c #A76668",
"{  c #B26365",
"}  c #B16C6D",
"|  c #BB6566",
" . c #BA6E71",
".. c #B66D70",
"X. c #A37D7D",
"o. c #B9787B",
"O. c #C27A7D",
"+. c #C76E71",
"@. c #7B7E81",
"#. c #B57C81",
"$. c #C27E80",
"%. c #7E8184",
"&. c #778182",
"*. c #838485",
"=. c #898585",
"-. c #828689",
";. c #86898C",
":. c #8A8A8B",
">. c #898788",
",. c #9A8688",
"<. c #8F908F",
"1. c #8B8E91",
"2. c #878B91",
"3. c #8D9194",
"4. c #879090",
"5. c #939395",
"6. c #92969A",
"7. c #96999C",
"8. c #9B9C9D",
"9. c #9E9394",
"0. c #978C90",
"q. c #AB8283",
"w. c #A88787",
"e. c #B7898A",
"r. c #A7989A",
"t. c #BC9494",
"y. c #B89798",
"u. c #B28F91",
"i. c #A8A09F",
"p. c #969DA1",
"a. c #9A9EA2",
"s. c #B19EA0",
"d. c #8DA8AA",
"f. c #9DA2A5",
"g. c #9FA4A9",
"h. c #97A7AA",
"j. c #9FB6B6",
"k. c #A3A4A5",
"l. c #A3A6A9",
"z. c #A5AAAC",
"x. c #AAABAD",
"c. c #AEA7A8",
"v. c #B4AAAB",
"b. c #A6ADB2",
"n. c #ABAEB1",
"m. c #ADB2B5",
"M. c #AAB5B9",
"N. c #B3B3B4",
"B. c #B4B7B9",
"V. c #B5B9BD",
"C. c #BBBCBD",
"Z. c #B6B6B6",
"A. c #C58A8D",
"S. c #C88285",
"D. c #C99899",
"F. c #D38F91",
"G. c #EC9E9D",
"H. c #C9A5A5",
"J. c #D3A4A5",
"K. c #D3ABAC",
"L. c #DBA8A9",
"P. c #C6BABB",
"I. c #DDB1B2",
"U. c #D4BBBD",
"Y. c #D8B4B6",
"T. c #EBA6A8",
"R. c #E2B3B3",
"E. c #EABCBC",
"W. c #B7BDC1",
"Q. c #BBBEC2",
"!. c #BDC1C4",
"~. c #BCC7CA",
"^. c #ABC7CB",
"/. c #C3C3C4",
"(. c #C3C6C9",
"). c #C6CACD",
"_. c #CBCCCD",
"`. c #CDC4C6",
"'. c #D9C5C7",
"]. c #C6CBD1",
"[. c #CBCED2",
"{. c #CDD1D4",
"}. c #CED3D9",
"|. c #C8D6D8",
" X c #D2D3D4",
".X c #D4D6D9",
"XX c #D5D9DC",
"oX c #DBDCDD",
"OX c #E9C3C4",
"+X c #FFC7C8",
"@X c #E5D2D5",
"#X c #E4DADC",
"$X c #EBDCDE",
"%X c #FAD6D8",
"&X c #DADEE1",
"*X c #D6DCE2",
"=X c #DDE1E4",
"-X c #DEE3EA",
";X c #D0E3E6",
":X c #D2F3F4",
">X c #E3E4E6",
",X c #E3E6E9",
"<X c #E5E9EA",
"1X c #EBEBED",
"2X c #EAE2E4",
"3X c #F3E6E8",
"4X c #EDEFF1",
"5X c #E6EEF0",
"6X c #EEF1F3",
"7X c #EDF5F8",
"8X c #EDFCFC",
"9X c #E4F9F9",
"0X c #F2F3F5",
"qX c #F5F6F9",
"wX c #F5FBFC",
"eX c #FDFEFE",
"rX c #FAF6F6",
"tX c None",
/* pixels */
"tXtXtXtXtXtXtXtXtXtXtXtXtXtXtXtXtXtXtXtXtXtXtXtXtXtXtXtXtXtXtXtXtXtXtXtXtXtXtXtXtXtXtXtXtXtXtXtXtXtXtXtXtXtXtXtXtXtXtXtXtXtXtXtXtXtXtXtXtXtXtXtXtXtX",
"tXtXtXtXtXtXtXtXtXtXtXtXtXtXtXtXtXtXtXtXtXtXtXtXtXtXtXtXtXtXtXtXtXtXtXtXtXtXtXtXtXtXtXtXtXtXtXtXtXtXtXtXtXtXtXtXtXtXtXtXtXtXtXtXtXtXtXtXtXtXtXtXtXtX",
"tXtXtXtXtXtXtXtXtXtXtXtXtXtXtXtXtXtXtXtXtXtXtXtXtXtXtXtXtXtXtXtXtXtXtXtXtXtXtXtXtXtXtXtXtXtXtXtXtXtXtXtXtXtXtXtXtXtXtXtXtXtXtXtXtXtXtXtXtXtXtXtXtXtX",
"tXtXtXtXtXtXtXtXtXtXtXtXtXtXtXtXtXtXtXtXtXtXtXtXtXtXtXtXtXtXtXtXtXtXtXtXtXtXtXtXtXtXtXtXtXtXtXtXtXtXtXtXtXtXtXtXtXtXtXtXtXtXtXtXtXtXtXtXtXtXtXtXtXtX",
"tXtXtXtXtXtXtXtXtXtXtXtXtXtXtXtXtXtXtXtXtXtXtXtXtXtXtXtXtXtXtXtXtXtXtXtXtXtXtXtXtXtXtXtXtXtXtXtXtXtXtXtXtXtXtXtXtXtXtXtXtXtXtXtXtXtXtXtXtXtXtXtXtXtX",
"tXtXtXtXtXtXtXtXtXtXtXtXtXtXtXtXtXtXtXtXtXtXtXtXtXtXtXtXtXtXtXtXtXtXtXtXtXtXtXtXtXtXtXtXtXtXtXtXtXtXtXtXtXtXtXtXtXtXtXtXtXtXtXtXtXtXtXtXtXtXtXtXtXtX",
"tXtXtXtXtXtXtXtXtXtXtXtXtXtXtXtXtXtXtXtXtXtXtXtXtXtXtXtXtXtXtXtXtXtXtXtXtXtXtXtXtXtXtXtXtXtXtXtXtXtXtXtXtXtXtXtXtXtXtXtXtXtXtXtXtXtXtXtXtXtXtXtXtXtX",
"tXtXtXtXtXtXtXtXtXtXtXtXtXtXtXtXtXtXtXtXtXtXtXtXtXtXtXtXtXtXtXtXtXtXtXtXtXtXtXtXtXtXtXtXtXtXtXtXtXtXtXtXtXtXtXtXtXtXtXtXtXtXtXtXtXtXtXtXtXtXtXtXtXtX",
"tXtXtXtXtXtXtXtXtXtXtXtXtXtXtXtXtXtXtXtXtXtXtXtXtX^ q.tXtXtXtXtXtXtXtXtXtX:. X) tXtXtXtXtXtXtXtXtXtXtXtXtXtXtXtXtXtXtXtXtXtXtXtXtXtXtXtXtXtXtXtXtXtX",
"tXtXtXtXtXtXtXtXtXtXtXtXtXtXtXtXtXtXtXtXtXtXtXtXc %Xv tXtXtXtXtXtXtXtXtX<.eXeXC tXtXtXtXtXtXtXtXtXtXtXtXtXtXtXtXtXtXtXtXtXtXtXtXtXtXtXtXtXtXtXtXtXtX",
"tXtXtXtXtXtXtXtXtXtXtXtXtXtXtXtXtXtXtXtXtXtXtXtXu.E.Z tXtXtXtXtXtXtXtXtXqX>XC tXtXtXtXtXtXtXtXtXtXtXtXtXtXtXtXtXtXtXtXtXtXtXtXtXtXtXtXtXtXtXtXtXtXtX",
"tXtXtXtXtXtXtXtXtXtXtXtXtXtXtXtXtXtXtXtXtXtXtXi L.q.N.n.tXtXtXtXtXtXtX<./._ w tXtXtXtXtXtXtXtXtXtXtXtXtXtXtXtXtXtXtXtXtXtXtXtXtXtXtXtXtXtXtXtXtXtXtX",
"tXtXtXtXtXtXtXtXtXtXtXtXtXtXtXtXtXtXtXtXtXtXtXu J.t.P._.tXtXtXtXtXtXtX6.( +X_ tXtXtXtXtXtXtXtXtXtXtXtXtXtXtXtXtXtXtXtXtXtXtXtXtXtXtXtXtXtXtXtXtXtXtX",
"tXtXtXtXtXtXtXtXtXtXtXtXtXtXtXtXtXtXtXtXtXtXtXv J.R._ oX>.tXtXtXtXtXk._.w.%X( tXtXtXtXtXtXtXtXtXtXtXtXtXtXtXtXtXtXtXtXtXtXtXtXtXtXtXtXtXtXtXtXtXtXtX",
"tXtXtXtXtXtXtXtXtXtXtXtXtXtXtXtXtXtXtXtXtXtXc e.u.R.` /.C.tXtXtXtX* eX`.q.E.t.tXtXtXtXtXtXtXtXtXtXtXtXtXtXtXtXtXtXtXtXtXtXtXtXtXtXtXtXtXtXtXtXtXtXtX",
"tXtXtXtXtXtXtXtXtXtXtXtXtXtXtXtXtXtXtXtXtXtXX.I.u.K.e.P.{.tXtXtXB eXeXc.` H.R.v tXtXtXtXtXtXtXtXtXtXtXtXtXtXtXtXtXtXtXtXtXtXtXtXtXtXtXtXtXtXtXtXtXtX",
"tXtXtXtXtXtXtXtXtXtXtXtXtXtXtXtXtXtXtXtXtX- ^ X.` X.W r.<XtXtXtX XeX0X) K.w.I.c tXtXtXtXtXtXtXtXtXtXtXtXtXtXtXtXtXtXtXtXtXtXtXtXtXtXtXtXtXtXtXtXtXtX",
"tXtXtXtXtXtXtXtXtXtXtXtXtXtXtXtXtXtXtX* k k.P.C.C.Z.k.k.8.t tXk eXeX7.X.%X( t.^ tXtXtXtXtXtXtXtXtXtXtXtXtXtXtXtXtXtXtXtXtXtXtXtXtXtXtXtXtXtXtXtXtXtX",
"tXtXtXtXtXtXtXtXtXtXtXtXtXtXtXtXtXtXtXZ.eXeXeXeXeXeXeXeX4X6X Xk.8.8.' J.I.] D.h tXtXtXtXtXtXtXtXtXtXtXtXtXtXtXtXtXtXtXtXtXtXtXtXtXtXtXtXtXtXtXtXtXtX",
"tXtXtXtXtXtXtXtXtXtXtXtXtXtXtXtXtXtXx.eXeXqXeXeXrXqXeXqXeXeXeXeX2Xq q.K.u.X.E.w tXtXtXtXtXtXtXtXtXtXtXtXtXtXtXtXtXtXtXtXtXtXtXtXtXtXtXtXtXtXtXtXtXtX",
"tXtXtXtXtXtXtXtXtXtXtXtXtXtXtXtXtXtX4XeXeXeXeXeXeXeXeXeXeXrXeXeXeX1Xv J.D.H.D.x tXtXtXtXtXtXtXtXtXtXtXtXtXtXtXtXtXtXtXtXtXtXtXtXtXtXtXtXtXtXtXtXtXtX",
"tXtXtXtXtXtXtXtXtXtXtXtXtXtXtXtXtXP.eXrXeXeX6X1XeX0X>XeXeXeXeXeXeXeXC.d R.R.,.*.tXtXtXtXtXtXtXtXtXtXtXtXtXtXtXtXtXtXtXtXtXtXtXtXtXtXtXtXtXtXtXtXtXtX",
"tXtXtXtXtXtXtXtXtXtXtX2 a W a 1 + m.eX X1X>XC._./.x.=XeXeX1Xk.>. XeXeX) / ^ N.Z.O tXtXtXtXtXtXtXtXtXtXtXtXtXtXtXtXtXtXtXtXtXtXtXtXtXtXtXtXtXtXtXtXtX",
"tXtXtXtXtXtXtXtXtX&.; G.+XT.T.F.} p b f.l <.x.eXb =.qX>X*.=.k. X_.0XeX1X:.N.eX=.O k.N.tXtXtXtXtXtXtXtXtXtXtXtXtXtXtXtXtXtXtXtXtXtXtXtXtXtXtXtXtXtXtX",
"tXtXtXtXtXtXtXtX<Xc.{ T.E H H E { +.: =.Z.Z r _.q u 8.% O Z..XeX6X4XrXeXeXeXoXr . C eX<X>.tXtXtXtXtXtXtXtXtXtXtXtXtXtXtXtXtXtXtXtXtXtXtXtXtXtXtXtXtX",
"tXtXtXtXtXtXtX5.eXd D D > 3 D K F D < v eXeXN.<.n.Z t O N.oXoXeXeXeXeXeX<Xk.n.:.q - oXeXeX/.k tXtXtXtXtXtXtXtXtXtXtXtXtXtXtXtXtXtXtXtXtXtXtXtXtXtXtX",
"tXtXtXtXtXtXtX XeXc.  o 4 3 J 3 3 G : z.eXqXeX<XeXeX2XZ.N.5.5.Z.C.z.x.).m.3.m..Xb   =.eXeXeXeX*.tXtXtXtXtXtXtXtXtXtXtXtXtXtXtXtXtXtXtXtXtXtXtXtXtXtX",
"tXtXtXtXtXtXN 0XeXeXe   ; 5 5     @ 6 9XeXqX0XeXeX0XeXeXqXZ.>.>.Z.`.c.8.>./.<XeXr = :.b =.0XeXeX8.tXtXk 0 tXtXtXtXtXtXtXtXtXtXtXtXtXtXtXtXtXtXtXtXtX",
"tXtXtXtXtXtX6.eX0XeXeX= o , o   + g >XeX0XeX0XeX0X0XwXeXeXeXeX>X_.0XeXeXN.5.eXeX0 9 C % ) rXeXeXeXk.tXtXC.Z.tXtXtXtXtXtXtXtXtXtXtXtXtXtXtXtXtXtXtXtX",
"tXtXtXtXtXtX8.eX4X0XeXeX= 1 C /.qXeXeXeX8.k.eX>.f.eX$X'.%X@X#XeXeX4X0X0XeXz.N.eXz X % 0XeXeXeXeXeXeXk.tXtX1X0X$ tXtXtXtXtXtXtXtXtXtXtXtXtXtXtXtXtXtX",
"tXtXtXtXtXtX5.eX6X0XeXeX( 9XeXeXeX0XwXeX8.r 6Xh.s [ } [ R , '.eX0X0X6X0XqX>Xk.rXs O % 1XeXeXqXeXeXeXeX:.tXtXoXeXr tXtXtXtXtXtXtXtXtXtXtXtXtXtXtXtXtX",
"tXtXtXtXtXtXv @XeXeXI.! 6 ~ eXeX1X0XoX0X Xl.v.f Z y.6XwX9X7.) eX0X4X0X6X0X1X8. Xr O % 1XeX XrXeXqXqXeXeXq tXN rXeXr tXtXtXtXtXtXtXtXtXtXtXtXtXtXtXtX",
"tXtXtXtXtXtXtXY  .Q Q `.wXW J 3XeXeXz.C P.r.:.) eXeX2XO.J.eXg.f.qX6X6X6X0X[.N.[.9 O = #X/.<XeXqXeXeXrXeX_.x ) r eXeXk tXtXtXtXtXtXtXtXtXtXtXtXtXtXtX",
"tXtXtXtXtXtXtX,.A.`.eXeX3XeX/ , S.eX{.m p s {.eX4X6X0X@X| D.eX(.>X6X1XeX.XN. X`.* O 0 k.#XeXrXeXrXrXrXqXeX/.oXi.<XeX1Xx tXtXtXtXtXtXtXtXtXtXtXtXtXtX",
"tXtXtXtXtXtXtXz.eX7XXX). .0XeXP.> Y W ) ~.wXeXA.%XeX X8X0X .@XeX1X1XeX<Xa.Z.>X1.. + +  XeXqXqXqXqXqXrXwXeXoXc.eXrXrXeXqXb tXtXtXtXtXtXtXtXtXtXtXtXtX",
"tXtXtXtXtXtXtXtX;.3.m.5XO.D.eXeX:X_ U.eXrX1XwX+.r.d./.>XeXA.K.wX1XeX&Xa.b.(.oX0   . C eXqXqXqXqXqXqXqXqXqXeX/. XeXeXrXeXeX9 tXtXtXtXtXtXtXtXtXtXtXtX",
"tXtXtXtXtXtXtXtXtXtXv.eXwXO.K.#XY.L.1XwXA.U.{.q.> v.eXeX'.| 4X0XeX[.p.7.m.&X8.. * + 2XeX0XqXrXqXqXrX0X0XrXwX1X XeXwXqX0XeXeXC tXtXtXtXtXtXtXtXtXtXtX",
"tXtXtXtXtXtXtXtXtXtXtXR R.F.~ U U '.wXwX#.U.XX9XT.$.8X>X~ '.eX1XV.6.a.a.n. X% * k.k 0XeX4X4X4X0X0X4X0XrX0X0XqX<X4X0X0X0X0XeXoXtXtXtXtXtXtXtXtXtXtXtX",
"tXtXtXtXtXtXtXtXtXtXtXtX@ ^ =X#XJ.S.D.eXY.S.eX1X5Xo.<XS.D.eX[.a.3.a.a.f.oXu   q 0 % g 0X0X1X1X1X<X1XeX0X0X0X0XqX0X0X0X0X0X0XeX5.tXtXtXtXtXtXtXtXtXtX",
"tXtXtXtXtXtXtXtXtXtXtXtXtXtXtX@.j.i.o.} H.e.>X5XwXD.U.A./.b.1.a.f.6.a.&XN X *   . C._.#X6X1X1X1X<X4X=X1X0X4X0X6X6X6X4X0X0X0XeX.XtXtXtXtXtXtXtXtXtXtX",
"tXtXtXtXtXtXtXtXtXtXtXtXtXtXtXtXtXe d.r.w...b.h.M.[ 0.[ 0.f.).Z.*.V..Xl   $   * 5.>XeX0X4X4X4X4XeX).N.eX4XqX0X0X4X6X6X4X6X0X0XwXC tXtXtXtXtXtXtXtXtX",
"tXtXtXtXtXtXtXtXtXtXtXtXtXtXtXtXtXtXtXG h j h.M.r.#.^./ ] ].-X!.(.l.7   +   + [.k.).eX4X4X4X4X0XeX5. XqXqX>X<X6X4X4XqX_.#X0X4XeX7.tXtXtXtXtXtXtXtXtX",
"tXtXtXtXtXtXtXtXtXtXtXtXtXtXtXtXtXtXI S tXtXtX4.-.m ;.<.5.n.-.x q     X   0 /..XZ .XqX1X4X1X1XeXc.5.eX0XoXx./. XrX<X>Xn..X0X4XeXk.tXtXtXtXtXtXtXtXtX",
"tXtXtXtXtXtXtXtXtXtXtXtXtXtXtXtXtXA G G tXtXtXtX&     # #         8.0 % :.oX/.N.C .XqX1X1X1XqX&X*.<X0XwXQ.*.1.,X0X1XN.k.6X4X1XeX[.tXtXtXtXtXtXtXtXtX",
"tXtXtXtXtXtXtXtXtXtXtXtXtXtXtXtXtXtXL L tXL U tXtXk = % * * = 9 0 u ;._.[.x.z.Z.-. X0X1X<X1XeX5.V.eX1XeXd.8 !.eX6XwXc a.eX6X1X0X>XtXtXtXtXtXtXtXtXtX",
"tXtXtXtXtXtXtXtXtXtXtXtXtXtXtXtXtXtXtXtXtXL I tXtXM.(.8.[.Z.Q..XQ.. u {.x.n.z.B.7. X6X<X1X0X/.N.eX<X4X0XM #.eX6XqXN.$ v.1X<X1X1X1XB tXtXtXtXtXtXtXtX",
"tXtXtXtXtXtXtXtXtXtXtXtXtXtXtXtXtXtXtXtXtXL G I tXd.qX>.p.B.z.l.!.*.@.V.z.z.z.B.5._.0X<X2X<X{.1X4X>X4X<XC  XeX>X[.B b  X<X(.>X1XrXn tXtXtXtXtXtXtXtX",
"tXtXtXtXtXtXtXtXtXtXtXtXtXtXtXtXtXtXtXtXtXtXL S 5 ~.&Xm.5.l.l.z.k.B.m.g.l.l.l.B.:.(.0X<X<X>X0X X[.4X4XoX*.!.[.c.x.n.Q.N.eXx.n.eXwXC tXtXtXtXtXtXtXtX",
"tXtXtXtXtXtXtXtXtXtXtXtXtXtXtXtXtXtXtXtXtXtXtXtXtX;X{.m.Z.x.l.a.k.g.g.z.f.l.f.f.7.=X,X-X,X=X7XB.k.wX1X(.3.f.a.m.6.k Z.Z.&X(.5.wXeX;.tXtXtXtXtXtXtXtX",
"tXtXtXtXtXtXtXtXtXtXtXtXtXtXtXtXtXtXtXtXtXtXtXtXM ,X(.z.N.(.(.p.f.l.;.2.m.f.f.3.6.6X=X=X=X=X1X!.l.qX&Xl.-.n.f.V.*.tX0 k.].qX7.).eX8.tXtXtXtXtXtXtXtX",
"tXtXtXtXtXtXtXtXtXtXtXtXtXtXtXtXtXtXtXtXtXtXtXtX@.0X/.z.v.b.(.b.a.z.p.l B z.g.-.6.7X=X=X=X=X,X{.).0X&X*.%.z.V.@.tXtXtXz z.4Xl.6.eXn.tXtXtXtXtXtXtXtX",
"tXtXtXtXtXtXtXtXtXtXtXtXtXtXtXtXtXtXtXtXtXtXtXtX8.0XB.Z.f.5.Z.N.7.;.m.b.j m g.-.k.wX=XXX=X=X=X*X>X&Xz.C f.V.;.tXtXtXtXtXN (.C.l.0XV.tXtXtXtXtXtXtXtX",
"tXtXtXtXtXtXtXtXtXtXtXtXtXtXtXtXtXtXtXtXtXtXtXtXm.,XN.B.z 7.N.N.m.p.%.;.!.p.p.;.m.6XXXoX=XXXoX=X-X).-.1.f.n tXtXtXtXtXtXtX-.m.).0XW.tXtXtXtXtXtXtXtX",
"tXtXtXtXtXtXtXtXtXtXtXtXtXtXtXtXtXtXtXtXtXtXtXtXQ.}.Z.B m C.z.z.m._.u tXk -.p.@.!._.!.-X*XXXXX,X[.7.l -.k.c tXtXtXtXtXtXtXz 1.).wX!.tXtXtXtXtXtXtXtX",
"tXtXtXtXtXtXtXtXtXtXtXtXtXtXtXtXtXtXtXtXtXtXtXj ].].3.B n.n.l.n.!.B tXtXtXtXtX0 !.z.C.=X.X.X-X[.W.t n Z. X<.tXtXtXtXtXtXtXtXx !.>X[.tXtXtXtXtXtXtXtX",
"tXtXtXtXtXtXtXtXtXtXtXtXtXtXtXtXtXtXtXtXtXtXtXN &XV.1.n.N.g.m.Q.t tXtXtXtXtXtXtXB.l.{..X.XXX.XW.-.tXN._.(.l tXtXtXtXtXtXtXtXtX!.f.a.k tXtXtXtXtXtXtX",
"tXtXtXtXtXtXtXtXtXtXtXtXtXtXtXtXtXtXtXtXtXtXtX-.,Xz.z.3.6.V.V.l tXtXtXtXtXtXtXtXV.!.XX.X.X&X!.7.N tXB 1.n.u tXtXtXtXtXtXtXtXn !.Q.2.tXtXtXtXtXtXtXtX",
"tXtXtXtXtXtXtXtXtXtXtXtXtXtXtXtXtXtXtXtXtXtXtX3.-Xn.8.n m.n.t tXtXtXtXtXtXtXtXr (.*X}.[..X).m.z tXtXb p.-.C tXtXtXtXtXtXtXtXtX;.wX].r tXtXtXtXtXtXtX",
"tXtXtXtXtXtXtXtXtXtXtXtXtXtXtXtXtXtXtXtXtXtXN Q.}.b.7.V.f.r tXtXtXtXtXtXtXtXtXk }..X[.{..XQ.%.tXtXtXb.&X*.tXtXtXtXtXtXtXtXtXtX:.*X}.l tXtXtXtXtXtXtX",
"tXtXtXtXtXtXtXtXtXtXtXtXtXtXtXtXtXtXtXtXtXtX;.7Xg.*.V.2.tXtXtXtXtXtXtXtXtXtXtX@.*X{.].}.).p.x tXtX5.4Xa.x tXtXtXtXtXtXtXtXtXtXtXQ.-XB tXtXtXtXtXtXtX",
"tXtXtXtXtXtXtXtXtXtXtXtXtXtXtXtXtXtXtXtXtXx [.}.x 3.p.tXtXtXtXtXtXtXtXtXtXtXtX1.-X].].{.W.V tXtXt .X,XV tXtXtXtXtXtXtXtXtXtXtXtXV.7X;.tXtXtXtXtXtXtX",
"tXtXtXtXtXtXtXtXtXtXtXtXtXtXtXtXtXtXtXtXtX3.-Xb.7.6.tXtXtXtXtXtXtXtXtXtXtXtXtX6.&X).[.].;.tXtXb.m..X).l tXtXtXtXtXtXtXtXtXtXtXx ].,X;.tXtXtXtXtXtXtX",
"tXtXtXtXtXtXtXtXtXtXtXtXtXtXtXtXtXtXtXtXB }.(.a.z.B tXtXtXtXtXtXtXtXtXtXtXtXtXf.*X~.].W.g tXtXn g 3.j tXtXtXtXtXtXtXtXtXtXtXtX6.W.W.b.m tXtXtXtXtXtX",
"tXtXtXtXtXtXtXtXtXtXtXtXtXtXtXtXtXtXtXtXM.-Xn.h.%.tXtXtXtXtXtXtXtXtXtXtXtXtXtXn.{.!.].m.r tXtXtXtXtXtXtXtXtXtXtXtXtXtXtXtXtXtXr n a.6.9 tXtXtXtXtXtX",
"tXtXtXtXtXtXtXtXtXtXtXtXtXtXtXtXtXtX% ;.g.n.g.p.g tXtXtXtXtXtXtXtXtXtXtXtXtXg }.}.~.).W.7 tXtXtXtXtXtXtXtXtXtXtXtXtXtXtXtXtXtXtXtXtXtXtXtXtXtXtXtXtX",
"tXtXtXtXtXtXtXtXtXtXtXtXtXtXtXtXtXz M.m.j b.W.p.q tXtXtXtXtXtXtXtXtXtXtXz y n ~.p.W.].b.g tXtXtXtXtXtXtXtXtXtXtXtXtXtXtXtXtXtXtXtXtXtXtXtXtXtXtXtXtX",
"tXtXtXtXtXtXtXtXtXtXtXtXtXtXtXtXtXy @.z n -.z j tXtXtXtXtXtXtXtXtXtXtXtXg.b.*X%.@.].W.p.n tXtXtXtXtXtXtXtXtXtXtXtXtXtXtXtXtXtXtXtXtXtXtXtXtXtXtXtXtX",
"tXtXtXtXtXtXtXtXtXtXtXtXtXtXtXtXtXtXtXtXtXtXtXtXtXtXtXtXtXtXtXtXtXtXtXtX@.2.*X2.#.W.p.B tXtXtXtXtXtXtXtXtXtXtXtXtXtXtXtXtXtXtXtXtXtXtXtXtXtXtXtXtXtX",
"tXtXtXtXtXtXtXtXtXtXtXtXtXtXtXtXtXtXtXtXtXtXtXtXtXtXtXtXtXtXtXtXtXtXtXtXtX= 8 9 8 = tXtXtXtXtXtXtXtXtXtXtXtXtXtXtXtXtXtXtXtXtXtXtXtXtXtXtXtXtXtXtXtX",
"tXtXtXtXtXtXtXtXtXtXtXtXtXtXtXtXtXtXtXtXtXtXtXtXtXtXtXtXtXtXtXtXtXtXtXtXtXtXtXtXtXtXtXtXtXtXtXtXtXtXtXtXtXtXtXtXtXtXtXtXtXtXtXtXtXtXtXtXtXtXtXtXtXtX",
"tXtXtXtXtXtXtXtXtXtXtXtXtXtXtXtXtXtXtXtXtXtXtXtXtXtXtXtXtXtXtXtXtXtXtXtXtXtXtXtXtXtXtXtXtXtXtXtXtXtXtXtXtXtXtXtXtXtXtXtXtXtXtXtXtXtXtXtXtXtXtXtXtXtX",
"tXtXtXtXtXtXtXtXtXtXtXtXtXtXtXtXtXtXtXtXtXtXtXtXtXtXtXtXtXtXtXtXtXtXtXtXtXtXtXtXtXtXtXtXtXtXtXtXtXtXtXtXtXtXtXtXtXtXtXtXtXtXtXtXtXtXtXtXtXtXtXtXtXtX",
"tXtXtXtXtXtXtXtXtXtXtXtXtXtXtXtXtXtXtXtXtXtXtXtXtXtXtXtXtXtXtXtXtXtXtXtXtXtXtXtXtXtXtXtXtXtXtXtXtXtXtXtXtXtXtXtXtXtXtXtXtXtXtXtXtXtXtXtXtXtXtXtXtXtX",
"tXtXtXtXtXtXtXtXtXtXtXtXtXtXtXtXtXtXtXtXtXtXtXtXtXtXtXtXtXtXtXtXtXtXtXtXtXtXtXtXtXtXtXtXtXtXtXtXtXtXtXtXtXtXtXtXtXtXtXtXtXtXtXtXtXtXtXtXtXtXtXtXtXtX",
"tXtXtXtXtXtXtXtXtXtXtXtXtXtXtXtXtXtXtXtXtXtXtXtXtXtXtXtXtXtXtXtXtXtXtXtXtXtXtXtXtXtXtXtXtXtXtXtXtXtXtXtXtXtXtXtXtXtXtXtXtXtXtXtXtXtXtXtXtXtXtXtXtXtX"
};
