/* XPM */
static char *result[] = {
/* columns rows colors chars-per-pixel */
"85 75 228 2 ",
"   c #060404",
".  c #150607",
"X  c #2D1A1B",
"o  c #653F40",
"O  c #774949",
"+  c #625958",
"@  c #715D54",
"#  c #7F6055",
"$  c #5E5E60",
"%  c #6B6363",
"&  c #6E6B6C",
"*  c #6B6867",
"=  c #746D6D",
"-  c #796E6D",
";  c #77706F",
":  c #7C7473",
">  c #787475",
",  c #844043",
"<  c #864749",
"1  c #964C4D",
"2  c #8D4C51",
"3  c #904F50",
"4  c #8E5050",
"5  c #985C5B",
"6  c #AB595C",
"7  c #A75B5D",
"8  c #9D5E60",
"9  c #925E62",
"0  c #816D6C",
"q  c #876A69",
"w  c #9D6262",
"e  c #9F6C6C",
"r  c #946161",
"t  c #887C68",
"y  c #827574",
"u  c #847C7C",
"i  c #897E7D",
"p  c #847777",
"a  c #9B7372",
"s  c #997877",
"d  c #A36B6A",
"f  c #A86868",
"g  c #B16465",
"h  c #BE6A6D",
"j  c #B7706F",
"k  c #A67C7C",
"l  c #A97F7B",
"z  c #A87675",
"x  c #B37471",
"c  c #B37A77",
"v  c #BB7B7B",
"b  c #B97777",
"n  c #AA6A71",
"m  c #C37C7A",
"M  c #CD7F7B",
"N  c #85807D",
"B  c #8A817D",
"V  c #92877C",
"C  c #AD807F",
"Z  c #B1817F",
"A  c #BA827E",
"S  c #A4977E",
"D  c #C5807D",
"F  c #CA817B",
"G  c #8B8483",
"H  c #8E8887",
"J  c #878883",
"K  c #928584",
"L  c #948A86",
"P  c #938C8C",
"I  c #998E8A",
"U  c #988582",
"Y  c #9E928D",
"T  c #9D998F",
"R  c #97918D",
"E  c #9C9692",
"W  c #9F9896",
"Q  c #9F9E9C",
"!  c #8D9494",
"~  c #A38B88",
"^  c #B38281",
"/  c #BA8482",
"(  c #BC8C85",
")  c #B58B8A",
"_  c #BB8C89",
"`  c #B68986",
"'  c #A2928D",
"]  c #A8958C",
"[  c #B6928D",
"{  c #A19692",
"}  c #A39A95",
"|  c #A49C9B",
" . c #AA9F97",
".. c #B69B92",
"X. c #BB9695",
"o. c #BAAC8E",
"O. c #A5A195",
"+. c #A6A19A",
"@. c #ACA19C",
"#. c #B3A49C",
"$. c #B7AA9C",
"%. c #BFB798",
"&. c #ABA5A1",
"*. c #AEABA4",
"=. c #AAABA9",
"-. c #B1A7A2",
";. c #B4AAA4",
":. c #B8ADA7",
">. c #B5AEAA",
",. c #B9AEA9",
"<. c #BBB1A7",
"1. c #BCB2AC",
"2. c #B5B4AB",
"3. c #BDB4B2",
"4. c #BBB9B5",
"5. c #C48B86",
"6. c #CC8E89",
"7. c #C68D88",
"8. c #C1918C",
"9. c #CC938C",
"0. c #D6938E",
"q. c #DA948C",
"w. c #D29C8F",
"e. c #C29692",
"r. c #CA9B96",
"t. c #D39C94",
"y. c #DC9A94",
"u. c #D49F99",
"i. c #DC9592",
"p. c #DA8B83",
"a. c #E2928A",
"s. c #EC9D99",
"d. c #C7A39C",
"f. c #CAA39C",
"g. c #D4A39A",
"h. c #DAA49B",
"j. c #C3B599",
"k. c #E9A69E",
"l. c #CDABA2",
"z. c #CAABA7",
"x. c #DCACA3",
"c. c #D6ACA3",
"v. c #C2B6AC",
"b. c #C5B9AC",
"n. c #C6B4A6",
"m. c #D4B3AB",
"M. c #DAB5AB",
"N. c #DAB3A7",
"B. c #C1B6B2",
"V. c #C4BBB3",
"C. c #CBBDB4",
"Z. c #C7BEB9",
"A. c #C8BEB9",
"S. c #DCB8B4",
"D. c #E8ABA2",
"F. c #E2B3A9",
"G. c #EAB4AA",
"H. c #E6B9AE",
"J. c #EEB2A6",
"K. c #F1BBAE",
"L. c #E3BDB2",
"P. c #EABBB2",
"I. c #F0BFB2",
"U. c #D1C59D",
"Y. c #DDD1A5",
"T. c #CBC2B7",
"R. c #C5C1BC",
"E. c #CCC3BC",
"W. c #D1C5BB",
"Q. c #DCC0BA",
"!. c #D1C7BC",
"~. c #D4CEAF",
"^. c #E4C1B6",
"/. c #ECC1B5",
"(. c #EEC7BA",
"). c #ECC9BC",
"_. c #E7CABB",
"`. c #F5CCBC",
"'. c #F9C7BA",
"]. c #E2D9BD",
"[. c #CEC7C2",
"{. c #C6C6C5",
"}. c #D3CCC3",
"|. c #D9CCC4",
" X c #DDD1C6",
".X c #DDD4CC",
"XX c #D7D5CB",
"oX c #DBD6D3",
"OX c #DFDAD1",
"+X c #EBCEC2",
"@X c #E7CEC5",
"#X c #F5CDC1",
"$X c #ECD1C4",
"%X c #E1D5CC",
"&X c #EED7C9",
"*X c #E2D9CE",
"=X c #E5D8C7",
"-X c #F3D1C2",
";X c #FFDCCC",
":X c #F9D6C9",
">X c #E4DDD4",
",X c #E8DED4",
"<X c #EDE7C6",
"1X c #F6EFCD",
"2X c #E5E1D7",
"3X c #E9E1D7",
"4X c #E5E3DC",
"5X c #EBE3DA",
"6X c #EDE8DE",
"7X c #EDE9D3",
"8X c #FEE3D3",
"9X c #F1E8DF",
"0X c #FEEBDA",
"qX c #F9E5D6",
"wX c #F8F0D8",
"eX c #F4ECE3",
"rX c #F9EFE6",
"tX c #F5EEE9",
"yX c #F5F2E7",
"uX c #FCF2E4",
"iX c #F5F2EA",
"pX c #FCF3EB",
"aX c #FEFAEC",
"sX c #FEFCF3",
"dX c #FFFFFD",
"fX c #FAF3F1",
"gX c #E4E4E7",
"hX c None",
/* pixels */
"hXhXhXhXhXhXhXhXhXhXhXhXhXhXhXhXhXhXhXhXhXhXhXhXhXhXhXhXhXhXhXhXhXhXhXhXhXhXhXhXhXhXhXhXhXhXhXhXhXhXhXhXhXhXhXhXhXhXhXhXhXhXhXhXhXhXhXhXhXhXhXhXhXhXhXhXhXhXhXhXhXhXhXhXhX",
"hXhXhXhXhXhXhXhXhXhXhXhXhXhXhXhXhXhXhXhXhXhXhXhXhXhXhXhXhXhXhXhXhXhXhXhXhXhXhXhXhXhXhXhXhXhXhXhXhXhXhXhXhXhXhXhXhXhXhXhXhXhXhXhXhXhXhXhXhXhXhXhXhXhXhXhXhXhXhXhXhXhXhXhXhX",
"hXhXhXhXhXhXhXhXhXhXhXhXhXhXhXhXhXhXhXhXhXhXhXhXhXhXhXhXhXhXhXhXhXhXhXhXhXhXhXhXhXhXhXhXhXhXhXhXhXhXhXhXhXhXhXhXhXhXhXhXhXhXhXhXhXhXhXhXhXhXhXhXhXhXhXhXhXhXhXhXhXhXhXhXhX",
"hXhXhXhXhXhXhXhXhXhXhXhXhXhXhXhXhXhXhXhXhXhXhXhXhXhXhXhXhXhXhXhXhXhXhXhXhXhXhXhXhXhXhXhXhXhXhXhXhXhXhXhXhXhXhXhXhXhXhXhXhXhXhXhXhXhXhXhXhXhXhXhXhXhXhXhXhXhXhXhXhXhXhXhXhX",
"hXhXhXhXhXhXhXhXhXhXhXhXhXhXhXhXhXhXhXhXhXhXhXhXhXhXhXhXhXhXhXhXhXhXhXhXhXhXhXhXhXhXhXhXhXhXhXhXhXhXhXhXhXhXhXhXhXhXhXhXhXhXhXhXhXhXhXhXhXhXhXhXhXhXhXhXhXhXhXhXhXhXhXhXhX",
"hXhXhXhXhXhXhXhXhXhXhXhXhXhXhXhXhXhXhXhXhXhXhXhXhXhXhXhXhXhXhXhXhXhXhXhXhXhXhXhXhXhXhXhXhXhXhXhXhXhXhXhXhXhXhXhXhXhXhXhXhXhXhXhXhXhXhXhXhXhXhXhXhXhXhXhXhXhXhXhXhXhXhXhXhX",
"hXhXhXhXhXhXhXhXhXhXhXhXhXhXhXhXhXhXhXhXhXhXhXhXhXhXhXhXhXhXhXhXhXhXhXhXhXhXhXhXhXhXhXhXhXhXhXhXhXhXhXhXhXhXhXhXhXhXhXhXhXhXhXhXhXhXhXhXhXhXhXhXhXhXhXhXhXhXhXhXhXhXhXhXhX",
"hXhXhXhXhXhXhXhXhXhXhXhXhXhXhXhXhXhXhXhXhXhXhXhXhXhXhXhXhXhXhXhXhXhXhXhXhXhXhXhXhXhXhXhXhXhXhXhXhXhXhXhXhXhXhXhXhXhXhXhXhXhXhXhXhXhXhXhXhXhXhXhXhXhXhXhXhXhXhXhXhXhXhXhXhX",
"hXhXhXhXhXhXhXhXhXhXhXhXhXhXhXhXhXhXhXhXhXhXhXhXhXhXhXhXhXhXhXhXhXhXhXhXhXhXhXhXhXhXhXhXhXhXhXhXhXhXhXhXhXhXhXhXhXhXhXhXhXhXhXhXhXhXhXhXhXhXhXhXhXhXhXhXhXhXhXhXhXhXhXhXhX",
"hXhXhXhXhXhXhXhXhXhXhXhXhXhXhXhXhXhXhXhXhXhXhXhXhXhXhXhXhXhXhXhXhXhXhXhXhXhXhXhXhXhXhXhXhXhXhXhXhXhXhXhXhXhXhXhXhXhXhXhXhXhXhXhXhXhXhXhXhXhXhXhXhXhXhXhXhXhXhXhXhXhXhXhXhX",
"hXhXhXhXhXhXhXhXhXhXhXhXhXhXhXhXhXhXhXhXhXhXhXhXhXhXhXhXhXhXhXhXhXhXhXhXhXhXhXhXhXhXhXhXhXhXhXhXhXhXhXhXhXhXhXhXhXhXhXhXhXhXhXhXhXhXhXhXhXhXhXhXhXhXhXhXhXhXhXhXhXhXhXhXhX",
"hXhXhXhXhXhXhXhXhXhXhXhXhXhXhXhXhXhXhXhXhXhXhXhXhXhXhXhXhXhXhXhXhXhXhXhXhXhXhXhXhXhXhXhXhXhXhXhXhXhXhXhXhXhXhXhXhXhXhXhXhXhXhXhXhXhXhXhXhXhXhXhXhXhXhXhXhXhXhXhXhXhXhXhXhX",
"hXhXhXhXhXhXhXhXhXhXhXhXhXhXhXhXhXhXhXhXhXhXhXhXhXhXhXhXhXhXhXhXhXhXhXhXhXhXhXhXhXhXhXhXhXhXhXhXhXhXhXhXhXhXhXhXhXhXhXhXhXhXhXhXhXhXhXhXhXhXhXhXhXhXhXhXhXhXhXhXhXhXhXhXhX",
"hXhXhXhXhXhXhXhXhXhXhXhXhXhXhXhXhXhXhXhXhXhXhXhXhXhXhXhXhXhXhXhXhXhXhXhXhXhXhXhXhXhXhXhXhXhXhXhXhXhXhXhXhXhXhXhXhXhXhXhXhXhXhXhXhXhXhXhXhXhXhXhXhXhXhXhXhXhXhXhXhXhXhXhXhX",
"hXhXhXhXhXhXhXhXhXhXhXhXhXhXhXhXhXhXhXhXhXhXhXhXhXhXhXhXhXhXhXhXhXhXhXhXhXhXhXhXhXhXhXhXhXhXhXhXhXhXhXhXhXhXhXhXhXhXhXhXhXhXhXhXhXhXhXhXhXhXhXhXhXhXhXhXhXhXhXhXhXhXhXhXhX",
"hXhXhXhXhXhXhXhXhXhXhXhXhXhXhXhXhXhXhXhXhXhXhXhXhXhXhXhXhXhXhXhXhXhXhXhXhXhXhXhXhXhXhXhXhXhXhXhXhXhXhXhXhXhXhXhXhXhXhXhXhXhXhXhXhXhXhXhXhXhXhXhXhXhXhXhXhXhXhXhXhXhXhXhXhX",
"hXhXhXhXhXhXhXhXhXhXhXhXhXhXhXhXhXhXhXhXhXhXhXhXhXhXhXhXhXhXhXhXhXhXhXhXhXhXhXhXhXhXhXhXhXhXhXhXhXhXhXhXhXhXhXhXhXhXhXhXhXhXhXhXhXhXhXhXhXhXhXhXhXhXhXhXhXhXhXhXhXhXhXhXhX",
"hXhXhXhXhXhXhXhXhXhXhXhXhXhXhXhXhXhXhXhXhXhXhXhXhXhXhXhXhXhXhXhXhXhXhXhXhXhXhXhXhXhXhXhXhXhXhXhXhXhXhXhXhXhXhXhXhXhXhXhXhXhXhXhXhXhXhXhXhXhXhXhXhXhXhXhXhXhXhXhXhXhXhXhXhX",
"hXhXhXhXhXhXhXhXhXhXhXhXhXhXhXhXhXhXhXhXhXhXhXhXhXhXhXhXhXhXhXhXhXhXhXhXhXhXhXhXhXhXhXhXhXhXhXhXhXhXhXhXhXhXhXhXhXhXhXhXhXhXhXhXhXhXhXhXhXhXhXhXhXhXhXhXhXhXhXhXhXhXhXhXhX",
"hXhXhXhXhXhXhXhXhXhXhXhXhXhXhXhXhXhXhXhXhXhXhXhXhXhXhXhXhXhXhXhXhXhXhXhXhXhXhXhXhXhXhXhXhXhXhXhXhXhXhXhXhXhXhXhXhXhXhXhXhXhXhXhXhXhXhXhXhXhXhXhXhXhXhXhXhXhXhXhXhXhXhXhXhX",
"hXhXhXhXhXhXhXhXhXhXhXhXhXhXhXhXhXhXhXhXhXhXhXhXhXhXhXhXhXhXhXhXhXhXhXhXhXhXhXhXhXhXhXhXhXhXhXhXhXhXhXhXhXhXhXhXhXhXhXhXhXhXhXhXhXhXhXhXhXhXhXhXhXhXhXhXhXhXhXhXhXhXhXhXhX",
"hXhXhXhXhXhXhXhXhXhXhXhXhXhXhXhXhXhXhXhXhXhXhXhXhXhXhXhXhXhXhXhXhXhXhXhXhXhXhXhXhXhXhXhXhXhXhXhXhXhXhXhXhXhXhXhXhXhXhXhXhXhXhXhXhXhXhXhXhXhXhXhXhXhXhXhXhXhXhXhXhXhXhXhXhX",
"hXhXhXhXhXhXhXhXhXhXhXhXhXhXhXhXhXhXhXhXhXhXhXhXhXhXhXhXhXhXhXhXhXhXhXhXhXhXhXhXhXhXhXhXhXhXhXhXhXhXhXhXhXhXhXhXhXhXhXhXhXhXhXhXhXhXhXhXhXhXhXhXhXhXhXhXhXhXhXhXhXhXhXhXhX",
"hXhXhXhXhXhXhXhXhXhXhXhXhXhXhXhXhXhXhXhXhXhXhXhXhXhXhXhXhXhXhXhXhXhXhXhXhXhXhXhXhXhXhXhXhXhXhXhXhXhXhXhXhXhXhXhXhXhXhXhXhXhXhXhXhXhXhXhXhXhXhXhXhXhXhXhXhXhXhXhXhXhXhXhXhX",
"hXhXhXhXhXhXhXhXhXhXhXhXhXhXhXhXhXhXhXhXhXhXhXhXhXhXhXhXhXhXhXhXhXhXhXhXhXhXhXhXhXhXhXhXhXhXhXhXhXhXhXhXhXhXhXhXhXhXhXhXhXhXhXhXhXhXhXhXhXhXhXhXhXhXhXhXhXhXhXhXhXhXhXhXhX",
"hXhXhXhXhXhXhXhXhXhXhXhXhXhXhXhXhXhXhXhXhXhXhXhXhXhXhXhXhXhXhXhXhXhXhXhXhXhXhXhXhXhXhXhXhXhXhXhXhXhXhXhXhXhXhXhXhXhXhXhXhXhXhXhXhXhXhXhXhXhXhXhXhXhXhXhXhXhXhXhXhXhXhXhXhX",
"hXhXhXhXhXhXhXhXhXhXhXhXhXhXhXhXhXhXhXhXhXhXhXhXhXhXhXhXhXhXhXhXhXhXhXhXhXhXhXhXhXhXhXhXhXhXhXhXhXhXhXhXhXhXhXhXhXhXhXhXhXhXhXhXhXhXhXhXhXhXhXhXhXhXhXhXhXhXhXhXhXhXhXhXhX",
"hXhXhXhXhXhXhXhXhXhXhXhXhXhXhXhXhXhXhXhXhXhXhXhXhXhXhXhXhXhXhXhXhXhXhXhXhXhXhXhXhXhXhXhXhXhXhXhXhXhXhXhXhXhXhXhXhXhXhXhXhXhXhXhXhXhXhXhXhXhXhXhXhXhXhXhXhXhXhXhXhXhXhXhXhX",
"hXhXhXhXhXhXhXhXhXhXhXhXhXhXhXhXhXhXhXhXhXhXhXhXhXhXhXhXhXhXhXhXhXhXhXhXhXhXhXhXhXhXhXhXhXhXhXhXhXhXhXhXhXhXhXhXhXhXhXhXhXhXhXhXhXhXhXhXhXhXhXhXhXhXhXhXhXhXhXhXhXhXhXhXhX",
"hXhXhXhXhXhXhXhXhXhXhXhXhXhXhXhXhXhXhXhXhXhXhXhXhXhXhXhXhXhXhXhXhXhXhXhXhXhXhXhXhXhXhXhXhXhXhXhXhXhXhXhXhXhXhXhXhXhXhXhXhXhXhXhXhXhXhXhXhXhXhXhXhXhXhXhXhXhXhXhXhXhXhXhXhX",
"hXhXhXhXhXhXhXhXhXhXhXhXhXhXhXhXhXhXhXhXhXhXhXhXhXhXhXhXhXhXhXhXhXhXhXhXhXhXhXhXhXhXhXhXhXhXhXhXhXhXhXhXhXhXhXhXhXhXhXhXhXhXhXhXhXhXhXhXhXhXhXhXhXhXhXhXhXhXhXhXhXhXhXhXhX",
"hXhXhXhXhXhXhXhXhXhXhXhXhXhXhXhXhXhXhXhXhXhXhXhXhXhXhXhXhXhXhXhXhXhXhXhXhXhXhXhXhXhXhXhXhXhXhXhXhXhXhXhXhXhXhXhXhXhXhXhXhXhXhXhXhXhXhXhXhXhXhXhXhXhXhXhXhXhXhXhXhXhXhXhXhX",
"hXhXhXhXhXhXhXhXhXhXhXhXhXhXhXhXhXhXhXhXhXhXhXhXhXhXhXhXhXhXhXhXhXhXhXhXhXhXhXhXhXhXhXhXhXhXhXhXhXhXhXhXhXhXhXhXhXhXhXhXhXhXhXhXhXhXhXhXhXhXhXhXhXhXhXhXhXhXhXhXhXhXhXhXhX",
"hXhXhXhXhXhXhXhXhXhXhXhXhXhXhXhXhXhXhXhXhXhXhXhXhXhXhXhXhXhXhXhXhXhXhXhXhXhXhXhXhXhXhXhXhXhXhXhXhXhXf.hXhXhXhXhXhXhXhXhXhXhXhXhXhXhXhXhXhXhXhXhXhXhXhXhXhXhXhXhXhXhXhXhXhX",
"hXhXhXhXhXhXhXhXhXhXhXhXhXhXhXhXhXhXhXhXhXhXhXhXhXhXhXhXhXhXhXhXhXhXhXhXhXhXhXhXhXhXhXhXhXhXhXhXhX_ dX&XQ.d hXhXhXhXhXhXhXhXhXhXhXhXhXhXhXhXhXhXhXhXhXhXhXhXhXhXhXhXhXhXhX",
"hXhXhXhXhXhXhXhXhXhXhXhXhXhXhXhXhXhXhXhXhXhXhXhXhXhXhXhXhXhXhXhXhXhXhXhXhXhXhXhXhXhXhXhXhXhXhXhXhXf.8X`.0X&XhXhXhXhXhXhXhXhXhXhXhXhXhXhXhXhXhXhXhXhXhXhXhXhXhXhXhXhXhXhXhX",
"hXhXhXhXhXhXhXhXhXhXhXhXhXhXhXhXhXhXhXhXhXhXhXhXhXhXhXhXhXhXhXhXhXhXhXhXhXhXhXhX^ m.hX` hXhXhXhXhX/ ;X-X`.;Xw hXhXhXhXhXhXhXhXhXhXhXhXhXhXhXhXhXhXhXhXhXhXhXhXhXhXhXhXhXhX",
"hXhXhXhXhXhXhXhXhXhXhXhXhXhXhXhXhXhXhXhXhXhXhXhXhXhXhXhXhXhXhXhXhXhXhXhXhXhXhXhXH.u.9.8X$X9 hXhXhXhXp.J.K.q.hXhXhXhXhXhXhXhXhXhXhXhXhXhXhXhXhXhXhXhXhXhXhXhXhXhXhXhXhXhXhX",
"hXhXhXhXhXhXhXhXhXhXhXhXhXhXhXhXhXhXhXhXhXhXhXhXhXhXhXhXhXhXhXhXhXhXhXhXhXhXhXZ h.x g g L.0XhXhXhXP a d.9.v hXhXhXhXhXhXhXhXhXhXhXhXhXhXhXhXhXhXhXhXhXhXhXhXhXhXhXhXhXhXhX",
"hXhXhXhXhXhXhXhXhXhXhXhXhXhXhXhXhXhXhXhXhXhXhXhXhXhXhXhXhXhXhXhXhXhXhXhXhXhXhXe K.q.5 . O 0Xs u @.*.4.=.1.R.hXG hXhXhXhXhXhXhXhXhXhXhXhXhXhXhXhXhXhXhXhXhXhXhXhXhXhXhXhXhX",
"hXhXhXhXhXhXhXhXhXhXhXhXhXhXhXhXhXhXhXhXhXhXhXhXhXhXhXhXhXhXhXhXhXhXhXhXhXhXhXhXr.k.< O k.x W oX} p } E.V.} 1.B.+ hXhXhXhXhXhXhXhXhXhXhXhXhXhXhXhXhXhXhXhXhXhXhXhXhXhXhXhX",
"hXhXhXhXhXhXhXhXhXhXhXhXhXhXhXhXhXhXhXhXhXhXhXhXhXhXhXhXhXhXhXhXhXhXhXhXhXhXhXhXhXG.D.s.q.p R.Z.>.V $.G +.E E  .hXhXhXhXhXhXhXhXhXhXhXhXhXhXhXhXhXhXhXhXhXhXhXhXhXhXhXhXhX",
"hXhXhXhXhXhXhXhXhXhXhXhXhXhXhXhXhXhXhXhXhXhXhXhXhXhXhXhXhXhXhXhXhXhXhXhXhXhXhXhXhXw y.7.q &.1.B.1.}.l.q =.H + tX> hXhXhXhXhXhXhXhXhXhXhXhXhXhXhXhXhXhXhXhXhXhXhXhXhXhXhXhX",
"hXhXhXhXhXhXhXhXhXhXhXhXhXhXhXhXhXhXhXhXhXhXhXhXk C z hXhXhXhXhXhXhXhXhXhXhXhXhXhXhXhX* &.B.B.-.+.4.t :.dX;.@ { ; H =.hXhXhXhXhXhXhXhXhXhXhXhXhXhXhXhXhXhXhXhXhXhXhXhXhXhX",
"hXhXhXhXhXhXhXhXhXhXhXhXhXhXhXhXhXhXhXhXhXhXl.^.`.0XqX$Xd hXhXhXhXhXhXhXhXhXhXhXhXhXJ T.5XeXsX[.N } 1.[.}.} H ;.E.,.X. .J hXhXhXhXhXhXhXhXhXhXhXhXhXhXhXhXhXhXhXhXhXhXhXhX",
"hXhXhXhXhXhXhXhXhXhXhXhXhXhXhXhXhXhXhXhXk `.J.c e./ D uXaXe.hXhXhXhXhXhXhXhXhXhXhXhXv.9XpXeXtX,XT.N H B : &..XV.>.a 6 0.M.] hX) d.hXhXhXhXhXhXhXhXhXhXhXhXhXhXhXhXhXhXhXhX",
"hXhXhXhXhXhXhXhXhXhXhXhXhXhXhXhXhXhXhXhXw.7.hXhXhXhXhX6.0X0X_ hXhXhXhXhXhXhXhXhXhXhXV.3XpXpXeXtX.X~.j.$.oX>XdXrX4X) 6 2 m '._.+XaX).hXhXhXhXhXhXhXhXhXhXhXhXhXhXhXhXhXhXhX",
"hXhXhXhXhXhXhXhXhXhXhXhXhXhXhXhXhXhXhXg.G.hXhXhXhXhXhXhXr.0Xf.hXhXhXhXhXhXhXhXhXhX: I E.pXyXeXsX!.gX1X%.fXeXrXsXdX%X1 . . , t.8X0XP.hXhXhXhXhXhXhXhXhXhXhXhXhXhXhXhXhXhXhX",
"hXhXhXhXhXhXhXhXhXhXhXhXhXhXhXhXhXhX4 D hXhXhXhXhXhXhXhX^ ^.qXhXhXhXhXhXhXhXhXhXK E : Y $.V.eXpX3XoX7Xj.<.,XpXrXpXyXv ,   X h r.-Xf hXhXhXhXhXhXhXhXhXhXhXhXhXhXhXhXhXhXhX",
"hXhXhXhXhXhXhXhXhXhXhXhXhXhXhXhXhXhX5 v hXhXhXhXhXhXhXhXX.(.8XhXhXhXhXhXhXhXhXW oX}.E.u % <.*XaXdXb.4XaX] E.pXrX6XpX>Xb , 3 m m g r hXhXhXhXhXhXhXhXhXhXhXhXhXhXhXhXhXhXhX",
"hXhXhXhXhXhXhXhXhXhXhXhXhXhXhXhXhXhX3 u.hXhXhXhXhXhXhXhXhX`.;XhXhXhXhXhXhXhXu 4.B.}.6X;.,.sX3Xv.>XyXXX6XY.;.9XtX6X5XsX2XS.5.7 6 / +.hXhXhXhXhXhXhXhXhXhXhXhXhXhXhXhXhXhXhX",
"hXhXhXhXhXhXhXhXhXhXhXhXhXhXhXhXhXhXhX^ hXhXhXhXhXhXhXhX` f.#XhXhXhXhXhXhXhX| ,.{..X3.E.sXsXsXW.Y 2X6XE.<Xo.T.rXtX6X5XtXsX>Xz.m.|.hXhXhXhXhXhXhXhXhXhXhXhXhXhXhXhXhXhXhXhX",
"hXhXhXhXhXhXhXhXhXhXhXhXhXhXhXhXhXhXhXhXhXhXhXhXhXhXhXhX8.H.c.hXhXhXhXhXhXP Z.&.>X>.E 5XdXpXsXsX<.Y 5XpX>X].$.,..X*X*X}.>.T.yX6XO.hXhXhXhXhXhXhXhXhXhXhXhXhXhXhXhXhXhXhXhX",
"hXhXhXhXhXhXhXhXhXhXhXhXhXhXhXhXhXhXhXhXhXhXhXhXhXhXhXhXg.0X).hXhXhXhXhXhX&.[.>.[.| R.sXpXrXyXsX=X- hXb.T.R.hXhXv.b.1.<.b.O.O.hXhXhXhXhXhXhXhXhXhXhXhXhXhXhXhXhXhXhXhXhXhX",
"hXhXhXhXhXhXhXhXhXhXhXhXhXhXhXhXhXhXhXhXhXhXhXhXhXhXhXX.`.8Xg.hXhXhXhXhXH }.>.E.A.,.|.A.eXsXyXsX6Xy hXhXhXhXhXhX1XsX=X~.hXhXhXhXhXhXhXhXhXhXhXhXhXhXhXhXhXhXhXhXhXhXhXhXhX",
"hXhXhXhXhXhXhXhXhXhXhXhXhXhXhXhXhXhXhXhXhXhXhXhXhXhXhX7./.`.( hXhXhXhXhX} .X| | G } &.p l.yXdXsXOX+.R hXhXhXhXhXY.<XU.hXhXhXhXhXhXhXhXhXhXhXhXhXhXhXhXhXhXhXhXhXhXhXhXhXhX",
"hXhXhXhXhXhXhXhXhXhXhXhXhXhXhXhXhXhXhXhXhXhXhXhXhXhXz D.P.x.hXhXhXhXhXhX1.3.>.&.;.[.#.[ ).m.>X>XE U { hXhXhXhXhXhXhXhXhXhXhXhXhXhXhXhXhXhXhXhXhXhXhXhXhXhXhXhXhXhXhXhXhXhX",
"hXhXhXhXhXhXhXhXhXhXhXhXhXhXhXhXhXhXhXhXhXhXhXhXhXhX( ;X;XM.hXhXhXhXhXH E.} | XXV.R N 7.0X$Xx...q g.x.% hXhXhXhXhXhXhXhXhXhXhXhXhXhXhXhXhXhXhXhXhXhXhXhXhXhXhXhXhXhXhXhXhX",
"hXhXhXhXhXhXhXhXhXhXhXhXhXhXhXhXhXhXhXhXhXhXhXhXhXhXg.:X;Xm.hXhXhXhXhX} |.&.: i * I !...u.`.F.r.r.'.g.$ hXhXhXhXhXhXhXhXhXhXhXhXhXhXhXhXhXhXhXhXhXhXhXhXhXhXhXhXhXhXhXhXhX",
"hXhXhXhXhXhXhXhXhXhXhXhXhXhXhXhXhXhXhXhXhXhXhXhXhXhX9.G.^.r.hXhXhXhXhX&.A.V.1.| { .X XOXf.7./ x.x.k.s hXhXhXhXhXhXhXhXhXhXhXhXhXhXhXhXhXhXhXhXhXhXhXhXhXhXhXhXhXhXhXhXhXhX",
"hXhXhXhXhXhXhXhXhXhXhXhXhXhXhXhXhXhXhXhXhXhXhXhXhXhXn g.(.l.hXhXhXhXG A.4.B.A.,.OXyXrXiXr.5.l.g.v q.w hXhXhXhXhXhXhXhXhXhXhXhXhXhXhXhXhXhXhXhXhXhXhXhXhXhXhXhXhXhXhXhXhXhX",
"hXhXhXhXhXhXhXhXhXhXhXhXhXhXhXhXhXhXhXhXhXhXhXhXhXhXw G.#X`.z.hXhXhX{ C.,.B.-.E.aXeX5X6X.X>XQ.8._ q hXhXhXhXhXhXhXhXhXhXhXhXhXhXhXhXhXhXhXhXhXhXhXhXhXhXhXhXhXhXhXhXhXhXhX",
"hXhXhXhXhXhXhXhXhXhXhXhXhXhXhXhXhXhXhXhXhXhXhXhXhXhXhXF J.D.b hXhX| ,.,.v.-.1.rX9X5X5X6XyXiX2XiXOXN hXhXhXhXhXhXhXhXhXhXhXhXhXhXhXhXhXhXhXhXhXhXhXhXhXhXhXhXhXhXhXhXhXhXhX",
"hXhXhXhXhXhXhXhXhXhXhXhXhXhXhXhXhXhXhXhXhXhXhXhXhXhXhXx q.D q.M - >.B.,.,. .,XeX5X5X5X5X5X6XeX6XyXb.: hXhXhXhXhXhXhXhXhXhXhXhXhXhXhXhXhXhXhXhXhXhXhXhXhXhXhXhXhXhXhXhXhXhX",
"hXhXhXhXhXhXhXhXhXhXhXhXhXhXhXhXhXhXhXhXhXhXhXhXhXhXhXhXg y.k.C E B.-.,. .A.yX5X,X,X5X5X5X5X5X5XrX*X} ; hXhXhXhXhXhXhXhXhXhXhXhXhXhXhXhXhXhXhXhXhXhXhXhXhXhXhXhXhXhXhXhXhX",
"hXhXhXhXhXhXhXhXhXhXhXhXhXhXhXhXhXhXhXhXhXhXhXhXhXhXhXhXz a.i.= @.,.;.>. ..X5X5X5X5X5X,X3X3X3X5X5X5X:.} B hXhXhXhXhXhXhXhXhXhXhXhXhXhXhXhXhXhXhXhXhXhXhXhXhXhXhXhXhXhXhXhX",
"hXhXhXhXhXhXhXhXhXhXhXhXhXhXhXhXhXhXhXhXhXhXhXhXhXhXhXhXhXj A = Y ,.-.-.-.%X5X>X,X2X5X5X5X5X3X3X3XrXb.@.i hXhXhXhXhXhXhXhXhXhXhXhXhXhXhXhXhXhXhXhXhXhXhXhXhXhXhXhXhXhXhXhX",
"hXhXhXhXhXhXhXhXhXhXhXhXhXhXhXhXhXhXhXhXhXhXhXhXhXhXhXhXhXhXo J i { ,.-. .%X5X,X5X5X5X>X3X5X5X5X2XrXE.@.I hXhXhXhXhXhXhXhXhXhXhXhXhXhXhXhXhXhXhXhXhXhXhXhXhXhXhXhXhXhXhXhX",
"hXhXhXhXhXhXhXhXhXhXhXhXhXhXhXhXhXhXhXhXhXhXhXhXhXhXhXhXhXhXhXy P i Y -.@.E.rX2X.X|.W.W.C.Q.!.>X3XeXV.;.P hXhXhXhXhXhXhXhXhXhXhXhXhXhXhXhXhXhXhXhXhXhXhXhXhXhXhXhXhXhXhXhX",
"hXhXhXhXhXhXhXhXhXhXhXhXhXhXhXhXhXhXhXhXhXhXhXhXhXhXhXhXhXhXhX! > K u K L Y !. XC.V.C.C.W.W.b.T.}.*X#.J & hXd hXhXhXhXhXhXhXhXhXhXhXhXhXhXhXhXhXhXhXhXhXhXhXhXhXhXhXhXhXhX",
"hXhXhXhXhXhXhXhXhXhXhXhXhXhXhXhXhXhXhXhXhXhXhXhXhXhXhXhXhXhXhXhXhX= H K i y L C.|.!.T.T.4.;.E.!.|.v.= % a g.$Xm.hXhXhXhXhXhXhXhXhXhXhXhXhXhXhXhXhXhXhXhXhXhXhXhXhXhXhXhXhX",
"hXhXhXhXhXhXhXhXhXhXhXhXhXhXhXhXhXhXhXhXhXhXhXhXhXhXhXhXhXhXhXhXhX' 0 * : i : N | R.O.hXhXA b.!.2.N p S.;X^.$X_.M.hXhXhXhXhXhXhXhXhXhXhXhXhXhXhXhXhXhXhXhXhXhXhXhXhXhXhXhX",
"hXhXhXhXhXhXhXhXhXhXhXhXhXhXhXhXhXhXhXhXhXhXhXhXhXhXhXhXhXhXM.+X:X(.e.#.B u K B ~ [ hXhXn a.q.8.l c G.8XI.6.6.h.x hXhXhXhXhXhXhXhXhXhXhXhXhXhXhXhXhXhXhXhXhXhXhXhXhXhXhXhX",
"hXhXhXhXhXhXhXhXhXhXhXhXhXhXhXhXhXhXhXhXhXhXhXhXhXhXhXhXhXd t.H.0XN.&XaX'.9.c y.F hXhXhXhXhXhXhXhXhXhXd l 5 2 hXhXhXhXhXhXhXhXhXhXhXhXhXhXhXhXhXhXhXhXhXhXhXhXhXhXhXhXhXhX",
"hXhXhXhXhXhXhXhXhXhXhXhXhXhXhXhXhXhXhXhXhXhXhXhXhXhXhXhXhXhXhX8 5 _ 9.9.b hXhXhXhXhXhXhXhXhXhXhXhXhXhXhXhXhXhXhXhXhXhXhXhXhXhXhXhXhXhXhXhXhXhXhXhXhXhXhXhXhXhXhXhXhXhXhXhX"
};
