/* XPM */
static char *result[] = {
/* columns rows colors chars-per-pixel */
"75 60 230 2 ",
"   c #161616",
".  c #251918",
"X  c #261818",
"o  c #373334",
"O  c #423D3C",
"+  c #59322C",
"@  c #6B2D37",
"#  c #673A3C",
"$  c #7E3C3D",
"%  c #743A3C",
"&  c #562A10",
"*  c #45403D",
"=  c #7A403E",
"-  c #71633D",
";  c #7B3D42",
":  c #793F48",
">  c #4B4645",
",  c #4D4A4A",
"<  c #4B4748",
"1  c #524D4C",
"2  c #594F4E",
"3  c #55514E",
"4  c #5A534E",
"5  c #4D4D54",
"6  c #534E51",
"7  c #545353",
"8  c #5A5454",
"9  c #5B5A5B",
"0  c #5A5659",
"q  c #4E5151",
"w  c #7D4342",
"e  c #7C4A49",
"r  c #635B5C",
"t  c #685C57",
"y  c #734F51",
"u  c #6C685D",
"i  c #7C7055",
"p  c #615F60",
"a  c #6B6664",
"s  c #6A6465",
"d  c #726968",
"f  c #787473",
"g  c #787071",
"h  c #833D3E",
"j  c #99372C",
"k  c #833E43",
"l  c #834345",
"z  c #844549",
"x  c #8B454B",
"c  c #854A4A",
"v  c #8B4A4B",
"b  c #8A4846",
"n  c #944A4C",
"m  c #8C4D53",
"M  c #854A51",
"N  c #904E53",
"B  c #914A54",
"V  c #855459",
"C  c #895656",
"Z  c #9A5B5C",
"A  c #925556",
"S  c #845B4D",
"D  c #A15F5E",
"F  c #8C7C59",
"G  c #9A605E",
"H  c #A1635F",
"J  c #945C62",
"K  c #886966",
"L  c #9D6363",
"P  c #9A6965",
"I  c #996D74",
"U  c #847B74",
"Y  c #827A7A",
"T  c #8B7E7C",
"R  c #817674",
"E  c #9B7777",
"W  c #A46463",
"Q  c #AA6967",
"!  c #A27876",
"~  c #BA7676",
"^  c #BB7977",
"/  c #BD7A79",
"(  c #B57775",
")  c #AC6E6E",
"_  c #C17D7E",
"`  c #8B815F",
"'  c #978867",
"]  c #8C817E",
"[  c #87807A",
"{  c #938878",
"}  c #BA817B",
"|  c #C1847E",
" . c #8D8181",
".. c #8E8B82",
"X. c #918483",
"o. c #948C83",
"O. c #9A8F85",
"+. c #978A89",
"@. c #9D938A",
"#. c #999287",
"$. c #929290",
"%. c #B78A84",
"&. c #A1968C",
"*. c #A2998E",
"=. c #A99489",
"-. c #A59B93",
";. c #A99D93",
":. c #A59B9A",
">. c #A99E9A",
",. c #A29794",
"<. c #B79691",
"1. c #AB878A",
"2. c #9CA590",
"3. c #B5A789",
"4. c #ACA29D",
"5. c #A9A197",
"6. c #B0A59E",
"7. c #B8A598",
"8. c #AEA4A2",
"9. c #A5A0A0",
"0. c #B1A6A1",
"q. c #B5AAA4",
"w. c #B9ADA7",
"e. c #B9AEA9",
"r. c #B7AEA9",
"t. c #BCB2AC",
"y. c #BAB1A7",
"u. c #BFB5B1",
"i. c #BEBAB4",
"p. c #C38382",
"a. c #C98A89",
"s. c #C99289",
"d. c #D4948D",
"f. c #D9978F",
"g. c #CA9995",
"h. c #D69593",
"j. c #D99792",
"k. c #D59B93",
"l. c #DA9993",
"z. c #DC9B99",
"x. c #D39E9C",
"c. c #DA8D8F",
"v. c #E09D97",
"b. c #E09D99",
"n. c #E49793",
"m. c #C6A19B",
"M. c #DDA29A",
"N. c #D3A39B",
"B. c #C7BE92",
"V. c #E2A19B",
"C. c #C49FA4",
"Z. c #D7ACA5",
"A. c #C3B6AD",
"S. c #C7BAAF",
"D. c #C0B6B1",
"F. c #C4BAB4",
"G. c #CCBFB5",
"H. c #C5BDB9",
"J. c #C9BEBA",
"K. c #CDB2AC",
"L. c #E6ABA5",
"P. c #EBB5AA",
"I. c #EABAAE",
"U. c #E4B7AA",
"Y. c #EBBDB2",
"T. c #E6BBB1",
"R. c #F1BAB1",
"E. c #CDC1B5",
"W. c #CBC2BC",
"Q. c #C7C2BD",
"!. c #D3C6BA",
"~. c #CDCCB5",
"^. c #ECC4B5",
"/. c #EEC4B9",
"(. c #EDCABD",
"). c #E6C5B7",
"_. c #F1C5B7",
"`. c #F3C4BB",
"'. c #F2CBBD",
"]. c #FBCBBF",
"[. c #EBD8B7",
"{. c #F2E7B3",
"}. c #F4E5BB",
"|. c #EEE1B8",
" X c #CDC6C1",
".X c #CFC8C3",
"XX c #C6C3C3",
"oX c #D2CBC5",
"OX c #D5CECA",
"+X c #DCD3CB",
"@X c #D9D0C7",
"#X c #DBD7D5",
"$X c #EECDC1",
"%X c #F1CDC1",
"&X c #FACEC5",
"*X c #E2D7CE",
"=X c #EAD6C8",
"-X c #F3D2C5",
";X c #F4D5C9",
":X c #F3DBCB",
">X c #FBD7CC",
",X c #E5DCD3",
"<X c #E8DFD6",
"1X c #F5DDD2",
"2X c #FADBD1",
"3X c #EEE5CB",
"4X c #E8E1D7",
"5X c #ECE4DB",
"6X c #EAE7DA",
"7X c #F5E3D4",
"8X c #FBE2D5",
"9X c #F2E6DC",
"0X c #FBE5D8",
"qX c #F4EADC",
"wX c #FBEADA",
"eX c #FAF4DB",
"rX c #FCF0C5",
"tX c #EDE7E1",
"yX c #F0E7E0",
"uX c #F4EBE3",
"iX c #F9EEE5",
"pX c #F6F2E6",
"aX c #F9F1E7",
"sX c #FBF2E9",
"dX c #FDFBEC",
"fX c #F8F7E9",
"gX c #FDFDF2",
"hX c #FEFCFB",
"jX c #F7F3F2",
"kX c #449620",
/* pixels */
"kXkXkXkXkXkXkXkXkXkXkXkXkXkXkXkXkXkXkXkXkXkXkXkX# n kXkXkXkXkXkXkXkXkXkXkXkXkXkXkXkXkXkXkXkXkXkXkXkXkXkXkXkXkXkXkXkXkXkXkXkXkXkXkXkXkXkXkXkXkXkXkXkXkX",
"kXkXkXkXkXkXkXkXkXkXkXkXkXkXkXkXkXkXkXkXkXC.kX!.wX'.v kXkXkXkXkXkXkXkXkXkXkXkXkXkXkXkXkXkXkXkXkXkXkXkXkXkXkXkXkXkXkXkXkXkXkXkXkXkXkXkXkXkXkXkXkXkXkXkX",
"kXkXkXkXkXkXkXkXkXkXkXkXkXkXkXkXkXkXkXkX%.7X-X-X$X-X2XkXkXkXkXkXkXkXkXkXkXkXkXkXkXkXkXkXkXkXkXkXkXkXkXkXkXkXkXkXkXkXkXkXkXkXkXkXkXkXkXkXkXkXkXkXkXkXkX",
"kXkXkXkXkXkXkXkXkXkXkXkXkXkXkXkXkXkXkXw aX].(.(.$X(.-XkXkXkXkXkXkXkXkXkXkXkXkXkXkXkXkXkXkXkXkXkXkXkXkXkXkXkXkXkXkXkXkXkXkXkXkXkXkXkXkXkXkXkXkXkXkXkXkX",
"kXkXkXkXkXkXkXkXkXkXkXkXkXkXkXkXkXkXkX^.(.^.^.'.(.(.;XkXkXkXkXkXkXkXkXkXkXkXkXv g.kXkXkXkXkXkXkXkXkXkXkXkXkXkXkXkXkXkXkXkXkXkXkXkXkXkXkXkXkXkXkXkXkXkX",
"kXkXkXkXkXkXkXkXkXkXkXkXkXkXkXkXkXkXkXR.Y.^._.^.^.^.Z kXkXkXkXkXkXkXy w ;XkX) (.(.l kXkXkXkXkXkXkXkXkXkXkXkXkXkXkXkXkXkXkXkXkXkXkXkXkXkXkXkXkXkXkXkXkX",
"kXkXkXkXkXkXkXkXkXkXkXkXkXkXkXkXkXkXkXV.f.I._.Y.d.j.V kXkXkXkXkXkXc :X$X$XY.Q $ &X&XkXkXkXkXkXkXkXkXkXkXkXkXkXkXkXkXkXkXkXkXkXkXkXkXkXkXkXkXkXkXkXkXkX",
"kXkXkXkXkXkXkXkXkXkXkXkXkXkXkXkXkXkXkXx j.j.f.I.P.k kXkXkXkXkXkX`.iX0Xl.c _ ^ c j./.kXkXkXkXkXkXkXkXkXkXkXkXkXkXkXkXkXkXkXkXkXkXkXkXkXkXkXkXkXkXkXkXkX",
"kXkXkXkXkXkXkXkXkXkXkXkXkXkXkXkXkXkXkXkXV %.5 $.G.oXH.g 7 kXkXl 0X).) ) L _ h.v.-X^.1.kXkXkXkXkXkXkXkXkXkXkXkXkXkXkXkXkXkXkXkXkXkXkXkXkXkXkXkXkXkXkXkX",
"kXkXkXkXkXkXkXkXkXkXkXkXkXkXkXkX< OXf 7 OX XoXoX8.Q..X8 F.J., ( ^.^.% X . _ x f.Y.'.kXkXkXkXkXkXkXkXkXkXkXkXkXkXkXkXkXkXkXkXkXkXkXkXkXkXkXkXkXkXkXkXkX",
"kXkXkXkXkXkXkXkXkXkXkXkXkXkXkX< X.G. XoX$.f @..X X Xe.R r.F.A.s M.k.M.L.X / j.v.Y.L kXkXkXkXkXkXkXkXkXkXkXkXkXkXkXkXkXkXkXkXkXkXkXkXkXkXkXkXkXkXkXkXkX",
"kXkXkXkXkXkXkXkXkXkXkXkXkXkXkXs ] ] W.2 ] t W..X .g T 9 J.u.D.A.7 v L.s.x ( j.N.jXkXkXkXkXkXkXkXkXkXkXkXkXkXkXkXkXkXkXkXkXkXkXkXkXkXkXkXkXkXkXkXkXkXkX",
"kXkXkXkXkXkXkXkXkXkXkXkXkXkXkXkXeX6 1 XXQ.Q.] d dXdX{ F.F.D.u.u.i.z.l.b j.l.( _.n kXkXkXkXkXkXkXkXkXkXkXkXkXkXkXkXkXkXkXkXkXkXkXkXkXkXkXkXkXkXkXkXkXkX",
"kXkXkXkXkXkXkXkXkXkXkXkXkXkXkX9 hXgX4 3 ] ] , #Xj dX' F.D.D.D.e.t., E z.l.f.p.: kXkXkXkXkXkXkXkXkXkXkXkXkXkXkXkXkXkXkXkXkXkXkXkXkXkXkXkXkXkXkXkXkXkXkX",
"kXkXkXkXkXkXkXkXkXkXkXkXkX7 8 8 9.gX  X.#XgXgX& + sX' OXD.D.u.e.e.w.f +.> kXkXkXkXkXkXkXkXkXkXkXkXkXkXkXkXkXkXkXkXkXkXkXkXkXkXkXkXkXkXkXkXkXkXkXkXkXkX",
"kXkXkXkXkXkXkXkXkXkX> F.u.,.7 Q.i.H.7 H.i gXgXpX, XXF.u.XX,.uXuX9X@.:.w.w.kXkXkXkXkXkXkXkXkXkXkXkXkXkXkXkXkXkXkXkXkXkXkXw l ;X1XwXiX%.x kXkXkXkXkXkXkX",
"kXkXkXkXkXkXkXkXkXr.r.u.t.t.u.u.u.F.D.7 F.F jXF.H.A.F.@.r 5XyXyXyXyXuXiX;.kXkXkXkXkXkXkXkXkXkXkXkXkXkXkXkXkXkXkXkXkXkXe =XqX;X(.$X(.(.m.qXc kXkXkXkXkX",
"kXkXkXv z kXkXq P % fX$XL m t.t.u.u.D.F.r.F. .u.F.] o.U yXO uXtXyXyXyX5X9XW.&.kXkXkXkXkXkXkXkXkXkXkXkXkXkXkXkXkXkXG.1XwX>X$X;Xh.k.V.M.V.N.(.wX: kXkXkX",
"kXL aX0Xm.! =XeX^.l ~ ~ / _ u.r.5.pXaXuXuXy.4.a 0 u B.rXuXuXyXuXuX5XuXuX&.kXkXkXkXkXkXkXkXkXkXkXkXkXkXkXkXkXkXkXkX2X0X$X;Xa./ I kXkXkXkXh z.Y._.l kXkX",
"B %X-X-X(.(.'.P _ / W v / Z pXjXuXsXaXiX#.iXtXE.{.dXhXdXuXuXtXuXuXuXuX9XuXE.,.kXkXkXkXkXkXkXkXkXkXkXkXkXkXkXkXkXP 0X-X-Xd.x kXkXkXkXkXkXkXkXl h.^.A kX",
"v (.$X$X$X(.m ^ e X . X _ m uXaXsXsXaXiXqXuXuXE.{.gXgX&.uXuXuXuXuXiXuX@X-.o.XXkXkXkXkXkXkXkXkXkXkXkXkXkXkXkXkXK -XwX-X$Xw kXkXkXkXkXkXkXkXkXkXb `.).kX",
"c Q '.'.(.H / Z . . X n ~ 9XiXiXaXaXaXuXF.tXF.@.3.dXhXo.uXiXuXiX@XF.E.E.;. . . .0 kXkXkXkXkXkXkXkXkXkXkXkXkXkXP 7X$XP M.kXkXkXkXkXkXkXkXkXkXkXkXS ^.e ",
"kX_ w (.= / / V X . m / m 5XuXiXiXiXuXuXG.!.6.{.gXE.sXiXaXqXaXaXsXo.o.]  . .Y F.+X< 0 kXkXkXkXkXkXkXkXkXkXkXkX'.qX$X%Xk kXkXkXkXkXkXkXkXkXkXkXkXkXf.b ",
"kXe ~ ^ / / / c v _ | M uXyXyXuXuXuXuX9XG.~.eXeXgXdXo.aXiXiXaX6.#.@. ...@.oX X.X.XOXu.kXkXkXkXkXkXkXkXkXkXkXV %X:X(.%XC.kXkXkXkXkXkXkXkXkXkXkXkXkXp.} ",
"kX*.l ~ ^ ^ / _ ~ m qX5X5X9X6XuX9XuXyX5X!.!.}.dXgX#.pXiXuXdXt.W.sX*X-.U  XoXG.XX> +X+Xp kXkXkXkXkXkXkXkXkXkX= $X$X%X$XkXkXkXkXkXkXkXkXkXkXkXkXkXkXb | ",
"kXo.G.c ( ~ v K *X4X4X4X5X9X9X6X5X5X5XG.w.{.dX` e.9XiX5X&.q.!.sXaXaXdX6.W.oXoXOXOX> #X .kXkXkXkXkXkXkXkXkXkXx %X%X(.(.kXkXkXkXkXkXkXkXkXkXkXkXkXkXx x ",
"kXkXF.,X*X6X*X,X,X<X4X4X4X4X5X5X5X9XG.G.] }.dX{ uXpXy.&.G.S.sXsXsXsXsXsX.X8.OXOXOXOX X X7 kXkXkXkXkXkXkXkXkXw (.'.$X(.# kXkXkXkXkXkXkXkXkXkXkXkXkXb kX",
"kXkX..E.+X,X@XE.W.E.!.<X4X4X4X4X,XE.G.#.|.=Xo.9XpXG.5.*.H.iXdXsXsXsXsXuX#.W.r oX.X.Xa  X,XkXkXkXkXkXkXkXkXkXkX(.$ (.(.k kXkXkXkXkXkXkXkXkXkXkXkXkXC kX",
"kXkXkXkX;.S.W.E.!.O.E.G.E.E.E.~.G.&.t.gX6XiXiXuXD.q.o.O.S.aXsXsXsXsXaXpXjXOXW.oX.X X<  XoX< kXkXkXkXkXkXkXkXkXN.$X'.'.2XkXkXkXkXkXkXkXkXkXkXkXkXkXkXkX",
"kXkXkXkXkXkXkXkXkXF 3XO.-.:.@.*.3.kXkX#.O.A.y.o.kXkX .&.aXaXsXsXsXsXpXuXsX&. X1  X XF.W.W. X:.kXkXkXkXkXkXkXkXZ '.^.(.^.z kXkXkXkXkXkXkXkXkXkXkXkXkXkX",
"kXkXkXkXkXkXkXkXkXkXhXgXsX=.gXeX- kXkXkXkXkXkXkXkX, o.;.aXaXaXiXsXiXuXo sX*XW.W.F..XW..XW.J.4 kXkXkXkXkXkXkXkXw ^.^.^.(.&XkXkXkXkXkXkXkXkXkXkXkXkXkXkX",
"kXkXkXkXkXkXkXkXkXkX3.fX|.gXdX|.i kXkXkXkXkXkXkXkXq.,.o.sXiXaXaXpXuXgXh J.jXW.W.O G. X, J.W.H.kXkXkXkXkXkXkXkXkX'.^.^.^.^.M kXkXkXkXkXkXkXkXkXkXkXkXkX",
"kXkXkXkXkXkXkXkXkXkXkX' {.' }.3XkXkXkXkXkXkXkXkX2 8.>.G.E.iXiXiXsX1X).3  XJ. X* 0 8  .OXJ.J.J.7 kXkXkXkXkXkXkXkXw 8X&Xb.b.L.kXkXkXkXkXkXkXkXkXkXkXkXkX",
"kXkXkXkXkXkXkXkXkXkXkXkXkXkXkXkXkXkXkXkXkXkXkX7 :.>.4.@.@.F.iXyXC.wX(.].N.J.J.Q.W.u.#XJ.7 H.H. XkXkXkXkXkXkXkXkXC W Y._././.x kXkXkXkXkXkXkXkXkXkXkXkX",
"kXkXkXkXkXkXkXkXkXkXkXkXkXkXkXkXkXkXkXkXkXkXkXs 6.`.P.u *.2.l z 1X%X%X>Xu ] r.J.Q.G.J.F.W.H.F.J.Y kXkXkXkXkXkXkXkX&X).^.^.R.%.kXkXkXkXkXkXkXkXkXkXkXkX",
"kXkXkXkXkXkXkXkXkXkXkXkXkXkXkXkXkXkXkXkXkXkXkX .K I.P.].N w (.&X$X$X$Xl.K.W.o.d ] W.Q. Xd F.F.i.7 kXkXkXkXkXkXkXkXw 9XY.^.^.`.kXkXkXkXkXkXkXkXkXkXkXkX",
"kXkXkXkXkXkXkXkXkXkXkXkXkXkXkXkXkXkXkXkXkXkXkXr T I.U.=X/.^.Z c.= '.z.%.G.G.G.w.g 7 Y +.r F.F.D.W.kXkXkXkXkXkXkXkXv 9XY.I.Y.Y.kXkXkXkXkXkXkXkXkXkXkXkX",
"kXkXkXkXkXkXkXkXkXkXkXkXkXkXkXkXkXkXkXkXkXkXkXkX1 h.z U.h.I.).p.l d.E.E.G.G.E.G.-.F.F.F.D.D.u.u.t.7 kXkXkXkXkXkXkXc wX).T.^.f.E kXkXkXkXkXkXkXkXkXkXkX",
"kXkXkXkXkXkXkXkXkXkXkXkXkXkXkXkXkXkXkXkXkXkXkXkXkXT.H d.G wXz.E.>XM.yXtX5XuX9XuXE.u.F.D.u.D.D.u.D.u.kXkXkXkXkXkXkXP fXL.c / f.kXkXkXkXkXkXkXkXkXkXkXkX",
"kXkXkXkXkXkXkXkXkXkXkXkXkXkXkXkXkXkXkXkXkXkXkXkX% M.z b V.=Xj.tX| d.L.tX5X6X9X6X5XoXE.D.u.u.u.A.t.t.7 kXkXkXkXkXkXT.:XY.Y.`.%.kXkXkXkXkXkXkXkXkXkXkXkX",
"kXkXkXkXkXkXkXkXkXkXkXkXkXkXkXkXkXkXkXkXkXkXkXkXkXkX, / l C ( 6X6X6XuX5X5X5XuX6X5X6X@.A.t.t.D.t.t.t.F.kXkXkXkXkXl qX_.Y.Y.L.m kXkXkXkXkXkXkXkXkXkXkXkX",
"kXkXkXkXkXkXkXkXkXkXkXkXkXkXkXkXkXkXkXkXkXkXkXkXkXkX4.@.6XqXuXtX9X6XuX6XuX5X5X5XtX5X5X#.t.t.t.e.e.e.e.1 kXkXkX; M.I.I.I.j.l.C kXkXkXkXkXkXkXkXkXkXkXkX",
"kXkXkXkXkXkXkXkXkXkXkXkXkXkXkXkXkXkXkXkXkXkXkXkXkXY >.5X6X5XtX9X6X5X5X5X5X5X5X5X5X<X5X<X@.t.e.w.e.e.e.e.6 kXl a.b z.f.j.j.L kXkXkXkXkXkXkXkXkXkXkXkXkX",
"kXkXkXkXkXkXkXkXkXkXkXkXkXkXkXkXkXkXkXkXkXkXkXkX9 >.,.5X6X5X6X5X9X5X5X5X5X4X5X5X5X5X<X5X9Xr.e.e.e.e.r.r.e.K j.j.j.d.| l.l.M kXkXkXkXkXkXkXkXkXkXkXkXkX",
"kXkXkXkXkXkXkXkXkXkXkXkXkXkXkXkXkXkXkXkXkXkXkX7 0.>.5X5X4X4X4X5X5X6X<X5X<X5X5X<X<X5X5X<X5X-.e.w.e.w.q.w.q.y.k.j.j.j.d.h.c kXkXkXkXkXkXkXkXkXkXkXkXkXkX",
"kXkXkXkXkXkXkXkXkXkXkXkXkXkXkXkXkXkXkXkXkXkX7 ;.>.@.5X<X5X5X5X5X4X4X5X5X5X<X<X5X<X<X4X4X<XiXr.w.w.w.w.0.q.q.r n.j.j.j.l kXkXkXkXkXkXkXkXkXkXkXkXkXkXkX",
"kXkXkXkXkXkXkXkXkXkXkXkXkXkXkXkXkXkXkXkXkX8 4.4.4.,X<X5X<X5X4X4X5X4X5X4X<X4X4X4X5X<X<X<X,X#X;.w.0.w.0.0.q.f  .3 j.j.z.; kXkXkXkXkXkXkXkXkXkXkXkXkXkXkX",
"kXkXkXkXkXkXkXkXkXkXkXkXkXkXkXkXkXkXkXkX9 6.:.4.4.4X<X4X4X4X4X4X4X4X<X4X<X4X4X4X<X<X<X,X,X,X&.q.0.0.0.6.4. . .7 k.V.w kXkXkXkXkXkXkXkXkXkXkXkXkXkXkXkX",
"kXkXkXkXkXkXkXkXkXkXkXkXkXkXkXkXkXkXkXkX7 7 :.4.:.<X<X<X4X4X4X4X4X4X4X4X,X4X4X,X,X,X,X,X,X,X;.0.0.6.6.0.R  . .1 l kXkXkXkXkXkXkXkXkXkXkXkXkXkXkXkXkXkX",
"kXkXkXkXkXkXkXkXkXkXkXkXkXkXkXkXkXkXkXkXkX .0.>.;.<X,X,X,X,X,X<X<X,X<X<X,X,X<X,X,X,X,X,X*X*X0.0.0.0.0.]  . . .Y kXkXkXkXkXkXkXkXkXkXkXkXkXkXkXkXkXkXkX",
"kXkXkXkXkXkXkXkXkXkXkXkXkXkXkXkXkXkXkXkXkX7 0.8.4.,X,X,X,X,X,XS.G.G.G.G.G.G.G.+X,X*X,X,X,X#.0.8.8.0. . . . . . .kXkXkXkXkXkXkXkXkXkXkXkXkXkXkXkXkXkXkX",
"kXkXkXkXkXkXkXkXkXkXkXkXkXkXkXkXkXkXkXkXkX7 T >.4.+X,X,X!.G.G.E.G.G.G.G.G.E.E.G.F.G.!.<X,X:.0.,.T T  . . .g 8 < kXkXkXkXkXkXkXkXkXkXkXkXkXkXkXkXkXkXkX",
"kXkXkXkXkXkXkXkXkXkXkXkXkXkXkXkXkX:XE qX7X$ ] ] ] *.H.E.G.G.G.G.G.E.G.G.G.E.G.G.G.G.G.G.@. . . . . . . . .s kXkXkXkXkXkXkXkXkXkXkXkXkXkXkXkXkXkXkXkXkX",
"kXkXkXkXkXkXkXkXkXkXkXkXkXkXkXkX:X2X$XqX9XZ.r 8 X.X.A.E.G.G.G.S.O.@.@.E.E.E.G.G.G.G.!.@.T  . . . . .X. .o kXkXkXkXkXkXkXkXkXkXkXkXkXkXkXkXkXkXkXkXkXkX",
"kXkXkXkXkXkXkXkXkXkXkXkXkXkXkX:X=Xx.(.=Xv wX'.(.7  .X.G.E.G.~.;.<.; kXkX5.6.G.G.F.@. . . . . . . .X.d kXkXkXkXkXkXkXkXkXkXkXkXkXkXkXkXkXkXkXkXkXkXkXkX",
"kXkXkXkXkXkXkXkXkXkXkXkXkXkXe f.wX[.2X7X(.&X$X'.m.'., 7 [ -.-XW j.l.kXkXkXkXo.;.T T T  .X.X.T +.8 t D 2XC $X1X1X% kXkXkXkXkXkXkXkXkXkXkXkXkXkXkXkXkXkX",
"kXkXkXkXkXkXkXkXkXkXkXkXkXkXk V.W M.A ; N L.'.(.P.j.b.b.j.l.V.f.f.V.kXkXkXkXkXL.P.=.6 5 5 8 <.%.7X7Xw N.-X-X8X;X8X: kXkXkXkXkXkXkXkXkXkXkXkXkXkXkXkXkX",
"kXkXkXkXkXkXkXkXkXkXkXkXkXkXkXkXkXkXz h x @ $ w c kXkXkXkXkXkXkXkXkXkXkXkXkXkXk V.M.l.l.j.P.(.`.(.(.4Xa.%X$X2X; Y.P.# kXkXkXkXkXkXkXkXkXkXkXkXkXkXkXkX",
"kXkXkXkXkXkXkXkXkXkXkXkXkXkXkXkXkXkXkXkXkXkXkXkXkXkXkXkXkXkXkXkXkXkXkXkXkXkXkXkXkX@ I kXkXk h.s.).s.s.N.l.d.k ) x kX+ kXkXkXkXkXkXkXkXkXkXkXkXkXkXkXkX",
"kXkXkXkXkXkXkXkXkXkXkXkXkXkXkXkXkXkXkXkXkXkXkXkXkXkXkXkXkXkXkXkXkXkXkXkXkXkXkXkXkXkXkXkXkXkXkXA m c kX; kXkXkXE kXkXkXkXkXkXkXkXkXkXkXkXkXkXkXkXkXkXkX"
};
