/* XPM */
static char *result[] = {
/* columns rows colors chars-per-pixel */
"85 75 224 2 ",
"   c black",
".  c #170F0D",
"X  c #301818",
"o  c #431217",
"O  c #673639",
"+  c #534644",
"@  c #645A5A",
"#  c #6C584E",
"$  c #6B6163",
"%  c #676666",
"&  c #766B6B",
"*  c #7E6765",
"=  c #7C716F",
"-  c #7A7373",
";  c #874649",
":  c #974A4B",
">  c #8B4F52",
",  c #8E5050",
"<  c #995A58",
"1  c #A5575A",
"2  c #9D605F",
"3  c #975E60",
"4  c #AA5E61",
"5  c #896967",
"6  c #9D6163",
"7  c #986969",
"8  c #92706F",
"9  c #857A77",
"0  c #8A7C77",
"q  c #837B7A",
"w  c #8A7D7C",
"e  c #827676",
"r  c #AA6365",
"t  c #A4646A",
"y  c #AD6C6B",
"u  c #A2696B",
"i  c #B46969",
"p  c #A4736F",
"a  c #B3726D",
"s  c #B06E71",
"d  c #AB7C7B",
"f  c #A47674",
"g  c #BF7B78",
"h  c #B67877",
"j  c #C47C7A",
"k  c #CE7F79",
"l  c #C27570",
"z  c #8A817E",
"x  c #86807E",
"c  c #988E7C",
"v  c #BA807E",
"b  c #B6807F",
"n  c #A18C7A",
"m  c #C3837E",
"M  c #857F80",
"N  c #858282",
"B  c #8C8383",
"V  c #8E8A86",
"C  c #878988",
"Z  c #918683",
"A  c #938985",
"S  c #948B8A",
"D  c #998D8D",
"F  c #9A8D85",
"G  c #99928D",
"H  c #9D9593",
"J  c #9C9A96",
"K  c #969090",
"L  c #A48C89",
"P  c #AB8784",
"I  c #B48481",
"U  c #BA8A85",
"Y  c #BC8D8B",
"T  c #B78A86",
"R  c #A3988B",
"E  c #BB908A",
"W  c #A19691",
"Q  c #A49A94",
"!  c #A89C97",
"~  c #A49D9A",
"^  c #A99E99",
"/  c #AD9694",
"(  c #B89795",
")  c #ABA28E",
"_  c #BFB28B",
"`  c #A4A09D",
"'  c #ACA29D",
"]  c #ADA89C",
"[  c #B2A59E",
"{  c #B8A69C",
"}  c #B7AC8E",
"|  c #ACA5A2",
" . c #ABAAA4",
".. c #ABADAB",
"X. c #B3A7A3",
"o. c #B4ABA4",
"O. c #BBADA3",
"+. c #B6AEA9",
"@. c #B9AEAA",
"#. c #B7B4AF",
"$. c #BDB3AB",
"%. c #BDB5A9",
"&. c #BCB5B1",
"*. c #BBBBB5",
"=. c #C48884",
"-. c #C38F89",
";. c #C98783",
":. c #D18E8A",
">. c #DA8A85",
",. c #C4928B",
"<. c #CA938D",
"1. c #D4958D",
"2. c #C59994",
"3. c #CB9C94",
"4. c #C29C99",
"5. c #C89895",
"6. c #D59D93",
"7. c #D79C95",
"8. c #E89D96",
"9. c #C4A39C",
"0. c #CFA69E",
"q. c #C9AA9F",
"w. c #D5A19A",
"e. c #D9A196",
"r. c #C7B997",
"t. c #EBA89E",
"y. c #C9A7A5",
"u. c #C9ACA3",
"i. c #D5ACA2",
"p. c #DBACA2",
"a. c #D7AAAB",
"s. c #C1B6AD",
"d. c #C6BBAF",
"f. c #C1B6A2",
"g. c #DBB3AA",
"h. c #DCB8AE",
"j. c #D8B2A9",
"k. c #C4BBB4",
"l. c #CABCB3",
"z. c #C5BDB9",
"x. c #C9BEBA",
"c. c #C2B7B3",
"v. c #D0B9B4",
"b. c #E5ADA3",
"n. c #E7AFA6",
"m. c #EBB2A5",
"M. c #E3B5AB",
"N. c #E7B7AA",
"B. c #F3B2A9",
"V. c #E3BCB1",
"C. c #EEBEB2",
"Z. c #F1BCB1",
"A. c #F6ABA3",
"S. c #CDC19D",
"D. c #D6CDA8",
"F. c #CEC1B6",
"G. c #C7C2B9",
"H. c #CCC3BC",
"J. c #C5C3B6",
"K. c #D0C2B7",
"L. c #D2C5BC",
"P. c #D5C9BF",
"I. c #DAC6B8",
"U. c #D1CAB1",
"Y. c #E3C2B5",
"T. c #EEC4B5",
"R. c #E6C7BC",
"E. c #ECC6B9",
"W. c #E5CABD",
"Q. c #F3CABB",
"!. c #F7C9BB",
"~. c #E7DDB8",
"^. c #ECE3B8",
"/. c #CFC5C0",
"(. c #C2C1C2",
"). c #D4CBC3",
"_. c #DACEC5",
"`. c #DACEC8",
"'. c #D3CAC4",
"]. c #DCD3CB",
"[. c #D7D4CA",
"{. c #DDD9D2",
"}. c #D3D0D3",
"|. c #E5CEC4",
" X c #F4CDC1",
".X c #FECEC3",
"XX c #E2D9CD",
"oX c #E8D6C6",
"OX c #F4D4C5",
"+X c #FCD3C5",
"@X c #FDDCCC",
"#X c #F7D7C8",
"$X c #E1D7D2",
"%X c #E5DDD3",
"&X c #E8DED4",
"*X c #E5DFDA",
"=X c #FEDFD1",
"-X c #E7E1D6",
";X c #E9E1D7",
":X c #EBE3DA",
">X c #EEE9DD",
",X c #E5E1DA",
"<X c #FEE3D4",
"1X c #F1E6DE",
"2X c #F1E9DF",
"3X c #FEECDB",
"4X c #FEE8D4",
"5X c #FFF1DF",
"6X c #F2EDCE",
"7X c #EDEDE3",
"8X c #EBE2E3",
"9X c #F3ECE3",
"0X c #F8EFE6",
"qX c #F7EFE8",
"wX c #EFF0E4",
"eX c #F7F0E5",
"rX c #FAF1E5",
"tX c #FFF9E6",
"yX c #F6F4EA",
"uX c #FCF4EB",
"iX c #FFF8EF",
"pX c #FEFDF2",
"aX c #FFFFFC",
"sX c None",
/* pixels */
"sXsXsXsXsXsXsXsXsXsXsXsXsXsXsXsXsXsXsXsXsXsXsXsXsXsXsXsXsXsXsXsXsXsXsXsXsXsXsXsXsXsXsXsXsXsXsXsXsXsXsXsXsXsXsXsXsXsXsXsXsXsXsXsXsXsXsXsXsXsXsXsXsXsXsXsXsXsXsXsXsXsXsXsXsX",
"sXsXsXsXsXsXsXsXsXsXsXsXsXsXsXsXsXsXsXsXsXsXsXsXsXsXsXsXsXsXsXsXsXsXsXsXsXsXsXsXsXsXsXsXsXsXsXsXsXsXsXsXsXsXsXsXsXsXsXsXsXsXsXsXsXsXsXsXsXsXsXsXsXsXsXsXsXsXsXsXsXsXsXsXsX",
"sXsXsXsXsXsXsXsXsXsXsXsXsXsXsXsXsXsXsXsXsXsXsXsXsXsXsXsXsXsXsXsXsXsXsXsXsXsXsXsXsXsXsXsXsXsXsXsXsXsXsXsXsXsXsXsXsXsXsXsXsXsXsXsXsXsXsXsXsXsXsXsXsXsXsXsXsXsXsXsXsXsXsXsXsX",
"sXsXsXsXsXsXsXsXsXsXsXsXsXsXsXsXsXsXsXsXsXsXsXsXsXsXsXsXsXsXsXsXsXsXsXsXsXsXsXsXsXsXsXsXsXsXsXsXsXsXsXsXsXsXsXsXsXsXsXsXsXsXsXsXsXsXsXsXsXsXsXsXsXsXsXsXsXsXsXsXsXsXsXsXsX",
"sXsXsXsXsXsXsXsXsXsXsXsXsXsXsXsXsXsXsXsXsXsXsXsXsXsXsXsXsXsXsXsXsXsXsXsXsXsXsXsXsXsXsXsXsXsXsXsXsXsXsXsXsXsXsXsXsXsXsXsXsXsXsXsXsXsXsXsXsXsXsXsXsXsXsXsXsXsXsXsXsXsXsXsXsX",
"sXsXsXsXsXsXsXsXsXsXsXsXsXsXsXsXsXsXsXsXsXsXsXsXsXsXsXsXsXsXsXsXsXsXsXsXsXsXsXsXsXsXsXsXsXsXsXsXsXsXsXsXsXsXsXsXsXsXsXsXsXsXsXsXsXsXsXsXsXsXsXsXsXsXsXsXsXsXsXsXsXsXsXsXsX",
"sXsXsXsXsXsXsXsXsXsXsXsXsXsXsXsXsXsXsXsXsXsXsXsXsXsXsXsXsXsXsXsXsXsXsXsXsXsXsXsXsXsXsXsXsXsXsXsXsXsXsXsXsXsXsXsXsXsXsXsXsXsXsXsXsXsXsXsXsXsXsXsXsXsXsXsXsXsXsXsXsXsXsXsXsX",
"sXsXsXsXsXsXsXsXsXsXsXsXsXsXsXsXsXsXsXsXsXsXsXsXsXsXsXsXsXsXsXsXsXsXsXsXsXsXsXsXsXsXsXsXsXsXsXsXsXsXsXsXsXsXsXsXsXsXsXsXsXsXsXsXsXsXsXsXsXsXsXsXsXsXsXsXsXsXsXsXsXsXsXsXsX",
"sXsXsXsXsXsXsXsXsXsXsXsXsXsXsXsXsXsXsXsXsXsXsXsXsXsXsXsXsXsXsXsXsXsXsXsXsXsXsXsXsXsXsXsXsXsXsXsXsXsXsXsXsXsXsXsXsXsXsXsXsXsXsXsXsXsXsXsXsXsXsXsXsXsXsXsXsXsXsXsXsXsXsXsXsX",
"sXsXsXsXsXsXsXsXsXsXsXsXsXsXsXsXsXsXsXsXsXsXsXsXsXsXsXsXsXsXsXsXsXsXsXsXsXsXsXsXsXsXsXsXsXsXsXsXsXsXsXsXsXsXsXsXsXsXsXsXsXsXsXsXsXsXsXsXsXsXsXsXsXsXsXsXsXsXsXsXsXsXsXsXsX",
"sXsXsXsXsXsXsXsXsXsXsXsXsXsXsXsXsXsXsXsXsXsXsXsXsXsXsXsXsXsXsXsXsXsXsXsXsXsXsXsXsXsXsXsXsXsXsXsXsXsXsXsXsXsXsXsXsXsXsXsXsXsXsXsXsXsXsXsXsXsXsXsXsXsXsXsXsXsXsXsXsXsXsXsXsX",
"sXsXsXsXsXsXsXsXsXsXsXsXsXsXsXsXsXsXsXsXsXsXsXsXsXsXsXsXsXsXsXsXsXsXsXsXsXsXsXsXsXsXsXsXsXsXsXsXsXsXsXsXsXsXsXsXsXsXsXsXsXsXsXsXsXsXsXsXsXsXsXsXsXsXsXsXsXsXsXsXsXsXsXsXsX",
"sXsXsXsXsXsXsXsXsXsXsXsXsXsXsXsXsXsXsXsXsXsXsXsXsXsXsXsXsXsXsXsXsXsXsXsXsXsXsXsXsXsXsXsXsXsXsXsXsXsXsXsXsXsXsXsXsXsXsXsXsXsXsXsXsXsXsXsXsXsXsXsXsXsXsXsXsXsXsXsXsXsXsXsXsX",
"sXsXsXsXsXsXsXsXsXsXsXsXsXsXsXsXsXsXsXsXsXsXsXsXsXsXsXsXsXsXsXsXsXsXsXsXsXsXsXsXsXsXsXsXsXsXsXsXsXsXsXsXsXsXsXsXsXsXsXsXsXsXsXsXsXsXsXsXsXsXsXsXsXsXsXsXsXsXsXsXsXsXsXsXsX",
"sXsXsXsXsXsXsXsXsXsXsXsXsXsXsXsXsXsXsXsXsXsXsXsXsXsXsXsXsXsXsXsXsXsXsXsXsXsXsXsXsXsXsXsXsXsXsXsXsXsXsXsXsXsXsXsXsXsXsXsXsXsXsXsXsXsXsXsXsXsXsXsXsXsXsXsXsXsXsXsXsXsXsXsXsX",
"sXsXsXsXsXsXsXsXsXsXsXsXsXsXsXsXsXsXsXsXsXsXsXsXsXsXsXsXsXsXsXsXsXsXsXsXsXsXsXsXsXsXsXsXsXsXsXsXsXsXsXsXsXsXsXsXsXsXsXsXsXsXsXsXsXsXsXsXsXsXsXsXsXsXsXsXsXsXsXsXsXsXsXsXsX",
"sXsXsXsXsXsXsXsXsXsXsXsXsXsXsXsXsXsXsXsXsXsXsXsXsXsXsXsXsXsXsXsXsXsXsXsXsXsXsXsXsXsXsXsXsXsXsXsXsXsXsXsXsXsXsXsXsXsXsXsXsXsXsXsXsXsXsXsXsXsXsXsXsXsXsXsXsXsXsXsXsXsXsXsXsX",
"sXsXsXsXsXsXsXsXsXsXsXsXsXsXsXsXsXsXsXsXsXsXsXsXsXsXsXsXsXsXsXsXsXsXsXsXsXsXsXsXsXsXsXsXsXsXsXsXsXsXsXsXsXsXsXsXsXsXsXsXsXsXsXsXsXsXsXsXsXsXsXsXsXsXsXsXsXsXsXsXsXsXsXsXsX",
"sXsXsXsXsXsXsXsXsXsXsXsXsXsXsXsXsXsXsXsXsXsXsXsXsXsXsXsXsXsXsXsXsXsXsXsXsXsXsXsXsXsXsXsXsXsXsXsXsXsXsXsXsXsXsXsXsXsXsXsXsXsXsXsXsXsXsXsXsXsXsXsXsXsXsXsXsXsXsXsXsXsXsXsXsX",
"sXsXsXsXsXsXsXsXsXsXsXsXsXsXsXsXsXsXsXsXsXsXsXsXsXsXsXsXsXsXsXsXsXsXsXsXsXsXsXsXsXsXsXsXsXsXsXsXsXsXsXsXsXsXsXsXsXsXsXsXsXsXsXsXsXsXsXsXsXsXsXsXsXsXsXsXsXsXsXsXsXsXsXsXsX",
"sXsXsXsXsXsXsXsXsXsXsXsXsXsXsXsXsXsXsXsXsXsXsXsXsXsXsXsXsXsXsXsXsXsXsXsXsXsXsXsXsXsXsXsXsXsXsXsXsXsXsXsXsXsXsXsXsXsXsXsXsXsXsXsXsXsXsXsXsXsXsXsXsXsXsXsXsXsXsXsXsXsXsXsXsX",
"sXsXsXsXsXsXsXsXsXsXsXsXsXsXsXsXsXsXsXsXsXsXsXsXsXsXsXsXsXsXsXsXsXsXsXsXsXsXsXsXsXsXsXsXsXsXsXsXsXsXsXsXsXsXsXsXsXsXsXsXsXsXsXsXsXsXsXsXsXsXsXsXsXsXsXsXsXsXsXsXsXsXsXsXsX",
"sXsXsXsXsXsXsXsXsXsXsXsXsXsXsXsXsXsXsXsXsXsXsXsXsXsXsXsXsXsXsXsXsXsXsXsXsXsXsXsXsXsXsXsXsXsXsXsXsXsXsXsXsXsXsXsXsXsXsXsXsXsXsXsXsXsXsXsXsXsXsXsXsXsXsXsXsXsXsXsXsXsXsXsXsX",
"sXsXsXsXsXsXsXsXsXsXsXsXsXsXsXsXsXsXsXsXsXsXsXsXsXsXsXsXsXsXsXsXsXsXsXsXsXsXsXsXsXsXsXsXsXsXsXsXsXsXsXsXsXsXsXsXsXsXsXsXsXsXsXsXsXsXsXsXsXsXsXsXsXsXsXsXsXsXsXsXsXsXsXsXsX",
"sXsXsXsXsXsXsXsXsXsXsXsXsXsXsXsXsXsXsXsXsXsXsXsXsXsXsXsXsXsXsXsXsXsXsXsXsXsXsXsXsXsXsXsXsXsXsXsXsXsXsXsXsXsXsXsXsXsXsXsXsXsXsXsXsXsXsXsXsXsXsXsXsXsXsXsXsXsXsXsXsXsXsXsXsX",
"sXsXsXsXsXsXsXsXsXsXsXsXsXsXsXsXsXsXsXsXsXsXsXsXsXsXsXsXsXsXsXsXsXsXsXsXsXsXsXsXsXsXsXsXsXsXsXsXsXsXsXsXsXsXsXsXsXsXsXsXsXsXsXsXsXsXsXsXsXsXsXsXsXsXsXsXsXsXsXsXsXsXsXsXsX",
"sXsXsXsXsXsXsXsXsXsXsXsXsXsXsXsXsXsXsXsXsXsXsXsXsXsXsXsXsXsXsXsXsXsXsXsXsXsXsXsXsXsXsXsXsXsXsXsXsXsXsXsXsXsXsXsXsXsXsXsXsXsXsXsXsXsXsXsXsXsXsXsXsXsXsXsXsXsXsXsXsXsXsXsXsX",
"sXsXsXsXsXsXsXsXsXsXsXsXsXsXsXsXsXsXsXsXsXsXsXsXsXsXsXsXsXsXsXsXsXsXsXsXsXsXsXsXsXsXsXsXsXsXsXsXsXsXsXsXsXsXsXsXsXsXsXsXsXsXsXsXsXsXsXsXsXsXsXsXsXsXsXsXsXsXsXsXsXsXsXsXsX",
"sXsXsXsXsXsXsXsXsXsXsXsXsXsXsXsXsXsXsXsXsXsXsXsXsXsXsXsXsXsXsXsXsXsXsXsXsXsXsXsXsXsXsXsXsXsXsXsXsXsXsXsXsXsXsXsXsXsXsXsXsXsXsXsXsXsXsXsXsXsXsXsXsXsXsXsXsXsXsXsXsXsXsXsXsX",
"sXsXsXsXsXsXsXsXsXsXsXsXsXsXsXsXsXsXsXsXsXsXsXsXsXsXsXsXsXsXsXsXsXsXsXsXsXsXsXsXsXsXsXsXsXsXsXsXsXsXsXsXsXsXsXsXsXsXsXsXsXsXsXsXsXsXsXsXsXsXsXsXsXsXsXsXsXsXsXsXsXsXsXsXsX",
"sXsXsXsXsXsXsXsXsXsXsXsXsXsXsXsXsXsXsXsXsXsXsXsXsXsXsXsXsXsXsXsXsXsXsXsXsXsXsXsXsXsXsXsXsXsXsXsXsXsXsXsXsXsXsXsXsXsXsXsXsXsXsXsXsXsXsXsXsXsXsXsXsXsXsXsXsXsXsXsXsXsXsXsXsX",
"sXsXsXsXsXsXsXsXsXsXsXsXsXsXsXsXsXsXsXsXsXsXsXsXsXsXsXsXsXsXsXsXsXsXsXsXsXsXsXsXsXsXsXsXsXsXsXsXsXsXsXsXsXsXsXsXsXsXsXsXsXsXsXsXsXsXsXsXsXsXsXsXsXsXsXsXsXsXsXsXsXsXsXsXsX",
"sXsXsXsXsXsXsXsXsXsXsXsXsXsXsXsXsXsXsXsXsXsXsXsXsXsXsXsXsXsXsXsXsXsXsXsXsXsXsXsXsXsXsXsXsXsXsXsXsXsXsXsXsXsXsXsXsXsXsXsXsXsXsXsXsXsXsXsXsXsXsXsXsXsXsXsXsXsXsXsXsXsXsXsXsX",
"sXsXsXsXsXsXsXsXsXsXsXsXsXsXsXsXsXsXsXsXsXsXsXsXsXsXsXsXsXsXsXsXsXsXsX,.d sXsXsXsXsXsXsXsXsXsXsXsXsXsXsXsXsXsXsXsXsXsXsXsXsXsXsXsXsXsXsXsXsXsXsXsXsXsXsXsXsXsXsXsXsXsXsXsX",
"sXsXsXsXsXsXsXsXsXsXsXsXsXsXsXsXsXsXsXsXsXsXsXsXsXsXsXsXsXsXsXsXsXsX7 rX<XW.T sXsXsXsXsXsXsXsXsXsXsXsXsXsXsXsXsXsXsXsXsXsXsXsXsXsXsXsXsXsXsXsXsXsXsXsXsXsXsXsXsXsXsXsXsXsX",
"sXsXsXsXsXsXsXsXsXsXsXsXsXsXsXsXsXsXsXsXsXsXsXsXsXsXsXsXsXsXsXsXsXsXb <X X#X5XE sXsXsXsXsXsXsXsXsXsXsXsXsXsXsXsXsXsXsXsXsXsXsXsXsXsXsXsXsXsXsXsXsXsXsXsXsXsXsXsXsXsXsXsXsX",
"sXsXsXsXsXsXsXsXsXsXsXsXsXsXsXsXsXsXsXsXsXsXsXsXsXd 0.sX4.sXsXsXsXsXsXT.OXQ.3XT sXsXsXsXsXsXsXsXsXsXsXsXsXsXsXsXsXsXsXsXsXsXsXsXsXsXsXsXsXsXsXsXsXsXsXsXsXsXsXsXsXsXsXsXsX",
"sXsXsXsXsXsXsXsXsXsXsXsXsXsXsXsXsXsXsXsXsXsXsXsXsXp.M.U  X4Xd sXsXsXsX>.m.m.t.s sXsXsXsXsXsXsXsXsXsXsXsXsXsXsXsXsXsXsXsXsXsXsXsXsXsXsXsXsXsXsXsXsXsXsXsXsXsXsXsXsXsXsXsXsX",
"sXsXsXsXsXsXsXsXsXsXsXsXsXsXsXsXsXsXsXsXsXsXsXsXsX6.j i 4 5.tXM sXsXsX8 ( w.i sXsXsXsXsXsXsXsXsXsXsXsXsXsXsXsXsXsXsXsXsXsXsXsXsXsXsXsXsXsXsXsXsXsXsXsXsXsXsXsXsXsXsXsXsXsX",
"sXsXsXsXsXsXsXsXsXsXsXsXsXsXsXsXsXsXsXsXsXsXsXsXsXp.t.j X o @X9.$ ' ] *...&.z.sXJ sXsXsXsXsXsXsXsXsXsXsXsXsXsXsXsXsXsXsXsXsXsXsXsXsXsXsXsXsXsXsXsXsXsXsXsXsXsXsXsXsXsXsXsX",
"sXsXsXsXsXsXsXsXsXsXsXsXsXsXsXsXsXsXsXsXsXsXsXsXsX2.n.y O E g L [.+.q D z.G. . .l.& sXsXsXsXsXsXsXsXsXsXsXsXsXsXsXsXsXsXsXsXsXsXsXsXsXsXsXsXsXsXsXsXsXsXsXsXsXsXsXsXsXsXsX",
"sXsXsXsXsXsXsXsXsXsXsXsXsXsXsXsXsXsXsXsXsXsXsXsXsXsX6.B.8.t.8 ..H.z.Z ) H H W H ' z sXsXsXsXsXsXsXsXsXsXsXsXsXsXsXsXsXsXsXsXsXsXsXsXsXsXsXsXsXsXsXsXsXsXsXsXsXsXsXsXsXsXsX",
"sXsXsXsXsXsXsXsXsXsXsXsXsXsXsXsXsXsXsXsXsXsXsXsXsXsXsX1.7.8 H $.$.x.%.P.5 ` ~ + ].*.sXsXsXsXsXsXsXsXsXsXsXsXsXsXsXsXsXsXsXsXsXsXsXsXsXsXsXsXsXsXsXsXsXsXsXsXsXsXsXsXsXsXsX",
"sXsXsXsXsXsXsXsXsXf b d sXsXsXsXsXsXsXsXsXsXsXsXsXsXsXsX@ K s.c.+.' $.A n aX{.# Z N -  .N sXsXsXsXsXsXsXsXsXsXsXsXsXsXsXsXsXsXsXsXsXsXsXsXsXsXsXsXsXsXsXsXsXsXsXsXsXsXsXsX",
"sXsXsXsXsXsXsX9.Y.T.4X3XoXT sXsXsXsXsXsXsXsXsXsXsXsXsXsXX.:X>XuX*XV H #.G.'.o.z ' z.s./ ( D sXsXsXsXsXsXsXsXsXsXsXsXsXsXsXsXsXsXsXsXsXsXsXsXsXsXsXsXsXsXsXsXsXsXsXsXsXsXsX",
"sXsXsXsXsXsXg.!.g Y 5.i OXaXi.sXsXsXsXsXsXsXsXsXsXsXsXsX%XiXqXuX*X'.n z S - H '.'.#.P 1 ;.M.X.sXd 9.7 sXsXsXsXsXsXsXsXsXsXsXsXsXsXsXsXsXsXsXsXsXsXsXsXsXsXsXsXsXsXsXsXsXsX",
"sXsXsXsXsX,.1.sXsXsXsXsX=.E.pX2.sXsXsXsXsXsXsXsXsXsXsX{ XXqXrX0XqX$XU.D.R [.{.aXuXwX{ 4 , i B. XE.0X<XsXsXsXsXsXsXsXsXsXsXsXsXsXsXsXsXsXsXsXsXsXsXsXsXsXsXsXsXsXsXsXsXsXsX",
"sXsXsXsX2.b.sXsXsXsXsXsXsX=.@XI.sXsXsXsXsXsXsXsXsXsXsXw %.eXuX9XiX].}.pXr.8XqX>XuXaXqXh X   O j #X3X@XsXsXsXsXsXsXsXsXsXsXsXsXsXsXsXsXsXsXsXsXsXsXsXsXsXsXsXsXsXsXsXsXsXsX",
"sXsXsX, a a.sXsXsXsXsXsXsX( <.tXp sXsXsXsXsXsXsXsX- ^ - Z o.O.-XrX9X{.>Xr.O.].qX0X0XaX5.: .   1 ;.OX=.sXsXsXsXsXsXsXsXsXsXsXsXsXsXsXsXsXsXsXsXsXsXsXsXsXsXsXsXsXsXsXsXsXsX",
"sXsXsX2 y sXsXsXsXsXsXsXsXsXg.rXh.sXsXsXsXsXsXsXq ].`.'.W @ Q _.eXaX).G.aX} o.uX0X9XyX7X,.: ; j j i < sXsXsXsXsXsXsXsXsXsXsXsXsXsXsXsXsXsXsXsXsXsXsXsXsXsXsXsXsXsXsXsXsXsX",
"sXsXsX: b sXsXsXsXsXsXsXsXsXV.<XE.sXsXsXsXsXsXsX| H.z.*Xz.' yX0Xz.L.iX{.,X^.} $XqX8X:XyX7XI.3.r 1 h [ sXsXsXsXsXsXsXsXsXsXsXsXsXsXsXsXsXsXsXsXsXsXsXsXsXsXsXsXsXsXsXsXsXsX",
"sXsXsXsX6 sXsXsXsXsXsXsXsXsX,.!.E.sXsXsXsXsXsXK o.&.*X(.$.9XaXpX%XR H.iXG.;XS.%.2XeX9X1X8XpX>Xv.y.].o.sXsXsXsXsXsXsXsXsXsXsXsXsXsXsXsXsXsXsXsXsXsXsXsXsXsXsXsXsXsXsXsXsXsX",
"sXsXsXsXsXsXsXsXsXsXsXsXsX4.w.g.sXsXsXsXsXsXsXz.+.H.z.D ].aXuXiXpX).F P.iX*XoXf.{ `.XXXX_.s.%.>XyX%.sXsXsXsXsXsXsXsXsXsXsXsXsXsXsXsXsXsXsXsXsXsXsXsXsXsXsXsXsXsXsXsXsXsXsX",
"sXsXsXsXsXsXsXsXsXsXsXsXsX3.<X@XsXsXsXsXsXsXJ '...`. .o.7XaX0XrXpX0Xz z s.l.H.sXsXd.$.$.%.U.] ! R sXsXsXsXsXsXsXsXsXsXsXsXsXsXsXsXsXsXsXsXsXsXsXsXsXsXsXsXsXsXsXsXsXsXsXsX",
"sXsXsXsXsXsXsXsXsXsXsXsXsXg.@XT.sXsXsXsXsXsX+.G.&./.@.].k.$XaXeXyXpXR M sXsXsXsXsX~.aXXXP.sXsXsXsXsXsXsXsXsXsXsXsXsXsXsXsXsXsXsXsXsXsXsXsXsXsXsXsXsXsXsXsXsXsXsXsXsXsXsXsX",
"sXsXsXsXsXsXsXsXsXsXsXsXb T.!.3.sXsXsXsXsXS `.| ~ V A &.M T 1XaXpX2X$.V sXsXsXsXsXr.6XD._ sXsXsXsXsXsXsXsXsXsXsXsXsXsXsXsXsXsXsXsXsXsXsXsXsXsXsXsXsXsXsXsXsXsXsXsXsXsXsXsX",
"sXsXsXsXsXsXsXsXsXsXsXsX3.Q.C.Y sXsXsXsXsX` L.o. .~ H.#.P V.h.`.9X .0 / q sXsXsXsXsXsXsXsXsXsXsXsXsXsXsXsXsXsXsXsXsXsXsXsXsXsXsXsXsXsXsXsXsXsXsXsXsXsXsXsXsXsXsXsXsXsXsXsX",
"sXsXsXsXsXsXsXsXsXsXsX7 !.!.E.sXsXsXsXsXsXo.+.H `./.Q C d +X<Xg.q.* Y N.0 sXsXsXsXsXsXsXsXsXsXsXsXsXsXsXsXsXsXsXsXsXsXsXsXsXsXsXsXsXsXsXsXsXsXsXsXsXsXsXsXsXsXsXsXsXsXsXsX",
"sXsXsXsXsXsXsXsXsXsXsXb @X#XV.sXsXsXsXsXH x.&.q w & 9 F.O.<.T.N.6.3.T.n.& sXsXsXsXsXsXsXsXsXsXsXsXsXsXsXsXsXsXsXsXsXsXsXsXsXsXsXsXsXsXsXsXsXsXsXsXsXsXsXsXsXsXsXsXsXsXsXsX",
"sXsXsXsXsXsXsXsXsXsXsXa Z.V.0.sXsXsXsXsXH H.z.$.o.G F.XX{.u.-.U p.M.b.b sXsXsXsXsXsXsXsXsXsXsXsXsXsXsXsXsXsXsXsXsXsXsXsXsXsXsXsXsXsXsXsXsXsXsXsXsXsXsXsXsXsXsXsXsXsXsXsXsX",
"sXsXsXsXsXsXsXsXsXsXsXu <.M.h.sXsXsXsXC o.c.c.G.+.H.rX9XpXl.g 4.g.;.;.h sXsXsXsXsXsXsXsXsXsXsXsXsXsXsXsXsXsXsXsXsXsXsXsXsXsXsXsXsXsXsXsXsXsXsXsXsXsXsXsXsXsXsXsXsXsXsXsXsX",
"sXsXsXsXsXsXsXsXsXsXsXsX1..X@Xi.sXsXsXA x.$.c.X.#.rXeX>X9XXX|.].4.5.5 sXsXsXsXsXsXsXsXsXsXsXsXsXsXsXsXsXsXsXsXsXsXsXsXsXsXsXsXsXsXsXsXsXsXsXsXsXsXsXsXsXsXsXsXsXsXsXsXsXsX",
"sXsXsXsXsXsXsXsXsXsXsXsXg m.n.;.4 sX..^ s.@.@.[ :X9X:X:X:X9XpX>X2X7XH C sXsXsXsXsXsXsXsXsXsXsXsXsXsXsXsXsXsXsXsXsXsXsXsXsXsXsXsXsXsXsXsXsXsXsXsXsXsXsXsXsXsXsXsXsXsXsXsXsX",
"sXsXsXsXsXsXsXsXsXsXsXsXI k ;.:.>.5 Q k.+.s.! ).eX:X:X:X>X:X:X>X>XuX_.9 sXsXsXsXsXsXsXsXsXsXsXsXsXsXsXsXsXsXsXsXsXsXsXsXsXsXsXsXsXsXsXsXsXsXsXsXsXsXsXsXsXsXsXsXsXsXsXsXsX",
"sXsXsXsXsXsXsXsXsXsXsXsXsXr 1.t.=.A &.+.O.o.%.1X:X;X&X:X:X:X:X:X:X>X:XO.- sXsXsXsXsXsXsXsXsXsXsXsXsXsXsXsXsXsXsXsXsXsXsXsXsXsXsXsXsXsXsXsXsXsXsXsXsXsXsXsXsXsXsXsXsXsXsXsX",
"sXsXsXsXsXsXsXsXsXsXsXsXsX( l A.5 C $.o.X.^ H.9X;X;X;X;X&X:X:X&X;X;X0Xk.! 0 sXsXsXsXsXsXsXsXsXsXsXsXsXsXsXsXsXsXsXsXsXsXsXsXsXsXsXsXsXsXsXsXsXsXsXsXsXsXsXsXsXsXsXsXsXsXsX",
"sXsXsXsXsXsXsXsXsXsXsXsXsXsXd k 0 B X.o.o.^ P.8X%X&X;X;X:X:X:X;X:X;X9X).! W - sXsXsXsXsXsXsXsXsXsXsXsXsXsXsXsXsXsXsXsXsXsXsXsXsXsXsXsXsXsXsXsXsXsXsXsXsXsXsXsXsXsXsXsXsXsX",
"sXsXsXsXsXsXsXsXsXsXsXsXsXsXsXsXe B S @.X.! L.9X%X&X:X:X%X%X:X:X:X-X>XXX^ o.sXsXsXsXsXsXsXsXsXsXsXsXsXsXsXsXsXsXsXsXsXsXsXsXsXsXsXsXsXsXsXsXsXsXsXsXsXsXsXsXsXsXsXsXsXsXsX",
"sXsXsXsXsXsXsXsXsXsXsXsXsXsXsXsX$ S M F ^ X.u.9X:X%X_.L.H.K.K.).].:X9X).[ | sXsXsXsXsXsXsXsXsXsXsXsXsXsXsXsXsXsXsXsXsXsXsXsXsXsXsXsXsXsXsXsXsXsXsXsXsXsXsXsXsXsXsXsXsXsXsX",
"sXsXsXsXsXsXsXsXsXsXsXsXsXsXsXsXsXM M w M D M c.XXl.l.d.l.K.K.l.d.L.-Xf.A % sXs sXsXsXsXsXsXsXsXsXsXsXsXsXsXsXsXsXsXsXsXsXsXsXsXsXsXsXsXsXsXsXsXsXsXsXsXsXsXsXsXsXsXsXsXsX",
"sXsXsXsXsXsXsXsXsXsXsXsXsXsXsXsXsXsX% M F M e w O._.P.L.J.G.X.J.L.P.G.M $ 5 Y |.Y.y.sXsXsXsXsXsXsXsXsXsXsXsXsXsXsXsXsXsXsXsXsXsXsXsXsXsXsXsXsXsXsXsXsXsXsXsXsXsXsXsXsXsXsX",
"sXsXsXsXsXsXsXsXsXsXsXsXsXsXsXsXsXsXsX0 $ - M w 9 G k.] sXsXy u.H.J.V - y.<XY.OX|.V.sXsXsXsXsXsXsXsXsXsXsXsXsXsXsXsXsXsXsXsXsXsXsXsXsXsXsXsXsXsXsXsXsXsXsXsXsXsXsXsXsXsXsX",
"sXsXsXsXsXsXsXsXsXsXsXsXsXsXsXj.W.R.#X3.( F 9 B z F T sXsXsXk 8.<.I p w.@X+X7.=.e.m d sXsXsXsXsXsXsXsXsXsXsXsXsXsXsXsXsXsXsXsXsXsXsXsXsXsXsXsXsXsXsXsXsXsXsXsXsXsXsXsXsXsX",
"sXsXsXsXsXsXsXsXsXsXsXsXsXsX> 1.p.3XY.V.pX@Xe.h <.7.s sXsXsXsXsXsXsXsXsX2 b 3 , sXsXsXsXsXsXsXsXsXsXsXsXsXsXsXsXsXsXsXsXsXsXsXsXsXsXsXsXsXsXsXsXsXsXsXsXsXsXsXsXsXsXsXsXsX",
"sXsXsXsXsXsXsXsXsXsXsXsXsXsXsXsXu 2 I ,.<.m sXsXsXsXsXsXsXsXsXsXsXsXsXsXsXsXsXsXsXsXsXsXsXsXsXsXsXsXsXsXsXsXsXsXsXsXsXsXsXsXsXsXsXsXsXsXsXsXsXsXsXsXsXsXsXsXsXsXsXsXsXsXsX"
};
