/* XPM */
static char *result[] = {
/* columns rows colors chars-per-pixel */
"75 75 179 2 ",
"   c #000102",
".  c #00000B",
"X  c #1F110A",
"o  c #000719",
"O  c #0E1216",
"+  c #121619",
"@  c #2A1F0F",
"#  c #341C00",
"$  c #2E210F",
"%  c #2F2311",
"&  c #0B182E",
"*  c #101D2F",
"=  c #1F2529",
"-  c #192434",
";  c #1C3333",
":  c #2A2A2A",
">  c #292E32",
",  c #2E3235",
"<  c #2D3438",
"1  c #393C3E",
"2  c #363939",
"3  c #4B3514",
"4  c #6D1C34",
"5  c #51302C",
"6  c #423B35",
"7  c #5E4200",
"8  c #5D4417",
"9  c #6A4817",
"0  c #774D10",
"q  c #4B4030",
"w  c #514A3F",
"e  c #614C2E",
"r  c #7D5923",
"t  c #6C5933",
"y  c #755936",
"u  c #2E3A41",
"i  c #363C41",
"p  c #3B3F42",
"a  c #3D4245",
"s  c #364045",
"d  c #454343",
"f  c #4C4945",
"g  c #4A4D4F",
"h  c #42484A",
"j  c #514C4A",
"k  c #5E5543",
"l  c #52514F",
"z  c #4B4F50",
"x  c #4D5357",
"c  c #545453",
"v  c #55595B",
"b  c #5D5C5B",
"n  c #545758",
"m  c #6A5F4F",
"M  c #555D62",
"N  c #5B6165",
"B  c #5E6569",
"V  c #5A666B",
"C  c #557272",
"Z  c #656564",
"A  c #646768",
"S  c #636A6E",
"D  c #696A6A",
"F  c #6A6F71",
"G  c #656D71",
"H  c #6B7173",
"J  c #6D767B",
"K  c #69767C",
"L  c #727677",
"P  c #767C7E",
"I  c #7A7C7C",
"U  c #8F5F18",
"Y  c #A77118",
"T  c #8D5E2A",
"R  c #8A6020",
"E  c #906626",
"W  c #896D36",
"Q  c #AE7628",
"!  c #B47C26",
"~  c #C37E14",
"^  c #801743",
"/  c #9D2452",
"(  c #BB354D",
")  c #B3374E",
"_  c #B13B51",
"`  c #B43A5C",
"'  c #C1324B",
"]  c #C83C58",
"[  c #BF4157",
"{  c #B5812D",
"}  c #B68233",
"|  c #C1852B",
" . c #C68A24",
".. c #D28B2A",
"X. c #DA9425",
"o. c #DF9E3C",
"O. c #D5A730",
"+. c #E4A033",
"@. c #EBA839",
"#. c #F3AE35",
"$. c #E2B539",
"%. c #FFBB3D",
"&. c #C7A345",
"*. c #FFBE4E",
"=. c #FFCB49",
"-. c #FFD848",
";. c #FFD253",
":. c #FFDA55",
">. c #FFE454",
",. c #FFE659",
"<. c #FFF05D",
"1. c #FFFA64",
"2. c #6E7B81",
"3. c #747D81",
"4. c #7A7F81",
"5. c #7C8285",
"6. c #7D868A",
"7. c #6D8888",
"8. c #848586",
"9. c #848A8D",
"0. c #8B8E8E",
"q. c #848F94",
"w. c #8C9295",
"e. c #8D999E",
"r. c #8A959A",
"t. c #939A9D",
"y. c #989D9E",
"u. c #8F9BA0",
"i. c #949EA3",
"p. c #9BA2A6",
"a. c #97A4AB",
"s. c #9CA5AA",
"d. c #9BA8AE",
"f. c #97A0A4",
"g. c #9FAEB5",
"h. c #A2AAAE",
"j. c #A0A5A7",
"k. c #A4ADB2",
"l. c #ACB2B5",
"z. c #ACB6BC",
"x. c #ADB8BD",
"c. c #B3BABD",
"v. c #B9BABA",
"b. c #ACBDC5",
"n. c #B2BDC2",
"m. c #BABFC0",
"M. c #B4C1C6",
"N. c #BBC3C5",
"B. c #BCC6CB",
"V. c #BBC7CD",
"C. c #BFCCD2",
"Z. c #C4CBCE",
"A. c #C3CED3",
"S. c #CAD2D4",
"D. c #C6D4DB",
"F. c #CAD6DB",
"G. c #C9D5DA",
"H. c #D3D7D9",
"J. c #D3DADD",
"K. c #D0D6D7",
"L. c #D2DFE5",
"P. c #D4E1E6",
"I. c #D6E4EA",
"U. c #DAE5EA",
"Y. c #DCE9EE",
"T. c #D9E3E6",
"R. c #DDEAF0",
"E. c #E4EBED",
"W. c #E4EEF2",
"Q. c #E5F2F7",
"!. c #ECF2F4",
"~. c #E6F6FD",
"^. c #E9F7FD",
"/. c #ECFAFF",
"(. c #E6F8FF",
"). c #F3FEFF",
"_. c #FEFFFF",
"`. c #F0F7F8",
"'. c None",
/* pixels */
"'.'.'.'.'.'.'.'.'.'.'.'.'.'.'.'.'.'.'.'.'.'.'.'.'.'.'.'.'.'.'.'.'.'.'.'.'.'.'.'.'.'.'.'.'.'.'.'.'.'.'.'.'.'.'.'.'.'.'.'.'.'.'.'.'.'.'.'.'.'.'.'.'.'.'.",
"'.'.'.'.'.'.'.'.'.'.'.'.'.'.'.'.'.'.'.'.'.'.'.'.'.'.'.'.'.'.'.'.'.'.'.'.'.'.'.'.'.'.'.'.'.'.'.'.'.'.'.'.'.'.'.'.'.'.'.'.'.'.'.'.'.'.'.'.'.'.'.'.'.'.'.",
"'.'.'.'.'.'.'.'.'.'.'.'.'.'.'.'.'.'.'.'.'.'.'.'.'.'.'.'.'.'.'.'.'._ _ _ _ '.'.'.'.'.'.'.'.'.'.'.'.'.'.'.'.'.'.'.'.'.'.'.'.'.'.'.'.'.'.'.'.'.'.'.'.'.'.",
"'.'.'.'.'.'.'.'.'.'.'.'.'.'.'.'.'.'.'.'.'.'.'.'.'.'.'.'.'.'.'.'._ _ _ _ _ _ '.'.'.'.'.'.'.'.'.'.'.'.'.'.'.'.'.'.'.'.'.'.'.'.'.'.'.'.'.'.'.'.'.'.'.'.'.",
"'.'.'.'.'.'.'.'.'.'.'.'.'.'.'.'.'.'.'.'.'.'.'.'.'.'.'.'.'.'.'.'._ _ _ _ _ _ '.'.'.'.'.'.'.'.'.'.'.'.'.'.'.'.'.'.'.'.'.'.'.'.'.'.'.'.'.'.'.'.'.'.'.'.'.",
"'.'.'.'.'.'.'.'.'.'.'.'.'.'.'.'.'.'.'.'.'.'.'.'.'.'.'.'.'.'.'.'._ _ _ _ _ _ '.'.'.'.'.'.'.'.'.'.'.'.'.'.'.'.'.'.'.'.'.'.'.'.'.'.'.'.'.'.'.'.'.'.'.'.'.",
"'.'.'.'.'.'.'.'.'.'.'.'.'.'.'.'.'.'.'.'.'.'.'.'.'.'.'.'.'.'.'.'._ _ _ _ _ _ '.'.'.'.'.'.'.'.'.'.'.'.'.'.'.'.'.'.'.'.'.'.'.'.'.'.'.'.'.'.'.'.'.'.'.'.'.",
"'.'.'.'.'.'.'.'.'.'.'.'.'.'.'.'.'.'.'.'.'.'.'.'.'.'.'.'.'.'.'.'._ _ _ _ _ _ '.'.'.'.'.'.'.'.'.'.'.'.'.'.'.'.'.m 6 '.'.'.'.'.'.'.'.'.'.'.'.'.'.'.'.'.'.",
"'.'.'.'.'.'.'.'.'.'.'.'.'.'.'.'.'.'.'.'.'.'.'.'.'.'.'.'.'.'.'.'._ _ _ _ _ _ '.'.'.'.'.'.'.t 9 '.'.'.'.'.'.'.'.! O.8 : g '.'.'.'.'.'.'.'.'.'.'.'.'.'.'.",
"'.'.'.'.'.'.'.'.'.'.'.'.'.'.'.'.'.'.'.'.'.'.'.'.'.'.'.'.'.'.'.'._ _ _ _ _ _ '.'.'.'.'.'.~ -.o.'.'.'.'.'.'.'.f @.;.:.X.@ '.'.'.'.'.'.'.'.'.'.'.'.'.'.'.",
"'.'.'.'.'.'.'.'.'.'.'.'.'.'.'.'.'.'.'.'.'.'.'.'.'.'.'._ '.'.'.'._ _ _ _ _ _ '.'.'.'.'.'.&.,.} '.'.'.'.'.'.'.r ;.=.=.T '.'.'.'.'.'.'.'.'.'.'.'.'.'.'.'.",
"'.'.'.'.'.'.'.'.'.'.'.'.'.'.'.'.'.'.'.'.'.'.'.'.'._ _ _ _ _ '.'._ _ _ _ _ _ '.'._ _ ( / y -.| '.'.'.'.'.'., ..;.;.9 '.'.'.'.'.'.'.'.'.'.'.'.'.'.'.'.'.",
"'.'.'.'.'.'.'.'.'.'.'.'.'.'.'.'.'.'.'.'.'.'.'.'._ _ _ _ _ _ _ '._ _ _ _ _ _ '._ _ _ _ ] 4 @.+.'.'.'.'.'.'.3 ;.:.0 '.'.'.'.'.'.'.'.'.'.'.'.'.'.'.'.'.'.",
"'.'.'.'.'.'.'.'.'.'.'.'.'.'.'.'.'.'.'.'.'.'.'.'._ _ _ _ _ _ _ _ _ _ _ _ _ _ _ _ _ _ _ [ ^ T #.d '.'.'.'.- Y 1.U & '.'.'.'.'.'.'.'.'.'.'.'.'.'.'.'.'.'.",
"'.'.'.'.'.'.'.'.'.'.'.'.'.'.'.'.'.'.'.'.'.'.'.'._ _ _ _ _ _ _ _ _ _ _ _ _ _ _ _ _ _ _ _ ` 5  .k '.'.'.'.@ ,.! o '.'.'.'.'.'.'.'.'.'.'.'.'.'.'.'.'.'.'.",
"'.'.'.'.'.'.'.'.'.'.'.'.'.'.'.'.'.'.'.'.'.'.'.'.'._ _ _ _ _ _ _ _ _ _ _ _ _ _ _ _ _ _ _ '.'.7 e '.'.'.*  .$.. '.'.'.'.'.'.'.'.'.'.'.'.'.'.'.'.'.'.'.'.",
"'.'.'.'.'.'.'.'.'.'.'.'.'.'.'.'.'.'.'.'.'.'.'.'.'.'._ _ _ _ _ _ _ _ _ _ _ _ _ _ _ _ _ ) '.'.2 f '.'.'.%  .@ '.'.'.'.'.'.'.'.'.'.'.'.'.'.'.'.'.'.'.'.'.",
"'.'.'.'.'.'.'.'.'.'.'.'.'.'.'.'.'.'.'.'.'.'.'.'.'.'.'._ _ _ _ _ _ _ _ _ _ _ _ _ _ _ '.'.'.'.'.'.'.'.'.6   '.'.'.'.'.'.'.'.'.f W $.R '.'.'.'.'.'.'.'.'.",
"'.'.'.'.'.'.'.'.'.'.'.'.'.'.'.'.'.'.'.'.'.'.'.'.'.'.'.'._ _ _ _ _ _ _ _ _ _ _ _ _ '.'.'.'.'.'.'.'.'.'.'.'.'.'.'.'.'.'.f t { %.>.<.X.1 '.'.'.'.'.'.'.'.",
"'.'.'.'.'.'.'.'.'.'.'.'.'.'.'.'.'.'.'.'.'.'.'.'.'.'.'.'.'._ _ _ _ _ _ _ _ _ _ '.'.'.'.'.'.'.'.'.'.'.'.'.'.'.'.'.'.'.# Y X.+.| Q } } q '.'.'.'.'.'.'.'.",
"'.'.'.'.'.'.'.'.'.'.'.'.'.'.'.'.'.'.'.'.'.'.'.'.'.'.'.'.'.'._ _ _ _ _ _ _ _ '.'.'.'.'.'.'.'.'.'.'.'.'.4.H.D.g '.'.'.q k d '.'.'.'.'.'.'.'.'.'.'.'.'.'.",
"'.'.'.'.'.'.'.'.'.'.'.'.'.'.'.'.'.'.'.'.'.'.'.'.'.'.'.'.'.'.'._ _ _ _ _ ( '.'.'.'.'.'.'.'.'.'.'.'.'.s._._.).n '.'.'.'.'.'.'.'.'.'.'.'.'.'.'.'.'.'.'.'.",
"'.'.'.'.'.'.'.'.'.'.'.'.'.'.'.'.'.'.'.'.'.'.'.'.'.'.'.'.'.'.'.'.'.] ' '.'.'.'.'.'.'.'.'.'.'.'.'.'.k._.)./.).g '.'.'.'.'.'.'.'.'.'.'.'.'.'.'.'.'.'.'.'.",
"'.'.'.'.'.'.'.'.'.'.'.'.'.'.'.'.'.'.'.'.'.'.'.'.'.'.'.'.'.'.'.'.'.'.'.'.'.'.'.n S H P 9.e.f.x.N.N.^.).^.).Q.g '.'.'.'.'.'.'.'.'.'.'.'.'.'.'.'.'.'.'.'.",
"'.'.'.'.'.'.'.'.'.'.'.'.'.'.'.'.'.'.'.'.'.'.'.'.'.'.'.'.'.'.'.'.'.; C 7.t.c.A.T.)._._._._._._._._./.^.^.).U.v '.'.'.'.'.'.'.'.'.'.'.'.'.'.'.'.'.'.'.'.",
"'.'.'.'.'.'.'.'.'.'.'.'.'.'.'.'.'.'.'.'.'.'.'.'.'.'.'.'.'.z H p.F.Q.)._._._._.)././.^.^.^.^.^.^.^.^.^.^._.M.'.'.'.'.'.'.'.'.'.'.'.'.'.'.'.'.'.'.'.'.'.",
"'.'.'.'.'.'.'.'.'.'.'.'.'.'.'.'.'.'.'.'.'.'.'.'.'.'.H y.Z.~._._._.)./.^.^.^.^.^.^.^.^.^.^.^.^.^.^.^.^.^.).E.y.'.'.'.'.'.'.'.'.'.'.'.'.'.'.'.'.'.'.'.'.",
"'.'.'.'.'.'.'.'.'.'.'.'.'.'.'.'.'.'.'.'.'.'.'.A y.J._._._.).^.^.^.^.^.^.^.^.^.^.^.^.^.^.^.^.^.^.^.^.^.^.^.).^.P '.'.'.'.'.'.'.'.'.'.'.'.'.'.'.'.'.'.'.",
"'.'.'.'.'.'.'.'.'.'.'.'.'.'.'.'.'.'.'.'.'.P l.)._.).^.^.^.^.^.^.^.^.^.^.^.^.^.^.^.^.^.^.^.^.^.^.^.^.^.^.^.^._.t.'.'.'.'.'.'.'.'.'.'.'.'.'.'.'.'.'.'.'.",
"'.'.'.'.'.'.'.'.'.'.'.'.'.'.'.'.'.'.'.9.S._._./.^.^.^.^.^.^.^.^.^.^.^.^.^.^.^.^.^.^.^.^.^.^.^.^.^.^.^.^.^.^._.D.'.'.'.'.'.'.'.'.'.'.'.'.'.'.'.'.'.'.'.",
"'.'.'.'.'.'.'.'.'.'.'.'.'.'.'.'.'.y.W._._.^.^.^.^.^.^.^.^.^.^.^.^.^.^.^.^.^.^.^.^.^.^.^.^.^.^.^.^.^.^.^.^.^./.).5.'.'.'.'.'.'.'.'.'.'.'.'.'.'.'.'.'.'.",
"'.'.'.'.'.'.'.'.'.'.'.c j '.'.8.K._.).^.^.^.^.^.^.^.^.^.^.^.^.^.^.^.^.^.^.^.^.^.^.^.^.^.^.^.^.^.^.^.^.^.^.^.^._.k.'.'.'.'.'.'.'.'.'.'.'.'.'.'.'.'.'.'.",
"'.'.'.'.'.'.'.'.5.v.F.L.T.n.k._._.^.^.^.^.^.^.^.^.^.^.^.^.^.^.^.^.^.^.^.^.^.^.^.^.^.^.^.^.^.^.^.^.^.^.^.^.^.^.).F.'.'.'.'.'.'.'.'.'.'.'.'.'.'.'.'.'.'.",
"'.'.'.'.'.'.'.'.p._._.).)._._.^.^.^.^.^.^.^.^.^.^.^.^.^.^.^.^.^.^.^.^.^.^.^.^.^.^.^.^.^.^./.^.^.^.^.^.^.^.^.^./.).L '.'.'.'.'.'.'.'.'.'.'.'.'.'.'.'.'.",
"'.'.'.'.'.'.'.'.'.w.)._.^.^.^.^.^.^.^.^.^.^.^.^.^.^.^.^.^.^./.^.^.^.^.^.^.^.^.^.^.^.^.)._._._.~.^.^.^.^.^.^.^.^._.e.'.'.'.'.'.'.'.'.'.'.'.'.'.'.'.'.'.",
"'.'.'.'.'.'.'.'.'.'.'.H.)./.^.^.^.^.^.^.^.^.^.^.^.^.^.^.^././.^.^.^.^.^.^.^.^.^.^.^.^.Q.n.V B._.~.^.^.^.^.^.^.^._.k.'.'.'.'.'.'.'.'.'.'.'.'.'.'.'.'.'.",
"'.'.'.'.'.'.'.'.'.'.'.'.I.).^.^.^.^.^.^.^.^.^.^.^.^.^.^./.I.n.)./.~.~./.^.~.)._._.)._.k.t.v.: F.).^.^.^.^.^.^.^._.Z.'.'.'.'.'.'.'.'.'.'.'.'.'.'.'.'.'.",
"'.'.'.'.'.'.'.'.'.'.'.b Q.).^.^.^.^.^.^.^.^.^.^.~.)._./.).V.w._.~.~.).).^.)./.B L W._.e.q.).O a._.^.^.^.^.^.^.^.).I.l '.'.'.'.'.'.'.'.'.'.'.'.'.'.'.'.",
"'.'.'.'.'.'.'.'.'.'.'.b /.).^.^.^.^.^.^.^.^.^.~._.L.i.Y._.z.9._.~.).).~.)._.S x B n._.e.p.d.. `.).^.^.^.^.^.^.^./.^.b '.'.'.'.'.'.'.'.'.'.'.'.'.'.'.'.",
"'.'.'.'.'.'.'.'.'.'.'.b )./.^.^.^.^.^.^.^.^.~._.z., I Y._.k.6._.`.).S p A._., N N.)._.z., h m._.^.^.^.^.^.^.^.^./.).D '.'.'.'.'.'.'.'.'.'.'.'.'.'.'.'.",
"'.'.'.'.'.'.'.'.'.'.'.Z Q./.^.^.^.^.^.^.^.^.).S.1 S._./._.d.3._._.9.i M k._.M v _.)._.d.1 )._.~.^.^.^.^.^.^.^.^./._.9.'.'.'.'.'.'.'.'.'.'.'.'.'.'.'.'.",
"'.'.'.'.'.'.'.'.'.'.'.c R.).^.^.^.^.^.^.^.^._.3.5._.(.~._.k.J _._.x O x._.).!.9.9.h.).f.3._.!.~.^.^.^.^.^.^.^.^.^._.w.'.'.'.'.'.'.'.'.'.'.'.'.'.'.'.'.",
"'.'.'.'.'.'.'.'.'.'.'.c P.)./.!.^.^.^.^.~./.).S.a l._._._.n.F _._.9.  J._.^.)._.Q.U._.i.S _.^.^.^.^.^.^.^.^.^.^.^._.0.'.'.'.'.'.'.'.'.'.'.'.'.'.'.'.'.",
"'.'.'.'.'.'.'.'.'.'.'.'.G.)././.^.^.^.^.~.~.~._.c.v A F W.).V Q.)._.3.c h.)./.^././._.s.A _.^.^.^.^.^.^.^.^.^.^.^._.w.'.'.'.'.'.'.'.'.'.'.'.'.'.'.'.'.",
"'.'.'.'.'.'.'.'.'.'.'.'.B._.^.^.^.^.^.^./.!.^.~._._.Z.H 2 W.3.d._./._.^.I.^.^.^.^.^._.k.J _.^.^.^.^.^.^.^.^.^.^.^._.w.'.'.'.'.'.'.'.'.'.'.'.'.'.'.'.'.",
"'.'.'.'.'.'.'.'.'.'.'.'.d._.^.^.^.^.^.^.~./.^.^.^.^.)._.a K E.3.!./.^.)./.^.^.^.^.^.).B.w._.^.^.^.^.^.^.^.^.^.^.^._.w.'.'.'.'.'.'.'.'.'.'.'.'.'.'.'.'.",
"'.'.'.'.'.'.'.'.'.'.'.'.q._.^.^.^.^.^.^.^.^.^.^.~._._.h.* Z._.A.D.).^.^.^.^.^.^.^.^.).D.s.)./.^.^.^.^.^.^.^.^.^.^._.0.'.'.'.'.'.'.'.'.'.'.'.'.'.'.'.'.",
"'.'.'.'.'.'.'.'.'.'.'.'.K )./.^.^.^.^.^.^.^.^././.p.c : v._.^.).^.^.^.^.^.^.^.^.^.^./.W.U./.^.^.^.^.^.^.^.^.^.^.^._.0.'.'.'.'.'.'.'.'.'.'.'.'.'.'.'.'.",
"'.'.'.'.'.'.'.'.'.'.'.'.'.A.)./.^.^.^.^.^.^.^.^./.n.i.^._.~.^.^.^.^.^.^.^.^.^.^.^.^.~./.).^.^.^.^.^.^.^.^.^.^.^.^._.i.'.'.'.'.'.'.'.'.'.'.'.'.'.'.'.'.",
"'.'.'.'.'.'.'.'.'.'.'.'.'.e._.^.^.^.^.^.^.^.^.^.^._._.).~.^.^.^.^.^.^.^.^.^.^.^.^.^.^.^.^.^.^.^.^.^.^.^.^.^.^.^.^./.).'.'.'.'.'.'.'.'.'.'.'.'.'.'.'.'.",
"'.'.'.'.'.'.'.'.'.'.'.'.'.6././.^.^.^.^.^.^.^.^.^.^.^.^.^.^.^.^.^.^.^.^.^.^.^.^.^.^.^.^.^.^.^.^.^.^.^.^.^.^.^.^.^.~.).~.'.'.'.'.'.'.'.'.'.'.'.'.'.'.'.",
"'.'.'.'.'.'.'.'.'.'.'.'.'.5.b._.^.^.^.^.^.^.^.^.^.^.^.^.^.^.^.^.^.^.^.^.^.^.^.^.^.^.^.^.^.^.^.^.^.^.^.^.^.^.^.^././.^._.Z.'.'.'.'.'.'.'.'.'.'.'.'.'.'.",
"'.'.'.'.'.'.'.'.'.'.'.'.'.'.i._.~.^.^.^.^.^.^.^.^.^.^.^.^.^.^.^.^.^.^.^.^.^.^.^.^.^.^.^.^.^.^.^.^.^.^.^.^.^.^._._._._.).).'.'.'.'.'.'.'.'.'.'.'.'.'.'.",
"'.'.'.'.'.'.'.'.'.'.'.'.'.'.K Q.).~.^.^.^.^.^.^.^.^.^.^.^.^.^.^.^.^.^.^.^.^.^.^.^.^.^.^.!./.^.^.^.^.^.~.^._._.S.P P v.Y._.P.'.'.'.'.'.'.'.'.'.'.'.'.'.",
"'.'.'.'.'.'.'.'.'.'.'.'.'.'.'.z._.~.^.^.^.^.^.^.^.^.^.^.^.^.^.^.^.^.^.^.^.^.^.^.^.^.^.^./.~.~./.^.^.)._._.K.I '.'.'.'.f 0.y.'.'.'.'.'.'.'.'.'.'.'.'.'.",
"'.'.'.'.'.'.'.'.'.'.'.'.'.'.'.2.).).^.^.^.^.^.^.^.^.^.^.^.^.^.^.^.^.^.^.^.^.^.^.^.^.^.^.~./.~.~._._.Q.N.8.'.'.'.'.'.'.'.'.'.'.'.'.'.'.'.'.'.'.'.'.'.'.",
"'.'.'.'.'.'.'.'.'.'.'.'.'.'.'.'.g._.^.^.^.^.^.^.!./.~./.^.^.^.^.^.^.^.^.^.^.^.^./.^.^.^.^.)._._.N.I b '.'.'.'.'.'.'.'.'.'.'.'.'.'.'.'.'.'.'.'.'.'.'.'.",
"'.'.'.'.'.'.'.'.'.'.'.'.'.'.'.'.J /./.^.^.^.^.^.^.~./.~.^.^.^.^.^.^.^.^.^.^.^.^./.)._._._.U.t.D '.'.'.'.'.'.'.'.'.'.'.'.'.'.'.'.'.'.'.'.'.'.'.'.'.'.'.",
"'.'.'.'.'.'.'.'.'.'.'.'.'.'.'.'.p._.^.^.^.~./._._.).)._.).)./.^.^.^.^.^.)._._._._.I.l.8.8.M '.'.'.'.'.'.'.'.'.'.'.'.'.'.'.'.'.'.'.'.'.'.'.'.'.'.'.'.'.",
"'.'.'.'.'.'.'.'.'.'.'.'.'.'.'.'.F.).^./._._./.s.n.J.D.A.P.Q.)._._._._._.Y.n.w.H v a '.'.'.'.'.'.'.'.'.'.'.'.'.'.'.'.'.'.'.'.'.'.'.'.'.'.'.'.'.'.'.'.'.",
"'.'.'.'.'.'.'.'.'.'.'.'.'.'.'.8._._._.).A.s.r.'.'.'.'.u u s V w.t.t.w.4.h : '.'.'.'.'.'.'.'.'.'.'.'.'.'.'.'.'.'.'.'.'.'.'.'.'.'.'.'.'.'.'.'.'.'.'.'.'.",
"'.'.'.'.'.'.'.'.'.'.'.'.'.'.'.L v.j.8.N '.'.'.'.'.'.'.'.'.'.'.'.'.'.'.'.'.'.'.'.'.'.'.'.'.'.'.'.'.'.'.'.'.'.'.'.'.'.'.'.'.'.'.'.'.'.'.'.'.'.'.'.'.'.'.",
"'.'.'.'.'.'.'.'.'.'.'.'.'.'.'.'.2 '.'.'.'.'.'.'.'.'.'.'.'.'.'.'.'.'.'.'.'.'.'.'.'.'.'.'.'.'.'.'.'.'.'.'.'.'.'.'.'.'.'.'.'.'.'.'.'.'.'.'.'.'.'.'.'.'.'.",
"'.'.'.'.'.'.'.'.'.'.'.'.'.'.'.'.'.'.'.'.'.'.'.'.'.'.'.'.'.'.'.'.'.'.'.'.'.'.'.'.'.'.'.'.'.'.'.'.'.'.'.'.'.'.'.'.'.'.'.'.'.'.'.'.'.'.'.'.'.'.'.'.'.'.'.",
"'.'.'.'.'.'.'.'.'.'.'.'.'.'.'.'.'.'.'.'.'.'.'.'.'.'.'.'.'.'.'.'.'.'.'.'.'.'.'.'.'.'.'.'.'.'.'.'.'.'.'.'.'.'.'.'.'.'.'.'.'.'.'.'.'.'.'.'.'.'.'.'.'.'.'.",
"'.'.'.'.'.'.'.'.'.'.'.'.'.'.'.'.'.'.'.'.'.'.'.'.'.'.'.'.'.'.'.'.'.'.'.'.'.'.'.'.'.'.'.'.'.'.'.'.'.'.'.'.'.'.'.'.'.'.'.'.'.'.'.'.'.'.'.'.'.'.'.'.'.'.'.",
"'.'.'.'.'.'.'.'.'.'.'.'.'.'.'.'.'.'.'.'.'.'.'.'.'.'.'.'.'.'.'.'.'.'.'.'.'.'.'.'.'.'.'.'.'.'.'.'.'.'.'.'.'.'.'.'.'.'.'.'.'.'.'.'.'.'.'.'.'.'.'.'.'.'.'.",
"'.'.'.'.'.'.'.'.'.'.'.'.'.'.'.'.'.'.'.'.'.'.'.'.'.'.'.'.'.'.'.'.'.'.'.'.'.'.'.'.'.'.'.'.'.'.'.'.'.'.'.'.'.'.'.'.'.'.'.'.'.'.'.'.'.'.'.'.'.'.'.'.'.'.'.",
"'.'.'.'.'.'.'.'.'.'.'.'.'.'.'.'.'.'.'.'.'.'.'.'.'.'.'.'.'.'.'.'.'.'.'.'.'.'.'.'.'.'.'.'.'.'.'.'.'.'.'.'.'.'.'.'.'.'.'.'.'.'.'.'.'.'.'.'.'.'.'.'.'.'.'.",
"'.'.'.'.'.'.'.'.'.'.'.'.'.'.'.'.'.'.'.'.'.'.'.'.'.'.'.'.'.'.'.'.'.'.'.'.'.'.'.'.'.'.'.'.'.'.'.'.'.'.'.'.'.'.'.'.'.'.'.'.'.'.'.'.'.'.'.'.'.'.'.'.'.'.'.",
"'.'.'.'.'.'.'.'.'.'.'.'.'.'.'.'.'.'.'.'.'.'.'.'.'.'.'.'.'.'.'.'.'.'.'.'.'.'.'.'.'.'.'.'.'.'.'.'.'.'.'.'.'.'.'.'.'.'.'.'.'.'.'.'.'.'.'.'.'.'.'.'.'.'.'.",
"'.'.'.'.'.'.'.'.'.'.'.'.'.'.'.'.'.'.'.'.'.'.'.'.'.'.'.'.'.'.'.'.'.'.'.'.'.'.'.'.'.'.'.'.'.'.'.'.'.'.'.'.'.'.'.'.'.'.'.'.'.'.'.'.'.'.'.'.'.'.'.'.'.'.'.",
"'.'.'.'.'.'.'.'.'.'.'.'.'.'.'.'.'.'.'.'.'.'.'.'.'.'.'.'.'.'.'.'.'.'.'.'.'.'.'.'.'.'.'.'.'.'.'.'.'.'.'.'.'.'.'.'.'.'.'.'.'.'.'.'.'.'.'.'.'.'.'.'.'.'.'.",
"'.'.'.'.'.'.'.'.'.'.'.'.'.'.'.'.'.'.'.'.'.'.'.'.'.'.'.'.'.'.'.'.'.'.'.'.'.'.'.'.'.'.'.'.'.'.'.'.'.'.'.'.'.'.'.'.'.'.'.'.'.'.'.'.'.'.'.'.'.'.'.'.'.'.'.",
"'.'.'.'.'.'.'.'.'.'.'.'.'.'.'.'.'.'.'.'.'.'.'.'.'.'.'.'.'.'.'.'.'.'.'.'.'.'.'.'.'.'.'.'.'.'.'.'.'.'.'.'.'.'.'.'.'.'.'.'.'.'.'.'.'.'.'.'.'.'.'.'.'.'.'."
};
