/* XPM */
static char *result[] = {
/* columns rows colors chars-per-pixel */
"75 75 178 2 ",
"   c #000102",
".  c #00000B",
"X  c #1F110A",
"o  c #000719",
"O  c #0E1216",
"+  c #121619",
"@  c #2A1F0F",
"#  c #341C00",
"$  c #2E210F",
"%  c #2F2311",
"&  c #101D2F",
"*  c #0B182E",
"=  c #1F2529",
"-  c #192434",
";  c #2A2A2A",
":  c #292E32",
">  c #2D3236",
",  c #383A3B",
"<  c #4B3514",
"1  c #50302C",
"2  c #423B35",
"3  c #5D4000",
"4  c #5D4417",
"5  c #6A4817",
"6  c #774D10",
"7  c #4B4030",
"8  c #514A3F",
"9  c #614C2E",
"0  c #765937",
"q  c #75592B",
"w  c #2E3A41",
"e  c #363C41",
"r  c #3B3F42",
"t  c #374345",
"y  c #3D4245",
"u  c #4A4D4F",
"i  c #474745",
"p  c #514C4A",
"a  c #5A5347",
"s  c #4D5357",
"d  c #555453",
"f  c #55595B",
"g  c #5D5C5B",
"h  c #545758",
"j  c #6A5F4F",
"k  c #784D56",
"l  c #555D62",
"z  c #5B6165",
"x  c #5E6569",
"c  c #5A666B",
"v  c #646768",
"b  c #656869",
"n  c #676E71",
"m  c #6B7173",
"M  c #6D767B",
"N  c #69767C",
"B  c #727677",
"V  c #7A7C7C",
"C  c #777C7D",
"Z  c #A6152E",
"A  c #A71B34",
"S  c #A20B25",
"D  c #822234",
"F  c #AA223A",
"G  c #8F5F18",
"H  c #A77118",
"J  c #8D5F2A",
"K  c #8A6020",
"L  c #906626",
"P  c #896D36",
"I  c #B47C26",
"U  c #AE7628",
"Y  c #C37E14",
"T  c #B22840",
"R  c #AE3249",
"E  c #BA344D",
"W  c #B1354B",
"Q  c #AF3C51",
"!  c #B13B51",
"~  c #C63952",
"^  c #B24158",
"/  c #B95569",
"(  c #BB5D70",
")  c #847075",
"_  c #C24058",
"`  c #B5812D",
"'  c #B68233",
"]  c #C48827",
"[  c #DA9425",
"{  c #DF9E3C",
"}  c #D28B2A",
"|  c #D5A730",
" . c #E4A033",
".. c #EBA939",
"X. c #F4AE35",
"o. c #E2B539",
"O. c #FFBB3D",
"+. c #C7A345",
"@. c #FFBE4E",
"#. c #FFCB49",
"$. c #FFD848",
"%. c #FFD253",
"&. c #FFDA55",
"*. c #FFE454",
"=. c #FFE659",
"-. c #FFF05D",
";. c #FFFA64",
":. c #6E7B81",
">. c #747D81",
",. c #7A7F81",
"<. c #638180",
"1. c #7C8285",
"2. c #7D868A",
"3. c #739090",
"4. c #848586",
"5. c #848A8D",
"6. c #8B8E8E",
"7. c #848F94",
"8. c #8C9295",
"9. c #8D999D",
"0. c #859299",
"q. c #939A9D",
"w. c #999D9E",
"e. c #8F9BA0",
"r. c #949EA3",
"t. c #999FA4",
"y. c #9BA2A6",
"u. c #97A4AB",
"i. c #9CA5AA",
"p. c #9BA8AE",
"a. c #9FAEB5",
"s. c #A2AAAE",
"d. c #A0A5A7",
"f. c #A4ADB2",
"g. c #ACB2B5",
"h. c #ACB6BC",
"j. c #ADB8BD",
"k. c #B3BABD",
"l. c #B9BABA",
"z. c #CB8E9C",
"x. c #D0A0AD",
"c. c #ACBDC5",
"v. c #B2BDC2",
"b. c #BABFC0",
"n. c #B4C1C6",
"m. c #BBC3C5",
"M. c #BCC6CB",
"N. c #BBC7CD",
"B. c #BFCCD2",
"V. c #C5CBCE",
"C. c #DEC7CF",
"Z. c #C3CED3",
"A. c #CAD2D4",
"S. c #C6D4DB",
"D. c #CAD6DB",
"F. c #C9D5DA",
"G. c #D3D7D9",
"H. c #D2D9DB",
"J. c #E0CFD5",
"K. c #D2DFE5",
"L. c #D4E1E6",
"P. c #D6E4EA",
"I. c #DAE5EA",
"U. c #DCE9EE",
"Y. c #D9E3E6",
"T. c #DDEAF0",
"R. c #E4EBED",
"E. c #E4EEF2",
"W. c #E5F2F7",
"Q. c #ECF2F4",
"!. c #E6F6FD",
"~. c #E9F7FD",
"^. c #E5FCFF",
"/. c #ECFBFF",
"(. c #F3FEFF",
"). c #FEFFFF",
"_. c #F0F7F8",
"`. c None",
/* pixels */
"`.`.`.`.`.`.`.`.`.`.`.`.`.`.`.`.`.`.`.`.`.`.`.`.`.`.`.`.`.`.`.`.`.`.`.`.`.`.`.`.`.`.`.`.`.`.`.`.`.`.`.`.`.`.`.`.`.`.`.`.`.`.`.`.`.`.`.`.`.`.`.`.`.`.`.",
"`.`.`.`.`.`.`.`.`.`.`.`.`.`.`.`.`.`.`.`.`.`.`.`.`.`.`.`.`.`.`.`.`.`.`.`.`.`.`.`.`.`.`.`.`.`.`.`.`.`.`.`.`.`.`.`.`.`.`.`.`.`.`.`.`.`.`.`.`.`.`.`.`.`.`.",
"`.`.`.`.`.`.`.`.`.`.`.`.`.`.`.`.`.`.`.`.`.`.`.`.`.`.`.`.`.`.`.`.`.`.`.`.`.`.`.`.`.`.`.`.`.`.`.`.`.`.`.`.`.`.`.`.`.`.`.`.`.`.`.`.`.`.`.`.`.`.`.`.`.`.`.",
"`.`.`.`.`.`.`.`.`.`.`.`.`.`.`.`.`.`.`.`.`.`.`.`.`.`.`.`.`.`.`.`.`.`.`.`.`.`.`.`.`.`.`.`.`.`.`.`.`.`.`.`.`.`.`.`.`.`.`.`.`.`.`.`.`.`.`.`.`.`.`.`.`.`.`.",
"`.`.`.`.`.`.`.`.`.`.`.`.`.`.`.`.`.`.`.`.`.`.`.`.`.`.`.`.`.`.`.`.`.`.`.`.`.`.`.`.`.`.`.`.`.`.`.`.`.`.`.`.`.`.`.`.`.`.`.`.`.`.`.`.`.`.`.`.`.`.`.`.`.`.`.",
"`.`.`.`.`.`.`.`.`.`.`.`.`.`.`.`.`.`.`.`.`.`.`.`.`.`.`.`.`.`.`.`.`.`.`.`.`.`.`.`.`.`.`.`.`.`.`.`.`.`.`.`.`.`.`.`.`.`.`.`.`.`.`.`.`.`.`.`.`.`.`.`.`.`.`.",
"`.`.`.`.`.`.`.`.`.`.`.`.`.`.`.`.`.`.`.`.`.`.`.`.`.`.`.`.`.`.`.`.`.`.`.`.`.`.`.`.`.`.`.`.`.`.`.`.`.`.`.`.`.`.`.`.`.`.`.`.`.`.`.`.`.`.`.`.`.`.`.`.`.`.`.",
"`.`.`.`.`.`.`.`.`.`.`.`.`.`.`.`.`.`.`.`.`.`.`.`.`.`.`.`.`.`.`.`.`.! ! ! ! `.`.`.`.`.`.`.`.`.`.`.`.`.`.`.`.`.`.j 2 `.`.`.`.`.`.`.`.`.`.`.`.`.`.`.`.`.`.",
"`.`.`.`.`.`.`.`.`.`.`.`.`.`.`.`.`.`.`.`.`.`.`.`.`.`.`.`.`.`.`.`.! ! ! ! ! `.`.`.`.`.`.`.`.0 5 `.`.`.`.`.`.`.`.I | 4 ; u `.`.`.`.`.`.`.`.`.`.`.`.`.`.`.",
"`.`.`.`.`.`.`.`.`.`.`.`.`.`.`.`.`.`.`.`.`.`.`.`.`.`.`.`.`.`.`.`.! ! ! ! ! ! `.`.`.`.`.`.Y $.{ `.`.`.`.`.`.`.8 X.%.&.[ @ `.`.`.`.`.`.`.`.`.`.`.`.`.`.`.",
"`.`.`.`.`.`.`.`.`.`.`.`.`.`.`.`.`.`.`.`.`.`.`.`.`.`.`.`.`.`.`.`.! ! ! ! ! ! `.`.`.`.`.`.+.*.` `.`.`.`.`.`.`.q %.#.#.J `.`.`.`.`.`.`.`.`.`.`.`.`.`.`.`.",
"`.`.`.`.`.`.`.`.`.`.`.`.`.`.`.`.`.`.`.`.`.`.`.`.`.`.`.`.`.`.`.`.! ! ! ! ! ! `.`.`.`.`.`.0 &.] `.`.`.`.`.`.: } %.%.5 `.`.`.`.`.`.`.`.`.`.`.`.`.`.`.`.`.",
"`.`.`.`.`.`.`.`.`.`.`.`.`.`.`.`.`.`.`.`.`.`.`.`.`.`.`.`.`.`.`.`.! ! ! ! ! ! `.`.`.`.`.`.`... .`.`.`.`.`.`.< %.&.6 `.`.`.`.`.`.`.`.`.`.`.`.`.`.`.`.`.`.",
"`.`.`.`.`.`.`.`.`.`.`.`.`.`.`.`.`.`.`.`.`.`.`.`.`.`.`.`.`.`.`.`.! ! ! ! ! ! `.`.`.`.`.`.`.L X.i `.`.`.`.- H ;.G * `.`.`.`.`.`.`.`.`.`.`.`.`.`.`.`.`.`.",
"`.`.`.`.`.`.`.`.`.`.`.`.`.`.`.`.`.`.`.`.`.`.`.`.`.`.`.`.`.`.`.`.! ! ! ! ! ! `.`.`.`.`.`.`.1 ] a `.`.`.`.@ =.I o `.`.`.`.`.`.`.`.`.`.`.`.`.`.`.`.`.`.`.",
"`.`.`.`.`.`.`.`.`.`.`.`.`.`.`.`.`.`.`.`.`.`.`.`.`.`.`.`.`.`.`.`.! ! ! ! ! ! `.`.`.`.`.`.`.`.3 9 `.`.`.& ] o.. `.`.`.`.`.`.`.`.`.`.`.`.`.`.`.`.`.`.`.`.",
"`.`.`.`.`.`.`.`.`.`.`.`.`.`.`.`.`.`.`.`.`.`.`.`.`.! ! ! ! ! `.`.! ! ! ! ! ! `.`.! ! ! ! `.`.y i `.`.`.% } X `.`.`.`.`.`.`.`.`.`.`.`.`.`.`.`.`.`.`.`.`.",
"`.`.`.`.`.`.`.`.`.`.`.`.`.`.`.`.`.`.`.`.`.`.`.`.! ! ! ! ! ! `.`.! ! ! ! ! ! `.! ! ! ! _ D `.`.`.`.`.`.2   `.`.`.`.`.`.`.`.`.p P o.K `.`.`.`.`.`.`.`.`.",
"`.`.`.`.`.`.`.`.`.`.`.`.`.`.`.`.`.`.`.`.`.`.`.`.! ! ! ! ! ! ! ! ! ! ! ! ! ! ! ! ! ! ! ! Q `.`.`.`.`.`.`.`.`.`.`.`.`.`.p q ` O.*.-.[ , `.`.`.`.`.`.`.`.",
"`.`.`.`.`.`.`.`.`.`.`.`.`.`.`.`.`.`.`.`.`.`.`.`.! ! ! ! ! ! ! ! ! ! ! ! ! ! ! ! ! ! ! ! ! `.`.`.`.`.`.`.`.`.`.`.`.`.# H [  .` U ' ' 7 `.`.`.`.`.`.`.`.",
"`.`.`.`.`.`.`.`.`.`.`.`.`.`.`.`.`.`.`.`.`.`.`.`.`.! ! ! ! ! ! ! ! ! ! ! ! ! ! ! ! ! ! ! E `.`.`.`.`.`.,.G.S.u `.`.`.7 a i `.`.`.`.`.`.`.`.`.`.`.`.`.`.",
"`.`.`.`.`.`.`.`.`.`.`.`.`.`.`.`.`.`.`.`.`.`.`.`.`.`.! ! ! ! ! ! ! ! ! ! ! ! ! ! ! ! ~ ~ `.`.`.`.`.`.i.).).(.h `.`.`.`.`.`.`.`.`.`.`.`.`.`.`.`.`.`.`.`.",
"`.`.`.`.`.`.`.`.`.`.`.`.`.`.`.`.`.`.`.`.`.`.`.`.`.`.`.! ! ! ! ! ! ! ! ! ! ! ! ! T A `.`.`.`.`.`.`.f.).(./.(.u `.`.`.`.`.`.`.`.`.`.`.`.`.`.`.`.`.`.`.`.",
"`.`.`.`.`.`.`.`.`.`.`.`.`.`.`.`.`.`.`.`.`.`.`.`.`.`.`.`.E ! ! ! ! ! ! ! ! ! R A / ) <.3.9.t.j.m.n.~.(.~.(.W.u `.`.`.`.`.`.`.`.`.`.`.`.`.`.`.`.`.`.`.`.",
"`.`.`.`.`.`.`.`.`.`.`.`.`.`.`.`.`.`.`.`.`.`.`.`.`.`.`.`.`.F W ^ ! ! ! ! ! F F z.^.(.).).).).).).)./.!.~.(.I.f `.`.`.`.`.`.`.`.`.`.`.`.`.`.`.`.`.`.`.`.",
"`.`.`.`.`.`.`.`.`.`.`.`.`.`.`.`.`.`.`.`.`.`.`.`.`.`.`.`.`.k E F ! ! ! ! Z ^ C.).(.~.~.~.~.~.~.~.~.~.~.~.).n.`.`.`.`.`.`.`.`.`.`.`.`.`.`.`.`.`.`.`.`.`.",
"`.`.`.`.`.`.`.`.`.`.`.`.`.`.`.`.`.`.`.`.`.`.`.`.`.`.m w.Z.^.C.! Z A F S ( ~.(.~.~.~.~.~.~.~.~.~.~.~.~.~.(.R.w.`.`.`.`.`.`.`.`.`.`.`.`.`.`.`.`.`.`.`.`.",
"`.`.`.`.`.`.`.`.`.`.`.`.`.`.`.`.`.`.`.`.`.`.`.v w.H.).).)./.(.~.x.( / z./.(.~.~.~.~.~.~.~.~.~.~.~.~.~.!.!.).~.V `.`.`.`.`.`.`.`.`.`.`.`.`.`.`.`.`.`.`.",
"`.`.`.`.`.`.`.`.`.`.`.`.`.`.`.`.`.`.`.`.`.C g.(.).).~.~.~.~.~./.(././.(./.~.~.~.~.~.~.~.~.~.~.~.~.~.~.~.~.~.).q.`.`.`.`.`.`.`.`.`.`.`.`.`.`.`.`.`.`.`.",
"`.`.`.`.`.`.`.`.`.`.`.`.`.`.`.`.`.`.`.5.A.).)./.!.!.~.~.~.~.~.~.~././.~.~.~.~.~.~.~.~.~.~.~.~.~.~.~.~.~.~.~.).S.`.`.`.`.`.`.`.`.`.`.`.`.`.`.`.`.`.`.`.",
"`.`.`.`.`.`.`.`.`.`.`.`.`.`.`.`.`.w.R.).).~.~.~.~.~.~.~.~.~.~.~.~.~.~.~.~.~.~.~.~.~.~.~.~.~.~.~.~.~.~.~.~.~./.(.1.`.`.`.`.`.`.`.`.`.`.`.`.`.`.`.`.`.`.",
"`.`.`.`.`.`.`.`.`.`.`.d p `.`.4.G.).(.~.~.~.~.~.~.~.~.~.~.~.~.~.~.~.~.~.~.~.~.~.~.~.~.~.~.~.~.~.~.~.~.~.~.~.~.).f.`.`.`.`.`.`.`.`.`.`.`.`.`.`.`.`.`.`.",
"`.`.`.`.`.`.`.`.1.l.D.L.Y.v.f.).).~.~.~.~.~.~.~.~.~.~.~.~.~.~.~.~.~.~.~.~.~.~.~.~.~.~.~.~.~.~.~.~.~.~.~.~.~.~.).S.`.`.`.`.`.`.`.`.`.`.`.`.`.`.`.`.`.`.",
"`.`.`.`.`.`.`.`.y.).).(.(.).).~.~.~.~.~.~.~.~.~.~.~.~.~.~.~.~.~.~.~.~.~.~.~.~.~.~.~.~.~.~.~.~.~.~.~.~.~.~.~.~././.B `.`.`.`.`.`.`.`.`.`.`.`.`.`.`.`.`.",
"`.`.`.`.`.`.`.`.`.8.(.).~.~.~.~.~.~.~.~.~.~.~.~.~.~.~.~.~.~./.~.~.~.~.~.~.~.~.~.~.~.~./.).).).!.~.~.~.~.~.~.~.!.).8.`.`.`.`.`.`.`.`.`.`.`.`.`.`.`.`.`.",
"`.`.`.`.`.`.`.`.`.`.`.G._./.~.~.~.~.~.~.~.~.~.~.~.~.~.~.~.~./.!.~.~.~.~.~.~.~.~.~.~./.Q.v.c M.).!.~.~.~.~.~.~.~.).f.`.`.`.`.`.`.`.`.`.`.`.`.`.`.`.`.`.",
"`.`.`.`.`.`.`.`.`.`.`.`.P.(.~.~.~.~.~.~.~.~.~.~.~.~.~.~./.Y.v.(.~.~.~.~.~.~.(.).).(.).f.q.j.; A.).!.~.~.~.~.~.~.).B.`.`.`.`.`.`.`.`.`.`.`.`.`.`.`.`.`.",
"`.`.`.`.`.`.`.`.`.`.`.g W.(.~.~.~.~.~.~.~.~.~.~.~.(.)./.(.N.8.).~.~././.~.(.~.x M E.).9.7.).O u.).~.~.~.~.~.~.~.(.Y.d `.`.`.`.`.`.`.`.`.`.`.`.`.`.`.`.",
"`.`.`.`.`.`.`.`.`.`.`.g /.(.~.~.~.~.~.~.~.~.~.~.).K.r.U.).j.2.).~.(.(.W.).).n s x v.).9.i.p.. _.(.~.~.~.~.~.~.~.(.~.g `.`.`.`.`.`.`.`.`.`.`.`.`.`.`.`.",
"`.`.`.`.`.`.`.`.`.`.`.g (./.~.~.~.~.~.~.~.~.W.).h.> V U.).f.2.).(.(.n , Z.).> z m.(.).h.> i b.).!.~.~.~.~.~.~.~./.(.n `.`.`.`.`.`.`.`.`.`.`.`.`.`.`.`.",
"`.`.`.`.`.`.`.`.`.`.`.v W.(.~.~.~.~.~.~.~.~.(.A.e A.)./.).p.,.).).2.e l f.).l f ).(.).p., (.).!.~.~.~.~.~.~.~.~.~.).5.`.`.`.`.`.`.`.`.`.`.`.`.`.`.`.`.",
"`.`.`.`.`.`.`.`.`.`.`.d U.(.~.~.~.~.~.~.~.~.).>.,.).~.!.).f.M ).).s O j.).(.Q.5.5.s.).t.C ).!.~.~.~.~.~.~.~.~.~.~.).8.`.`.`.`.`.`.`.`.`.`.`.`.`.`.`.`.",
"`.`.`.`.`.`.`.`.`.`.`.d L.(.~.~.~.~.~.~.~.~.(.A.y g.).).).v.m ).).2.  H.).~.(.).W.I.).r.n ).~.~.~.~.~.~.~.~.~.~.~.).6.`.`.`.`.`.`.`.`.`.`.`.`.`.`.`.`.",
"`.`.`.`.`.`.`.`.`.`.`.`.S.).~.~.~.~.~.~.~.~.~.).k.f b n E.(.z !.(.).V h s.(./.~.~./.).u.x ).~.~.~.~.~.~.~.~.~.~.~.).8.`.`.`.`.`.`.`.`.`.`.`.`.`.`.`.`.",
"`.`.`.`.`.`.`.`.`.`.`.`.M.).~.~.~.~.~.~.~.~.~.!.).).V.m , E.>.p.)./.)./.P.~.~.~.~.~.).f.M ).~.~.~.~.~.~.~.~.~.~.~.).8.`.`.`.`.`.`.`.`.`.`.`.`.`.`.`.`.",
"`.`.`.`.`.`.`.`.`.`.`.`.p.).~.~.~.~.~.~.~.~.~.~.~.~.).).y N R.>.Q./.~././.~.~.~.~.~.(.N.8.).~.~.~.~.~.~.~.~.~.~.~.).8.`.`.`.`.`.`.`.`.`.`.`.`.`.`.`.`.",
"`.`.`.`.`.`.`.`.`.`.`.`.7.).~.~.~.~.~.~.~.~.~.!.!.).).f.+ Z.).Z.F.(.~.~.~.~.~.~.~.~.(.S.i.).~.~.~.~.~.~.~.~.~.~.~.).6.`.`.`.`.`.`.`.`.`.`.`.`.`.`.`.`.",
"`.`.`.`.`.`.`.`.`.`.`.`.N (./.~.~.~.~.~.~.~.~./._.y.d : k.).~.(./.~.~.~.~.~.~.~.~.~./.E.I./.~.~.~.~.~.~.~.~.~.~.~.).6.`.`.`.`.`.`.`.`.`.`.`.`.`.`.`.`.",
"`.`.`.`.`.`.`.`.`.`.`.`.`.Z.).!.~.~.~.~.~.~.~.~./.v.r.~.).!.~.~.~.~.~.~.~.~.~.~.~.~.~./.(.~.~.~.~.~.~.~.~.~.~.~.~.).y.`.`.`.`.`.`.`.`.`.`.`.`.`.`.`.`.",
"`.`.`.`.`.`.`.`.`.`.`.`.`.9.).!.~.~.~.~.~.~.~.~.~.).).(.!.~.~.~.~.~.~.~.~.~.~.~.~.~.~.~.~.~.~.~.~.~.~.~.~.~.~.~.~./.(.`.`.`.`.`.`.`.`.`.`.`.`.`.`.`.`.",
"`.`.`.`.`.`.`.`.`.`.`.`.`.2././.~.~.~.~.~.~.~.~.~.~.~.~.~.~.~.~.~.~.~.~.~.~.~.~.~.~.~.~.~.~.~.~.~.~.~.~.~.~.~.~.~.~.).W.`.`.`.`.`.`.`.`.`.`.`.`.`.`.`.",
"`.`.`.`.`.`.`.`.`.`.`.`.`.1.c.).~.~.~.~.~.~.~.~.~.~.~.~.~.~.~.~.~.~.~.~.~.~.~.~.~.~.~.~.~.~.~.~.~.~.~.~.~.~.~.~./.~.!.).M.`.`.`.`.`.`.`.`.`.`.`.`.`.`.",
"`.`.`.`.`.`.`.`.`.`.`.`.`.`.r.).!.~.~.~.~.~.~.~.~.~.~.~.~.~.~.~.~.~.~.~.~.~.~.~.~.~.~.~.~.~.~.~.~.~.~.~.~.~.~.).).).).(.(.`.`.`.`.`.`.`.`.`.`.`.`.`.`.",
"`.`.`.`.`.`.`.`.`.`.`.`.`.`.M W.(.~.~.~.~.~.~.~.~.~.~.~.~.~.~.~.~.~.~.~.~.~.~.~.~.~.~.~.~.~.~.~.~.~.~.~.~.).).A.V C l.U.).L.`.`.`.`.`.`.`.`.`.`.`.`.`.",
"`.`.`.`.`.`.`.`.`.`.`.`.`.`.`.c.).~.~.~.~.~.~.~.~.~.~.~.~.~.~.~.~.~.~.~.~.~.~.~.~.~.~.~.~.~.~.~.~.~.(.).).G.V `.`.`.`.p 6.w.`.`.`.`.`.`.`.`.`.`.`.`.`.",
"`.`.`.`.`.`.`.`.`.`.`.`.`.`.`.M (./.~.~.~.~.~.~.~.~.~.~.~.~.~.~.~.~.~.~.~.~.~.~.~.~.~.~.~.~.~.~.).).W.m.4.`.`.`.`.`.`.`.`.`.`.`.`.`.`.`.`.`.`.`.`.`.`.",
"`.`.`.`.`.`.`.`.`.`.`.`.`.`.`.`.a.).~.~.~.~.~.~.~.~.~.~.~.~.~.~.~.~.~.~.~.~.~.~.~.~.~.~.~.(.).).m.V g `.`.`.`.`.`.`.`.`.`.`.`.`.`.`.`.`.`.`.`.`.`.`.`.",
"`.`.`.`.`.`.`.`.`.`.`.`.`.`.`.`.M Q./.~.~.~.~.~.~.~.~.!.~.~.~.~.~.~.~.~.~.~.~.~./.(.).).).I.w.b `.`.`.`.`.`.`.`.`.`.`.`.`.`.`.`.`.`.`.`.`.`.`.`.`.`.`.",
"`.`.`.`.`.`.`.`.`.`.`.`.`.`.`.`.u.).~.~.~.!./.).).(.).).).(./.~.~.~.~.~.(.).).).).Y.g.4.4.l `.`.`.`.`.`.`.`.`.`.`.`.`.`.`.`.`.`.`.`.`.`.`.`.`.`.`.`.`.",
"`.`.`.`.`.`.`.`.`.`.`.`.`.`.`.`.S.).~./.).)./.i.m.D.S.B.L.E.(.).).).).).U.v.8.m f y `.`.`.`.`.`.`.`.`.`.`.`.`.`.`.`.`.`.`.`.`.`.`.`.`.`.`.`.`.`.`.`.`.",
"`.`.`.`.`.`.`.`.`.`.`.`.`.`.`.4.).).).(.Z.i.0.`.`.`.`.w w t c 8.q.q.8.1.i ; `.`.`.`.`.`.`.`.`.`.`.`.`.`.`.`.`.`.`.`.`.`.`.`.`.`.`.`.`.`.`.`.`.`.`.`.`.",
"`.`.`.`.`.`.`.`.`.`.`.`.`.`.`.B l.d.4.z `.`.`.`.`.`.`.`.`.`.`.`.`.`.`.`.`.`.`.`.`.`.`.`.`.`.`.`.`.`.`.`.`.`.`.`.`.`.`.`.`.`.`.`.`.`.`.`.`.`.`.`.`.`.`.",
"`.`.`.`.`.`.`.`.`.`.`.`.`.`.`.`., `.`.`.`.`.`.`.`.`.`.`.`.`.`.`.`.`.`.`.`.`.`.`.`.`.`.`.`.`.`.`.`.`.`.`.`.`.`.`.`.`.`.`.`.`.`.`.`.`.`.`.`.`.`.`.`.`.`.",
"`.`.`.`.`.`.`.`.`.`.`.`.`.`.`.`.`.`.`.`.`.`.`.`.`.`.`.`.`.`.`.`.`.`.`.`.`.`.`.`.`.`.`.`.`.`.`.`.`.`.`.`.`.`.`.`.`.`.`.`.`.`.`.`.`.`.`.`.`.`.`.`.`.`.`.",
"`.`.`.`.`.`.`.`.`.`.`.`.`.`.`.`.`.`.`.`.`.`.`.`.`.`.`.`.`.`.`.`.`.`.`.`.`.`.`.`.`.`.`.`.`.`.`.`.`.`.`.`.`.`.`.`.`.`.`.`.`.`.`.`.`.`.`.`.`.`.`.`.`.`.`.",
"`.`.`.`.`.`.`.`.`.`.`.`.`.`.`.`.`.`.`.`.`.`.`.`.`.`.`.`.`.`.`.`.`.`.`.`.`.`.`.`.`.`.`.`.`.`.`.`.`.`.`.`.`.`.`.`.`.`.`.`.`.`.`.`.`.`.`.`.`.`.`.`.`.`.`.",
"`.`.`.`.`.`.`.`.`.`.`.`.`.`.`.`.`.`.`.`.`.`.`.`.`.`.`.`.`.`.`.`.`.`.`.`.`.`.`.`.`.`.`.`.`.`.`.`.`.`.`.`.`.`.`.`.`.`.`.`.`.`.`.`.`.`.`.`.`.`.`.`.`.`.`.",
"`.`.`.`.`.`.`.`.`.`.`.`.`.`.`.`.`.`.`.`.`.`.`.`.`.`.`.`.`.`.`.`.`.`.`.`.`.`.`.`.`.`.`.`.`.`.`.`.`.`.`.`.`.`.`.`.`.`.`.`.`.`.`.`.`.`.`.`.`.`.`.`.`.`.`.",
"`.`.`.`.`.`.`.`.`.`.`.`.`.`.`.`.`.`.`.`.`.`.`.`.`.`.`.`.`.`.`.`.`.`.`.`.`.`.`.`.`.`.`.`.`.`.`.`.`.`.`.`.`.`.`.`.`.`.`.`.`.`.`.`.`.`.`.`.`.`.`.`.`.`.`.",
"`.`.`.`.`.`.`.`.`.`.`.`.`.`.`.`.`.`.`.`.`.`.`.`.`.`.`.`.`.`.`.`.`.`.`.`.`.`.`.`.`.`.`.`.`.`.`.`.`.`.`.`.`.`.`.`.`.`.`.`.`.`.`.`.`.`.`.`.`.`.`.`.`.`.`.",
"`.`.`.`.`.`.`.`.`.`.`.`.`.`.`.`.`.`.`.`.`.`.`.`.`.`.`.`.`.`.`.`.`.`.`.`.`.`.`.`.`.`.`.`.`.`.`.`.`.`.`.`.`.`.`.`.`.`.`.`.`.`.`.`.`.`.`.`.`.`.`.`.`.`.`.",
"`.`.`.`.`.`.`.`.`.`.`.`.`.`.`.`.`.`.`.`.`.`.`.`.`.`.`.`.`.`.`.`.`.`.`.`.`.`.`.`.`.`.`.`.`.`.`.`.`.`.`.`.`.`.`.`.`.`.`.`.`.`.`.`.`.`.`.`.`.`.`.`.`.`.`.",
"`.`.`.`.`.`.`.`.`.`.`.`.`.`.`.`.`.`.`.`.`.`.`.`.`.`.`.`.`.`.`.`.`.`.`.`.`.`.`.`.`.`.`.`.`.`.`.`.`.`.`.`.`.`.`.`.`.`.`.`.`.`.`.`.`.`.`.`.`.`.`.`.`.`.`.",
"`.`.`.`.`.`.`.`.`.`.`.`.`.`.`.`.`.`.`.`.`.`.`.`.`.`.`.`.`.`.`.`.`.`.`.`.`.`.`.`.`.`.`.`.`.`.`.`.`.`.`.`.`.`.`.`.`.`.`.`.`.`.`.`.`.`.`.`.`.`.`.`.`.`.`.",
"`.`.`.`.`.`.`.`.`.`.`.`.`.`.`.`.`.`.`.`.`.`.`.`.`.`.`.`.`.`.`.`.`.`.`.`.`.`.`.`.`.`.`.`.`.`.`.`.`.`.`.`.`.`.`.`.`.`.`.`.`.`.`.`.`.`.`.`.`.`.`.`.`.`.`."
};
