/* XPM */
static char *result[] = {
/* columns rows colors chars-per-pixel */
"75 75 185 2 ",
"   c #000102",
".  c #00000B",
"X  c #1F110A",
"o  c #0E1216",
"O  c #121619",
"+  c #000719",
"@  c #2A1F0F",
"#  c #341C00",
"$  c #2E210F",
"%  c #2F2311",
"&  c #101D2F",
"*  c #0B182E",
"=  c #1C252F",
"-  c #2A2A2A",
";  c #292E32",
":  c #2D3236",
">  c #373A3B",
",  c #4B3514",
"<  c #50302C",
"1  c #423B35",
"2  c #5E4200",
"3  c #5D4417",
"4  c #6A4817",
"5  c #774D10",
"6  c #4B4030",
"7  c #514A3F",
"8  c #614C2E",
"9  c #765937",
"0  c #75592B",
"q  c #2E3A41",
"w  c #383D41",
"e  c #3D4245",
"r  c #364045",
"t  c #4C4945",
"y  c #4A4D4F",
"u  c #444546",
"i  c #514C4A",
"p  c #5A5347",
"a  c #4D5357",
"s  c #555453",
"d  c #55595B",
"f  c #5D5C5B",
"g  c #545758",
"h  c #6A5F4F",
"j  c #555D62",
"k  c #5B6165",
"l  c #5E6569",
"z  c #5A666B",
"x  c #646769",
"c  c #656869",
"v  c #676D70",
"b  c #6B7173",
"n  c #6D767B",
"m  c #6A787C",
"M  c #727677",
"N  c #7A7C7C",
"B  c #777C7D",
"V  c #A20924",
"C  c #A40E28",
"Z  c #A5132C",
"A  c #A71831",
"S  c #A81E37",
"D  c #AA223A",
"F  c #B2213B",
"G  c #8F5F18",
"H  c #A77118",
"J  c #8D5F2A",
"K  c #8A6020",
"L  c #8D6A2E",
"P  c #B47C26",
"I  c #AE7628",
"U  c #C37E14",
"Y  c #AC2B42",
"T  c #AF334A",
"R  c #AE3047",
"E  c #B0374D",
"W  c #B0394F",
"Q  c #B8354C",
"!  c #B13B51",
"~  c #A83C51",
"^  c #B5485D",
"/  c #B64D61",
"(  c #B9586B",
")  c #BA5C70",
"_  c #817176",
"`  c #BC6173",
"'  c #B5812D",
"]  c #B68233",
"[  c #C48827",
"{  c #DA9425",
"}  c #DF9E3C",
"|  c #D28B2A",
" . c #D5A730",
".. c #E8A436",
"X. c #E2B539",
"o. c #FFBB3D",
"O. c #F4AE35",
"+. c #C7A345",
"@. c #FFBE4E",
"#. c #FFCB49",
"$. c #FFD848",
"%. c #FFD253",
"&. c #FFDA55",
"*. c #FFE556",
"=. c #FFF05D",
"-. c #FFFA64",
";. c #6E7B81",
":. c #747D81",
">. c #7A7F81",
",. c #BF6D80",
"<. c #BC7485",
"1. c #C57687",
"2. c #7C8285",
"3. c #7D868A",
"4. c #848586",
"5. c #848A8D",
"6. c #8B8E8E",
"7. c #858E94",
"8. c #8C9295",
"9. c #8D999E",
"0. c #8A959A",
"q. c #929A9D",
"w. c #989C9D",
"e. c #8F9BA0",
"r. c #949EA3",
"t. c #9BA2A6",
"y. c #9CA5AA",
"u. c #9BAAAE",
"i. c #97A3A9",
"p. c #9FAEB5",
"a. c #A2AAAE",
"s. c #A0A5A7",
"d. c #A4ADB2",
"f. c #ACB2B5",
"g. c #ACB6BC",
"h. c #ADB8BD",
"j. c #B3BABD",
"k. c #B9BABA",
"l. c #C88695",
"z. c #CB929F",
"x. c #CD9BA9",
"c. c #D195A4",
"v. c #D2A9B5",
"b. c #D5B2BD",
"n. c #B2BDC2",
"m. c #BABFC0",
"M. c #ACBDC5",
"N. c #D8BBC7",
"B. c #B4C1C6",
"V. c #BBC3C5",
"C. c #BCC6CB",
"Z. c #BBC7CD",
"A. c #BFCCD2",
"S. c #BDD9DB",
"D. c #C5CBCE",
"F. c #C3CED3",
"G. c #DDCDD5",
"H. c #CAD2D4",
"J. c #C6D4DB",
"K. c #CAD6DB",
"L. c #C9D5DA",
"P. c #D3D7D9",
"I. c #D3D9DA",
"U. c #E0CFD7",
"Y. c #D2DFE5",
"T. c #E0DCE5",
"R. c #D4E1E6",
"E. c #D5E4EA",
"W. c #DAE5EA",
"Q. c #DCE9EE",
"!. c #D9E3E6",
"~. c #DDEAF0",
"^. c #E5E6E9",
"/. c #E4EEF2",
"(. c #E8EFF5",
"). c #E5F2F7",
"_. c #ECF2F4",
"`. c #E6F6FD",
"'. c #E9F7FD",
"]. c #ECFBFF",
"[. c #E6F8FF",
"{. c #F2F7F9",
"}. c #F3FEFF",
"|. c #FEFFFF",
" X c None",
/* pixels */
" X X X X X X X X X X X X X X X X X X X X X X X X X X X X X X X X X X X X X X X X X X X X X X X X X X X X X X X X X X X X X X X X X X X X X X X X X X X",
" X X X X X X X X X X X X X X X X X X X X X X X X X X X X X X X X X X X X X X X X X X X X X X X X X X X X X X X X X X X X X X X X X X X X X X X X X X X",
" X X X X X X X X X X X X X X X X X X X X X X X X X X X X X X X X X X X X X X X X X X X X X X X X X X X X X X X X X X X X X X X X X X X X X X X X X X X",
" X X X X X X X X X X X X X X X X X X X X X X X X X X X X X X X X X X X X X X X X X X X X X X X X X X X X X X X X X X X X X X X X X X X X X X X X X X X",
" X X X X X X X X X X X X X X X X X X X X X X X X X X X X X X X X X X X X X X X X X X X X X X X X X X X X X X X X X X X X X X X X X X X X X X X X X X X",
" X X X X X X X X X X X X X X X X X X X X X X X X X X X X X X X X X X X X X X X X X X X X X X X X X X X X X X X X X X X X X X X X X X X X X X X X X X X",
" X X X X X X X X X X X X X X X X X X X X X X X X X X X X X X X X X X X X X X X X X X X X X X X X X X X X X X X X X X X X X X X X X X X X X X X X X X X",
" X X X X X X X X X X X X X X X X X X X X X X X X X X X X X X X X X X X X X X X X X X X X X X X X X X X X X X Xh 1  X X X X X X X X X X X X X X X X X X",
" X X X X X X X X X X X X X X X X X X X X X X X X X X X X X X X X X X X X X X X X X X X X X0 4  X X X X X X X XP  .3 - y  X X X X X X X X X X X X X X X",
" X X X X X X X X X X X X X X X X X X X X X X X X X X X X X X X X X X X X X X X X X X X XU $.}  X X X X X X Xt O.%.&.{ $  X X X X X X X X X X X X X X X",
" X X X X X X X X X X X X X X X X X X X X X X X X X X X X X X X X X X X X X X X X X X X X+.&.]  X X X X X X X0 %.#.#.J  X X X X X X X X X X X X X X X X",
" X X X X X X X X X X X X X X X X X X X X X X X X X X X X X X X X X X X X X X X X X X X X9 &.[  X X X X X X: | %.%.4  X X X X X X X X X X X X X X X X X",
" X X X X X X X X X X X X X X X X X X X X X X X X X X X X X X X X X X X X X X X X X X X X XX... X X X X X X, %.&.5  X X X X X X X X X X X X X X X X X X",
" X X X X X X X X X X X X X X X X X X X X X X X X X X X X X X X X X X X X X X X X X X X X XJ O.6  X X X X= H -.G *  X X X X X X X X X X X X X X X X X X",
" X X X X X X X X X X X X X X X X X X X X X X X X X X X X X X X X X X X X X X X X X X X X X< [ h  X X X X@ *.P +  X X X X X X X X X X X X X X X X X X X",
" X X X X X X X X X X X X X X X X X X X X X X X X X X X X X X X X X X X X X X X X X X X X X X2 8  X X X& [ X..  X X X X X X X X X X X X X X X X X X X X",
" X X X X X X X X X X X X X X X X X X X X X X X X X X X X X X X X X X X X X X X X X X X X X X> t  X X X% | X  X X X X X X X X X X X X X X X X X X X X X",
" X X X X X X X X X X X X X X X X X X X X X X X X X X X X X X X X X X! ! ! !  X X X X X X X X X X X X X1    X X X X X X X X Xt L X.K  X X X X X X X X X",
" X X X X X X X X X X X X X X X X X X X X X X X X X X X X X X X X X! ! W ! ! !  X X X X X X X X X X X X X X X X X X X Xt 0 ' @.*.=.{ >  X X X X X X X X",
" X X X X X X X X X X X X X X X X X X X X X X X X X X X X X X X X X! ! ! ! ! !  X X X X X X X X X X X X X X X X X X X# H { ..[ I ] ] 6  X X X X X X X X",
" X X X X X X X X X X X X X X X X X X X X X X X X X X X X X X X X X! ! ! ! ! !  X X X X X X X X X X X X>.P.L.y  X X X6 p e  X X X X X X X X X X X X X X",
" X X X X X X X X X X X X X X X X X X X X X X X X X X X X X X X X X! ! ! ! ! !  X X X X X X X X X X Xy.|.|.}.g  X X X X X X X X X X X X X X X X X X X X",
" X X X X X X X X X X X X X X X X X X X X X X X X X X X X X X X X X! ! ! ! ! !  X X X X X X X X X Xd.|.}.].}.y  X X X X X X X X X X X X X X X X X X X X",
" X X X X X X X X X X X X X X X X X X X X X X X X X X X X X X X X X! ! W ! ! W  X X_ m 5.0.t.g.V.B.'.}.'.}.).y  X X X X X X X X X X X X X X X X X X X X",
" X X X X X X X X X X X X X X X X X X X X X X X X X X X X X X X X X! ! ! ! W T  X[.}.|.|.|.|.|.|.|.}.[.'.}.W.d  X X X X X X X X X X X X X X X X X X X X",
" X X X X X X X X X X X X X X X X X X X X X X X X X X XQ ! ~  X X X! ! ! ! D / }.|.].N.N.].}.`.'.`.`.`.'.|.B. X X X X X X X X X X X X X X X X X X X X X",
" X X X X X X X X X X X X X X X X X X X X X X X X X X! ! ! ! W  X XE ! ! ^ D ( }.U.^ A A / ^.].`.'.'.'.'.}.^.w. X X X X X X X X X X X X X X X X X X X X",
" X X X X X X X X X X X X X X X X X X X X X X Xx u.1.F ! ! ! Y ) x.! E ! W R ( l.Y D ! ! C ( ].].'.'.'.[.[.|.'.N  X X X X X X X X X X X X X X X X X X X",
" X X X X X X X X X X X X X X X X X X X X XB f.}.|.1.Z ! ! ! ! R ` ^ E ! W ! W D E ! ! ! T Y T.}.'.'.'.'.'.'.|.q. X X X X X X X X X X X X X X X X X X X",
" X X X X X X X X X X X X X X X X X X X5.H.|.|.].}.v.V W ! ! ! ! Y W ! ! ! W ! ! ! ! ! ! Y ! _.].'.'.'.'.'.'.|.J. X X X X X X X X X X X X X X X X X X X",
" X X X X X X X X X X X X X X X X Xw./.|.|.'.'.'.].].1.C ! ! ! ! ! ! ! W ! ! ! ! ! ! ^ Y V b.}.'.'.'.'.'.'.'.].}.2. X X X X X X X X X X X X X X X X X X",
" X X X X X X X X X X Xs i  X X4.P.|.}.'.'.'.'.'.'.}.}.1.Z ! ! ! ! ! ! ! ! ! W ! ! ! Z Y v.].].'.'.'.'.'.'.'.'.|.d. X X X X X X X X X X X X X X X X X X",
" X X X X X X X X2.k.K.R.!.n.d.|.|.'.'.'.'.'.'.'.'.`.}.}.,.Z ! ! ! ! ! ! ! ! ! ! E C ( ^.}.].'.'.'.'.'.'.'.'.'.|.L. X X X X X X X X X X X X X X X X X X",
" X X X X X X X Xt.|.|.}.}.|.|.'.`.'.'.'.'.'.'.'.'.`.[.].}.) A ! ! ! W W W ! ! D S z.}.}.'.'.'.'.'.'.'.'.'.'.'.}.].M  X X X X X X X X X X X X X X X X X",
" X X X X X X X X X8.}.|.].'.'.'.'.'.'.'.'.'.'.'.'.'.'.'.}.]./ A ! ! ! W ! T A ^ U.}.].].|.|.|.[.'.'.'.'.'.'.'.`.|.0. X X X X X X X X X X X X X X X X X",
" X X X X X X X X X X XP.{.'.'.'.'.'.'.'.'.'.'.'.'.'.'.'.'.}.]./ V T ! ^ T Z l.}.}.'.]._.n.z C.|.[.'.'.'.'.'.'.'.|.d. X X X X X X X X X X X X X X X X X",
" X X X X X X X X X X X XE.}.'.'.'.'.'.'.'.'.'.'.'.'.'.'.].E.S.{.1.Y Z Z A x.|.|.|.}.|.d.9.k.= K.|.`.'.'.'.'.'.'.|.D. X X X X X X X X X X X X X X X X X",
" X X X X X X X X X X Xf ).}.'.'.'.'.'.'.'.'.'.'.`.|.|.].}.C.7.|.|.Y.c.c.G.|.].k n /.|.9.6.|.o y.|.`.'.'.'.'.'.'.}.W.s  X X X X X X X X X X X X X X X X",
" X X X X X X X X X X Xf }.].'.'.'.'.'.'.'.'.`.`.|.R.9.Q.|.g.5.|.`.|.|.}.|.|.v a l n.|.9.y.u.. {.}.`.'.'.'.'.'.'.].'.f  X X X X X X X X X X X X X X X X",
" X X X X X X X X X X Xf ].}.'.'.'.'.'.'.'.`.`.|.j.: N Q.|.d.3.|.}.{.c w F.|.: k V.}.|.g.: e k.|.[.`.'.'.'.'.'.'.].|.c  X X X X X X X X X X X X X X X X",
" X X X X X X X X X X Xx ).}.'.'.'.'.'.'.'.].|.D.w H.|.].|.y.:.|.|.3.w j d.|.j d |.}.|.u.> }.|.[.'.'.'.'.'.'.'.'.[.|.5. X X X X X X X X X X X X X X X X",
" X X X X X X X X X X Xs Q.}.'.'.'.'.'.'.'.'.|.;.2.|.[.[.|.d.n |.|.a o g.|.}._.5.5.a.|.r.:.|.'.'.'.'.'.'.'.'.'.'.'.|.8. X X X X X X X X X X X X X X X X",
" X X X X X X X X X X Xs Y.}.'.'.'.'.'.'.'.'.|.F.e f.|.|.|.n.b |.|.3.  I.|.'.}.|.).W.|.r.c |.'.'.'.'.'.'.'.'.'.'.'.|.6. X X X X X X X X X X X X X X X X",
" X X X X X X X X X X X XJ.|.'.'.'.'.'.'.'.'.[.|.j.g c v /.}.k ).}.|.>.g a.}.].'.'.].|.t.l |.'.'.'.'.'.'.'.'.'.'.'.|.8. X X X X X X X X X X X X X X X X",
" X X X X X X X X X X X XB.|.'.'.'.'.'.'.'.'.'.[.|.|.D.b > _.:.y.|.].|.].E.'.'.'.'.'.|.d.n |.'.'.'.'.'.'.'.'.'.'.'.|.8. X X X X X X X X X X X X X X X X",
" X X X X X X X X X X X Xu.|.'.'.'.'.'.'.'.'.`.`.'.'.|.|.r m ^.:._.].'.}.].'.'.'.'.'.}.C.8.|.'.'.'.'.'.'.'.'.'.'.'.|.8. X X X X X X X X X X X X X X X X",
" X X X X X X X X X X X X7.|.'.'.'.'.'.'.'.'.'.`.'.|.|.a.& D.|.F.L.}.'.'.'.'.'.'.'.'.}.J.y.|.'.'.'.'.'.'.'.'.'.'.'.|.6. X X X X X X X X X X X X X X X X",
" X X X X X X X X X X X Xm }.}.'.'.'.'.'.'.'.`.}.].t.s - k.|.'.}.'.'.'.'.'.'.'.'.'.'.]./.W.].'.'.'.'.'.'.'.'.'.'.'.|.6. X X X X X X X X X X X X X X X X",
" X X X X X X X X X X X X XF.|.[.'.'.'.'.'.'.'.'.{.n.r.'.|.[.`.'.].'.'.'.'.'.'.'.'.'.`.}.}.`.'.'.'.'.'.'.'.'.'.'.'.|.r. X X X X X X X X X X X X X X X X",
" X X X X X X X X X X X X X9.|.[.'.'.'.'.'.'.'.'.'.|.|.}.'.'.'.'.'.'.'.'.'.'.'.'.'.'.'.'.'.'.'.'.'.'.'.'.'.'.'.'.'.].}. X X X X X X X X X X X X X X X X",
" X X X X X X X X X X X X X3.'.].'.'.'.'.'.'.'.'.'.'.[.'.'.'.'.'.'.'.'.'.'.'.'.'.'.'.'.'.'.'.'.'.'.'.'.'.'.'.'.'.'.'.|.`. X X X X X X X X X X X X X X X",
" X X X X X X X X X X X X X2.M.|.'.'.'.'.'.'.'.'.'.'.'.'.'.'.'.'.'.'.'.'.'.'.'.'.'.'.'.'.'.'.'.'.'.'.'.'.'.'.'.'.].'.[.|.D. X X X X X X X X X X X X X X",
" X X X X X X X X X X X X X Xr.|.`.`.'.'.'.'.'.'.'.'.'.'.'.'.'.'.'.'.'.'.'.'.'.'.'.'.].`.'.'.'.'.'.'.'.'.'.`.'.|.|.|.|.|.}. X X X X X X X X X X X X X X",
" X X X X X X X X X X X X X Xm ).}.'.'.'.'.'.'.'.'.'.'.'.'.'.'.'.'.'.'.'.'.'.'.'.'.'.'.`.'.'.'.'.'.].`.`.'.|.|.H.N B j.Q.|.R. X X X X X X X X X X X X X",
" X X X X X X X X X X X X X X Xg.|.[.'.'.'.'.'.'.'.'.'.'.'.'.'.'.'.'.'.'.'.'.'.'.'.'.'.'.'.'.'.`.'.'.}.|.|.P.N  X X X Xt 6.w. X X X X X X X X X X X X X",
" X X X X X X X X X X X X X X X;.}.}.'.'.'.'.'.'.'.'.'.'.'.'.'.'.'.'.'.'.'.'.'.'.'.'.'.'.'.'.`.'.|.|.).V.4. X X X X X X X X X X X X X X X X X X X X X X",
" X X X X X X X X X X X X X X X Xd.|.'.'.'.'.'.'.`.].`.[.'.'.'.'.'.'.'.'.'.'.'.'.'.'.'.'.'.}.|.|.V.N f  X X X X X X X X X X X X X X X X X X X X X X X X",
" X X X X X X X X X X X X X X X Xn '.].'.'.'.'.'.`.`.`.[.'.'.'.'.'.'.'.'.'.'.'.'.].}.|.|.|.W.q.c  X X X X X X X X X X X X X X X X X X X X X X X X X X X",
" X X X X X X X X X X X X X X X Xi.|.'.'.'.[.].|.|.|.|.|.|.}.].'.'.`.'.'.}.|.|.|.|.W.f.4.4.k  X X X X X X X X X X X X X X X X X X X X X X X X X X X X X",
" X X X X X X X X X X X X X X X XJ.|.'.].|.|.].i.B.K.J.A.R./.}.|.|.|.|.|.Q.j.8.b g e  X X X X X X X X X X X X X X X X X X X X X X X X X X X X X X X X X",
" X X X X X X X X X X X X X X X4.|.|.|.}.F.t.0. X X X Xq q r z 8.q.q.8.2.u -  X X X X X X X X X X X X X X X X X X X X X X X X X X X X X X X X X X X X X",
" X X X X X X X X X X X X X X Xn k.s.4.k  X X X X X X X X X X X X X X X X X X X X X X X X X X X X X X X X X X X X X X X X X X X X X X X X X X X X X X X",
" X X X X X X X X X X X X X X X X>  X X X X X X X X X X X X X X X X X X X X X X X X X X X X X X X X X X X X X X X X X X X X X X X X X X X X X X X X X X",
" X X X X X X X X X X X X X X X X X X X X X X X X X X X X X X X X X X X X X X X X X X X X X X X X X X X X X X X X X X X X X X X X X X X X X X X X X X X",
" X X X X X X X X X X X X X X X X X X X X X X X X X X X X X X X X X X X X X X X X X X X X X X X X X X X X X X X X X X X X X X X X X X X X X X X X X X X",
" X X X X X X X X X X X X X X X X X X X X X X X X X X X X X X X X X X X X X X X X X X X X X X X X X X X X X X X X X X X X X X X X X X X X X X X X X X X",
" X X X X X X X X X X X X X X X X X X X X X X X X X X X X X X X X X X X X X X X X X X X X X X X X X X X X X X X X X X X X X X X X X X X X X X X X X X X",
" X X X X X X X X X X X X X X X X X X X X X X X X X X X X X X X X X X X X X X X X X X X X X X X X X X X X X X X X X X X X X X X X X X X X X X X X X X X",
" X X X X X X X X X X X X X X X X X X X X X X X X X X X X X X X X X X X X X X X X X X X X X X X X X X X X X X X X X X X X X X X X X X X X X X X X X X X",
" X X X X X X X X X X X X X X X X X X X X X X X X X X X X X X X X X X X X X X X X X X X X X X X X X X X X X X X X X X X X X X X X X X X X X X X X X X X",
" X X X X X X X X X X X X X X X X X X X X X X X X X X X X X X X X X X X X X X X X X X X X X X X X X X X X X X X X X X X X X X X X X X X X X X X X X X X",
" X X X X X X X X X X X X X X X X X X X X X X X X X X X X X X X X X X X X X X X X X X X X X X X X X X X X X X X X X X X X X X X X X X X X X X X X X X X",
" X X X X X X X X X X X X X X X X X X X X X X X X X X X X X X X X X X X X X X X X X X X X X X X X X X X X X X X X X X X X X X X X X X X X X X X X X X X",
" X X X X X X X X X X X X X X X X X X X X X X X X X X X X X X X X X X X X X X X X X X X X X X X X X X X X X X X X X X X X X X X X X X X X X X X X X X X",
" X X X X X X X X X X X X X X X X X X X X X X X X X X X X X X X X X X X X X X X X X X X X X X X X X X X X X X X X X X X X X X X X X X X X X X X X X X X"
};
