/* XPM */
static char *result[] = {
/* columns rows colors chars-per-pixel */
"75 75 178 2 ",
"   c #000102",
".  c #00000B",
"X  c #1F110A",
"o  c #000719",
"O  c #0E1216",
"+  c #121619",
"@  c #2A1F0F",
"#  c #341C00",
"$  c #2E210F",
"%  c #2F2311",
"&  c #101D2F",
"*  c #0B182E",
"=  c #1F2529",
"-  c #192434",
";  c #2A2A2A",
":  c #292E32",
">  c #2D3236",
",  c #373A3B",
"<  c #4B3514",
"1  c #50302C",
"2  c #423B35",
"3  c #5E4200",
"4  c #5D4417",
"5  c #6A4817",
"6  c #774D10",
"7  c #4B4030",
"8  c #514A3F",
"9  c #614C2E",
"0  c #765937",
"q  c #75592B",
"w  c #2E3A41",
"e  c #363C41",
"r  c #3B3F42",
"t  c #3D4245",
"y  c #364045",
"u  c #4C4945",
"i  c #4A4D4F",
"p  c #444546",
"a  c #514C4A",
"s  c #5A5347",
"d  c #4D5357",
"f  c #555453",
"g  c #55595B",
"h  c #5D5C5B",
"j  c #545758",
"k  c #6A5F4F",
"l  c #555D62",
"z  c #5B6165",
"x  c #5E6569",
"c  c #5A666B",
"v  c #646768",
"b  c #656869",
"n  c #676E71",
"m  c #6B7173",
"M  c #6D767B",
"N  c #69767C",
"B  c #727677",
"V  c #7A7C7C",
"C  c #777C7D",
"Z  c #A10721",
"A  c #A30D27",
"S  c #A5132D",
"D  c #A71B34",
"F  c #A9233C",
"G  c #B5263F",
"H  c #8F5F18",
"J  c #A77118",
"K  c #8D5F2A",
"L  c #8A6020",
"P  c #906626",
"I  c #896D36",
"U  c #B47C26",
"Y  c #AE7628",
"T  c #C37E14",
"R  c #AD2C44",
"E  c #AE3349",
"W  c #B0354C",
"Q  c #B0394F",
"!  c #BA334C",
"~  c #B13B51",
"^  c #B93D54",
"/  c #B85065",
"(  c #9B6875",
")  c #BD6578",
"_  c #B5812D",
"`  c #B68233",
"'  c #C48827",
"]  c #DA9425",
"[  c #DF9E3C",
"{  c #D28B2A",
"}  c #D5A730",
"|  c #E4A033",
" . c #EBA939",
".. c #F4AE35",
"X. c #E2B539",
"o. c #FFBB3D",
"O. c #C7A345",
"+. c #FFBE4E",
"@. c #FFCB49",
"#. c #FFD848",
"$. c #FFD253",
"%. c #FFDA55",
"&. c #FFE454",
"*. c #FFE659",
"=. c #FFF05D",
"-. c #FFFA64",
";. c #6E7B81",
":. c #747D81",
">. c #7A7F81",
",. c #C47A8A",
"<. c #7C8285",
"1. c #7D868A",
"2. c #848586",
"3. c #848A8D",
"4. c #8B8E8E",
"5. c #848F94",
"6. c #8C9295",
"7. c #8D999E",
"8. c #859299",
"9. c #939A9D",
"0. c #989C9D",
"q. c #8F9BA0",
"w. c #949EA3",
"e. c #9BA2A6",
"r. c #97A4AB",
"t. c #9CA5AA",
"y. c #9BA8AE",
"u. c #9FAEB5",
"i. c #A2AAAE",
"p. c #A0A5A7",
"a. c #A4ADB2",
"s. c #ACB2B5",
"d. c #ABB6BC",
"f. c #ABB8BA",
"g. c #B3BABD",
"h. c #B9BABA",
"j. c #C88A99",
"k. c #CE9AA8",
"l. c #CFA0AE",
"z. c #D4AAB6",
"x. c #ACBDC5",
"c. c #B2BDC2",
"v. c #BABFC0",
"b. c #B4C1C6",
"n. c #BBC3C5",
"m. c #BCC6CB",
"M. c #BBC7CD",
"N. c #BFCCD2",
"B. c #C5CBCE",
"V. c #C3CED3",
"C. c #CAD2D4",
"Z. c #C6D4DB",
"A. c #CAD6DB",
"S. c #C9D5DA",
"D. c #D3D7D9",
"F. c #D3D9DA",
"G. c #EDCFDC",
"H. c #E1D6DC",
"J. c #D2DFE5",
"K. c #D3E2E6",
"L. c #D6E4EA",
"P. c #DAE5EA",
"I. c #DCE9EE",
"U. c #D9E3E6",
"Y. c #DDEAF0",
"T. c #E4EBED",
"R. c #E4EEF2",
"E. c #E9EFF3",
"W. c #E5F2F7",
"Q. c #ECF2F4",
"!. c #E6F6FD",
"~. c #E9F7FD",
"^. c #ECFBFF",
"/. c #E6F8FF",
"(. c #F3FEFF",
"). c #FEFFFF",
"_. c #F0F7F8",
"`. c None",
/* pixels */
"`.`.`.`.`.`.`.`.`.`.`.`.`.`.`.`.`.`.`.`.`.`.`.`.`.`.`.`.`.`.`.`.`.`.`.`.`.`.`.`.`.`.`.`.`.`.`.`.`.`.`.`.`.`.`.`.`.`.`.`.`.`.`.`.`.`.`.`.`.`.`.`.`.`.`.",
"`.`.`.`.`.`.`.`.`.`.`.`.`.`.`.`.`.`.`.`.`.`.`.`.`.`.`.`.`.`.`.`.`.`.`.`.`.`.`.`.`.`.`.`.`.`.`.`.`.`.`.`.`.`.`.`.`.`.`.`.`.`.`.`.`.`.`.`.`.`.`.`.`.`.`.",
"`.`.`.`.`.`.`.`.`.`.`.`.`.`.`.`.`.`.`.`.`.`.`.`.`.`.`.`.`.`.`.`.`.`.`.`.`.`.`.`.`.`.`.`.`.`.`.`.`.`.`.`.`.`.`.`.`.`.`.`.`.`.`.`.`.`.`.`.`.`.`.`.`.`.`.",
"`.`.`.`.`.`.`.`.`.`.`.`.`.`.`.`.`.`.`.`.`.`.`.`.`.`.`.`.`.`.`.`.`.`.`.`.`.`.`.`.`.`.`.`.`.`.`.`.`.`.`.`.`.`.`.`.`.`.`.`.`.`.`.`.`.`.`.`.`.`.`.`.`.`.`.",
"`.`.`.`.`.`.`.`.`.`.`.`.`.`.`.`.`.`.`.`.`.`.`.`.`.`.`.`.`.`.`.`.`.`.`.`.`.`.`.`.`.`.`.`.`.`.`.`.`.`.`.`.`.`.`.`.`.`.`.`.`.`.`.`.`.`.`.`.`.`.`.`.`.`.`.",
"`.`.`.`.`.`.`.`.`.`.`.`.`.`.`.`.`.`.`.`.`.`.`.`.`.`.`.`.`.`.`.`.`.`.`.`.`.`.`.`.`.`.`.`.`.`.`.`.`.`.`.`.`.`.`.`.`.`.`.`.`.`.`.`.`.`.`.`.`.`.`.`.`.`.`.",
"`.`.`.`.`.`.`.`.`.`.`.`.`.`.`.`.`.`.`.`.`.`.`.`.`.`.`.`.`.`.`.`.`.`.`.`.`.`.`.`.`.`.`.`.`.`.`.`.`.`.`.`.`.`.`.`.`.`.`.`.`.`.`.`.`.`.`.`.`.`.`.`.`.`.`.",
"`.`.`.`.`.`.`.`.`.`.`.`.`.`.`.`.`.`.`.`.`.`.`.`.`.`.`.`.`.`.`.`.`.`.`.`.`.`.`.`.`.`.`.`.`.`.`.`.`.`.`.`.`.`.`.k 2 `.`.`.`.`.`.`.`.`.`.`.`.`.`.`.`.`.`.",
"`.`.`.`.`.`.`.`.`.`.`.`.`.`.`.`.`.`.`.`.`.`.`.`.`.`.`.`.`.`.`.`.`.`.`.`.`.`.`.`.`.`.`.`.`.0 5 `.`.`.`.`.`.`.`.U } 4 ; i `.`.`.`.`.`.`.`.`.`.`.`.`.`.`.",
"`.`.`.`.`.`.`.`.`.`.`.`.`.`.`.`.`.`.`.`.`.`.`.`.`.`.`.`.`.`.`.`.`.`.`.`.`.`.`.`.`.`.`.`.T #.[ `.`.`.`.`.`.`.8 ..$.%.] @ `.`.`.`.`.`.`.`.`.`.`.`.`.`.`.",
"`.`.`.`.`.`.`.`.`.`.`.`.`.`.`.`.`.`.`.`.`.`.`.`.`.`.`.`.`.`.`.`.`.`.`.`.`.`.`.`.`.`.`.`.O.&._ `.`.`.`.`.`.`.q $.@.@.K `.`.`.`.`.`.`.`.`.`.`.`.`.`.`.`.",
"`.`.`.`.`.`.`.`.`.`.`.`.`.`.`.`.`.`.`.`.`.`.`.`.`.`.`.`.`.`.`.`.`.`.`.`.`.`.`.`.`.`.`.`.0 %.' `.`.`.`.`.`.: { $.$.5 `.`.`.`.`.`.`.`.`.`.`.`.`.`.`.`.`.",
"`.`.`.`.`.`.`.`.`.`.`.`.`.`.`.`.`.`.`.`.`.`.`.`.`.`.`.`.`.`.`.`.`.~ ~ ~ ~ `.`.`.`.`.`.`.`. .| `.`.`.`.`.`.< $.%.6 `.`.`.`.`.`.`.`.`.`.`.`.`.`.`.`.`.`.",
"`.`.`.`.`.`.`.`.`.`.`.`.`.`.`.`.`.`.`.`.`.`.`.`.`.`.`.`.`.`.`.`.`.~ ~ ~ ~ ~ `.`.`.`.`.`.`.P ..u `.`.`.`.- J -.H * `.`.`.`.`.`.`.`.`.`.`.`.`.`.`.`.`.`.",
"`.`.`.`.`.`.`.`.`.`.`.`.`.`.`.`.`.`.`.`.`.`.`.`.`.`.`.`.`.`.`.`.~ ~ ~ ~ ~ ~ `.`.`.`.`.`.`.1 ' s `.`.`.`.@ *.U o `.`.`.`.`.`.`.`.`.`.`.`.`.`.`.`.`.`.`.",
"`.`.`.`.`.`.`.`.`.`.`.`.`.`.`.`.`.`.`.`.`.`.`.`.`.`.`.`.`.`.`.`.~ ~ ~ ~ ~ ~ `.`.`.`.`.`.`.`.3 9 `.`.`.& ' X.. `.`.`.`.`.`.`.`.`.`.`.`.`.`.`.`.`.`.`.`.",
"`.`.`.`.`.`.`.`.`.`.`.`.`.`.`.`.`.`.`.`.`.`.`.`.`.`.`.`.`.`.`.`.~ ~ ~ ~ ~ ~ `.`.`.`.`.`.`.`., u `.`.`.% { X `.`.`.`.`.`.`.`.`.`.`.`.`.`.`.`.`.`.`.`.`.",
"`.`.`.`.`.`.`.`.`.`.`.`.`.`.`.`.`.`.`.`.`.`.`.`.`.`.`.`.`.`.`.`.~ Q ~ ~ ~ ~ `.`.`.`.`.`.`.`.`.`.`.`.`.2   `.`.`.`.`.`.`.`.`.u I X.L `.`.`.`.`.`.`.`.`.",
"`.`.`.`.`.`.`.`.`.`.`.`.`.`.`.`.`.`.`.`.`.`.`.`.`.`.`.`.`.`.`.`.~ ~ ~ ~ ~ ~ `.`.`.`.`.`.`.`.`.`.`.`.`.`.`.`.`.`.`.`.`.u 0 _ o.&.=.] , `.`.`.`.`.`.`.`.",
"`.`.`.`.`.`.`.`.`.`.`.`.`.`.`.`.`.`.`.`.`.`.`.`.`.`.`.`.`.`.`.`.~ ~ ~ ~ ~ ~ `.`.`.`.`.`.`.`.`.`.`.`.`.`.`.`.`.`.`.`.# J ] | ' Y ` ` 7 `.`.`.`.`.`.`.`.",
"`.`.`.`.`.`.`.`.`.`.`.`.`.`.`.`.`.`.`.`.`.`.`.`.`.`.`.~ ~ `.`.`.~ ~ ~ ~ ~ ~ `.`.`.`.`.`.`.`.`.`.`.`.`.>.D.Z.i `.`.`.7 s t `.`.`.`.`.`.`.`.`.`.`.`.`.`.",
"`.`.`.`.`.`.`.`.`.`.`.`.`.`.`.`.`.`.`.`.`.`.`.`.`.~ ~ ~ ~ ~ `.`.~ ~ Q ~ ~ ~ `.`.~ ~ ~ ^ `.`.`.`.`.`.t.).).(.j `.`.`.`.`.`.`.`.`.`.`.`.`.`.`.`.`.`.`.`.",
"`.`.`.`.`.`.`.`.`.`.`.`.`.`.`.`.`.`.`.`.`.`.`.`.`.~ ~ ~ ~ ~ ~ `.~ ~ ~ ~ ~ ~ ~ ~ ~ ~ ~ ^ W `.`.`.`.a.).(.^.(.i `.`.`.`.`.`.`.`.`.`.`.`.`.`.`.`.`.`.`.`.",
"`.`.`.`.`.`.`.`.`.`.`.`.`.`.`.`.`.`.`.`.`.`.`.`.`.~ ~ ~ ~ ~ ~ ~ ~ ~ ~ ~ ~ ~ Q ~ ~ ~ ~ ~ R ( f.n.b.~.(.~.(.W.i `.`.`.`.`.`.`.`.`.`.`.`.`.`.`.`.`.`.`.`.",
"`.`.`.`.`.`.`.`.`.`.`.`.`.`.`.`.`.`.`.`.`.`.`.`.`.! ~ ~ ~ ~ ~ ~ ~ ~ ~ ~ ~ ~ Q ~ ~ ~ ~ Q S G.).).).^.~.~.(.P.g `.`.`.`.`.`.`.`.`.`.`.`.`.`.`.`.`.`.`.`.",
"`.`.`.`.`.`.`.`.`.`.`.`.`.`.`.`.`.`.`.`.`.`.`.`.`.`.F E ~ ~ ~ ~ ~ ~ ~ ~ ~ ~ ~ ~ ~ ~ ~ Z ) (.^.~.~.~.~.~.).b.`.`.`.`.`.`.`.`.`.`.`.`.`.`.`.`.`.`.`.`.`.",
"`.`.`.`.`.`.`.`.`.`.`.`.`.`.`.`.`.`.`.`.`.`.`.`.`.`.( ! R ~ ~ ~ ~ ~ ~ ~ ~ ~ ~ ~ ~ E S ) E.^.~.~.~.~.~.~.(.T.0.`.`.`.`.`.`.`.`.`.`.`.`.`.`.`.`.`.`.`.`.",
"`.`.`.`.`.`.`.`.`.`.`.`.`.`.`.`.`.`.`.`.`.`.`.v 0.K.(.z.S E ~ ~ ~ Q ~ ~ ~ ~ ~ ~ D F z.(.^.~.~.~.~.~.~.~.~.(.~.V `.`.`.`.`.`.`.`.`.`.`.`.`.`.`.`.`.`.`.",
"`.`.`.`.`.`.`.`.`.`.`.`.`.`.`.`.`.`.`.`.`.C s.(.).(.^.(.k.S E ~ ~ ~ ~ ~ ~ ~ E S / H.(.^.~.~.~.~.~.~.~.~.~.~.).9.`.`.`.`.`.`.`.`.`.`.`.`.`.`.`.`.`.`.`.",
"`.`.`.`.`.`.`.`.`.`.`.`.`.`.`.`.`.`.`.3.C.).).^.~.~.~.^.(.j.A E ~ ~ ~ Q ~ F F j.(.(.~.~.~.~.~.~.~.~.~.~.~.~.).Z.`.`.`.`.`.`.`.`.`.`.`.`.`.`.`.`.`.`.`.",
"`.`.`.`.`.`.`.`.`.`.`.`.`.`.`.`.`.0.R.).).~.~.~.~.~.~.~.(.(.j.Z R ~ ~ ^ D ~ H.(.^.~.~.~.~.~.~.~.~.~.~.~.~.~.^.(.<.`.`.`.`.`.`.`.`.`.`.`.`.`.`.`.`.`.`.",
"`.`.`.`.`.`.`.`.`.`.`.f a `.`.2.D.).(.~.~.~.~.~.~.~.~.~.~.^.(.k.E S S A / Q.(.^.~.~.~.~.~.~.~.~.~.~.~.~.~.~.~.).a.`.`.`.`.`.`.`.`.`.`.`.`.`.`.`.`.`.`.",
"`.`.`.`.`.`.`.`.<.h.A.K.U.c.a.).).~.~.~.^.~.~.~.~.~.~.~.~./.^.(.Q.l.,.k.^.(./.~.~.~.~.~.~.~.~.~.~.~.~.~.~.~.~.).A.`.`.`.`.`.`.`.`.`.`.`.`.`.`.`.`.`.`.",
"`.`.`.`.`.`.`.`.e.).).(.(.).).~.!.~.~.~.!.~.~.~.~.~.~.~.~.~.~.~.^.(.(.(.^./.~.~.~.~.~.~.~.~.~.~.~.~.~.~.~.~.~.^.(.M `.`.`.`.`.`.`.`.`.`.`.`.`.`.`.`.`.",
"`.`.`.`.`.`.`.`.`.6.(.).^.~.~.~.!.^.~.~.~.~.~.~.~.~.~.~.~.~.^.~.~.~.~.~.~.~.~.~.~.~.!.(.(.).).!.~.~.~.~.~.~.~.~.).6.`.`.`.`.`.`.`.`.`.`.`.`.`.`.`.`.`.",
"`.`.`.`.`.`.`.`.`.`.`.D._.~.~.~.~.!.~.~.~.~.~.~.~.~.~.~.~.^.^.~.~.~.~.~.~.~.~.~.~.~.^.Q.c.b m.).!.~.~.~.~.~.~.~.).a.`.`.`.`.`.`.`.`.`.`.`.`.`.`.`.`.`.",
"`.`.`.`.`.`.`.`.`.`.`.`.L.(.~.~.~.~.~.~.~.~.~.~.~.~.~.~.^.L.c.(.~.~.~.~.~.!.(.).).(.).a.7.g.; C.(.^.~.~.~.~.~.~.).B.`.`.`.`.`.`.`.`.`.`.`.`.`.`.`.`.`.",
"`.`.`.`.`.`.`.`.`.`.`.h W.(.~.~.~.~.~.~.~.~.~.~.!.(.).^.(.m.6.).~.~.^.(.~.(.~.x M T.).7.5.).O r.).~.~.~.~.~.~.~.(.L.f `.`.`.`.`.`.`.`.`.`.`.`.`.`.`.`.",
"`.`.`.`.`.`.`.`.`.`.`.h (.^.~.~.~.~.~.~.~.~.!.!.).J.w.I.).d.3.).!.(.(.!.(.).n d x c.).7.t.y.. _.(.~.~.~.~.~.~.~.^.~.h `.`.`.`.`.`.`.`.`.`.`.`.`.`.`.`.",
"`.`.`.`.`.`.`.`.`.`.`.h (.(.~.~.~.~.~.~.!.!.!.).g.> V I.).a.1.).(.(.b t B.).> z n.(.).d.> p v.).!.~.~.~.~.~.~.~.(.(.b `.`.`.`.`.`.`.`.`.`.`.`.`.`.`.`.",
"`.`.`.`.`.`.`.`.`.`.`.v W.(.~.~.~.~.~.~.~.~.(.C.e C.).^.).y.:.).).1.e l a.).l g ).(.).y., (.).!.~.~.~.~.~.~.~.~.~.).3.`.`.`.`.`.`.`.`.`.`.`.`.`.`.`.`.",
"`.`.`.`.`.`.`.`.`.`.`.f I.(.~.~.~.~.~.~.~.~.).C :.)./.~.).a.M ).).d O g.).(.Q.3.3.i.).w.:.).~.~.~.~.~.~.~.~.~.~.~.).6.`.`.`.`.`.`.`.`.`.`.`.`.`.`.`.`.",
"`.`.`.`.`.`.`.`.`.`.`.f J.(.^.~.~.~.~.~.~.~.(.C.t s.).).).b.m ).).1.  F.).~.(.).W.P.).w.b ).~.~.~.~.~.~.~.~.~.~.~.).4.`.`.`.`.`.`.`.`.`.`.`.`.`.`.`.`.",
"`.`.`.`.`.`.`.`.`.`.`.`.S.(.~.~.~.~.~.~.~.!.!.).h.j b n E._.c W.(.).:.f i.(.^.~.~.^.).t.v ).~.~.~.~.~.~.~.~.~.~.~.).6.`.`.`.`.`.`.`.`.`.`.`.`.`.`.`.`.",
"`.`.`.`.`.`.`.`.`.`.`.`.b.).~.~.~.~.~.~.~.~.~.~.).).B.m , E.:.y.).^.).^.L.~.~.~.~.~.).a.M ).~.~.~.~.~.~.~.~.~.~.~.).6.`.`.`.`.`.`.`.`.`.`.`.`.`.`.`.`.",
"`.`.`.`.`.`.`.`.`.`.`.`.y.).~.~.~.~.~.~.~.~.~.~.~.~.(.).t N T.:.Q.^.~.^.^.~.~.~.~.~.(.m.6.).~.~.~.~.~.~.~.~.~.~.~.).6.`.`.`.`.`.`.`.`.`.`.`.`.`.`.`.`.",
"`.`.`.`.`.`.`.`.`.`.`.`.5.).~.~.~.~.~.~.~.~.~.~.~.).).i.+ V.).V.S.(.~.~.~.~.~.~.~.~.(.Z.t.(.^.~.~.~.~.~.~.~.~.~.~.).4.`.`.`.`.`.`.`.`.`.`.`.`.`.`.`.`.",
"`.`.`.`.`.`.`.`.`.`.`.`.N (.(.~.~.~.~.~.~.~.!.^.^.e.f : g.).~.(.^.~.~.~.~.~.~.~.~.~.^.R.P.^.~.~.~.~.~.~.~.~.~.~.~.).4.`.`.`.`.`.`.`.`.`.`.`.`.`.`.`.`.",
"`.`.`.`.`.`.`.`.`.`.`.`.`.V.(.^.~.~.~.~.~.~.~.~.^.c.w.~.).!.~.~.^.~.~.~.~.~.~.~.~.~.!.(.(.!.~.~.~.~.~.~.~.~.~.~.~.).e.`.`.`.`.`.`.`.`.`.`.`.`.`.`.`.`.",
"`.`.`.`.`.`.`.`.`.`.`.`.`.7.).~.~.~.~.~.~.~.~.~.~.).).(.~.~.~.~.~.~.~.~.~.~.~.~.~.~.!.~.^.~.~.~.~.~.~.~.~.~.~.~.~.^.(.`.`.`.`.`.`.`.`.`.`.`.`.`.`.`.`.",
"`.`.`.`.`.`.`.`.`.`.`.`.`.1.~.^.~.~.~.~.~.~.~.~.~.~.~.~.~.~.~.~.~.~.~.~.~.~.~.~.~.~.~.~.!.~.~.~.~.~.~.~.~.~.~.~.~.~.(.!.`.`.`.`.`.`.`.`.`.`.`.`.`.`.`.",
"`.`.`.`.`.`.`.`.`.`.`.`.`.<.x.).~.~.~.~.~.~.~.~.~.~.~.~.~.~.~.~.~.~.~.~.~.~.~.~.~.~.~.~.~.~.~.~.~.~.~.~.~.~.~.~.^.~.~.).B.`.`.`.`.`.`.`.`.`.`.`.`.`.`.",
"`.`.`.`.`.`.`.`.`.`.`.`.`.`.w.).!.!.~.~.~.~.~.~.~.~.~.~.~.~.~.~.~.~.~.~.~.~.~.~.~.~.~.~.~.~.~.~.~.~.~.~.~.~.~.).).).).(.(.`.`.`.`.`.`.`.`.`.`.`.`.`.`.",
"`.`.`.`.`.`.`.`.`.`.`.`.`.`.N W.(.!.~.~.~.~.~.~.~.~.~.~.~.~.~.~.~.~.~.~.~.~.~.~.~.~.~.~.~.~.~.~.~.~.~.!.~.).).C.V C h.I.).K.`.`.`.`.`.`.`.`.`.`.`.`.`.",
"`.`.`.`.`.`.`.`.`.`.`.`.`.`.`.x.).!.~.~.~.~.~.~.~.~.~.~.~.~.~.~.~.~.~.~.~.~.~.~.~.~.~.~.~.~.~.!.~.~.(.).).D.V `.`.`.`.u 4.0.`.`.`.`.`.`.`.`.`.`.`.`.`.",
"`.`.`.`.`.`.`.`.`.`.`.`.`.`.`.M (.(.~.~.~.~.~.~.~.~.~.~.~.~.~.~.~.~.~.~.~.~.~.~.~.~.~.~.!.^.!.~.).).W.n.2.`.`.`.`.`.`.`.`.`.`.`.`.`.`.`.`.`.`.`.`.`.`.",
"`.`.`.`.`.`.`.`.`.`.`.`.`.`.`.`.a.(.^.~.~.~.~.~.~.~.!.!.~.~.~.~.~.~.~.~.~.~.~.~.~.~.~.~.~.(.).).n.V h `.`.`.`.`.`.`.`.`.`.`.`.`.`.`.`.`.`.`.`.`.`.`.`.",
"`.`.`.`.`.`.`.`.`.`.`.`.`.`.`.`.M ~.(.!.~.~.~.~.~.~.~.!.~.~.~.~.~.~.~.~.~.~.~.~.^.(.).).).P.0.b `.`.`.`.`.`.`.`.`.`.`.`.`.`.`.`.`.`.`.`.`.`.`.`.`.`.`.",
"`.`.`.`.`.`.`.`.`.`.`.`.`.`.`.`.r.).~.~.~.!.^.).).).).).(.(.^.~.~.!.~.~.(.).).).).L.s.2.2.l `.`.`.`.`.`.`.`.`.`.`.`.`.`.`.`.`.`.`.`.`.`.`.`.`.`.`.`.`.",
"`.`.`.`.`.`.`.`.`.`.`.`.`.`.`.`.A.).~.^.).).^.t.b.A.Z.V.K.W.(.).).).).).I.g.6.m j t `.`.`.`.`.`.`.`.`.`.`.`.`.`.`.`.`.`.`.`.`.`.`.`.`.`.`.`.`.`.`.`.`.",
"`.`.`.`.`.`.`.`.`.`.`.`.`.`.`.2.(.).).(.V.e.8.`.`.`.`.w w y c 6.9.9.6.<.p ; `.`.`.`.`.`.`.`.`.`.`.`.`.`.`.`.`.`.`.`.`.`.`.`.`.`.`.`.`.`.`.`.`.`.`.`.`.",
"`.`.`.`.`.`.`.`.`.`.`.`.`.`.`.B z.p.1.z `.`.`.`.`.`.`.`.`.`.`.`.`.`.`.`.`.`.`.`.`.`.`.`.`.`.`.`.`.`.`.`.`.`.`.`.`.`.`.`.`.`.`.`.`.`.`.`.`.`.`.`.`.`.`.",
"`.`.`.`.`.`.`.`.`.`.`.`.`.`.`.`., `.`.`.`.`.`.`.`.`.`.`.`.`.`.`.`.`.`.`.`.`.`.`.`.`.`.`.`.`.`.`.`.`.`.`.`.`.`.`.`.`.`.`.`.`.`.`.`.`.`.`.`.`.`.`.`.`.`.",
"`.`.`.`.`.`.`.`.`.`.`.`.`.`.`.`.`.`.`.`.`.`.`.`.`.`.`.`.`.`.`.`.`.`.`.`.`.`.`.`.`.`.`.`.`.`.`.`.`.`.`.`.`.`.`.`.`.`.`.`.`.`.`.`.`.`.`.`.`.`.`.`.`.`.`.",
"`.`.`.`.`.`.`.`.`.`.`.`.`.`.`.`.`.`.`.`.`.`.`.`.`.`.`.`.`.`.`.`.`.`.`.`.`.`.`.`.`.`.`.`.`.`.`.`.`.`.`.`.`.`.`.`.`.`.`.`.`.`.`.`.`.`.`.`.`.`.`.`.`.`.`.",
"`.`.`.`.`.`.`.`.`.`.`.`.`.`.`.`.`.`.`.`.`.`.`.`.`.`.`.`.`.`.`.`.`.`.`.`.`.`.`.`.`.`.`.`.`.`.`.`.`.`.`.`.`.`.`.`.`.`.`.`.`.`.`.`.`.`.`.`.`.`.`.`.`.`.`.",
"`.`.`.`.`.`.`.`.`.`.`.`.`.`.`.`.`.`.`.`.`.`.`.`.`.`.`.`.`.`.`.`.`.`.`.`.`.`.`.`.`.`.`.`.`.`.`.`.`.`.`.`.`.`.`.`.`.`.`.`.`.`.`.`.`.`.`.`.`.`.`.`.`.`.`.",
"`.`.`.`.`.`.`.`.`.`.`.`.`.`.`.`.`.`.`.`.`.`.`.`.`.`.`.`.`.`.`.`.`.`.`.`.`.`.`.`.`.`.`.`.`.`.`.`.`.`.`.`.`.`.`.`.`.`.`.`.`.`.`.`.`.`.`.`.`.`.`.`.`.`.`.",
"`.`.`.`.`.`.`.`.`.`.`.`.`.`.`.`.`.`.`.`.`.`.`.`.`.`.`.`.`.`.`.`.`.`.`.`.`.`.`.`.`.`.`.`.`.`.`.`.`.`.`.`.`.`.`.`.`.`.`.`.`.`.`.`.`.`.`.`.`.`.`.`.`.`.`.",
"`.`.`.`.`.`.`.`.`.`.`.`.`.`.`.`.`.`.`.`.`.`.`.`.`.`.`.`.`.`.`.`.`.`.`.`.`.`.`.`.`.`.`.`.`.`.`.`.`.`.`.`.`.`.`.`.`.`.`.`.`.`.`.`.`.`.`.`.`.`.`.`.`.`.`.",
"`.`.`.`.`.`.`.`.`.`.`.`.`.`.`.`.`.`.`.`.`.`.`.`.`.`.`.`.`.`.`.`.`.`.`.`.`.`.`.`.`.`.`.`.`.`.`.`.`.`.`.`.`.`.`.`.`.`.`.`.`.`.`.`.`.`.`.`.`.`.`.`.`.`.`.",
"`.`.`.`.`.`.`.`.`.`.`.`.`.`.`.`.`.`.`.`.`.`.`.`.`.`.`.`.`.`.`.`.`.`.`.`.`.`.`.`.`.`.`.`.`.`.`.`.`.`.`.`.`.`.`.`.`.`.`.`.`.`.`.`.`.`.`.`.`.`.`.`.`.`.`.",
"`.`.`.`.`.`.`.`.`.`.`.`.`.`.`.`.`.`.`.`.`.`.`.`.`.`.`.`.`.`.`.`.`.`.`.`.`.`.`.`.`.`.`.`.`.`.`.`.`.`.`.`.`.`.`.`.`.`.`.`.`.`.`.`.`.`.`.`.`.`.`.`.`.`.`.",
"`.`.`.`.`.`.`.`.`.`.`.`.`.`.`.`.`.`.`.`.`.`.`.`.`.`.`.`.`.`.`.`.`.`.`.`.`.`.`.`.`.`.`.`.`.`.`.`.`.`.`.`.`.`.`.`.`.`.`.`.`.`.`.`.`.`.`.`.`.`.`.`.`.`.`.",
"`.`.`.`.`.`.`.`.`.`.`.`.`.`.`.`.`.`.`.`.`.`.`.`.`.`.`.`.`.`.`.`.`.`.`.`.`.`.`.`.`.`.`.`.`.`.`.`.`.`.`.`.`.`.`.`.`.`.`.`.`.`.`.`.`.`.`.`.`.`.`.`.`.`.`."
};
