/* XPM */
static char *result[] = {
/* columns rows colors chars-per-pixel */
"75 75 178 2 ",
"   c #000102",
".  c #00000B",
"X  c #1F110A",
"o  c #000719",
"O  c #0E1216",
"+  c #121619",
"@  c #2A1F0F",
"#  c #341C00",
"$  c #2E210F",
"%  c #2F2311",
"&  c #0B182E",
"*  c #101D2F",
"=  c #1F2529",
"-  c #192434",
";  c #2A2A2A",
":  c #292E32",
">  c #2E3235",
",  c #2D3438",
"<  c #393C3E",
"1  c #383839",
"2  c #4B3514",
"3  c #72133E",
"4  c #50312C",
"5  c #423B35",
"6  c #31413E",
"7  c #5D4300",
"8  c #5D4417",
"9  c #6A4817",
"0  c #774D10",
"q  c #4B4030",
"w  c #514A3F",
"e  c #614C2E",
"r  c #7D5923",
"t  c #6C5933",
"y  c #765937",
"u  c #2E3A41",
"i  c #363C41",
"p  c #3B3F42",
"a  c #3D4245",
"s  c #364045",
"d  c #454343",
"f  c #4C4945",
"g  c #4A4D4F",
"h  c #42484A",
"j  c #514C4A",
"k  c #5E5543",
"l  c #52514F",
"z  c #4B4F50",
"x  c #4D5357",
"c  c #545454",
"v  c #55595B",
"b  c #5D5C5B",
"n  c #545758",
"m  c #6A5F4F",
"M  c #555D62",
"N  c #5B6165",
"B  c #5E6569",
"V  c #5F6B6E",
"C  c #556268",
"Z  c #656564",
"A  c #646768",
"S  c #636A6D",
"D  c #696A6A",
"F  c #6A6F71",
"G  c #656D71",
"H  c #6B7173",
"J  c #6D767B",
"K  c #69767C",
"L  c #727677",
"P  c #767C7E",
"I  c #7A7C7C",
"U  c #8F5F18",
"Y  c #A77118",
"T  c #855D27",
"R  c #8A6020",
"E  c #906626",
"W  c #896D36",
"Q  c #AE7628",
"!  c #B47C26",
"~  c #C37E14",
"^  c #B6384F",
"/  c #B13B51",
"(  c #B93C58",
")  c #C0334D",
"_  c #C73955",
"`  c #C34159",
"'  c #CE4A62",
"]  c #B5812D",
"[  c #B68233",
"{  c #C1852B",
"}  c #C68924",
"|  c #D28B2A",
" . c #DA9425",
".. c #DF9E3C",
"X. c #D5A730",
"o. c #E4A033",
"O. c #E9A838",
"+. c #F5AE35",
"@. c #E2B539",
"#. c #FFBB3D",
"$. c #C7A345",
"%. c #FFBE4E",
"&. c #FFCB49",
"*. c #FFD849",
"=. c #FFD253",
"-. c #FFDA55",
";. c #FFE454",
":. c #FFE659",
">. c #FFF05D",
",. c #FFFA64",
"<. c #6E7B81",
"1. c #747D81",
"2. c #7A7F81",
"3. c #7C8285",
"4. c #7D868A",
"5. c #6B8989",
"6. c #848586",
"7. c #848A8D",
"8. c #8B8E8E",
"9. c #848F94",
"0. c #8C9295",
"q. c #8D999E",
"w. c #8A959A",
"e. c #939A9D",
"r. c #989D9E",
"t. c #8F9BA0",
"y. c #949EA3",
"u. c #88A0A1",
"i. c #9AA2A6",
"p. c #97A4AB",
"a. c #9CA5AA",
"s. c #9BA8AE",
"d. c #97A0A4",
"f. c #9FAEB5",
"g. c #A2AAAE",
"h. c #A0A5A7",
"j. c #A4ADB2",
"k. c #ACB2B5",
"l. c #ACB6BC",
"z. c #ADB8BD",
"x. c #B3BABD",
"c. c #B9BABA",
"v. c #ACBDC5",
"b. c #B2BDC2",
"n. c #BABFC0",
"m. c #B4C1C6",
"M. c #BBC3C5",
"N. c #BCC6CB",
"B. c #BBC7CD",
"V. c #BFCCD2",
"C. c #C4CBCE",
"Z. c #C3CED3",
"A. c #C6D3D7",
"S. c #CAD2D4",
"D. c #C6D4DB",
"F. c #CAD6DB",
"G. c #CCD9DD",
"H. c #D3D7D9",
"J. c #D2D9DB",
"K. c #D2DFE5",
"L. c #D4E1E6",
"P. c #D6E4EA",
"I. c #DAE5EA",
"U. c #DCE9EE",
"Y. c #D9E3E6",
"T. c #DDEAF0",
"R. c #E4EBED",
"E. c #E4EEF2",
"W. c #E4F2F6",
"Q. c #ECF2F4",
"!. c #E6F6FD",
"~. c #E9F7FD",
"^. c #ECFAFF",
"/. c #E6F8FF",
"(. c #F3FEFF",
"). c #FEFFFF",
"_. c #F0F7F8",
"`. c None",
/* pixels */
"`.`.`.`.`.`.`.`.`.`.`.`.`.`.`.`.`.`.`.`.`.`.`.`.`.`.`.`.`.`.`.`.`.`.`.`.`.`.`.`.`.`.`.`.`.`.`.`.`.`.`.`.`.`.`.`.`.`.`.`.`.`.`.`.`.`.`.`.`.`.`.`.`.`.`.",
"`.`.`.`.`.`.`.`.`.`.`.`.`.`.`.`.`.`.`.`.`.`.`.`.`.`.`.`.`.`.`.`.`.`.`.`.`.`.`.`.`.`.`.`.`.`.`.`.`.`.`.`.`.`.`.`.`.`.`.`.`.`.`.`.`.`.`.`.`.`.`.`.`.`.`.",
"`.`.`.`.`.`.`.`.`.`.`.`.`.`.`.`.`.`.`.`.`.`.`.`.`.`.`.`.`.`.`.`.`.`.`.`.`.`.`.`.`.`.`.`.`.`.`.`.`.`.`.`.`.`.`.`.`.`.`.`.`.`.`.`.`.`.`.`.`.`.`.`.`.`.`.",
"`.`.`.`.`.`.`.`.`.`.`.`.`.`.`.`.`.`.`.`.`.`.`.`.`.`.`.`.`.`.`.`.`./ / / / `.`.`.`.`.`.`.`.`.`.`.`.`.`.`.`.`.`.`.`.`.`.`.`.`.`.`.`.`.`.`.`.`.`.`.`.`.`.",
"`.`.`.`.`.`.`.`.`.`.`.`.`.`.`.`.`.`.`.`.`.`.`.`.`.`.`.`.`.`.`.`./ / / / / / `.`.`.`.`.`.`.`.`.`.`.`.`.`.`.`.`.`.`.`.`.`.`.`.`.`.`.`.`.`.`.`.`.`.`.`.`.",
"`.`.`.`.`.`.`.`.`.`.`.`.`.`.`.`.`.`.`.`.`.`.`.`.`.`.`.`.`.`.`.`./ / / / / / `.`.`.`.`.`.`.`.`.`.`.`.`.`.`.`.`.`.`.`.`.`.`.`.`.`.`.`.`.`.`.`.`.`.`.`.`.",
"`.`.`.`.`.`.`.`.`.`.`.`.`.`.`.`.`.`.`.`.`.`.`.`.`.`.`.`.`.`.`.`./ / / / / / `.`.`.`.`.`.`.`.`.`.`.`.`.`.`.`.`.`.`.`.`.`.`.`.`.`.`.`.`.`.`.`.`.`.`.`.`.",
"`.`.`.`.`.`.`.`.`.`.`.`.`.`.`.`.`.`.`.`.`.`.`.`.`.`.`.`.`.`.`.`./ / / / / / `.`.`.`.`.`.`.`.`.`.`.`.`.`.`.`.`.m 5 `.`.`.`.`.`.`.`.`.`.`.`.`.`.`.`.`.`.",
"`.`.`.`.`.`.`.`.`.`.`.`.`.`.`.`.`.`.`.`.`.`.`.`.`.`.`.`.`.`.`.`./ / / / / / `.`.`.`.`.`.`.t 9 `.`.`.`.`.`.`.`.! X.8 ; g `.`.`.`.`.`.`.`.`.`.`.`.`.`.`.",
"`.`.`.`.`.`.`.`.`.`.`.`.`.`.`.`.`.`.`.`.`.`.`.`.`.`.`.`.`.`.`.`./ / / / / / `.`.`.`.`.`.~ *...`.`.`.`.`.`.`.w O.=.-. .@ `.`.`.`.`.`.`.`.`.`.`.`.`.`.`.",
"`.`.`.`.`.`.`.`.`.`.`.`.`.`.`.`.`.`.`.`.`.`.`.`.`.`.`.`.`.`.`.`./ / / / / / `.`.`.`.`.`.$.:.[ `.`.`.`.`.`.`.r =.&.&.E `.`.`.`.`.`.`.`.`.`.`.`.`.`.`.`.",
"`.`.`.`.`.`.`.`.`.`.`.`.`.`.`.`.`.`.`.`.`.`.`.`.`.`./ / / `.`.`./ / / / / / `.`.`.`.`.`.y *.{ `.`.`.`.`.`.> | =.=.9 `.`.`.`.`.`.`.`.`.`.`.`.`.`.`.`.`.",
"`.`.`.`.`.`.`.`.`.`.`.`.`.`.`.`.`.`.`.`.`.`.`.`.`./ / / / / `.`./ / / / / / `.`./ / / _ `.O.o.`.`.`.`.`.`.2 =.-.0 `.`.`.`.`.`.`.`.`.`.`.`.`.`.`.`.`.`.",
"`.`.`.`.`.`.`.`.`.`.`.`.`.`.`.`.`.`.`.`.`.`.`.`./ / / / / / / `./ / / / / / / / / / / ` 3 R +.q `.`.`.`.- Y ,.U & `.`.`.`.`.`.`.`.`.`.`.`.`.`.`.`.`.`.",
"`.`.`.`.`.`.`.`.`.`.`.`.`.`.`.`.`.`.`.`.`.`.`.`./ / / / / / / / / / / / / / / / / / / / ( 4 } m `.`.`.`.$ :.! o `.`.`.`.`.`.`.`.`.`.`.`.`.`.`.`.`.`.`.",
"`.`.`.`.`.`.`.`.`.`.`.`.`.`.`.`.`.`.`.`.`.`.`.`.`./ / / / / / / / / / / / / / / / / / / ' `.7 w `.`.`.* { @.. `.`.`.`.`.`.`.`.`.`.`.`.`.`.`.`.`.`.`.`.",
"`.`.`.`.`.`.`.`.`.`.`.`.`.`.`.`.`.`.`.`.`.`.`.`.`./ / / / / / / / / / / / / / / / / / / `.`.6 f `.`.`.% } @ `.`.`.`.`.`.`.`.`.`.`.`.`.`.`.`.`.`.`.`.`.",
"`.`.`.`.`.`.`.`.`.`.`.`.`.`.`.`.`.`.`.`.`.`.`.`.`.`./ / / / / / / / / / / / / / / / / `.`.`.`.`.`.`.`.5   `.`.`.`.`.`.`.`.`.f W @.R `.`.`.`.`.`.`.`.`.",
"`.`.`.`.`.`.`.`.`.`.`.`.`.`.`.`.`.`.`.`.`.`.`.`.`.`.`./ / / / / / / / / / / / / / / `.`.`.`.`.`.`.`.`.`.`.`.`.`.`.`.`.f t ] #.;.>. .< `.`.`.`.`.`.`.`.",
"`.`.`.`.`.`.`.`.`.`.`.`.`.`.`.`.`.`.`.`.`.`.`.`.`.`.`.`./ / / / / / / / / / / / `.`.`.`.`.`.`.`.`.`.`.`.`.`.`.`.`.`.# Y  .o.{ Q [ [ q `.`.`.`.`.`.`.`.",
"`.`.`.`.`.`.`.`.`.`.`.`.`.`.`.`.`.`.`.`.`.`.`.`.`.`.`.`.`./ / / / / / / / / / `.`.`.`.`.`.`.`.`.`.`.`.2.H.D.g `.`.`.q k d `.`.`.`.`.`.`.`.`.`.`.`.`.`.",
"`.`.`.`.`.`.`.`.`.`.`.`.`.`.`.`.`.`.`.`.`.`.`.`.`.`.`.`.`.`./ / / / / / / ) `.`.`.`.`.`.`.`.`.`.`.`.a.).).(.n `.`.`.`.`.`.`.`.`.`.`.`.`.`.`.`.`.`.`.`.",
"`.`.`.`.`.`.`.`.`.`.`.`.`.`.`.`.`.`.`.`.`.`.`.`.`.`.`.`.`.`.`._ ` _ ^ _ `.`.`.`.`.`.`.`.`.`.`.`.`.j.).(.^.(.g `.`.`.`.`.`.`.`.`.`.`.`.`.`.`.`.`.`.`.`.",
"`.`.`.`.`.`.`.`.`.`.`.`.`.`.`.`.`.`.`.`.`.`.`.`.`.`.`.`.`.`.`.`.`.`.`.`.`.`.`.n S H P 7.q.d.l.M.m.^.(.~.(.W.g `.`.`.`.`.`.`.`.`.`.`.`.`.`.`.`.`.`.`.`.",
"`.`.`.`.`.`.`.`.`.`.`.`.`.`.`.`.`.`.`.`.`.`.`.`.`.`.`.`.`.`.`.`.`.`.V 5.u.x.C.I.(.).).).).).).).).^.!.~.(.I.v `.`.`.`.`.`.`.`.`.`.`.`.`.`.`.`.`.`.`.`.",
"`.`.`.`.`.`.`.`.`.`.`.`.`.`.`.`.`.`.`.`.`.`.`.`.`.`.`.`.`.z H i.A.W.(.).).).).(.^.^.^.~.~.~.~.~.~.~.~.~.).m.`.`.`.`.`.`.`.`.`.`.`.`.`.`.`.`.`.`.`.`.`.",
"`.`.`.`.`.`.`.`.`.`.`.`.`.`.`.`.`.`.`.`.`.`.`.`.`.`.H r.C.!.).).).(.^.~.~.~.~.~.~.~.~.~.~.~.~.~.~.~.~.~.(.R.e.`.`.`.`.`.`.`.`.`.`.`.`.`.`.`.`.`.`.`.`.",
"`.`.`.`.`.`.`.`.`.`.`.`.`.`.`.`.`.`.`.`.`.`.`.A r.J.).).).^.^.~.^.!.~.~.~.~.~.~.~.~.~.~.~.~.~.~.~.~.~.~.~.).^.P `.`.`.`.`.`.`.`.`.`.`.`.`.`.`.`.`.`.`.",
"`.`.`.`.`.`.`.`.`.`.`.`.`.`.`.`.`.`.`.`.`.P k.(.).)./.~.~.~.~.~.~.~.~.~.~.~.~.~.~.~.~.~.~.~.~.~.~.~.~.~.~.~.).e.`.`.`.`.`.`.`.`.`.`.`.`.`.`.`.`.`.`.`.",
"`.`.`.`.`.`.`.`.`.`.`.`.`.`.`.`.`.`.`.7.S.).).^.~.~.~.~.~.~.~.~.~.~.~.~.~.~.!./.~.~.~.~.~.~.~.~.~.~.~.~.~.~.).D.`.`.`.`.`.`.`.`.`.`.`.`.`.`.`.`.`.`.`.",
"`.`.`.`.`.`.`.`.`.`.`.`.`.`.`.`.`.r.R.).).~.~.~.~.~.~.~.~.~.~.~.~.~.~.~.~.!.^.!.~.~.~.~.~.~.~.~.~.~.~.~.~.~.^.(.3.`.`.`.`.`.`.`.`.`.`.`.`.`.`.`.`.`.`.",
"`.`.`.`.`.`.`.`.`.`.`.c j `.`.6.H.).(.^.~.~.~.~.~.~.~.~.~.~.~.~.~.~.~.~.~.^.!.!.~.~.~.~.~.~.~.~.~.~.~.~.~.~.^.).j.`.`.`.`.`.`.`.`.`.`.`.`.`.`.`.`.`.`.",
"`.`.`.`.`.`.`.`.3.c.F.K.Y.b.j.).)./.~.~.~.~.~.~.~.~.~.~.~.~.~.~.~.~.~.~.~.~.~.~.~.~.~.~.~.~.~.~.~.~.~.~.~.~.~.).D.`.`.`.`.`.`.`.`.`.`.`.`.`.`.`.`.`.`.",
"`.`.`.`.`.`.`.`.i.).).(.(.).).^.~.~.~.~.~.~.~.~.~.~.~.~.~.~.~.~.~.~.~.~.~.~.~.~.~.~.~.~.~.~.~.~.~.~.~.~.~.~.~.^.^.L `.`.`.`.`.`.`.`.`.`.`.`.`.`.`.`.`.",
"`.`.`.`.`.`.`.`.`.0.(.).^.~.~.~.~.~.~.~.~.~.~.~.~.~.~.~.~.~.^.^.~.~.~.~.~.~.~.~.~.~.~.(.).).).~.~.~.~.~.~.~.~.~.).w.`.`.`.`.`.`.`.`.`.`.`.`.`.`.`.`.`.",
"`.`.`.`.`.`.`.`.`.`.`.H.^.~.~.~.~.~.~.~.~.~.~.~.~.~.~.~.~.^.^.~.~.~.~.~.~.~.~.^.~.~.^.Q.v.V N.).~.~.~.~.~.~.~.~.).j.`.`.`.`.`.`.`.`.`.`.`.`.`.`.`.`.`.",
"`.`.`.`.`.`.`.`.`.`.`.`.P.(.^.~.~.~.~.~.~.~.~.~.~.~.~.~.^.P.b.(.~.!.!.!.~.!.(.).).(.).j.e.l.; F.(.~.~.~.~.~.~.~.).V.`.`.`.`.`.`.`.`.`.`.`.`.`.`.`.`.`.",
"`.`.`.`.`.`.`.`.`.`.`.b W.(.!.~.~.~.~.~.~.~.~.~.~.(.).^.(.N.0.).~.^.^.(.!.(.~.A J E.).q.9.).O a.).~.~.~.~.~.~.~.(.I.l `.`.`.`.`.`.`.`.`.`.`.`.`.`.`.`.",
"`.`.`.`.`.`.`.`.`.`.`.b ^.(.~.!.~.~.~.~.~.~.~.~.).K.t.U.).z.4.).!.(.(.!.).).S x B b.).q.a.s.. _.(.~.~.~.~.~.~.~.(.^.b `.`.`.`.`.`.`.`.`.`.`.`.`.`.`.`.",
"`.`.`.`.`.`.`.`.`.`.`.b (.(.~.^.~.~.~.~.~.~.~.).l.> I U.).j.4.).(.(.S p Z.).> N M.(.).k.> h c.).!.~.~.~.~.~.~.~.^.(.D `.`.`.`.`.`.`.`.`.`.`.`.`.`.`.`.",
"`.`.`.`.`.`.`.`.`.`.`.Z W.(.!.!.~.~.~.~.~.~.(.C.i S.).^.).s.2.).).6.i M j.).M v ).(.).s.< (.).!.~.~.~.~.~.~.~.~.~.).7.`.`.`.`.`.`.`.`.`.`.`.`.`.`.`.`.",
"`.`.`.`.`.`.`.`.`.`.`.c T.(.!.^.~.~.~.~.~.~.).2.2.)./.~.).j.J ).).x O l.).(.Q.7.7.g.).y.1.).!.!.~.~.~.~.~.~.~.~.~.).0.`.`.`.`.`.`.`.`.`.`.`.`.`.`.`.`.",
"`.`.`.`.`.`.`.`.`.`.`.c L.(.^.!.~.~.~.~.~.~.(.S.a k.).).).b.H ).).4.  J.).~.(.).W.U.).y.S ).~.~.~.~.~.~.~.~.~.~.~.).8.`.`.`.`.`.`.`.`.`.`.`.`.`.`.`.`.",
"`.`.`.`.`.`.`.`.`.`.`.`.D.).!.!.~.~.~.~.~.~.~.).x.v A F E.(.N !.(.).P n g.(.^.~.^.^.).a.B ).~.~.~.~.~.~.~.~.~.~.~.).0.`.`.`.`.`.`.`.`.`.`.`.`.`.`.`.`.",
"`.`.`.`.`.`.`.`.`.`.`.`.B.).~.~.~.~.~.~.~.~.~.~.).).C.H 1 E.1.s.).^.).^.P.^.~.~.~.~.).j.J ).~.~.~.~.~.~.~.~.~.~.~.).0.`.`.`.`.`.`.`.`.`.`.`.`.`.`.`.`.",
"`.`.`.`.`.`.`.`.`.`.`.`.p.).~.~.~.~.~.~.~.~.~.~.~.~.).).a K R.1.Q.^.~.^.^.~.~.~.~.~.(.N.0.).~.~.~.~.~.~.~.~.~.~.~.).0.`.`.`.`.`.`.`.`.`.`.`.`.`.`.`.`.",
"`.`.`.`.`.`.`.`.`.`.`.`.9.).~.~.~.~.~.~.~.~.~.~.!.).).g.* C.).Z.F.(.~.~.~.~.~.~.~.~.(.D.a.).~.~.~.~.^.~.~.~.~.~.~.).8.`.`.`.`.`.`.`.`.`.`.`.`.`.`.`.`.",
"`.`.`.`.`.`.`.`.`.`.`.`.K (.^.~.~.~.~.~.~.~.~.^.^.i.c ; c.).~.(.^.~.~.~.~.~.~.~.~.~.^.T.U.^.~.~.~.~.~.~.~.~.~.~.~.).8.`.`.`.`.`.`.`.`.`.`.`.`.`.`.`.`.",
"`.`.`.`.`.`.`.`.`.`.`.`.`.Z.).~.~.~.~.~.~.~.~.^.~.v.y.^.).~.~.~.^.~.~.~.~.~.~.~.~.~.~.^.(.~.~.~.~.~.~.~.~.~.~.~.~.).y.`.`.`.`.`.`.`.`.`.`.`.`.`.`.`.`.",
"`.`.`.`.`.`.`.`.`.`.`.`.`.q.).~.~.~.~.~.~.~.~.~.~.).).(.~.~.~.~.~.~.~.~.~.~.~.~.~.~.~.~.~.~.~.~.~.~.~.~.~.~.~.~.~.^.(.`.`.`.`.`.`.`.`.`.`.`.`.`.`.`.`.",
"`.`.`.`.`.`.`.`.`.`.`.`.`.4.^.^.~.~.~.~.~.~.~.~.~.~.!.!.~.~.~.~.~.~.~.~.~.~.~.~.~.~.~.~.~.~.~.~.~.~.~.~.~.~.~.~.~.~.).!.`.`.`.`.`.`.`.`.`.`.`.`.`.`.`.",
"`.`.`.`.`.`.`.`.`.`.`.`.`.3.v.).~.~.~.~.~.~.~.~.~.~.~.!.~.~.~.~.~.~.~.~.~.~.~.~.~.~.~.~.~.~.~.~.~.~.~.~.~.~.~.~.~.^.!.).C.`.`.`.`.`.`.`.`.`.`.`.`.`.`.",
"`.`.`.`.`.`.`.`.`.`.`.`.`.`.y.).~.~.~.~.~.~.~.~.~.~.~.~.~.~.~.~.~.~.~.~.~.~.~.~.~.~.~.~.~.~.~.~.~.~.~.~.~.~.^.).).).).).(.`.`.`.`.`.`.`.`.`.`.`.`.`.`.",
"`.`.`.`.`.`.`.`.`.`.`.`.`.`.K W.(.~.~.~.~.~.~.~.~.~.~.~.~.~.~.~.~.~.~.~.~.~.~.~.~.~.~.~.~.~.~.~.~.~.~.!.^.).).S.I P x.U.).L.`.`.`.`.`.`.`.`.`.`.`.`.`.",
"`.`.`.`.`.`.`.`.`.`.`.`.`.`.`.v.).~.~.~.~.~.~.~.~.~.~.~.~.~.~.~.~.~.~.~.~.~.~.~.~.~.~.~.~.~.~.~.~.~.(.).).H.I `.`.`.`.f 8.r.`.`.`.`.`.`.`.`.`.`.`.`.`.",
"`.`.`.`.`.`.`.`.`.`.`.`.`.`.`.J (.^.~.~.~.~.~.~.~.~.~.~.~.~.~.~.~.~.~.~.~.~.~.~.~.~.~.~.~.~.~.^.).).W.M.6.`.`.`.`.`.`.`.`.`.`.`.`.`.`.`.`.`.`.`.`.`.`.",
"`.`.`.`.`.`.`.`.`.`.`.`.`.`.`.`.f.).^.~.~.~.~.~.~.~.~.~.~.~.~.~.~.~.~.~.~.~.~.~.~.~.~.~.~.(.).).M.I b `.`.`.`.`.`.`.`.`.`.`.`.`.`.`.`.`.`.`.`.`.`.`.`.",
"`.`.`.`.`.`.`.`.`.`.`.`.`.`.`.`.K Q.^.^.~.~.~.~.~.~.~.~.~.~.~.~.~.~.~.~.~.~.~.~.^.(.).).).I.r.Z `.`.`.`.`.`.`.`.`.`.`.`.`.`.`.`.`.`.`.`.`.`.`.`.`.`.`.",
"`.`.`.`.`.`.`.`.`.`.`.`.`.`.`.`.p.).~.^.~.!.^.).).(.).).(.(.^.~.~.~.~.~.(.).).).).I.k.6.3.N `.`.`.`.`.`.`.`.`.`.`.`.`.`.`.`.`.`.`.`.`.`.`.`.`.`.`.`.`.",
"`.`.`.`.`.`.`.`.`.`.`.`.`.`.`.`.D.).~.^.).).^.p.m.G.D.V.L.W.).).).).).).U.b.0.H v a `.`.`.`.`.`.`.`.`.`.`.`.`.`.`.`.`.`.`.`.`.`.`.`.`.`.`.`.`.`.`.`.`.",
"`.`.`.`.`.`.`.`.`.`.`.`.`.`.`.6.).).).(.Z.i.w.`.`.`.`.u u s C 0.e.e.0.2.h ; `.`.`.`.`.`.`.`.`.`.`.`.`.`.`.`.`.`.`.`.`.`.`.`.`.`.`.`.`.`.`.`.`.`.`.`.`.",
"`.`.`.`.`.`.`.`.`.`.`.`.`.`.`.L c.h.6.N `.`.`.`.`.`.`.`.`.`.`.`.`.`.`.`.`.`.`.`.`.`.`.`.`.`.`.`.`.`.`.`.`.`.`.`.`.`.`.`.`.`.`.`.`.`.`.`.`.`.`.`.`.`.`.",
"`.`.`.`.`.`.`.`.`.`.`.`.`.`.`.`.1 `.`.`.`.`.`.`.`.`.`.`.`.`.`.`.`.`.`.`.`.`.`.`.`.`.`.`.`.`.`.`.`.`.`.`.`.`.`.`.`.`.`.`.`.`.`.`.`.`.`.`.`.`.`.`.`.`.`.",
"`.`.`.`.`.`.`.`.`.`.`.`.`.`.`.`.`.`.`.`.`.`.`.`.`.`.`.`.`.`.`.`.`.`.`.`.`.`.`.`.`.`.`.`.`.`.`.`.`.`.`.`.`.`.`.`.`.`.`.`.`.`.`.`.`.`.`.`.`.`.`.`.`.`.`.",
"`.`.`.`.`.`.`.`.`.`.`.`.`.`.`.`.`.`.`.`.`.`.`.`.`.`.`.`.`.`.`.`.`.`.`.`.`.`.`.`.`.`.`.`.`.`.`.`.`.`.`.`.`.`.`.`.`.`.`.`.`.`.`.`.`.`.`.`.`.`.`.`.`.`.`.",
"`.`.`.`.`.`.`.`.`.`.`.`.`.`.`.`.`.`.`.`.`.`.`.`.`.`.`.`.`.`.`.`.`.`.`.`.`.`.`.`.`.`.`.`.`.`.`.`.`.`.`.`.`.`.`.`.`.`.`.`.`.`.`.`.`.`.`.`.`.`.`.`.`.`.`.",
"`.`.`.`.`.`.`.`.`.`.`.`.`.`.`.`.`.`.`.`.`.`.`.`.`.`.`.`.`.`.`.`.`.`.`.`.`.`.`.`.`.`.`.`.`.`.`.`.`.`.`.`.`.`.`.`.`.`.`.`.`.`.`.`.`.`.`.`.`.`.`.`.`.`.`.",
"`.`.`.`.`.`.`.`.`.`.`.`.`.`.`.`.`.`.`.`.`.`.`.`.`.`.`.`.`.`.`.`.`.`.`.`.`.`.`.`.`.`.`.`.`.`.`.`.`.`.`.`.`.`.`.`.`.`.`.`.`.`.`.`.`.`.`.`.`.`.`.`.`.`.`.",
"`.`.`.`.`.`.`.`.`.`.`.`.`.`.`.`.`.`.`.`.`.`.`.`.`.`.`.`.`.`.`.`.`.`.`.`.`.`.`.`.`.`.`.`.`.`.`.`.`.`.`.`.`.`.`.`.`.`.`.`.`.`.`.`.`.`.`.`.`.`.`.`.`.`.`.",
"`.`.`.`.`.`.`.`.`.`.`.`.`.`.`.`.`.`.`.`.`.`.`.`.`.`.`.`.`.`.`.`.`.`.`.`.`.`.`.`.`.`.`.`.`.`.`.`.`.`.`.`.`.`.`.`.`.`.`.`.`.`.`.`.`.`.`.`.`.`.`.`.`.`.`.",
"`.`.`.`.`.`.`.`.`.`.`.`.`.`.`.`.`.`.`.`.`.`.`.`.`.`.`.`.`.`.`.`.`.`.`.`.`.`.`.`.`.`.`.`.`.`.`.`.`.`.`.`.`.`.`.`.`.`.`.`.`.`.`.`.`.`.`.`.`.`.`.`.`.`.`.",
"`.`.`.`.`.`.`.`.`.`.`.`.`.`.`.`.`.`.`.`.`.`.`.`.`.`.`.`.`.`.`.`.`.`.`.`.`.`.`.`.`.`.`.`.`.`.`.`.`.`.`.`.`.`.`.`.`.`.`.`.`.`.`.`.`.`.`.`.`.`.`.`.`.`.`.",
"`.`.`.`.`.`.`.`.`.`.`.`.`.`.`.`.`.`.`.`.`.`.`.`.`.`.`.`.`.`.`.`.`.`.`.`.`.`.`.`.`.`.`.`.`.`.`.`.`.`.`.`.`.`.`.`.`.`.`.`.`.`.`.`.`.`.`.`.`.`.`.`.`.`.`.",
"`.`.`.`.`.`.`.`.`.`.`.`.`.`.`.`.`.`.`.`.`.`.`.`.`.`.`.`.`.`.`.`.`.`.`.`.`.`.`.`.`.`.`.`.`.`.`.`.`.`.`.`.`.`.`.`.`.`.`.`.`.`.`.`.`.`.`.`.`.`.`.`.`.`.`.",
"`.`.`.`.`.`.`.`.`.`.`.`.`.`.`.`.`.`.`.`.`.`.`.`.`.`.`.`.`.`.`.`.`.`.`.`.`.`.`.`.`.`.`.`.`.`.`.`.`.`.`.`.`.`.`.`.`.`.`.`.`.`.`.`.`.`.`.`.`.`.`.`.`.`.`."
};
