/* XPM */
static char *result[] = {
/* columns rows colors chars-per-pixel */
"75 60 141 2 ",
"   c #060606",
".  c #0A0706",
"X  c #04070A",
"o  c #060809",
"O  c #0C0D0D",
"+  c #13100A",
"@  c #0B151F",
"#  c #141514",
"$  c #1C1714",
"%  c #1D1815",
"&  c #1C1919",
"*  c #231702",
"=  c #2B1A03",
"-  c #221D1A",
";  c #141A24",
":  c #1F1E23",
">  c #0F2239",
",  c #1B2A38",
"<  c #252424",
"1  c #282423",
"2  c #2D2B2B",
"3  c #23252B",
"4  c #322D2B",
"5  c #35312E",
"6  c #333637",
"7  c #383735",
"8  c #35373A",
"9  c #3D3D3C",
"0  c #46423F",
"q  c #7D613B",
"w  c #3F4343",
"e  c #3E4D5D",
"r  c #474240",
"t  c #494544",
"y  c #4B4B4B",
"u  c #524E4A",
"i  c #494E50",
"p  c #565554",
"a  c #66615E",
"s  c #465E75",
"d  c #5E717E",
"f  c #6D6D6D",
"g  c #75716E",
"h  c #70787C",
"j  c #787776",
"k  c #926828",
"l  c #967035",
"z  c #817C79",
"x  c #BB8430",
"c  c #DF9D3C",
"v  c #AB8041",
"b  c #CB9845",
"n  c #E9A840",
"m  c #F5B147",
"M  c #F7B44E",
"N  c #FCB549",
"B  c #FAB347",
"V  c #215085",
"C  c #3D5E82",
"Z  c #375E89",
"A  c #37608C",
"S  c #3B608C",
"D  c #396591",
"F  c #386FAC",
"G  c #366DAA",
"H  c #3A72AF",
"J  c #3C75B6",
"K  c #3D79B6",
"L  c #3B77B8",
"P  c #3D7CBE",
"I  c #4C6886",
"U  c #527094",
"Y  c #4372A5",
"T  c #4376AF",
"R  c #4D7BA9",
"E  c #457BB5",
"W  c #447DBC",
"Q  c #3F7EC3",
"!  c #407FC4",
"~  c #788186",
"^  c #4F80B5",
"/  c #5489BE",
"(  c #648EB9",
")  c #3F80C4",
"_  c #4381C5",
"`  c #4B85C6",
"'  c #4B88C9",
"]  c #598FC5",
"[  c #538BCA",
"{  c #598DC9",
"}  c #5D91CA",
"|  c #6192C3",
" . c #6399D2",
".. c #7CA3C6",
"X. c #79A9D8",
"o. c #8B8D8C",
"O. c #848F91",
"+. c #9DA7AC",
"@. c #A4B0B5",
"#. c #B9B9B9",
"$. c #8CADCA",
"%. c #86AED5",
"&. c #89B3DC",
"*. c #97B9DC",
"=. c #A4BDCB",
"-. c #B6C0C5",
";. c #BBC5CB",
":. c #B8CAD3",
">. c #A2C4E3",
",. c #A7CAE6",
"<. c #B1CEE0",
"1. c #BFD7EF",
"2. c #BDDBED",
"3. c #B8D3E2",
"4. c #AACFF3",
"5. c #B5D8F7",
"6. c #BDDDF4",
"7. c #BFE1FA",
"8. c #C7D3DB",
"9. c #C9D5DD",
"0. c #CBD8DE",
"q. c #C1D7E2",
"w. c #C6DCEF",
"e. c #D2DEE6",
"r. c #C4DDF2",
"t. c #C8E1EC",
"y. c #D2E0E7",
"u. c #D4E1E9",
"i. c #D8E5ED",
"p. c #CCE3F5",
"a. c #D2E7F4",
"s. c #D0E8F6",
"d. c #DCEBF4",
"f. c #D4EFF9",
"g. c #DDF2FE",
"h. c #E0EDF5",
"j. c #E5F6FD",
"k. c #E8F7FE",
"l. c #E6F8FE",
"z. c #E9F8FF",
"x. c #449620",
/* pixels */
"x.x.x.x.x.x.x.x.x.x.x.x.x.x.x.x.x.x.x.x.x.x.x.x.x.x.x.x.x.x.x.x.x.x.x.x.x.x.x.x.x.x.x.x.x.x.x.x.x.x.x.x.x.x.x.x.x.x.x.x.x.x.x.x.x.x.x.x.x.x.x.x.x.x.x.",
"x.x.x.x.x.x.x.x.x.x.x.x.x.x.x.x.x.x.x.x.x.x.x.x.x.x.x.x.x.x.x.x.x.x.x.x.x.x.x.x.x.x.x.x.x.x.x.x.x.x.x.x.x.x.x.x.x.x.x.x.x.x.x.x.x.x.x.x.x.x.x.x.x.x.x.",
"x.x.x.x.x.x.x.x.x.x.x.x.x.x.x.x.x.x.x.x.x.x.x.x.x.x.x.x.x.x.x.x.x.x.x.x.x.x.x.x.x.x.x.x.x.x.x.x.x.x.x.x.x.x.x.x.x.x.x.x.x.x.x.x.x.x.x.x.x.x.x.x.x.x.x.",
"x.x.x.x.x.x.x.x.x.x.x.x.x.x.x.x.x.x.x.x.x.x.x.x.x.x.x.x.x.x.x.x.x.x.x.x.x.x.x.x.x.x.x.x.x.x.x.x.x.x.x.x.x.x.x.x.x.x.x.9 x.x.x.x.x.x.x.x.x.x.x.x.x.x.x.",
"x.x.x.x.x.x.x.x.x.x.x.x.x.x.x.x.x.x.x.x.x.x.x.x.x.x.x.x.x.x.x.x.x.x.x.x.x.x.x.x.x.x.x.x.x.x.x.  . x.x.x.x.x.x.x.x.x.f N m     x.x.x.x.x.x.x.x.x.x.x.x.",
"x.x.x.x.x.x.x.x.x.x.x.x.x.x.x.x.x.x.x.x.x.x.x.x.x.x.x.x.x.x.x.x.x.x.x.x.x.x.x.x.x.x.x.x.x.N N N M x.x.x.x.x.x.x.x.x.q N N N N + . x.x.x.x.x.x.x.x.x.x.",
"x.x.x.x.x.x.x.x.x.x.x.x.x.x.x.x.x.x.x.x.x.x.x.x.x.x.x.x.x.x.x.x.x.x.x.x.x.x.x.x.x.x.x.x.x.= N N N x.x.x.x.x.x.x.x.  N B B B N 2 x.x.x.x.x.x.x.x.x.x.x.",
"x.x.x.x.x.x.x.x.x.x.x.x.x.x.x.x.x.x.x.x.x.x.x.x.x.x.x.x.x.x.x.x.x.x.x.x.x.x.x.x.x.x.x.x.x.x.N N N x.x.x.x.x.x.x.x.l N N B M < x.x.x.x.x.x.x.x.x.x.x.x.",
"x.x.x.x.x.x.x.x.x.x.x.x.x.x.x.x.x.x.x.x.x.x.x.x.x.x.x.x.x.x.x.x.x.x.x.x.x.x.x.x.x.x.x.x.x.x.  N N x.x.x.x.x.x.x.  N N N k 3 x.x.x.x.x.x.x.x.x.x.x.x.x.",
"x.x.x.x.x.x.x.x.x.x.x.x.x.x.x.x.x.x.x.x.x.x.x.x.x.x.x.x.x.x.x.x.x.x.x.x.x.x.x.x.x.x.x.x.x.x.O N N 9 x.x.x.x.x.< b N N * 0 x.x.x.x.x.x.x.x.x.x.x.x.x.x.",
"x.x.x.x.x.x.x.x.x.x.x.x.x.x.x.x.x.x.x.x.x.x.x.x.x.x.x.x.x.x.x.x.x.x.x.x.x.x.x.x.x.x.x.x.x.x.x.  N . x.x.x.x.x.  N N   j x.x.x.x.x.x.x.x.x.x.x.x.x.x.x.",
"x.x.x.x.x.x.x.x.x.x.x.x.x.x.x.x.x.x.x.x.x.x.x.x.x.x.x.x.x.x.x.x.x.x.x.x.x.x.x.x.x.x.x.x.x.x.x.  N   x.x.x.x.o N N   x.x.x.x.x.x.x.x.x.x.x.x.x.x.x.x.x.",
"x.x.x.x.x.x.x.x.x.x.x.x.x.x.x.x.x.x.x.x.x.x.x.x.x.x.x.x.x.x.x.x.x.x.x.x.x.x.x.x.x.x.x.x.x.x.x.x.O   x.x.x.x.  N . x.x.x.x.x.x.x.x.x.x.x.x.x.#.x.x.x.x.",
"x.x.x.x.x.x.x.x.x.x.x.x.x.x.x.x.x.x.x.x.x.x.x.x.x.x.x.x.x.x.x.x.x.x.x.x.x.x.x.x.x.x.x.x.x.x.x.x.x.x.x.x.x.x..   x.x.x.x.x.x.x.x.x.x.x.  v N N   x.x.x.",
"x.x.x.x.x.x.x.x.x.x.x.x.x.x.x.x.x.x.x.x.x.x.x.x.x.x.x.x.x.x.x.x.x.x.x.x.x.x.x.x.x.x.x.x.x.x.x.x.x.x.x.x.x.x.x.x.x.x.x.x.x.x.x.y   x N N N N N N x.x.x.",
"x.x.x.x.x.x.x.x.x.x.x.x.x.x.x.x.x.x.x.x.x.x.x.x.x.x.x.x.x.x.x.x.x.x.x.x.x.x.x.x.x.x.x.x.x.x.x.x.x.x.x.x.x.x.x.x.% x.x.x.x.x.+ N N N N N N m n c   x.x.",
"x.x.x.x.x.x.x.x.x.x.x.x.x.x.x.x.x.x.x.x.x.x.x.x.x.x.x.x.x.x.x.x.x.x.x.x.x.x.x.x.x.x.x.x.x.x.x.x.x.x.x.x.x.x.% k.g.$ x.x.x.x.p x.x.x.x.x.x.x.x.x.x.x.x.",
"x.x.x.x.x.x.x.x.x.x.x.x.x.x.x.x.x.x.x.x.x.x.x.x.x.x.x.x.x.x.x.x.x.x.x.x.x.x.x.x.x.x.x.x.x.x.x.x.x.x.x.x.u z.k.k.l.& x.x.x.x.x.x.x.x.x.x.x.x.x.x.x.x.x.",
"x.x.x.x.x.x.x.x.x.x.x.x.x.x.x.x.x.x.x.x.x.x.x.x.x.x.x.x.x.x.x.x.x.x.x.x.x.x.x.x.x.x.x.x.x.x.t % $ % 9 % d.l.z.z.g.& x.x.x.x.x.x.x.x.x.x.x.x.x.x.x.x.x.",
"x.x.x.x.x.x.x.x.x.x.x.x.x.x.x.x.x.x.x.x.x.x.x.x.x.x.x.x.x.x.x.x.x.x.x.x.1 % $ $ 4 - - o.k.z.z.k.4.Q Q _ ! j.l.z.2.$ x.x.x.x.x.x.x.x.x.x.x.x.x.x.x.x.x.",
"x.x.x.x.x.x.x.x.x.x.x.x.x.x.x.x.x.x.x.x.x.x.x.x.x.x.x.x.x.x.$ $ $ - ; E ! Q Q ! _ k.k.k.z.z.l.k.l.( _ Q Q Q z.z.2.% x.x.x.x.x.x.x.x.x.x.x.x.x.x.x.x.x.",
"x.x.x.x.x.x.x.x.x.x.x.x.x.x.x.x.x.x.x.x.x.x.x.x.x.$ $ % % k.k.k.k.k.j.Q Q Q Q ! ! ! k.k.k.k.z.k.z.k.Q Q _ Q g.z.2.% x.x.x.x.x.x.x.x.x.x.x.x.x.x.x.x.x.",
"x.x.x.x.x.x.x.x.x.x.x.x.x.x.x.x.x.x.x.x.x.x.% % U Q ! k.k.k.k.k.j.k.k.k.{ Q Q ! ! ! h.k.z.k.z.k.z.k.k.Q Q Q Q z.j.Q % x.x.x.x.x.x.x.x.x.x.x.x.x.x.x.x.",
"x.x.x.x.x.x.x.x.x.x.x.x.x.x.x.x.x.x.x.$ % j.Q J ! ! Q Q z.j.k.k.k.k.k.k.k.! Q ! ! ! ! z.k.k.k.z.z.k.k.W Q _ Q >.k.j.I x.x.x.x.x.x.x.x.x.x.x.x.x.x.x.x.",
"x.x.x.x.x.x.x.x.x.x.x.x.x.x.x.x.$ % z.k.k.k.z.! _ Q Q Q Q z.j.z.k.k.k.k.k.*.! W ! Q ! ! k.k.k.k.z.z.z.z.Q _ Q Q z.z.Q % x.x.x.x.x.x.x.x.x.x.x.x.x.x.x.",
"x.x.x.x.x.x.x.x.x.x.x.x.x.t $ ! Q k.k.k.k.k.k.z.Q Q Q Q Q _ k.z.0.z.k.k.k.k.Q Q Q Q ! Q k.j.k.k.z.k.z.k.! _ Q ! j.z.,.C x.x.x.x.x.x.x.x.x.x.x.x.x.x.x.",
"x.x.x.x.x.x.x.x.x.x.x.- $ Q Q Q ! ..k.z.k.z.k.k.! Q Q Q Q Q Q 9.k.k.k.z.k.k.k.Q ! Q ! Q W j.k.k.z.k.k.k.k.} [ Q Q k.k.Q % x.x.x.x.x.x.x.x.x.x.x.x.x.x.",
"x.x.% $ - I 6.:.- 5 1 k.k.Q Q Q Q ! k.z.k.k.k.z.k.Q Q Q Q Q _ j.z.z.k.k.k.k.k.Q ! Q ! Q Q j.k.k.k.k.k.k.j.Q Q Q Q j.k.Q > x.x.x.x.x.x.x.x.x.x.x.x.x.x.",
"x.x.- k.k.k.k.k.3 k.k.k.k.k.Q Q Q Q k.k.k.z.k.k.k._ ! ! H F F Q k.k.k.z.k.z.z.j.Q Q ! Q ! w.k.k.k.k.k.k.k._ Q Q Q  .k.6.Q $ x.x.x.x.x.x.x.x.x.x.x.x.x.",
"x.x.x.$ k.z.k.k.! k.k.k.k.k.! ! Q ! Q z.z.z.k.k.z.k.! J W K _ Q j.z.z.z.k.z.z.z.! ! ! ! ! ! k.k.k.k.z.k.j.l.Q Q ! ! k.k.! % x.x.x.x.x.x.x.x.x.x.x.x.x.",
"x.x.x.x.x.2 k.! W k.k.j.k.k.! ! ! ! Q k.z.z.k.z.z.z.! ! Q _ Q Q Q z.z.z.z.z.z.z.W ! ! ! ! Q 7 t z.k.k.z.k.k.Q Q ! Q k.k.! : x.x.x.x.x.x.x.x.x.x.x.x.x.",
"x.x.x.x.x.x.% ! Q j.k.k.k.k.j.! ! ! Q _ k.z.z.z.k.k.9.! , Q Q _ Q $.k.z.k.z.z.z.k.Q Q Q ! X W +.. k.k.k.k.z.Q Q Q Q j.z.Q Q % x.x.x.x.x.x.x.x.x.x.x.x.",
"x.x.x.x.x.x.% ! Q k.k.z.k.k.k.Q ! Q Q ! k.k.z.z.k.k.j.!   Q ! Q Q ! k.k.k.k.j.~ o Q ! Q Q   Q k.  k.k.j.j.z.Q Q Q Q Q k.p.! % x.x.x.x.x.x.x.x.x.x.x.x.",
"x.x.x.x.x.x.% ! Q k.l.j.k.j.k.Q ! Q ! ! j.z.z.z.k.k.k.w.  Q Q ! ! Q k.k.k.k.h   k.  ! Q Q   ! i   k.k.z.z.k.Q Q Q ! Q k.j.! % x.x.x.x.x.x.x.x.x.x.x.x.",
"x.x.x.x.x.x.% ! ! j.k.k.k.k.k.w.! ! ! ! ! k.O # k.k.k.k.  Q Q ! Q   o   k.k.  k.  ;.G L Q   D   j.z.k.k.z.z.*.! ! Q [ j.z.! % x.x.x.x.x.x.x.x.x.x.x.x.",
"x.x.x.x.x.x.% ! _ W k.k.k.j.k.k.Q ! ! Q ! # z.k.k.k.j.k.  ! Q ! L   Q   z.k.  O k.j.Q Q !   C ! k.z.k.k.k.z.j.! ! Q Q j.z.! 7 x.x.x.x.x.x.x.x.x.x.x.x.",
"x.x.x.x.x.x.% ! Q Q j.z.z.k.z.k.! ! _ ! !   k.k.k.k.k.k.  ! ! !       k.k.k.z.        Q Q   Q Q k.k.z.z.k.k.k.! ! ! ! j.k.X.e x.x.x.x.x.x.x.x.x.x.x.x.",
"x.x.x.x.x.x.& ! Q Q k.z.z.j.j.k.} ! ! ` !   k.k.j.k.k.k.  Z ! ! V   Q k.k.k.k.k.d.k.W Q Q   Q Q z.j.z.j.k.z.z.Q Q ! ! k.k.2.A x.x.x.x.x.x.x.x.x.x.x.x.",
"x.x.x.x.x.x.$ Q Q Q g.z.k.k.k.k.z.Q ! ! ! !         k.k.  o Q Q !         k.z.j.k.z.j.Q !   ! Q k.k.k.k.j.z.z.Q Q ! ) k.j.2.T g x.x.x.x.x.x.x.x.x.x.x.",
"x.x.x.x.x.x.$ ) _ _ Q z.z.k.z.z.z.! ! ! ! ! d.k.k.6     k.o Q Q ! ! ! ! 8.k.k.j.k.j.j.J !   Q ! z.z.k.z.k.k.z.Q ! Q ) z.z.a.E z x.x.x.x.x.x.x.x.x.x.x.",
"x.x.x.x.x.x.x.r ! ! Q z.k.j.z.k.k.! Q Q Q Q Q k.k.k.    k..   Q Q ! ! ! k.k.k.j.k.z.z.) !   ! ! l.z.k.z.k.k.k.! ! Q Q z.z.j.Y x.x.x.x.x.x.x.x.x.x.x.x.",
"x.x.x.x.x.x.x.$ ! ! ! | j.u.z.z.j.p._ Q _ Q _ z.k.O   @.z.k.@ W ! Q ! ! j.k.k.k.k.z.k._ ! o ! ! k.z.z.z.k.k.k.! ! Q Q z.z.z.Z x.x.x.x.x.x.x.x.x.x.x.x.",
"x.x.x.x.x.x.x.$ ^ _ Q Q k.k.k.z.j.k.Q ! Q !     . . k.z.z.k.! ! ' ! ! ! k.k.k.z.z.z.k.! ! R Q Q l.z.z.z.k.u.k.! ! Q Q z.z.z.S x.x.x.x.x.x.x.x.x.x.x.x.",
"x.x.x.x.x.x.x.x.=.Q ! ! 6.k.z.z.j.l.! Q Q ! ! j.k.k.k.k.z.k.! [ ! ! ! ! k.k.k.k.z.z.z.! ! ! Q Q u.k.z.z.9.u.h.! ! Q ! z.z.z.s x.x.x.x.x.x.x.x.x.x.x.x.",
"x.x.x.x.x.x.x.x.$ Y H ! ! k.k.k.z.k.) Q ! Q Q ] k.k.k.k.k.k.! ! ! Q Q Q k.k.k.z.z.z.k.! ! ! ! Q k.z.d.h.j.k.g._ Q Q _ z.z.z.k.j.x.x.x.x.x.x.x.x.x.x.x.",
"x.x.x.x.x.x.x.x.$ j.! ! ! p.z.k.k.z.r.Q Q _ Q Q k.k.k.k.k.k.{ ! ! Q ! Q z.k.k.z.k.k.k.Q ! ! ! ! z.z.i.e.z.k.E _ Q Q z.z.z.z.k.k.a x.x.x.x.x.x.x.x.x.x.",
"x.x.x.x.x.x.x.x.x.$ z.! ! ! k.k.z.z.k.! Q Q Q Q k.k.k.k.k.k.` ! ! Q Q Q k.k.k.z.z.j.k.! Q Q Q Q e.u.8.j.j.z.Q Q Q _ k.j.z.j.k.z.k.$ x.x.x.x.x.x.x.x.x.",
"x.x.x.x.x.x.x.x.x.$ k.! ! ! ] k.k.k.k.Q Q Q Q Q k.k.z.z.k.k.,.Q ! ! Q ! k.k.k.k.k.z.k.! ! Q Q P 8.k.j.k.j.u.Q Q Q >.l.l.2.$ j.k.k.k.$ x.x.x.x.x.x.x.x.",
"x.x.x.x.x.x.x.x.x.x.% k.! ! Q k.k.j.k.Q Q Q Q Q k.z.z.k.z.z.k.Q Q ` Q Q j.z.z.k.k.z.j.Q Q Q Q k.k.k.k.k.z.z.! Q Q 2.=.% p % % % 2.2.;.x.x.x.x.x.x.x.x.",
"x.x.x.x.x.x.x.x.x.x.r z.k.P ! ! k.k.z.Q ! Q Q Q k.j.k.k.j.z.k.Q ) Q ! Q z.k.z.k.k.z.k.Q Q ! Q k.k.k.k.k.k.k.! W $ z x.x.x.x.x.x.x.5 $ x.x.x.x.x.x.x.x.",
"x.x.x.x.x.x.x.x.x.x.x.% z.j.Q Q k.k.k.Q ! Q Q Q j.k.k.k.k.k.j.Q Q Q Q Q k.k.j.z.k.z.k.Q Q ! ! k.k.k.g.2.2.% $ x.x.x.x.x.x.x.x.x.x.x.x.x.x.x.x.x.x.x.x.",
"x.x.x.x.x.x.x.x.x.x.x.x.$ k.k.Q ! k.l.&.Q ! ! Q z.z.k.z.z.k.j.Q ! ) Q j.k.z.z.k.z.z.k.! Q ! ! 2.2.2.$ $ x.x.x.x.x.x.x.x.x.x.x.x.x.x.x.x.x.x.x.x.x.x.x.",
"x.x.x.x.x.x.x.x.x.x.x.x.% $ k.k.Q Q k.a.Q ! ! ! z.z.z.z.z.z.%._ ! _ Q j.k.z.z.k.k.2.5.! Q Q ; % % x.x.x.x.x.x.x.x.x.x.x.x.x.x.x.x.x.x.x.x.x.x.x.x.x.x.",
"x.x.x.x.x.x.x.x.x.x.x.% k.k.k.k.k.Q % :.! ! ! Q 2.2.2.2.2.2.Q Q ! ! ! 2.2.6.2.2.2.q.$ % % x.x.x.x.x.x.x.x.x.x.x.x.x.x.x.x.x.x.x.x.x.x.x.x.x.x.x.x.x.x.",
"x.x.x.x.x.x.x.x.x.x.x.% k.k.k.k.f.2.>.% x.x.- $ $ % % % O.3._ _ ! _ T 2 % % % % x.x.x.x.x.x.x.x.x.x.x.x.x.x.x.x.x.x.x.x.x.x.x.x.x.x.x.x.x.x.x.x.x.x.x.",
"x.x.x.x.x.x.x.x.x.x.- k.w.2.6.$ $ - x.x.x.x.x.x.x.x.x.x.x.x.x.x.x.x.x.x.x.x.x.x.x.x.x.x.x.x.x.x.x.x.x.x.x.x.x.x.x.x.x.x.x.x.x.x.x.x.x.x.x.x.x.x.x.x.x.",
"x.x.x.x.x.x.x.x.x.x.x.g t x.x.x.x.x.x.x.x.x.x.x.x.x.x.x.x.x.x.x.x.x.x.x.x.x.x.x.x.x.x.x.x.x.x.x.x.x.x.x.x.x.x.x.x.x.x.x.x.x.x.x.x.x.x.x.x.x.x.x.x.x.x.",
"x.x.x.x.x.x.x.x.x.x.x.x.x.x.x.x.x.x.x.x.x.x.x.x.x.x.x.x.x.x.x.x.x.x.x.x.x.x.x.x.x.x.x.x.x.x.x.x.x.x.x.x.x.x.x.x.x.x.x.x.x.x.x.x.x.x.x.x.x.x.x.x.x.x.x.",
"x.x.x.x.x.x.x.x.x.x.x.x.x.x.x.x.x.x.x.x.x.x.x.x.x.x.x.x.x.x.x.x.x.x.x.x.x.x.x.x.x.x.x.x.x.x.x.x.x.x.x.x.x.x.x.x.x.x.x.x.x.x.x.x.x.x.x.x.x.x.x.x.x.x.x.",
"x.x.x.x.x.x.x.x.x.x.x.x.x.x.x.x.x.x.x.x.x.x.x.x.x.x.x.x.x.x.x.x.x.x.x.x.x.x.x.x.x.x.x.x.x.x.x.x.x.x.x.x.x.x.x.x.x.x.x.x.x.x.x.x.x.x.x.x.x.x.x.x.x.x.x."
};
