/* XPM */
static char *_c1e02615b214f5be66f76da509d7905TJ65zwnf9oLTLMGh[] = {
/* columns rows colors chars-per-pixel */
"32 32 14 1 ",
"  c black",
". c #3F3F3A",
"X c #572D4F",
"o c #4D4B76",
"O c #D17C3D",
"+ c #A29E2D",
"@ c #D89C5B",
"# c #E6E14D",
"$ c #3434AD",
"% c #4F44D8",
"& c #7E6CFF",
"* c #C747C4",
"= c #A397FF",
"- c #CBC4FF",
/* pixels */
"oooooooooooooooooooooooooooooooo",
"oooooooooooooooooooooooooooooooo",
"oooooooooooooooooooooooooooooooo",
"oooooooooo           ooooooooooo",
"oooooooo  %&&&&&===&%  ooooooooo",
"ooooooo %&&&&&&%%%&&=&% oooooooo",
"oooooo %&==&&&==&%%%&=&$ ooooooo",
"ooooo %&==&&&&&&=&%%%&&% ooooooo",
"ooooo &==&&%%%%%&&%%%%&%% oooooo",
"oooo $&=&%%%%%%%%%%%%%%%$ oooooo",
"oooo %&&%%$$%%%$$$$$$$$$$ oooooo",
"oooo %&%%$$%%$$          ooooooo",
"oooo %%%%$$%$$ @@@@@@@@ oooooooo",
"oooo $%%$$$%$ O@@  @  @ oooooooo",
"ooooo %%$$$%$ O@@ -@ -@ oooooooo",
"ooooo $%$$$$$ O@@. @. @ oooooooo",
"oooooo $%$$$$ O@@..@..@ oooooooo",
"ooooooo  $$$ OOO@@@@@@O oooooooo",
"ooooooooo   OOOOOOOOOO ooooooooo",
"ooooooooooo            ooooooooo",
"oooooooooo +++   +#### ooooooooo",
"oooooooooo ++ +## #### ooooooooo",
"oooooooooo ++ +## #### ooooooooo",
"oooooooooo ++ +## #### ooooooooo",
"oooooooooo ++     #### ooooooooo",
"oooooooooo ++ O@@ #### ooooooooo",
"oooooooooo ++ O@ +++++ ooooooooo",
"ooooooooooo           oooooooooo",
"oooooooooooo X** X** ooooooooooo",
"oooooooooooo XX** X** oooooooooo",
"oooooooooooo XXXX XXX oooooooooo",
"ooooooooooooo        ooooooooooo"
};
