/* XPM */
static char *result[] = {
/* columns rows colors chars-per-pixel */
"75 70 205 2 ",
"   c #BA7E75",
".  c #1000AB",
"X  c #1F13AD",
"o  c #241DAD",
"O  c #2621AE",
"+  c #2F27AF",
"@  c #2E32AC",
"#  c #3B3DB3",
"$  c #3533B1",
"%  c #3C5E98",
"&  c #3F629F",
"*  c #3156A0",
"=  c #3F44B1",
"-  c #3F62A4",
";  c #4A689C",
":  c #566F9D",
">  c #667A9E",
",  c #474DB4",
"<  c #4C54B4",
"1  c #5C55BB",
"2  c #654DB0",
"3  c #4465A4",
"4  c #4C6BA5",
"5  c #4D6DAA",
"6  c #4667AB",
"7  c #516EA5",
"8  c #516EAA",
"9  c #4F70AA",
"0  c #5471A6",
"q  c #5C75A5",
"w  c #5573AC",
"e  c #5A76AD",
"r  c #5D7AAE",
"t  c #5D79A7",
"y  c #5A66B7",
"u  c #5968B7",
"i  c #5473B1",
"p  c #5A76B1",
"a  c #5D7AB2",
"s  c #627CAE",
"d  c #6D7EA5",
"f  c #6D6EBE",
"g  c #716FBD",
"h  c #637EB3",
"j  c #6774BE",
"k  c #647FB8",
"l  c #6C7BBE",
"z  c #6681AE",
"x  c #6D83AC",
"c  c #7485A4",
"v  c #7485AB",
"b  c #7789AC",
"n  c #6581B4",
"m  c #6A84B5",
"M  c #6F88B7",
"N  c #6682B8",
"B  c #6B85B9",
"V  c #6E89BA",
"C  c #7286B3",
"Z  c #738AB6",
"A  c #7B8DB4",
"S  c #7284BA",
"D  c #748CBC",
"F  c #798FBC",
"G  c #7F91B2",
"H  c #7790BD",
"J  c #7A91BE",
"K  c #768EC0",
"L  c #798FC1",
"P  c #7790C1",
"I  c #7C93C1",
"U  c #7F98C0",
"Y  c #B79980",
"T  c #B9A28E",
"R  c #BDA998",
"E  c #8193B6",
"W  c #8396BC",
"Q  c #839ABE",
"!  c #8A9BBE",
"~  c #8D9BB6",
"^  c #949FBE",
"/  c #9B92A7",
"(  c #93A2BE",
")  c #9DA4BB",
"_  c #A7ABB0",
"`  c #C88E85",
"'  c #C3AD9B",
"]  c #C6AFA0",
"[  c #CBBAAA",
"{  c #C6B4A6",
"}  c #DFB3AF",
"|  c #D7B7B4",
" . c #E4BDBD",
".. c #E3BBB7",
"X. c #D6CABE",
"o. c #D4C2B7",
"O. c #E4C3BF",
"+. c #E8C0BF",
"@. c #8196C2",
"#. c #859AC3",
"$. c #8A9DC5",
"%. c #879BC8",
"&. c #8B9EC8",
"*. c #BA9EC4",
"=. c #8DA1C5",
"-. c #8DA1CA",
";. c #93A4C4",
":. c #97A9C6",
">. c #93A5C9",
",. c #9BABCB",
"<. c #99A9C8",
"1. c #9EB1CC",
"2. c #9BAED4",
"3. c #9FB1D1",
"4. c #A1AFCC",
"5. c #A6ABC2",
"6. c #A3B2CD",
"7. c #AAB5CC",
"8. c #B8BCCC",
"9. c #B6AFD7",
"0. c #A3B4D3",
"q. c #AAB5D4",
"w. c #ABBBD3",
"e. c #ABBDDB",
"r. c #A5B7D6",
"t. c #B2BDD4",
"y. c #B0B3D7",
"u. c #ADAAD9",
"i. c #DCB8C2",
"p. c #B9C3CF",
"a. c #B6C2D5",
"s. c #BBC2D1",
"d. c #B6C3DC",
"f. c #B9C5D9",
"g. c #B8C8E3",
"h. c #C4C2C3",
"j. c #CDCCCA",
"k. c #CCC6C5",
"l. c #D6CAC0",
"z. c #D1CECC",
"x. c #D8C1C1",
"c. c #D2D0CF",
"v. c #DBD0C5",
"b. c #C2C6D1",
"n. c #C2CAD3",
"m. c #C5CCDB",
"M. c #CACBD8",
"N. c #CDD3DC",
"B. c #C5D1DD",
"V. c #D6D3D2",
"C. c #D9D6D5",
"Z. c #DBD8D7",
"A. c #D4D5DC",
"S. c #DDDBDA",
"D. c #D8D8DF",
"F. c #E6C4C3",
"G. c #E7CAC9",
"H. c #E9C1C0",
"J. c #E4D5CC",
"K. c #F0CFD0",
"L. c #EDD4D4",
"P. c #E2DEDD",
"I. c #ECDDDB",
"U. c #E5DAD5",
"Y. c #F5D4CD",
"T. c #E3E1DF",
"R. c #EBE3DD",
"E. c #F2EADF",
"W. c #CBCEE5",
"Q. c #CCD4E2",
"!. c #CAD6E8",
"~. c #D4DBE5",
"^. c #DCDCE2",
"/. c #D5DDE9",
"(. c #D1D5E0",
"). c #E2DFE1",
"_. c #DDE1E6",
"`. c #DDE4EC",
"'. c #E6E3E2",
"]. c #E9E5E5",
"[. c #ECE9E6",
"{. c #ECE7E8",
"}. c #EDEBEA",
"|. c #E4E7EB",
" X c #F1E6E4",
".X c #F2EBE5",
"XX c #FFEBE3",
"oX c #F2EEED",
"OX c #F8E9E6",
"+X c #F7F1E6",
"@X c #FBF2E7",
"#X c #F3F0EF",
"$X c #FCF4EB",
"%X c #FEFAEE",
"&X c #E5EAF0",
"*X c #F5EFF1",
"=X c #EFF1F1",
"-X c #F5F3F2",
";X c #F9F6F4",
":X c #F6F8F5",
">X c #FDFAF5",
",X c #F9F7F9",
"<X c #FEFEFC",
"1X c #F7F9FC",
"2X c None",
/* pixels */
"2X2X2X2X2X2X2X2X2X2X2X2X2X2X2X2X2X2X2X2X2X2X2X2X2X2X2X2X2X2X2X2X2X2X2X2X2X2X2X2X2X2X2X2X2X2X2X2X2X2X2X2X2X2X2X2X2X2X2X2X2X2X2X2X2X2X2X2X2X2X2X2X2X2X2X",
"2X2X2X2X2X2X2X2X2X2X2X2X2X2X2X2X2X2X2X2X2X2X2X2X2X2X2X2X2X2X2X2X2X2X2X2X2X2X2X2X2X2X2X2X2X2X2X2X2X2X2X2X2X2X2X2X2X2X2X2X2X2X2X2X2X2X2X2X2X2X2X2X2X2X2X",
"2X2X2X2X2X<.2X2X2X2X2X2X2X2X2X2X2X2X2X2X2X2X2X2X2X2X2X2X2X2X2X2X2X2X2X2X2X2X2X2X2X2X2X2X2X2X2X2X2X2X2X2X. . . . . . 2X2X2X2X2X2X2X2X2X2X2X2X2X2X2X2X2X",
"2X2X2X2X$.F q.2X2X2X2X2X2X2X2X2X2X2X2X2X2X2X2X2X2X2X2X2X2X2X2X2X2X2X2X2X2X2X2X2X2X2X2X2X2X2X2X2X2X2X2X2X. 2X2X2X. . 2X2X2X2X2X2X2X2X2X2X2X:.2X2X2X2X2X",
"2X2X2X2XD I #.d.4.2X2X2X2X2X2X2X2X2X2X2X2X2X2X2X2X2X2X2X2X2X2X2X2X2X2X2X2X2X2X2X2X2X2X2X2X2X2X2X2X2X2X2X2X2X2X. . 2X2X2X2X2X2X2X2X2X2X2X$.I J 2X2X2X2X",
"2X2X2X2X4.0.#.m $.%.%.#.$.;.:.4.6.2X2X2X2X2X2X2X2X2X2X2X2X2X2X2X2X2X2X2X2X2X2X2X2X2X2X2X2X2X2X2X2X2X2X2X2X2X. . 2X2X2X2X2X2X2X2X2X2X2X,.J @.m W 2X2X2X",
"2X2X2X2X2X2X2X<.Z #.%.%.%.%.#.@.W #.=.>.<.6.2X2X2X2X2X2X2X2X2X2X2X2X2Xt.e.q.6.6.6.0.q.g.2X2X2X2X2X2X2X2X2X2X. o 2X2X2X2Xw.6.;.q.2.,.f.;.J S N I 2X2X2X",
"2X2X2X2X2X2X2X2XJ B F J J D S J F F L K L I @.%.$.=.>.>.>.$.$.$.@.%.%.@.@.@.#.L . . . . . X @.@.%.$.$.$.#.o $ $.$.$.#.$.#.@.&.@.%.@.D Z m @.W q.2X2X2X",
"2X2X2X2X2X2X2X2X2XB I P S 6.~.(./.W.d.0.>.I D F I #.%.$.%.&.&.&.&.&.&.%.$.$.-.@., &.&.y . j &.;.&.&.&.&., . l $.#.y l $.#.$.#.@.I J M Z 2X2X2X2X2X2X2X",
"2X2X2X2X2X2X2X2X2XJ D I h f.<XXXE.XX@X;X-X^.M.t.<.J n S $ . . . . . S =.-.-.$.$.#.@.l . # I I #.$.&.&.l . . . . . . B J F F F D D J m 2X2X2X2X2X2X2X2X",
"2X2X2X2X2X2X2X2X2XQ D I D V &XXX} L..X#X,X>X<X>X#X_.a.%.@ a I j . < %.@.W J J F F F + O D F J D I I P J D D F L P J J P J J J H J V #.2X2X2X2X2X2X2X2X",
"2X2X2X2X2X2X2X2X2X#.Z J I B H :XXX.X,X#X-XoX#X#X;X>X<X<X'.,.p o O D F D F F J J P , . u J P P F F F J F J J J J J J J J J J J J J m 1.2X2X2X2X2X2X2X2X",
"2X2X2X2X2X2X2X2X2XJ D J J I w n |.>X#XoX*X*XoX-X#XoX#X:X<X<Xg . u I P J J J J J j . , H J J J J J J J J J J J J J J J J J J J J H m e.2X2X2X2X2X2X2X2X",
"2X2X2X2X2X2X2X2X2XZ P J J I B 4 ~.>X-X-X#XoX-X.X;X<X#X[. X9.. f 4 5 D I I J P D o O D J J = J J J J J J J J J F J J J J J J J J F m <.2X2X2X2X2X2X2X2X",
"2X2X2X2X2X2X2X2X4.B J J J I e <.<X-X-X}.#X#X:XoX' Z.@X .i.+ 1 %XD.=.w e F J I < . . . . . O J J J J J F J J J J J J F P J J F J J D #.2X2X2X2X2X2X2X2X",
"2X2X2X2X2X2X2X2X%.D P J J K r ~.<X}.-X-XoX#X#X;XU.R F.H.2 . W.oX$Xu.q.Z 3 h I @.J J J J J J J J J J F I J P J F J J J J J J J J J F M 2X2X2X2X2X2X2X2X",
"2X2X2X2X2X2X2X2XM H I J I h &.<X#X#X#X#X-XoX1X<X<X{ o.*.. . . . . . }.>Xt.e 8 D U J J J J J J J J J J F J J J F J J J J J J J J J J M -.2X2X2X2X2X2X2X",
"2X2X2X2X2X2X2XQ m J H J I r Q.<X#X#X#X#XoX;Xl.l.o.' >X@XoX-X#X*X'.}.*X;X<X|.Z 3 V I J J J J J J J J F I J J F I F I J F J J P F J J D Z 2X2X2X2X2X2X2X",
"2X2X2X2X2X2X2Xr H I H J n J >X$X#X#X#X#X-X,XJ.[ [ [.,X-X#X-X-XoX].}.#X#XoX<X<X6.3 r I I J J J J J J J J J J J J J J J I P F J J J J D a 2X2X2X2X2X2X2X",
"2X2X2X2X2X2X=.w B n n n 3 f.<XoXoX#X#X#X-X}.,X<X<X,XoX*X#X#X-XoX].-X-X#X#XoX>X<Xm.w e I I H J P J J J J J J F J J J J F J @.I V a n H W 2X2X2X2X2X2X2X",
"2X2X2X2X2X2Xz h >.w.d.3.>.#X;X#X#X#X#X#X1X,X,XY.` P.,X*XoX*X-XoX'.#X#X#X#X#XoX#X<X`.h 4 J I H H L J J J J J P J J J J I @.m w D q.~.|.#X,X-XoXoXoX-X2X",
"2X2X2X2X2X2X; $.<X>X$X$X$X#XoX#X#XoX-X-XX.R.<X..  k.,X-X-XoX-X].'.:X#X#X#X#X#X-X#X<X=XZ 4 H I H J J J J F J J J J J I J 8 Z n.,X<X>X%X;XoX{..X}.oX2X2X",
"2X2X2X2X2X=.6 r _.1XO... X;X#X#X#X#X-X,Xl.Y R.1XoX.X-XoXoX#X-X'.}.-X#X-X#X#X#X#X#XoX<X>XG 4 H I J J J J I J J J J W V 5 <.<X<X-XR.[.-X-X'.*X{.}.2X2X2X",
"2X2X2X2X2XJ p p 0 _.<XF. X;X#X#X}.-X#X-X<XJ.' <X:X-XoX-XoX-X=X'.oX-XoXoX#X#X#X#X#X#X#X<X>XJ 6 P I J F J F J J J I V 4 f.<X<X].P.*X-X,X'.[.oX].;X2X2X2X",
"2X2X2X2X2XM h I p 9 !.>XOX#X#X#X-X*X}.:X<Xv.{ <X-XoX*X-XoX-X].[.-XoXoX-XoXoX-XoX#X#X#XoX<X;XD 4 J I J J J J J I D 7 a.<X<X'.S.-X-X-XoX'.-X'.oX2X2X2X2X",
"2X2X2X2X2Xs n I I N ; w.<X>XoX#X#X:X].{ [ T I.1X*X-X#XoX-X*X'.oX#X-XoX-XoX-X-XoX#X#X#X-X-X>X;Xn w J I J J J J I 4 3.<X-X'.S.;X;X*X-X'.].}.].;X2X2X2X2X",
"2X2X2X2X2Xh M J I U B 6 Q -X<X#X}.-X-XU.o.G.K.L.-X-X#X#X-X].{.-XoX#X#X#X-XoXoX-X#X#X#X-X;X#X<X_.0 h I P J J I e D >XoXoXZ.#X#XoX}.-X).}.'.}.2X2X2X2X2X",
"2X2X2X2X2Xh V J H H I I 9 s ~.<X>XoX-X1X*XF.H.F.}.-X#X-X.X'.#X#X-XoX#X#XoX-XoXoX#X#X#X:X;X:X#X<Xw.3 D I F I D 7 /.$X}.T.'.;X;X].{.-XP..XP.-X2X2X2X2X2X",
"2X2X2X2X2Xn V J J J J P @.h 4 6.1X<X$X-XoXG. .L.#X#X-XoX'.oX-X-X-X-X*X#XoX*X#X#X#X#X#X:X:X-X-X;X<X#.4 P I I 5 $.>X'.oXZ.:X-X-X'.oXoX'.].T.#X2X2X2X2X2X",
"2X2X2X2X2Xh M J J J J J J @.M 3 D A.<X>X-X.XI.oX-X#X#X].}.-X-X:X:X-XoX#X-XoX#X#X#X#X#X;X;X,X;X-X<X}.r r I B 5 !.$X}.].).-X-X.X).>X[.'.].'.}.2X2X2X2X2X",
"2X2X2X2X2XM N J J J J J Z Z D s 4 3 Q `.,X;X;X-X#X#X}.oX-X;X;X;X,X-X}.-XoXoXoX-X#X#X#X:X-X;X-X;X#X<Xf.4 m p H >XT.oXP.}.-X;X].'.,X[.].].'.}.2X2X2X2X2X",
"2X2X2X2X2XH h J J J H Z W %.$.H z n 6.c.'.}.[.}.#X-X#X-X-X:X:X;X-X-X*XoX-X-X-X}.#X#X#X,X;X;X;X;X;X;X>XJ 5 8 6.>XS.#XP.oX*X;X).'.,X].'.].'.].2X2X2X2X2X",
"2X2X2X2X2X=.w I J L C %.g.q.,.>.0.C..X X[.].].[.[.].].}.-X:X,X-X:X}.oX-X-XoX-X*X-X}.'.'.].}.:X#X#X:X<XB.5 5 m.>XT.}.P.-X#XoXV.'.,X'.].].P.].2X2X2X2X2X",
"2X2X2X2X2X2Xe L A m C >.W C F q W R.z.).oX-X#X[.'.=X#X}.[.-X#X-XR.L.-X*X-XoXoX-X].T.}.-X#X}.T.[.}.[.;X>XH 3 _.%XT.}.Z.;X.X}.S.P.,X'.[.'.P.{.2X2X2X2X2X",
"2X2X2X2X2X2Xe m E 2.,.d A <.=.-.x _ @X}.'.oX}.].1X:X}.,X].'.}.P.| x.}.'.).'.'.].'.-X-X}.,X-XS.#X:XT.].>X7.0 _.}.Z.Z.V.[.S..X{.P.oXz.).].P.].2X2X2X2X2X",
"2X2X2X2X2X2Xh q <.g.E J 0.b b b -.x h.<XoX'.].#X>XS.T.'.].%X.XL.L.o.C.}.].*X.XV.T.<XS.j.S.T.}.<X>X-XS..X&X1.#X'.j.].}.,X'.).].c.'.P.P.P.P.'.2X2X2X2X2X",
"2X2X2X2X2X2Xa q >.e.d 2.A ! e.Q b %.: N.<X}.'.#X#X'.<X<XS.C / X.#XZ.V.>XP.C.:X'.V.#X1X-X=X'.T.-X#XT.T.>X|.b |.-XV.;XV.].).].].z.*X}.S.P.S.].2X2X2X2X2X",
"2X2X2X2X2X2Xe q >.3.b >.A e.w.e.A ,.s D n..X$X>X>XE.'.7.q 7 V.R.oX'.'.;XC.C.:X}.S.T.[.#X;X;XZ.=X-XT.].;X[.> s.<XZ.].h.].).}.].-X<Xj.S.'.Z.].2X2X2X2X2X",
"2X2X2X2X2X=.i t %.q.v 2.A E e.W b 3.b >.B t ( N.B.c ; & 0 `.R.k.,X].T.:XT.|.;X}.T.].S.z.S.<X'.}.#Xc.T.>X+X> 7.<XS.#Xh.Z.S.{.].V.oX'.).P.Z.[.2X2X2X2X2X",
"2X2X2X2X2XJ p t -.g.E W 0.b b b r.$.G 2.:.~ E x I U Q J E -X'.].<X].T.,X'.[.<X[.S.>X-X#X;X1XP.}.<X=XS.oX<X1.w.>XV.-X'.oX].'.[.V.Z.oX].C.S.].2X2X2X2X2X",
"2X2X2X2X2Xm h r W 0.<.x ! 0.;.0.&.v L q..X@X>XZ._ L %.V ) .XoXoX}.'.'.}.[.oX-X[.'.{.oX-X*X'.[.].#X>XT.S.>X1.J &XT.S.].oX].Z.Z.oXC.C.oXV.P.2X2X2X2X2X2X",
"2X2X2X2X2Xa n z m S A D m A #.A C m s V..X.X-X>X$Xp.4 % b..X'.].].}.#X}.-X-X}.oX:X}.[.[.].=X:X-X}.}.}.#X.Xx 0 :X:X].V.'.#XZ.C.>XZ.P.}.Z.P.2X2X2X2X2X2X",
"2X2X2X2X2Xe n h V J K F J H Z D P w ;.@X'.}.*X*X;X>XN.w b.;X;X-X-X#X:X;X,X;X:X;X:X:X,X,X;X;X-X;X;X:X#X>XoXh a }.>XoXS.-X-XP.oX].C.;XoXC.'.2X2X2X2X2X2X",
"2X2X2X2X2Xp n n D I F J J J J I D 5 ,.$X'.-XoX-X#X-X<Xb.s.$XoX*XoX-X-X:X-X;X-X,X;X-X,X-X,X-X;X-X;X-X#X<XN.5 M #X<XT.P.>X'.P.,XV.].>X].C.'.2X2X2X2X2X2X",
"2X2X2X2X2Xh h n D J J J J J J J D r n T.@X{.}.-XoX*X-X>X'.[.#X-XoX-X-X;X-X;X;X-X-X-X-X;X:X;X:X;X-X#X-X<Xt.3 J <X,XC.}.;XP.oX).Z.;X;XS.S.].2X2X2X2X2X2X",
"2X2X2X2X2XD e n P J I J J J J I P m 5 J $X.X[.-X-XoX=X#X*XoX#XoX*XoX-X;X-X:X-X;X,X;X:X;X;X-X-X:X#X#X;X%X=.* 6.<XP.'.<X'.{..XV.-X;XoXC.Z.2X2X2X2X2X2X2X",
"2X2X2X2X2XW w n D I P J F J J J I Z h 5 E oX*X}.-X*XoX-X-XoXoX-X#X#X-X:X;X-X;X-X-X-X;X-X:X;X;X-XoX-X$XD.5 8 }..XP.-X}.'..XV..X,X-XP.V.'.2X2X2X2X2X2X2X",
"2X2X2X2X2X>.w n P J J J J J J J J I M n 5 D ].@X[.-X-XoXoX-X#X#X#XoX#X:X:X;X-X,X:X;X-X;X-X;X-XoX#X-X$X( 3 Q.$XP.-XoX{.}.C.}.,X;X}.C.S.2X2X2X2X2X2X2X2X",
"2X2X2X2X2X2Xe m D P P J J J J J J I K m n 5 m ).@X.X-X*XoX#X-X#X-XoXoX-X;X:X;X:X;X-X:X,X;X-X#X#X-X}.T.s.D.%X].-X;X*X'.C.}.,X;XoXS.C.'.2X2X2X2X2X2X2X2X",
"2X2X2X2X2X2Xz r H I J P J J J J J J I D n N 8 r N.$X}.-X#X#XoX#XoX-XoXoX-X;X-X;X-X-X;X;X#X#X#X;XoXT.T.;X$XoX:X;XoXP.P.*X,X;X.XZ.V.T.2X2X2X2X2X2X2X2X2X",
"2X2X2X2X2X2XZ r V I J J J J J J J J J P K n B i e s.$X-X#X#XoX#XoX-X-XoX*X-X:X-X;X:X-X#X#X#X#X#X'.T.#X-X;X#X}.'.P.].;X;X*X].C.Z..X2X2X2X2X2X2X2X2X2X2X",
"2X2X2X2X2X2XU w m P J J J J J J J J J J I D h B p 5 6.$X;X-X#X#X-XoXoX-XoXoX#X-X#X#X#X#X#X#X#X].T.T.].oX}.}.}.}.-X;XoX].Z.V.'..Xm.2X2X2X2X2X2X2X2X2X2X",
"2X2X2X2X2X2XU w n J J J J P J J J J J J P I D n n a 5 ^ +X>X-X#XoX*X#X#XoX*X-XoX#X#X#X#X-X#X].T.'.T.P.T.'.{.}.}.].T.Z.S.Z.@X$XF #.2X2X2X2X2X2X2X2X2X2X",
"2X2X2X2X2X2XH p k D @.J J J J J J J J J J H I P n m k 6 Q +X%X#X-XoX=X#X-XoXoX#X#X#X-X-X#XT.E.@X@X].T.'.P.P.S.S.Z.S.T..X>XS.Z 3 2X2X2X2X2X2X2X2X2X2X2X",
"2X2X2X2X2X2Xn h h D J J J J J J J J J J J J J I P m h n 5 F ).>X#X#X-X-X-XoX-X-X-X-XoX].[.%Xm.Q p.oX$X@X.X.X.X.X@X$X$XA.;.0 8 h 2X2X2X2X2X2X2X2X2X2X2X",
"2X2X2X2X2X2Xw m h Z P J J J F J P J J J J J H J I I V n n 5 h s..X%XoXoXoXoXoXoX.X.X.X$X].7.a - w J 7.b.A.D.D.D.M.8.$.s w B h h 2X2X2X2X2X2X2X2X2X2X2X",
"2X2X2X2X2X=.w n h D I J J J J J P J J J J J J J J I I D m N w 5 W s.)..X@X$X$X$X.XR.A.7.M 5 e M K m a n V K K D n a a K U I a n 2X2X2X2X2X2X2X2X2X2X2X",
"2X2X2X2X2Xn a N n V P I I I I I I I I J J J J J J J J I I D M B w w M Q >.,.,.:.$.P a 5 w B D J I J I I P K D H H I J I I I h h 2X2X2X2X2X2X2X2X2X2X2X",
"2X2X2X2X<.8 n n n n B M M D D M V V D D J J J J J J J J I U I D V B a w 8 5 5 5 5 i N B D I @.I P I I I I I U I I P I I P I B r 2X2X2X2X2X2X2X2X2X2X2X",
"2X2X2X2Xw p h h k k h n h h h h h n h n B V J J J P P D D B h h r e w r e h h B m h r p N V V B V V M D V V m V V D J I U I n e 2X2X2X2X2X2X2X2X2X2X2X",
"2X2X2Xx e B n n s r r r h p w p p p e e 8 w h s h m M m m m Z H J %.<.:.2X2X2X2X2X2X2XQ r w a n n n a n n h h a h r r h V B h w <.2X2X2X2X2X2X2X2X2X2X",
"2X2XJ 6 D 2X2X2X2X2X2X2X2X,.w.,.,.<.>.1.w.2X2X2X2X2X2X2X2X2X2X2X2X2X2X2X2X2X2X2X2X2X2X2X2XJ a w p p a p p e i r s m V M h 8 a p #.2X2X2X2X2X2X2X2X2X2X",
"2X1.e i D 2X2X2X2X2X2X2X2X2X2X2X2X2X2X2X2X2X2X2X2X2X2X2X2X2X2X2X2X2X2X2X2X2X2X2X2X2X2X2X2X2X2X:.Q J Z D J @.( 2X2X2X2X2X2X>.m a m 2X2X2X2X2X2X2X2X2X2X",
"2Xq.8 6 q.2X2X2X2X2X2X2X2X2X2X2X2X2X2X2X2X2X2X2X2X2X2X2X2X2X2X2X2X2X2X2X2X2X2X2X2X2X2X2X2X2X2X2X2X2X2X2X2X2X2X2X2X2X2X2X2X2X2Xe 4 1.2X2X2X2X2X2X2X2X2X",
"2X2X2X2X2X2X2X2X2X2X2X2X2X2X2X2X2X2X2X2X2X2X2X2X2X2X2X2X2X2X2X2X2X2X2X2X2X2X2X2X2X2X2X2X2X2X2X2X2X2X2X2X2X2X2X2X2X2X2X2X2X2X;.r p M 2X2X2X2X2X2X2X2X2X",
"2X2X2X2X2X2X2X2X2X2X2X2X2X2X2X2X2X2X2X2X2X2X2X2X2X2X2X2X2X2X2X2X2X2X2X2X2X2X2X2X2X2X2X2X2X2X2X2X2X2X2X2X2X2X2X2X2X2X2X2X2X2XG p n w 2X2X2X2X2X2X2X2X2X",
"2X2X2X2X2X2X2X2X2X2X2X2X2X2X2X2X2X2X2X2X2X2X2X2X2X2X2X2X2X2X2X2X2X2X2X2X2X2X2X2X2X2X2X2X2X2X2X2X2X2X2X2X2X2X2X2X2X2X2X2X2X2X2X8 a 7 2X2X2X2X2X2X2X2X2X",
"2X2X2X2X2X2X2X2X2X2X2X2X2X2X2X2X2X2X2X2X2X2X2X2X2X2X2X2X2X2X2X2X2X2X2X2X2X2X2X2X2X2X2X2X2X2X2X2X2X2X2X2X2X2X2X2X2X2X2X2X2X2X2X;.h J 2X2X2X2X2X2X2X2X2X",
"2X2X2X2X2X2X2X2X2X2X2X2X2X2X2X2X2X2X2X2X2X2X2X2X2X2X2X2X2X2X2X2X2X2X2X2X2X2X2X2X2X2X2X2X2X2X2X2X2X2X2X2X2X2X2X2X2X2X2X2X2X2X2X2X2X2X2X2X2X2X2X2X2X2X2X",
"2X2X2X2X2X2X2X2X2X2X2X2X2X2X2X2X2X2X2X2X2X2X2X2X2X2X2X2X2X2X2X2X2X2X2X2X2X2X2X2X2X2X2X2X2X2X2X2X2X2X2X2X2X2X2X2X2X2X2X2X2X2X2X2X2X2X2X2X2X2X2X2X2X2X2X"
};
