/* XPM */
static char *result[] = {
/* columns rows colors chars-per-pixel */
"75 70 206 2 ",
"   c #BA7E75",
".  c #1000AB",
"X  c #1D12AD",
"o  c #221DAD",
"O  c #2B24AF",
"+  c #2722AE",
"@  c #302FAF",
"#  c #2E32AC",
"$  c #3736B2",
"%  c #3C5E98",
"&  c #3F629F",
"*  c #3156A0",
"=  c #3F62A4",
"-  c #4A689C",
";  c #566F9D",
":  c #667A9E",
">  c #494CB5",
",  c #4C52B5",
"<  c #525CB6",
"1  c #5555B8",
"2  c #654DB0",
"3  c #4465A4",
"4  c #4C6BA5",
"5  c #4D6DAA",
"6  c #4667AB",
"7  c #516EA5",
"8  c #516EAA",
"9  c #4F70AA",
"0  c #5471A6",
"q  c #5C75A5",
"w  c #5573AC",
"e  c #5A76AD",
"r  c #5D7AAE",
"t  c #5D79A7",
"y  c #5473B1",
"u  c #5A76B1",
"i  c #5D7AB2",
"p  c #5469B5",
"a  c #627CAE",
"s  c #6D7EA5",
"d  c #6D6EBE",
"f  c #716FBD",
"g  c #637EB3",
"h  c #6574BB",
"j  c #6B74BE",
"k  c #647FB8",
"l  c #6274B7",
"z  c #6681AE",
"x  c #6D83AC",
"c  c #7485A4",
"v  c #7485AB",
"b  c #7789AC",
"n  c #6581B4",
"m  c #6A84B5",
"M  c #6F88B7",
"N  c #6682B8",
"B  c #6B85B9",
"V  c #6E89BA",
"C  c #7286B3",
"Z  c #738AB6",
"A  c #7B8DB4",
"S  c #7285BA",
"D  c #748CBC",
"F  c #798FBC",
"G  c #7F91B2",
"H  c #7790BD",
"J  c #7A91BE",
"K  c #768EC0",
"L  c #7A8FC1",
"P  c #7582C1",
"I  c #7790C1",
"U  c #7C93C2",
"Y  c #7F98C0",
"T  c #B79980",
"R  c #B9A28E",
"E  c #BDA998",
"W  c #8193B6",
"Q  c #8396BC",
"!  c #839ABE",
"~  c #8A9BBE",
"^  c #8D9BB6",
"/  c #949FBE",
"(  c #9B92A7",
")  c #93A2BE",
"_  c #9DA4BB",
"`  c #A7ABB0",
"'  c #C88E85",
"]  c #C3AD9B",
"[  c #C6AFA0",
"{  c #CBBAAA",
"}  c #C6B4A6",
"|  c #DFB3AF",
" . c #D7B7B4",
".. c #E4BDBD",
"X. c #E3BBB7",
"o. c #D6CABE",
"O. c #D4C2B7",
"+. c #E4C3BF",
"@. c #E8C0BF",
"#. c #8196C1",
"$. c #859AC3",
"%. c #8A9DC5",
"&. c #879BC8",
"*. c #8A9EC8",
"=. c #BA9EC4",
"-. c #8DA1C5",
";. c #8DA1CA",
":. c #93A4C4",
">. c #97A9C6",
",. c #93A5C9",
"<. c #9BABCB",
"1. c #99A9C8",
"2. c #9EB1CC",
"3. c #9BAED4",
"4. c #9FB1D1",
"5. c #A1AFCC",
"6. c #A6ABC2",
"7. c #A4B2CD",
"8. c #AAB5CC",
"9. c #B8BCCC",
"0. c #B6AFD7",
"q. c #A3B4D3",
"w. c #AAB5D4",
"e. c #ABBBD3",
"r. c #ABBDDB",
"t. c #A5B7D6",
"y. c #B2BDD4",
"u. c #B0B3D7",
"i. c #ADAAD9",
"p. c #DCB8C2",
"a. c #B9C3CF",
"s. c #B6C2D5",
"d. c #BBC2D1",
"f. c #B6C4DB",
"g. c #B9C5D9",
"h. c #B8C9E3",
"j. c #C4C2C3",
"k. c #CDCCCA",
"l. c #CCC6C5",
"z. c #D6CAC0",
"x. c #D1CECC",
"c. c #D8C1C1",
"v. c #D2D0CF",
"b. c #DBD0C5",
"n. c #C2C6D1",
"m. c #C2CAD3",
"M. c #C5CCDB",
"N. c #CACBD8",
"B. c #CDD3DC",
"V. c #C5D1DD",
"C. c #D6D3D2",
"Z. c #D9D6D5",
"A. c #DBD8D7",
"S. c #D4D5DC",
"D. c #DDDBDA",
"F. c #D8D8DF",
"G. c #E6C4C3",
"H. c #E7CAC9",
"J. c #E9C1C0",
"K. c #E4D5CC",
"L. c #F0CFD0",
"P. c #EDD4D4",
"I. c #E2DEDD",
"U. c #ECDDDB",
"Y. c #E5DAD5",
"T. c #F5D4CD",
"R. c #E3E1DF",
"E. c #EBE3DD",
"W. c #F2EADF",
"Q. c #CBCEE5",
"!. c #CCD4E2",
"~. c #CAD6E8",
"^. c #D4DBE5",
"/. c #DCDCE2",
"(. c #D5DDE9",
"). c #D1D5E0",
"_. c #E2DFE1",
"`. c #DDE1E6",
"'. c #DDE4EC",
"]. c #E6E3E2",
"[. c #E9E5E5",
"{. c #ECE9E6",
"}. c #ECE7E8",
"|. c #EDEBEA",
" X c #E4E7EB",
".X c #F1E6E4",
"XX c #F2EBE5",
"oX c #FFEBE3",
"OX c #F2EEED",
"+X c #F8E9E6",
"@X c #F7F1E6",
"#X c #FBF2E7",
"$X c #F3F0EF",
"%X c #FCF4EB",
"&X c #FEFAEE",
"*X c #E5EAF0",
"=X c #F5EFF1",
"-X c #EFF1F1",
";X c #F5F3F2",
":X c #F9F6F4",
">X c #F6F8F5",
",X c #FDFAF5",
"<X c #F9F7F9",
"1X c #FEFEFC",
"2X c #F7F9FC",
"3X c None",
/* pixels */
"3X3X3X3X3X3X3X3X3X3X3X3X3X3X3X3X3X3X3X3X3X3X3X3X3X3X3X3X3X3X3X3X3X3X3X3X3X3X3X3X3X3X3X3X3X3X3X3X3X3X3X3X3X3X3X3X3X3X3X3X3X3X3X3X3X3X3X3X3X3X3X3X3X3X3X",
"3X3X3X3X3X3X3X3X3X3X3X3X3X3X3X3X3X3X3X3X3X3X3X3X3X3X3X3X3X3X3X3X3X3X3X3X3X3X3X3X3X3X3X3X3X3X3X3X3X3X3X3X3X3X3X3X3X3X3X3X3X3X3X3X3X3X3X3X3X3X3X3X3X3X3X",
"3X3X3X3X3X5.3X3X3X3X3X3X3X3X3X3X3X3X3X3X3X3X3X3X3X3X3X3X3X3X3X3X3X3X3X3X3X3X3X3X3X3X. . . . . . 3X3X3X3X3X3X3X3X3X3X3X3X3X3X3X3X3X3X3X3X3X3X3X3X3X3X3X",
"3X3X3X3X%.D w.3X3X3X3X3X3X3X3X3X3X3X3X3X3X3X3X3X3X3X3X3X3X3X3X3X3X3X3X3X3X3X3X3X3X3X. 3X3X. . 3X3X3X3X3X3X3X3X3X3X3X3X3X3X3X3X3X3X3X3X3X3X>.3X3X3X3X3X",
"3X3X3X3XD U $.f.7.3X3X3X3X3X3X3X3X3X3X3X3X3X3X3X3X3X3X3X3X3X3X3X3X3X3X3X3X3X3X3X3X3X3X3X3X. . 3X3X3X3X3X3X3X3X3X3X3X3X3X3X3X3X3X3X3X3X3X$.U J 3X3X3X3X",
"3X3X3X3X5.q.$.m $.$.&.%.%.:.>.5.8.3X3X3X3X3X3X3X3X3X3X3X3X3X3X3X3X3X3X. . . . . . 3X3X3X. . 3X3X3X3X3X3X3X3X3X3X3X3X3X3X3X3X3X3X3X3X3X<.U #.m Q 3X3X3X",
"3X3X3X3X3X3X3X1.D #.$.&.&.&.$.#.Q #.-.,.1.7.3X3X3X3X3X3X3X3X3X3X3X3X3X$ f.w.j . > q.e.1 . 1 3X3X3X3X3X3X3X3X3X3X3X3X3X3Xe.7.:.w.<.3.Q.-.J Z N U 3X3X3X",
"3X3X3X3X3X3X3X3XJ S H J U S S J J F K K L U #.$.%.-.,.,.,.%.%.%.#.&.%.U J L O O L #.h . , %.#.#.%.$.$.%.:.%.%.-.-.%.$.%.#.#.&.$.$.U S Z m #.Q w.3X3X3X",
"3X3X3X3X3X3X3X3X3XB J U B 7.^.^.(.Q.y.5.1.#.D F U &.&.%.&.*.*.*.*.*.*.%.%.1 . P ,.%.O O &.*.;.> %.*.*.*.*.%.%.&.#.%.&.$.$.$.$.Q U F M Z 3X3X3X3X3X3X3X",
"3X3X3X3X3X3X3X3X3XJ D U g g.1XoXW.oX:X,X;X(.N.y.1.J n B @ . . . . . S ;.h . , $.#.< . . . . . + %.*.;.%.$.#.J F F D H D J J F H D J m 3X3X3X3X3X3X3X3X",
"3X3X3X3X3X3X3X3X3X! D J K V *XoX| K.{.$X<X,X1X,X$X/.s.%.# g U j . , #.#.o @ J H F D J D D F J D U U U J J D D U L J U J H J J J J V ! 3X3X3X3X3X3X3X3X",
"3X3X3X3X3X3X3X3X3X$.D J J B D >XoXOX:X$X=XOX$X$X:X,X1X1X].<.u o + S D $ . l J J < h U U U F U U J F J J J J J J J J F J J J J J F M 4.3X3X3X3X3X3X3X3X",
"3X3X3X3X3X3X3X3X3XJ D J J U w n  X,X$X;X$X$X$X;X;XOX$X>X1X1Xf . p U h . . . . . . S J J J J J J J J J J J J J J J J J J J J J J H M r.3X3X3X3X3X3X3X3X",
"3X3X3X3X3X3X3X3X3XM U J J U B 4 S.1X;X;X$X$X$X|.:X1X$X{.+X0.. d 5 5 D U U J J U J J J J J J J J F J F U J J F J J J J F J J U F J m 1.3X3X3X3X3X3X3X3X",
"3X3X3X3X3X3X3X3X<.V J J J U e 1.1XOX;X=X$X$X;XOX] A.+X@.p.O 1 ,XF.-.7 e D J J J J J J J J J J D F J J J J J U D J J F U J J F J J S #.3X3X3X3X3X3X3X3X",
"3X3X3X3X3X3X3X3X#.K J J J K r ^.1X;X|.$X$X$X;X,XY.E +.J.2 . Q.OX&Xi.u.Z 3 n U U J J J J J J F U U J J J J J J U F J J J J J J J J J M 3X3X3X3X3X3X3X3X",
"3X3X3X3X3X3X3X3XM J U J J g *.1X$X$XOX;XOXOX2X1X1X} O.=.. . . . . . |.,Xy.e 8 D U J J J J J J J F J J J J J J J F J J J J U D J J J V -.3X3X3X3X3X3X3X",
"3X3X3X3X3X3X3X! n U H J U r !.1X$X$X$X$X;X:Xz.o.O.] ,X#XOX;X%XOX].|.=X:X1X XZ 3 V Y J J H J J J J J J J J J J J J J F U J J J J J J J M 3X3X3X3X3X3X3X",
"3X3X3X3X3X3X3Xr H J H J n J ,X%X$X$X$X$X;X<XK.{ { [.2X$X$X;X;XOX[.|.$X$XOX1X1X7.3 r U U U J J J J F J J J J F J J J J F J J J J J J D g 3X3X3X3X3X3X3X",
"3X3X3X3X3X3X-.w B n n g 3 g.1XOXOX$X;XOX;X|.<X1X1X,XOX;X$X$X;XOX].;X;X$X$XOX,X1XM.w w Y U H J J J U F J U D U J J J J J J U U V r n H J 3X3X3X3X3X3X3X",
"3X3X3X3X3X3Xz g ,.8.f.4.,.$X:X$X$X$X$X$X2X<X>XT.' _.<X;XOX=X;X|.].;X$X$X;XOXOX$X1X'.g 4 J U H J J J U F J J J J J J J J U m w D w.(.{.$X<X;X|.=X$X;X3X",
"3X3X3X3X3X3X- %.1X,X&X&X&X$XOX$X$XOX;X;Xo.E.1XX.  c.2X$X;X;X;X[.{.;X;XOX$X$X$X;X$X1X-XZ 4 J U H J J J J J J J J J J #.J 8 D m.<X1X,X:X:XOX}.OX|.OX3X3X",
"3X3X3X3X3X-.6 r `.1X+.X..X:X$X$X$X$X;X<Xo.T [.2XOX|.;XOXOXOX>X].}.;XOX$X$X$X$X$X$XOX1X,XG 3 D U U J J J J U F J J #.V 5 1.1X1X;XR.}.;X;X].OX{.XX3X3X3X",
"3X3X3X3X3XJ u u 0 (.1XG..X:X$X$X$X$X$X;X1XK.] 1X:X;XOXOX;X;X|.].OX;X$X$X$X$X$X$X$X$X$X1X,XJ 6 U U F F J J F J J U V 4 g.1X1X[.I.OX:X:X].XXOX[.;X3X3X3X",
"3X3X3X3X3XM g U u 9 ~.,X+X$X$X$XOXOX|.>X1Xb.} 1X-X=X-XOXOX;X[.{.;X$XOX;XOX;XOX;X$X$X;XOX1X:XD 4 H U J J J J J U D 4 s.1X1X].D.$X;X;X|.].;X].$X3X3X3X3X",
"3X3X3X3X3Xa n U U N - e.1X,XOX$X;X>X[.} { R U.1X;X=X$X$X;XOX].=X;X$X$XOX;X|.;XOX$X$XOX;X;X,X:Xn w U J J J J J U 4 q.1X$X[.D.:X:X=X;X].}.}.[.:X3X3X3X3X",
"3X3X3X3X3Xg M J U Y B 6 ! ;X1X$XOX=X;XI. .H.L.P.;X;X;X$X;X}.}.;XOX$X$X;X|.;XOXOX$X$XOX;X,X;X1X`.0 g U U J J Y u Z 1X|.OXD.$X;XOX}.>XI.OX[.}.3X3X3X3X3X",
"3X3X3X3X3Xg V J H H U U 9 a ^.1X,XOXOX1X=XG.@.G.|.;XOX;XXX].OX$X$X$X$X$X;X$XOX;X$XOX;X>X;X>X$X1Xy.3 V U J U S 4 (.%X|.R.].:X;X[.}.;XI.XXI.;X3X3X3X3X3X",
"3X3X3X3X3Xn V J J J J U U g 4 2.,X1X%X;XOXH...P.$X$X;X$X].|.;X;X;X;X|.;XOX;XOXOX;XOX;X>X>X:X;X:X1X$.4 U U U 5 &.,X].OXA.;X;X;X].$XOXR.[.].;X3X3X3X3X3X",
"3X3X3X3X3Xg M J J J J J J #.M 3 D !.1X,X;XXXE.OX$X$X$X[.|.;X;X>X>X;X;XOX;XOXOX;XOXOXOX;X;X;X:X;X1X|.t e U B 5 ^.%X}.[.].:X;X{._.2X}.].[.].}.3X3X3X3X3X",
"3X3X3X3X3XM N J J J J J Z V S a 4 3 ! '.<X:X,X;X$X;X}.OX:X:X,X>X>X;XOX;X=X;XOX;XOX;X$X:X<X:X;X>X;X1Xf.4 m u J ,XR.$XI.}.;X:X[.].,X[.].{.].}.3X3X3X3X3X",
"3X3X3X3X3XH g J J J H Z Q %.-.J z n 7.v.].}.}.}.$X;X$X:X;X;X>X:X;X;XOX$X$X|.;XOXOX;X;X;X<X:X>X,X;X%X1XJ 5 5 7.,XD.$XI.OXOX:X].].1X].].].].[.3X3X3X3X3X",
"3X3X3X3X3X:.e J L L m %.h.w.<.,.q.Z.W.}.{.[.].}.{.].].{.;X:X:X;X;XOXOX$X;XOX;X$X;X|.].].[.|.>X$X$X;X1XV.5 5 M.,XR.OXI.;X;XOXC.].,X_.[.].I.[.3X3X3X3X3X",
"3X3X3X3X3X3Xw L D C C ,.Q C F q Q E.x._.|.;X;X{.].-X;X-X|.;X$X;XE.P.;X=X;XOXOX;X}.D.|.;X$X|.R.{.|.{.:X1XH 3 (.&XR.{.Z.;X}.OXD.I.<X].[.[.I.[.3X3X3X3X3X",
"3X3X3X3X3X3Xu k Q 1.1.s A 1.:.;.x ` #X|.].OX}.[.1X;X|.>X{.R.-XI. . .OX_.I.}.].[.].;X;X}.>X;XD.;X;XR.{.&X8.0 `.|.D.D.v.}.F.XX[.I.OXv.R.[.I.[.3X3X3X3X3X",
"3X3X3X3X3X3Xg q 1.h.W Q t.v v v ;.x j.1X$X].{.$X,XD.I.].{.&XXXP.P.l.Z.OX[.OXXXZ.].1XD.k.D.R.|.1X,X;XD.|. X2.;X].k.{.}.,X].].[.x.].Y.I.I.I.[.3X3X3X3X3X",
"3X3X3X3X3X3Xg t ,.t.v 3.W Q r.~ A %.; !.,XXX{.$X$X].1X1XI.v ( O.OXI.C.,XI.Z.:X].v.$X,X;X-XR.D.>X;XR.R.,X Xb  X;XC.:Xv.[.].}.[.x.;X}.F.I.D.[.3X3X3X3X3X",
"3X3X3X3X3X3Xw q ,.4.v ,.A r.e.r.b <.a D g.XX%X,X,X{.].8.q 7 B.E.OX].R.:XC.Z.>X|.I.R.}.;X,X,XD.|.$XR.[.:X{.: s.1XA.{.j.].I.}.{.;X1Xx.I.].D.[.3X3X3X3X3X",
"3X3X3X3X3X-.y t *.t.v 3.A W r.Q b q.b ,.M t ) !.V.c ; % 7 '.E.l.,X].I.>X`.{.<X}.R.[.D.x.A.1X].-X;XC.R.,X@X: 7.1XD.$Xj.D.I.{.[.C.OXI.I.I.D.[.3X3X3X3X3X",
"3X3X3X3X3XJ u t -.h.W Q q.b b v t.$.A 3.>.^ W x J Y #.J W ;X].[.1X].R.1XR.}.1X}.F.,X>X|.,X2XD.|.1X|.D.-X1X2.s.%XC.;X].OX[.].}.v.D.OX}.C.D.[.3X3X3X3X3X",
"3X3X3X3X3Xm g a Q q.1.x ~ q.:.q.:.v L 7.XX%X,XA.6.F $.M _ .XOXOX}.].].;X}.|.;X}.].}.$X;X$X].}.{.|.1XE.D.,X2.J *XI.I.[.OX[.A.D.OXZ.Z.OXZ.D.3X3X3X3X3X3X",
"3X3X3X3X3Xi n a m C D F m A ! H C m a Z.+X|.;X,X%Xa.4 & n.XX[.].[.|.|.|.;X:X|.OX>X}.{.}.}.OX>X;X|.{.|.$XXXx 0 >X>X].C.].$XD.Z.<XZ.I.|.D.I.3X3X3X3X3X3X",
"3X3X3X3X3Xe n g V J K D J D Z F L w -.#X].XX;XOX:X,XB.w n.&X;X;XOX;X>X>X:X>X:X:X>X:X>X,X<X:X:X;X>X,X$X,XOXg i |.,X|.I.;X:XY.OX[.Z.:XOXZ.].3X3X3X3X3X3X",
"3X3X3X3X3Xu n n D U J J J J J J K 5 1.%X].;X$X$XOX;X1Xn.a.%X;XOXOX=X:X>X;X:X;X>X:X;X>X>X:X;X;X>X>X;X$X1XB.5 M $X1XR.I.,X[.I.<Xv.[.,X[.Z.].3X3X3X3X3X3X",
"3X3X3X3X3Xn i n D U J J J J J U D i m R.%X}.|.;X$X$X;X,X].{.;XOX=X$X;X:X;X>X;X<X;X>X;X:X>X:X;X<X;X$X;X1Xs.= J 1X:XA.OX:XD.$X].D.>X;XI.Z.[.3X3X3X3X3X3X",
"3X3X3X3X3XS r m H U U F J J J J U m 5 J %XXX}.;X$XOX$X;X=XOX$XOXOX;X;X>X;X:X:X;X;X:X<X;X:X;X;X>X;XOX;X&X:.* 2.1XI.].,XR.[.}.C.$X,XOXC.I.3X3X3X3X3X3X3X",
"3X3X3X3X3X! w n D U H J J J J J U Z g 5 W OXOX}.;X;X$X$X;X$X$X;X$XOX;X>X:X;X;X:X:X;X:X:X;X:X:X;XOX;X:XD.5 5 }.XXD.:XOX].OXC.OX:X;XR.C.].3X3X3X3X3X3X3X",
"3X3X3X3X3X,.w n K J U F J J J J J J m n 5 H [.#X}.;X=XOX;XOXOX;X$X$X;X;X>X:X<X;X;X:X>X;X;X<X;X=X$X;X%X/ 3 !.%XI.;X=X}.{.Z.{.<X:X|.C.D.3X3X3X3X3X3X3X3X",
"3X3X3X3X3X3Xe n D U I U J J J J D U I n B 5 m /.#XXX;X=X$X$X$XOXOX;XOX;X:X>X>X:X:X;X:X;X:X;X$X$X;X}.E.s.S.&X[.;X:XOX].A.}.<X:XOXA.Z.].3X3X3X3X3X3X3X3X",
"3X3X3X3X3X3Xz r H U H J F J J J U J U D n N 8 r B.%X|.;X$X$X$X$XOX$X$XOX;X:X:X;X;X>X:X>X;X$X$X:XOXI.R.:X&XOX:X<XOXI.I.OX,X:XOXA.C.E.3X3X3X3X3X3X3X3X3X",
"3X3X3X3X3X3XD e V U J J D U J J J F J U D g m u u 9.&X;X$X$X$X$X;XOX;XOXOX;X;X:X,X;X;X$X$X$X$X$X].R.$X;X:X$X|.[._.[.:X:X=X[.Z.A..X3X3X3X3X3X3X3X3X3X3X",
"3X3X3X3X3X3XY e m I J U J F J J J J J J U K g B u 4 5.&X:X;X$X$X;XOX$X$X=XOX;X;X$X;X$X$X$X$X$X[.I.].{.|.|.|.{.{.;X:XOX[.A.C.E..XM.3X3X3X3X3X3X3X3X3X3X",
"3X3X3X3X3X3XY 0 n J J J J J J J J F U J U U D n m i 5 / $X,X$X$XOX;XOX;X$X$X$XOXOXOX;XOX;X;X].R.].].R.R.].}.|.|.].I.D.A.D.+X%XW $.3X3X3X3X3X3X3X3X3X3X",
"3X3X3X3X3X3XH u N D J J J J J U J F F J J I U H n n k 6 Q @X&X$X;XOX;X|.$X$X$X$X$X$X;X;X|.E.{.#X#X].].R.R.I.I.D.D.D.R.XX,XF.D 3 3X3X3X3X3X3X3X3X3X3X3X",
"3X3X3X3X3X3Xn g g D J J J J J J J U J H J J J U I B g m 5 D ].,X$X;X;X;X;X$X$X;X;X;XOX[.W.&XM.! a.OX&X+XXX{.{.XX@X&X%XS.) w 5 a 3X3X3X3X3X3X3X3X3X3X3X",
"3X3X3X3X3X3Xw m n S U J J J J F J J J J J J H H U U B n z 9 g d.XX&X$X|.$XOXOXOX}.XXXX%X{.8.u 3 w J 8.n.C./.F.F.N.9.-.a w B g n 3X3X3X3X3X3X3X3X3X3X3X",
"3X3X3X3X3X%.w n n Z U D J J J J H J J J J J J J J U U D m B w 5 Q d._.XX#X&X%XOXXXE.S.w.M 6 u V D N i n V I I S g i i D U I i n 3X3X3X3X3X3X3X3X3X3X3X",
"3X3X3X3X3Xn i N g V U U U U U U U U U J J J J J J J J U U D B B w w B ~ ,.<.5.>.%.H i 5 w M S J U U U U I I D H H U U U U U g n 3X3X3X3X3X3X3X3X3X3X3X",
"3X3X3X3X1.8 n n n N B M V V S V V D D J J J J J J J J J J Y U D V B i w 8 5 5 5 5 y N B D U Y U U U U Y U U Y U U U U U U U B r 3X3X3X3X3X3X3X3X3X3X3X",
"3X3X3X3Xw u g g N k g n g n g n g g n N B V H U H U U H S B g g r w w r r a k m m g r u B V B V V S M M V V B n V D J U U U m e 3X3X3X3X3X3X3X3X3X3X3X",
"3X3X3Xz w V n n a r r r g u w w u u w w 8 w g a g m m m n M Z H U $.1.>.3X3X3X3X3X3X3X! r w N n n n n i n g g n n i u n B m n w 1.3X3X3X3X3X3X3X3X3X3X",
"3X3XQ 6 H 3X3X3X3X3X3X3X3X2.e.<.<.1.1.<.e.3X3X3X3X3X3X3X3X3X3X3X3X3X3X3X3X3X3X3X3X3X3X3X3XJ u 0 e u i u u e y r r m M M i w i u $.3X3X3X3X3X3X3X3X3X3X",
"3X7.w y Z 3X3X3X3X3X3X3X3X3X3X3X3X3X3X3X3X3X3X3X3X3X3X3X3X3X3X3X3X3X3X3X3X3X3X3X3X3X3X3X3X3X3X,.! J D H J #.) 3X3X3X3X3X3X,.m u m 3X3X3X3X3X3X3X3X3X3X",
"3Xw.8 6 t.3X3X3X3X3X3X3X3X3X3X3X3X3X3X3X3X3X3X3X3X3X3X3X3X3X3X3X3X3X3X3X3X3X3X3X3X3X3X3X3X3X3X3X3X3X3X3X3X3X3X3X3X3X3X3X3X3X3Xe 4 2.3X3X3X3X3X3X3X3X3X",
"3X3X3X3X3X3X3X3X3X3X3X3X3X3X3X3X3X3X3X3X3X3X3X3X3X3X3X3X3X3X3X3X3X3X3X3X3X3X3X3X3X3X3X3X3X3X3X3X3X3X3X3X3X3X3X3X3X3X3X3X3X3X:.r u m 3X3X3X3X3X3X3X3X3X",
"3X3X3X3X3X3X3X3X3X3X3X3X3X3X3X3X3X3X3X3X3X3X3X3X3X3X3X3X3X3X3X3X3X3X3X3X3X3X3X3X3X3X3X3X3X3X3X3X3X3X3X3X3X3X3X3X3X3X3X3X3X3XG u B 0 3X3X3X3X3X3X3X3X3X",
"3X3X3X3X3X3X3X3X3X3X3X3X3X3X3X3X3X3X3X3X3X3X3X3X3X3X3X3X3X3X3X3X3X3X3X3X3X3X3X3X3X3X3X3X3X3X3X3X3X3X3X3X3X3X3X3X3X3X3X3X3X3X3X7 i 9 3X3X3X3X3X3X3X3X3X",
"3X3X3X3X3X3X3X3X3X3X3X3X3X3X3X3X3X3X3X3X3X3X3X3X3X3X3X3X3X3X3X3X3X3X3X3X3X3X3X3X3X3X3X3X3X3X3X3X3X3X3X3X3X3X3X3X3X3X3X3X3X3X3X,.g J 3X3X3X3X3X3X3X3X3X",
"3X3X3X3X3X3X3X3X3X3X3X3X3X3X3X3X3X3X3X3X3X3X3X3X3X3X3X3X3X3X3X3X3X3X3X3X3X3X3X3X3X3X3X3X3X3X3X3X3X3X3X3X3X3X3X3X3X3X3X3X3X3X3X3X3X3X3X3X3X3X3X3X3X3X3X",
"3X3X3X3X3X3X3X3X3X3X3X3X3X3X3X3X3X3X3X3X3X3X3X3X3X3X3X3X3X3X3X3X3X3X3X3X3X3X3X3X3X3X3X3X3X3X3X3X3X3X3X3X3X3X3X3X3X3X3X3X3X3X3X3X3X3X3X3X3X3X3X3X3X3X3X"
};
