/* XPM */
static char *result[] = {
/* columns rows colors chars-per-pixel */
"75 70 204 2 ",
"   c #BA7E75",
".  c #1000AB",
"X  c #1C11AC",
"o  c #221DAD",
"O  c #2621AE",
"+  c #2F2EAF",
"@  c #2F20AF",
"#  c #2E32AC",
"$  c #373AB0",
"%  c #3332B1",
"&  c #3C5E98",
"*  c #3F629F",
"=  c #3156A0",
"-  c #3F44B1",
";  c #3F62A4",
":  c #4A689C",
">  c #566F9D",
",  c #667A9E",
"<  c #464DB3",
"1  c #4C55B4",
"2  c #585AB8",
"3  c #654DB0",
"4  c #4465A4",
"5  c #4C6BA5",
"6  c #4D6DAA",
"7  c #4667AB",
"8  c #516EA5",
"9  c #516EAA",
"0  c #4F70AA",
"q  c #5471A6",
"w  c #5C75A5",
"e  c #5573AC",
"r  c #5A76AD",
"t  c #5D7AAE",
"y  c #5D79A7",
"u  c #5967B7",
"i  c #5F6EB8",
"p  c #5469B5",
"a  c #5473B1",
"s  c #5A76B1",
"d  c #5D7AB2",
"f  c #627CAE",
"g  c #6D7EA5",
"h  c #6D6EBE",
"j  c #716FBD",
"k  c #637EB3",
"l  c #6575BA",
"z  c #647FB8",
"x  c #6681AE",
"c  c #6D83AC",
"v  c #7485A4",
"b  c #7485AB",
"n  c #7789AC",
"m  c #6581B4",
"M  c #6A84B5",
"N  c #6F88B7",
"B  c #6682B8",
"V  c #6B85B9",
"C  c #6E89BA",
"Z  c #7286B3",
"A  c #738AB6",
"S  c #7B8DB4",
"D  c #7185BA",
"F  c #748CBC",
"G  c #798FBC",
"H  c #7F91B2",
"J  c #7790BD",
"K  c #7A91BE",
"L  c #768EC0",
"P  c #798FC1",
"I  c #7790C1",
"U  c #7C93C2",
"Y  c #7F98C0",
"T  c #B79980",
"R  c #B9A28E",
"E  c #BDA998",
"W  c #8193B6",
"Q  c #8396BC",
"!  c #839ABE",
"~  c #8A9BBE",
"^  c #8D9BB6",
"/  c #949FBE",
"(  c #9B92A7",
")  c #93A2BE",
"_  c #9DA4BB",
"`  c #A7ABB0",
"'  c #C88E85",
"]  c #C3AD9B",
"[  c #C6AFA0",
"{  c #CBBAAA",
"}  c #C6B4A6",
"|  c #DFB3AF",
" . c #D7B7B4",
".. c #E4BDBD",
"X. c #E3BBB7",
"o. c #D6CABE",
"O. c #D4C2B7",
"+. c #E4C3BF",
"@. c #E8C0BF",
"#. c #8296C1",
"$. c #859AC3",
"%. c #8B9DC5",
"&. c #879BC8",
"*. c #8B9EC8",
"=. c #BA9EC4",
"-. c #8DA1C5",
";. c #8DA1CA",
":. c #93A4C4",
">. c #97A9C6",
",. c #93A5C9",
"<. c #9BABCB",
"1. c #99A9C8",
"2. c #9EB1CC",
"3. c #9BAED4",
"4. c #9FB1D1",
"5. c #A1AFCC",
"6. c #A6ABC2",
"7. c #A3B2CD",
"8. c #AAB5CC",
"9. c #B8BCCC",
"0. c #A3B4D3",
"q. c #AAB5D4",
"w. c #ABBBD3",
"e. c #ABBDDB",
"r. c #A5B7D6",
"t. c #B2BDD4",
"y. c #B0B3D7",
"u. c #B2ADD8",
"i. c #DCB8C2",
"p. c #B9C3CF",
"a. c #B6C2D5",
"s. c #BBC2D1",
"d. c #B6C3DC",
"f. c #B9C5D9",
"g. c #B8C8E3",
"h. c #C4C2C3",
"j. c #CDCCCA",
"k. c #CCC6C5",
"l. c #D6CAC0",
"z. c #D1CECC",
"x. c #D8C1C1",
"c. c #D2D0CF",
"v. c #DBD0C5",
"b. c #C2C6D1",
"n. c #C2CAD3",
"m. c #C5CCDB",
"M. c #CACBD8",
"N. c #CDD3DC",
"B. c #C5D1DD",
"V. c #D6D3D2",
"C. c #D9D6D5",
"Z. c #DBD8D7",
"A. c #D4D5DC",
"S. c #DDDBDA",
"D. c #D8D8DF",
"F. c #E6C4C3",
"G. c #E7CAC9",
"H. c #E9C1C0",
"J. c #E4D5CC",
"K. c #F0CFD0",
"L. c #EDD4D4",
"P. c #E2DEDD",
"I. c #ECDDDB",
"U. c #E5DAD5",
"Y. c #F5D4CD",
"T. c #E3E1DF",
"R. c #EBE3DD",
"E. c #F2EADF",
"W. c #CBCEE5",
"Q. c #CCD4E2",
"!. c #CAD6E8",
"~. c #D4DBE5",
"^. c #DCDCE2",
"/. c #D3DAE6",
"(. c #E2DFE1",
"). c #DDE1E6",
"_. c #DDE4EC",
"`. c #E6E3E2",
"'. c #E9E5E5",
"]. c #ECE9E6",
"[. c #ECE7E8",
"{. c #EDEBEA",
"}. c #E4E7EB",
"|. c #F1E6E4",
" X c #F2EBE5",
".X c #FFEBE3",
"XX c #F2EEED",
"oX c #F8E9E6",
"OX c #F7F1E6",
"+X c #FBF2E7",
"@X c #F3F0EF",
"#X c #FCF4EB",
"$X c #FEFAEE",
"%X c #E5EAF0",
"&X c #F5EFF1",
"*X c #EFF1F1",
"=X c #F5F3F2",
"-X c #F9F6F4",
";X c #F6F8F5",
":X c #FDFAF5",
">X c #F9F7F9",
",X c #FEFEFC",
"<X c #F7F9FC",
"1X c None",
/* pixels */
"1X1X1X1X1X1X1X1X1X1X1X1X1X1X1X1X1X1X1X1X1X1X1X1X1X1X1X1X1X1X1X1X1X1X1X1X1X1X1X1X1X1X1X1X1X1X1X1X1X1X1X1X1X1X1X1X1X1X1X1X1X1X1X1X1X1X1X1X1X1X1X1X1X1X1X",
"1X1X1X1X1X1X1X1X1X1X1X1X1X1X1X1X1X1X1X1X1X1X1X1X1X1X1X1X1X1X1X1X1X1X1X1X1X1X1X1X1X1X1X1X1X1X1X1X1X1X1X1X1X1X1X1X1X1X1X1X1X1X1X1X1X1X1X1X1X1X1X1X1X1X1X",
"1X1X1X1X1X1.1X1X1X1X1X1X1X1X1X1X1X1X1X1X1X1X1X1X1X1X1X1X1X1X1X1X1X1X1X1X1X1X1X1X1X1X1X1X1X1X1X1X1X1X1X1X1X1X1X1X1X1X1X1X1X1X1X1X1X1X1X1X1X1X1X1X1X1X1X",
"1X1X1X1X%.G q.1X1X1X1X1X1X1X1X1X1X1X1X1X1X1X1X1X1X1X1X1X1X1X1X1X1X1X1X1X1X1X1X1X1X1X1X1X1X1X1X1X1X1X1X1X1X1X1X1X1X1X1X1X1X1X1X1X1X1X1X1X1X>.1X1X1X1X1X",
"1X1X1X1XF U $.d.5.1X1X1X1X1X1X1X1X1X1X1X1X1X1X1X1X1X1X1X1X1X1X1X1X1X1X1X1X1X1X1X1X1X1X1X1X1X1X1X1X1X1X1X1X1X1X1X1X1X1X1X1X1X1X1X1X1X1X1X%.U S 1X1X1X1X",
"1X1X1X1X5.0.$.M %.&.$.%.%.:.>.5.8.1X1X1X1X1X1X1X1X1X1X1X1X1X1X1X1X1X1X1X1X1X1X1X1X1X1X1X1X1X1X1X1X1X1X1X1X1X1X1X1X1X1X1X1X1X1X1X1X1X1X<.U #.V Q 1X1X1X",
"1X1X1X1X1X1X1X1.F #.$.&.&.&.$.#.Q #.-.,.1.7.1X1X1X1X1X1X1X1X1X1X1X1X1Xd.d.q.7.7.7.0.q.g.1X1X1X1X1X1X1X1X1X1X1X1X1X1X1X1Xw.7.:.q.3.<.f.;.K D z U 1X1X1X",
"1X1X1X1X1X1X1X1XK V G G K F D K K G L L P U #.$.%.-.,.,.,.%.%.%.#.#.%.U P #.#.#.#.#.#.U #.%.#.Q %.%.%.%.%.%.%.:.%.%.$.%.$.#.&.#.&.#.F Z N #.Q w.1X1X1X",
"1X1X1X1X1X1X1X1X1XV U U M 7.~././.W.d.7.,.U F G U #.&.$.&.*.*.*.;.*.*.*.;.%.;.%.:.;.;.*.;.;.*.;.;.*.*.&.*.*.%.$.$.$.$.$.$.$.%.#.U G N A 1X1X1X1X1X1X1X",
"1X1X1X1X1X1X1X1X1XK F U k d.,X.XE..X#X:X>X^.M.t.1.U M N % . . . . . D ;.;.;.%.%.#.#.#.U U U U $.%.*.*.%.$.#.K G G F J F K K G F F J M 1X1X1X1X1X1X1X1X",
"1X1X1X1X1X1X1X1X1X~ F K F C %X.X| J.|.@X>X:X,X:X-X^.a.%.+ k U l . 1 #.$.#.K K G G F + . . . . . l U U U J G F U U F . . . . . X K C ~ 1X1X1X1X1X1X1X1X",
"1X1X1X1X1X1X1X1X1X$.F G U V F ;X.XXX;X@X&XXX@X@X-X:X,X,X`.<.s o O F F F F G K K K G $ U G l . < K G J K K K K K K D - U J 1 . u K M 4.1X1X1X1X1X1X1X1X",
"1X1X1X1X1X1X1X1X1XK F K K U e m }.:X@X*X@X@X@X@X=XXXXX;X,X,Xj . p U U K K K K K K K G U F o O F K K U G K K K K G U G U l . $ K J M e.1X1X1X1X1X1X1X1X",
"1X1X1X1X1X1X1X1X1XC U K K U V 5 A.,X-X=X@X@X=X].=X,X@X].oXu.. h 6 6 F U U K K K U K G U < . l K K G K K G U K K U G K G # O F K G M 1.1X1X1X1X1X1X1X1X",
"1X1X1X1X1X1X1X1X<.C K K K U r 1.,X@X=X@X@X@X-X@X] Z.oXH.i.@ 2 $XD.%.9 r G K K K G K K u . < K G G K K K U G K K G K G < . u K K K F #.1X1X1X1X1X1X1X1X",
"1X1X1X1X1X1X1X1X#.L K K K L t ~.,XXXXX@X@X@X@X>XU.E F.H.3 . W.XX#Xu.y.A 4 m U U K K F X + K K U U K K K G K K K K K l . < K G K K K N 1X1X1X1X1X1X1X1X",
"1X1X1X1X1X1X1X1XM U K K K m %.,X@X@X=XXXXXXX,X,X,X} O.=.. . . . . . {.:Xt.e 9 J U K $ . l K G p l U G K U G U K K F O O F U J - K K V %.1X1X1X1X1X1X1X",
"1X1X1X1X1X1X1X~ M U K K U t Q.,XOX@XXX=X=X=Xl.l.O.[ $XOXXX-X@X&X'.{.&X-X,X}.A 4 V l . . . . . . D G K K G K G K U 1 . . . . . O K K K A 1X1X1X1X1X1X1X",
"1X1X1X1X1X1X1Xt J J K K m K :X@X=XXX=XXX@X-XV.{ { '.>X@X@X=X=X@X'.{.=XXXXX,X,X7.4 f U U K K K K G U K K K K K K G K K G K U U G K K F d 1X1X1X1X1X1X1X",
"1X1X1X1X1X1X-.e V m m k ; f.,X@X&X&XXX@X@XXX>X,X,X>X@X&X@X@X&XXX'.@X@X=X@XXX:X,Xm.e e U U J K K U G K K K K K K K K K K K U U V d m J Y 1X1X1X1X1X1X1X",
"1X1X1X1X1X1Xx k ,.w.d.4.,.@X-X@X@X@X@X@X,X>X;XY.' P.<X=X@X@X=X{.'.@X@X@X@X@XXX@X,X_.d 8 K U J J F K K K K K K K K K K U U m e F q./.{.@X:X@XXXXX@X=X1X",
"1X1X1X1X1X1X: %.,X:X#X$X$X@XXX@X@XXX=X=Xo.T.,X..  x.>X=X@X@X=X].'.=X@X@X@X@X=XXX@X,X*XA 5 J U I K K K K G K F U K K U J 9 F n.:X,X:X#X;XXX[.XXXXXX1X1X",
"1X1X1X1X1X-.7 t ).,XF.X.E.=X@X@X@X@X=X>Xl.T R.<XXX{.=X@X@X=X@X`.[.=X@XXX@X@X@X@X@XXX,X:XH 5 F U U K K K U K K K K #.F 5 1.,X,X-XT. X=X@X'.XX'.[.1X1X1X",
"1X1X1X1X1XK s s q ~.,XF.|.-X@X@X=X@X@X=X,XJ.] ,X-X=XXXXXXX=X*X'.=X=X{.=X@X@X@X@X@X@X@X,X:XK 7 I U K G K G K K K U C 5 d.,X,X'.P.XX-X-X`.[.XX'.-X1X1X1X",
"1X1X1X1X1XN k U d 0 !.:XoX@X@X@X{.=X{.=X,Xv.} ,X=X&X*XXX@X=X].[.=X@XXX@X@X{.=XXX@X@X@X{.,X:XA 8 K U K K K K K U F 5 a.,X,X'.S.@X=X=X{.'.=X`.@X1X1X1X1X",
"1X1X1X1X1Xf k U U B : w.,X:XXX@X=X=X'.} { R I.,X&X*X=X@X@X@X`.{.=X@X=XXX@X=XXX=X@X@X@X=X@X,X;Xm e K U F K K K U 5 7.,X=X'.S.-X=XXX-X`.[.[.'.-X1X1X1X1X",
"1X1X1X1X1Xk N K I Y V 7 ~ *X,X@X{.=X=XP. .G.K.L.=X=X@X@X-X'.].@XXX@X@X@X=XXX=XXX@X@X*X=X>X@X,X).q k U U K K #.s F :XXXXXS.XX=XXX[.-XP.[.'.{.1X1X1X1X1X",
"1X1X1X1X1Xk C K K J U U 0 k ~.,X:XXX@X,X&XF.@.F.{.=XXX=X[.`.@X@X@X@X@X@XXXXX=XXX@X@X@X=X;X-X@X,Xt.4 F U K U V 9 /.#X{.T.`.-X-X'.[.=XP.XXP.@X1X1X1X1X1X",
"1X1X1X1X1Xm C K K K K K #.k 5 <.:X,X@X=XXXG...L.@X@X-X@X`.{.-X-X=X=XXX&X=X&X@X@X@X@X@X-X=X-X-X-X,X$.5 I U U 6 $.:X`.XXZ.=X=X=X`.@XXX`.'.`.@X1X1X1X1X1X",
"1X1X1X1X1Xk N K K K K K U Y N 4 F Q.,X,X=X XI.XX@X@X@X'.].-X-X;X;X=XXXXX{.=X@X@X@X@X@X-X-X=X-X-X,X{.t t U V 6 /.#X[.'.`.-X=X[.P.-X'.`.'.`.[.1X1X1X1X1X",
"1X1X1X1X1XN B K K K K K N F N f 6 4 ! ).-X-X:X-X@X@X[.[.=X=X;X=X;X=XXX=X@X@X*XXX@X@X@X-X=X=X=X<X=X,Xa.5 M s J :XT.@XP.[.=X-X'.`.,X`.`.'.`.{.1X1X1X1X1X",
"1X1X1X1X1XJ k K K K J A Q %.%.K x x 7.V.'.].].[.@X-X-X-X-X=X>X-X=X-XXXXX=X@X@X@X@X=X@X-X>X;X-X=X-X#X,XK 6 0 7.:XS.@XS.XX&X=X`.'.,X`.'.'.`.'.1X1X1X1X1X",
"1X1X1X1X1X:.e Q U P M %.g.r.<.,.0.V. X|.].'.`.[.].`.`.].=X=X-X=X=XXXXX&X=XXX=X@X=X[.`.`.'.{.;X@X*X@X,XB.6 6 m.:XT.{.S.-X@X{.V.T.:X(.`.`.'.'.1X1X1X1X1X",
"1X1X1X1X1X1Xe G A Z Z ,.W Z K w Q R.z.P.{.@X-X'.`.*X=X*X{.=XXX-XR.L.=X&X=XXXXX=X[.T.{.@X=X{.T.].{.].-X,XJ 4 ).$XT.[.Z.-X{.XXP.P.:X'.[.`.P.'.1X1X1X1X1X",
"1X1X1X1X1X1Xr z W <.<.g H <.-.;.c ` +X X`.XX{.].,X-X{.;X].T.*XP. . .XX`.P.[.'.`.`.=X=X{.;X=XZ.=X-X`.].$X8.e `.].S.S.V.].S.[.].P.XXz.(.'.S.[.1X1X1X1X1X",
"1X1X1X1X1X1Xk r 1.g.W K r.b b b ;.b p.,XXX'.`.@X>XZ.T.`.].$X XL.L.k.Z.{.'.XX[.C.T.,XS.j.S.T.{.,X>X=XS. X%X2.*X`.j.'.[.>X`.`.'.z.`.S.P.P.P.`.1X1X1X1X1X",
"1X1X1X1X1X1Xt w ,.e.c 3.S ~ e.~ S $.> Q.:XOX`.-X@X`.,X,XS.b ( O.@XS.V.>XP.C.-X`.V.@X>X=X*XT.T.=X@XT.P.:X{.n _.-Xc.;Xc.`.`.'.'.z.=X[.S.P.S.'.1X1X1X1X1X",
"1X1X1X1X1X1Xr y ,.3.n ,.S e.w.e.n <.f F f. X#X:X:XE.'.8.w 8 N.R.XX`.`.;XC.C.=X{.S.T.{.@X:X;XC.*X=XT.].>X]., a.:XS.[.h.'.T.[.].=X,Xj.S.'.S.'.1X1X1X1X1X",
"1X1X1X1X1X,.a y *.r.v 3.S W e.~ b 0.n ,.V y ) N.B.v : & q _.R.k.>X'.T.;XT.'.>X{.T.'.S.j.Z.,X`.{.*Xc.T.:XOX, 7.,XS.@Xh.Z.S.'.'.V.XXP.P.P.S.'.1X1X1X1X1X",
"1X1X1X1X1XG s y *.g.W Q r.b b b r.%.S 4.>.^ W c U Y $.K W =X'.`.,X`.T.:X`.].,X{.S.,X=X@X=X,XT.{.,X@XS.{.,X2.a.-XV.-X'.&X'.`.].V.S.XX[.V.S.'.1X1X1X1X1X",
"1X1X1X1X1XM k t Q 0.1.c ~ 0.:.7.,.b K 8.|.+X:XZ.6.G #.M _ |.XXXX[.`.`.@X'.*X@X].`.].*X=X@X`.].].@X>X'.S.:X2.K %XS.P.`.XX'.Z.S.XXV.Z.XXC.P.1X1X1X1X1X1X",
"1X1X1X1X1Xd m k M Z F G M S $.G Z z f V. XXX=X:X#Xp.q * n. X'.'.'.[.*X{.=X-X{.@X=X{.].].].@X;X@X{.[.{.OX Xc q ;X;X`.V.`.=XZ.V.:XZ.P.[.Z.P.1X1X1X1X1X1X",
"1X1X1X1X1Xr m m C K L F K F A G U e :.#X'.{.=XXX-X:XN.e n.#X=X=X@X@X;X-X-X=X-X-X-X;X;X>X>X>X;X=X;X;X@X:XXXk d {.:X XS.-X=XP.XX`.C.>XXXZ.`.1X1X1X1X1X1X",
"1X1X1X1X1Xs k x F U K K K K K K F 6 ,.#XT.=X@X&X@X-X:Xb.s.#X=XXX@X@X-X-X=X-X=X-X-X-X;X;X=X-X=X;X-X-X@X,XN.6 N @X,XT.P.,X`.P.:XV.'.:X'.C.`.1X1X1X1X1X1X",
"1X1X1X1X1Xk k m F U K K K K K U J d m T.#X'.{.=X=XXX=X>X`.].@X=X@X@X-X=X;X-X-X-X-X-X;X=X;X-X=X=X-X@X-X,Xa.; K ,X:XC.XX-XP.XX(.P.=X-XS.Z.'.1X1X1X1X1X1X",
"1X1X1X1X1XF t m J U U G K K K K I M 5 K #X X[.=XXX=XXX=X&XXX@X@X@X@X=X=X-X=X-X;X=X-X=X=X=X=X-X-X@X{.-X$X-.= 7.,XP.P.,X(.`.XXV.XX-XXXC.S.1X1X1X1X1X1X1X",
"1X1X1X1X1XQ e m F U J K K K K G U F k 6 H XX@XXX-XXX=XXX=X@X@X@X@X@X=X;X=X>X=X>X-X=X-X=X>X-X>X@X@X=X#XD.6 9 [. XS.=X[.'.XXV.XX=X-XT.V.`.1X1X1X1X1X1X1X",
"1X1X1X1X1X,.e m L K U G K K K K K K V m 0 J '..X[.=XXXXX=XXX@XXX@X@X@X=X>X=X>X=X=X-X=X-X=X>X-X@X@X@X$X~ 4 Q.#XP.=X&XXX[.C.[.:X=X{.V.S.1X1X1X1X1X1X1X1X",
"1X1X1X1X1X1Xw m F K I K K K K K G U L m m 6 M ^.+XXXXXXX@X@X@X@X@X@XXX=X>X=X-X-X=X=X-X=X-X-X@XXX-X[.R.a.D.$X'.=X-X=X`.Z.[.>X=XXXZ.C.`.1X1X1X1X1X1X1X1X",
"1X1X1X1X1X1Xm d J U I K K K K K K K U L m B e s N.#XXX=X@X@X@X@X@X@X@XXX-X=X=X-X=X-X;X-X=X@XXX=XXXP.T.;X#XXX=X>XXXP.P.&X,X=X[.S.V.R.1X1X1X1X1X1X1X1X1X",
"1X1X1X1X1X1XA t C U U K K K K K K K K U L m V s e s.#X#X@X@X@X@X@X@X@X@X@X=X-X-X;X=X=X=X{.@X=X@X`.T.XX@X>X@X{.].P.'.-X-X=X`.C.P.|.1X1X1X1X1X1X1X1X1X1X",
"1X1X1X1X1X1XY e M I K K K K J K K K K K U F k M d 6 7.#X-X=X@X@X=XXX@X@X@X*X@X=X=X=X@X@X@X=X=X`.P.T.].@X{.{.].].=X-XXX'.Z.V.R.|.m.1X1X1X1X1X1X1X1X1X1X",
"1X1X1X1X1X1XY e m K K K K U G K K K U K K U F m m d 6 / OX:X=X@XXX=XXX@X@X@X=XXXXXXXXX@X-X@XR.P.`.`.T.T.`.'.].{.'.P.S.C.Z.#X#XW $.1X1X1X1X1X1X1X1X1X1X",
"1X1X1X1X1X1XJ s k F U K K G K K K K F K K I U I m m z 7 ! OX$X@X=XXX@X@X@X@XXX@X@X=X=X=X*XT.E.#X#XR.`.`.T.P.S.S.Z.S.T.OX$XD.K = 1X1X1X1X1X1X1X1X1X1X1X",
"1X1X1X1X1X1Xm k B F K K K K U F G K U J K K K U I V k m 6 G (.:X@X=X=X=X=X@X@X=X=X=XXX'.E.$Xm.! p.XX#X.X X]. X XOX#X#XA.) e 9 f 1X1X1X1X1X1X1X1X1X1X1X",
"1X1X1X1X1X1Xe M k A U K K K K K K K K K K K J J U U V M k 6 k s. X$X@X{.@XXXXXXX[. X X#X].8.s 4 0 U 8.b.A.D.D.D.M.t.%.f e V k M 1X1X1X1X1X1X1X1X1X1X1X",
"1X1X1X1X1X%.e m k F U K K K K K J K K K K K K K K U U F M V e 6 Q s.(. X#X#X#XOX XR.A.q.N 7 s C C M d M C I F C M d d L Y U d m 1X1X1X1X1X1X1X1X1X1X1X",
"1X1X1X1X1Xm d V k C U U U U U U U U U U K K K K K K K U U F V V e e V ~ ,.<.5.>.%.J d 6 e N F K Y U I U I I L J K K K U U I k k 1X1X1X1X1X1X1X1X1X1X1X",
"1X1X1X1X1.5 m m m M V V C C F V C F F J K K K K J K K K K Y U F C V d e 9 6 6 6 6 a B V F U #.K U U U U U K U U U U K U U U V t 1X1X1X1X1X1X1X1X1X1X1X",
"1X1X1X1X9 d k k z z k k k m k k k k k V V C J K G U U F F V k k t e e t t k k V M k t s V V C V C C N C F C N V C F K U U U m r 1X1X1X1X1X1X1X1X1X1X1X",
"1X1X1Xx e C m m f t t d k r e e s s e e 9 e k f k M M M M M A J U $.1.>.1X1X1X1X1X1X1X! t e m m m m d m m k k m d t d k C M m e 1.1X1X1X1X1X1X1X1X1X1X",
"1X1XG 6 F 1X1X1X1X1X1X1X1X2.w.<.<.1.1.<.w.1X1X1X1X1X1X1X1X1X1X1X1X1X1X1X1X1X1X1X1X1X1X1X1XK s e s s d s s r e s k M N N d e d s $.1X1X1X1X1X1X1X1X1X1X",
"1X7.e a F 1X1X1X1X1X1X1X1X1X1X1X1X1X1X1X1X1X1X1X1X1X1X1X1X1X1X1X1X1X1X1X1X1X1X1X1X1X1X1X1X1X1X,.! K F F K #.) 1X1X1X1X1X1X,.M d M 1X1X1X1X1X1X1X1X1X1X",
"1Xq.9 5 q.1X1X1X1X1X1X1X1X1X1X1X1X1X1X1X1X1X1X1X1X1X1X1X1X1X1X1X1X1X1X1X1X1X1X1X1X1X1X1X1X1X1X1X1X1X1X1X1X1X1X1X1X1X1X1X1X1X1Xr 5 2.1X1X1X1X1X1X1X1X1X",
"1X1X1X1X1X1X1X1X1X1X1X1X1X1X1X1X1X1X1X1X1X1X1X1X1X1X1X1X1X1X1X1X1X1X1X1X1X1X1X1X1X1X1X1X1X1X1X1X1X1X1X1X1X1X1X1X1X1X1X1X1X1X:.r s N 1X1X1X1X1X1X1X1X1X",
"1X1X1X1X1X1X1X1X1X1X1X1X1X1X1X1X1X1X1X1X1X1X1X1X1X1X1X1X1X1X1X1X1X1X1X1X1X1X1X1X1X1X1X1X1X1X1X1X1X1X1X1X1X1X1X1X1X1X1X1X1X1XH s M e 1X1X1X1X1X1X1X1X1X",
"1X1X1X1X1X1X1X1X1X1X1X1X1X1X1X1X1X1X1X1X1X1X1X1X1X1X1X1X1X1X1X1X1X1X1X1X1X1X1X1X1X1X1X1X1X1X1X1X1X1X1X1X1X1X1X1X1X1X1X1X1X1X1X9 s e 1X1X1X1X1X1X1X1X1X",
"1X1X1X1X1X1X1X1X1X1X1X1X1X1X1X1X1X1X1X1X1X1X1X1X1X1X1X1X1X1X1X1X1X1X1X1X1X1X1X1X1X1X1X1X1X1X1X1X1X1X1X1X1X1X1X1X1X1X1X1X1X1X1X,.f K 1X1X1X1X1X1X1X1X1X",
"1X1X1X1X1X1X1X1X1X1X1X1X1X1X1X1X1X1X1X1X1X1X1X1X1X1X1X1X1X1X1X1X1X1X1X1X1X1X1X1X1X1X1X1X1X1X1X1X1X1X1X1X1X1X1X1X1X1X1X1X1X1X1X1X1X1X1X1X1X1X1X1X1X1X1X",
"1X1X1X1X1X1X1X1X1X1X1X1X1X1X1X1X1X1X1X1X1X1X1X1X1X1X1X1X1X1X1X1X1X1X1X1X1X1X1X1X1X1X1X1X1X1X1X1X1X1X1X1X1X1X1X1X1X1X1X1X1X1X1X1X1X1X1X1X1X1X1X1X1X1X1X"
};
