/* XPM */
static char *result[] = {
/* columns rows colors chars-per-pixel */
"75 70 206 2 ",
"   c #BA7E75",
".  c #1000AB",
"X  c #1D11AC",
"o  c #221DAD",
"O  c #2621AE",
"+  c #2F2EAF",
"@  c #2F20AF",
"#  c #2E32AC",
"$  c #373AB0",
"%  c #3332B1",
"&  c #3C5E98",
"*  c #3F629F",
"=  c #3156A0",
"-  c #3F62A4",
";  c #4A689C",
":  c #566F9D",
">  c #667A9E",
",  c #464DB3",
"<  c #585AB8",
"1  c #4B52B4",
"2  c #654DB0",
"3  c #4465A4",
"4  c #4C6BA5",
"5  c #4D6DAA",
"6  c #4667AB",
"7  c #516EA5",
"8  c #516EAA",
"9  c #4F70AA",
"0  c #5471A6",
"q  c #5C75A5",
"w  c #5573AC",
"e  c #5A76AD",
"r  c #5D7AAE",
"t  c #5D79A7",
"y  c #5B68B8",
"u  c #5473B1",
"i  c #5A76B1",
"p  c #5D7AB2",
"a  c #627CAE",
"s  c #6D7EA5",
"d  c #6D6EBE",
"f  c #716FBD",
"g  c #637EB3",
"h  c #6575BA",
"j  c #647FB8",
"k  c #6E79BC",
"l  c #6681AE",
"z  c #6D83AC",
"x  c #7485A4",
"c  c #7485AB",
"v  c #7789AC",
"b  c #6581B4",
"n  c #6A84B5",
"m  c #6F88B7",
"M  c #6682B8",
"N  c #6B85B9",
"B  c #6E89BA",
"V  c #7286B3",
"C  c #738AB6",
"Z  c #7B8DB4",
"A  c #7285BA",
"S  c #748CBC",
"D  c #798EBC",
"F  c #7F91B2",
"G  c #7790BD",
"H  c #7A91BE",
"J  c #768EC0",
"K  c #798FC1",
"L  c #7A83C0",
"P  c #7790C1",
"I  c #7C93C2",
"U  c #7F98C0",
"Y  c #B79980",
"T  c #B9A28E",
"R  c #BDA998",
"E  c #8193B6",
"W  c #8396BC",
"Q  c #839ABE",
"!  c #8A9BBE",
"~  c #8D9BB6",
"^  c #949FBE",
"/  c #9B92A7",
"(  c #93A2BE",
")  c #9DA4BB",
"_  c #A7ABB0",
"`  c #C88E85",
"'  c #C3AD9B",
"]  c #C6AFA0",
"[  c #CBBAAA",
"{  c #C6B4A6",
"}  c #DFB3AF",
"|  c #D7B7B4",
" . c #E4BDBD",
".. c #E3BBB7",
"X. c #D6CABE",
"o. c #D4C2B7",
"O. c #E4C3BF",
"+. c #E8C0BF",
"@. c #8296C2",
"#. c #859AC3",
"$. c #8A9DC5",
"%. c #879BC8",
"&. c #8B9EC8",
"*. c #BA9EC4",
"=. c #8DA1C5",
"-. c #8DA1CA",
";. c #93A4C4",
":. c #97A9C6",
">. c #93A5C9",
",. c #96ABCC",
"<. c #9BABCB",
"1. c #9BA9C7",
"2. c #9EB1CC",
"3. c #9BAED4",
"4. c #9FB1D1",
"5. c #A1AFCC",
"6. c #A6ABC2",
"7. c #A3B2CD",
"8. c #AAB5CC",
"9. c #B8BCCC",
"0. c #B6AFD7",
"q. c #A3B4D3",
"w. c #AAB5D4",
"e. c #ABBBD3",
"r. c #ABBDDB",
"t. c #A5B7D6",
"y. c #B2BDD4",
"u. c #B0B3D7",
"i. c #ADAAD9",
"p. c #DCB8C2",
"a. c #B9C3CF",
"s. c #B6C2D5",
"d. c #BBC2D1",
"f. c #B6C3DC",
"g. c #B9C5D9",
"h. c #B8C8E3",
"j. c #C4C2C3",
"k. c #CDCCCA",
"l. c #CCC6C5",
"z. c #D6CAC0",
"x. c #D1CECC",
"c. c #D8C1C1",
"v. c #D2D0CF",
"b. c #DBD0C5",
"n. c #C2C6D1",
"m. c #C2CAD3",
"M. c #C5CCDB",
"N. c #CACBD8",
"B. c #CDD3DC",
"V. c #C5D1DD",
"C. c #D6D3D2",
"Z. c #D9D6D5",
"A. c #DBD8D7",
"S. c #D4D5DC",
"D. c #DDDBDA",
"F. c #D8D8DF",
"G. c #E6C4C3",
"H. c #E7CAC9",
"J. c #E9C1C0",
"K. c #E4D5CC",
"L. c #F0CFD0",
"P. c #EDD4D4",
"I. c #E2DEDD",
"U. c #ECDDDB",
"Y. c #E5DAD5",
"T. c #F5D4CD",
"R. c #E3E1DF",
"E. c #EBE3DD",
"W. c #F2EADF",
"Q. c #CBCEE5",
"!. c #CCD4E2",
"~. c #CAD6E8",
"^. c #D4DBE5",
"/. c #DCDCE2",
"(. c #D5DDE9",
"). c #D1D5E0",
"_. c #E2DFE1",
"`. c #DDE1E6",
"'. c #DDE4EC",
"]. c #E6E3E2",
"[. c #E9E5E5",
"{. c #ECE9E6",
"}. c #ECE7E8",
"|. c #EDEBEA",
" X c #E4E7EB",
".X c #F1E6E4",
"XX c #F2EBE5",
"oX c #FFEBE3",
"OX c #F2EEED",
"+X c #F8E9E6",
"@X c #F7F1E6",
"#X c #FBF2E7",
"$X c #F3F0EF",
"%X c #FCF4EB",
"&X c #FEFAEE",
"*X c #E5EAF0",
"=X c #F5EFF1",
"-X c #EFF1F1",
";X c #F5F3F2",
":X c #F9F6F4",
">X c #F6F8F5",
",X c #FDFAF5",
"<X c #F9F7F9",
"1X c #FEFEFC",
"2X c #F7F9FC",
"3X c None",
/* pixels */
"3X3X3X3X3X3X3X3X3X3X3X3X3X3X3X3X3X3X3X3X3X3X3X3X3X3X3X3X3X3X3X3X3X3X3X3X3X3X3X3X3X3X3X3X3X3X3X3X3X3X3X3X3X3X3X. . . . . . 3X3X3X3X3X3X3X3X3X3X3X3X3X3X",
"3X3X3X3X3X3X3X3X3X3X3X3X3X3X3X3X3X3X3X3X3X3X3X3X3X3X3X3X3X3X3X3X3X3X3X3X3X3X3X3X3X3X3X3X3X3X3X3X3X3X3X3X3X3X3X. 3X3X3X. . 3X3X3X3X3X3X3X3X3X3X3X3X3X3X",
"3X3X3X3X3X5.3X3X3X3X3X3X3X3X3X3X3X3X3X3X3X3X3X3X3X3X3X3X3X3X3X3X3X3X3X3X3X3X3X3X3X3X3X3X3X3X3X3X3X3X3X3X3X3X3X3X3X3X. . 3X3X3X3X3X3X3X3X3X3X3X3X3X3X3X",
"3X3X3X3X#.D w.3X3X3X3X3X3X3X3X3X3X3X3X3X3X3X3X3X3X3X3X3X3X3X3X3X3X3X3X3X3X3X3X3X3X3X3X3X3X3X3X3X3X3X3X3X3X3X3X3X3X. . 3X3X3X3X3X3X3X3X3X3X:.3X3X3X3X3X",
"3X3X3X3XS I #.g.5.3X3X3X3X3X3X3X3X3X3X3X3X3X3X3X3X3X3X3X3X3X3X3X3X3X3X3X3X3X3X3X3X3X3X3X3X3X3X3X3X3X3X3X3X3X3X3X3X. . 3X3X3X3X3X3X3X3X3X! @.H 3X3X3X3X",
"3X3X3X3X5.q.#.n $.%.#.$.$.;.:.5.7.3X3X3X3X3X3X3X3X3X3X3X3X3X3X3X3X3X3X3X3X3X3X3X3X3X3X3X3X3X3X3X3X3X3X3X3X3X3X3X. . 3X3X3X3X3X3X3X3X3X<.I #.M W 3X3X3X",
"3X3X3X3X3X3X3X,.S #.#.%.%.%.#.@.W #.=.>.1.7.3X3X3X3X3X3X3X3X3X3X3X3X3Xy.f.q.7.7.5.7.e.h.3X3X3X3X3X3X3X3X3X3X3Xo . 3X3X3Xd L ;.w.3.<.g.=.D A M I 3X3X3X",
"3X3X3X3X3X3X3X3XH N D D H S A H D D J J I I @.#.$.=.>.>.>.$.$.$.@.%.$.@.K @.@.#.@.#.@.H @.$.@.#.$.$.$.$.$.$.k . . . . . . J %.@.#.#.D A n @.W w.3X3X3X",
"3X3X3X3X3X3X3X3X3XN H I N 7.^.^.(.Q.y.q.>.@.S K I #.%.#.%.&.&.&.&.&.&.&.=.&.-.>.$.>.&.&.-.-.=.=.&.&.&.$.&.&.$.#.#.#.%.#.#.#.#.Q I D B C 3X3X3X3X3X3X3X",
"3X3X3X3X3X3X3X3X3XH S I g g.1XoXW.oX%X,X;X(.N.y.<.H b A % . . . . . A -.-.=.$.#.#.@.@.I I I I #.$.&.&.-.$.@.H H D S G S H H D S D S n 3X3X3X3X3X3X3X3X",
"3X3X3X3X3X3X3X3X3XQ S H S B *XoX} K..X$X,X,X1X,X:X/.s.$.+ g I h . 1 @.#.@.H H D D S + . . . . . h I I H S H S H H H P H H H H H H C Q 3X3X3X3X3X3X3X3X",
"3X3X3X3X3X3X3X3X3X#.S H I N S >XoXOX>X$X=XOXOX$X:X,X1X1X].<.i o O S S S S D D H I D $ I I y . , H D S H H H H H H H H H H H H H H n q.3X3X3X3X3X3X3X3X",
"3X3X3X3X3X3X3X3X3XH S H H I w b  X,X$X-X$X$XOX;X$XOXOX>X1X1Xf . y I I H H H H H H H H D S O O S H H H H I H S H H H H H H H D H H n e.3X3X3X3X3X3X3X3X",
"3X3X3X3X3X3X3X3X3XC I H H I N 4 S.1X:X;X$XOX;X|.:X1X$X{..X0.. d 4 5 S I I H H H H H I D , . h H H H H H D H I H H I H H H H H H H M ,.3X3X3X3X3X3X3X3X",
"3X3X3X3X3X3X3X3X<.N H H H I e :.1X$X;X=X$X$X;XOX' A.#X .p.@ < ,X^.;.7 w S H H H D D H y . , D H D H H H H H H H H D S H H H H H H S #.3X3X3X3X3X3X3X3X",
"3X3X3X3X3X3X3X3X#.J H H H J p ^.1XOXOX$X$X$X;X:XY.R G.J.2 . Q.OX%Xi.u.S 3 b I @.I H S X + I I G I H H H H H H H H H H I D H H H H H n 3X3X3X3X3X3X3X3X",
"3X3X3X3X3X3X3X3Xn I I H H g &.1X$X$X;XOXOXOX2X1X1X{ | *.. . . . . . |.,Xy.e 8 S I H $ . h G G y h I D H H H H H H H D I H H H H H H N =.3X3X3X3X3X3X3X",
"3X3X3X3X3X3X3XQ b I H H I r !.1X$X$X$X$X;X:Xz.X.o.' ,X%X@X$XOXOX[.|.OX:X1X XC 3 N h . . . . . . A D H H H H H H H H H H D H H H H H H C 3X3X3X3X3X3X3X",
"3X3X3X3X3X3X3Xr G G G I b H ,X%X$X$X$X$X;X<XK.[ [ [.2X-X;X;X;X;X].;X;X$XOX1X1X7.3 r U I H H H H H S H H I S H H H H D H H I H H H H S a 3X3X3X3X3X3X3X",
"3X3X3X3X3X3X=.w N b b g 3 g.1XOXOX$X$X$X;X|.<X1X1X,XOX=X;X$X;X|.[.|.$X$X$XOX,X1XM.w w I I G H H H I H H H H H H D I I G D I I N p b G H 3X3X3X3X3X3X3X",
"3X3X3X3X3X3Xl g >.8.f.2.>.$X:X$X$X$X$X$X2X<X>XT.` U.<X;X$XOX;X|.].$XOX;X$X$XOX;X1X`.g 4 H H G H H H H H H H D H H H H I I g w S w.(. X$X,X$XOXOXOX;X3X",
"3X3X3X3X3X3X; $.1X,X&X&X&X$XOX$X$XOX;X;XX.E.1X .  l.<X;X$X;X;X}.[.>X;XOX$X$X$X$X$X1X-XS 4 G H H H H D H I H H I H H I G w S m.,X1X,X&X:XOX}.OX|.OX3X3X",
"3X3X3X3X3X=.6 r `.1XO....X:X$X$X$X$X;X<Xz.Y E.2XOXOX;X$XOX;X>X].|.;XOXOX$X$X$X$X$X$X1X,XF 6 J I I H H H D H H D H @.S 4 ,.1X1X:XR.|.;X=X].OX}.|.3X3X3X",
"3X3X3X3X3XH i i 0 (.1XG..X:X$X$X$X$X$X;X1XK.' 1X:X;XOXOXOX;X|.].OX;XOX;X$X$XOX$X$X$X$X1X,XH 6 G I D H H H H H H I B 4 g.1X1X].I.=X:X;X[.XXOX].:X3X3X3X",
"3X3X3X3X3Xm g I i 9 ~.,X+X$X$X$X;X$X|.>X1Xb.{ 1X;X=X-XOXOX;X[.}.;XOXOXOX;X;XOX;X$X$X;XOX1X,XC 5 H H H I H H H I D 4 g.1X1X].I.$X;X;XOX].;X].=X3X3X3X3X",
"3X3X3X3X3Xa b I I M ; e.1X,XOX$X|.<X[.{ [ T U.1X=X-X;X$X;X=X].OXOX;X;X$XOXOXOXOX$XOXOX;X;X,X:Xb w I H S H H H I 4 2.1X;X].D.:X:X=X;X].}.|.[.:X3X3X3X3X",
"3X3X3X3X3Xg m H I U N 6 Q ;X1X$XOX$X;XI.| H.L.P.;X$X$X$X;X[.}.;X;XOX;X$XOX;X;XOXOX;XOX;X:X;X1X`.0 g I I H H @.i S 2XXXOXA.$X$XOX|.;X_.|.].XX3X3X3X3X3X",
"3X3X3X3X3Xb B H G G I I 9 a ^.1X,XOXOX1XOXG.+.G.|.:XOX;XXX].$X$XOX$XOX$X;XOXOX;X$XOX;X>X:X:X$X1Xe.3 S I D I B 8 (.%X|.R.].:X:X[.[.;XI.OXI.;X3X3X3X3X3X",
"3X3X3X3X3Xb B H H H H I I g 4 7.1X1X$X:XOXH. .P.$X$X;XOX].|.;X;X:X=XOX=XOXOX=X$X$XOX;X>X:X:X;X:X1X#.4 I I I 5 #.1X].OXA.>X;X;X].;X|.[.[.].;X3X3X3X3X3X",
"3X3X3X3X3Xg m H H H H H H @.n 3 S B.1X1X;XXXU.OX:X$X$X[.|.:X;X>X;X>X$XOXOX;XOX-X$XOXOX:X;X;X>X;X1X|.r e I N 5 ^.%X[.[.].;X;X{._.,X[._.[.].|.3X3X3X3X3X",
"3X3X3X3X3Xn N H H H H H C B S a 4 3 W `.:X:X,X:X$X$X|.|.;X:X>X:X>X;XOX;X$X$X$X$XOX;X$X:X:X>X;X:X;X1Xg.4 b i G ,XR.OXI.|.;X;X[.].1X].].[.].}.3X3X3X3X3X",
"3X3X3X3X3XH p H H H G C W $.$.H l b 7.C.].{.{.|.$X$X;X:X:X:X>X;X;X;XOXOX;X$X$X$XOX;X;X;X<X:X>X>X:X%X1XH 8 5 7.,XI.OXY.OX;X:X_.[.,X[.].[.].].3X3X3X3X3X",
"3X3X3X3X3X;.w H D K V $.h.t.,.>.q.A.W.XX{.[.].}.{.].].|.$X>X>X;X>XOXOX=X;X;X;XOX;X|.].].[.|.>X$X-X$X1XV.4 5 M.,XR.|.Y.>X;XOXv.].2XR.].].E.].3X3X3X3X3X",
"3X3X3X3X3X3Xw K D V V &.W v D q W E.x.I.|.:X;X{.].$X;X-X|.;X$X;XU.K.;X=X;X|.OX;X}.D.|.;X$X|.R.|.|.|.:X,XS 3 '.&XR.{.A.;X|.|.I.I.<X].}.].I.{.3X3X3X3X3X",
"3X3X3X3X3X3Xt j E ,.3.s Z 1.;.-.z _ oX|.].|.|.].1X:X|.>X{.R.|.R.|  .|.].I.[.[.[.].:X;X}.>X:XA.$X:XR.{.&X8.w `.{.I.D.C.{.D.OX[.I.=Xv._.[.D.[.3X3X3X3X3X",
"3X3X3X3X3X3Xg e ,.h.W Z t.v c v -.z a.1X=X[.].;X>XD.I.].{.&XOXP.P.l.A.|.[.OX|.C.R.1XD.k.D.R.|.1X,X>XD.XX X2.;X].l.}.{.2X_._.[.x.].Y.I.I.I.[.3X3X3X3X3X",
"3X3X3X3X3X3Xp t >.r.c 3.Z ! r.! Z $.: !.,X|.[.@XOX].1X1XD.V / o.-XY.C.2XI.Z.:X].C.;X2X;X-XI.D.:X;X].R.1X Xv  X:Xv.>XC.[.].[.[.x.=X|.D.I.D.[.3X3X3X3X3X",
"3X3X3X3X3X3Xe q >.3.c >.Z r.e.r.v <.a S M.XX&X,X,X{.].8.q 7 C.E.OX[.I.,XZ.Z.:X|.D.I.{.;X,X,XA.-X;XD.].,X{.> s.1XA.{.j.].I..X}.;X1Xk.A.[.A.[.3X3X3X3X3X",
"3X3X3X3X3X>.u t &.q.x 3.Z E r.W v q.v >.n t ( !.V.x : & 0 '.E.l.2X].I.>X].].2X|.].[.A.x.A.1X].-X-Xv.R.,X@X> 7.1XD.$Xj.D.I.}.].C.OX]._.I.A.{.3X3X3X3X3X",
"3X3X3X3X3XD i t =.h.E W t.v c c t.! Z 3.:.~ E z H U @.H E ;X].].1X[.D.1X].{.1X{.D.,X>X|.,X2XD.|.1X-XA.OX1X2.y.&XC.>X].$X].].}.C.A.OX[.C.I.[.3X3X3X3X3X",
"3X3X3X3X3XM g a W q.,.s ! q.;.q.&.c K 8.XX%X,XA.6.D #.m ) {.OXOX|.].].|.}.OX=X}.].[.$X;XOX].}.[.$X,XR.D.,X2.H |.R.D.].OX[.D.A.OXZ.Z.OXZ.D.3X3X3X3X3X3X",
"3X3X3X3X3Xg b a l A D D z H Q D V M a C.XX|.;X,X%Xa.4 * n.+X}.[.[.|.$X|.>X;X|.$X:X|.[.|.|.OX,X;X|.{.|.OX|.z 0 ;X,X].C.].;XD.C.,XA.D.|.A._.3X3X3X3X3X3X",
"3X3X3X3X3Xe b g B H K S H S C D I w ;.%X[.XX=X=X:X,XB.w n.&X;X;X;X$X>X:X:X;X:X<X>X>X>X,X<X:X;X>X>X:X;X,XOXg p -X,X|.I.;X;XY.OX].A.<XOXA.].3X3X3X3X3X3X",
"3X3X3X3X3Xe b b S I H G H H H I S 5 1.%X].;X$XOX$X;X1Xn.a.%XOXOXOX;X;X>X:X;X>X;X>X;X:X>X;X<X;X:X>X:X;X1XB.4 n ;X1XR.I.,X[.I.,XC.[.,X[.Z.].3X3X3X3X3X3X",
"3X3X3X3X3Xg g b S H H H H H H H S a b R.#X[.OX;X;X|.:X,X[.{.$XOXOX;X;X;X:X>X:X:X;X;X;X;X<X;X:X;X;X;X;X1Xs.- H 1X:XD.|.;XD.=X_.D.>X;XY.A.{.3X3X3X3X3X3X",
"3X3X3X3X3XS e b I H I D H H H I I M 7 H $XXX[.;X$X$XOX;X=X|.;X;XOXOX;X>X;X;X;X:X:X:X>X:X:X:X;X>X$XOX;X&X;.= 2.1XY.].1X].[.|.C.;X:XOXC.D.3X3X3X3X3X3X3X",
"3X3X3X3X3XW w b P I H H H H H H I S g 5 E OX%X|.;X=XOX;X;XOX$X$X;X$X;X>X:X;X>X;X;X;X;X;X;X>X;X;XOX;X&XF.4 5 |.XXD.<X|.[.XXC.OX:X:XR.C.].3X3X3X3X3X3X3X",
"3X3X3X3X3X>.w b S H P H H H H H H S N g 5 S [.%X|.;XOXOX;XOX$XOXOX=X$X:X:X:X;X<X:X>X:X:X<X:X;X=X$X;X%X! 3 ~.%XD.;X=X}.}.A.|.<X;X|.C.D.3X3X3X3X3X3X3X3X",
"3X3X3X3X3X3Xe b G I P I H H H G H I J b M 5 M I.#XXX;X=X$X$X$X;XOXOXOX;X:X;X;X:X:X;X:X:X:X:X$XOX;XXX].s.^.&X[.;X:X=X[.A.}.<X;XOXD.C.].3X3X3X3X3X3X3X3X",
"3X3X3X3X3X3Xl r S I G H H H H H H H I S g N w r B.%X|.;X$X$X$XOX;X;XOXOX;X>X>X:X;X:X>X,X$X$XOX:XOXI.R.,X%XXX;X<XOXI.I.OX,X;XOXA.Z.R.3X3X3X3X3X3X3X3X3X",
"3X3X3X3X3X3Xm e B I H I H H H H H H H I S g N i w n.&X;X$X$X$X$XOX;XOX;XOX;X:X:X>X>X$X$X-X$X:X$X].I.OX;X:X$X|.].I.[.:X:X=X[.A.D..X3X3X3X3X3X3X3X3X3X3X",
"3X3X3X3X3X3XU w n P H H H H H H H H H S I J g M i 4 5.%X:X;X$X$XOXOXOX;X=XOX;X;X=XOX$X$X$X$X$X].R.R.[.OXOX|.|.|.;X<XOX[.A.C.E..XM.3X3X3X3X3X3X3X3X3X3X",
"3X3X3X3X3X3XU e M S H H H D H H H H H I H I S b b p 5 ^ #X,X;X$X;XOX;XOXOX$X;XOXOXOX;XOX;X$X].R.].].R.R.].}.|.{.[.I.A.Z.D.#X%XZ #.3X3X3X3X3X3X3X3X3X3X",
"3X3X3X3X3X3XG i M S I H D I H H H H H H H P I J b b g 6 W @X&X$X;XOX$X=X;XOXOX$X;XOX;X;X$XR.W.%X#X].R.].I.I.I.A.A.I.R.@X&XF.S 3 3X3X3X3X3X3X3X3X3X3X3X",
"3X3X3X3X3X3Xb g M C H H H D H H I D H H H H H I I N g M 5 S ].,X$X;X;X;X;X$XOX;X;X;XOX[.W.&XV.W a.OX&X+XXX{.XXXX#X&X#XS.( w 5 g 3X3X3X3X3X3X3X3X3X3X3X",
"3X3X3X3X3X3Xe b g C I H H I G H G H H H H H G G I I N b b 5 g d.XX,X@X|.OXOXOXOX|.XXXX%X{.8.i 3 w H 8.n.S.D./.S.N.8.$.g w N g g 3X3X3X3X3X3X3X3X3X3X3X",
"3X3X3X3X3X$.w b g S I H H H H H H H H H H H H H H I I S m b w 5 H d._.XX#X&X%X@XXXE.S.w.m 4 i N S b p b B P P B n g p J U I p g 3X3X3X3X3X3X3X3X3X3X3X",
"3X3X3X3X3Xb p M b m I I I I I I I I I H H H H H H H H I I S A M w w m Q >.<.5.:.$.G p 5 w M S H I I I I P J S G S I I H I P g g 3X3X3X3X3X3X3X3X3X3X3X",
"3X3X3X3X,.7 b b b N M n B S S N B S S D H H H H G H H H H U I H C N p w 5 5 5 5 5 u M N S I U I I I I I I I U I I I I I I I N r 3X3X3X3X3X3X3X3X3X3X3X",
"3X3X3X3X8 p g g j j g b g g g g g b g b N B G I I I I S S N g p i e e e r g g N n b e p N B B N B B m S B B n N B S H I U H M e 3X3X3X3X3X3X3X3X3X3X3X",
"3X3X3Xz w B b b a r r p g e w w e i w w 5 e g a r M n n b n C H I %.:.:.3X3X3X3X3X3X3XQ e w M b b b g g b g g b g p p b B n g u 1.3X3X3X3X3X3X3X3X3X3X",
"3X3XW 6 G 3X3X3X3X3X3X3X3X2.e.<.,.<.,.5.e.3X3X3X3X3X3X3X3X3X3X3X3X3X3X3X3X3X3X3X3X3X3X3X3XH u w u p p i i e w i a n m n g 8 p e #.3X3X3X3X3X3X3X3X3X3X",
"3X7.w u S 3X3X3X3X3X3X3X3X3X3X3X3X3X3X3X3X3X3X3X3X3X3X3X3X3X3X3X3X3X3X3X3X3X3X3X3X3X3X3X3X3X3X:.W H C S H @.( 3X3X3X3X3X3X>.n p n 3X3X3X3X3X3X3X3X3X3X",
"3Xw.8 6 q.3X3X3X3X3X3X3X3X3X3X3X3X3X3X3X3X3X3X3X3X3X3X3X3X3X3X3X3X3X3X3X3X3X3X3X3X3X3X3X3X3X3X3X3X3X3X3X3X3X3X3X3X3X3X3X3X3X3Xe 4 2.3X3X3X3X3X3X3X3X3X",
"3X3X3X3X3X3X3X3X3X3X3X3X3X3X3X3X3X3X3X3X3X3X3X3X3X3X3X3X3X3X3X3X3X3X3X3X3X3X3X3X3X3X3X3X3X3X3X3X3X3X3X3X3X3X3X3X3X3X3X3X3X3X;.e i m 3X3X3X3X3X3X3X3X3X",
"3X3X3X3X3X3X3X3X3X3X3X3X3X3X3X3X3X3X3X3X3X3X3X3X3X3X3X3X3X3X3X3X3X3X3X3X3X3X3X3X3X3X3X3X3X3X3X3X3X3X3X3X3X3X3X3X3X3X3X3X3X3XF i b e 3X3X3X3X3X3X3X3X3X",
"3X3X3X3X3X3X3X3X3X3X3X3X3X3X3X3X3X3X3X3X3X3X3X3X3X3X3X3X3X3X3X3X3X3X3X3X3X3X3X3X3X3X3X3X3X3X3X3X3X3X3X3X3X3X3X3X3X3X3X3X3X3X3X7 i 0 3X3X3X3X3X3X3X3X3X",
"3X3X3X3X3X3X3X3X3X3X3X3X3X3X3X3X3X3X3X3X3X3X3X3X3X3X3X3X3X3X3X3X3X3X3X3X3X3X3X3X3X3X3X3X3X3X3X3X3X3X3X3X3X3X3X3X3X3X3X3X3X3X3X>.g H 3X3X3X3X3X3X3X3X3X",
"3X3X3X3X3X3X3X3X3X3X3X3X3X3X3X3X3X3X3X3X3X3X3X3X3X3X3X3X3X3X3X3X3X3X3X3X3X3X3X3X3X3X3X3X3X3X3X3X3X3X3X3X3X3X3X3X3X3X3X3X3X3X3X3X3X3X3X3X3X3X3X3X3X3X3X",
"3X3X3X3X3X3X3X3X3X3X3X3X3X3X3X3X3X3X3X3X3X3X3X3X3X3X3X3X3X3X3X3X3X3X3X3X3X3X3X3X3X3X3X3X3X3X3X3X3X3X3X3X3X3X3X3X3X3X3X3X3X3X3X3X3X3X3X3X3X3X3X3X3X3X3X"
};
