/* XPM */
static char *result[] = {
/* columns rows colors chars-per-pixel */
"75 70 206 2 ",
"   c #BA7E75",
".  c #1000AB",
"X  c #1D11AC",
"o  c #221DAD",
"O  c #2621AE",
"+  c #2F23AF",
"@  c #2E2DAE",
"#  c #2E32AC",
"$  c #322BB0",
"%  c #3637B2",
"&  c #3C5E98",
"*  c #3F629F",
"=  c #3156A0",
"-  c #3F44B1",
";  c #3F62A4",
":  c #4A689C",
">  c #566F9D",
",  c #667A9E",
"<  c #474CB4",
"1  c #4D55B5",
"2  c #5C55BB",
"3  c #654DB0",
"4  c #4465A4",
"5  c #4C6BA5",
"6  c #4D6DAA",
"7  c #4667AB",
"8  c #516EA5",
"9  c #516EAA",
"0  c #4F70AA",
"q  c #5471A6",
"w  c #5C75A5",
"e  c #5573AC",
"r  c #5A76AD",
"t  c #5D7AAE",
"y  c #5D79A7",
"u  c #5968B7",
"i  c #5473B1",
"p  c #5A76B1",
"a  c #5D7AB2",
"s  c #627CAE",
"d  c #6D7EA5",
"f  c #6D6EBE",
"g  c #716FBD",
"h  c #637EB3",
"j  c #6774BE",
"k  c #647FB8",
"l  c #6D7CBC",
"z  c #6681AE",
"x  c #6D83AC",
"c  c #7485A4",
"v  c #7485AB",
"b  c #7789AC",
"n  c #6581B4",
"m  c #6A84B5",
"M  c #6F88B7",
"N  c #6682B8",
"B  c #6B85B9",
"V  c #6E89BA",
"C  c #7286B3",
"Z  c #738AB6",
"A  c #7B8DB4",
"S  c #7286BA",
"D  c #748CBC",
"F  c #798FBC",
"G  c #7F91B2",
"H  c #7790BD",
"J  c #7A91BE",
"K  c #768EC0",
"L  c #7A8FC1",
"P  c #7790C1",
"I  c #7C93C2",
"U  c #7F98C0",
"Y  c #B79980",
"T  c #B9A28E",
"R  c #BDA998",
"E  c #8193B6",
"W  c #8396BC",
"Q  c #839ABE",
"!  c #8A9BBE",
"~  c #8D9BB6",
"^  c #949FBE",
"/  c #9B92A7",
"(  c #93A2BE",
")  c #9DA4BB",
"_  c #A7ABB0",
"`  c #C88E85",
"'  c #C3AD9B",
"]  c #C6AFA0",
"[  c #CBBAAA",
"{  c #C6B4A6",
"}  c #DFB3AF",
"|  c #D7B7B4",
" . c #E4BDBD",
".. c #E3BBB7",
"X. c #D6CABE",
"o. c #D4C2B7",
"O. c #E4C3BF",
"+. c #E8C0BF",
"@. c #8196C2",
"#. c #859AC3",
"$. c #8B9DC4",
"%. c #879BC8",
"&. c #8A9EC8",
"*. c #BA9EC4",
"=. c #8DA1C5",
"-. c #8DA1CA",
";. c #93A4C4",
":. c #97A9C6",
">. c #93A5C9",
",. c #96ABCC",
"<. c #9BABCB",
"1. c #9BA9C7",
"2. c #9EB1CC",
"3. c #9BAED4",
"4. c #9FB1D1",
"5. c #A1AFCC",
"6. c #A6ABC2",
"7. c #A3B2CD",
"8. c #AAB5CC",
"9. c #B8BCCC",
"0. c #B6AFD7",
"q. c #A3B4D3",
"w. c #AAB5D4",
"e. c #ABBBD3",
"r. c #ABBDDB",
"t. c #A5B7D6",
"y. c #B2BDD4",
"u. c #B0B3D7",
"i. c #ADAAD9",
"p. c #DCB8C2",
"a. c #B9C3CF",
"s. c #B6C2D5",
"d. c #BBC2D1",
"f. c #B6C3DC",
"g. c #B9C5D9",
"h. c #B8C8E3",
"j. c #C4C2C3",
"k. c #CDCCCA",
"l. c #CCC6C5",
"z. c #D6CAC0",
"x. c #D1CECC",
"c. c #D8C1C1",
"v. c #D2D0CF",
"b. c #DBD0C5",
"n. c #C2C6D1",
"m. c #C2CAD3",
"M. c #C5CCDB",
"N. c #CACBD8",
"B. c #CDD3DC",
"V. c #C5D1DD",
"C. c #D6D3D2",
"Z. c #D9D6D5",
"A. c #DBD8D7",
"S. c #D4D5DC",
"D. c #DDDBDA",
"F. c #D8D8DF",
"G. c #E6C4C3",
"H. c #E7CAC9",
"J. c #E9C1C0",
"K. c #E4D5CC",
"L. c #F0CFD0",
"P. c #EDD4D4",
"I. c #E2DEDD",
"U. c #ECDDDB",
"Y. c #E5DAD5",
"T. c #F5D4CD",
"R. c #E3E1DF",
"E. c #EBE3DD",
"W. c #F2EADF",
"Q. c #CBCEE5",
"!. c #CCD4E2",
"~. c #CAD6E8",
"^. c #D4DBE5",
"/. c #DCDCE2",
"(. c #D5DDE9",
"). c #D1D5E0",
"_. c #E2DFE1",
"`. c #DDE1E6",
"'. c #DDE4EC",
"]. c #E6E3E2",
"[. c #E9E5E5",
"{. c #ECE9E6",
"}. c #ECE7E8",
"|. c #EDEBEA",
" X c #E4E7EB",
".X c #F1E6E4",
"XX c #F2EBE5",
"oX c #FFEBE3",
"OX c #F2EEED",
"+X c #F8E9E6",
"@X c #F7F1E6",
"#X c #FBF2E7",
"$X c #F3F0EF",
"%X c #FCF4EB",
"&X c #FEFAEE",
"*X c #E5EAF0",
"=X c #F5EFF1",
"-X c #EFF1F1",
";X c #F5F3F2",
":X c #F9F6F4",
">X c #F6F8F5",
",X c #FDFAF5",
"<X c #F9F7F9",
"1X c #FEFEFC",
"2X c #F7F9FC",
"3X c None",
/* pixels */
"3X3X3X3X3X3X3X3X3X3X3X3X3X3X3X3X3X3X3X3X3X3X3X3X3X3X3X3X3X3X3X3X3X3X3X3X3X3X3X3X3X3X3X3X3X3X3X3X3X3X. . 3X3X3X3X3X3X3X3X3X3X3X3X3X3X3X3X3X3X3X3X3X3X3X",
"3X3X3X3X3X3X3X3X3X3X3X3X3X3X3X3X3X3X3X3X3X3X3X3X3X3X3X3X3X3X3X3X3X3X3X3X3X3X3X3X3X3X3X3X3X3X3X3X3X3X. 3X3X3X3X3X3X3X3X3X3X3X3X3X3X3X3X3X3X3X3X3X3X3X3X",
"3X3X3X3X3X5.3X3X3X3X3X3X3X3X3X3X3X3X3X3X3X3X3X3X3X3X3X3X3X3X3X3X3X3X3X3X3X3X3X3X3X3X3X3X3X3X3X3X3X. . 3X3X3X3X3X3X3X3X3X3X3X3X3X3X3X3X3X3X3X3X3X3X3X3X",
"3X3X3X3X#.F w.3X3X3X3X3X3X3X3X3X3X3X3X3X3X3X3X3X3X3X3X3X3X3X3X3X3X3X3X3X3X3X3X3X3X3X3X3X3X3X3X3X. . 3X3X3X3X3X3X3X3X3X3X3X3X3X3X3X3X3X3X3X:.3X3X3X3X3X",
"3X3X3X3XD I #.g.5.3X3X3X3X3X3X3X3X3X3X3X3X3X3X3X3X3X3X3X3X3X3X3X3X3X3X3X3X3X3X3X3X3X3X3X3X3X3X. . 3X3X3X3X3X3X3X3X3X3X3X3X3X3X3X3X3X3X3X#.I J 3X3X3X3X",
"3X3X3X3X5.q.#.m $.%.#.$.$.;.:.5.7.3X3X3X3X3X3X3X3X3X3X3X3X3X3X3X3X3X3X3X3X3X3X3X3X3X3X3X3X3X3X. . 3X3X3X. 3X3X3X3X3X3X3X3X3X3X3X3X3X3X<.I @.m W 3X3X3X",
"3X3X3X3X3X3X3X,.D #.#.%.%.%.#.@.#.W =.>.1.7.3X3X3X3X3X3X3X3X3X3X3X3X3Xf.f.w.7.7.q.7.w.h.3X3X+ . . . . . $ 3X3X3X3X3X3X3Xe.7.;.w.<.3.g.=.J Z N I 3X3X3X",
"3X3X3X3X3X3X3X3XJ B F F J D S J F F K K P I @.#.$.=.>.>.>.$.$.$.@.#.#.@.P L . . . . . X @.$.W #.$.#.#.$.=.$.$.;.$.&.#.$.@.@.&.@.%.@.F Z m #.W w.3X3X3X",
"3X3X3X3X3X3X3X3X3XB P P S 7.^.~.(.Q.r.q.>.@.F F I %.%.#.%.&.&.&.&.&.&.&.-.W < &.>.u . j -.-.-.$.=.&.&.$.&.&.$.$.#.#.#.#.$.$.#.@.P J M Z 3X3X3X3X3X3X3X",
"3X3X3X3X3X3X3X3X3XJ F J n g.1XoXW.oX%X,X;X/.N.y.,.J n S % . . . . . S -.-.-.$.#.l . % I I I I #.$.&.-.-.%.@.J F F D H F H F F D F F m 3X3X3X3X3X3X3X3X",
"3X3X3X3X3X3X3X3X3XQ D J F V *XoX} P.XX$X<X,X1X,X%X/.s.$.@ a I j . < #.@.I J J D @ o D L F L F F L I J J D J F J J J P J J H J J J M Q 3X3X3X3X3X3X3X3X",
"3X3X3X3X3X3X3X3X3X#.D J J B H >XoXXX>X$X=XOX$X$X:X,X1X1X].<.p o O V F F H A J < . u P J F I P J J F D J J J J J J J J J J J J J J m q.3X3X3X3X3X3X3X3X",
"3X3X3X3X3X3X3X3X3XJ F J J I e n  X,X$X;X$X$X$X;X;XOX$X>X1X1Xg . u I I J J J j . < J J J J J J J J J J F J F P J J J J J J F J J F m r.3X3X3X3X3X3X3X3X",
"3X3X3X3X3X3X3X3X3XM L J J I N 5 ).,X;X;X$X$X$X}.;X1X$X{..X0.. f 6 0 D I I D O O F J J - J J J P J J J P J J J J J J J J J J J J J m ,.3X3X3X3X3X3X3X3X",
"3X3X3X3X3X3X3X3X<.B J J J I r ,.1X;XOX;X$X$X;X$X' A.+XJ.p.+ 2 &XF.;.6 r F 1 . . . . . O J J J J J J J J J J J J F P J J F J J J J D #.3X3X3X3X3X3X3X3X",
"3X3X3X3X3X3X3X3X#.K I J J F t ^.1X|.;X$X$X$X$X,XY.R G.J.3 . Q.OX%Xi.u.Z 4 h I I J J J J J F J J J J J J J J J J J J J J P J J J J J m 3X3X3X3X3X3X3X3X",
"3X3X3X3X3X3X3X3XM J I J J h &.1X$X$X$X$X;XOX2X1X1X{ o.*.. . . . . . |.,Xy.e 9 H I J J J J J J J J J F I J J J J J F J F J J J J J J V =.3X3X3X3X3X3X3X",
"3X3X3X3X3X3X3XQ m I J J I t !.1X$X$X$X$XOX:Xz.z.o.' ,X@XOX;X$XOX].|.=X:X1X XZ 4 V U J J J J J J J J J F J J J J J J J J J J J J J J F M 3X3X3X3X3X3X3X",
"3X3X3X3X3X3X3Xt H J H J n J ,X%X$X$X$X$X;X>XK.[ [ [.<X$X$X;X;X$X[.|.;XOXOX1X1X7.4 s I I J J J J J J J J L J J J J P J J F I J J J J F h 3X3X3X3X3X3X3X",
"3X3X3X3X3X3X=.e N n n h 4 g.1XOXOX$X$X$X=X|.<X1X1X,XOX;X$X;X=XOX[.;X$X$X;XOX,X1XM.q e I I H H J J J J J J J J J J J J J J I I B t n H J 3X3X3X3X3X3X3X",
"3X3X3X3X3X3Xz h >.8.f.4.>.$X:X$X$X$X$X-X1X<X<XT.` I.<X;XOXOX;X|.].$X$X;X$X$XOX$X1X'.a 8 H I H J F P J F J J J J J J J J @.k w D w.(. X$X,X;X|.=XOX;X3X",
"3X3X3X3X3X3X: $.1X,X&X&X&X$XOX$X$X$X$X;XX.R.1X+.  c.2X;X;X;X;X}.].>XOXOX$XOX$X$X;X1X-XS 5 H I P J J J J J J J F J J I H 9 D m.<X1X,X%X,XOX}.OX|.OX3X3X",
"3X3X3X3X3X=.7 t `.1XO....X:X$X$X$X$X;X<Xz.Y E.<XOX|.;X$XOX=X>X].}.;X;XOX$X$X$X$X$X$X1X,XG 5 F I I J J J J J J I J @.D 6 ,.1X1X;XR.}.;X=X].OX{.XX3X3X3X",
"3X3X3X3X3XJ p p q (.1XG..X:X$X$X$X$X$X;X1XK.' 1X:X;XOX$XOX;X|.].$XOX;X$X$X$X$X$X$X$X$X1X,XJ 7 P I F J J J J J F W V 5 g.1X1X[.I.OX>X:X[.}.OX[.;X3X3X3X",
"3X3X3X3X3XM h I p 0 ~.,X+X$X$X$X$X=X|.>X1Xb.{ 1X=X=X;X|.OX;X[.}.;X$X$XOX;XOXOX;X;XOX;X|.1X,XD 5 J @.J J J J J I F 5 g.1X1X].D.;X;X;X}.].;X].OX3X3X3X3X",
"3X3X3X3X3Xs n I I N : e.1X,XOX$X$X>X[.{ [ T U.1X=X-X;X;X;X=X].OX$X;X$X$XOX;X;XOX$X$XOX;X;X,X:Xn q I J J J J I I 5 4.1X;X].D.:X;X=X;X[.}.}.[.:X3X3X3X3X",
"3X3X3X3X3Xh M J P U B 7 Q ;X1X$X-X;X;XY.o.H.L.P.;X;XOX$X;X[.}.;XOX$X$X$XOXOXOXOX$X$XOX;X,X;X1X`.e a I P J J I p V 1XXXOXA.$X;XOX}.>XI.-X[.|.3X3X3X3X3X",
"3X3X3X3X3Xn V J J H I I 0 s ^.1X,X|.=X1X=XG.J.G.|.;X$X;XXX[.OXOX;XOX$X$X;X;XOX;X$XOX;X>X>X;X$X1Xy.4 D J J I V 9 (.%X}.R.].:X:X[.}.=XI.XXI.;X3X3X3X3X3X",
"3X3X3X3X3Xn V J J J J J @.h 5 7.,X1X$X;XOXH. .P.$X$X$X$X].OX;X;X;X;XOXOXOX$X$X$XOXOX;X>X:X;X;X:X1X#.5 P I I 6 #.1X].OXA.>X;X;X[.$X|.].{.].$X3X3X3X3X3X",
"3X3X3X3X3Xh M J J J J J P U m 4 D !.1X,X;XXXU.OX$X$X$X[.}.;X;X>X>X>XOX;X=X$XOX$X;XOX$X;X;X:X>X;X1X|.t t I N 9 ^.%X}.[._.;X;X}.I.<X}.].[.].}.3X3X3X3X3X",
"3X3X3X3X3Xm N J J J J J Z D D s 5 4 Q  X:X:X,X;X$X;X}.OX;X:X:X>X>X;X=X$X;XOX;X|.;XOX=X:X<X>X;X:X;X1Xs.5 m r J ,XR.OXI.XX;X;X[.].,X[.[.].].|.3X3X3X3X3X",
"3X3X3X3X3XJ h J J J H Z W $.#.J z n 7.v.[.}.{.}.$X;X;X;X;X>X,X>X;X;X|.;XOXOX;X;XOX$X;X:X:X:X>X,X;X%X1XJ 6 6 7.,XD.$XI.OX$X:X_.[.1X].].{.].].3X3X3X3X3X",
"3X3X3X3X3X;.e J L L C $.h.t.<.>.q.Z.XX.X{.[.].}.|.[.].|.;X>X>X;X;XOXOX$X;X;X;XOX;X|.].].[.|.>X$X-X$X1XV.6 6 M.,XR.|.I.;X;XOXv.].<X[.[.[.I.].3X3X3X3X3X",
"3X3X3X3X3X3Xe J F m C >.W v J w W E.x.I.|.;X;X{.R.-X$XOX}.;X;X;XE.P.;X=X;X|.$X;X}.D.|.;X$X|.R.|.|.|.:X,XH 4 /.,XR.{.A.;X}.OXI.I.:X[.[.[.I.[.3X3X3X3X3X",
"3X3X3X3X3X3Xe l E <.,.d A ,.-.-.x _ #XXX].OX{.[.,X>X-X;X].].|.I.| X.}.].I.{.].[.].;X;X|.>X;XA.$X;XR.{.&X8.q `.|.I.A.v.}.A.}.[.I.OXx.R.[.I.[.3X3X3X3X3X",
"3X3X3X3X3X3Xh r ,.h.E E t.v b b -.x a.1X=X].{.$X,XD.I.].{.&XXXP.P.p.Z.|.[.OX}.C.].1XA.k.D.R.OX1X,X>XD.XX*X2.$XR.k.{.}.,X[.[.[.x.].I.I.I.I.[.3X3X3X3X3X",
"3X3X3X3X3X3Xs y >.t.v 3.A Q r.! b $.> B.,X@X].;X|.{.,X1XD.C / X.$XA.C.,XI.Z.:X].C.;X<X;X-XI.I.>X;X].R.,X Xb  X:Xv.,XC.].I.[.[.x.=X}.A._.D.[.3X3X3X3X3X",
"3X3X3X3X3X3Xr w >.4.b >.A r.w.r.A <.s D g.XX%X,X1X{.].8.w 8 C.E.$X[.I.:XZ.Z.>X|.D.R.}.;X,X,XA.-X;XD.].,X{., d.1XA.{.j.[.R.}.{.;X1Xx.D.].A.[.3X3X3X3X3X",
"3X3X3X3X3X-.e t &.q.c 3.A E f.W b q.b >.V y ( B.V.c : * q '.E.l.,X[.R.>XR. X<X}._.[.D.k.A.1X].|.;Xv.R.1X@X, 7.1XA.;Xj.A.I.[.[.C.OX]._.I.A.{.3X3X3X3X3X",
"3X3X3X3X3XJ p y $.h.W W t.v v v t.#.A 3.:.~ E x J I @.W E ;X].].1X].R.1XR.{.1X}.D.,X>X|.>X1XI.|.1X-XD.|.1X2.e.,XC.;X].OX[.].}.C.A.OX[.C.I.[.3X3X3X3X3X",
"3X3X3X3X3Xm h t Q q.,.d $.q.;.7.;.v L q..X#X&XA.6.F @.M ) {.OXOX}.].].-X|.OX;X}.].}.-X;X|.].}.}.$X,XR.D.,X2.J |.I.I.[.OX[.A.A.OXZ.Z.OXZ.D.3X3X3X3X3X3X",
"3X3X3X3X3Xa n z n S A F m A #.F C m s C.XXOX;X,X%Xa.8 * n.+X[.[.[.|.OX|.;X;X|.OX;X|.{.{.}.=X>X;X|.|.|.$XXXx q ;X>X].C.].;XA.Z.,XA.D.}.A._.3X3X3X3X3X3X",
"3X3X3X3X3Xr n n D F D J J D Z F K e ;.%X].|.;X=X:X,XB.e n.%X:X;X;XOX>X:X:X;X:X:X>X:X>X,X:X:X;X>X>X>X$X,X|.h n *X,X|.I.;X:XA.OX[.A.,XOXZ.].3X3X3X3X3X3X",
"3X3X3X3X3Xa a n D I F J J J J J K 6 1.%X].;X=X$XOX;X1Xn.a.%X$X$XOX;X;X>X:X;X>X:X;X;X>X>X:X;X<X:X:X;X;X1XB.6 m ;X1XR.I.,X[.I.:XC.[.,X[.Z.].3X3X3X3X3X3X",
"3X3X3X3X3Xh h n F J H J J J J I H a z R.@X}.|.;X;XOX;X,X].}.$X;XOX;X:X;X>X:X<X;X:X;X;X:X;X<X;X;X;X$X;X1Xd.; J 1X,XA.|.:XI.=XI.I.:X:XD.A.[.3X3X3X3X3X3X",
"3X3X3X3X3XD t n J I P P J J J J P m 6 J %XXX}.>XOX=X$X;X;X|.$XOX=XOX;X>X:X;X;X:X>X:X:X>X:X;X>X;X$X$X:X&X=.= 2.1XI.].1X].[.|.C.=X:XOXZ.D.3X3X3X3X3X3X3X",
"3X3X3X3X3XW e n K J J J J J J J I D h 6 J OX+X|.>XOX$X$X;X$X;XOX$X$X;X:X;X:X;X;X:X;X;X;X;X;X:X;X$X;X%XF.6 9 }.XXA.<X|.].XXZ.}.:X;XR.C.].3X3X3X3X3X3X3X",
"3X3X3X3X3X>.e n H J P J F J J J J F m n q J ].%X}.;X$XOX;XOX$X$X$X$XOX>X<X;X:X>X;X:X<X:X:X<X;X;X$X;X%X^ 4 ~.%XI.;XOX}.}.Z.}.<X:X|.C.D.3X3X3X3X3X3X3X3X",
"3X3X3X3X3X3Xt N H H P J J J J J J I K n n 6 m _.oX|.;X$X$X$X$XOXOX$XOX;X:X>X;X:X>X;X:X;X>X;X$XOX;X}.R.s.^.%X[.:X:XOX].A.}.<X:XOXA.Z.].3X3X3X3X3X3X3X3X",
"3X3X3X3X3X3Xz t H I J P J J J J J J I F n N e t B.%X|.;X$X$XOX;X;XOX;XOX;X:X:X>X;X>X,X:X;X$XOX:XOXI.R.,X%X}.:X<XOXI.I.OX,X;XOXA.Z.R.3X3X3X3X3X3X3X3X3X",
"3X3X3X3X3X3XV r V I J J J J J J J J P P K h B i e n.&X;X$X$X$X$XOX;X$X$X=X;X;X:X;X:X;X$X$X$X;X$XR.R.$X$X,X;X|.[.I.[.:X,X=X}.Z.A..X3X3X3X3X3X3X3X3X3X3X",
"3X3X3X3X3X3XU r m P J J J J J J J J J J I D k m a 5 5.%X:X;X$X$X;X|.OX;XOXOX;X;X=X;X$X$X$X$X$X].R.R.{.$X|.|.}.|.;X<XOX[.A.C.R.XXM.3X3X3X3X3X3X3X3X3X3X",
"3X3X3X3X3X3XU i n F J J J J J J J J J J P I D n n a 6 ^ +X,X$X$XOXOXOX;X$X$X;XOXOXOX$X$X$X$X{.R.].].I.R.[.[.|.|.[.R.I.A.Y.+X%XE #.3X3X3X3X3X3X3X3X3X3X",
"3X3X3X3X3X3XA p k F @.J J P F J J J J J J P I H n n k 7 Q @X&X$X;X;X;XOX$X$XOX$X=X$X;X;X-XR.W.#X@XE.R.].I.I.D.A.A.A.I.XX,XF.Z 4 3X3X3X3X3X3X3X3X3X3X3X",
"3X3X3X3X3X3Xn h h D J J J J J J J J J J J J J I P N n n 0 F ].,X$X;X;X;X;X$X$X;X;X;XOX[.W.&XM.W d.OX%X#XXXXX{.XX#X%X@XF.;.q 6 h 3X3X3X3X3X3X3X3X3X3X3X",
"3X3X3X3X3X3Xq B h V P J J J J J J J J J J J J H I I V n n 6 h d.XX&X$X}.OXOXOXOX}.XXXX%X|.8.p 4 e I 8.n.S.F.D.F.N.9.-.t e B h n 3X3X3X3X3X3X3X3X3X3X3X",
"3X3X3X3X3X-.e n n Z I J J J P J J J J J J J J J J P I F m N i 6 W d.I.XX%X%X%X$XXXE.F.w.m 5 r V D N n n V P P Z n a a P U P a n 3X3X3X3X3X3X3X3X3X3X3X",
"3X3X3X3X3Xn a N h V I I I P I I I I I I J J J J J J J I I Z D h e e D #.;.<.5.1.$.H a 6 r N D I I I P I P K D H H I J I I I h h 3X3X3X3X3X3X3X3X3X3X3X",
"3X3X3X3X:.8 n n B N B m V D D D V D D F J J J J J J J J I U I F V N a q 6 6 6 6 6 i N B D I U P P I I I I I I I I I P I P I N s 3X3X3X3X3X3X3X3X3X3X3X",
"3X3X3X3Xq p h h h k h n h h s h h h h n N V J J P P J J D N h h t r e t t h h m m h t p B V B V V D V V Z V M N V D J I U I m r 3X3X3X3X3X3X3X3X3X3X3X",
"3X3X3Xn r N m n s t t t h p e e r p e i e q h s s m M m n m Z J J %.,.:.3X3X3X3X3X3X3XQ r e n n n a n n n h h n a t a n V N n e 1.3X3X3X3X3X3X3X3X3X3X",
"3X3XW 7 F 3X3X3X3X3X3X3X3X2.e.<.,.,.1.5.e.3X3X3X3X3X3X3X3X3X3X3X3X3X3X3X3X3X3X3X3X3X3X3X3XJ p e r p a p p r e p h m Z m h 9 a p #.3X3X3X3X3X3X3X3X3X3X",
"3X7.e i Z 3X3X3X3X3X3X3X3X3X3X3X3X3X3X3X3X3X3X3X3X3X3X3X3X3X3X3X3X3X3X3X3X3X3X3X3X3X3X3X3X3X3X:.@.J D Z J @.( 3X3X3X3X3X3X>.m a m 3X3X3X3X3X3X3X3X3X3X",
"3Xw.9 7 t.3X3X3X3X3X3X3X3X3X3X3X3X3X3X3X3X3X3X3X3X3X3X3X3X3X3X3X3X3X3X3X3X3X3X3X3X3X3X3X3X3X3X3X3X3X3X3X3X3X3X3X3X3X3X3X3X3X3Xr 5 2.3X3X3X3X3X3X3X3X3X",
"3X3X3X3X3X3X3X3X3X3X3X3X3X3X3X3X3X3X3X3X3X3X3X3X3X3X3X3X3X3X3X3X3X3X3X3X3X3X3X3X3X3X3X3X3X3X3X3X3X3X3X3X3X3X3X3X3X3X3X3X3X3X;.t i M 3X3X3X3X3X3X3X3X3X",
"3X3X3X3X3X3X3X3X3X3X3X3X3X3X3X3X3X3X3X3X3X3X3X3X3X3X3X3X3X3X3X3X3X3X3X3X3X3X3X3X3X3X3X3X3X3X3X3X3X3X3X3X3X3X3X3X3X3X3X3X3X3XG p m e 3X3X3X3X3X3X3X3X3X",
"3X3X3X3X3X3X3X3X3X3X3X3X3X3X3X3X3X3X3X3X3X3X3X3X3X3X3X3X3X3X3X3X3X3X3X3X3X3X3X3X3X3X3X3X3X3X3X3X3X3X3X3X3X3X3X3X3X3X3X3X3X3X3X8 p 0 3X3X3X3X3X3X3X3X3X",
"3X3X3X3X3X3X3X3X3X3X3X3X3X3X3X3X3X3X3X3X3X3X3X3X3X3X3X3X3X3X3X3X3X3X3X3X3X3X3X3X3X3X3X3X3X3X3X3X3X3X3X3X3X3X3X3X3X3X3X3X3X3X3X>.h W 3X3X3X3X3X3X3X3X3X",
"3X3X3X3X3X3X3X3X3X3X3X3X3X3X3X3X3X3X3X3X3X3X3X3X3X3X3X3X3X3X3X3X3X3X3X3X3X3X3X3X3X3X3X3X3X3X3X3X3X3X3X3X3X3X3X3X3X3X3X3X3X3X3X3X3X3X3X3X3X3X3X3X3X3X3X",
"3X3X3X3X3X3X3X3X3X3X3X3X3X3X3X3X3X3X3X3X3X3X3X3X3X3X3X3X3X3X3X3X3X3X3X3X3X3X3X3X3X3X3X3X3X3X3X3X3X3X3X3X3X3X3X3X3X3X3X3X3X3X3X3X3X3X3X3X3X3X3X3X3X3X3X"
};
