/* XPM */
static char *_7cb0af369e14714a1e0eb7adf88c8609c4KUqoUACEjJH1R[] = {
/* columns rows colors chars-per-pixel */
"75 75 101 2 ",
"   c #050100",
".  c #0A0502",
"X  c #0D0906",
"o  c #0F0A08",
"O  c #110A06",
"+  c #120D0A",
"@  c #180E0F",
"#  c #16120E",
"$  c #19120E",
"%  c #171410",
"&  c #1A1513",
"*  c #1D1916",
"=  c #1E1C19",
"-  c #221A16",
";  c #221D1A",
":  c #25211E",
">  c #29211E",
",  c #262321",
"<  c #2A2522",
"1  c #2D2925",
"2  c #2E2C29",
"3  c #312A26",
"4  c #322D2B",
"5  c #35312E",
"6  c #3A322F",
"7  c #353431",
"8  c #3A3532",
"9  c #3D3935",
"0  c #3E3D3A",
"q  c #413736",
"w  c #403A37",
"e  c #433D3A",
"r  c #45413E",
"t  c #49423F",
"y  c #464341",
"u  c #4A4542",
"i  c #474843",
"p  c #4D4946",
"a  c #4E4C49",
"s  c #504742",
"d  c #514A46",
"f  c #524D4A",
"g  c #594E4C",
"h  c #55514E",
"j  c #59524E",
"k  c #544F50",
"l  c #565351",
"z  c #5B5552",
"x  c #5E5956",
"c  c #5E5C5A",
"v  c #605654",
"b  c #615A56",
"n  c #635D5A",
"m  c #685E5C",
"M  c #65615E",
"N  c #69615E",
"B  c #656361",
"V  c #6B6562",
"C  c #6D6966",
"Z  c #696768",
"A  c #6E6B69",
"S  c #716765",
"D  c #716966",
"F  c #736D6A",
"G  c #786E6C",
"H  c #6F706B",
"J  c #75716E",
"K  c #79726F",
"L  c #767471",
"P  c #7A7572",
"I  c #777873",
"U  c #7D7975",
"Y  c #7E7B78",
"T  c #817776",
"R  c #817B77",
"E  c #827D7A",
"W  c #897F7D",
"Q  c #86817D",
"!  c #88827F",
"~  c #868381",
"^  c #8A8582",
"/  c #878883",
"(  c #8D8986",
")  c #8E8B89",
"_  c #918786",
"`  c #908B87",
"'  c #928D8A",
"]  c #95918E",
"[  c #99928F",
"{  c #959491",
"}  c #9A9592",
"|  c #9D9996",
" . c #9E9B99",
".. c #A19997",
"X. c #A19D9B",
"o. c #A4A19E",
"O. c #A6A4A2",
"+. c #A9A5A4",
"@. c #ACA9A6",
"#. c #AEA8A8",
"$. c #B0ACA9",
/* pixels */
"L A G C B F B Z A I I Z Z Z Z B N M C A A H H H I L I ~ B Z c c B H A c A B c c M B c B c B M B B A c c c c c c B B B B Z H B c B B c c c H I B c c B ",
"i k d ] y , 0 0 y < 8 2 < 9 0 i r M ] l k a a h 0 7 9 0 0 a x l 2 H { M a a i a M ] i 2 7 7 9 1 5 2 , 7 0 0 i H O.x 0 l 0 l 7 0 7 1 i i l c * I  .B i ",
"y z 6 _ L B H L I C 7 r a z A c S t ` J k Z I C I f 9 i a z z M , B ^ X.A B i Z t ! C M H I I F 2 r a c C M x M / B c L Q M H 7 8 i l j c B # H o./ H ",
"A W < _ ~ L ~ ( W I t n V I E / Q t ` ! / / ( ! ~ n k k J U E R < P }  .Q Z L Y 0 ! } I ( ) E L r M C H R ! J N ) ) Q I ` ! Q i x C J K Y Q % I +.{ Y ",
"Z E q W ' L ^ ) ! K D K C E E Q R g ! ` Q ` ` _ ' J F J Q P R ! > P ] o.L B J Y t Q ! Q Q ! ! K K H F Q U Q N N ! ' Q ! ! ! Q D P M U R E ! * E $.{ I ",
"F A q W E } ) _ ! Q I J Q Q ( J K t ! ! ..[ ` ` ! ^ W P K ^ E P < C }  .Q Y I G i } ! ] [ ] ! Q P C Q ! ! I N b ' ! | ] { Q Q ! J E E U ! P # E o. .! ",
"~ E 4 P ] _ ) _ ' ! ! U ( Q Q Q R t E { ] ] [ ^ ^ E E L Q Q ^ Y 8 J |  .Y Y Y Q r / ] ! ! [ ` ! ! Q ( U Q I J N ! | ` [ | ! ] Q U P ! ' ^ U * E @.} U ",
"~ E 8 G ^ ) ' W ! ! ! R U Q / U K b U ^ ) ] } E ] ^ W Q E Q Q Q 8 P { O.Y H Q ) a ! ` ! ] Q ! Q ! R Q U ! Q D H ! ' ' ` } Q Q ! Q E I ( R Y 4 Q $.o.! ",
"E ^ 5 U ] ( [ ! ! ! Q Q Q ! ! Q U x K ' ) ' ' ~ ! ! Q P ^ ^ ( E 8 R ' @.~ Y E E u _ ] ) ' ( ! Q ~ I E ( ( Q K C ` ] ] } ' Q Q ! E R ( W ' P < ~ +. .( ",
"Q P 4 U ! ] ] ^ Q ! R U Q Q ) E Q h E ^ { ] ' E Q R U K ` ( ^ R w J ] +.) Y ~ Y k { ~ } } ! Q U ^ U E ^ ) U I C ' ' ! { ] ! Q ! ! U ^ ] I ^ : ( @.| ( ",
"P ^ 8 U Q ] ` Q R P ! K U E Q ! U f R ! } ~ ~ ! ! Q R P ( ` ! U 8 H } +.~ ( E ' y _ { _ ` Q U ! E U Q R U ^ J M ! { { ! ! ! U I Q U E E ( E - ^ #. .Y ",
"E E 6 S Q ! [ T Q P Q Q J ) L E U g K E ..[ _ T P U Q P E Q U R 8 K } +.) A W W f _ W ' [ E ! T E U K ^ E Q J C ) ) ` ` ! ! U Q U U ] R K Q ; ^ O.X.! ",
"R L 6 D Q ' E ! U U ~ E Q Q ! E K f K _ | ` ! ! K U ! Q Q ! Q ( 8 I } @.~ J U F x W ^ [ E W P Q ! P ( ! R U F K _ [ [ ^ ! ! Q ! U E P E Q G 4 ~ @.| ) ",
"K K 4 D J P R G n C J Y N L C I U 6 J E ` ' ! R D K K K U Q Q ! 8 K o.J P J L Y e ' P P R D j N C G N C F P K j W ^ ! Q P D S ! ( J Q E E ~ O E | A L ",
"4 < x z 5 r r 9 4 4 r u a n x x M H 9 * : # : = ; > : : , 1 1 1 3 N x > : 1 4 4 N y 8 e u d 8 9 a z x B x c B B ; < = ; : > > > : , < , 1 5 i B a , < ",
"B D F A M U N E A A F B A x n f x M V B M J M H M H M M B A A Z D M x M x C G Z E A n P C U C V C C M M n f C B B V c C J F D N M Z B A A Z B c z c n ",
"@ < < 5 Z   M A K 3 M 9 + + : - . * : * = a * = N . n A % c h l 0 X # - $ w 3 - 5 9 h O M J D 3 x : * X ; # X 2 o * < h 4 , * x n x z Z M F y * . = 4 ",
"b z V q Z   B V D S t t x M h & 1 a x j n a V r B $ n j * i M n t 9 9 r N N t t M t M + M N R N j j x x p ; # i z j x x C f 0 u A x ; Z D y z 1 5 f A ",
"b m P b f   z G N b N S C J t j M 8 C N C N J n j O D N . r r p l 0 3 r Q m V N N M j & b K b N N N D D d f 4 j F S m N j m n z A p * t z t z 8 5 f F ",
"G b b m S O S V b S v b j D K M r x N M S N v N G O B N   x x n a r r b N j N m j M D $ S D v S N n n N K v t j V n N N v n S z G g 4 z x f f d u l V ",
"m m S S E   m g b N m m N n n M C j x N S N N S R . S n + k n g h n n M M b b b N N Q - S g b m N n v N j S N x b g m b F S G v F f 3 z f j x C x x N ",
"m S S S S @ m b m N m v v S N S M M M N N D G S S + N V   M z G H M h h M b M N D D D > b b b m S v m N S S x M S n m S b S N d S z e v z C z x x x N ",
"m S S G S O g m j v D D m S N N N N N M N S N E D O B z . n z B I M x n V M D N N R D $ v m v v m D n D M M V M D v C V S P G s B p < j n V n x b x C ",
"D D m W G . d S N v x N S m V M C C Q C N C D K G O f l   x D n x n x n N D D b D D D $ n N b v n C N M N M x V F B C b D G m e G k 5 z m N x f N M J ",
"B S C P P . g g m n V V M V M M N j J M N H F D J   x x   C M V M M x D D V M V P T V @ v g m m m m V V V C B n E A C n R P N r V e 0 A B m n x n F F ",
"V V ^ G m O d v S b G C C C F x N M x b N M ( J C   x N   C n B x V x M V V H H S L S + g v N v J G V V C f G x n B A P C C M 8 A z 9 n B n n n n C F ",
"z n n V B   f m S m V C C D J x M n b I x x N C C   V M   x B n x x h x D N M M L n n $ j j S V M M F J B m B z z S M n C n n r D u e n z C z n z n M ",
"n n A c S   z e n K b b J M j M x j x C M M V l C   l j   n f k j n H x M H x M n x G % m f N D n x K M z S l x B D n n D n v w n e 0 x d f b n c z x ",
"C n F F B . b u m n x N R z x N j f x x x x H N C   x z   x f l M x M a j H x M B D F X M r d m M N C h x n z z x z z z j V B 9 v e p a x z z h C M n ",
"  ;     X X f f . . . X . o *       # * * * # % o < z x :     .       . X   o =     . 2 x j $ o   & # + + .   . % , *   * X # h n A       .   X       ",
"c Z B k n x z n v m u x x l i l 9 l M M C l B l z c c Z h z 0 a r i r p l x C M Z z c x x j x x h M j x a u 0 h z c J h Z c Z M B c x f i y f 0 p f l ",
"M A Z Z k k n z N V V H M C C x c x x c V C M C z M x Z Z M I H M c n n x x F C Z x a a M M N C M J N M V c c z x j J D Z h n M Z V Z A A Z z c c z z ",
"a h 9 o + * > . 2 : 1 : M # N j n x % n l x <   & * + @ 4 V 1 ; , n C z   f f u *   * : + . 8 > 5 - r > n l B z , n p h ; : o & 3 # : & # & o z M j ; ",
"x f i x x < j M x j F t f + x j z z # p x l j M M l z v z z A g p r x p X i B h d M r p h n j j C j t 2 n d j u > f x p x j f f M M j M f M r t h d : ",
"e n s j J N m G n M N N n - h t j r - d r p C n A p D S n x g B n f h p X f f d M h C j M K n N M N M 9 z u j d - d d d b B j z N J M U j x 8 d f p : ",
"x l x N M D M v m C x M F - d h j f > x b j j N v S S v b S v m G u h f O h x x f C M N S v N V j M K 9 d u z u 3 j b j D D D m N D n N M D q d h f 5 ",
"z n f z x J N M n N G S R - g t f r ; j d n m S n S n v m n S S E d p t + h h c j M l D N b x D G D K t j d j y 3 z u x h C S m M N S N G S 3 g f u 4 ",
"B C B z b C b N S S N G D - b s r t 6 j b J N z x n G b N S S G N s t r # z z C M f M N N M F N N P S q j d a r 6 b n V z z N n b N D S S T e t p u 9 ",
"x z K n z N N N N S N W D $ b f b f < d B N C Z n V B V C N S E D t n t o d F M C M x M D N N N D R S 6 j j x u 3 s V M n f N D C N N S G D q g h u 8 ",
"Y Z x n l M Q N N m D D J * x j h a < x A n M z z V G m n m S D S t t p + n C M M x j M K N M N G S K 6 h u f p 8 d A c c z M R S N S v T T 3 s h u w ",
"l A n B M Z A S V H Q K C + a a z p 8 M B B N x x F U D F n R P S 9 x d + C M M n n z F J N J C R J C 1 p u j p r N M M n z B M B B D G F I 7 e j u f ",
"B x V x z V z B J D U C N * j h x p 4 M x x z N x x z A F B J C N r h r - z x z z M n B M N C J J G n 5 h 9 x f 8 M j M n j B z D z C ^ P B 4 e x f r ",
"N z x v M x n G M M C N C % h t u u 9 h J M m M z b x F n B J n C 8 p w & b B n n M h z x I M M D n B 4 h p p e r j M f x K n x C C x n B N : 9 p r r ",
"z p z x B x x G b M M x D # f t f e 4 x p p h z B n M G c x m x C 9 d e o h f f x x C b N N M x M M F 8 d u p r 6 f p M x p j x n n B S N n < e h 8 u ",
"4 8 1 : 5 1 5 e r 0 > t x * x r t 9 = j 8 p e 9 f r p j f z z z z r u r $ 0 < 7 > : 1 1 5 r 8 8 < 9 p 9 f h p 5 7 e r e 6 w u p d n a n z z < y i 8 < ",
"o : * + > 5 5 6 5 1 r 4 > t x x f M t r e w e e 9 r 4 < 4 8 ; 4 n n n z , & % ; + # < 9 9 r 5 2 r 3 9 u M x h x y 4 e f r 9 h 6 ; , 7 1 4 4 A M f x ; ",
"f x r i f p M M I x M M M H l n x M z M N G U B B u p j r f B h x h f B z f l a j u f u M M J x M Z M x c z M x f V C n E x x n d z f z z f n x k B u ",
", = 8 l p u r x I Q M r t 0 r a 6 r w r x U ` K z f p y B G ' ~ h l h l i 1 - 1 9 i u a r z U P M 7 i 5 r r 1 r w e E ( } n a u 0 a F W ] U z f k y y ",
"< r 0 r a l A 2 ' _ V z Z P E A Y E C D e U [ @.M Z h a z D ] } ' H ( x j 5 9 a a H i a B r ] U C x M C P P Q E j C D ! _ | J n f C n ( ' #.n c Y a 0 ",
"V B n A G D Y 4 ^ ( Y ^ I E ^ U ] ^ E ~ e B ` +.Q K F E n M '  .( J H M D I H M L H K J P p / ( ! ~ E Q ^ Q ( ` Q J N K ..| ~ Z P L z U ] #.J L B A E ",
"E J P ( ~ L E 1 ~ Y Y } P U ( ( ^ ( Q E e J ] @.F F Z ~ z F ) #.{ Y U E Q ! Q D U I ) E Q 9 ] U E } Q E ` ^ ` ! Q K z _ } o.Y Z W P f I ] o.P Q E ( ( ",
"U J I ^ ^ ~ ~ > ] I G } ^ ] ] ( ~ ' E U e W  .+.L Z P L M K | O. .Y ( / ! Q Q I Q ! Q ( ! 5 ] P H } ) ( ` ' ` ' I E m [ |  .U P J R n ]  .@.U Q ( ) ! ",
"E ! ( ! Q E ~ 4 ! E Q  .] ` ' ` ' ^ ! ' 0 Y { @.~ W P P G Y ~ +. .Q ! ' ! ] ! U ) ) ! ! Q d ( P ~  .] ' ' } ! E R _ M ( } X.E Y E Q x ^ ] +.~ ~ ( } ] ",
"' ^ E Q ' ( Q 3 ! U E ] ( ] ( ! ^ ! Q ' y Y ) @.~ L E E F L { +.X.( E { ' ! ` Q Q ! { U E p ! G I ) ' ' Q ^ E _ Q ^ J U X.| / L E ! B ^ } +.( Q / ] ` ",
"^ E ! ! ] ( ^ 3 Q P ! } ] ] ` ! R ^ ^ E p E / O.^ ( W ~ C T _ +.o./ ( ) ] Q ! Q Q Q ] Q ( 8 ~ L ^ } ' ' ^ ! R E ! ' K ( ] O./ R Y E M Q ]  .! ~ ! ` } ",
"W R E E ( ( ^ < Q F P [ ^ ] ` Q T R _ E i E | O.^ ^ I E G L ) O.o.) { ! ' ' ! I / Q ` ` ~ e W D P } ( ' ' E E ! E E U } { o.( U Q Q M ] [ +.^ ) ( ( ] ",
"( P E E ~ ^ ^ < E A E [ ' ' E ! P ! ! ( r E { @.~ Y E ~ Y H { O.o.( (  .( ( ! Q ! E ~ Q E e E D Y X._ ^ ~ Y Y L E { A )  .+.~ ~ ^ ^ b ( ] @./ ( ] ] ' ",
"W E J Q _ E W < P V W } _ ] _ T Y Q ( Q r ~ ~ o.) F T G Y I { O. .( ! ^ } R Q Q I ' ^ ( U r L n Y { } ' E Y ~ ~ Y U G ) X.X.~ L E _ M ^ ~ o.^ Q Q ( ( ",
"W E ' ` E ) W < G G T _ ..W T T Q ! K Y r E ( X.~ ' E T A Y { O.o.! ] / ` K R U ~ ~ Q ) ( 0 P n E ' ' W W K Y ~ K P A '  .#.~ G K J C Q ! o.( ^ ] ` ! ",
"K Z J U P Y V * E G x P S V m d j c a i 5 / Y Z Z Z M V F M ) o.( C J V K J J J F U J K J 5 E C z G F V C f k B y d S ' { B c Z C H z L ( ~ I B F F F ",
"^ K Q Q ^ _ E { I L Y M z h n z z h Z Y ~ ~ ~ Z L c L z A Y H H I ] ~ ' | ( U R P ] ( ! Q } L Q L B c z c c c k L Y ) ~ Z Z ~ L C a I Q H B ~ / ^ ! ' ",
"P ( ` ( ) ~ | ] / ( ) H U ~ H Y Z Y ! ( ~ ) ) / ~ ) ~ ~ ~ Y / I A W ~ E ( U U ( ( ( ] ) ] / Q ) ( H Y I Y Y Z Y ~ { Y {  .~ ~ ) I Q / Y Y L Y Q Q R Q ",
"2 : p F x , ; 1 y 5 7 = , 1 5 2 7   Q a % * 7 , 7 4 7 = = ; 7 1 2 B ~ X.r 9 # 2 2 | 9 = 1 5 0 2 7 = = , 0 7 7 k  .0 = 2 @ 0 7 y 1 * = 1 2 7 + N o.B 8 ",
"B l A J E Y / ( L Y 9 y y n F Z G + I Q Z I A ~ E B 7 k f M J B u Z Q  .I B B J 5 ] / I E / I Y 9 0 p c L Z Z k { ~ Z Y ~ L L 0 9 a x H x H * J o.Q H ",
"F I F F I ~ ' ` ^ Q j M D U ~ U ! o ! K ' L ~ ^ ! B r M H U Q Q g K ` ..U C B ~ 1 ^ ! J ! ( ! R t M H J Q Q H M / ] Q ) / ! Q h x N H Q ! I & I @.} P ",
"J E J V C ' ' ' ` U U E V ' L Q ! o K P ^ ( ^ ' ` K K J I U K Q x M ! o.U K Y / 4 ' ^ Q ! ' ( R P U I ! U Q D b ` { ! { ! Q ! I U H ! I ! R # Q @.} P ",
"C I W V G ..' ^ R ` U E R Q Q Q R o K P } [ ' ^ ! ! Y H Q ! / I v C W X.Q K J E 4 Q E } ] ^ E ! U K Q ! Q Q H h ] !  .! ] ! Q R Q J ` ! Q Q + Q @. .E ",
"U G ~ D U ` ^ } ` ^ P U U ( } Q ! % K I ' } ` ` ( R ! K ! Q Q ! b A ~ O.Q I U ! 1 ^ ! } _ ` ! ! R P Q Q Q Q K x Q ] ) ] ' ' ! Q K I ! ' Q Q - Q o. .! ",
"E Q Q K P ] ^ ] ` Q R P C ^ / Q ! # U L } ^ ` ^ ! Q ! U ! Q ! ! j J I { E L T ' 4 E E } ` ! Q ! Q Q Q ! Q ! I D ! ` | ` ] [ ! ! U U Q ! ! Q > Q O. .Q ",
"R ^ ^ J U | [ ^ ! ( ! R E Q ~ ( E % D ~ ' | ^ ! Q ! Q K ' ! } U D D E +.E U ' ^ 3 ^ ~ ( ! ^ _ E Q I I ! ! ! I C ! X./  .! ! ! ! E U ! ! ! ! - Q O. .! ",
"^ U Q J ! ` ] [ Q J ( U E E ^ Q ( # F Y } ' ' ! Q U ! Q Q Q Q Q B C P +.( U Q ^ 4 ~ W [ ' ( ( ! ! R R E ! U K M ! ! ] ] ] ! K Q I U ! ` Q ! % Q O. .( ",
"P Q ] U U [ ^ ^ Q ! E Y Q Q E ( ! o F U } ` ' E P Q ! J Q Q ! U C C P +.( K E ' 3 ^ E ' ( ( R U ! I R Q Q Q Q n ] ` ! ! ! Q Q Q Q Q Q Q Q Q * Q @.X.! ",
"U E E L ' } ' ^ E R E ! R ! ! P ! + D ! } ! ! K Q P ! U K Q U Q Z F P o./ U U Q 3 Q ! ! ] ! J Q ! Q K ! Q I Q b Q ! { ' ! Q U Q Q U ! ! U Q % / o.| U ",
"I U J G R ' ! Q K P R Q U ^ ( ! Q + M I [ ! ! Q K R ! Q Q ! Q Q M J U o.( U L ! : U Q ` R P U I Q Q Q Q Q ! U b ! Q ! ! Q K I Q K J ! ! E E % Q +. .Q ",
"y t z B - 1 < & . o # $ O & : ; * X D r h f t r > 9 9 9 6 r r r p B P p u r p r : U > : : & . # # + + # - - < z Q x x t r 3 1 9 0 3 r r t a . D M a r "
};
