/* XPM */
static char *result[] = {
/* columns rows colors chars-per-pixel */
"75 75 154 2 ",
"   c #270000",
".  c #2C0100",
"X  c #300500",
"o  c #350C00",
"O  c #380F00",
"+  c #371000",
"@  c #3B1400",
"#  c #3F1900",
"$  c #4F1500",
"%  c #431E00",
"&  c #431F0A",
"*  c #462100",
"=  c #492400",
"-  c #4D2A01",
";  c #47230B",
":  c #4A250C",
">  c #4E2A09",
",  c #5B2400",
"<  c #512E03",
"1  c #5E2900",
"2  c #512E0A",
"3  c #533105",
"4  c #55330B",
"5  c #59360D",
"6  c #5A390F",
"7  c #4F2F11",
"8  c #4F2C1B",
"9  c #522D12",
"0  c #553511",
"q  c #583611",
"w  c #5A3910",
"e  c #54301B",
"r  c #5D3C1A",
"t  c #622D00",
"y  c #663400",
"u  c #693601",
"i  c #6D3C03",
"p  c #703F05",
"a  c #603E17",
"s  c #603E1B",
"d  c #563522",
"f  c #583721",
"g  c #5F3F21",
"h  c #5F401C",
"j  c #6F4007",
"k  c #6F4109",
"l  c #714007",
"z  c #72430C",
"x  c #76480F",
"c  c #604011",
"v  c #61411C",
"b  c #744711",
"n  c #764913",
"m  c #784B16",
"M  c #774C1A",
"N  c #7A4E1A",
"B  c #7C511D",
"V  c #5F4127",
"C  c #634522",
"Z  c #664825",
"A  c #684922",
"S  c #64442A",
"D  c #664A2B",
"F  c #6A4D2C",
"G  c #7C4F20",
"H  c #6D512E",
"J  c #7F5523",
"K  c #7F5729",
"L  c #644631",
"P  c #674A31",
"I  c #6A4E31",
"U  c #6E5231",
"Y  c #6F533B",
"T  c #715434",
"R  c #71563A",
"E  c #755B3C",
"W  c #765C42",
"Q  c #795D42",
"!  c #745A4A",
"~  c #7C5F51",
"^  c #7B6145",
"/  c #7D644C",
"(  c #7F684D",
")  c #7F6952",
"_  c #80531F",
"`  c #805624",
"'  c #825926",
"]  c #835729",
"[  c #845B2A",
"{  c #895E2B",
"}  c #855B30",
"|  c #8B612E",
" . c #876133",
".. c #8B6335",
"X. c #8D663A",
"o. c #8D693D",
"O. c #916B3D",
"+. c #8F6D42",
"@. c #81674D",
"#. c #826A4D",
"$. c #936E42",
"%. c #957145",
"&. c #997244",
"*. c #94734B",
"=. c #98774E",
"-. c #856D55",
";. c #886E56",
":. c #856E59",
">. c #886F58",
",. c #867155",
"<. c #887157",
"1. c #877159",
"2. c #8A7359",
"3. c #8D785E",
"4. c #9C7554",
"5. c #977854",
"6. c #9B7B53",
"7. c #9D7F5A",
"8. c #8A7360",
"9. c #8E7A65",
"0. c #8F7B6B",
"q. c #927E6C",
"w. c #9E805C",
"e. c #A1825B",
"r. c #958269",
"t. c #978473",
"y. c #9B8975",
"u. c #9D8D7C",
"i. c #A28563",
"p. c #A68865",
"a. c #AA8B64",
"s. c #A78C6A",
"d. c #AA8D6B",
"f. c #AC916E",
"g. c #AE9371",
"h. c #B19571",
"j. c #A89C8F",
"k. c #B9A48B",
"l. c #AFA599",
"z. c #C4AF97",
"x. c #CBBAA4",
"c. c #CFBFAC",
"v. c #D2C3AF",
"b. c #D6C7B2",
"n. c #D4CBC1",
"m. c #DBD6D0",
"M. c #E0DBD9",
"N. c #E5E0DE",
"B. c #E2DFE4",
"V. c #E9E8E7",
"C. c #EAE9E9",
"Z. c #F0EEEE",
"A. c #FEFFFF",
"S. c None",
/* pixels */
"Z.C = q 5 5 5 q 5 5 6 5 5 5 5 5 5 5 = R S.S.z J J J B J B B J B J B B J B B B z S.S.= 5 5 5 5 5 5 q 5 5 5 5 5 5 5 5 5 % @.S.$.b B B J B B ` B B J B J ",
"M.< 3 w w w w w w w w w w w w w w w 3 Z S.B B J J J J J ` ` ` ` ` ' J ' ' ` ' n S.S.= w w w w w w w w w w w w w w w 6 < q S. .N K ` ` ` ` ` ` ` ` ` ` ",
"B.5 < w 6 w 6 w w w w q 6 w w w w w 3 P S.{ N J J J J J J J J J J J ` J ` ` J m S.S.- w w w w w 6 w w w 6 w w w w w w - Z S.X.m J J ` ` ` J J J J ` J ",
"M.5 < w w w w w w w w w w w w w 6 6 < D S.{ N J J ` J J J J ` J J J J J J B J m S.S.- w w w w w w w w w w w 6 w w w 6 < C S.X.n J J J ` J J J J J J J ",
"M.< < 5 5 4 5 4 4 5 4 5 5 5 5 4 5 4 < C S.m B ` J J ` J J J J ` J J J J J J ' i S.S.# w w w w w w w w 6 q w w w w w w % E S.' N ` J ' [ [ ` J J J J J ",
"C.q O = = = * * = * = - 3 4 4 3 4 3 * R S.S.x ' ' { ' | B z i i y b J J ` J B z S.S.; 2 4 4 4 w - * - % % 6 w w w w q % u.S.&.m ' { ..{ | ' z i z ' K ",
"A.A.B.V.V.V.V.V.C.m.n.S.S.S.S.S.S.S.S.S.S.S.S.S.S.S.S.S.S.S.S.S.S.S.S.S.S.S.S.S.S.S.S.S.S.S.S.S.S.S.S.S.S.S.S.S.S.S.S.S.S.S.S.S.S.S.S.S.S.S.S.S.S.S.S.",
"k.x.b.v.v.v.b.c.c.S.S.S.S.S.S.S.S.S.S.S.S.S.S.S.S.S.S.S.S.S.S.S.S.S.S.S.S.S.S.S.S.S.S.S.S.S.S.S.S.S.S.S.S.S.S.S.S.S.S.S.S.@ S.S.S.S.S.S.S.S.S.S.S.S.S.",
"y y y y y y y y $ g.S.= # - = - = - = - 6 5 5 5 5 5 5 w @ 0 S.*., n J J B J B B B B B J J J J ` z t S.S.X 4 w 5 5 5 w w 4 4 a w w w 5 5 5 # ) S.` b J ",
"' J ` ` ` ` ` ` i d.S.3 3 w w w w w w w w w w w w w w w 3 q S.*.n J ` J ` ` ` ` J ` J ` ` ` J ` [ l S.S.* w w w w w q w w h v a a w w w w % <.S.l J J ",
"` J ` J J J J J i g.S.5 < w w w 6 w 6 w 6 w 6 w w w w 5 < V S. .m J J J J ` J J J J J J J J J J ` i S.S.% 6 6 w w 6 5 w a w w a q 6 w w w * 2.S.t { J ",
"J J J J J J ` J i f.S.5 < w w w w w w w w w w w w 6 q w - F S.B J J J J J J J J J J ` J J J J J J i S.S.= 6 6 6 w 6 w w a r a a 6 6 q w w * <.S.M B ` ",
"N m N m m m m N t p.S.= = 3 < < < < 3 < < < < < - - - 3 = 2 S.' i N m m N n M M m N m m M m N n m t S.S.X < < < < < 4 4 < < 4 < < < < < 3 o E S.m j M ",
"J } O.%.$.$.$.$.J b.S.1.f U U U U U H v 5 q D D F F D F d 8.S.S.J X.o.+.o.+.+...J J X.%.$.$.$.$.O.O.S.S.W P F T H T T T w 4 s D F F F F D d S.S.d.} o.",
"S.S.S.S.S.S.S.S.S.S.S.S.S.S.S.S.S.S.S.S.S.S.S.S.S.S.S.S.S.S.S.S.S.S.S.S.S.S.S.S.S.S.S.S.S.S.S.S.S.S.S.S.S.S.S.S.S.S.S.S.S.S.S.S.S.S.S.S.S.S.S.S.S.S.S.",
"S.:.: 4 0 0 q q q - 2 w w q w w q 5 > 8.S.S.] { K J { ` { J M n J K J J J J M { S.S.S - 5 q q 4 q q < 4 w 5 w q w a v e S.S.S.N [ ` ' ` ' ' n M J J J ",
"S.= = 4 3 3 4 < 3 4 < < 4 3 3 4 3 4 = - S.X.y N B B N N N N N B N B N B B N B y S.S.@ 3 4 3 4 3 3 3 4 < 3 3 4 3 4 < 4 O R S.b l B B N N N B B N N N B ",
"S.w 3 w w w w w w w w w w w 6 w w 5 3 D S.[ N ` J ` J J J J J J J J J J J J ` m S.S.- w 6 w 6 w w w w w w w 5 w w w 5 = E S.{ N J J J J J J J J J J J ",
"S.q 3 w w w w w w w 6 w q w w w w w 3 U S.n J J J J ` J J J J J J J J J J J J n S.S.- 6 w 6 w w w w w q w 6 w w w w w < v S.o.n J J J ` J J J J J J J ",
"S.q 3 w w w w w w w w w w w w w w w 3 F S.z J ` J J J ` J J K ` J J K J J J ` m S.S.- w w w w w w w w w w w w w w w w < h S...N ' J J ` J J K J ` J J ",
"S.= @ - = = = = = % * = = = = = = = @ 2 S.%.t z b z z z z z p j z z z z z z z y S.S.X = = = = = = = = % = = = = = = = X F S...y z z z z z z j j z z z ",
"S.S.S.S.S.S.S.S.S.-.W S.S.S.S.S.S.S.S.S.S.S.S.S.S.S.S.S.S.S.*.w.S.S.S.S.S.S.S.S.S.S.S.S.S.S.S.S.S.S.E Q S.S.S.S.S.S.S.S.S.S.S.S.S.S.S.S.S.S.e.%.w.S.S.",
"S.S.S.S.S.S.S.S.S.S.S.S.S.S.S.S.S.S.S.S.S.S.S.S.S.S.S.S.S.S.S.S.S.S.S.S.S.S.S.S.S.S.S.S.S.S.S.S.S.S.S.S.S.S.S.S.S.S.S.S.S.S.S.S.S.S.S.S.S.S.S.S.S.S.S.",
"i i n x n x n n u i.S.S @ - - < - - - % = % % - = = = = @ D S.6.y z n n z n b z i i i n m n n b z i S.S.# = - - - - - = % - - = - = = = = . 0.S.X.y b ",
"` J J J J J J ] N B S.v 3 6 6 6 6 6 6 6 6 6 w 6 6 6 6 w 3 Z S.k J ` J ` J K J J J ` J J ` J K J ` i S.S.% 6 6 6 6 6 6 6 6 6 6 w 6 6 6 6 w % #.S.l ` ` ",
"J J J J ` J J J m  .S.D 5 a w 6 w q w w 6 w w w w 6 w w 3 D S.J B J J J J J J ` J J J ` K J G K ` i S.S.= 6 w w w w w 6 w w w w w 6 w w w * 2.S.u ' J ",
"J J J J ` J J ` N ' S.U 3 w q w w w w 6 w w w w 6 6 6 w 3 D S.J B ` J J J J J J ` ` ` ` J J J G ` i S.S.% 6 w w q w w w 6 6 6 w 6 6 q w w * 3.S.y ' J ",
"J N B J B B N ` i O.S.2 3 w 5 5 5 3 4 4 3 4 4 4 5 5 3 5 < r S.i m B B B B B B B B B N B N M G G ` y S.S.@ 5 4 4 4 3 5 3 4 5 3 5 5 4 4 4 4 # ( S.i B B ",
"n m ` B B _ B N u S.S.W % 5 4 2 4 4 4 - > - 2 2 4 2 4 2 % W S.S.z N G N B B B m b b m _ _ B B B m m S.S.9 2 2 4 2 4 4 2 - = 2 4 4 2 2 4 2 # S.S.6.u B ",
"S.S.S.S.S.S.S.S.S.S.S.S.S.S.S.S.S.S.S.S.S.S.S.S.S.S.S.S.S.S.S.S.S.S.S.S.S.S.S.S.S.S.S.S.S.S.S.S.S.S.S.S.S.S.S.S.S.S.S.S.S.S.S.S.S.S.S.S.S.S.S.S.S.S.S.",
"S.S.! :.-.-.:.-.<.^ Q @.2.<.<.>.<.<.~ S.S.S.p.d.p.p.p.p.p.e.*.5.p.p.i.i.i.i.7.S.S.S.S.) -.-.-.:.1.-.^ Q :.<.2.<.<.2.-.:.S.S.S.4.p.p.p.p.p.a.7.*.r.p.i.",
"S.= # * = = = * = = * = = = = = = = # > S.' t l l z l z z l z l z k z z z z z t S.S.X = * = * = = * * = = = = * = = = o 4 S.` i z z l z z z l l l z z ",
"S.q 3 6 w w w w w 6 w w w 6 w 6 w w 3 U S.x J J J J J J J J J J J J J J J J J n S.S.- w 6 w w 6 w 6 w w 6 w w w w w w - A S.X.n J J J ` J J J J J J J ",
"S.q 3 w 6 w 6 w w w w w w q w w 6 q < U S.n J J ` J J J ` J J J J J J J J J J m S.S.- w w w w w w w 6 w w w w 6 w 6 w - F S...n ` J J J J J J J J J J ",
"S.q 3 6 w w 6 6 q 6 w 5 6 w w w w w 3 C S. .m J J J ' J J J J J J J J J J ` ` n S.S.- w 6 w 6 6 w w w w 6 6 w w w w w < w S.$.m ` J J J J ` ` J J ' J ",
"S.% - 4 4 4 4 4 4 3 3 3 5 4 4 4 4 4 = = S.%.y J B B B B B N l z J G J N B B J 1 S.S.o 5 4 4 4 4 4 3 4 3 4 4 4 4 4 4 6 % 4 S. .z B B B B B B x j z B B ",
"S.S.0 r C v C C C 4 - w A A C A A v w S.S.S.o.{ X.X.X..... .$.*.}  . . . . .J i.S.S./ 4 V C h C C r = - v A A C Z Z w S S.S.S.{ ....X.X.....$.*.+. . .",
"S.S.S.S.S.S.S.S.S.S.S.S.S.S.S.S.S.S.S.S.S.S.S.S.S.S.S.S.S.S.S.S.S.S.S.S.S.S.S.S.S.S.S.S.S.S.S.S.S.S.S.S.S.S.S.S.S.S.S.S.S.S.S.S.S.S.S.S.S.S.S.S.S.S.S.",
"y i B N N N N m n S.S.t.% - < < - 4 w @ # + = - - - - = @ 1.S.S.b b M n n M n b z t z _ N N N m N O.S.S.S % - 3 < - 5 - % = * = - - - - = & S.S.e.i m ",
"` ` ` ' ` ' ` ' p +.S.- 3 w w w w w w w 6 6 h w h w w w 3 r S.j B ' ' J ' J ' J B ' ` ` ` ` ` ' ' t S.S.@ a w w w w w q w w w w w h w w w @ E S.B m K ",
"` J J ` J J J ` z =.S.a < w w w w w w w w w 6 w w w w w < I S.N J J J J J J J J J J J J J J J J ` i S.S.* 6 w w w w w w w w w w w w 6 6 w * <.S.M J J ",
"` J J J J J J J N ' S.D < w w w w w w w w w q w w q 6 w 3 V S.X.n J J J J J J J J J J ` J ` J ` J i S.S.% 6 w w w w w w w w w w w w q q w % 3.S.y ' J ",
"` J J ` ` ` ` ` N ' S.C 3 w w w w w w w w w w w w w w w 3 5 S.*.z J ' ' J J J J J ' ] J ' ` ` ` ' l S.S.= w w w w w w w w w w w w w q q w = #.S.y ' J ",
"u i z z z z z z i a.S.g O = = = = = = % @ @ * * * * * * + 0 S.s., b n n z k b p y y i x z z z z l t S.S.% % * = = = = = # @ # % @ @ # % % o / S.| u j ",
"S.S.S.S.S.S.S.S.S.S.S.S.S.S.S.S.S.S.S.S.y.S.S.S.S.S.S.S.S.S.S.S.S.S.S.S.S.S.S.S.S.S.S.S.S.S.S.S.S.S.S.S.S.S.S.S.S.S.S.S.S.u.S.S.l.j.S.S.S.S.S.S.S.S.S.",
"S.S.S.S.S.S.S.S.S.S.% S.S.S.S.S.S.S.S.S.S.S.S.S.S.S.S.S.S.S.S.S.S.S.S.S.S.S.S.S.S.S.S.S.S.S.S.S.S.S.S.S.S.S.S.S.S.S.S.S.S.S.S.S.z.S.S.S.S.S.S.S.S.S.S.",
"S.2 % - - > - = 4 5 < - - - - - - - # q S.6.y n n n n n b n ' N b N n b n n b y S.S.O - - - - < - = < 6 4 - - - - - - o W S.J t y i l b b n N N B n n ",
"S.4 3 w w w w w w w w w w w w w w w 3 D S.n J J ` J J J ' } [ } ' J J J J ` J z S.S.= w w w w w w w w 6 w w w w w w w = E S.K M J ` ` ` ` ` ` J J ` J ",
"S.q 3 w w w 6 w 6 w w w 6 6 w w w w 3 P S.B J J J J J J ' ' [ ' J J J J J J ` n S.S.- 6 w w w 6 w w w w w w w w 6 q q % :.S.' n J ` J J J J J J J J J ",
"S.w 3 w 6 6 w w w w w 6 w q 6 w w w 3 F S.B B J J J J ' ] J } J J J J J J J ` m S.S.< 6 q 6 w 6 w 6 w 6 5 w w w w 6 0 % 1.S.K M J J J J ` J J J J J J ",
"S.* = < < < < < < < < < < < < < < < = r S.p z N m m J N B J B m m m n M m m N u S.S.O 3 < < < < < < < < < < < < < < < @ F S.M l M m N n N m m M m m N ",
"S.8.d D D D D F Z q 5 v H H F F F F f q.S.S.` O.O.%.%.o.+.{ N J X.o.o.o.X.o. . .S.S.L C D D F D F C 4 5 A T F F F F D f S.S.h.] O.O.O.O.O.o.[ B K o.o.",
"S.S.S.S.S.S.S.S.S.S.S.S.S.S.S.S.S.S.S.S.S.S.S.S.S.S.S.S.S.S.S.S.S.S.S.S.S.S.S.S.S.S.S.S.S.S.S.S.S.S.S.S.S.S.S.S.S.S.S.S.S.S.S.S.S.S.S.S.S.S.S.S.S.S.S.",
"z J { { [ [ [ ` ` S.S.>.9 r a r s s C 0 - 2 r r r C r q : q.S.S.J B ' ' [ ' [ ` m m ' { [ { [ [ J X.S.S.P 2 s r g s r s 4 2 0 r r r r r 0 8 S.S.S.n ' ",
"B N N N N N N B i J S.0 = 3 < 4 3 < < 3 < < 3 < < w 4 < = 0 S.N i B N B N N N N N N N N B m N B N t S.S.o 3 3 3 3 < < < 3 < < 3 3 < < 3 4 o / S.i n B ",
"` J J J ` ` J ` N [ S.Z < w w q w w w w w w w w w 5 w w 3 F S.B J J J J J J J J J J ` ` J J J J J i S.S.* w w w w w w w w w w w w w w w w * 2.S.y ' J ",
"J J J J J ` J J N [ S.D < 6 w w w w 6 w 6 w w w 6 w 6 w 3 P S.N B ` J J J J J J J J J J J ` J J ` i S.S.= w w w w w 6 w w w w w w 6 w w w * 2.S.y [ J ",
"' J ` ' J J J ` n ..S.s 3 w 6 w w w w w w w w w w w w w 3 h S. .m ` ` ` ` J J K K J J K J J J ' ` i S.S.% w w w w w w w w 6 w 6 w w w 6 w * ,.S.z J J ",
"z i i i i i i p , p.S.* @ - = = = = % * = = % % = = = = # 2 S.w.t z z z z z z l i z p i i j i i i , S.S.X = = = - = = % % = = = = = = = = . -.S.' y z ",
"*.s.S.S.S.S.S.S.S.S.S.S.S.S.S.S.S.S.S.-.T E S.S.S.S.S.S.S.S.S.S.S.S.S.S.S.S.S.S.5.$.S.S.S.S.S.S.S.S.S.S.S.S.S.S.S.S.S.S.-.R @.S.S.S.S.S.S.S.S.S.S.S.S.",
"S.S.S.S.S.S.S.S.S.S.S.S.S.S.S.S.S.S.S.S.S.S.S.S.S.S.S.S.S.S.S.S.S.S.S.S.S.S.S.S.S.S.S.S.S.S.S.S.S.S.S.S.S.S.S.S.S.S.S.S.S.S.S.S.S.S.S.S.S.S.S.S.S.S.S.",
"S.r O * * * * * * = = % < 2 < < 3 < # Z S.d.i b B B N N N m z n N n N N N N n i S.S.% % * * * * * % - = * 4 < < < 3 - O @.S.%.i N N N N N N m z M N N ",
"S.< 3 6 5 5 6 5 5 5 5 5 5 6 6 5 4 6 3 D S.p N ` B J ` B J J B J J J J B J J J l S.S.* 6 6 5 w 5 5 5 5 5 5 5 5 5 5 5 6 - w S. .m J B B J J J J J J B J ",
"S.q 3 6 6 w 6 w 6 w w w 6 q w w 6 6 3 P S.B B J ` J ` ` J J J J J J J J J J J m S.S.- w w a r w 6 w w 5 w w w w w w w - C S.X.m J J ` J J J J J J J J ",
"S.q < w w w w w w w 6 w q q 4 q w w 3 F S.B B ` ` ` ` ` ` ` J J J J J J J J J n S.S.- 5 q a q v w 6 w 6 w w 6 w 5 w 6 - F S.X.m ` ` ` J ` ` J J J J J ",
"S.= - 4 4 3 3 4 3 4 3 4 4 3 4 4 4 3 - r S.l m B B B B N N B B B B B B B B B J u S.S.# 4 4 5 w q 3 4 4 3 4 3 3 4 4 4 4 * C S.' z B N B N N B B B B B B ",
"S.Z = 4 4 4 5 4 4 - - < 4 4 4 5 4 5 = ^ S.S.z B B J B ` B m n z B B B B B B N b S.S.> - 4 4 5 4 4 4 q < > 5 5 4 5 4 5 % 1.S.*.z B ` B ` J B B N N B J ",
"S.S.S.S.S.S.S.S.S.S.S.S.S.S.S.S.S.S.S.S.S.S.S.S.S.S.S.S.S.S.S.S.S.S.S.S.S.S.S.S.S.S.S.S.S.S.S.S.S.S.S.S.S.S.S.S.S.S.S.S.S.S.S.S.S.S.S.S.S.S.S.S.S.S.S.",
"i.d.S.S.S.S.S.S.S.S.S.S.S.S.S.S.S.S.S.3./ >.S.S.S.S.S.S.S.S.S.S.S.S.S.S.S.S.S.S.i.w.S.S.S.S.S.S.S.S.S.S.S.S.S.S.S.S.S.S.>.@.9.S.S.S.S.S.S.S.S.S.S.S.S.",
"i i l l l j p z 1 *.S.- + * % * * % % % % % % % % * % * O = S.*.1 z j j j j k j i i j l l l l j i 1 S.S.. % * % * * * % % % % % * % * % %   -.S.l y j ",
"K J J K ` J J K n ..S.v 3 6 w w w w w w w w w w w w 6 w 3 h S...n J ' J K J J J ' J K K J J K K J i S.S.= w w w w 6 w w 6 w 6 w w w w w w % -.S.J N J ",
"K J J J J J J J N { S.Z 3 w w 6 w w w w 6 w 6 w w 6 w w 3 D S.' B J J J J J J J J J J J J J J J ' i S.S.% 6 w w w w 6 w 6 w q w w 6 w 6 w % r.S.y ' J ",
"J J J J J J J J N | S.Z 3 w w w w w w w 6 w w w w w w 6 3 r S.6.z J J J J J K J J J J J J J J J J i S.S.* w w w q w 6 w w w w w w 6 w w w 4 Z S.n ' J ",
"J J J B J B J J k B S.q - 6 5 5 5 5 5 6 5 5 5 5 5 6 6 q - - S.+.u J J B J J B B B J B J B J J J ' t S.S.o w 5 5 5 5 5 5 q q 5 5 5 5 5 5 w - * S.l n b ",
"K J J J J J K B n S.S.1.: w q q w w q q w q w w w w q w : / S.S.b J J J J J K J J K J K J J J J M ' S.S.D 2 q q w w w q w w q w q q w w q : S.S.7.} o."
};
