/* XPM */
static char *result[] = {
/* columns rows colors chars-per-pixel */
"75 70 204 2 ",
"   c #C0857E",
".  c #365A9B",
"X  c #3B5DA1",
"o  c #3E62A3",
"O  c #48689F",
"+  c #526C9A",
"@  c #4464A4",
"#  c #4967A2",
"$  c #4C6BA5",
"%  c #4769A9",
"&  c #4D6CAA",
"*  c #4868A8",
"=  c #516EA6",
"-  c #516EAA",
";  c #4E70AC",
":  c #5672A7",
">  c #5D75A6",
",  c #5472AC",
"<  c #5A75AC",
"1  c #5D7AAE",
"2  c #5D78A7",
"3  c #5675B2",
"4  c #5A76B1",
"5  c #5D7AB2",
"6  c #627CAC",
"7  c #687CA6",
"8  c #637EB3",
"9  c #657FB9",
"0  c #687FB6",
"q  c #6681AF",
"w  c #6D83AB",
"e  c #6D82A4",
"r  c #7485AB",
"t  c #7689AD",
"y  c #7A89A7",
"u  c #6581B4",
"i  c #6A84B5",
"p  c #6F88B7",
"a  c #6682B8",
"s  c #6C85B9",
"d  c #6E89BA",
"f  c #7286B3",
"g  c #738AB6",
"h  c #7A8CB2",
"j  c #7187B8",
"k  c #748CBC",
"l  c #798FBC",
"z  c #7B90B5",
"x  c #7790BD",
"c  c #7A91BE",
"v  c #7F98BC",
"b  c #768FC0",
"n  c #788FC1",
"m  c #7C93C1",
"M  c #7B95C4",
"N  c #B99B83",
"B  c #BEA693",
"V  c #8293B5",
"C  c #8295BB",
"Z  c #859ABE",
"A  c #8A9CBE",
"S  c #8897B3",
"D  c #949FBE",
"F  c #BD99A5",
"G  c #95A2BD",
"H  c #A8ACB0",
"J  c #D29994",
"K  c #E28E89",
"L  c #E69A95",
"P  c #E69E9A",
"I  c #EA9E99",
"U  c #C1AC9C",
"Y  c #C5B1A2",
"T  c #CCBBAE",
"R  c #C7B9A9",
"E  c #D4B6AA",
"W  c #C1BFBE",
"Q  c #D8BEBB",
"!  c #E6ADAA",
"~  c #EAADA9",
"^  c #E8A6A2",
"/  c #EDB0AE",
"(  c #E3B0AB",
")  c #EBBEBA",
"_  c #F2BEB8",
"`  c #D6CABE",
"'  c #D4C4B9",
"]  c #FBC7BE",
"[  c #8196C2",
"{  c #859AC3",
"}  c #8A9DC5",
"|  c #869BC8",
" . c #8A9EC8",
".. c #919FC4",
"X. c #8DA1C6",
"o. c #8DA1C9",
"O. c #93A4C4",
"+. c #95A8C5",
"@. c #93A5C9",
"#. c #95A9CC",
"$. c #9BACCB",
"%. c #98A7CA",
"&. c #9EB1CD",
"*. c #9DAED2",
"=. c #9BAFD8",
"-. c #A4ADC5",
";. c #A3B2CB",
":. c #A9B5CC",
">. c #B7BCCB",
",. c #A3B5D4",
"<. c #A9B6D2",
"1. c #ABBBD5",
"2. c #A6BAD9",
"3. c #AABDDB",
"4. c #A7B7D7",
"5. c #B2BDD4",
"6. c #B2BED9",
"7. c #B9BFD9",
"8. c #BFC1C5",
"9. c #B5C3D6",
"0. c #BAC3D1",
"q. c #B4C2D9",
"w. c #BAC5DC",
"e. c #BECADE",
"r. c #BFCAD4",
"t. c #B5C6E2",
"y. c #B6CAE4",
"u. c #BCCCE3",
"i. c #C4C2C2",
"p. c #CBC7C7",
"a. c #C3CBCE",
"s. c #CCCAC9",
"d. c #C3C5CF",
"f. c #D1CECD",
"g. c #D1C0C1",
"h. c #D7D0CA",
"j. c #C3CCDC",
"k. c #C8CEDC",
"l. c #C9CAD5",
"z. c #D3CFD3",
"x. c #CCD2DC",
"c. c #CAD2D8",
"v. c #D5D3D2",
"b. c #D9D6D5",
"n. c #DBDAD7",
"m. c #D4D4DB",
"M. c #DDDBDA",
"N. c #EEC5C2",
"B. c #EBCECB",
"V. c #E6CFC6",
"C. c #F1CBC6",
"Z. c #E1D5CB",
"A. c #FED4CC",
"S. c #F6D3CE",
"D. c #E1DEDC",
"F. c #EDDEDD",
"G. c #EDD3D0",
"H. c #F3D6D4",
"J. c #FFDBD3",
"K. c #F4DCDA",
"L. c #D9E1DD",
"P. c #E3E1DE",
"I. c #EBE3DE",
"U. c #EDEBDD",
"Y. c #F9E8DC",
"T. c #C1CBE2",
"R. c #CBD3E1",
"E. c #C8D9EA",
"W. c #D5DBE4",
"Q. c #DADCE2",
"!. c #D3D9E6",
"~. c #CDDDF0",
"^. c #E0DDE0",
"/. c #D5E4EE",
"(. c #DEE2E6",
"). c #E5E3E2",
"_. c #E9E6E5",
"`. c #ECE9E6",
"'. c #E3E5EC",
"]. c #EDEBEA",
"[. c #E2E8E9",
"{. c #F1E5E3",
"}. c #F3EBE5",
"|. c #F2EEED",
" X c #F9EFE8",
".X c #E8F1EE",
"XX c #F4F0E4",
"oX c #FDF2E6",
"OX c #F3F0EF",
"+X c #FCF4EB",
"@X c #FFFAED",
"#X c #EFEEF0",
"$X c #F4EFF1",
"%X c #EFF1F5",
"&X c #E3F1F5",
"*X c #F5F3F2",
"=X c #F9F6F4",
"-X c #F6F8F5",
";X c #FDFBF5",
":X c #F9F5F8",
">X c #F4FDFA",
",X c #FEFEFC",
"<X c #F6F7FA",
"1X c None",
/* pixels */
"1X1X1X1X1X1X1X1X1X1X1X1X1X1X1X1X1X1X1X1X1X1X1X1X1X1X1X1X1X1X1X1X1X1X1X1X1X1X1X1X1X1X1X1X1X1X1X1X1X1X1X1X1X1X1X1X1X1X1X1X1X1X1X1X1X1X1X1X1X1X1X1X1X1X1X",
"1X1X1X1X1X1X1X1X1X1X1X1X1X1X1X1X1X1X1X1X1X1X1X1X1X1X1X1X1X1X1X1X1X1X1X1X1X1X1X1X1X1X1X1X1X1X1X1X1X1X1X1X1X1X1X1X1X1X1X1X1X1X1X1X1X1X1X1X1X1X1X1X1X1X1X",
"1X1X1X1X1X7.1X1X1X1X1X1X1X1X1X1X1X1X1X1X1X1X1X1X1X1X1X1X1X1X1X1X1X1X1X1X1X1X1X1X1X1X1X1X1X1X1X1X1X1X1X1X1X1X1X1X1X1X1X1X1X1X1X1X1X1X1X1X1X1X1X1X1X1X1X",
"1X1X1X1X{ i 5.1X1X1X1X1X1X1X1X1X1X1X1X1X1X1X1X1X1X1X1X1X1X1X1X1X1X1X1X1X1X1X1X1X1X1X1X1X1X1X1X1X1X1X1X1X1X1X1X1X1X1X1X1X1X1X1X1X1X1X1X1X1X9.1X1X1X1X1X",
"1X1X1X1X8 l [ w.9.w.1X1X1X1X1X1X1X1X1X1X1X1X1X1X1X1X1X1X1X1X1X1X1X1X1X1X1X1X1X1X1X1X1X1X1X1X1X1X1X1X1X1X1X1X1X1X1X1X1X1X1X1X1X1X1X1X1X1XC k g 1X1X1X1X",
"1X1X1X1X<.3.Z u [ [ m C { %.;.5.j.1X1X1X1X1X1X1X1X1X1X1X1X1X1X1X1X1X1X1X1X1X1X1X1X1X1X1X1X1X1X1X1X1X1X1X1X1X1X1X1X1X1X1X1X1X1X1X1X1X1X$.k { 8 Z 1X1X1X",
"1X1X1X1X1X1X1X%.j { | | | | m l l C | @.;.5.1X1X1X1X1X1X1X1X1X1X1X1X1XT.e.q.6.6.5.6.w.T.T.1X1X1X1X1X1X1X1X1X1X1X1X1X1X1Xj.6.<.4.<.7.T.} c f 8 l 1X1X1X",
"1X1X1X1X1X1X1X1Xc s l c c j j c c l l b n k c { { O.%.#.@. .| { c m C n l l C c [ l n l l C c C { { { { } O. .O.} | { C c l m [ c l k j 0 [ c e.1X1X1X",
"1X1X1X1X1X1X1X1Xj.9 c m s :.W.E.~.E.y.,. .m k l m [ | { |  . . . . . . . .X.X. .O. .@. . .@. . .o. .}  . .| | { { Z { | | { A [ m l j p e.1X1X1X1X1X1X",
"1X1X1X1X1X1X1X1X1Xk k m 8 e.,XJ.A.A.A. X%XQ.k.5.%.c 8 j |  . .@.@.O.X.o.o.o.} | { [ [ m m M m | |  . .} | C c m l k c k c l l x x x u j.1X1X1X1X1X1X1X",
"1X1X1X1X1X1X1X1X1X{ k c k d &XA.K ~ ] |.,X;X;X;X=X).5.{ q 8 m | { { { { C c c l l k l n k c l k c c c c x k x l c c c c c x c c c p { 1X1X1X1X1X1X1X1X",
"1X1X1X1X1X1X1X1X1X{ g c m a x ,XC.F.>X*X$X*XOXOX*X;X,X;X).$.< s m x k k x k c c c c c c l m m c c c c c c c l m c c c c c c c c c u 5.1X1X1X1X1X1X1X1X",
"1X1X1X1X1X1X1X1X1Xz k c c m , i ).;XOX|.OXOXOXOX*XOX*X>X,X,Xl.< a M M c l c l c c c c c c c c c c c c c c c c l c c c c c c c c c 6 t.1X1X1X1X1X1X1X1X",
"1X1X1X1X1X1X1X1X1Xu M c c m s & W.,X*X*XOXOXOX}.*X,XOXI.}.=X,Xj.& , k m m c c c c c c c c c c c c c c c c l c c c c c c c c x c c 8 <.1X1X1X1X1X1X1X1X",
"1X1X1X1X1X1X1X1X1.a c c c m , +.,XOX*XOXOXOX=X|.U D.K.I ! ^.:X@XQ.} : < l m m c c c c c c k c c c c c l x m c c c l c c c c c c c p { 1X1X1X1X1X1X1X1X",
"1X1X1X1X1X1X1X1X| s c c c m 1 W.,X|.|.OXOXOXOX=XD.B ^ ^ L G.,X|.+X,XW.g # u M m c c c c l m m c c c c c c c c c c c c l c c c c c c 0 1X1X1X1X1X1X1X1X",
"1X1X1X1X1X1X1X1Xu c M c c 8 o.,X*X|.OXOXOX|.,X,X,XR E ~ ~ }.-X$XP.OX,X;X5., & b m c c c c c c c c c c c c c c c c c c c c m k c c c a X.1X1X1X1X1X1X1X",
"1X1X1X1X1X1X1XA u c c c M 2 k.,X|.*XOXOX*X*X' ' E Y ;X}.|.=XOX$X_.|.OX=X,X'.z # d m c c c c x c c c c l c m c c c c c c c l m c c c c q 1X1X1X1X1X1X1X",
"1X1X1X1X1X1X1X< b c c c u C ;X+X$XOX|.OX*X-Xb.U Y `.:X-X*XOX*X|.).|.OXOX$X,X,X&.# 8 { M c c c c c c c c c k c c l c c c c c c c c c k 4 1X1X1X1X1X1X1X",
"1X1X1X1X1X1X+.& a u u 8 o e.,X|.$XOXOXOX|.OX:X,X,X-X|.$X$X$X$X|._.|.*XOXOX|.=X,Xk.$ , m m x c c c c c c c c c c m l c c c c M s 8 u k c 1X1X1X1X1X1X1X",
"1X1X1X1X1X1X6 8 %.q.u.2.#.OX=XOXOXOXOX|.,X:X-XS.J ).<X*XOX$X*X].).OXOXOXOXOX|.OX,X'.5 $ c M x c c c c c c c c c c c c c { a : c 6.!.'.].=X|.|.|.|.*X1X",
"1X1X1X1X1X1X. O.,XoXY.oXoXOXOXOXOX|.*X-X` ).,X)   Q :XOXOX$X*X_._.OXOXOX|.*XOX*XOX,X*Xj # x c c n c c l c c c c c c m x - p j.:X,X;X@X=X|._.|.].|.1X1X",
"1X1X1X1X1X&.% 1 /.@XL L ] %XOXOXOXOX*X:X` N {.<X|.|.*XOXOX|.*X_.|.*XOXOXOXOXOXOXOXOX,X,Xz $ k M c c c c c c c l c [ k & +.,X,XOXP.].=X*X).|.].].1X1X1X",
"1X1X1X1X1Xc 4 4 : /.;XJ ] >XOXOXOXOXOX$X,XZ.B ,X-X*X|.OXOX*X|.).OXOXOXOXOXOXOXOXOXOXOX;X,Xc % b m c c c c c l m m d $ q.,X,X_.D.$X*X=X).`.|.).=X1X1X1X",
"1X1X1X1X1Xu 8 M 5 - E.@X] ].OXOXOX|.].:X,Xh.Y ,XOX|.OXOXOX*X_.`.*XOXOXOXOXOXOX*XOXOX*X|.;X;Xz $ c m c c c c c m c $ w.,X,X).M.OX=X*X|.).*X).OX1X1X1X1X",
"1X1X1X1X1X6 8 M M 8 # 1.;X;XOXOXOX-X].T T U F.,X*XOXOXOX*X|.).|.OXOXOXOXOXOX|.|.OXOX|.*X*X,X*Xa : m c c c c c M # &.,X*X_.M.=X*X|.*X)._.].).=X1X1X1X1X",
"1X1X1X1X1X1 i M c M d % { -X,XOX*XOX-X).' ~ / G.-X*XOXOX*X_._.*XOXOXOXOX*XOX*X|.OXOX|.-X=X*X,X(.= 8 M c c c { < k ,X}.|.n.OXOXOX].*XD.|.).|.=X1X1X1X1X",
"1X1X1X1X1X1 d c c c m M ; u W.,X=X|.|.,XH.L I ( .X*XOX*X].).$X$XOXOXOXOX|.OXOXOXOXOXOX-X=X-XOX,X5.@ j M c m j $ !.+X].P._.-X*X_.`.OXD.|.).|.1X1X1X1X1X",
"1X1X1X1X1X4 d c c c c c [ 8 $ &.;X,XOX-X{.~ P B.-XOX*X|.).|.*X*X*X*X|.*X|.|.*X|.|.|.*X=X=X-X*X=X,XZ & x M m & | ;X).|.M.=X|.*X_.OX|.P.].).*X1X1X1X1X1X",
"1X1X1X1X1X6 d v c c c c c [ i % d m.,X;X<X}.K.OXOXOX*X_.].*X=X-X-X-X|.|.*X|.|.*X*X|.OX*X-X=X=X*X,X$X2 1 M d & W.+X`._.D.=X*X].D.:X`.)._.).].1X1X1X1X1X",
"1X1X1X1X1X0 i c c c c c g j k 6 & @ Z (.=X;X:X*X+X|.].].*X*X=X-X=X*X|.|.OXOX|.*XOXOX$X*X*X=X-X-XOX,Xq.& a 4 k ;XP.|.D.].*X=X).).:X_.)._.^.|.1X1X1X1X1X",
"1X1X1X1X1Xc 1 c c c x g C { { z q q ;.c.).].].].$X*X*X*X=X-X=X=X*X-X*X|.*XOXOX|.|.*X|.$X=X-X*X].*X+X,Xc , $ #.;XD.OXM.|.$X=XP.).:X_.)._.).`.1X1X1X1X1X",
"1X1X1X1X1X$.= c n n f  .t.,.$.@.,.m.{.}.].`.).].`.).[.`.OX-X*X*X>XK.{.*X*XOX*X|.OXOXOX].|.*X|.OXOXOX,Xk.& & k.;XP.|.D.*X*X|.f.D.;X).).).D._.1X1X1X1X1X",
"1X1X1X1X1X1X- n h i f ..C f C > S I.f.D.].-XOX_.).OXOX|.|.OX*X>XH.~ |.<X|.OX*X|.OXOXOX*X*X].*X|.*X].*X,Xx @ '.+X).].n.=X|.].D.D.:X)._._.D.`.1X1X1X1X1X",
"1X1X1X1X1X1X: 0 C $.#.7 V %.%.o.q H +X`.P.|.]._.,X-X|.-X_.P..XB.L ! ).M._.*X|.|.OXOXOXOXOX|.*X|.OXOX|.,X9.: ).`.L.D.f.`.M.|._.M.+Xz.^._.M.`.1X1X1X1X1X",
"1X1X1X1X1X1X8 6 %.u.C V ,.r t r o.r i.,XOX)._.=X=XM.).P.`.;XC.P Q s.' 8.].*XOX].OXOXOXOXOXOX|.*XOX*X].+X].2.%X).s.`.`.:X^._.).f.^.D.D.D.M.].1X1X1X1X1X",
"1X1X1X1X1X1X5 : @.2.r *.h A 3.A h } + R.;X_._.OX|._.,X,XP.f F V.a.i.p.].-X].|.|.OXOXOXOXOXOXOXOXOXOX|.*XOXS '.=Xv.=Xf.).).]._.s.$X].M.D.M._.1X1X1X1X1X",
"1X1X1X1X1X1X: 2 o.*.r #.t 3.1.3.r $.7 k e.}.+X;X-XU._.:.+ > L.n.p.D.|.-X|.|.*X|.OXOXOXOXOXOXOXOXOXOX*X*X;Xe 0.,XM._.i._.^.}.].*X,Xs.M.).M.].1X1X1X1X1X",
"1X1X1X1X1X;.& 2  .4.r *.t C 3.Z r ,.r @.p 7 G x.c.V + . : L.XXv.*X=X*X|.|.|.*X|.|.OXOXOXOXOX|.%XOX|.OX*X,Xy &.,XM.OXi.D.D.]._.b.|.D.D.D.b.].1X1X1X1X1X",
"1X1X1X1X1Xc 3 < } u.V C ,.y w w 4.A l =.+.S z w c m { c G XXn.|.:X|.|.OX|.|.*X|.OXOXOXOXOXOX|.*XOX*X].OX;X1.1.+Xv.*X).|._.).].f.M.|._.b.n.].1X1X1X1X1X",
"1X1X1X1X1X8 8 6 Z ,.#.7 } ,.+.,. .r c :.}.oX;XM.-.k M j a.U.v.OXOX|.|.OX|.*X|.OXOX].OX*X|.|.|.|.OXOX|.|.;X&.j ].M.M._.|._.M.n.|.b.b.|.b.M.].1X1X1X1X1X",
"1X1X1X1X1X< u u u g h l f h { l f s 6 z.}.].*X;X@X8.$ O v.}._.OXOXOXOXOX|.$X|.|.|.OXOXOX*X|.*X|.|.|.|.=X=Xt $ -X+X).v.).OXb.b.-XM.D.].b.M.1X1X1X1X1X1X",
"1X1X1X1X1X, u u j c b k m k g l m , O.+X_.].$X$X=X;Xx.6 c.OX=XOX|.OXOXOX|.*X*X*X*X-X-XOX|.*XOXOXOXOXOX;X`.8 5 [.,X|.D.=X=Xn.|._.n.=X|.b.D.1X1X1X1X1X1X",
"1X1X1X1X1X, u u k m l c c x c m b & %.+X).*XOX|.OX*X;Xm.v.].OXOXOXOX*X*X*X=X-X<X=X*X-X*X|.*XOX%XOXOXOX,Xx.& i ].,XP.M.:X_.D.=Xb._.=X_.v._.1X1X1X1X1X1X",
"1X1X1X1X1X8 8 u k c c c c c c m c 1 u M.+X_.].*XOXOX=X=XP.`.*XOX|.*X=X=X=X-X*X=X-X=X=X-X$X*X*X*X*XOX*X;X5.o x ,X=Xn.|.=XD.|.D.D.=X=XD.b._.1X1X1X1X1X1X",
"1X1X1X1X1Xu 5 u b c m c c c c c b a ; v +X}.`.*XOXOX|.OX].|.OXOXOXOX*X-X=X*X=X*X=X*X*X=X*X$X].*XOXOX*X;XX.. %.,XD.).:X).).|.b.|.=X|.b.n.1X1X1X1X1X1X1X",
"1X1X1X1X1X{ - u x m c c c c c c m j 8 & C |.+X].*XOXOXOX*XOXOXOXOXOX*X-X-X=X*X=X-X*X=X*X*X*X*XOX|.*X@XM.; - ].Y.D.=X].).|.b.|.=X*X^.v.).1X1X1X1X1X1X1X",
"1X1X1X1X1X<.$ u b c c c c c c c c c i u & h `.|.].*XOXOXOXOXOXOXOXOXOX*X=X*X:X-X*X=X-X=X=X*X|.$X*X*X@XA o R.=XD.=X|.]._.v.].=X*X].b.n.OX1X1X1X1X1X1X1X",
"1X1X1X1X1X1X< u d c m m k c c c c m b u u & a D.+X].OXOXOXOXOXOXOXOX|.*X=X*X-X=X*X=X*X=X-X*X|.OX*X].P.9.m.@X_.*X=X$X).M.].:X=X|.M.v._.1X1X1X1X1X1X1X1X",
"1X1X1X1X1X1Xq 1 x M x c c c c c c c m k u s - 5 m.+X|.*XOX|.OXOXOX|.*X|.*X=X=X-X=X-X=X-X*X*X|.*X|.D.I.=X+X|.=X:X|.^.M.*X=X*X].M.v.D.1X1X1X1X1X1X1X1X1X",
"1X1X1X1X1X1Xp , d M x c c c c c c c l m b 8 a 4 , 0.@XOXOXOXOXOX|.*XOXOX$X*X=X=X*X=X*X*X|.OX+X$X).P.|.*X*X*X].).^._.=X=XOX).b.D.`.1X1X1X1X1X1X1X1X1X1X",
"1X1X1X1X1X1Xc < i M c c c c c c m k m c m b 0 a 5 $ ;.+X=X*X|.OX*X|.OXOX|.OXOX*X*X*X|.*X|.*XOX_.D.)._.|.|.|._.].=X=X|._.n.v.F.`.x.1X1X1X1X1X1X1X1X1X1X",
"1X1X1X1X1X1XM < u c c c c l m l c c c c c M k u a 8 % D +X;X*XOX|.*X|.|.OXOXOXOX$X].*X*XOX*X_.P.).).D.I.)._.].]._.P.M.b.M.+X+Xh O.1X1X1X1X1X1X1X1X1X1X",
"1X1X1X1X1X1Xk 5 9 l c c c c c c c c c c c c M b a u a * C  X@XOX*X|.|.*XOXOXOXOX|.$X*X*XOXP.U.+X+XI.).^.).D.D.M.M.M.D.XX@Xm.g X 1X1X1X1X1X1X1X1X1X1X1X",
"1X1X1X1X1X1Xq 5 8 k c c c c c m l c c c c c x M c a 8 a & k ).;X|.*X*X*XOXOXOXOX*X*X]._.`.@Xk.Z 0.|.@X X}.}.`.}.XX@X+Xm.+.: & 5 1X1X1X1X1X1X1X1X1X1X1X",
"1X1X1X1X1X1X- u 8 g M c c c c k m l c c c c c x M m g u u & 8 0.OX@X|.|.|.|.|.|.|.`. X+X_.:.5 @ : c ;.d.m.m.Q.m.l.>.} 1 , s 8 u 1X1X1X1X1X1X1X1X1X1X1X",
"1X1X1X1X1X#.& a u k m l c c c c c c c c c c c c c c M k s u < & C 0.Q. XOXoX+XXX}.I.m.1.p % < d k a 5 u d x x j 8 5 5 k M M 4 a 1X1X1X1X1X1X1X1X1X1X1X",
"1X1X1X1X1X6 5 u u s m m m m m m c M m c c c c c c c c m M k p a , , i C O.$.%.+.Z k 4 & , a k c c M m M b b k c m m m m m m 8 8 1X1X1X1X1X1X1X1X1X1X1X",
"1X1X1X1X;.$ a u u a s p d d j j d d j m c c c c c c c c c m m c g s 8 , , & & % & 3 a d x M { m m [ m m m m m M m m m m m m s > 1X1X1X1X1X1X1X1X1X1X1X",
"1X1X1X1X- 3 8 8 a 9 8 u 8 u 8 8 u 8 8 u d d x c m c m c j i 8 5 , : & , , > a s d u $ , d d s s d d p d k j i s s k n m m m s - 1X1X1X1X1X1X1X1X1X1X1X",
"1X1X1Xu , d u 1 1 1 , , , , , & - - & & , - : < 1 8 u u u u g c { @.,.1.1X1X1X1X1X1X1XX.: & 5 u u u 5 u 8 8 8 8 8 1 5 8 d i 8 - ,.1X1X1X1X1X1X1X1X1X1X",
"1X1Xc @ k 1X1X1X1X1X1X1X1X1X1Xw.6.6.q.1X1X1X1X1X1X1X1X1X1X1X1X1X1X1X1X1X1X1X1X1X1X1X1X1X1X| , $ , 4 5 4 3 , & , < u p p 1 * 5 , } 1X1X1X1X1X1X1X1X1X1X",
"1X1X- - c 1X1X1X1X1X1X1X1X1X1X1X1X1X1X1X1X1X1X1X1X1X1X1X1X1X1X1X1X1X1X1X1X1X1X1X1X1X1X1X1X1X1X1.X.l d g c O.;.1X1X1X1X1X1X1.a 5 q 1X1X1X1X1X1X1X1X1X1X",
"1X1X# X w.1X1X1X1X1X1X1X1X1X1X1X1X1X1X1X1X1X1X1X1X1X1X1X1X1X1X1X1X1X1X1X1X1X1X1X1X1X1X1X1X1X1X1X1X1X1X1X1X1X1X1X1X1X1X1X1X1X1X- $ 9.1X1X1X1X1X1X1X1X1X",
"1X1X1Xq.1X1X1X1X1X1X1X1X1X1X1X1X1X1X1X1X1X1X1X1X1X1X1X1X1X1X1X1X1X1X1X1X1X1X1X1X1X1X1X1X1X1X1X1X1X1X1X1X1X1X1X1X1X1X1X1X1X1X1.- , i 1X1X1X1X1X1X1X1X1X",
"1X1X1X1X1X1X1X1X1X1X1X1X1X1X1X1X1X1X1X1X1X1X1X1X1X1X1X1X1X1X1X1X1X1X1X1X1X1X1X1X1X1X1X1X1X1X1X1X1X1X1X1X1X1X1X1X1X1X1X1X1X1XG & s $ 1X1X1X1X1X1X1X1X1X",
"1X1X1X1X1X1X1X1X1X1X1X1X1X1X1X1X1X1X1X1X1X1X1X1X1X1X1X1X1X1X1X1X1X1X1X1X1X1X1X1X1X1X1X1X1X1X1X1X1X1X1X1X1X1X1X1X1X1X1X1X1X1X1X@ 4 X 1X1X1X1X1X1X1X1X1X",
"1X1X1X1X1X1X1X1X1X1X1X1X1X1X1X1X1X1X1X1X1X1X1X1X1X1X1X1X1X1X1X1X1X1X1X1X1X1X1X1X1X1X1X1X1X1X1X1X1X1X1X1X1X1X1X1X1X1X1X1X1X1X1X,.8 A 1X1X1X1X1X1X1X1X1X",
"1X1X1X1X1X1X1X1X1X1X1X1X1X1X1X1X1X1X1X1X1X1X1X1X1X1X1X1X1X1X1X1X1X1X1X1X1X1X1X1X1X1X1X1X1X1X1X1X1X1X1X1X1X1X1X1X1X1X1X1X1X1X1X1Xo.1X1X1X1X1X1X1X1X1X1X",
"1X1X1X1X1X1X1X1X1X1X1X1X1X1X1X1X1X1X1X1X1X1X1X1X1X1X1X1X1X1X1X1X1X1X1X1X1X1X1X1X1X1X1X1X1X1X1X1X1X1X1X1X1X1X1X1X1X1X1X1X1X1X1X1X1X1X1X1X1X1X1X1X1X1X1X"
};
